<?xml version="1.0" encoding="UTF-8" standalone="no"?>
<!DOCTYPE svg PUBLIC "-//W3C//DTD SVG 1.1//EN"
 "http://www.w3.org/Graphics/SVG/1.1/DTD/svg11.dtd">
<!-- Generated by graphviz version 2.40.1 (20161225.0304)
 -->
<!-- Title: %3 Pages: 1 -->
<svg width="2179pt" height="1060pt"
 viewBox="0.00 0.00 2178.70 1060.00" xmlns="http://www.w3.org/2000/svg" xmlns:xlink="http://www.w3.org/1999/xlink">
<g id="graph0" class="graph" transform="scale(1 1) rotate(0) translate(4 1056)">
<title>%3</title>
<polygon fill="#ffffff" stroke="transparent" points="-4,4 -4,-1056 2174.6955,-1056 2174.6955,4 -4,4"/>
<text text-anchor="middle" x="1085.3478" y="-248.8" font-family="Times,serif" font-size="14.00" fill="#000000">Model:</text>
<text text-anchor="middle" x="1085.3478" y="-233.8" font-family="Times,serif" font-size="14.00" fill="#000000">(Unknown)</text>
<text text-anchor="middle" x="1085.3478" y="-202.8" font-family="Times,serif" font-size="14.00" fill="#000000">Namespaces:</text>
<text text-anchor="middle" x="1085.3478" y="-187.8" font-family="Times,serif" font-size="14.00" fill="#000000">dcmitype: http://purl.org/dc/dcmitype/</text>
<text text-anchor="middle" x="1085.3478" y="-172.8" font-family="Times,serif" font-size="14.00" fill="#000000">dcterms: http://purl.org/dc/terms/</text>
<text text-anchor="middle" x="1085.3478" y="-157.8" font-family="Times,serif" font-size="14.00" fill="#000000">dsw: http://purl.org/dsw/</text>
<text text-anchor="middle" x="1085.3478" y="-142.8" font-family="Times,serif" font-size="14.00" fill="#000000">dwc: http://rs.tdwg.org/dwc/terms/</text>
<text text-anchor="middle" x="1085.3478" y="-127.8" font-family="Times,serif" font-size="14.00" fill="#000000">dwciri: http://rs.tdwg.org/dwc/iri/</text>
<text text-anchor="middle" x="1085.3478" y="-112.8" font-family="Times,serif" font-size="14.00" fill="#000000">foaf: http://xmlns.com/foaf/0.1/</text>
<text text-anchor="middle" x="1085.3478" y="-97.8" font-family="Times,serif" font-size="14.00" fill="#000000">img: http://localhost:8080/semanticAnnotator/files/</text>
<text text-anchor="middle" x="1085.3478" y="-82.8" font-family="Times,serif" font-size="14.00" fill="#000000">iso: http://iso639&#45;3.sil.org/code/</text>
<text text-anchor="middle" x="1085.3478" y="-67.8" font-family="Times,serif" font-size="14.00" fill="#000000">mf: http://www.w3.org/TR/media&#45;frags/</text>
<text text-anchor="middle" x="1085.3478" y="-52.8" font-family="Times,serif" font-size="14.00" fill="#000000">oa: http://www.w3.org/ns/oa#</text>
<text text-anchor="middle" x="1085.3478" y="-37.8" font-family="Times,serif" font-size="14.00" fill="#000000">obo: http://purl.obolibrary.org/obo/</text>
<text text-anchor="middle" x="1085.3478" y="-22.8" font-family="Times,serif" font-size="14.00" fill="#000000">orcid: http://orcid.org/</text>
<text text-anchor="middle" x="1085.3478" y="-7.8" font-family="Times,serif" font-size="14.00" fill="#000000">rdf: http://www.w3.org/1999/02/22&#45;rdf&#45;syntax&#45;ns#</text>
<!-- Rhttp://localhost:8080/rdf/nc/annotation/ed9db97c&#45;d2e4&#45;4df7&#45;b4c3&#45;a79110617eab -->
<g id="node1" class="node">
<title>Rhttp://localhost:8080/rdf/nc/annotation/ed9db97c&#45;d2e4&#45;4df7&#45;b4c3&#45;a79110617eab</title>
<ellipse fill="none" stroke="#0000ff" cx="295.7238" cy="-817" rx="295.9477" ry="18"/>
<text text-anchor="middle" x="295.7238" y="-813.3" font-family="Times,serif" font-size="14.00" fill="#000000">http://localhost:8080/rdf/nc/annotation/ed9db97c&#45;d2e4&#45;4df7&#45;b4c3&#45;a79110617eab</text>
</g>
<!-- Roa:Annotation -->
<g id="node2" class="node">
<title>Roa:Annotation</title>
<ellipse fill="none" stroke="#0000ff" cx="825.9377" cy="-950" rx="61.1893" ry="18"/>
<text text-anchor="middle" x="825.9377" y="-946.3" font-family="Times,serif" font-size="14.00" fill="#000000">oa:Annotation</text>
</g>
<!-- Rhttp://localhost:8080/rdf/nc/annotation/ed9db97c&#45;d2e4&#45;4df7&#45;b4c3&#45;a79110617eab&#45;&gt;Roa:Annotation -->
<g id="edge1" class="edge">
<title>Rhttp://localhost:8080/rdf/nc/annotation/ed9db97c&#45;d2e4&#45;4df7&#45;b4c3&#45;a79110617eab&#45;&gt;Roa:Annotation</title>
<path fill="none" stroke="#000000" d="M364.3875,-834.5135C447.4727,-855.6654 591.6334,-892.2381 715.4475,-923 732.7491,-927.2986 751.5892,-931.9233 768.7308,-936.1095"/>
<polygon fill="#000000" stroke="#000000" points="768.0581,-939.548 778.6028,-938.5178 769.7172,-932.7474 768.0581,-939.548"/>
<text text-anchor="middle" x="653.4475" y="-920.8" font-family="Times,serif" font-size="14.00" fill="#000000">rdf:type</text>
</g>
<!-- Rorcid:0000&#45;0002&#45;2146&#45;4803 -->
<g id="node3" class="node">
<title>Rorcid:0000&#45;0002&#45;2146&#45;4803</title>
<ellipse fill="none" stroke="#0000ff" cx="825.9377" cy="-896" rx="110.4804" ry="18"/>
<text text-anchor="middle" x="825.9377" y="-892.3" font-family="Times,serif" font-size="14.00" fill="#000000">orcid:0000&#45;0002&#45;2146&#45;4803</text>
</g>
<!-- Rhttp://localhost:8080/rdf/nc/annotation/ed9db97c&#45;d2e4&#45;4df7&#45;b4c3&#45;a79110617eab&#45;&gt;Rorcid:0000&#45;0002&#45;2146&#45;4803 -->
<g id="edge2" class="edge">
<title>Rhttp://localhost:8080/rdf/nc/annotation/ed9db97c&#45;d2e4&#45;4df7&#45;b4c3&#45;a79110617eab&#45;&gt;Rorcid:0000&#45;0002&#45;2146&#45;4803</title>
<path fill="none" stroke="#000000" d="M407.8444,-833.7056C504.9488,-848.1738 643.6841,-868.8449 734.2713,-882.342"/>
<polygon fill="#000000" stroke="#000000" points="733.8446,-885.817 744.2512,-883.829 734.8762,-878.8934 733.8446,-885.817"/>
<text text-anchor="middle" x="653.4475" y="-877.8" font-family="Times,serif" font-size="14.00" fill="#000000">dcterms:creator</text>
</g>
<!-- L2021&#45;01&#45;12T14:23:11.646Z|Datatype: dcterms:W3CDTF -->
<g id="node4" class="node">
<title>L2021&#45;01&#45;12T14:23:11.646Z|Datatype: dcterms:W3CDTF</title>
<polygon fill="none" stroke="#000000" points="738.4377,-813 738.4377,-859 913.4377,-859 913.4377,-813 738.4377,-813"/>
<text text-anchor="middle" x="825.9377" y="-843.8" font-family="Times,serif" font-size="14.00" fill="#000000">2021&#45;01&#45;12T14:23:11.646Z</text>
<polyline fill="none" stroke="#000000" points="738.4377,-836 913.4377,-836 "/>
<text text-anchor="middle" x="825.9377" y="-820.8" font-family="Times,serif" font-size="14.00" fill="#000000">Datatype: dcterms:W3CDTF</text>
</g>
<!-- Rhttp://localhost:8080/rdf/nc/annotation/ed9db97c&#45;d2e4&#45;4df7&#45;b4c3&#45;a79110617eab&#45;&gt;L2021&#45;01&#45;12T14:23:11.646Z|Datatype: dcterms:W3CDTF -->
<g id="edge3" class="edge">
<title>Rhttp://localhost:8080/rdf/nc/annotation/ed9db97c&#45;d2e4&#45;4df7&#45;b4c3&#45;a79110617eab&#45;&gt;L2021&#45;01&#45;12T14:23:11.646Z|Datatype: dcterms:W3CDTF</title>
<path fill="none" stroke="#000000" d="M550.7361,-826.1383C613.9021,-828.4018 677.8334,-830.6927 728.1583,-832.4961"/>
<polygon fill="#000000" stroke="#000000" points="728.2421,-836.0013 738.361,-832.8617 728.4928,-829.0058 728.2421,-836.0013"/>
<text text-anchor="middle" x="653.4475" y="-834.8" font-family="Times,serif" font-size="14.00" fill="#000000">dcterms:date</text>
</g>
<!-- B_:node1euqlam8lx274 -->
<g id="node5" class="node">
<title>B_:node1euqlam8lx274</title>
<ellipse fill="none" stroke="#00ff00" cx="825.9377" cy="-776" rx="18" ry="18"/>
</g>
<!-- Rhttp://localhost:8080/rdf/nc/annotation/ed9db97c&#45;d2e4&#45;4df7&#45;b4c3&#45;a79110617eab&#45;&gt;B_:node1euqlam8lx274 -->
<g id="edge4" class="edge">
<title>Rhttp://localhost:8080/rdf/nc/annotation/ed9db97c&#45;d2e4&#45;4df7&#45;b4c3&#45;a79110617eab&#45;&gt;B_:node1euqlam8lx274</title>
<path fill="none" stroke="#000000" d="M478.9358,-802.8327C596.7238,-793.7245 738.4291,-782.7668 797.7101,-778.1828"/>
<polygon fill="#000000" stroke="#000000" points="798.0953,-781.6635 807.7957,-777.4029 797.5556,-774.6844 798.0953,-781.6635"/>
<text text-anchor="middle" x="653.4475" y="-795.8" font-family="Times,serif" font-size="14.00" fill="#000000">oa:hasBody</text>
</g>
<!-- B_:node1euqlam8lx273 -->
<g id="node13" class="node">
<title>B_:node1euqlam8lx273</title>
<ellipse fill="none" stroke="#00ff00" cx="825.9377" cy="-609" rx="18" ry="18"/>
</g>
<!-- Rhttp://localhost:8080/rdf/nc/annotation/ed9db97c&#45;d2e4&#45;4df7&#45;b4c3&#45;a79110617eab&#45;&gt;B_:node1euqlam8lx273 -->
<g id="edge12" class="edge">
<title>Rhttp://localhost:8080/rdf/nc/annotation/ed9db97c&#45;d2e4&#45;4df7&#45;b4c3&#45;a79110617eab&#45;&gt;B_:node1euqlam8lx273</title>
<path fill="none" stroke="#000000" d="M341.3884,-799.086C448.8027,-756.948 714.7879,-652.6035 799.5444,-619.354"/>
<polygon fill="#000000" stroke="#000000" points="800.9282,-622.5709 808.9593,-615.6606 798.3717,-616.0543 800.9282,-622.5709"/>
<text text-anchor="middle" x="653.4475" y="-692.8" font-family="Times,serif" font-size="14.00" fill="#000000">oa:hasTarget</text>
</g>
<!-- Roa:describing -->
<g id="node20" class="node">
<title>Roa:describing</title>
<ellipse fill="none" stroke="#0000ff" cx="825.9377" cy="-555" rx="57.6901" ry="18"/>
<text text-anchor="middle" x="825.9377" y="-551.3" font-family="Times,serif" font-size="14.00" fill="#000000">oa:describing</text>
</g>
<!-- Rhttp://localhost:8080/rdf/nc/annotation/ed9db97c&#45;d2e4&#45;4df7&#45;b4c3&#45;a79110617eab&#45;&gt;Roa:describing -->
<g id="edge20" class="edge">
<title>Rhttp://localhost:8080/rdf/nc/annotation/ed9db97c&#45;d2e4&#45;4df7&#45;b4c3&#45;a79110617eab&#45;&gt;Roa:describing</title>
<path fill="none" stroke="#000000" d="M321.9611,-798.9382C386.2082,-755.4813 557.7001,-644.1004 715.4475,-582 731.4245,-575.7103 749.2951,-570.5784 765.9298,-566.5434"/>
<polygon fill="#000000" stroke="#000000" points="767.1555,-569.8515 776.0995,-564.1722 765.566,-563.0344 767.1555,-569.8515"/>
<text text-anchor="middle" x="653.4475" y="-628.8" font-family="Times,serif" font-size="14.00" fill="#000000">oa:motivatedBy</text>
</g>
<!-- Rfoaf:Person -->
<g id="node21" class="node">
<title>Rfoaf:Person</title>
<ellipse fill="none" stroke="#0000ff" cx="1252.0617" cy="-1029" rx="51.1914" ry="18"/>
<text text-anchor="middle" x="1252.0617" y="-1025.3" font-family="Times,serif" font-size="14.00" fill="#000000">foaf:Person</text>
</g>
<!-- Rorcid:0000&#45;0002&#45;2146&#45;4803&#45;&gt;Rfoaf:Person -->
<g id="edge21" class="edge">
<title>Rorcid:0000&#45;0002&#45;2146&#45;4803&#45;&gt;Rfoaf:Person</title>
<path fill="none" stroke="#000000" d="M912.6284,-907.1701C921.4367,-911.1001 929.6267,-916.2572 936.4279,-923 959.546,-945.9196 929.9491,-972.5398 954.4279,-994 1021.1802,-1052.5205 1131.1652,-1048.5815 1197.1023,-1039.445"/>
<polygon fill="#000000" stroke="#000000" points="1197.9105,-1042.8638 1207.2932,-1037.9428 1196.8897,-1035.9386 1197.9105,-1042.8638"/>
<text text-anchor="middle" x="1002.9279" y="-1040.8" font-family="Times,serif" font-size="14.00" fill="#000000">rdf:type</text>
</g>
<!-- Rdwc:MeasurementOrFact -->
<g id="node6" class="node">
<title>Rdwc:MeasurementOrFact</title>
<ellipse fill="none" stroke="#0000ff" cx="1252.0617" cy="-694" rx="100.9827" ry="18"/>
<text text-anchor="middle" x="1252.0617" y="-690.3" font-family="Times,serif" font-size="14.00" fill="#000000">dwc:MeasurementOrFact</text>
</g>
<!-- B_:node1euqlam8lx274&#45;&gt;Rdwc:MeasurementOrFact -->
<g id="edge5" class="edge">
<title>B_:node1euqlam8lx274&#45;&gt;Rdwc:MeasurementOrFact</title>
<path fill="none" stroke="#000000" d="M841.5428,-767.0108C865.124,-753.9137 911.6375,-729.9565 954.4279,-719 1014.9669,-703.499 1084.4671,-697.0521 1141.0751,-694.57"/>
<polygon fill="#000000" stroke="#000000" points="1141.2766,-698.0648 1151.1274,-694.1646 1140.9945,-691.0705 1141.2766,-698.0648"/>
<text text-anchor="middle" x="1002.9279" y="-722.8" font-family="Times,serif" font-size="14.00" fill="#000000">rdf:type</text>
</g>
<!-- Roa:TextualBody -->
<g id="node7" class="node">
<title>Roa:TextualBody</title>
<ellipse fill="none" stroke="#0000ff" cx="1252.0617" cy="-975" rx="67.6881" ry="18"/>
<text text-anchor="middle" x="1252.0617" y="-971.3" font-family="Times,serif" font-size="14.00" fill="#000000">oa:TextualBody</text>
</g>
<!-- B_:node1euqlam8lx274&#45;&gt;Roa:TextualBody -->
<g id="edge6" class="edge">
<title>B_:node1euqlam8lx274&#45;&gt;Roa:TextualBody</title>
<path fill="none" stroke="#000000" d="M844.1881,-774.8346C868.8721,-774.3395 912.5506,-777.4755 936.4279,-803 968.175,-836.9371 924.6033,-870.3616 954.4279,-906 989.3493,-947.7287 1016.6858,-934.6186 1069.4279,-948 1104.7624,-956.9648 1144.7487,-963.2932 1178.2792,-967.5583"/>
<polygon fill="#000000" stroke="#000000" points="1178.112,-971.0642 1188.4656,-968.8163 1178.97,-964.1169 1178.112,-971.0642"/>
<text text-anchor="middle" x="1002.9279" y="-946.8" font-family="Times,serif" font-size="14.00" fill="#000000">rdf:type</text>
</g>
<!-- Ltext/plain -->
<g id="node8" class="node">
<title>Ltext/plain</title>
<polygon fill="none" stroke="#000000" points="1218.0617,-902 1218.0617,-938 1286.0617,-938 1286.0617,-902 1218.0617,-902"/>
<text text-anchor="middle" x="1252.0617" y="-916.3" font-family="Times,serif" font-size="14.00" fill="#000000">text/plain</text>
</g>
<!-- B_:node1euqlam8lx274&#45;&gt;Ltext/plain -->
<g id="edge7" class="edge">
<title>B_:node1euqlam8lx274&#45;&gt;Ltext/plain</title>
<path fill="none" stroke="#000000" d="M844.0148,-775.4299C868.0989,-775.6627 910.6598,-779.6791 936.4279,-803 954.2499,-819.1294 937.2608,-837.1754 954.4279,-854 992.8725,-891.6775 1017.0862,-879.4331 1069.4279,-892 1116.0431,-903.192 1170.4744,-910.8591 1207.7092,-915.3026"/>
<polygon fill="#000000" stroke="#000000" points="1207.3967,-918.7898 1217.7345,-916.4706 1208.2068,-911.8368 1207.3967,-918.7898"/>
<text text-anchor="middle" x="1002.9279" y="-890.8" font-family="Times,serif" font-size="14.00" fill="#000000">dcterms:format</text>
</g>
<!-- Robo:PATO_0000014 -->
<g id="node9" class="node">
<title>Robo:PATO_0000014</title>
<ellipse fill="none" stroke="#0000ff" cx="1890.6955" cy="-748" rx="84.485" ry="18"/>
<text text-anchor="middle" x="1890.6955" y="-744.3" font-family="Times,serif" font-size="14.00" fill="#000000">obo:PATO_0000014</text>
</g>
<!-- B_:node1euqlam8lx274&#45;&gt;Robo:PATO_0000014 -->
<g id="edge8" class="edge">
<title>B_:node1euqlam8lx274&#45;&gt;Robo:PATO_0000014</title>
<path fill="none" stroke="#000000" d="M843.9347,-774.1809C884.2536,-770.1967 984.9211,-760.7559 1069.4279,-757 1332.2615,-745.3183 1642.8491,-745.8004 1795.8192,-746.9806"/>
<polygon fill="#000000" stroke="#000000" points="1796.0838,-750.4827 1806.1115,-747.0629 1796.1398,-743.483 1796.0838,-750.4827"/>
<text text-anchor="middle" x="1252.0617" y="-760.8" font-family="Times,serif" font-size="14.00" fill="#000000">dcterms:identifier</text>
</g>
<!-- Riso:lat -->
<g id="node10" class="node">
<title>Riso:lat</title>
<ellipse fill="none" stroke="#0000ff" cx="1252.0617" cy="-865" rx="32.4942" ry="18"/>
<text text-anchor="middle" x="1252.0617" y="-861.3" font-family="Times,serif" font-size="14.00" fill="#000000">iso:lat</text>
</g>
<!-- B_:node1euqlam8lx274&#45;&gt;Riso:lat -->
<g id="edge9" class="edge">
<title>B_:node1euqlam8lx274&#45;&gt;Riso:lat</title>
<path fill="none" stroke="#000000" d="M843.7402,-779.5965C865.7426,-784.2135 904.2223,-792.851 936.4279,-803 944.6147,-805.5799 946.2295,-807.4572 954.4279,-810 1043.2018,-837.5338 1151.3899,-853.276 1209.7842,-860.3767"/>
<polygon fill="#000000" stroke="#000000" points="1209.4052,-863.8562 1219.7489,-861.5629 1210.2327,-856.9053 1209.4052,-863.8562"/>
<text text-anchor="middle" x="1002.9279" y="-838.8" font-family="Times,serif" font-size="14.00" fill="#000000">dcterms:language</text>
</g>
<!-- Rimg:MMNAT01_AF_NNM001001033_003.jpg -->
<g id="node11" class="node">
<title>Rimg:MMNAT01_AF_NNM001001033_003.jpg</title>
<ellipse fill="none" stroke="#0000ff" cx="1252.0617" cy="-640" rx="182.7677" ry="18"/>
<text text-anchor="middle" x="1252.0617" y="-636.3" font-family="Times,serif" font-size="14.00" fill="#000000">img:MMNAT01_AF_NNM001001033_003.jpg</text>
</g>
<!-- B_:node1euqlam8lx274&#45;&gt;Rimg:MMNAT01_AF_NNM001001033_003.jpg -->
<g id="edge10" class="edge">
<title>B_:node1euqlam8lx274&#45;&gt;Rimg:MMNAT01_AF_NNM001001033_003.jpg</title>
<path fill="none" stroke="#000000" d="M838.857,-763.257C860.6386,-742.6136 906.9578,-702.2358 954.4279,-683 994.3805,-666.8104 1039.5231,-656.591 1082.3517,-650.1748"/>
<polygon fill="#000000" stroke="#000000" points="1082.9137,-653.6301 1092.3143,-648.7436 1081.9183,-646.7012 1082.9137,-653.6301"/>
<text text-anchor="middle" x="1002.9279" y="-686.8" font-family="Times,serif" font-size="14.00" fill="#000000">dsw:derivedFrom</text>
</g>
<!-- LColor|Language: lat -->
<g id="node12" class="node">
<title>LColor|Language: lat</title>
<polygon fill="none" stroke="#000000" points="1206.5617,-782 1206.5617,-828 1297.5617,-828 1297.5617,-782 1206.5617,-782"/>
<text text-anchor="middle" x="1252.0617" y="-812.8" font-family="Times,serif" font-size="14.00" fill="#000000">Color</text>
<polyline fill="none" stroke="#000000" points="1206.5617,-805 1297.5617,-805 "/>
<text text-anchor="middle" x="1252.0617" y="-789.8" font-family="Times,serif" font-size="14.00" fill="#000000">Language: lat</text>
</g>
<!-- B_:node1euqlam8lx274&#45;&gt;LColor|Language: lat -->
<g id="edge11" class="edge">
<title>B_:node1euqlam8lx274&#45;&gt;LColor|Language: lat</title>
<path fill="none" stroke="#000000" d="M843.9756,-777.2276C904.0423,-781.3154 1098.9653,-794.581 1196.0521,-801.1882"/>
<polygon fill="#000000" stroke="#000000" points="1196.0492,-804.6961 1206.2638,-801.8832 1196.5246,-797.7122 1196.0492,-804.6961"/>
<text text-anchor="middle" x="1002.9279" y="-794.8" font-family="Times,serif" font-size="14.00" fill="#000000">rdf:value</text>
</g>
<!-- Rdwc:MeasurementOrFact&#45;&gt;Robo:PATO_0000014 -->
<g id="edge27" class="edge">
<title>Rdwc:MeasurementOrFact&#45;&gt;Robo:PATO_0000014</title>
<path fill="none" stroke="#000000" d="M1347.2134,-700.0272C1415.5702,-704.5904 1509.883,-711.3631 1592.6955,-719 1600.7107,-719.7392 1602.6893,-720.1692 1610.6955,-721 1675.0598,-727.6787 1747.8073,-734.677 1803.0166,-739.8749"/>
<polygon fill="#000000" stroke="#000000" points="1802.8317,-743.3729 1813.1154,-740.824 1803.4868,-736.4036 1802.8317,-743.3729"/>
<text text-anchor="middle" x="1522.6955" y="-722.8" font-family="Times,serif" font-size="14.00" fill="#000000">dwciri:measurementType</text>
</g>
<!-- Rdcmitype:StillImage -->
<g id="node22" class="node">
<title>Rdcmitype:StillImage</title>
<ellipse fill="none" stroke="#0000ff" cx="1890.6955" cy="-694" rx="83.3857" ry="18"/>
<text text-anchor="middle" x="1890.6955" y="-690.3" font-family="Times,serif" font-size="14.00" fill="#000000">dcmitype:StillImage</text>
</g>
<!-- Rimg:MMNAT01_AF_NNM001001033_003.jpg&#45;&gt;Rdcmitype:StillImage -->
<g id="edge22" class="edge">
<title>Rimg:MMNAT01_AF_NNM001001033_003.jpg&#45;&gt;Rdcmitype:StillImage</title>
<path fill="none" stroke="#000000" d="M1386.4126,-652.193C1408.5546,-654.1624 1431.2666,-656.1581 1452.6955,-658 1573.8362,-668.4124 1713.8826,-679.8114 1802.3555,-686.934"/>
<polygon fill="#000000" stroke="#000000" points="1802.1022,-690.4248 1812.3507,-687.7381 1802.6637,-683.4473 1802.1022,-690.4248"/>
<text text-anchor="middle" x="1522.6955" y="-673.8" font-family="Times,serif" font-size="14.00" fill="#000000">rdf:type</text>
</g>
<!-- Rdsw:Token -->
<g id="node23" class="node">
<title>Rdsw:Token</title>
<ellipse fill="none" stroke="#0000ff" cx="1890.6955" cy="-640" rx="50.0912" ry="18"/>
<text text-anchor="middle" x="1890.6955" y="-636.3" font-family="Times,serif" font-size="14.00" fill="#000000">dsw:Token</text>
</g>
<!-- Rimg:MMNAT01_AF_NNM001001033_003.jpg&#45;&gt;Rdsw:Token -->
<g id="edge23" class="edge">
<title>Rimg:MMNAT01_AF_NNM001001033_003.jpg&#45;&gt;Rdsw:Token</title>
<path fill="none" stroke="#000000" d="M1435.0685,-640C1568.2006,-640 1740.25,-640 1830.0494,-640"/>
<polygon fill="#000000" stroke="#000000" points="1830.3216,-643.5001 1840.3216,-640 1830.3216,-636.5001 1830.3216,-643.5001"/>
<text text-anchor="middle" x="1522.6955" y="-643.8" font-family="Times,serif" font-size="14.00" fill="#000000">rdf:type</text>
</g>
<!-- Rdwc:HumanObservation -->
<g id="node24" class="node">
<title>Rdwc:HumanObservation</title>
<ellipse fill="none" stroke="#0000ff" cx="1890.6955" cy="-586" rx="96.6831" ry="18"/>
<text text-anchor="middle" x="1890.6955" y="-582.3" font-family="Times,serif" font-size="14.00" fill="#000000">dwc:HumanObservation</text>
</g>
<!-- Rimg:MMNAT01_AF_NNM001001033_003.jpg&#45;&gt;Rdwc:HumanObservation -->
<g id="edge24" class="edge">
<title>Rimg:MMNAT01_AF_NNM001001033_003.jpg&#45;&gt;Rdwc:HumanObservation</title>
<path fill="none" stroke="#000000" d="M1382.3561,-627.3808C1405.7685,-625.1932 1429.9523,-622.9855 1452.6955,-621 1568.6777,-610.8748 1702.0415,-600.3827 1790.8408,-593.5599"/>
<polygon fill="#000000" stroke="#000000" points="1791.2027,-597.0425 1800.9056,-592.7876 1790.6671,-590.063 1791.2027,-597.0425"/>
<text text-anchor="middle" x="1522.6955" y="-624.8" font-family="Times,serif" font-size="14.00" fill="#000000">rdf:type</text>
</g>
<!-- Roa:Source -->
<g id="node25" class="node">
<title>Roa:Source</title>
<ellipse fill="none" stroke="#0000ff" cx="1890.6955" cy="-532" rx="46.2923" ry="18"/>
<text text-anchor="middle" x="1890.6955" y="-528.3" font-family="Times,serif" font-size="14.00" fill="#000000">oa:Source</text>
</g>
<!-- Rimg:MMNAT01_AF_NNM001001033_003.jpg&#45;&gt;Roa:Source -->
<g id="edge25" class="edge">
<title>Rimg:MMNAT01_AF_NNM001001033_003.jpg&#45;&gt;Roa:Source</title>
<path fill="none" stroke="#000000" d="M1397.0132,-628.8642C1410.2027,-624.83 1422.9859,-619.6412 1434.6955,-613 1445.6846,-606.7675 1441.8756,-597.5218 1452.6955,-591 1574.2189,-517.7503 1748.731,-519.5404 1836.2623,-526.1801"/>
<polygon fill="#000000" stroke="#000000" points="1835.992,-529.6696 1846.2417,-526.9872 1836.5564,-522.6924 1835.992,-529.6696"/>
<text text-anchor="middle" x="1522.6955" y="-594.8" font-family="Times,serif" font-size="14.00" fill="#000000">rdf:type</text>
</g>
<!-- Rfoaf:Image -->
<g id="node26" class="node">
<title>Rfoaf:Image</title>
<ellipse fill="none" stroke="#0000ff" cx="1890.6955" cy="-478" rx="50.0912" ry="18"/>
<text text-anchor="middle" x="1890.6955" y="-474.3" font-family="Times,serif" font-size="14.00" fill="#000000">foaf:Image</text>
</g>
<!-- Rimg:MMNAT01_AF_NNM001001033_003.jpg&#45;&gt;Rfoaf:Image -->
<g id="edge26" class="edge">
<title>Rimg:MMNAT01_AF_NNM001001033_003.jpg&#45;&gt;Rfoaf:Image</title>
<path fill="none" stroke="#000000" d="M1409.3658,-630.6245C1418.5824,-625.9809 1427.1532,-620.185 1434.6955,-613 1464.5466,-584.5629 1422.2874,-549.8406 1452.6955,-522 1506.4964,-472.7418 1723.6041,-472.4795 1830.5552,-475.5321"/>
<polygon fill="#000000" stroke="#000000" points="1830.7609,-479.0399 1840.863,-475.8464 1830.9743,-472.0432 1830.7609,-479.0399"/>
<text text-anchor="middle" x="1522.6955" y="-525.8" font-family="Times,serif" font-size="14.00" fill="#000000">rdf:type</text>
</g>
<!-- B_:node1euqlam8lx273&#45;&gt;Rimg:MMNAT01_AF_NNM001001033_003.jpg -->
<g id="edge19" class="edge">
<title>B_:node1euqlam8lx273&#45;&gt;Rimg:MMNAT01_AF_NNM001001033_003.jpg</title>
<path fill="none" stroke="#000000" d="M843.9756,-610.3122C886.9675,-613.4398 999.0435,-621.5932 1094.8851,-628.5656"/>
<polygon fill="#000000" stroke="#000000" points="1094.7681,-632.0662 1104.9957,-629.3011 1095.276,-625.0847 1094.7681,-632.0662"/>
<text text-anchor="middle" x="1002.9279" y="-628.8" font-family="Times,serif" font-size="14.00" fill="#000000">oa:hasSource</text>
</g>
<!-- Roa:Target -->
<g id="node14" class="node">
<title>Roa:Target</title>
<ellipse fill="none" stroke="#0000ff" cx="1252.0617" cy="-586" rx="44.393" ry="18"/>
<text text-anchor="middle" x="1252.0617" y="-582.3" font-family="Times,serif" font-size="14.00" fill="#000000">oa:Target</text>
</g>
<!-- B_:node1euqlam8lx273&#45;&gt;Roa:Target -->
<g id="edge13" class="edge">
<title>B_:node1euqlam8lx273&#45;&gt;Roa:Target</title>
<path fill="none" stroke="#000000" d="M844.1965,-606.555C869.0723,-603.3283 915.0297,-597.7378 954.4279,-595 1039.0802,-589.1174 1137.5406,-587.0784 1197.2992,-586.3726"/>
<polygon fill="#000000" stroke="#000000" points="1197.6723,-589.8688 1207.6333,-586.2593 1197.5955,-582.8692 1197.6723,-589.8688"/>
<text text-anchor="middle" x="1002.9279" y="-598.8" font-family="Times,serif" font-size="14.00" fill="#000000">rdf:type</text>
</g>
<!-- Limage/jpeg -->
<g id="node15" class="node">
<title>Limage/jpeg</title>
<polygon fill="none" stroke="#000000" points="1213.5617,-513 1213.5617,-549 1290.5617,-549 1290.5617,-513 1213.5617,-513"/>
<text text-anchor="middle" x="1252.0617" y="-527.3" font-family="Times,serif" font-size="14.00" fill="#000000">image/jpeg</text>
</g>
<!-- B_:node1euqlam8lx273&#45;&gt;Limage/jpeg -->
<g id="edge14" class="edge">
<title>B_:node1euqlam8lx273&#45;&gt;Limage/jpeg</title>
<path fill="none" stroke="#000000" d="M843.9933,-606.1205C866.2508,-602.2262 904.9876,-594.3171 936.4279,-582 944.949,-578.6618 945.7466,-574.8961 954.4279,-572 1038.9136,-543.8151 1143.1059,-534.9884 1203.1317,-532.2352"/>
<polygon fill="#000000" stroke="#000000" points="1203.6079,-535.7184 1213.4524,-531.8021 1203.3144,-528.7246 1203.6079,-535.7184"/>
<text text-anchor="middle" x="1002.9279" y="-575.8" font-family="Times,serif" font-size="14.00" fill="#000000">dcterms:format</text>
</g>
<!-- B_:node1euqlam8lx276 -->
<g id="node16" class="node">
<title>B_:node1euqlam8lx276</title>
<ellipse fill="none" stroke="#00ff00" cx="1252.0617" cy="-396" rx="18" ry="18"/>
</g>
<!-- B_:node1euqlam8lx273&#45;&gt;B_:node1euqlam8lx276 -->
<g id="edge15" class="edge">
<title>B_:node1euqlam8lx273&#45;&gt;B_:node1euqlam8lx276</title>
<path fill="none" stroke="#000000" d="M844.0355,-609.5929C868.1431,-609.3859 910.7304,-605.3987 936.4279,-582 954.5112,-565.5343 937.9281,-548.0521 954.4279,-530 1029.83,-447.5043 1165.7057,-412.5865 1224.1228,-400.9013"/>
<polygon fill="#000000" stroke="#000000" points="1224.9379,-404.3088 1234.0971,-398.9836 1223.6161,-397.4347 1224.9379,-404.3088"/>
<text text-anchor="middle" x="1002.9279" y="-533.8" font-family="Times,serif" font-size="14.00" fill="#000000">oa:hasSelector</text>
</g>
<!-- Roa:FragmentSelector -->
<g id="node17" class="node">
<title>Roa:FragmentSelector</title>
<ellipse fill="none" stroke="#0000ff" cx="1890.6955" cy="-368" rx="84.485" ry="18"/>
<text text-anchor="middle" x="1890.6955" y="-364.3" font-family="Times,serif" font-size="14.00" fill="#000000">oa:FragmentSelector</text>
</g>
<!-- B_:node1euqlam8lx276&#45;&gt;Roa:FragmentSelector -->
<g id="edge16" class="edge">
<title>B_:node1euqlam8lx276&#45;&gt;Roa:FragmentSelector</title>
<path fill="none" stroke="#000000" d="M1270.044,-395.051C1305.1515,-393.2099 1385.2811,-389.0652 1452.6955,-386 1571.6552,-380.5911 1708.8232,-375.0698 1797.5006,-371.5941"/>
<polygon fill="#000000" stroke="#000000" points="1797.678,-375.0899 1807.5335,-371.2015 1797.4042,-368.0953 1797.678,-375.0899"/>
<text text-anchor="middle" x="1522.6955" y="-389.8" font-family="Times,serif" font-size="14.00" fill="#000000">rdf:type</text>
</g>
<!-- Rmf: -->
<g id="node18" class="node">
<title>Rmf:</title>
<ellipse fill="none" stroke="#0000ff" cx="1890.6955" cy="-314" rx="27" ry="18"/>
<text text-anchor="middle" x="1890.6955" y="-310.3" font-family="Times,serif" font-size="14.00" fill="#000000">mf:</text>
</g>
<!-- B_:node1euqlam8lx276&#45;&gt;Rmf: -->
<g id="edge17" class="edge">
<title>B_:node1euqlam8lx276&#45;&gt;Rmf:</title>
<path fill="none" stroke="#000000" d="M1270.0119,-392.7366C1305.064,-386.4133 1385.1018,-372.216 1452.6955,-362 1522.7398,-351.4137 1540.3166,-349.0677 1610.6955,-341 1697.5746,-331.0408 1799.9058,-321.8041 1853.5673,-317.1517"/>
<polygon fill="#000000" stroke="#000000" points="1853.9696,-320.6301 1863.6317,-316.2835 1853.3679,-313.656 1853.9696,-320.6301"/>
<text text-anchor="middle" x="1522.6955" y="-365.8" font-family="Times,serif" font-size="14.00" fill="#000000">dcterms:conformsTo</text>
</g>
<!-- Lxywh=0.5575335827826557,0.16560174792980703,0.02356406480117823,0.02061855670103091 -->
<g id="node19" class="node">
<title>Lxywh=0.5575335827826557,0.16560174792980703,0.02356406480117823,0.02061855670103091</title>
<polygon fill="none" stroke="#000000" points="1610.6955,-405 1610.6955,-441 2170.6955,-441 2170.6955,-405 1610.6955,-405"/>
<text text-anchor="middle" x="1890.6955" y="-419.3" font-family="Times,serif" font-size="14.00" fill="#000000">xywh=0.5575335827826557,0.16560174792980703,0.02356406480117823,0.02061855670103091</text>
</g>
<!-- B_:node1euqlam8lx276&#45;&gt;Lxywh=0.5575335827826557,0.16560174792980703,0.02356406480117823,0.02061855670103091 -->
<g id="edge18" class="edge">
<title>B_:node1euqlam8lx276&#45;&gt;Lxywh=0.5575335827826557,0.16560174792980703,0.02356406480117823,0.02061855670103091</title>
<path fill="none" stroke="#000000" d="M1270.146,-396.7646C1319.8024,-398.8639 1463.6689,-404.9463 1600.3847,-410.7263"/>
<polygon fill="#000000" stroke="#000000" points="1600.4946,-414.234 1610.6336,-411.1596 1600.7904,-407.2402 1600.4946,-414.234"/>
<text text-anchor="middle" x="1522.6955" y="-414.8" font-family="Times,serif" font-size="14.00" fill="#000000">rdf:value</text>
</g>
</g>
</svg>
