<?xml version="1.0" encoding="UTF-8" standalone="no"?>
<!DOCTYPE svg PUBLIC "-//W3C//DTD SVG 1.1//EN"
 "http://www.w3.org/Graphics/SVG/1.1/DTD/svg11.dtd">
<!-- Generated by graphviz version 2.40.1 (20161225.0304)
 -->
<!-- Title: %3 Pages: 1 -->
<svg width="2146pt" height="1007pt"
 viewBox="0.00 0.00 2146.40 1006.50" xmlns="http://www.w3.org/2000/svg" xmlns:xlink="http://www.w3.org/1999/xlink">
<g id="graph0" class="graph" transform="scale(1 1) rotate(0) translate(4 1002.5)">
<title>%3</title>
<polygon fill="#ffffff" stroke="transparent" points="-4,4 -4,-1002.5 2142.3956,-1002.5 2142.3956,4 -4,4"/>
<text text-anchor="middle" x="1069.1978" y="-218.8" font-family="Times,serif" font-size="14.00" fill="#000000">Model:</text>
<text text-anchor="middle" x="1069.1978" y="-203.8" font-family="Times,serif" font-size="14.00" fill="#000000">(Unknown)</text>
<text text-anchor="middle" x="1069.1978" y="-172.8" font-family="Times,serif" font-size="14.00" fill="#000000">Namespaces:</text>
<text text-anchor="middle" x="1069.1978" y="-157.8" font-family="Times,serif" font-size="14.00" fill="#000000">dcmitype: http://purl.org/dc/dcmitype/</text>
<text text-anchor="middle" x="1069.1978" y="-142.8" font-family="Times,serif" font-size="14.00" fill="#000000">dcterms: http://purl.org/dc/terms/</text>
<text text-anchor="middle" x="1069.1978" y="-127.8" font-family="Times,serif" font-size="14.00" fill="#000000">dsw: http://purl.org/dsw/</text>
<text text-anchor="middle" x="1069.1978" y="-112.8" font-family="Times,serif" font-size="14.00" fill="#000000">dwc: http://rs.tdwg.org/dwc/terms/</text>
<text text-anchor="middle" x="1069.1978" y="-97.8" font-family="Times,serif" font-size="14.00" fill="#000000">foaf: http://xmlns.com/foaf/0.1/</text>
<text text-anchor="middle" x="1069.1978" y="-82.8" font-family="Times,serif" font-size="14.00" fill="#000000">img: http://localhost:8080/semanticAnnotator/files/</text>
<text text-anchor="middle" x="1069.1978" y="-67.8" font-family="Times,serif" font-size="14.00" fill="#000000">iso: http://iso639&#45;3.sil.org/code/</text>
<text text-anchor="middle" x="1069.1978" y="-52.8" font-family="Times,serif" font-size="14.00" fill="#000000">mf: http://www.w3.org/TR/media&#45;frags/</text>
<text text-anchor="middle" x="1069.1978" y="-37.8" font-family="Times,serif" font-size="14.00" fill="#000000">oa: http://www.w3.org/ns/oa#</text>
<text text-anchor="middle" x="1069.1978" y="-22.8" font-family="Times,serif" font-size="14.00" fill="#000000">orcid: http://orcid.org/</text>
<text text-anchor="middle" x="1069.1978" y="-7.8" font-family="Times,serif" font-size="14.00" fill="#000000">rdf: http://www.w3.org/1999/02/22&#45;rdf&#45;syntax&#45;ns#</text>
<!-- Rhttp://localhost:8080/rdf/nc/annotation/993a7df9&#45;b27b&#45;4c21&#45;a531&#45;aabacb32e5de -->
<g id="node1" class="node">
<title>Rhttp://localhost:8080/rdf/nc/annotation/993a7df9&#45;b27b&#45;4c21&#45;a531&#45;aabacb32e5de</title>
<ellipse fill="none" stroke="#0000ff" cx="295.0738" cy="-740.5" rx="295.1477" ry="18"/>
<text text-anchor="middle" x="295.0738" y="-736.8" font-family="Times,serif" font-size="14.00" fill="#000000">http://localhost:8080/rdf/nc/annotation/993a7df9&#45;b27b&#45;4c21&#45;a531&#45;aabacb32e5de</text>
</g>
<!-- Roa:Annotation -->
<g id="node2" class="node">
<title>Roa:Annotation</title>
<ellipse fill="none" stroke="#0000ff" cx="824.6378" cy="-873.5" rx="61.1893" ry="18"/>
<text text-anchor="middle" x="824.6378" y="-869.8" font-family="Times,serif" font-size="14.00" fill="#000000">oa:Annotation</text>
</g>
<!-- Rhttp://localhost:8080/rdf/nc/annotation/993a7df9&#45;b27b&#45;4c21&#45;a531&#45;aabacb32e5de&#45;&gt;Roa:Annotation -->
<g id="edge1" class="edge">
<title>Rhttp://localhost:8080/rdf/nc/annotation/993a7df9&#45;b27b&#45;4c21&#45;a531&#45;aabacb32e5de&#45;&gt;Roa:Annotation</title>
<path fill="none" stroke="#000000" d="M363.6292,-758.021C446.5839,-779.1802 590.5194,-815.7601 714.1476,-846.5 731.4485,-850.8018 750.2883,-855.4274 767.4299,-859.6135"/>
<polygon fill="#000000" stroke="#000000" points="766.7573,-863.052 777.3019,-862.0216 768.4163,-856.2514 766.7573,-863.052"/>
<text text-anchor="middle" x="652.1476" y="-844.3" font-family="Times,serif" font-size="14.00" fill="#000000">rdf:type</text>
</g>
<!-- Rorcid:0000&#45;0002&#45;2146&#45;4803 -->
<g id="node3" class="node">
<title>Rorcid:0000&#45;0002&#45;2146&#45;4803</title>
<ellipse fill="none" stroke="#0000ff" cx="824.6378" cy="-819.5" rx="110.4804" ry="18"/>
<text text-anchor="middle" x="824.6378" y="-815.8" font-family="Times,serif" font-size="14.00" fill="#000000">orcid:0000&#45;0002&#45;2146&#45;4803</text>
</g>
<!-- Rhttp://localhost:8080/rdf/nc/annotation/993a7df9&#45;b27b&#45;4c21&#45;a531&#45;aabacb32e5de&#45;&gt;Rorcid:0000&#45;0002&#45;2146&#45;4803 -->
<g id="edge2" class="edge">
<title>Rhttp://localhost:8080/rdf/nc/annotation/993a7df9&#45;b27b&#45;4c21&#45;a531&#45;aabacb32e5de&#45;&gt;Rorcid:0000&#45;0002&#45;2146&#45;4803</title>
<path fill="none" stroke="#000000" d="M407.057,-757.2056C504.0424,-771.6738 642.6076,-792.3449 733.0838,-805.842"/>
<polygon fill="#000000" stroke="#000000" points="732.6445,-809.3151 743.0515,-807.329 733.6774,-802.3918 732.6445,-809.3151"/>
<text text-anchor="middle" x="652.1476" y="-801.3" font-family="Times,serif" font-size="14.00" fill="#000000">dcterms:creator</text>
</g>
<!-- L2021&#45;01&#45;12T14:23:11.646Z|Datatype: dcterms:W3CDTF -->
<g id="node4" class="node">
<title>L2021&#45;01&#45;12T14:23:11.646Z|Datatype: dcterms:W3CDTF</title>
<polygon fill="none" stroke="#000000" points="737.1378,-736.5 737.1378,-782.5 912.1378,-782.5 912.1378,-736.5 737.1378,-736.5"/>
<text text-anchor="middle" x="824.6378" y="-767.3" font-family="Times,serif" font-size="14.00" fill="#000000">2021&#45;01&#45;12T14:23:11.646Z</text>
<polyline fill="none" stroke="#000000" points="737.1378,-759.5 912.1378,-759.5 "/>
<text text-anchor="middle" x="824.6378" y="-744.3" font-family="Times,serif" font-size="14.00" fill="#000000">Datatype: dcterms:W3CDTF</text>
</g>
<!-- Rhttp://localhost:8080/rdf/nc/annotation/993a7df9&#45;b27b&#45;4c21&#45;a531&#45;aabacb32e5de&#45;&gt;L2021&#45;01&#45;12T14:23:11.646Z|Datatype: dcterms:W3CDTF -->
<g id="edge3" class="edge">
<title>Rhttp://localhost:8080/rdf/nc/annotation/993a7df9&#45;b27b&#45;4c21&#45;a531&#45;aabacb32e5de&#45;&gt;L2021&#45;01&#45;12T14:23:11.646Z|Datatype: dcterms:W3CDTF</title>
<path fill="none" stroke="#000000" d="M549.7735,-749.6383C612.7382,-751.8973 676.4642,-754.1837 726.6819,-755.9855"/>
<polygon fill="#000000" stroke="#000000" points="726.7448,-759.4899 736.8639,-756.3508 726.9958,-752.4944 726.7448,-759.4899"/>
<text text-anchor="middle" x="652.1476" y="-758.3" font-family="Times,serif" font-size="14.00" fill="#000000">dcterms:date</text>
</g>
<!-- B_:node1f0go8rutx19 -->
<g id="node5" class="node">
<title>B_:node1f0go8rutx19</title>
<ellipse fill="none" stroke="#00ff00" cx="824.6378" cy="-699.5" rx="18" ry="18"/>
</g>
<!-- Rhttp://localhost:8080/rdf/nc/annotation/993a7df9&#45;b27b&#45;4c21&#45;a531&#45;aabacb32e5de&#45;&gt;B_:node1f0go8rutx19 -->
<g id="edge4" class="edge">
<title>Rhttp://localhost:8080/rdf/nc/annotation/993a7df9&#45;b27b&#45;4c21&#45;a531&#45;aabacb32e5de&#45;&gt;B_:node1f0go8rutx19</title>
<path fill="none" stroke="#000000" d="M478.0612,-726.3327C595.7048,-717.2245 737.2365,-706.2668 796.4449,-701.6828"/>
<polygon fill="#000000" stroke="#000000" points="796.8181,-705.1644 806.518,-700.9029 796.2776,-698.1853 796.8181,-705.1644"/>
<text text-anchor="middle" x="652.1476" y="-719.3" font-family="Times,serif" font-size="14.00" fill="#000000">oa:hasBody</text>
</g>
<!-- B_:node1f0go8rutx18 -->
<g id="node13" class="node">
<title>B_:node1f0go8rutx18</title>
<ellipse fill="none" stroke="#00ff00" cx="824.6378" cy="-520.5" rx="18" ry="18"/>
</g>
<!-- Rhttp://localhost:8080/rdf/nc/annotation/993a7df9&#45;b27b&#45;4c21&#45;a531&#45;aabacb32e5de&#45;&gt;B_:node1f0go8rutx18 -->
<g id="edge12" class="edge">
<title>Rhttp://localhost:8080/rdf/nc/annotation/993a7df9&#45;b27b&#45;4c21&#45;a531&#45;aabacb32e5de&#45;&gt;B_:node1f0go8rutx18</title>
<path fill="none" stroke="#000000" d="M337.9617,-722.6828C443.4915,-678.8419 713.3549,-566.731 798.4928,-531.3616"/>
<polygon fill="#000000" stroke="#000000" points="800.0443,-534.5071 807.9363,-527.4384 797.3587,-528.0428 800.0443,-534.5071"/>
<text text-anchor="middle" x="652.1476" y="-608.3" font-family="Times,serif" font-size="14.00" fill="#000000">oa:hasTarget</text>
</g>
<!-- Roa:describing -->
<g id="node20" class="node">
<title>Roa:describing</title>
<ellipse fill="none" stroke="#0000ff" cx="824.6378" cy="-466.5" rx="57.6901" ry="18"/>
<text text-anchor="middle" x="824.6378" y="-462.8" font-family="Times,serif" font-size="14.00" fill="#000000">oa:describing</text>
</g>
<!-- Rhttp://localhost:8080/rdf/nc/annotation/993a7df9&#45;b27b&#45;4c21&#45;a531&#45;aabacb32e5de&#45;&gt;Roa:describing -->
<g id="edge20" class="edge">
<title>Rhttp://localhost:8080/rdf/nc/annotation/993a7df9&#45;b27b&#45;4c21&#45;a531&#45;aabacb32e5de&#45;&gt;Roa:describing</title>
<path fill="none" stroke="#000000" d="M319.7055,-722.4302C382.3544,-677.2863 554.1572,-558.5417 714.1476,-493.5 729.9781,-487.0644 747.7319,-481.8944 764.2997,-477.8698"/>
<polygon fill="#000000" stroke="#000000" points="765.4882,-481.1868 774.4344,-475.5109 763.9013,-474.3691 765.4882,-481.1868"/>
<text text-anchor="middle" x="652.1476" y="-542.3" font-family="Times,serif" font-size="14.00" fill="#000000">oa:motivatedBy</text>
</g>
<!-- Rfoaf:Person -->
<g id="node21" class="node">
<title>Rfoaf:Person</title>
<ellipse fill="none" stroke="#0000ff" cx="1250.7618" cy="-974.5" rx="51.1914" ry="18"/>
<text text-anchor="middle" x="1250.7618" y="-970.8" font-family="Times,serif" font-size="14.00" fill="#000000">foaf:Person</text>
</g>
<!-- Rorcid:0000&#45;0002&#45;2146&#45;4803&#45;&gt;Rfoaf:Person -->
<g id="edge21" class="edge">
<title>Rorcid:0000&#45;0002&#45;2146&#45;4803&#45;&gt;Rfoaf:Person</title>
<path fill="none" stroke="#000000" d="M912.2531,-830.5417C920.7855,-834.5081 928.6583,-839.7087 935.128,-846.5 964.1672,-876.9823 922.2759,-910.8541 953.128,-939.5 1018.5443,-1000.2384 1129.9643,-995.2839 1196.3416,-985.4095"/>
<polygon fill="#000000" stroke="#000000" points="1197.2619,-988.8077 1206.5941,-983.7918 1196.1708,-981.8933 1197.2619,-988.8077"/>
<text text-anchor="middle" x="1001.628" y="-987.3" font-family="Times,serif" font-size="14.00" fill="#000000">rdf:type</text>
</g>
<!-- Rdsw:Token -->
<g id="node6" class="node">
<title>Rdsw:Token</title>
<ellipse fill="none" stroke="#0000ff" cx="1861.3956" cy="-663.5" rx="50.0912" ry="18"/>
<text text-anchor="middle" x="1861.3956" y="-659.8" font-family="Times,serif" font-size="14.00" fill="#000000">dsw:Token</text>
</g>
<!-- B_:node1f0go8rutx19&#45;&gt;Rdsw:Token -->
<g id="edge5" class="edge">
<title>B_:node1f0go8rutx19&#45;&gt;Rdsw:Token</title>
<path fill="none" stroke="#000000" d="M842.6075,-696.8896C882.8713,-691.1764 983.4345,-677.6634 1068.128,-672.5 1341.1798,-655.8531 1668.0485,-659.62 1800.8575,-662.1449"/>
<polygon fill="#000000" stroke="#000000" points="1801.1492,-665.6511 1811.2155,-662.3468 1801.2857,-658.6524 1801.1492,-665.6511"/>
<text text-anchor="middle" x="1250.7618" y="-676.3" font-family="Times,serif" font-size="14.00" fill="#000000">rdf:type</text>
</g>
<!-- Rdwc:MeasurementOrFact -->
<g id="node7" class="node">
<title>Rdwc:MeasurementOrFact</title>
<ellipse fill="none" stroke="#0000ff" cx="1250.7618" cy="-609.5" rx="100.9827" ry="18"/>
<text text-anchor="middle" x="1250.7618" y="-605.8" font-family="Times,serif" font-size="14.00" fill="#000000">dwc:MeasurementOrFact</text>
</g>
<!-- B_:node1f0go8rutx19&#45;&gt;Rdwc:MeasurementOrFact -->
<g id="edge6" class="edge">
<title>B_:node1f0go8rutx19&#45;&gt;Rdwc:MeasurementOrFact</title>
<path fill="none" stroke="#000000" d="M839.6664,-689.455C862.8771,-674.5229 909.3522,-646.9018 953.128,-634.5 1013.4891,-617.3996 1083.2738,-610.8787 1140.0931,-608.757"/>
<polygon fill="#000000" stroke="#000000" points="1140.3046,-612.252 1150.1826,-608.4211 1140.0716,-605.2559 1140.3046,-612.252"/>
<text text-anchor="middle" x="1001.628" y="-638.3" font-family="Times,serif" font-size="14.00" fill="#000000">rdf:type</text>
</g>
<!-- Roa:TextualBody -->
<g id="node8" class="node">
<title>Roa:TextualBody</title>
<ellipse fill="none" stroke="#0000ff" cx="1250.7618" cy="-920.5" rx="67.6881" ry="18"/>
<text text-anchor="middle" x="1250.7618" y="-916.8" font-family="Times,serif" font-size="14.00" fill="#000000">oa:TextualBody</text>
</g>
<!-- B_:node1f0go8rutx19&#45;&gt;Roa:TextualBody -->
<g id="edge7" class="edge">
<title>B_:node1f0go8rutx19&#45;&gt;Roa:TextualBody</title>
<path fill="none" stroke="#000000" d="M842.9984,-698.2331C867.8101,-697.6202 911.6362,-700.6203 935.128,-726.5 972.8534,-768.0598 917.7552,-807.9204 953.128,-851.5 1005.938,-916.5624 1106.9155,-927.6004 1176.4996,-926.5146"/>
<polygon fill="#000000" stroke="#000000" points="1176.6167,-930.0129 1186.5289,-926.2714 1176.4469,-923.0149 1176.6167,-930.0129"/>
<text text-anchor="middle" x="1001.628" y="-914.3" font-family="Times,serif" font-size="14.00" fill="#000000">rdf:type</text>
</g>
<!-- Ltext/plain -->
<g id="node9" class="node">
<title>Ltext/plain</title>
<polygon fill="none" stroke="#000000" points="1216.7618,-847.5 1216.7618,-883.5 1284.7618,-883.5 1284.7618,-847.5 1216.7618,-847.5"/>
<text text-anchor="middle" x="1250.7618" y="-861.8" font-family="Times,serif" font-size="14.00" fill="#000000">text/plain</text>
</g>
<!-- B_:node1f0go8rutx19&#45;&gt;Ltext/plain -->
<g id="edge8" class="edge">
<title>B_:node1f0go8rutx19&#45;&gt;Ltext/plain</title>
<path fill="none" stroke="#000000" d="M843.0214,-698.6059C867.4527,-698.4715 910.4058,-702.0732 935.128,-726.5 957.9787,-749.0776 931.4676,-772.7782 953.128,-796.5 989.7167,-836.5707 1015.5166,-824.2173 1068.128,-837.5 1114.7516,-849.271 1169.3963,-856.8575 1206.6813,-861.1239"/>
<polygon fill="#000000" stroke="#000000" points="1206.3906,-864.6131 1216.7162,-862.24 1207.1644,-857.656 1206.3906,-864.6131"/>
<text text-anchor="middle" x="1001.628" y="-836.3" font-family="Times,serif" font-size="14.00" fill="#000000">dcterms:format</text>
</g>
<!-- Riso:lat -->
<g id="node10" class="node">
<title>Riso:lat</title>
<ellipse fill="none" stroke="#0000ff" cx="1250.7618" cy="-810.5" rx="32.4942" ry="18"/>
<text text-anchor="middle" x="1250.7618" y="-806.8" font-family="Times,serif" font-size="14.00" fill="#000000">iso:lat</text>
</g>
<!-- B_:node1f0go8rutx19&#45;&gt;Riso:lat -->
<g id="edge9" class="edge">
<title>B_:node1f0go8rutx19&#45;&gt;Riso:lat</title>
<path fill="none" stroke="#000000" d="M842.6934,-702.3795C864.9509,-706.2738 903.6877,-714.1829 935.128,-726.5 943.6491,-729.8382 944.8777,-732.5396 953.128,-736.5 1002.9051,-760.3942 1014.875,-768.9121 1068.128,-783.5 1115.1749,-796.3878 1170.8311,-803.4946 1208.2325,-807.1391"/>
<polygon fill="#000000" stroke="#000000" points="1207.993,-810.6319 1218.2752,-808.0772 1208.644,-803.6622 1207.993,-810.6319"/>
<text text-anchor="middle" x="1001.628" y="-781.3" font-family="Times,serif" font-size="14.00" fill="#000000">dcterms:language</text>
</g>
<!-- Rimg:MMNAT01_AF_NNM001001033_003.jpg -->
<g id="node11" class="node">
<title>Rimg:MMNAT01_AF_NNM001001033_003.jpg</title>
<ellipse fill="none" stroke="#0000ff" cx="1250.7618" cy="-555.5" rx="182.7677" ry="18"/>
<text text-anchor="middle" x="1250.7618" y="-551.8" font-family="Times,serif" font-size="14.00" fill="#000000">img:MMNAT01_AF_NNM001001033_003.jpg</text>
</g>
<!-- B_:node1f0go8rutx19&#45;&gt;Rimg:MMNAT01_AF_NNM001001033_003.jpg -->
<g id="edge10" class="edge">
<title>B_:node1f0go8rutx19&#45;&gt;Rimg:MMNAT01_AF_NNM001001033_003.jpg</title>
<path fill="none" stroke="#000000" d="M836.9433,-685.8443C858.186,-663.2535 904.1882,-618.514 953.128,-597.5 991.0032,-581.237 1033.8406,-571.0113 1074.9725,-564.6456"/>
<polygon fill="#000000" stroke="#000000" points="1075.727,-568.0722 1085.1082,-563.1485 1074.7041,-561.1474 1075.727,-568.0722"/>
<text text-anchor="middle" x="1001.628" y="-601.3" font-family="Times,serif" font-size="14.00" fill="#000000">dsw:derivedFrom</text>
</g>
<!-- LMarkdown table or list.\n&#45; item1\n&#45; item2|Language: lat -->
<g id="node12" class="node">
<title>LMarkdown table or list.\n&#45; item1\n&#45; item2|Language: lat</title>
<polygon fill="none" stroke="#000000" points="1177.7618,-697.5 1177.7618,-773.5 1323.7618,-773.5 1323.7618,-697.5 1177.7618,-697.5"/>
<text text-anchor="middle" x="1250.7618" y="-758.3" font-family="Times,serif" font-size="14.00" fill="#000000">Markdown table or list.</text>
<text text-anchor="middle" x="1250.7618" y="-743.3" font-family="Times,serif" font-size="14.00" fill="#000000">&#45; item1</text>
<text text-anchor="middle" x="1250.7618" y="-728.3" font-family="Times,serif" font-size="14.00" fill="#000000">&#45; item2</text>
<polyline fill="none" stroke="#000000" points="1177.7618,-720.5 1323.7618,-720.5 "/>
<text text-anchor="middle" x="1250.7618" y="-705.3" font-family="Times,serif" font-size="14.00" fill="#000000">Language: lat</text>
</g>
<!-- B_:node1f0go8rutx19&#45;&gt;LMarkdown table or list.\n&#45; item1\n&#45; item2|Language: lat -->
<g id="edge11" class="edge">
<title>B_:node1f0go8rutx19&#45;&gt;LMarkdown table or list.\n&#45; item1\n&#45; item2|Language: lat</title>
<path fill="none" stroke="#000000" d="M842.6757,-701.0239C897.5591,-705.6606 1065.0288,-719.8088 1167.5825,-728.4728"/>
<polygon fill="#000000" stroke="#000000" points="1167.3459,-731.9652 1177.605,-729.3195 1167.9352,-724.99 1167.3459,-731.9652"/>
<text text-anchor="middle" x="1001.628" y="-721.3" font-family="Times,serif" font-size="14.00" fill="#000000">rdf:value</text>
</g>
<!-- Rimg:MMNAT01_AF_NNM001001033_003.jpg&#45;&gt;Rdsw:Token -->
<g id="edge23" class="edge">
<title>Rimg:MMNAT01_AF_NNM001001033_003.jpg&#45;&gt;Rdsw:Token</title>
<path fill="none" stroke="#000000" d="M1393.9709,-566.8021C1407.7251,-570.7784 1421.1093,-575.909 1433.3956,-582.5 1443.9338,-588.1532 1441.164,-596.3093 1451.3956,-602.5 1503.5962,-634.0843 1524.3019,-625.9541 1584.3956,-636.5 1658.6556,-649.532 1745.2999,-656.7084 1801.6425,-660.3258"/>
<polygon fill="#000000" stroke="#000000" points="1801.6017,-663.83 1811.8005,-660.9604 1802.0382,-656.8436 1801.6017,-663.83"/>
<text text-anchor="middle" x="1508.8956" y="-637.3" font-family="Times,serif" font-size="14.00" fill="#000000">rdf:type</text>
</g>
<!-- Rdcmitype:StillImage -->
<g id="node22" class="node">
<title>Rdcmitype:StillImage</title>
<ellipse fill="none" stroke="#0000ff" cx="1861.3956" cy="-609.5" rx="83.3857" ry="18"/>
<text text-anchor="middle" x="1861.3956" y="-605.8" font-family="Times,serif" font-size="14.00" fill="#000000">dcmitype:StillImage</text>
</g>
<!-- Rimg:MMNAT01_AF_NNM001001033_003.jpg&#45;&gt;Rdcmitype:StillImage -->
<g id="edge22" class="edge">
<title>Rimg:MMNAT01_AF_NNM001001033_003.jpg&#45;&gt;Rdcmitype:StillImage</title>
<path fill="none" stroke="#000000" d="M1385.6619,-567.638C1407.6318,-569.6046 1430.1461,-571.6139 1451.3956,-573.5 1562.5943,-583.37 1690.7715,-594.6012 1773.7877,-601.856"/>
<polygon fill="#000000" stroke="#000000" points="1773.6683,-605.3588 1783.935,-602.7426 1774.2777,-598.3854 1773.6683,-605.3588"/>
<text text-anchor="middle" x="1508.8956" y="-587.3" font-family="Times,serif" font-size="14.00" fill="#000000">rdf:type</text>
</g>
<!-- Rdwc:HumanObservation -->
<g id="node23" class="node">
<title>Rdwc:HumanObservation</title>
<ellipse fill="none" stroke="#0000ff" cx="1861.3956" cy="-555.5" rx="96.6831" ry="18"/>
<text text-anchor="middle" x="1861.3956" y="-551.8" font-family="Times,serif" font-size="14.00" fill="#000000">dwc:HumanObservation</text>
</g>
<!-- Rimg:MMNAT01_AF_NNM001001033_003.jpg&#45;&gt;Rdwc:HumanObservation -->
<g id="edge24" class="edge">
<title>Rimg:MMNAT01_AF_NNM001001033_003.jpg&#45;&gt;Rdwc:HumanObservation</title>
<path fill="none" stroke="#000000" d="M1433.5584,-555.5C1538.1017,-555.5 1665.6213,-555.5 1754.109,-555.5"/>
<polygon fill="#000000" stroke="#000000" points="1754.1624,-559.0001 1764.1623,-555.5 1754.1623,-552.0001 1754.1624,-559.0001"/>
<text text-anchor="middle" x="1508.8956" y="-559.3" font-family="Times,serif" font-size="14.00" fill="#000000">rdf:type</text>
</g>
<!-- Roa:Source -->
<g id="node24" class="node">
<title>Roa:Source</title>
<ellipse fill="none" stroke="#0000ff" cx="1861.3956" cy="-501.5" rx="46.2923" ry="18"/>
<text text-anchor="middle" x="1861.3956" y="-497.8" font-family="Times,serif" font-size="14.00" fill="#000000">oa:Source</text>
</g>
<!-- Rimg:MMNAT01_AF_NNM001001033_003.jpg&#45;&gt;Roa:Source -->
<g id="edge25" class="edge">
<title>Rimg:MMNAT01_AF_NNM001001033_003.jpg&#45;&gt;Roa:Source</title>
<path fill="none" stroke="#000000" d="M1381.6037,-542.9329C1404.8473,-540.7507 1428.8321,-538.5314 1451.3956,-536.5 1578.2214,-525.0818 1727.2043,-512.596 1806.0039,-506.0648"/>
<polygon fill="#000000" stroke="#000000" points="1806.5079,-509.5352 1816.1849,-505.2218 1805.9301,-502.559 1806.5079,-509.5352"/>
<text text-anchor="middle" x="1508.8956" y="-540.3" font-family="Times,serif" font-size="14.00" fill="#000000">rdf:type</text>
</g>
<!-- Rfoaf:Image -->
<g id="node25" class="node">
<title>Rfoaf:Image</title>
<ellipse fill="none" stroke="#0000ff" cx="1861.3956" cy="-447.5" rx="50.0912" ry="18"/>
<text text-anchor="middle" x="1861.3956" y="-443.8" font-family="Times,serif" font-size="14.00" fill="#000000">foaf:Image</text>
</g>
<!-- Rimg:MMNAT01_AF_NNM001001033_003.jpg&#45;&gt;Rfoaf:Image -->
<g id="edge26" class="edge">
<title>Rimg:MMNAT01_AF_NNM001001033_003.jpg&#45;&gt;Rfoaf:Image</title>
<path fill="none" stroke="#000000" d="M1393.9709,-544.1979C1407.7251,-540.2216 1421.1093,-535.091 1433.3956,-528.5 1443.9338,-522.8468 1441.164,-514.6907 1451.3956,-508.5 1503.5962,-476.9157 1524.3019,-485.0459 1584.3956,-474.5 1658.6556,-461.468 1745.2999,-454.2916 1801.6425,-450.6742"/>
<polygon fill="#000000" stroke="#000000" points="1802.0382,-454.1564 1811.8005,-450.0396 1801.6017,-447.17 1802.0382,-454.1564"/>
<text text-anchor="middle" x="1508.8956" y="-512.3" font-family="Times,serif" font-size="14.00" fill="#000000">rdf:type</text>
</g>
<!-- B_:node1f0go8rutx18&#45;&gt;Rimg:MMNAT01_AF_NNM001001033_003.jpg -->
<g id="edge19" class="edge">
<title>B_:node1f0go8rutx18&#45;&gt;Rimg:MMNAT01_AF_NNM001001033_003.jpg</title>
<path fill="none" stroke="#000000" d="M842.6757,-521.9816C886.6621,-525.5944 1002.9655,-535.1471 1100.2091,-543.1342"/>
<polygon fill="#000000" stroke="#000000" points="1100.2046,-546.6456 1110.4576,-543.976 1100.7777,-539.6691 1100.2046,-546.6456"/>
<text text-anchor="middle" x="1001.628" y="-542.3" font-family="Times,serif" font-size="14.00" fill="#000000">oa:hasSource</text>
</g>
<!-- Roa:Target -->
<g id="node14" class="node">
<title>Roa:Target</title>
<ellipse fill="none" stroke="#0000ff" cx="1250.7618" cy="-501.5" rx="44.393" ry="18"/>
<text text-anchor="middle" x="1250.7618" y="-497.8" font-family="Times,serif" font-size="14.00" fill="#000000">oa:Target</text>
</g>
<!-- B_:node1f0go8rutx18&#45;&gt;Roa:Target -->
<g id="edge13" class="edge">
<title>B_:node1f0go8rutx18&#45;&gt;Roa:Target</title>
<path fill="none" stroke="#000000" d="M842.4328,-517.2266C867.1597,-512.8571 913.3597,-505.3391 953.128,-502.5 1037.7308,-496.46 1136.2052,-497.7545 1195.9802,-499.461"/>
<polygon fill="#000000" stroke="#000000" points="1196.2167,-502.9696 1206.3173,-499.7713 1196.4268,-495.9727 1196.2167,-502.9696"/>
<text text-anchor="middle" x="1001.628" y="-506.3" font-family="Times,serif" font-size="14.00" fill="#000000">rdf:type</text>
</g>
<!-- Limage/jpeg -->
<g id="node15" class="node">
<title>Limage/jpeg</title>
<polygon fill="none" stroke="#000000" points="1212.2618,-428.5 1212.2618,-464.5 1289.2618,-464.5 1289.2618,-428.5 1212.2618,-428.5"/>
<text text-anchor="middle" x="1250.7618" y="-442.8" font-family="Times,serif" font-size="14.00" fill="#000000">image/jpeg</text>
</g>
<!-- B_:node1f0go8rutx18&#45;&gt;Limage/jpeg -->
<g id="edge14" class="edge">
<title>B_:node1f0go8rutx18&#45;&gt;Limage/jpeg</title>
<path fill="none" stroke="#000000" d="M842.5592,-518.2857C865.0149,-515.0321 904.2921,-507.7383 935.128,-493.5 944.0873,-489.3631 943.9262,-484.065 953.128,-480.5 1036.3352,-448.264 1141.7018,-443.9657 1202.1495,-444.6366"/>
<polygon fill="#000000" stroke="#000000" points="1202.1212,-448.1365 1212.1764,-444.7984 1202.2343,-441.1374 1202.1212,-448.1365"/>
<text text-anchor="middle" x="1001.628" y="-484.3" font-family="Times,serif" font-size="14.00" fill="#000000">dcterms:format</text>
</g>
<!-- B_:node1f0go8rutx21 -->
<g id="node16" class="node">
<title>B_:node1f0go8rutx21</title>
<ellipse fill="none" stroke="#00ff00" cx="1250.7618" cy="-365.5" rx="18" ry="18"/>
</g>
<!-- B_:node1f0go8rutx18&#45;&gt;B_:node1f0go8rutx21 -->
<g id="edge15" class="edge">
<title>B_:node1f0go8rutx18&#45;&gt;B_:node1f0go8rutx21</title>
<path fill="none" stroke="#000000" d="M842.8124,-521.1762C867.0069,-521.0636 909.6924,-517.1831 935.128,-493.5 954.2613,-475.685 933.9741,-455.2928 953.128,-437.5 1029.6055,-366.4574 1163.8537,-362.0366 1222.2673,-363.8339"/>
<polygon fill="#000000" stroke="#000000" points="1222.4498,-367.3438 1232.5806,-364.2427 1222.7271,-360.3493 1222.4498,-367.3438"/>
<text text-anchor="middle" x="1001.628" y="-441.3" font-family="Times,serif" font-size="14.00" fill="#000000">oa:hasSelector</text>
</g>
<!-- Roa:FragmentSelector -->
<g id="node17" class="node">
<title>Roa:FragmentSelector</title>
<ellipse fill="none" stroke="#0000ff" cx="1861.3956" cy="-393.5" rx="84.485" ry="18"/>
<text text-anchor="middle" x="1861.3956" y="-389.8" font-family="Times,serif" font-size="14.00" fill="#000000">oa:FragmentSelector</text>
</g>
<!-- B_:node1f0go8rutx21&#45;&gt;Roa:FragmentSelector -->
<g id="edge16" class="edge">
<title>B_:node1f0go8rutx21&#45;&gt;Roa:FragmentSelector</title>
<path fill="none" stroke="#000000" d="M1269.0369,-366.338C1342.6772,-369.7147 1620.75,-382.4654 1768.2279,-389.2279"/>
<polygon fill="#000000" stroke="#000000" points="1768.4662,-392.7424 1778.6161,-389.7042 1768.7869,-385.7497 1768.4662,-392.7424"/>
<text text-anchor="middle" x="1508.8956" y="-383.3" font-family="Times,serif" font-size="14.00" fill="#000000">rdf:type</text>
</g>
<!-- Rmf: -->
<g id="node18" class="node">
<title>Rmf:</title>
<ellipse fill="none" stroke="#0000ff" cx="1861.3956" cy="-339.5" rx="27" ry="18"/>
<text text-anchor="middle" x="1861.3956" y="-335.8" font-family="Times,serif" font-size="14.00" fill="#000000">mf:</text>
</g>
<!-- B_:node1f0go8rutx21&#45;&gt;Rmf: -->
<g id="edge17" class="edge">
<title>B_:node1f0go8rutx21&#45;&gt;Rmf:</title>
<path fill="none" stroke="#000000" d="M1268.7457,-364.6728C1303.856,-363.0624 1383.9902,-359.4093 1451.3956,-356.5 1588.4883,-350.583 1751.3845,-343.9462 1823.6482,-341.0223"/>
<polygon fill="#000000" stroke="#000000" points="1824.1944,-344.5032 1834.0448,-340.602 1823.9116,-337.5089 1824.1944,-344.5032"/>
<text text-anchor="middle" x="1508.8956" y="-360.3" font-family="Times,serif" font-size="14.00" fill="#000000">dcterms:conformsTo</text>
</g>
<!-- Lxywh=0.5614033197022136,0.11586327570674965,0.14027982326951394,0.0625920471281296 -->
<g id="node19" class="node">
<title>Lxywh=0.5614033197022136,0.11586327570674965,0.14027982326951394,0.0625920471281296</title>
<polygon fill="none" stroke="#000000" points="1584.3956,-266.5 1584.3956,-302.5 2138.3956,-302.5 2138.3956,-266.5 1584.3956,-266.5"/>
<text text-anchor="middle" x="1861.3956" y="-280.8" font-family="Times,serif" font-size="14.00" fill="#000000">xywh=0.5614033197022136,0.11586327570674965,0.14027982326951394,0.0625920471281296</text>
</g>
<!-- B_:node1f0go8rutx21&#45;&gt;Lxywh=0.5614033197022136,0.11586327570674965,0.14027982326951394,0.0625920471281296 -->
<g id="edge18" class="edge">
<title>B_:node1f0go8rutx21&#45;&gt;Lxywh=0.5614033197022136,0.11586327570674965,0.14027982326951394,0.0625920471281296</title>
<path fill="none" stroke="#000000" d="M1268.7451,-362.6221C1303.8544,-357.0057 1383.9868,-344.1974 1451.3956,-333.5 1510.4994,-324.1205 1525.0469,-320.1789 1584.3956,-312.5 1608.6228,-309.3653 1634.0805,-306.377 1659.3385,-303.5995"/>
<polygon fill="#000000" stroke="#000000" points="1659.8212,-307.0677 1669.3831,-302.5047 1659.0627,-300.1089 1659.8212,-307.0677"/>
<text text-anchor="middle" x="1508.8956" y="-337.3" font-family="Times,serif" font-size="14.00" fill="#000000">rdf:value</text>
</g>
</g>
</svg>
