<?xml version="1.0" encoding="UTF-8" standalone="no"?>
<!DOCTYPE svg PUBLIC "-//W3C//DTD SVG 1.1//EN"
 "http://www.w3.org/Graphics/SVG/1.1/DTD/svg11.dtd">
<!-- Generated by graphviz version 2.40.1 (20161225.0304)
 -->
<!-- Title: %3 Pages: 1 -->
<svg width="2186pt" height="1190pt"
 viewBox="0.00 0.00 2185.80 1190.00" xmlns="http://www.w3.org/2000/svg" xmlns:xlink="http://www.w3.org/1999/xlink">
<g id="graph0" class="graph" transform="scale(1 1) rotate(0) translate(4 1186)">
<title>%3</title>
<polygon fill="#ffffff" stroke="transparent" points="-4,4 -4,-1186 2181.7958,-1186 2181.7958,4 -4,4"/>
<text text-anchor="middle" x="1088.8979" y="-218.8" font-family="Times,serif" font-size="14.00" fill="#000000">Model:</text>
<text text-anchor="middle" x="1088.8979" y="-203.8" font-family="Times,serif" font-size="14.00" fill="#000000">(Unknown)</text>
<text text-anchor="middle" x="1088.8979" y="-172.8" font-family="Times,serif" font-size="14.00" fill="#000000">Namespaces:</text>
<text text-anchor="middle" x="1088.8979" y="-157.8" font-family="Times,serif" font-size="14.00" fill="#000000">dcmitype: http://purl.org/dc/dcmitype/</text>
<text text-anchor="middle" x="1088.8979" y="-142.8" font-family="Times,serif" font-size="14.00" fill="#000000">dcterms: http://purl.org/dc/terms/</text>
<text text-anchor="middle" x="1088.8979" y="-127.8" font-family="Times,serif" font-size="14.00" fill="#000000">dsw: http://purl.org/dsw/</text>
<text text-anchor="middle" x="1088.8979" y="-112.8" font-family="Times,serif" font-size="14.00" fill="#000000">dwc: http://rs.tdwg.org/dwc/terms/</text>
<text text-anchor="middle" x="1088.8979" y="-97.8" font-family="Times,serif" font-size="14.00" fill="#000000">foaf: http://xmlns.com/foaf/0.1/</text>
<text text-anchor="middle" x="1088.8979" y="-82.8" font-family="Times,serif" font-size="14.00" fill="#000000">img: http://localhost:8080/semanticAnnotator/files/</text>
<text text-anchor="middle" x="1088.8979" y="-67.8" font-family="Times,serif" font-size="14.00" fill="#000000">iso: http://iso639&#45;3.sil.org/code/</text>
<text text-anchor="middle" x="1088.8979" y="-52.8" font-family="Times,serif" font-size="14.00" fill="#000000">mf: http://www.w3.org/TR/media&#45;frags/</text>
<text text-anchor="middle" x="1088.8979" y="-37.8" font-family="Times,serif" font-size="14.00" fill="#000000">oa: http://www.w3.org/ns/oa#</text>
<text text-anchor="middle" x="1088.8979" y="-22.8" font-family="Times,serif" font-size="14.00" fill="#000000">orcid: http://orcid.org/</text>
<text text-anchor="middle" x="1088.8979" y="-7.8" font-family="Times,serif" font-size="14.00" fill="#000000">rdf: http://www.w3.org/1999/02/22&#45;rdf&#45;syntax&#45;ns#</text>
<!-- Rhttp://localhost:8080/rdf/nc/annotation/5ddb3170&#45;da7e&#45;46cc&#45;9f81&#45;6731cf3cd28f -->
<g id="node1" class="node">
<title>Rhttp://localhost:8080/rdf/nc/annotation/5ddb3170&#45;da7e&#45;46cc&#45;9f81&#45;6731cf3cd28f</title>
<ellipse fill="none" stroke="#0000ff" cx="293.7739" cy="-918" rx="293.548" ry="18"/>
<text text-anchor="middle" x="293.7739" y="-914.3" font-family="Times,serif" font-size="14.00" fill="#000000">http://localhost:8080/rdf/nc/annotation/5ddb3170&#45;da7e&#45;46cc&#45;9f81&#45;6731cf3cd28f</text>
</g>
<!-- Roa:Annotation -->
<g id="node2" class="node">
<title>Roa:Annotation</title>
<ellipse fill="none" stroke="#0000ff" cx="822.0381" cy="-1051" rx="61.1893" ry="18"/>
<text text-anchor="middle" x="822.0381" y="-1047.3" font-family="Times,serif" font-size="14.00" fill="#000000">oa:Annotation</text>
</g>
<!-- Rhttp://localhost:8080/rdf/nc/annotation/5ddb3170&#45;da7e&#45;46cc&#45;9f81&#45;6731cf3cd28f&#45;&gt;Roa:Annotation -->
<g id="edge1" class="edge">
<title>Rhttp://localhost:8080/rdf/nc/annotation/5ddb3170&#45;da7e&#45;46cc&#45;9f81&#45;6731cf3cd28f&#45;&gt;Roa:Annotation</title>
<path fill="none" stroke="#000000" d="M362.1127,-935.5359C444.8061,-956.7099 588.2914,-993.3041 711.5479,-1024 728.8471,-1028.3082 747.6864,-1032.9357 764.8281,-1037.1215"/>
<polygon fill="#000000" stroke="#000000" points="764.1557,-1040.56 774.7002,-1039.5293 765.8144,-1033.7594 764.1557,-1040.56"/>
<text text-anchor="middle" x="649.5479" y="-1021.8" font-family="Times,serif" font-size="14.00" fill="#000000">rdf:type</text>
</g>
<!-- Rorcid:0000&#45;0002&#45;2146&#45;4803 -->
<g id="node3" class="node">
<title>Rorcid:0000&#45;0002&#45;2146&#45;4803</title>
<ellipse fill="none" stroke="#0000ff" cx="822.0381" cy="-997" rx="110.4804" ry="18"/>
<text text-anchor="middle" x="822.0381" y="-993.3" font-family="Times,serif" font-size="14.00" fill="#000000">orcid:0000&#45;0002&#45;2146&#45;4803</text>
</g>
<!-- Rhttp://localhost:8080/rdf/nc/annotation/5ddb3170&#45;da7e&#45;46cc&#45;9f81&#45;6731cf3cd28f&#45;&gt;Rorcid:0000&#45;0002&#45;2146&#45;4803 -->
<g id="edge2" class="edge">
<title>Rhttp://localhost:8080/rdf/nc/annotation/5ddb3170&#45;da7e&#45;46cc&#45;9f81&#45;6731cf3cd28f&#45;&gt;Rorcid:0000&#45;0002&#45;2146&#45;4803</title>
<path fill="none" stroke="#000000" d="M405.1597,-934.6573C501.8816,-949.1218 640.2387,-969.8126 730.5955,-983.3251"/>
<polygon fill="#000000" stroke="#000000" points="730.1425,-986.7962 740.5502,-984.8138 731.1778,-979.8732 730.1425,-986.7962"/>
<text text-anchor="middle" x="649.5479" y="-978.8" font-family="Times,serif" font-size="14.00" fill="#000000">dcterms:creator</text>
</g>
<!-- L2021&#45;01&#45;12T14:23:11.646Z|Datatype: dcterms:W3CDTF -->
<g id="node4" class="node">
<title>L2021&#45;01&#45;12T14:23:11.646Z|Datatype: dcterms:W3CDTF</title>
<polygon fill="none" stroke="#000000" points="734.5381,-914 734.5381,-960 909.5381,-960 909.5381,-914 734.5381,-914"/>
<text text-anchor="middle" x="822.0381" y="-944.8" font-family="Times,serif" font-size="14.00" fill="#000000">2021&#45;01&#45;12T14:23:11.646Z</text>
<polyline fill="none" stroke="#000000" points="734.5381,-937 909.5381,-937 "/>
<text text-anchor="middle" x="822.0381" y="-921.8" font-family="Times,serif" font-size="14.00" fill="#000000">Datatype: dcterms:W3CDTF</text>
</g>
<!-- Rhttp://localhost:8080/rdf/nc/annotation/5ddb3170&#45;da7e&#45;46cc&#45;9f81&#45;6731cf3cd28f&#45;&gt;L2021&#45;01&#45;12T14:23:11.646Z|Datatype: dcterms:W3CDTF -->
<g id="edge3" class="edge">
<title>Rhttp://localhost:8080/rdf/nc/annotation/5ddb3170&#45;da7e&#45;46cc&#45;9f81&#45;6731cf3cd28f&#45;&gt;L2021&#45;01&#45;12T14:23:11.646Z|Datatype: dcterms:W3CDTF</title>
<path fill="none" stroke="#000000" d="M547.4618,-927.1244C610.3286,-929.3855 673.9855,-931.675 724.1572,-933.4795"/>
<polygon fill="#000000" stroke="#000000" points="724.2107,-936.9836 734.3301,-933.8454 724.4624,-929.9882 724.2107,-936.9836"/>
<text text-anchor="middle" x="649.5479" y="-934.8" font-family="Times,serif" font-size="14.00" fill="#000000">dcterms:date</text>
</g>
<!-- B_:node1f26ai8ibx81 -->
<g id="node5" class="node">
<title>B_:node1f26ai8ibx81</title>
<ellipse fill="none" stroke="#00ff00" cx="822.0381" cy="-877" rx="18" ry="18"/>
</g>
<!-- Rhttp://localhost:8080/rdf/nc/annotation/5ddb3170&#45;da7e&#45;46cc&#45;9f81&#45;6731cf3cd28f&#45;&gt;B_:node1f26ai8ibx81 -->
<g id="edge4" class="edge">
<title>Rhttp://localhost:8080/rdf/nc/annotation/5ddb3170&#45;da7e&#45;46cc&#45;9f81&#45;6731cf3cd28f&#45;&gt;B_:node1f26ai8ibx81</title>
<path fill="none" stroke="#000000" d="M475.9423,-903.8614C593.3416,-894.7497 734.7205,-883.777 793.8712,-879.1861"/>
<polygon fill="#000000" stroke="#000000" points="794.2355,-882.6684 803.9347,-878.4051 793.6938,-875.6894 794.2355,-882.6684"/>
<text text-anchor="middle" x="649.5479" y="-895.8" font-family="Times,serif" font-size="14.00" fill="#000000">oa:hasBody</text>
</g>
<!-- B_:node1f26ai8ibx80 -->
<g id="node13" class="node">
<title>B_:node1f26ai8ibx80</title>
<ellipse fill="none" stroke="#00ff00" cx="822.0381" cy="-665" rx="18" ry="18"/>
</g>
<!-- Rhttp://localhost:8080/rdf/nc/annotation/5ddb3170&#45;da7e&#45;46cc&#45;9f81&#45;6731cf3cd28f&#45;&gt;B_:node1f26ai8ibx80 -->
<g id="edge13" class="edge">
<title>Rhttp://localhost:8080/rdf/nc/annotation/5ddb3170&#45;da7e&#45;46cc&#45;9f81&#45;6731cf3cd28f&#45;&gt;B_:node1f26ai8ibx80</title>
<path fill="none" stroke="#000000" d="M331.3419,-900.0077C432.797,-851.4181 710.4461,-718.4444 796.3573,-677.2992"/>
<polygon fill="#000000" stroke="#000000" points="797.9077,-680.4375 805.4149,-672.9613 794.884,-674.1242 797.9077,-680.4375"/>
<text text-anchor="middle" x="649.5479" y="-764.8" font-family="Times,serif" font-size="14.00" fill="#000000">oa:hasTarget</text>
</g>
<!-- Roa:describing -->
<g id="node21" class="node">
<title>Roa:describing</title>
<ellipse fill="none" stroke="#0000ff" cx="822.0381" cy="-611" rx="57.6901" ry="18"/>
<text text-anchor="middle" x="822.0381" y="-607.3" font-family="Times,serif" font-size="14.00" fill="#000000">oa:describing</text>
</g>
<!-- Rhttp://localhost:8080/rdf/nc/annotation/5ddb3170&#45;da7e&#45;46cc&#45;9f81&#45;6731cf3cd28f&#45;&gt;Roa:describing -->
<g id="edge21" class="edge">
<title>Rhttp://localhost:8080/rdf/nc/annotation/5ddb3170&#45;da7e&#45;46cc&#45;9f81&#45;6731cf3cd28f&#45;&gt;Roa:describing</title>
<path fill="none" stroke="#000000" d="M314.8002,-899.8841C373.4299,-850.3068 545.3561,-711.2348 711.5479,-638 727.0359,-631.175 744.5385,-625.8935 760.9704,-621.887"/>
<polygon fill="#000000" stroke="#000000" points="762.0839,-625.2218 771.0357,-619.5548 760.5038,-618.4025 762.0839,-625.2218"/>
<text text-anchor="middle" x="649.5479" y="-690.8" font-family="Times,serif" font-size="14.00" fill="#000000">oa:motivatedBy</text>
</g>
<!-- Rfoaf:Person -->
<g id="node22" class="node">
<title>Rfoaf:Person</title>
<ellipse fill="none" stroke="#0000ff" cx="1284.1621" cy="-1149" rx="51.1914" ry="18"/>
<text text-anchor="middle" x="1284.1621" y="-1145.3" font-family="Times,serif" font-size="14.00" fill="#000000">foaf:Person</text>
</g>
<!-- Rorcid:0000&#45;0002&#45;2146&#45;4803&#45;&gt;Rfoaf:Person -->
<g id="edge22" class="edge">
<title>Rorcid:0000&#45;0002&#45;2146&#45;4803&#45;&gt;Rfoaf:Person</title>
<path fill="none" stroke="#000000" d="M909.6114,-1008.0817C918.1514,-1012.0409 926.0375,-1017.2288 932.5283,-1024 960.7566,-1053.4476 920.376,-1086.5256 950.5283,-1114 1027.106,-1183.7767 1158.3496,-1173.4827 1231.3155,-1160.7033"/>
<polygon fill="#000000" stroke="#000000" points="1232.0064,-1164.1351 1241.2128,-1158.8917 1230.746,-1157.2495 1232.0064,-1164.1351"/>
<text text-anchor="middle" x="1017.0283" y="-1170.8" font-family="Times,serif" font-size="14.00" fill="#000000">rdf:type</text>
</g>
<!-- Rdcmitype:Event -->
<g id="node6" class="node">
<title>Rdcmitype:Event</title>
<ellipse fill="none" stroke="#0000ff" cx="1284.1621" cy="-1095" rx="66.8882" ry="18"/>
<text text-anchor="middle" x="1284.1621" y="-1091.3" font-family="Times,serif" font-size="14.00" fill="#000000">dcmitype:Event</text>
</g>
<!-- B_:node1f26ai8ibx81&#45;&gt;Rdcmitype:Event -->
<g id="edge5" class="edge">
<title>B_:node1f26ai8ibx81&#45;&gt;Rdcmitype:Event</title>
<path fill="none" stroke="#000000" d="M840.4118,-875.9196C865.2388,-875.5547 909.0824,-878.9786 932.5283,-905 969.8054,-946.3721 913.3456,-987.543 950.5283,-1029 984.0893,-1066.4191 1120.583,-1083.2586 1208.249,-1090.3411"/>
<polygon fill="#000000" stroke="#000000" points="1208.1805,-1093.8463 1218.4231,-1091.1371 1208.7266,-1086.8676 1208.1805,-1093.8463"/>
<text text-anchor="middle" x="1017.0283" y="-1078.8" font-family="Times,serif" font-size="14.00" fill="#000000">rdf:type</text>
</g>
<!-- Rdwc:Event -->
<g id="node7" class="node">
<title>Rdwc:Event</title>
<ellipse fill="none" stroke="#0000ff" cx="1284.1621" cy="-1041" rx="48.1917" ry="18"/>
<text text-anchor="middle" x="1284.1621" y="-1037.3" font-family="Times,serif" font-size="14.00" fill="#000000">dwc:Event</text>
</g>
<!-- B_:node1f26ai8ibx81&#45;&gt;Rdwc:Event -->
<g id="edge6" class="edge">
<title>B_:node1f26ai8ibx81&#45;&gt;Rdwc:Event</title>
<path fill="none" stroke="#000000" d="M840.0339,-876.2783C864.4225,-876.3296 907.7599,-880.2341 932.5283,-905 955.5484,-928.0179 927.489,-953.0011 950.5283,-976 999.5055,-1024.8914 1033.6585,-1000.4783 1101.5283,-1014 1143.5849,-1022.3789 1191.5662,-1029.3745 1227.7921,-1034.1441"/>
<polygon fill="#000000" stroke="#000000" points="1227.7917,-1037.6734 1238.1593,-1035.4907 1228.6934,-1030.7317 1227.7917,-1037.6734"/>
<text text-anchor="middle" x="1017.0283" y="-1013.8" font-family="Times,serif" font-size="14.00" fill="#000000">rdf:type</text>
</g>
<!-- Roa:TextualBody -->
<g id="node8" class="node">
<title>Roa:TextualBody</title>
<ellipse fill="none" stroke="#0000ff" cx="1284.1621" cy="-987" rx="67.6881" ry="18"/>
<text text-anchor="middle" x="1284.1621" y="-983.3" font-family="Times,serif" font-size="14.00" fill="#000000">oa:TextualBody</text>
</g>
<!-- B_:node1f26ai8ibx81&#45;&gt;Roa:TextualBody -->
<g id="edge7" class="edge">
<title>B_:node1f26ai8ibx81&#45;&gt;Roa:TextualBody</title>
<path fill="none" stroke="#000000" d="M840.0225,-877.8158C863.2478,-879.6556 904.0612,-885.6297 932.5283,-905 943.8478,-912.7023 939.0121,-922.595 950.5283,-930 1008.08,-967.0065 1034.1086,-948.3265 1101.5283,-960 1138.3064,-966.3681 1179.4165,-972.5296 1213.3069,-977.3548"/>
<polygon fill="#000000" stroke="#000000" points="1213.1883,-980.8728 1223.58,-978.8081 1214.1689,-973.9418 1213.1883,-980.8728"/>
<text text-anchor="middle" x="1017.0283" y="-960.8" font-family="Times,serif" font-size="14.00" fill="#000000">rdf:type</text>
</g>
<!-- Ltext/plain -->
<g id="node9" class="node">
<title>Ltext/plain</title>
<polygon fill="none" stroke="#000000" points="1250.1621,-914 1250.1621,-950 1318.1621,-950 1318.1621,-914 1250.1621,-914"/>
<text text-anchor="middle" x="1284.1621" y="-928.3" font-family="Times,serif" font-size="14.00" fill="#000000">text/plain</text>
</g>
<!-- B_:node1f26ai8ibx81&#45;&gt;Ltext/plain -->
<g id="edge8" class="edge">
<title>B_:node1f26ai8ibx81&#45;&gt;Ltext/plain</title>
<path fill="none" stroke="#000000" d="M839.8837,-879.8655C864.6693,-883.7935 910.9371,-890.9388 950.5283,-896 1053.9888,-909.2261 1175.9158,-921.56 1239.8789,-927.781"/>
<polygon fill="#000000" stroke="#000000" points="1239.7184,-931.2817 1250.0093,-928.7622 1240.3933,-924.3143 1239.7184,-931.2817"/>
<text text-anchor="middle" x="1017.0283" y="-914.8" font-family="Times,serif" font-size="14.00" fill="#000000">dcterms:format</text>
</g>
<!-- Riso:ger -->
<g id="node10" class="node">
<title>Riso:ger</title>
<ellipse fill="none" stroke="#0000ff" cx="1284.1621" cy="-877" rx="34.394" ry="18"/>
<text text-anchor="middle" x="1284.1621" y="-873.3" font-family="Times,serif" font-size="14.00" fill="#000000">iso:ger</text>
</g>
<!-- B_:node1f26ai8ibx81&#45;&gt;Riso:ger -->
<g id="edge9" class="edge">
<title>B_:node1f26ai8ibx81&#45;&gt;Riso:ger</title>
<path fill="none" stroke="#000000" d="M840.1539,-877C906.8919,-877 1140.2738,-877 1239.2466,-877"/>
<polygon fill="#000000" stroke="#000000" points="1239.5156,-880.5001 1249.5156,-877 1239.5155,-873.5001 1239.5156,-880.5001"/>
<text text-anchor="middle" x="1017.0283" y="-880.8" font-family="Times,serif" font-size="14.00" fill="#000000">dcterms:language</text>
</g>
<!-- L1821&#45;04&#45;10|Datatype: dcterms:W3CDTF -->
<g id="node11" class="node">
<title>L1821&#45;04&#45;10|Datatype: dcterms:W3CDTF</title>
<polygon fill="none" stroke="#000000" points="1196.6621,-794 1196.6621,-840 1371.6621,-840 1371.6621,-794 1196.6621,-794"/>
<text text-anchor="middle" x="1284.1621" y="-824.8" font-family="Times,serif" font-size="14.00" fill="#000000">1821&#45;04&#45;10</text>
<polyline fill="none" stroke="#000000" points="1196.6621,-817 1371.6621,-817 "/>
<text text-anchor="middle" x="1284.1621" y="-801.8" font-family="Times,serif" font-size="14.00" fill="#000000">Datatype: dcterms:W3CDTF</text>
</g>
<!-- B_:node1f26ai8ibx81&#45;&gt;L1821&#45;04&#45;10|Datatype: dcterms:W3CDTF -->
<g id="edge10" class="edge">
<title>B_:node1f26ai8ibx81&#45;&gt;L1821&#45;04&#45;10|Datatype: dcterms:W3CDTF</title>
<path fill="none" stroke="#000000" d="M839.8947,-874.2181C864.6931,-870.3871 910.9757,-863.3538 950.5283,-858 1029.876,-847.2595 1120.0073,-836.2545 1186.5698,-828.3538"/>
<polygon fill="#000000" stroke="#000000" points="1187.1109,-831.8143 1196.6297,-827.1621 1186.2874,-824.8629 1187.1109,-831.8143"/>
<text text-anchor="middle" x="1017.0283" y="-861.8" font-family="Times,serif" font-size="14.00" fill="#000000">dwc:eventDate</text>
</g>
<!-- L10 April 1821|Language: ger -->
<g id="node12" class="node">
<title>L10 April 1821|Language: ger</title>
<polygon fill="none" stroke="#000000" points="1236.6621,-729 1236.6621,-775 1331.6621,-775 1331.6621,-729 1236.6621,-729"/>
<text text-anchor="middle" x="1284.1621" y="-759.8" font-family="Times,serif" font-size="14.00" fill="#000000">10 April 1821</text>
<polyline fill="none" stroke="#000000" points="1236.6621,-752 1331.6621,-752 "/>
<text text-anchor="middle" x="1284.1621" y="-736.8" font-family="Times,serif" font-size="14.00" fill="#000000">Language: ger</text>
</g>
<!-- B_:node1f26ai8ibx81&#45;&gt;L10 April 1821|Language: ger -->
<g id="edge11" class="edge">
<title>B_:node1f26ai8ibx81&#45;&gt;L10 April 1821|Language: ger</title>
<path fill="none" stroke="#000000" d="M838.334,-868.9947C862.4073,-857.4073 909.1011,-835.8377 950.5283,-822 1044.9021,-790.4767 1159.2108,-770.1677 1226.57,-759.9391"/>
<polygon fill="#000000" stroke="#000000" points="1227.1916,-763.3852 1236.5633,-758.4434 1226.1554,-756.4623 1227.1916,-763.3852"/>
<text text-anchor="middle" x="1017.0283" y="-825.8" font-family="Times,serif" font-size="14.00" fill="#000000">dwc:verbatimEventDate</text>
</g>
<!-- B_:node1f26ai8ibx81&#45;&gt;L10 April 1821|Language: ger -->
<g id="edge12" class="edge">
<title>B_:node1f26ai8ibx81&#45;&gt;L10 April 1821|Language: ger</title>
<path fill="none" stroke="#000000" d="M833.2661,-862.6785C853.5726,-838.0305 899.0973,-788.2872 950.5283,-768 1041.7319,-732.0243 1157.9893,-736.5889 1226.4274,-743.8371"/>
<polygon fill="#000000" stroke="#000000" points="1226.2529,-747.3393 1236.5793,-744.9695 1227.0289,-740.3824 1226.2529,-747.3393"/>
<text text-anchor="middle" x="1017.0283" y="-771.8" font-family="Times,serif" font-size="14.00" fill="#000000">rdf:value</text>
</g>
<!-- Roa:Target -->
<g id="node14" class="node">
<title>Roa:Target</title>
<ellipse fill="none" stroke="#0000ff" cx="1284.1621" cy="-692" rx="44.393" ry="18"/>
<text text-anchor="middle" x="1284.1621" y="-688.3" font-family="Times,serif" font-size="14.00" fill="#000000">oa:Target</text>
</g>
<!-- B_:node1f26ai8ibx80&#45;&gt;Roa:Target -->
<g id="edge14" class="edge">
<title>B_:node1f26ai8ibx80&#45;&gt;Roa:Target</title>
<path fill="none" stroke="#000000" d="M840.1539,-666.0584C904.9296,-669.843 1126.6939,-682.7998 1230.1756,-688.8458"/>
<polygon fill="#000000" stroke="#000000" points="1230.2205,-692.3543 1240.4076,-689.4436 1230.6288,-685.3662 1230.2205,-692.3543"/>
<text text-anchor="middle" x="1017.0283" y="-683.8" font-family="Times,serif" font-size="14.00" fill="#000000">rdf:type</text>
</g>
<!-- Limage/jpeg -->
<g id="node15" class="node">
<title>Limage/jpeg</title>
<polygon fill="none" stroke="#000000" points="1245.6621,-619 1245.6621,-655 1322.6621,-655 1322.6621,-619 1245.6621,-619"/>
<text text-anchor="middle" x="1284.1621" y="-633.3" font-family="Times,serif" font-size="14.00" fill="#000000">image/jpeg</text>
</g>
<!-- B_:node1f26ai8ibx80&#45;&gt;Limage/jpeg -->
<g id="edge15" class="edge">
<title>B_:node1f26ai8ibx80&#45;&gt;Limage/jpeg</title>
<path fill="none" stroke="#000000" d="M840.3157,-663.0308C865.213,-660.4084 911.1945,-655.7785 950.5283,-653 1051.6242,-645.8588 1170.1829,-641.0109 1235.2424,-638.6534"/>
<polygon fill="#000000" stroke="#000000" points="1235.7299,-642.1383 1245.5983,-638.2829 1235.4796,-635.1428 1235.7299,-642.1383"/>
<text text-anchor="middle" x="1017.0283" y="-656.8" font-family="Times,serif" font-size="14.00" fill="#000000">dcterms:format</text>
</g>
<!-- B_:node1f26ai8ibx83 -->
<g id="node16" class="node">
<title>B_:node1f26ai8ibx83</title>
<ellipse fill="none" stroke="#00ff00" cx="1284.1621" cy="-582" rx="18" ry="18"/>
</g>
<!-- B_:node1f26ai8ibx80&#45;&gt;B_:node1f26ai8ibx83 -->
<g id="edge16" class="edge">
<title>B_:node1f26ai8ibx80&#45;&gt;B_:node1f26ai8ibx83</title>
<path fill="none" stroke="#000000" d="M840.2669,-662.5377C862.699,-659.0639 901.6117,-651.5785 932.5283,-638 941.3314,-634.1337 941.5283,-629.3831 950.5283,-626 1057.9056,-585.6364 1196.8319,-581.3055 1255.7477,-581.4789"/>
<polygon fill="#000000" stroke="#000000" points="1256.0849,-584.9815 1266.1121,-581.5601 1256.1398,-577.9817 1256.0849,-584.9815"/>
<text text-anchor="middle" x="1017.0283" y="-629.8" font-family="Times,serif" font-size="14.00" fill="#000000">oa:hasSelector</text>
</g>
<!-- Rimg:MMNAT01_AF_NNM001001033_004.jpg -->
<g id="node20" class="node">
<title>Rimg:MMNAT01_AF_NNM001001033_004.jpg</title>
<ellipse fill="none" stroke="#0000ff" cx="1284.1621" cy="-419" rx="182.7677" ry="18"/>
<text text-anchor="middle" x="1284.1621" y="-415.3" font-family="Times,serif" font-size="14.00" fill="#000000">img:MMNAT01_AF_NNM001001033_004.jpg</text>
</g>
<!-- B_:node1f26ai8ibx80&#45;&gt;Rimg:MMNAT01_AF_NNM001001033_004.jpg -->
<g id="edge20" class="edge">
<title>B_:node1f26ai8ibx80&#45;&gt;Rimg:MMNAT01_AF_NNM001001033_004.jpg</title>
<path fill="none" stroke="#000000" d="M840.312,-665.7815C864.6192,-665.7882 907.432,-662.0424 932.5283,-638 953.2479,-618.1504 931.8956,-597.8204 950.5283,-576 1014.5799,-500.9902 1122.3915,-459.3993 1198.0829,-438.1721"/>
<polygon fill="#000000" stroke="#000000" points="1199.3567,-441.4522 1208.0769,-435.4349 1197.5075,-434.7008 1199.3567,-441.4522"/>
<text text-anchor="middle" x="1017.0283" y="-579.8" font-family="Times,serif" font-size="14.00" fill="#000000">oa:hasSource</text>
</g>
<!-- Roa:FragmentSelector -->
<g id="node17" class="node">
<title>Roa:FragmentSelector</title>
<ellipse fill="none" stroke="#0000ff" cx="1897.7958" cy="-664" rx="84.485" ry="18"/>
<text text-anchor="middle" x="1897.7958" y="-660.3" font-family="Times,serif" font-size="14.00" fill="#000000">oa:FragmentSelector</text>
</g>
<!-- B_:node1f26ai8ibx83&#45;&gt;Roa:FragmentSelector -->
<g id="edge17" class="edge">
<title>B_:node1f26ai8ibx83&#45;&gt;Roa:FragmentSelector</title>
<path fill="none" stroke="#000000" d="M1302.2479,-583.6146C1335.2717,-586.7961 1407.4048,-594.8267 1466.7958,-609 1474.9983,-610.9575 1476.6105,-612.9723 1484.7958,-615 1592.721,-641.7362 1720.2434,-654.0372 1804.7358,-659.5952"/>
<polygon fill="#000000" stroke="#000000" points="1804.6193,-663.0948 1814.8223,-660.2401 1805.066,-656.1091 1804.6193,-663.0948"/>
<text text-anchor="middle" x="1542.2958" y="-640.8" font-family="Times,serif" font-size="14.00" fill="#000000">rdf:type</text>
</g>
<!-- Rmf: -->
<g id="node18" class="node">
<title>Rmf:</title>
<ellipse fill="none" stroke="#0000ff" cx="1897.7958" cy="-610" rx="27" ry="18"/>
<text text-anchor="middle" x="1897.7958" y="-606.3" font-family="Times,serif" font-size="14.00" fill="#000000">mf:</text>
</g>
<!-- B_:node1f26ai8ibx83&#45;&gt;Rmf: -->
<g id="edge18" class="edge">
<title>B_:node1f26ai8ibx83&#45;&gt;Rmf:</title>
<path fill="none" stroke="#000000" d="M1302.1946,-582.8228C1386.5665,-586.6727 1743.1718,-602.9445 1860.3278,-608.2903"/>
<polygon fill="#000000" stroke="#000000" points="1860.4353,-611.7988 1870.5844,-608.7583 1860.7544,-604.8061 1860.4353,-611.7988"/>
<text text-anchor="middle" x="1542.2958" y="-599.8" font-family="Times,serif" font-size="14.00" fill="#000000">dcterms:conformsTo</text>
</g>
<!-- Lxywh=0.672574339819018,0.030544471154748218,0.06203976435935199,0.01601620029455081 -->
<g id="node19" class="node">
<title>Lxywh=0.672574339819018,0.030544471154748218,0.06203976435935199,0.01601620029455081</title>
<polygon fill="none" stroke="#000000" points="1617.7958,-537 1617.7958,-573 2177.7958,-573 2177.7958,-537 1617.7958,-537"/>
<text text-anchor="middle" x="1897.7958" y="-551.3" font-family="Times,serif" font-size="14.00" fill="#000000">xywh=0.672574339819018,0.030544471154748218,0.06203976435935199,0.01601620029455081</text>
</g>
<!-- B_:node1f26ai8ibx83&#45;&gt;Lxywh=0.672574339819018,0.030544471154748218,0.06203976435935199,0.01601620029455081 -->
<g id="edge19" class="edge">
<title>B_:node1f26ai8ibx83&#45;&gt;Lxywh=0.672574339819018,0.030544471154748218,0.06203976435935199,0.01601620029455081</title>
<path fill="none" stroke="#000000" d="M1302.1465,-581.1856C1337.2578,-579.5973 1417.3935,-575.9806 1484.7958,-573 1524.4558,-571.2462 1566.2586,-569.4099 1607.4267,-567.6087"/>
<polygon fill="#000000" stroke="#000000" points="1607.758,-571.0977 1617.5954,-567.164 1607.452,-564.1044 1607.758,-571.0977"/>
<text text-anchor="middle" x="1542.2958" y="-576.8" font-family="Times,serif" font-size="14.00" fill="#000000">rdf:value</text>
</g>
<!-- Rdcmitype:StillImage -->
<g id="node23" class="node">
<title>Rdcmitype:StillImage</title>
<ellipse fill="none" stroke="#0000ff" cx="1897.7958" cy="-500" rx="83.3857" ry="18"/>
<text text-anchor="middle" x="1897.7958" y="-496.3" font-family="Times,serif" font-size="14.00" fill="#000000">dcmitype:StillImage</text>
</g>
<!-- Rimg:MMNAT01_AF_NNM001001033_004.jpg&#45;&gt;Rdcmitype:StillImage -->
<g id="edge23" class="edge">
<title>Rimg:MMNAT01_AF_NNM001001033_004.jpg&#45;&gt;Rdcmitype:StillImage</title>
<path fill="none" stroke="#000000" d="M1377.5419,-434.4867C1411.3251,-440.0558 1449.7711,-446.3545 1484.7958,-452 1543.8767,-461.523 1558.4296,-465.4579 1617.7958,-473 1681.7617,-481.1265 1754.2264,-488.0524 1809.4085,-492.8546"/>
<polygon fill="#000000" stroke="#000000" points="1809.2411,-496.3531 1819.5051,-493.7264 1809.8433,-489.379 1809.2411,-496.3531"/>
<text text-anchor="middle" x="1542.2958" y="-474.8" font-family="Times,serif" font-size="14.00" fill="#000000">rdf:type</text>
</g>
<!-- Rdsw:Token -->
<g id="node24" class="node">
<title>Rdsw:Token</title>
<ellipse fill="none" stroke="#0000ff" cx="1897.7958" cy="-446" rx="50.0912" ry="18"/>
<text text-anchor="middle" x="1897.7958" y="-442.3" font-family="Times,serif" font-size="14.00" fill="#000000">dsw:Token</text>
</g>
<!-- Rimg:MMNAT01_AF_NNM001001033_004.jpg&#45;&gt;Rdsw:Token -->
<g id="edge24" class="edge">
<title>Rimg:MMNAT01_AF_NNM001001033_004.jpg&#45;&gt;Rdsw:Token</title>
<path fill="none" stroke="#000000" d="M1451.0296,-426.3422C1579.2193,-431.9826 1748.8898,-439.4481 1837.7167,-443.3565"/>
<polygon fill="#000000" stroke="#000000" points="1837.7357,-446.8606 1847.8799,-443.8037 1838.0434,-439.8674 1837.7357,-446.8606"/>
<text text-anchor="middle" x="1542.2958" y="-436.8" font-family="Times,serif" font-size="14.00" fill="#000000">rdf:type</text>
</g>
<!-- Rdwc:HumanObservation -->
<g id="node25" class="node">
<title>Rdwc:HumanObservation</title>
<ellipse fill="none" stroke="#0000ff" cx="1897.7958" cy="-392" rx="96.6831" ry="18"/>
<text text-anchor="middle" x="1897.7958" y="-388.3" font-family="Times,serif" font-size="14.00" fill="#000000">dwc:HumanObservation</text>
</g>
<!-- Rimg:MMNAT01_AF_NNM001001033_004.jpg&#45;&gt;Rdwc:HumanObservation -->
<g id="edge25" class="edge">
<title>Rimg:MMNAT01_AF_NNM001001033_004.jpg&#45;&gt;Rdwc:HumanObservation</title>
<path fill="none" stroke="#000000" d="M1450.5724,-411.5189C1462.1543,-411.0032 1473.6492,-410.4929 1484.7958,-410 1589.694,-405.3613 1709.5831,-400.1457 1793.0683,-396.5276"/>
<polygon fill="#000000" stroke="#000000" points="1793.2264,-400.0241 1803.0655,-396.0944 1792.9233,-393.0307 1793.2264,-400.0241"/>
<text text-anchor="middle" x="1542.2958" y="-413.8" font-family="Times,serif" font-size="14.00" fill="#000000">rdf:type</text>
</g>
<!-- Roa:Source -->
<g id="node26" class="node">
<title>Roa:Source</title>
<ellipse fill="none" stroke="#0000ff" cx="1897.7958" cy="-338" rx="46.2923" ry="18"/>
<text text-anchor="middle" x="1897.7958" y="-334.3" font-family="Times,serif" font-size="14.00" fill="#000000">oa:Source</text>
</g>
<!-- Rimg:MMNAT01_AF_NNM001001033_004.jpg&#45;&gt;Roa:Source -->
<g id="edge26" class="edge">
<title>Rimg:MMNAT01_AF_NNM001001033_004.jpg&#45;&gt;Roa:Source</title>
<path fill="none" stroke="#000000" d="M1372.0945,-403.1828C1439.2376,-391.4906 1534.1419,-375.7918 1617.7958,-365 1695.3111,-355.0001 1785.3371,-346.9511 1841.9373,-342.3219"/>
<polygon fill="#000000" stroke="#000000" points="1842.4218,-345.7942 1852.1063,-341.4976 1841.8562,-338.8171 1842.4218,-345.7942"/>
<text text-anchor="middle" x="1542.2958" y="-387.8" font-family="Times,serif" font-size="14.00" fill="#000000">rdf:type</text>
</g>
<!-- Rfoaf:Image -->
<g id="node27" class="node">
<title>Rfoaf:Image</title>
<ellipse fill="none" stroke="#0000ff" cx="1897.7958" cy="-284" rx="50.0912" ry="18"/>
<text text-anchor="middle" x="1897.7958" y="-280.3" font-family="Times,serif" font-size="14.00" fill="#000000">foaf:Image</text>
</g>
<!-- Rimg:MMNAT01_AF_NNM001001033_004.jpg&#45;&gt;Rfoaf:Image -->
<g id="edge27" class="edge">
<title>Rimg:MMNAT01_AF_NNM001001033_004.jpg&#45;&gt;Rfoaf:Image</title>
<path fill="none" stroke="#000000" d="M1331.7391,-401.5357C1372.2302,-386.881 1432.046,-365.7226 1484.7958,-349 1543.3981,-330.4221 1557.3936,-322.4422 1617.7958,-311 1692.7809,-296.7953 1780.5572,-289.8716 1837.5655,-286.6329"/>
<polygon fill="#000000" stroke="#000000" points="1838.0485,-290.1118 1847.8422,-286.0701 1837.6657,-283.1223 1838.0485,-290.1118"/>
<text text-anchor="middle" x="1542.2958" y="-352.8" font-family="Times,serif" font-size="14.00" fill="#000000">rdf:type</text>
</g>
</g>
</svg>
