<?xml version="1.0" encoding="UTF-8" standalone="no"?>
<!DOCTYPE svg PUBLIC "-//W3C//DTD SVG 1.1//EN"
 "http://www.w3.org/Graphics/SVG/1.1/DTD/svg11.dtd">
<!-- Generated by graphviz version 2.40.1 (20161225.0304)
 -->
<!-- Title: %3 Pages: 1 -->
<svg width="2163pt" height="864pt"
 viewBox="0.00 0.00 2163.10 863.50" xmlns="http://www.w3.org/2000/svg" xmlns:xlink="http://www.w3.org/1999/xlink">
<g id="graph0" class="graph" transform="scale(1 1) rotate(0) translate(4 859.5036)">
<title>%3</title>
<polygon fill="#ffffff" stroke="transparent" points="-4,4 -4,-859.5036 2159.0957,-859.5036 2159.0957,4 -4,4"/>
<text text-anchor="middle" x="1077.5479" y="-263.8" font-family="Times,serif" font-size="14.00" fill="#000000">Model:</text>
<text text-anchor="middle" x="1077.5479" y="-248.8" font-family="Times,serif" font-size="14.00" fill="#000000">(Unknown)</text>
<text text-anchor="middle" x="1077.5479" y="-217.8" font-family="Times,serif" font-size="14.00" fill="#000000">Namespaces:</text>
<text text-anchor="middle" x="1077.5479" y="-202.8" font-family="Times,serif" font-size="14.00" fill="#000000">dcmitype: http://purl.org/dc/dcmitype/</text>
<text text-anchor="middle" x="1077.5479" y="-187.8" font-family="Times,serif" font-size="14.00" fill="#000000">dcterms: http://purl.org/dc/terms/</text>
<text text-anchor="middle" x="1077.5479" y="-172.8" font-family="Times,serif" font-size="14.00" fill="#000000">dsw: http://purl.org/dsw/</text>
<text text-anchor="middle" x="1077.5479" y="-157.8" font-family="Times,serif" font-size="14.00" fill="#000000">dwc: http://rs.tdwg.org/dwc/terms/</text>
<text text-anchor="middle" x="1077.5479" y="-142.8" font-family="Times,serif" font-size="14.00" fill="#000000">dwciri: http://rs.tdwg.org/dwc/iri/</text>
<text text-anchor="middle" x="1077.5479" y="-127.8" font-family="Times,serif" font-size="14.00" fill="#000000">foaf: http://xmlns.com/foaf/0.1/</text>
<text text-anchor="middle" x="1077.5479" y="-112.8" font-family="Times,serif" font-size="14.00" fill="#000000">gbif: http://www.gbif.org/species/</text>
<text text-anchor="middle" x="1077.5479" y="-97.8" font-family="Times,serif" font-size="14.00" fill="#000000">img: http://localhost:8080/semanticAnnotator/files/</text>
<text text-anchor="middle" x="1077.5479" y="-82.8" font-family="Times,serif" font-size="14.00" fill="#000000">iso: http://iso639&#45;3.sil.org/code/</text>
<text text-anchor="middle" x="1077.5479" y="-67.8" font-family="Times,serif" font-size="14.00" fill="#000000">mf: http://www.w3.org/TR/media&#45;frags/</text>
<text text-anchor="middle" x="1077.5479" y="-52.8" font-family="Times,serif" font-size="14.00" fill="#000000">oa: http://www.w3.org/ns/oa#</text>
<text text-anchor="middle" x="1077.5479" y="-37.8" font-family="Times,serif" font-size="14.00" fill="#000000">obo: http://purl.obolibrary.org/obo/</text>
<text text-anchor="middle" x="1077.5479" y="-22.8" font-family="Times,serif" font-size="14.00" fill="#000000">orcid: http://orcid.org/</text>
<text text-anchor="middle" x="1077.5479" y="-7.8" font-family="Times,serif" font-size="14.00" fill="#000000">rdf: http://www.w3.org/1999/02/22&#45;rdf&#45;syntax&#45;ns#</text>
<!-- Rhttp://localhost:8080/rdf/nc/annotation/686c2d79&#45;e500&#45;42bf&#45;95bf&#45;1a9be249544f -->
<g id="node1" class="node">
<title>Rhttp://localhost:8080/rdf/nc/annotation/686c2d79&#45;e500&#45;42bf&#45;95bf&#45;1a9be249544f</title>
<ellipse fill="none" stroke="#0000ff" cx="294.4239" cy="-654.5036" rx="294.3478" ry="18"/>
<text text-anchor="middle" x="294.4239" y="-650.8036" font-family="Times,serif" font-size="14.00" fill="#000000">http://localhost:8080/rdf/nc/annotation/686c2d79&#45;e500&#45;42bf&#45;95bf&#45;1a9be249544f</text>
</g>
<!-- Roa:Annotation -->
<g id="node2" class="node">
<title>Roa:Annotation</title>
<ellipse fill="none" stroke="#0000ff" cx="823.3379" cy="-577.5036" rx="61.1893" ry="18"/>
<text text-anchor="middle" x="823.3379" y="-573.8036" font-family="Times,serif" font-size="14.00" fill="#000000">oa:Annotation</text>
</g>
<!-- Rhttp://localhost:8080/rdf/nc/annotation/686c2d79&#45;e500&#45;42bf&#45;95bf&#45;1a9be249544f&#45;&gt;Roa:Annotation -->
<g id="edge1" class="edge">
<title>Rhttp://localhost:8080/rdf/nc/annotation/686c2d79&#45;e500&#45;42bf&#45;95bf&#45;1a9be249544f&#45;&gt;Roa:Annotation</title>
<path fill="none" stroke="#000000" d="M408.5392,-637.8905C515.4543,-622.3257 671.4606,-599.6141 758.4945,-586.9436"/>
<polygon fill="#000000" stroke="#000000" points="759.1094,-590.3911 768.5008,-585.4869 758.1009,-583.4641 759.1094,-590.3911"/>
<text text-anchor="middle" x="650.8478" y="-610.3036" font-family="Times,serif" font-size="14.00" fill="#000000">rdf:type</text>
</g>
<!-- Rorcid:0000&#45;0002&#45;2146&#45;4803 -->
<g id="node3" class="node">
<title>Rorcid:0000&#45;0002&#45;2146&#45;4803</title>
<ellipse fill="none" stroke="#0000ff" cx="823.3379" cy="-827.5036" rx="110.4804" ry="18"/>
<text text-anchor="middle" x="823.3379" y="-823.8036" font-family="Times,serif" font-size="14.00" fill="#000000">orcid:0000&#45;0002&#45;2146&#45;4803</text>
</g>
<!-- Rhttp://localhost:8080/rdf/nc/annotation/686c2d79&#45;e500&#45;42bf&#45;95bf&#45;1a9be249544f&#45;&gt;Rorcid:0000&#45;0002&#45;2146&#45;4803 -->
<g id="edge2" class="edge">
<title>Rhttp://localhost:8080/rdf/nc/annotation/686c2d79&#45;e500&#45;42bf&#45;95bf&#45;1a9be249544f&#45;&gt;Rorcid:0000&#45;0002&#45;2146&#45;4803</title>
<path fill="none" stroke="#000000" d="M348.5413,-672.2046C448.3966,-704.8658 660.8438,-774.3542 764.2852,-808.1883"/>
<polygon fill="#000000" stroke="#000000" points="763.3553,-811.5666 773.9479,-811.3488 765.5315,-804.9134 763.3553,-811.5666"/>
<text text-anchor="middle" x="650.8478" y="-784.3036" font-family="Times,serif" font-size="14.00" fill="#000000">dcterms:creator</text>
</g>
<!-- L2021&#45;01&#45;12T14:23:11.646Z|Datatype: dcterms:W3CDTF -->
<g id="node4" class="node">
<title>L2021&#45;01&#45;12T14:23:11.646Z|Datatype: dcterms:W3CDTF</title>
<polygon fill="none" stroke="#000000" points="735.8379,-722.5036 735.8379,-768.5036 910.8379,-768.5036 910.8379,-722.5036 735.8379,-722.5036"/>
<text text-anchor="middle" x="823.3379" y="-753.3036" font-family="Times,serif" font-size="14.00" fill="#000000">2021&#45;01&#45;12T14:23:11.646Z</text>
<polyline fill="none" stroke="#000000" points="735.8379,-745.5036 910.8379,-745.5036 "/>
<text text-anchor="middle" x="823.3379" y="-730.3036" font-family="Times,serif" font-size="14.00" fill="#000000">Datatype: dcterms:W3CDTF</text>
</g>
<!-- Rhttp://localhost:8080/rdf/nc/annotation/686c2d79&#45;e500&#45;42bf&#45;95bf&#45;1a9be249544f&#45;&gt;L2021&#45;01&#45;12T14:23:11.646Z|Datatype: dcterms:W3CDTF -->
<g id="edge3" class="edge">
<title>Rhttp://localhost:8080/rdf/nc/annotation/686c2d79&#45;e500&#45;42bf&#45;95bf&#45;1a9be249544f&#45;&gt;L2021&#45;01&#45;12T14:23:11.646Z|Datatype: dcterms:W3CDTF</title>
<path fill="none" stroke="#000000" d="M393.2881,-671.5133C488.2961,-687.8594 631.0166,-712.4146 725.6339,-728.6936"/>
<polygon fill="#000000" stroke="#000000" points="725.0455,-732.1437 735.4942,-730.39 726.2325,-725.245 725.0455,-732.1437"/>
<text text-anchor="middle" x="650.8478" y="-724.3036" font-family="Times,serif" font-size="14.00" fill="#000000">dcterms:date</text>
</g>
<!-- B_:node1euqlam8lx210 -->
<g id="node5" class="node">
<title>B_:node1euqlam8lx210</title>
<ellipse fill="none" stroke="#00ff00" cx="823.3379" cy="-474.5036" rx="18" ry="18"/>
</g>
<!-- Rhttp://localhost:8080/rdf/nc/annotation/686c2d79&#45;e500&#45;42bf&#45;95bf&#45;1a9be249544f&#45;&gt;B_:node1euqlam8lx210 -->
<g id="edge4" class="edge">
<title>Rhttp://localhost:8080/rdf/nc/annotation/686c2d79&#45;e500&#45;42bf&#45;95bf&#45;1a9be249544f&#45;&gt;B_:node1euqlam8lx210</title>
<path fill="none" stroke="#000000" d="M346.5857,-636.7519C457.4173,-599.0337 713.0401,-512.0402 796.4688,-483.6477"/>
<polygon fill="#000000" stroke="#000000" points="797.6471,-486.9439 805.9863,-480.4087 795.3918,-480.3171 797.6471,-486.9439"/>
<text text-anchor="middle" x="650.8478" y="-546.3036" font-family="Times,serif" font-size="14.00" fill="#000000">oa:hasBody</text>
</g>
<!-- B_:node1euqlam8lx209 -->
<g id="node12" class="node">
<title>B_:node1euqlam8lx209</title>
<ellipse fill="none" stroke="#00ff00" cx="823.3379" cy="-685.5036" rx="18" ry="18"/>
</g>
<!-- Rhttp://localhost:8080/rdf/nc/annotation/686c2d79&#45;e500&#45;42bf&#45;95bf&#45;1a9be249544f&#45;&gt;B_:node1euqlam8lx209 -->
<g id="edge12" class="edge">
<title>Rhttp://localhost:8080/rdf/nc/annotation/686c2d79&#45;e500&#45;42bf&#45;95bf&#45;1a9be249544f&#45;&gt;B_:node1euqlam8lx209</title>
<path fill="none" stroke="#000000" d="M507.2672,-666.9785C617.642,-673.4476 740.4969,-680.6482 794.8362,-683.8331"/>
<polygon fill="#000000" stroke="#000000" points="794.8773,-687.3414 805.065,-684.4326 795.287,-680.3534 794.8773,-687.3414"/>
<text text-anchor="middle" x="650.8478" y="-680.3036" font-family="Times,serif" font-size="14.00" fill="#000000">oa:hasTarget</text>
</g>
<!-- Roa:describing -->
<g id="node19" class="node">
<title>Roa:describing</title>
<ellipse fill="none" stroke="#0000ff" cx="823.3379" cy="-631.5036" rx="57.6901" ry="18"/>
<text text-anchor="middle" x="823.3379" y="-627.8036" font-family="Times,serif" font-size="14.00" fill="#000000">oa:describing</text>
</g>
<!-- Rhttp://localhost:8080/rdf/nc/annotation/686c2d79&#45;e500&#45;42bf&#45;95bf&#45;1a9be249544f&#45;&gt;Roa:describing -->
<g id="edge20" class="edge">
<title>Rhttp://localhost:8080/rdf/nc/annotation/686c2d79&#45;e500&#45;42bf&#45;95bf&#45;1a9be249544f&#45;&gt;Roa:describing</title>
<path fill="none" stroke="#000000" d="M531.5333,-643.7979C556.956,-642.6741 582.4379,-641.5579 606.8478,-640.5036 656.776,-638.3471 713.1857,-636.0051 755.9041,-634.2509"/>
<polygon fill="#000000" stroke="#000000" points="756.0556,-637.7477 765.9037,-633.8407 755.7686,-630.7536 756.0556,-637.7477"/>
<text text-anchor="middle" x="650.8478" y="-644.3036" font-family="Times,serif" font-size="14.00" fill="#000000">oa:motivatedBy</text>
</g>
<!-- Rfoaf:Person -->
<g id="node20" class="node">
<title>Rfoaf:Person</title>
<ellipse fill="none" stroke="#0000ff" cx="1261.4619" cy="-837.5036" rx="51.1914" ry="18"/>
<text text-anchor="middle" x="1261.4619" y="-833.8036" font-family="Times,serif" font-size="14.00" fill="#000000">foaf:Person</text>
</g>
<!-- Rorcid:0000&#45;0002&#45;2146&#45;4803&#45;&gt;Rfoaf:Person -->
<g id="edge21" class="edge">
<title>Rorcid:0000&#45;0002&#45;2146&#45;4803&#45;&gt;Rfoaf:Person</title>
<path fill="none" stroke="#000000" d="M932.765,-830.0012C1017.1429,-831.9271 1130.7596,-834.5204 1199.9189,-836.0989"/>
<polygon fill="#000000" stroke="#000000" points="1200.1309,-839.6046 1210.2082,-836.3338 1200.2907,-832.6064 1200.1309,-839.6046"/>
<text text-anchor="middle" x="1006.3281" y="-836.3036" font-family="Times,serif" font-size="14.00" fill="#000000">rdf:type</text>
</g>
<!-- Rdwc:Taxon -->
<g id="node6" class="node">
<title>Rdwc:Taxon</title>
<ellipse fill="none" stroke="#0000ff" cx="1261.4619" cy="-334.5036" rx="50.0912" ry="18"/>
<text text-anchor="middle" x="1261.4619" y="-330.8036" font-family="Times,serif" font-size="14.00" fill="#000000">dwc:Taxon</text>
</g>
<!-- B_:node1euqlam8lx210&#45;&gt;Rdwc:Taxon -->
<g id="edge5" class="edge">
<title>B_:node1euqlam8lx210&#45;&gt;Rdwc:Taxon</title>
<path fill="none" stroke="#000000" d="M841.4842,-475.5702C866.0474,-475.9507 909.5864,-472.6822 933.8281,-447.5036 961.5164,-418.7453 921.9421,-385.9706 951.8281,-359.5036 1022.9696,-296.501 1142.8686,-308.3838 1210.702,-321.9127"/>
<polygon fill="#000000" stroke="#000000" points="1210.2198,-325.3873 1220.7233,-323.9993 1211.6468,-318.5343 1210.2198,-325.3873"/>
<text text-anchor="middle" x="1006.3281" y="-363.3036" font-family="Times,serif" font-size="14.00" fill="#000000">rdf:type</text>
</g>
<!-- Roa:TextualBody -->
<g id="node7" class="node">
<title>Roa:TextualBody</title>
<ellipse fill="none" stroke="#0000ff" cx="1261.4619" cy="-563.5036" rx="67.6881" ry="18"/>
<text text-anchor="middle" x="1261.4619" y="-559.8036" font-family="Times,serif" font-size="14.00" fill="#000000">oa:TextualBody</text>
</g>
<!-- B_:node1euqlam8lx210&#45;&gt;Roa:TextualBody -->
<g id="edge6" class="edge">
<title>B_:node1euqlam8lx210&#45;&gt;Roa:TextualBody</title>
<path fill="none" stroke="#000000" d="M840.6689,-480.009C865.2347,-487.6947 911.6663,-501.7872 951.8281,-511.5036 1032.5027,-531.0213 1126.7546,-545.718 1189.8886,-554.4235"/>
<polygon fill="#000000" stroke="#000000" points="1189.7542,-557.9375 1200.1356,-555.8215 1190.7005,-551.0017 1189.7542,-557.9375"/>
<text text-anchor="middle" x="1006.3281" y="-536.3036" font-family="Times,serif" font-size="14.00" fill="#000000">rdf:type</text>
</g>
<!-- Ltext/plain -->
<g id="node8" class="node">
<title>Ltext/plain</title>
<polygon fill="none" stroke="#000000" points="1227.4619,-490.5036 1227.4619,-526.5036 1295.4619,-526.5036 1295.4619,-490.5036 1227.4619,-490.5036"/>
<text text-anchor="middle" x="1261.4619" y="-504.8036" font-family="Times,serif" font-size="14.00" fill="#000000">text/plain</text>
</g>
<!-- B_:node1euqlam8lx210&#45;&gt;Ltext/plain -->
<g id="edge7" class="edge">
<title>B_:node1euqlam8lx210&#45;&gt;Ltext/plain</title>
<path fill="none" stroke="#000000" d="M841.6316,-476.1349C866.547,-478.3418 912.549,-482.3635 951.8281,-485.5036 1046.1099,-493.0408 1156.6101,-501.0509 1216.8039,-505.3448"/>
<polygon fill="#000000" stroke="#000000" points="1216.8645,-508.8579 1227.0879,-506.0772 1217.3618,-501.8756 1216.8645,-508.8579"/>
<text text-anchor="middle" x="1006.3281" y="-496.3036" font-family="Times,serif" font-size="14.00" fill="#000000">dcterms:format</text>
</g>
<!-- Riso:lat -->
<g id="node9" class="node">
<title>Riso:lat</title>
<ellipse fill="none" stroke="#0000ff" cx="1261.4619" cy="-388.5036" rx="32.4942" ry="18"/>
<text text-anchor="middle" x="1261.4619" y="-384.8036" font-family="Times,serif" font-size="14.00" fill="#000000">iso:lat</text>
</g>
<!-- B_:node1euqlam8lx210&#45;&gt;Riso:lat -->
<g id="edge8" class="edge">
<title>B_:node1euqlam8lx210&#45;&gt;Riso:lat</title>
<path fill="none" stroke="#000000" d="M841.3717,-475.0254C865.4066,-474.7379 907.9118,-470.6597 933.8281,-447.5036 951.1289,-432.0454 933.0203,-412.088 951.8281,-398.5036 993.4179,-368.4644 1144.9774,-377.6434 1219.5058,-384.2705"/>
<polygon fill="#000000" stroke="#000000" points="1219.214,-387.7583 1229.4914,-385.1843 1219.852,-380.7875 1219.214,-387.7583"/>
<text text-anchor="middle" x="1006.3281" y="-402.3036" font-family="Times,serif" font-size="14.00" fill="#000000">dcterms:language</text>
</g>
<!-- Rimg:MMNAT01_AF_NNM001001033_003.jpg -->
<g id="node10" class="node">
<title>Rimg:MMNAT01_AF_NNM001001033_003.jpg</title>
<ellipse fill="none" stroke="#0000ff" cx="1261.4619" cy="-617.5036" rx="182.7677" ry="18"/>
<text text-anchor="middle" x="1261.4619" y="-613.8036" font-family="Times,serif" font-size="14.00" fill="#000000">img:MMNAT01_AF_NNM001001033_003.jpg</text>
</g>
<!-- B_:node1euqlam8lx210&#45;&gt;Rimg:MMNAT01_AF_NNM001001033_003.jpg -->
<g id="edge9" class="edge">
<title>B_:node1euqlam8lx210&#45;&gt;Rimg:MMNAT01_AF_NNM001001033_003.jpg</title>
<path fill="none" stroke="#000000" d="M838.1178,-484.9939C861.3744,-501.116 908.352,-532.145 951.8281,-551.5036 1008.1948,-576.6019 1074.6673,-592.3798 1131.5435,-602.1852"/>
<polygon fill="#000000" stroke="#000000" points="1131.2386,-605.6829 1141.6802,-603.8875 1132.398,-598.7796 1131.2386,-605.6829"/>
<text text-anchor="middle" x="1006.3281" y="-590.3036" font-family="Times,serif" font-size="14.00" fill="#000000">dsw:derivedFrom</text>
</g>
<!-- LPteropus minimus|Language: lat -->
<g id="node11" class="node">
<title>LPteropus minimus|Language: lat</title>
<polygon fill="none" stroke="#000000" points="1203.4619,-425.5036 1203.4619,-471.5036 1319.4619,-471.5036 1319.4619,-425.5036 1203.4619,-425.5036"/>
<text text-anchor="middle" x="1261.4619" y="-456.3036" font-family="Times,serif" font-size="14.00" fill="#000000">Pteropus minimus</text>
<polyline fill="none" stroke="#000000" points="1203.4619,-448.5036 1319.4619,-448.5036 "/>
<text text-anchor="middle" x="1261.4619" y="-433.3036" font-family="Times,serif" font-size="14.00" fill="#000000">Language: lat</text>
</g>
<!-- B_:node1euqlam8lx210&#45;&gt;LPteropus minimus|Language: lat -->
<g id="edge10" class="edge">
<title>B_:node1euqlam8lx210&#45;&gt;LPteropus minimus|Language: lat</title>
<path fill="none" stroke="#000000" d="M841.3427,-472.4656C863.8844,-469.394 903.2502,-462.2878 933.8281,-447.5036 942.9525,-443.092 942.2418,-436.7927 951.8281,-433.5036 1031.4367,-406.1893 1129.3288,-417.8437 1193.4593,-431.0497"/>
<polygon fill="#000000" stroke="#000000" points="1192.9444,-434.5184 1203.454,-433.1767 1194.4016,-427.6718 1192.9444,-434.5184"/>
<text text-anchor="middle" x="1006.3281" y="-437.3036" font-family="Times,serif" font-size="14.00" fill="#000000">dwc:scientificName</text>
</g>
<!-- B_:node1euqlam8lx210&#45;&gt;LPteropus minimus|Language: lat -->
<g id="edge11" class="edge">
<title>B_:node1euqlam8lx210&#45;&gt;LPteropus minimus|Language: lat</title>
<path fill="none" stroke="#000000" d="M841.3297,-473.4359C900.3126,-469.9356 1089.9417,-458.6823 1193.0894,-452.5611"/>
<polygon fill="#000000" stroke="#000000" points="1193.323,-456.0535 1203.098,-451.9671 1192.9082,-449.0658 1193.323,-456.0535"/>
<text text-anchor="middle" x="1006.3281" y="-470.3036" font-family="Times,serif" font-size="14.00" fill="#000000">rdf:value</text>
</g>
<!-- Rdcmitype:StillImage -->
<g id="node21" class="node">
<title>Rdcmitype:StillImage</title>
<ellipse fill="none" stroke="#0000ff" cx="1875.0957" cy="-510.5036" rx="83.3857" ry="18"/>
<text text-anchor="middle" x="1875.0957" y="-506.8036" font-family="Times,serif" font-size="14.00" fill="#000000">dcmitype:StillImage</text>
</g>
<!-- Rimg:MMNAT01_AF_NNM001001033_003.jpg&#45;&gt;Rdcmitype:StillImage -->
<g id="edge22" class="edge">
<title>Rimg:MMNAT01_AF_NNM001001033_003.jpg&#45;&gt;Rdcmitype:StillImage</title>
<path fill="none" stroke="#000000" d="M1405.3107,-606.368C1418.8653,-602.3507 1432.0303,-597.1652 1444.0957,-590.5036 1454.8572,-584.562 1451.6104,-575.9199 1462.0957,-569.5036 1513.9548,-537.7698 1535.1347,-547.5571 1595.0957,-537.5036 1658.008,-526.9553 1729.6153,-520.142 1784.666,-515.9985"/>
<polygon fill="#000000" stroke="#000000" points="1785.031,-519.4811 1794.7467,-515.2555 1784.5165,-512.5001 1785.031,-519.4811"/>
<text text-anchor="middle" x="1519.5957" y="-573.3036" font-family="Times,serif" font-size="14.00" fill="#000000">rdf:type</text>
</g>
<!-- Rdsw:Token -->
<g id="node22" class="node">
<title>Rdsw:Token</title>
<ellipse fill="none" stroke="#0000ff" cx="1875.0957" cy="-456.5036" rx="50.0912" ry="18"/>
<text text-anchor="middle" x="1875.0957" y="-452.8036" font-family="Times,serif" font-size="14.00" fill="#000000">dsw:Token</text>
</g>
<!-- Rimg:MMNAT01_AF_NNM001001033_003.jpg&#45;&gt;Rdsw:Token -->
<g id="edge23" class="edge">
<title>Rimg:MMNAT01_AF_NNM001001033_003.jpg&#45;&gt;Rdsw:Token</title>
<path fill="none" stroke="#000000" d="M1417.4472,-608.05C1427.0966,-603.4536 1436.1156,-597.6875 1444.0957,-590.5036 1467.97,-569.0113 1439.6054,-543.4402 1462.0957,-520.5036 1556.5264,-424.1994 1731.5805,-434.0092 1820.3812,-446.6056"/>
<polygon fill="#000000" stroke="#000000" points="1820.1078,-450.1032 1830.5131,-448.1085 1821.1349,-443.179 1820.1078,-450.1032"/>
<text text-anchor="middle" x="1519.5957" y="-524.3036" font-family="Times,serif" font-size="14.00" fill="#000000">rdf:type</text>
</g>
<!-- Rdwc:HumanObservation -->
<g id="node23" class="node">
<title>Rdwc:HumanObservation</title>
<ellipse fill="none" stroke="#0000ff" cx="1875.0957" cy="-672.5036" rx="96.6831" ry="18"/>
<text text-anchor="middle" x="1875.0957" y="-668.8036" font-family="Times,serif" font-size="14.00" fill="#000000">dwc:HumanObservation</text>
</g>
<!-- Rimg:MMNAT01_AF_NNM001001033_003.jpg&#45;&gt;Rdwc:HumanObservation -->
<g id="edge24" class="edge">
<title>Rimg:MMNAT01_AF_NNM001001033_003.jpg&#45;&gt;Rdwc:HumanObservation</title>
<path fill="none" stroke="#000000" d="M1392.5761,-630.0622C1415.7353,-632.24 1439.6211,-634.4599 1462.0957,-636.5036 1569.717,-646.2898 1693.1658,-656.9804 1776.8551,-664.1481"/>
<polygon fill="#000000" stroke="#000000" points="1776.5982,-667.6388 1786.8603,-665.0044 1777.1952,-660.6643 1776.5982,-667.6388"/>
<text text-anchor="middle" x="1519.5957" y="-650.3036" font-family="Times,serif" font-size="14.00" fill="#000000">rdf:type</text>
</g>
<!-- Roa:Source -->
<g id="node24" class="node">
<title>Roa:Source</title>
<ellipse fill="none" stroke="#0000ff" cx="1875.0957" cy="-618.5036" rx="46.2923" ry="18"/>
<text text-anchor="middle" x="1875.0957" y="-614.8036" font-family="Times,serif" font-size="14.00" fill="#000000">oa:Source</text>
</g>
<!-- Rimg:MMNAT01_AF_NNM001001033_003.jpg&#45;&gt;Roa:Source -->
<g id="edge25" class="edge">
<title>Rimg:MMNAT01_AF_NNM001001033_003.jpg&#45;&gt;Roa:Source</title>
<path fill="none" stroke="#000000" d="M1444.3259,-617.8016C1572.1591,-618.0099 1734.5017,-618.2745 1818.6985,-618.4117"/>
<polygon fill="#000000" stroke="#000000" points="1818.8121,-621.9118 1828.8178,-618.4282 1818.8235,-614.9118 1818.8121,-621.9118"/>
<text text-anchor="middle" x="1519.5957" y="-621.3036" font-family="Times,serif" font-size="14.00" fill="#000000">rdf:type</text>
</g>
<!-- Rfoaf:Image -->
<g id="node25" class="node">
<title>Rfoaf:Image</title>
<ellipse fill="none" stroke="#0000ff" cx="1875.0957" cy="-564.5036" rx="50.0912" ry="18"/>
<text text-anchor="middle" x="1875.0957" y="-560.8036" font-family="Times,serif" font-size="14.00" fill="#000000">foaf:Image</text>
</g>
<!-- Rimg:MMNAT01_AF_NNM001001033_003.jpg&#45;&gt;Rfoaf:Image -->
<g id="edge26" class="edge">
<title>Rimg:MMNAT01_AF_NNM001001033_003.jpg&#45;&gt;Rfoaf:Image</title>
<path fill="none" stroke="#000000" d="M1392.0295,-604.9047C1415.3576,-602.7204 1439.442,-600.5087 1462.0957,-598.5036 1587.9483,-587.3645 1735.4863,-575.5081 1815.7323,-569.1604"/>
<polygon fill="#000000" stroke="#000000" points="1816.4327,-572.6161 1826.126,-568.3393 1815.8814,-565.6378 1816.4327,-572.6161"/>
<text text-anchor="middle" x="1519.5957" y="-602.3036" font-family="Times,serif" font-size="14.00" fill="#000000">rdf:type</text>
</g>
<!-- B_:node1euqlam8lx209&#45;&gt;Rimg:MMNAT01_AF_NNM001001033_003.jpg -->
<g id="edge19" class="edge">
<title>B_:node1euqlam8lx209&#45;&gt;Rimg:MMNAT01_AF_NNM001001033_003.jpg</title>
<path fill="none" stroke="#000000" d="M841.1461,-681.5195C865.8883,-676.0714 912.106,-666.2093 951.8281,-659.5036 1012.0035,-649.3451 1079.0839,-640.0043 1135.3807,-632.7241"/>
<polygon fill="#000000" stroke="#000000" points="1135.9289,-636.1825 1145.4006,-631.4353 1135.0358,-629.2397 1135.9289,-636.1825"/>
<text text-anchor="middle" x="1006.3281" y="-663.3036" font-family="Times,serif" font-size="14.00" fill="#000000">oa:hasSource</text>
</g>
<!-- Roa:Target -->
<g id="node13" class="node">
<title>Roa:Target</title>
<ellipse fill="none" stroke="#0000ff" cx="1261.4619" cy="-673.5036" rx="44.393" ry="18"/>
<text text-anchor="middle" x="1261.4619" y="-669.8036" font-family="Times,serif" font-size="14.00" fill="#000000">oa:Target</text>
</g>
<!-- B_:node1euqlam8lx209&#45;&gt;Roa:Target -->
<g id="edge13" class="edge">
<title>B_:node1euqlam8lx209&#45;&gt;Roa:Target</title>
<path fill="none" stroke="#000000" d="M841.6058,-685.0033C903.7023,-683.3025 1108.2614,-677.6997 1207.0803,-674.9931"/>
<polygon fill="#000000" stroke="#000000" points="1207.263,-678.4895 1217.1634,-674.7169 1207.0713,-671.4921 1207.263,-678.4895"/>
<text text-anchor="middle" x="1006.3281" y="-685.3036" font-family="Times,serif" font-size="14.00" fill="#000000">rdf:type</text>
</g>
<!-- Limage/jpeg -->
<g id="node14" class="node">
<title>Limage/jpeg</title>
<polygon fill="none" stroke="#000000" points="1222.9619,-764.5036 1222.9619,-800.5036 1299.9619,-800.5036 1299.9619,-764.5036 1222.9619,-764.5036"/>
<text text-anchor="middle" x="1261.4619" y="-778.8036" font-family="Times,serif" font-size="14.00" fill="#000000">image/jpeg</text>
</g>
<!-- B_:node1euqlam8lx209&#45;&gt;Limage/jpeg -->
<g id="edge14" class="edge">
<title>B_:node1euqlam8lx209&#45;&gt;Limage/jpeg</title>
<path fill="none" stroke="#000000" d="M841.2579,-687.918C863.7122,-691.4139 902.9878,-699.1035 933.8281,-713.5036 942.7697,-717.6786 942.8225,-722.4685 951.8281,-726.5036 1038.2472,-765.2249 1149.6052,-777.1837 1212.5019,-780.8696"/>
<polygon fill="#000000" stroke="#000000" points="1212.369,-784.3674 1222.5431,-781.4114 1212.7463,-777.3776 1212.369,-784.3674"/>
<text text-anchor="middle" x="1006.3281" y="-763.3036" font-family="Times,serif" font-size="14.00" fill="#000000">dcterms:format</text>
</g>
<!-- B_:node1euqlam8lx212 -->
<g id="node15" class="node">
<title>B_:node1euqlam8lx212</title>
<ellipse fill="none" stroke="#00ff00" cx="1261.4619" cy="-727.5036" rx="18" ry="18"/>
</g>
<!-- B_:node1euqlam8lx209&#45;&gt;B_:node1euqlam8lx212 -->
<g id="edge15" class="edge">
<title>B_:node1euqlam8lx209&#45;&gt;B_:node1euqlam8lx212</title>
<path fill="none" stroke="#000000" d="M841.3297,-687.2284C909.2045,-693.735 1150.0852,-716.8267 1233.0987,-724.7846"/>
<polygon fill="#000000" stroke="#000000" points="1232.7887,-728.2708 1243.0771,-725.7412 1233.4567,-721.3028 1232.7887,-728.2708"/>
<text text-anchor="middle" x="1006.3281" y="-711.3036" font-family="Times,serif" font-size="14.00" fill="#000000">oa:hasSelector</text>
</g>
<!-- Roa:FragmentSelector -->
<g id="node16" class="node">
<title>Roa:FragmentSelector</title>
<ellipse fill="none" stroke="#0000ff" cx="1875.0957" cy="-780.5036" rx="84.485" ry="18"/>
<text text-anchor="middle" x="1875.0957" y="-776.8036" font-family="Times,serif" font-size="14.00" fill="#000000">oa:FragmentSelector</text>
</g>
<!-- B_:node1euqlam8lx212&#45;&gt;Roa:FragmentSelector -->
<g id="edge16" class="edge">
<title>B_:node1euqlam8lx212&#45;&gt;Roa:FragmentSelector</title>
<path fill="none" stroke="#000000" d="M1279.4441,-729.1468C1314.5514,-732.3484 1394.6806,-739.623 1462.0957,-745.5036 1573.8632,-755.2531 1702.6806,-766.1093 1786.3233,-773.1078"/>
<polygon fill="#000000" stroke="#000000" points="1786.0385,-776.5962 1796.2955,-773.9419 1786.622,-769.6205 1786.0385,-776.5962"/>
<text text-anchor="middle" x="1519.5957" y="-758.3036" font-family="Times,serif" font-size="14.00" fill="#000000">rdf:type</text>
</g>
<!-- Rmf: -->
<g id="node17" class="node">
<title>Rmf:</title>
<ellipse fill="none" stroke="#0000ff" cx="1875.0957" cy="-726.5036" rx="27" ry="18"/>
<text text-anchor="middle" x="1875.0957" y="-722.8036" font-family="Times,serif" font-size="14.00" fill="#000000">mf:</text>
</g>
<!-- B_:node1euqlam8lx212&#45;&gt;Rmf: -->
<g id="edge17" class="edge">
<title>B_:node1euqlam8lx212&#45;&gt;Rmf:</title>
<path fill="none" stroke="#000000" d="M1279.4945,-727.4742C1363.8664,-727.3367 1720.4716,-726.7556 1837.6277,-726.5647"/>
<polygon fill="#000000" stroke="#000000" points="1837.8901,-730.0643 1847.8843,-726.5479 1837.8786,-723.0643 1837.8901,-730.0643"/>
<text text-anchor="middle" x="1519.5957" y="-730.3036" font-family="Times,serif" font-size="14.00" fill="#000000">dcterms:conformsTo</text>
</g>
<!-- Lxywh=0.5530314055917275,0.3586725350259047,0.07278820375335127,0.018716966679433122 -->
<g id="node18" class="node">
<title>Lxywh=0.5530314055917275,0.3586725350259047,0.07278820375335127,0.018716966679433122</title>
<polygon fill="none" stroke="#000000" points="1595.0957,-817.5036 1595.0957,-853.5036 2155.0957,-853.5036 2155.0957,-817.5036 1595.0957,-817.5036"/>
<text text-anchor="middle" x="1875.0957" y="-831.8036" font-family="Times,serif" font-size="14.00" fill="#000000">xywh=0.5530314055917275,0.3586725350259047,0.07278820375335127,0.018716966679433122</text>
</g>
<!-- B_:node1euqlam8lx212&#45;&gt;Lxywh=0.5530314055917275,0.3586725350259047,0.07278820375335127,0.018716966679433122 -->
<g id="edge18" class="edge">
<title>B_:node1euqlam8lx212&#45;&gt;Lxywh=0.5530314055917275,0.3586725350259047,0.07278820375335127,0.018716966679433122</title>
<path fill="none" stroke="#000000" d="M1279.6962,-726.6614C1313.8915,-725.8411 1389.1503,-727.6786 1444.0957,-755.5036 1454.189,-760.6149 1452.2654,-767.9033 1462.0957,-773.5036 1515.1086,-803.7048 1535.0153,-796.8825 1595.0957,-807.5036 1613.3259,-810.7264 1632.2942,-813.6085 1651.3828,-816.1804"/>
<polygon fill="#000000" stroke="#000000" points="1651.0008,-819.6602 1661.3725,-817.4971 1651.9157,-812.7202 1651.0008,-819.6602"/>
<text text-anchor="middle" x="1519.5957" y="-807.3036" font-family="Times,serif" font-size="14.00" fill="#000000">rdf:value</text>
</g>
<!-- Rgbif:9180402 -->
<g id="node26" class="node">
<title>Rgbif:9180402</title>
<ellipse fill="none" stroke="#0000ff" cx="294.4239" cy="-420.5036" rx="57.6901" ry="18"/>
<text text-anchor="middle" x="294.4239" y="-416.8036" font-family="Times,serif" font-size="14.00" fill="#000000">gbif:9180402</text>
</g>
<!-- Rgbif:9180402&#45;&gt;B_:node1euqlam8lx210 -->
<g id="edge28" class="edge">
<title>Rgbif:9180402&#45;&gt;B_:node1euqlam8lx210</title>
<path fill="none" stroke="#000000" d="M349.5301,-426.1297C461.3128,-437.5423 711.2283,-463.0577 795.2021,-471.631"/>
<polygon fill="#000000" stroke="#000000" points="794.9587,-475.1243 805.2625,-472.6582 795.6697,-468.1605 794.9587,-475.1243"/>
<text text-anchor="middle" x="650.8478" y="-463.3036" font-family="Times,serif" font-size="14.00" fill="#000000">dwciri:toTaxon</text>
</g>
<!-- Rdwc:Identification -->
<g id="node27" class="node">
<title>Rdwc:Identification</title>
<ellipse fill="none" stroke="#0000ff" cx="823.3379" cy="-420.5036" rx="75.2868" ry="18"/>
<text text-anchor="middle" x="823.3379" y="-416.8036" font-family="Times,serif" font-size="14.00" fill="#000000">dwc:Identification</text>
</g>
<!-- Rgbif:9180402&#45;&gt;Rdwc:Identification -->
<g id="edge27" class="edge">
<title>Rgbif:9180402&#45;&gt;Rdwc:Identification</title>
<path fill="none" stroke="#000000" d="M352.2866,-420.5036C445.3789,-420.5036 628.915,-420.5036 737.3636,-420.5036"/>
<polygon fill="#000000" stroke="#000000" points="737.6187,-424.0037 747.6187,-420.5036 737.6187,-417.0037 737.6187,-424.0037"/>
<text text-anchor="middle" x="650.8478" y="-424.3036" font-family="Times,serif" font-size="14.00" fill="#000000">rdf:type</text>
</g>
<!-- Robo:TAXRANK_0000006 -->
<g id="node28" class="node">
<title>Robo:TAXRANK_0000006</title>
<ellipse fill="none" stroke="#0000ff" cx="823.3379" cy="-366.5036" rx="104.7816" ry="18"/>
<text text-anchor="middle" x="823.3379" y="-362.8036" font-family="Times,serif" font-size="14.00" fill="#000000">obo:TAXRANK_0000006</text>
</g>
<!-- Rgbif:9180402&#45;&gt;Robo:TAXRANK_0000006 -->
<g id="edge29" class="edge">
<title>Rgbif:9180402&#45;&gt;Robo:TAXRANK_0000006</title>
<path fill="none" stroke="#000000" d="M349.5301,-414.8775C437.7923,-405.8663 612.1731,-388.0627 722.9868,-376.749"/>
<polygon fill="#000000" stroke="#000000" points="723.582,-380.2066 733.1747,-375.7089 722.8709,-373.2428 723.582,-380.2066"/>
<text text-anchor="middle" x="650.8478" y="-391.3036" font-family="Times,serif" font-size="14.00" fill="#000000">dwc:taxonRank</text>
</g>
</g>
</svg>
