<?xml version="1.0" encoding="UTF-8" standalone="no"?>
<!DOCTYPE svg PUBLIC "-//W3C//DTD SVG 1.1//EN"
 "http://www.w3.org/Graphics/SVG/1.1/DTD/svg11.dtd">
<!-- Generated by graphviz version 2.40.1 (20161225.0304)
 -->
<!-- Title: %3 Pages: 1 -->
<svg width="2199pt" height="1016pt"
 viewBox="0.00 0.00 2199.30 1015.50" xmlns="http://www.w3.org/2000/svg" xmlns:xlink="http://www.w3.org/1999/xlink">
<g id="graph0" class="graph" transform="scale(1 1) rotate(0) translate(4 1011.5)">
<title>%3</title>
<polygon fill="#ffffff" stroke="transparent" points="-4,4 -4,-1011.5 2195.2953,-1011.5 2195.2953,4 -4,4"/>
<text text-anchor="middle" x="1095.6476" y="-248.8" font-family="Times,serif" font-size="14.00" fill="#000000">Model:</text>
<text text-anchor="middle" x="1095.6476" y="-233.8" font-family="Times,serif" font-size="14.00" fill="#000000">(Unknown)</text>
<text text-anchor="middle" x="1095.6476" y="-202.8" font-family="Times,serif" font-size="14.00" fill="#000000">Namespaces:</text>
<text text-anchor="middle" x="1095.6476" y="-187.8" font-family="Times,serif" font-size="14.00" fill="#000000">dcmitype: http://purl.org/dc/dcmitype/</text>
<text text-anchor="middle" x="1095.6476" y="-172.8" font-family="Times,serif" font-size="14.00" fill="#000000">dcterms: http://purl.org/dc/terms/</text>
<text text-anchor="middle" x="1095.6476" y="-157.8" font-family="Times,serif" font-size="14.00" fill="#000000">dsw: http://purl.org/dsw/</text>
<text text-anchor="middle" x="1095.6476" y="-142.8" font-family="Times,serif" font-size="14.00" fill="#000000">dwc: http://rs.tdwg.org/dwc/terms/</text>
<text text-anchor="middle" x="1095.6476" y="-127.8" font-family="Times,serif" font-size="14.00" fill="#000000">dwciri: http://rs.tdwg.org/dwc/iri/</text>
<text text-anchor="middle" x="1095.6476" y="-112.8" font-family="Times,serif" font-size="14.00" fill="#000000">foaf: http://xmlns.com/foaf/0.1/</text>
<text text-anchor="middle" x="1095.6476" y="-97.8" font-family="Times,serif" font-size="14.00" fill="#000000">img: http://localhost:8080/semanticAnnotator/files/</text>
<text text-anchor="middle" x="1095.6476" y="-82.8" font-family="Times,serif" font-size="14.00" fill="#000000">iso: http://iso639&#45;3.sil.org/code/</text>
<text text-anchor="middle" x="1095.6476" y="-67.8" font-family="Times,serif" font-size="14.00" fill="#000000">mf: http://www.w3.org/TR/media&#45;frags/</text>
<text text-anchor="middle" x="1095.6476" y="-52.8" font-family="Times,serif" font-size="14.00" fill="#000000">oa: http://www.w3.org/ns/oa#</text>
<text text-anchor="middle" x="1095.6476" y="-37.8" font-family="Times,serif" font-size="14.00" fill="#000000">obo: http://purl.obolibrary.org/obo/</text>
<text text-anchor="middle" x="1095.6476" y="-22.8" font-family="Times,serif" font-size="14.00" fill="#000000">orcid: http://orcid.org/</text>
<text text-anchor="middle" x="1095.6476" y="-7.8" font-family="Times,serif" font-size="14.00" fill="#000000">rdf: http://www.w3.org/1999/02/22&#45;rdf&#45;syntax&#45;ns#</text>
<!-- Rhttp://localhost:8080/rdf/nc/annotation/f58aa226&#45;1d78&#45;4bd9&#45;9d10&#45;abcd2a34dddd -->
<g id="node1" class="node">
<title>Rhttp://localhost:8080/rdf/nc/annotation/f58aa226&#45;1d78&#45;4bd9&#45;9d10&#45;abcd2a34dddd</title>
<ellipse fill="none" stroke="#0000ff" cx="297.0236" cy="-762.5" rx="297.0473" ry="18"/>
<text text-anchor="middle" x="297.0236" y="-758.8" font-family="Times,serif" font-size="14.00" fill="#000000">http://localhost:8080/rdf/nc/annotation/f58aa226&#45;1d78&#45;4bd9&#45;9d10&#45;abcd2a34dddd</text>
</g>
<!-- Roa:Annotation -->
<g id="node2" class="node">
<title>Roa:Annotation</title>
<ellipse fill="none" stroke="#0000ff" cx="828.5375" cy="-895.5" rx="61.1893" ry="18"/>
<text text-anchor="middle" x="828.5375" y="-891.8" font-family="Times,serif" font-size="14.00" fill="#000000">oa:Annotation</text>
</g>
<!-- Rhttp://localhost:8080/rdf/nc/annotation/f58aa226&#45;1d78&#45;4bd9&#45;9d10&#45;abcd2a34dddd&#45;&gt;Roa:Annotation -->
<g id="edge1" class="edge">
<title>Rhttp://localhost:8080/rdf/nc/annotation/f58aa226&#45;1d78&#45;4bd9&#45;9d10&#45;abcd2a34dddd&#45;&gt;Roa:Annotation</title>
<path fill="none" stroke="#000000" d="M366.2726,-780.0919C449.6763,-801.2434 594.0443,-837.7394 718.0473,-868.5 735.3505,-872.7923 754.191,-877.4151 771.3325,-881.6015"/>
<polygon fill="#000000" stroke="#000000" points="770.6597,-885.04 781.2044,-884.0102 772.3191,-878.2395 770.6597,-885.04"/>
<text text-anchor="middle" x="656.0473" y="-866.3" font-family="Times,serif" font-size="14.00" fill="#000000">rdf:type</text>
</g>
<!-- Rorcid:0000&#45;0002&#45;2146&#45;4803 -->
<g id="node3" class="node">
<title>Rorcid:0000&#45;0002&#45;2146&#45;4803</title>
<ellipse fill="none" stroke="#0000ff" cx="828.5375" cy="-841.5" rx="110.4804" ry="18"/>
<text text-anchor="middle" x="828.5375" y="-837.8" font-family="Times,serif" font-size="14.00" fill="#000000">orcid:0000&#45;0002&#45;2146&#45;4803</text>
</g>
<!-- Rhttp://localhost:8080/rdf/nc/annotation/f58aa226&#45;1d78&#45;4bd9&#45;9d10&#45;abcd2a34dddd&#45;&gt;Rorcid:0000&#45;0002&#45;2146&#45;4803 -->
<g id="edge2" class="edge">
<title>Rhttp://localhost:8080/rdf/nc/annotation/f58aa226&#45;1d78&#45;4bd9&#45;9d10&#45;abcd2a34dddd&#45;&gt;Rorcid:0000&#45;0002&#45;2146&#45;4803</title>
<path fill="none" stroke="#000000" d="M409.4192,-779.2056C506.7616,-793.6738 645.8371,-814.3449 736.6464,-827.842"/>
<polygon fill="#000000" stroke="#000000" points="736.2448,-831.3207 746.6507,-829.329 737.274,-824.3968 736.2448,-831.3207"/>
<text text-anchor="middle" x="656.0473" y="-823.3" font-family="Times,serif" font-size="14.00" fill="#000000">dcterms:creator</text>
</g>
<!-- L2021&#45;01&#45;12T14:23:11.646Z|Datatype: dcterms:W3CDTF -->
<g id="node4" class="node">
<title>L2021&#45;01&#45;12T14:23:11.646Z|Datatype: dcterms:W3CDTF</title>
<polygon fill="none" stroke="#000000" points="741.0375,-758.5 741.0375,-804.5 916.0375,-804.5 916.0375,-758.5 741.0375,-758.5"/>
<text text-anchor="middle" x="828.5375" y="-789.3" font-family="Times,serif" font-size="14.00" fill="#000000">2021&#45;01&#45;12T14:23:11.646Z</text>
<polyline fill="none" stroke="#000000" points="741.0375,-781.5 916.0375,-781.5 "/>
<text text-anchor="middle" x="828.5375" y="-766.3" font-family="Times,serif" font-size="14.00" fill="#000000">Datatype: dcterms:W3CDTF</text>
</g>
<!-- Rhttp://localhost:8080/rdf/nc/annotation/f58aa226&#45;1d78&#45;4bd9&#45;9d10&#45;abcd2a34dddd&#45;&gt;L2021&#45;01&#45;12T14:23:11.646Z|Datatype: dcterms:W3CDTF -->
<g id="edge3" class="edge">
<title>Rhttp://localhost:8080/rdf/nc/annotation/f58aa226&#45;1d78&#45;4bd9&#45;9d10&#45;abcd2a34dddd&#45;&gt;L2021&#45;01&#45;12T14:23:11.646Z|Datatype: dcterms:W3CDTF</title>
<path fill="none" stroke="#000000" d="M553.0502,-771.6522C616.3139,-773.9137 680.3138,-776.2015 730.6841,-778.002"/>
<polygon fill="#000000" stroke="#000000" points="730.7772,-781.5075 740.8959,-778.3671 731.0274,-774.512 730.7772,-781.5075"/>
<text text-anchor="middle" x="656.0473" y="-780.3" font-family="Times,serif" font-size="14.00" fill="#000000">dcterms:date</text>
</g>
<!-- B_:node1evflep6ex2 -->
<g id="node5" class="node">
<title>B_:node1evflep6ex2</title>
<ellipse fill="none" stroke="#00ff00" cx="828.5375" cy="-721.5" rx="18" ry="18"/>
</g>
<!-- Rhttp://localhost:8080/rdf/nc/annotation/f58aa226&#45;1d78&#45;4bd9&#45;9d10&#45;abcd2a34dddd&#45;&gt;B_:node1evflep6ex2 -->
<g id="edge4" class="edge">
<title>Rhttp://localhost:8080/rdf/nc/annotation/f58aa226&#45;1d78&#45;4bd9&#45;9d10&#45;abcd2a34dddd&#45;&gt;B_:node1evflep6ex2</title>
<path fill="none" stroke="#000000" d="M480.6848,-748.3327C598.7616,-739.2245 740.8143,-728.2668 800.2407,-723.6828"/>
<polygon fill="#000000" stroke="#000000" points="800.6498,-727.1617 810.351,-722.9029 800.1114,-720.1824 800.6498,-727.1617"/>
<text text-anchor="middle" x="656.0473" y="-741.3" font-family="Times,serif" font-size="14.00" fill="#000000">oa:hasBody</text>
</g>
<!-- B_:node1evflep6ex1 -->
<g id="node14" class="node">
<title>B_:node1evflep6ex1</title>
<ellipse fill="none" stroke="#00ff00" cx="828.5375" cy="-496.5" rx="18" ry="18"/>
</g>
<!-- Rhttp://localhost:8080/rdf/nc/annotation/f58aa226&#45;1d78&#45;4bd9&#45;9d10&#45;abcd2a34dddd&#45;&gt;B_:node1evflep6ex1 -->
<g id="edge14" class="edge">
<title>Rhttp://localhost:8080/rdf/nc/annotation/f58aa226&#45;1d78&#45;4bd9&#45;9d10&#45;abcd2a34dddd&#45;&gt;B_:node1evflep6ex1</title>
<path fill="none" stroke="#000000" d="M333.1389,-744.4259C433.9303,-693.9841 716.5438,-552.5481 803.0511,-509.2548"/>
<polygon fill="#000000" stroke="#000000" points="804.7813,-512.3029 812.1575,-504.6975 801.6485,-506.043 804.7813,-512.3029"/>
<text text-anchor="middle" x="656.0473" y="-602.3" font-family="Times,serif" font-size="14.00" fill="#000000">oa:hasTarget</text>
</g>
<!-- Roa:describing -->
<g id="node21" class="node">
<title>Roa:describing</title>
<ellipse fill="none" stroke="#0000ff" cx="828.5375" cy="-442.5" rx="57.6901" ry="18"/>
<text text-anchor="middle" x="828.5375" y="-438.8" font-family="Times,serif" font-size="14.00" fill="#000000">oa:describing</text>
</g>
<!-- Rhttp://localhost:8080/rdf/nc/annotation/f58aa226&#45;1d78&#45;4bd9&#45;9d10&#45;abcd2a34dddd&#45;&gt;Roa:describing -->
<g id="edge22" class="edge">
<title>Rhttp://localhost:8080/rdf/nc/annotation/f58aa226&#45;1d78&#45;4bd9&#45;9d10&#45;abcd2a34dddd&#45;&gt;Roa:describing</title>
<path fill="none" stroke="#000000" d="M317.2315,-744.2381C375.1328,-692.8954 548.3951,-546.042 718.0473,-469.5 733.4004,-462.5731 750.7887,-457.2648 767.1515,-453.2654"/>
<polygon fill="#000000" stroke="#000000" points="768.228,-456.6087 777.1797,-450.9416 766.6477,-449.7894 768.228,-456.6087"/>
<text text-anchor="middle" x="656.0473" y="-525.3" font-family="Times,serif" font-size="14.00" fill="#000000">oa:motivatedBy</text>
</g>
<!-- Rfoaf:Person -->
<g id="node22" class="node">
<title>Rfoaf:Person</title>
<ellipse fill="none" stroke="#0000ff" cx="1297.6615" cy="-975.5" rx="51.1914" ry="18"/>
<text text-anchor="middle" x="1297.6615" y="-971.8" font-family="Times,serif" font-size="14.00" fill="#000000">foaf:Person</text>
</g>
<!-- Rorcid:0000&#45;0002&#45;2146&#45;4803&#45;&gt;Rfoaf:Person -->
<g id="edge23" class="edge">
<title>Rorcid:0000&#45;0002&#45;2146&#45;4803&#45;&gt;Rfoaf:Person</title>
<path fill="none" stroke="#000000" d="M915.5222,-852.77C924.2232,-856.6885 932.3076,-861.8155 939.0277,-868.5 962.4133,-891.7618 932.1017,-918.8969 957.0277,-940.5 1036.941,-1009.7601 1170.2645,-999.6674 1244.1891,-987.059"/>
<polygon fill="#000000" stroke="#000000" points="1244.984,-990.4725 1254.2142,-985.2712 1243.7551,-983.5813 1244.984,-990.4725"/>
<text text-anchor="middle" x="1027.0277" y="-996.3" font-family="Times,serif" font-size="14.00" fill="#000000">rdf:type</text>
</g>
<!-- Rdsw:Token -->
<g id="node6" class="node">
<title>Rdsw:Token</title>
<ellipse fill="none" stroke="#0000ff" cx="1911.2953" cy="-694.5" rx="50.0912" ry="18"/>
<text text-anchor="middle" x="1911.2953" y="-690.8" font-family="Times,serif" font-size="14.00" fill="#000000">dsw:Token</text>
</g>
<!-- B_:node1evflep6ex2&#45;&gt;Rdsw:Token -->
<g id="edge5" class="edge">
<title>B_:node1evflep6ex2&#45;&gt;Rdsw:Token</title>
<path fill="none" stroke="#000000" d="M846.6257,-720.2254C891.8441,-717.0966 1013.4658,-709.036 1115.0277,-705.5 1389.4632,-695.9452 1717.3744,-694.5953 1850.5812,-694.4701"/>
<polygon fill="#000000" stroke="#000000" points="1850.9727,-697.9699 1860.9701,-694.4625 1850.9675,-690.9699 1850.9727,-697.9699"/>
<text text-anchor="middle" x="1297.6615" y="-709.3" font-family="Times,serif" font-size="14.00" fill="#000000">rdf:type</text>
</g>
<!-- Rdwc:MeasurementOrFact -->
<g id="node7" class="node">
<title>Rdwc:MeasurementOrFact</title>
<ellipse fill="none" stroke="#0000ff" cx="1297.6615" cy="-747.5" rx="100.9827" ry="18"/>
<text text-anchor="middle" x="1297.6615" y="-743.8" font-family="Times,serif" font-size="14.00" fill="#000000">dwc:MeasurementOrFact</text>
</g>
<!-- B_:node1evflep6ex2&#45;&gt;Rdwc:MeasurementOrFact -->
<g id="edge6" class="edge">
<title>B_:node1evflep6ex2&#45;&gt;Rdwc:MeasurementOrFact</title>
<path fill="none" stroke="#000000" d="M846.6403,-722.5033C902.6641,-725.6083 1076.3286,-735.2332 1191.086,-741.5933"/>
<polygon fill="#000000" stroke="#000000" points="1191.1323,-745.1012 1201.3107,-742.16 1191.5197,-738.1119 1191.1323,-745.1012"/>
<text text-anchor="middle" x="1027.0277" y="-740.3" font-family="Times,serif" font-size="14.00" fill="#000000">rdf:type</text>
</g>
<!-- Roa:TextualBody -->
<g id="node8" class="node">
<title>Roa:TextualBody</title>
<ellipse fill="none" stroke="#0000ff" cx="1297.6615" cy="-642.5" rx="67.6881" ry="18"/>
<text text-anchor="middle" x="1297.6615" y="-638.8" font-family="Times,serif" font-size="14.00" fill="#000000">oa:TextualBody</text>
</g>
<!-- B_:node1evflep6ex2&#45;&gt;Roa:TextualBody -->
<g id="edge7" class="edge">
<title>B_:node1evflep6ex2&#45;&gt;Roa:TextualBody</title>
<path fill="none" stroke="#000000" d="M844.5888,-712.7357C868.3574,-700.2323 914.6754,-677.6651 957.0277,-667.5 1045.5078,-646.2636 1150.307,-641.5037 1220.0692,-641.0979"/>
<polygon fill="#000000" stroke="#000000" points="1220.1121,-644.5979 1230.1017,-641.0682 1220.0913,-637.5979 1220.1121,-644.5979"/>
<text text-anchor="middle" x="1027.0277" y="-671.3" font-family="Times,serif" font-size="14.00" fill="#000000">rdf:type</text>
</g>
<!-- Ltext/plain -->
<g id="node9" class="node">
<title>Ltext/plain</title>
<polygon fill="none" stroke="#000000" points="1263.6615,-569.5 1263.6615,-605.5 1331.6615,-605.5 1331.6615,-569.5 1263.6615,-569.5"/>
<text text-anchor="middle" x="1297.6615" y="-583.8" font-family="Times,serif" font-size="14.00" fill="#000000">text/plain</text>
</g>
<!-- B_:node1evflep6ex2&#45;&gt;Ltext/plain -->
<g id="edge8" class="edge">
<title>B_:node1evflep6ex2&#45;&gt;Ltext/plain</title>
<path fill="none" stroke="#000000" d="M841.3714,-708.4745C863.0301,-687.3999 909.1767,-646.2939 957.0277,-627.5 1057.5094,-588.035 1186.5145,-584.4064 1253.2449,-585.6491"/>
<polygon fill="#000000" stroke="#000000" points="1253.3273,-589.1519 1263.4061,-585.8856 1253.4903,-582.1538 1253.3273,-589.1519"/>
<text text-anchor="middle" x="1027.0277" y="-631.3" font-family="Times,serif" font-size="14.00" fill="#000000">dcterms:format</text>
</g>
<!-- Robo:PATO_0000014 -->
<g id="node10" class="node">
<title>Robo:PATO_0000014</title>
<ellipse fill="none" stroke="#0000ff" cx="1297.6615" cy="-921.5" rx="84.485" ry="18"/>
<text text-anchor="middle" x="1297.6615" y="-917.8" font-family="Times,serif" font-size="14.00" fill="#000000">obo:PATO_0000014</text>
</g>
<!-- B_:node1evflep6ex2&#45;&gt;Robo:PATO_0000014 -->
<g id="edge9" class="edge">
<title>B_:node1evflep6ex2&#45;&gt;Robo:PATO_0000014</title>
<path fill="none" stroke="#000000" d="M846.5681,-720.1642C871.4082,-719.4128 915.722,-722.1882 939.0277,-748.5 983.8408,-799.0934 907.9607,-853.0206 957.0277,-899.5 974.5918,-916.1378 1108.353,-920.5013 1202.9226,-921.4799"/>
<polygon fill="#000000" stroke="#000000" points="1203.0646,-924.9812 1213.0965,-921.5738 1203.1293,-917.9815 1203.0646,-924.9812"/>
<text text-anchor="middle" x="1027.0277" y="-922.3" font-family="Times,serif" font-size="14.00" fill="#000000">dcterms:identifier</text>
</g>
<!-- B_:node1evflep6ex2&#45;&gt;Robo:PATO_0000014 -->
<g id="edge12" class="edge">
<title>B_:node1evflep6ex2&#45;&gt;Robo:PATO_0000014</title>
<path fill="none" stroke="#000000" d="M846.8111,-720.313C871.5219,-719.7928 915.2315,-722.8999 939.0277,-748.5 971.8599,-783.8211 923.1,-821.2298 957.0277,-855.5 1001.4964,-900.4177 1039.2856,-854.7918 1097.0277,-880.5 1106.2864,-884.6222 1105.7083,-890.5168 1115.0277,-894.5 1142.7102,-906.3317 1174.6644,-913.1159 1204.0294,-916.9638"/>
<polygon fill="#000000" stroke="#000000" points="1203.9489,-920.4795 1214.2969,-918.2058 1204.7896,-913.5302 1203.9489,-920.4795"/>
<text text-anchor="middle" x="1027.0277" y="-884.3" font-family="Times,serif" font-size="14.00" fill="#000000">dwciri:measurementType</text>
</g>
<!-- Riso:lat -->
<g id="node11" class="node">
<title>Riso:lat</title>
<ellipse fill="none" stroke="#0000ff" cx="1297.6615" cy="-867.5" rx="32.4942" ry="18"/>
<text text-anchor="middle" x="1297.6615" y="-863.8" font-family="Times,serif" font-size="14.00" fill="#000000">iso:lat</text>
</g>
<!-- B_:node1evflep6ex2&#45;&gt;Riso:lat -->
<g id="edge10" class="edge">
<title>B_:node1evflep6ex2&#45;&gt;Riso:lat</title>
<path fill="none" stroke="#000000" d="M846.6937,-720.8435C870.8674,-720.9784 913.5295,-724.8842 939.0277,-748.5 957.8978,-765.9771 938.0735,-786.1141 957.0277,-803.5 978.9191,-823.5802 1169.7225,-850.7631 1255.8221,-862.1427"/>
<polygon fill="#000000" stroke="#000000" points="1255.4141,-865.6191 1265.7847,-863.4506 1256.3253,-858.6787 1255.4141,-865.6191"/>
<text text-anchor="middle" x="1027.0277" y="-840.3" font-family="Times,serif" font-size="14.00" fill="#000000">dcterms:language</text>
</g>
<!-- Rimg:MMNAT01_AF_NNM001001033_003.jpg -->
<g id="node12" class="node">
<title>Rimg:MMNAT01_AF_NNM001001033_003.jpg</title>
<ellipse fill="none" stroke="#0000ff" cx="1297.6615" cy="-532.5" rx="182.7677" ry="18"/>
<text text-anchor="middle" x="1297.6615" y="-528.8" font-family="Times,serif" font-size="14.00" fill="#000000">img:MMNAT01_AF_NNM001001033_003.jpg</text>
</g>
<!-- B_:node1evflep6ex2&#45;&gt;Rimg:MMNAT01_AF_NNM001001033_003.jpg -->
<g id="edge11" class="edge">
<title>B_:node1evflep6ex2&#45;&gt;Rimg:MMNAT01_AF_NNM001001033_003.jpg</title>
<path fill="none" stroke="#000000" d="M837.312,-705.3548C855.2033,-674.2027 899.1488,-606.1742 957.0277,-575.5 1001.96,-551.6872 1054.7744,-538.9702 1105.2275,-532.5983"/>
<polygon fill="#000000" stroke="#000000" points="1105.7648,-536.0592 1115.2836,-531.4071 1104.9413,-529.1078 1105.7648,-536.0592"/>
<text text-anchor="middle" x="1027.0277" y="-579.3" font-family="Times,serif" font-size="14.00" fill="#000000">dsw:derivedFrom</text>
</g>
<!-- LColor|Language: lat -->
<g id="node13" class="node">
<title>LColor|Language: lat</title>
<polygon fill="none" stroke="#000000" points="1252.1615,-784.5 1252.1615,-830.5 1343.1615,-830.5 1343.1615,-784.5 1252.1615,-784.5"/>
<text text-anchor="middle" x="1297.6615" y="-815.3" font-family="Times,serif" font-size="14.00" fill="#000000">Color</text>
<polyline fill="none" stroke="#000000" points="1252.1615,-807.5 1343.1615,-807.5 "/>
<text text-anchor="middle" x="1297.6615" y="-792.3" font-family="Times,serif" font-size="14.00" fill="#000000">Language: lat</text>
</g>
<!-- B_:node1evflep6ex2&#45;&gt;LColor|Language: lat -->
<g id="edge13" class="edge">
<title>B_:node1evflep6ex2&#45;&gt;LColor|Language: lat</title>
<path fill="none" stroke="#000000" d="M846.3399,-725.0965C868.3423,-729.7135 906.822,-738.351 939.0277,-748.5 947.2144,-751.0799 948.7352,-753.2834 957.0277,-755.5 1055.5649,-781.8385 1173.9423,-796.1592 1242.0249,-802.787"/>
<polygon fill="#000000" stroke="#000000" points="1241.8158,-806.2829 1252.1028,-803.7475 1242.48,-799.3145 1241.8158,-806.2829"/>
<text text-anchor="middle" x="1027.0277" y="-788.3" font-family="Times,serif" font-size="14.00" fill="#000000">rdf:value</text>
</g>
<!-- Rimg:MMNAT01_AF_NNM001001033_003.jpg&#45;&gt;Rdsw:Token -->
<g id="edge25" class="edge">
<title>Rimg:MMNAT01_AF_NNM001001033_003.jpg&#45;&gt;Rdsw:Token</title>
<path fill="none" stroke="#000000" d="M1453.6467,-541.9536C1463.2961,-546.55 1472.3151,-552.3161 1480.2953,-559.5 1504.1696,-580.9923 1475.8049,-606.5634 1498.2953,-629.5 1541.2522,-673.3092 1570.992,-655.1835 1631.2953,-666.5 1706.4436,-680.6023 1794.3602,-687.9267 1851.3451,-691.4899"/>
<polygon fill="#000000" stroke="#000000" points="1851.4221,-695.0009 1861.6155,-692.1122 1851.8455,-688.0137 1851.4221,-695.0009"/>
<text text-anchor="middle" x="1555.7953" y="-668.3" font-family="Times,serif" font-size="14.00" fill="#000000">rdf:type</text>
</g>
<!-- Rdcmitype:StillImage -->
<g id="node23" class="node">
<title>Rdcmitype:StillImage</title>
<ellipse fill="none" stroke="#0000ff" cx="1911.2953" cy="-639.5" rx="83.3857" ry="18"/>
<text text-anchor="middle" x="1911.2953" y="-635.8" font-family="Times,serif" font-size="14.00" fill="#000000">dcmitype:StillImage</text>
</g>
<!-- Rimg:MMNAT01_AF_NNM001001033_003.jpg&#45;&gt;Rdcmitype:StillImage -->
<g id="edge24" class="edge">
<title>Rimg:MMNAT01_AF_NNM001001033_003.jpg&#45;&gt;Rdcmitype:StillImage</title>
<path fill="none" stroke="#000000" d="M1441.5102,-543.6356C1455.0649,-547.6529 1468.2298,-552.8384 1480.2953,-559.5 1491.0567,-565.4416 1487.8099,-574.0837 1498.2953,-580.5 1550.1543,-612.2338 1571.3343,-602.4465 1631.2953,-612.5 1694.2075,-623.0483 1765.8148,-629.8616 1820.8656,-634.0051"/>
<polygon fill="#000000" stroke="#000000" points="1820.716,-637.5035 1830.9462,-634.7481 1821.2306,-630.5225 1820.716,-637.5035"/>
<text text-anchor="middle" x="1555.7953" y="-614.3" font-family="Times,serif" font-size="14.00" fill="#000000">rdf:type</text>
</g>
<!-- Rdwc:HumanObservation -->
<g id="node24" class="node">
<title>Rdwc:HumanObservation</title>
<ellipse fill="none" stroke="#0000ff" cx="1911.2953" cy="-585.5" rx="96.6831" ry="18"/>
<text text-anchor="middle" x="1911.2953" y="-581.8" font-family="Times,serif" font-size="14.00" fill="#000000">dwc:HumanObservation</text>
</g>
<!-- Rimg:MMNAT01_AF_NNM001001033_003.jpg&#45;&gt;Rdwc:HumanObservation -->
<g id="edge26" class="edge">
<title>Rimg:MMNAT01_AF_NNM001001033_003.jpg&#45;&gt;Rdwc:HumanObservation</title>
<path fill="none" stroke="#000000" d="M1428.229,-545.0989C1451.5572,-547.2832 1475.6416,-549.4949 1498.2953,-551.5 1605.3795,-560.9779 1728.1635,-570.9752 1811.8361,-577.6564"/>
<polygon fill="#000000" stroke="#000000" points="1811.5959,-581.1483 1821.8425,-578.4545 1812.1525,-574.1704 1811.5959,-581.1483"/>
<text text-anchor="middle" x="1555.7953" y="-565.3" font-family="Times,serif" font-size="14.00" fill="#000000">rdf:type</text>
</g>
<!-- Roa:Source -->
<g id="node25" class="node">
<title>Roa:Source</title>
<ellipse fill="none" stroke="#0000ff" cx="1911.2953" cy="-531.5" rx="46.2923" ry="18"/>
<text text-anchor="middle" x="1911.2953" y="-527.8" font-family="Times,serif" font-size="14.00" fill="#000000">oa:Source</text>
</g>
<!-- Rimg:MMNAT01_AF_NNM001001033_003.jpg&#45;&gt;Roa:Source -->
<g id="edge27" class="edge">
<title>Rimg:MMNAT01_AF_NNM001001033_003.jpg&#45;&gt;Roa:Source</title>
<path fill="none" stroke="#000000" d="M1480.5254,-532.202C1608.3587,-531.9937 1770.7012,-531.7291 1854.898,-531.5919"/>
<polygon fill="#000000" stroke="#000000" points="1855.0231,-535.0918 1865.0173,-531.5754 1855.0116,-528.0918 1855.0231,-535.0918"/>
<text text-anchor="middle" x="1555.7953" y="-536.3" font-family="Times,serif" font-size="14.00" fill="#000000">rdf:type</text>
</g>
<!-- Rfoaf:Image -->
<g id="node26" class="node">
<title>Rfoaf:Image</title>
<ellipse fill="none" stroke="#0000ff" cx="1911.2953" cy="-477.5" rx="50.0912" ry="18"/>
<text text-anchor="middle" x="1911.2953" y="-473.8" font-family="Times,serif" font-size="14.00" fill="#000000">foaf:Image</text>
</g>
<!-- Rimg:MMNAT01_AF_NNM001001033_003.jpg&#45;&gt;Rfoaf:Image -->
<g id="edge28" class="edge">
<title>Rimg:MMNAT01_AF_NNM001001033_003.jpg&#45;&gt;Rfoaf:Image</title>
<path fill="none" stroke="#000000" d="M1428.7756,-519.9414C1451.9349,-517.7636 1475.8207,-515.5437 1498.2953,-513.5 1624.172,-502.0538 1771.701,-489.3704 1851.939,-482.5337"/>
<polygon fill="#000000" stroke="#000000" points="1852.6646,-485.9847 1862.3316,-481.6489 1852.0707,-479.0099 1852.6646,-485.9847"/>
<text text-anchor="middle" x="1555.7953" y="-517.3" font-family="Times,serif" font-size="14.00" fill="#000000">rdf:type</text>
</g>
<!-- B_:node1evflep6ex1&#45;&gt;Rimg:MMNAT01_AF_NNM001001033_003.jpg -->
<g id="edge21" class="edge">
<title>B_:node1evflep6ex1&#45;&gt;Rimg:MMNAT01_AF_NNM001001033_003.jpg</title>
<path fill="none" stroke="#000000" d="M846.7706,-497.8252C890.1454,-500.9848 1002.8883,-509.2401 1097.0277,-516.5 1112.8238,-517.7182 1129.3181,-519.0067 1145.7676,-520.3025"/>
<polygon fill="#000000" stroke="#000000" points="1145.7531,-523.8122 1155.9974,-521.1097 1146.3038,-516.8339 1145.7531,-523.8122"/>
<text text-anchor="middle" x="1027.0277" y="-520.3" font-family="Times,serif" font-size="14.00" fill="#000000">oa:hasSource</text>
</g>
<!-- Roa:Target -->
<g id="node15" class="node">
<title>Roa:Target</title>
<ellipse fill="none" stroke="#0000ff" cx="1297.6615" cy="-368.5" rx="44.393" ry="18"/>
<text text-anchor="middle" x="1297.6615" y="-364.8" font-family="Times,serif" font-size="14.00" fill="#000000">oa:Target</text>
</g>
<!-- B_:node1evflep6ex1&#45;&gt;Roa:Target -->
<g id="edge15" class="edge">
<title>B_:node1evflep6ex1&#45;&gt;Roa:Target</title>
<path fill="none" stroke="#000000" d="M846.8411,-497.3122C871.1818,-497.3539 914.0325,-493.6475 939.0277,-469.5 960.2786,-448.9699 934.4741,-424.5898 957.0277,-405.5 1039.2525,-335.9032 1175.603,-346.2564 1248.3562,-358.2737"/>
<polygon fill="#000000" stroke="#000000" points="1248.1644,-361.7925 1258.6149,-360.0495 1249.3584,-354.8951 1248.1644,-361.7925"/>
<text text-anchor="middle" x="1027.0277" y="-409.3" font-family="Times,serif" font-size="14.00" fill="#000000">rdf:type</text>
</g>
<!-- Limage/jpeg -->
<g id="node16" class="node">
<title>Limage/jpeg</title>
<polygon fill="none" stroke="#000000" points="1259.1615,-459.5 1259.1615,-495.5 1336.1615,-495.5 1336.1615,-459.5 1259.1615,-459.5"/>
<text text-anchor="middle" x="1297.6615" y="-473.8" font-family="Times,serif" font-size="14.00" fill="#000000">image/jpeg</text>
</g>
<!-- B_:node1evflep6ex1&#45;&gt;Limage/jpeg -->
<g id="edge16" class="edge">
<title>B_:node1evflep6ex1&#45;&gt;Limage/jpeg</title>
<path fill="none" stroke="#000000" d="M846.3323,-493.2242C871.059,-488.8518 917.2588,-481.3307 957.0277,-478.5 1060.7553,-471.1168 1182.7,-473.4046 1248.8957,-475.5612"/>
<polygon fill="#000000" stroke="#000000" points="1248.9169,-479.0638 1259.0298,-475.9046 1249.1541,-472.0678 1248.9169,-479.0638"/>
<text text-anchor="middle" x="1027.0277" y="-482.3" font-family="Times,serif" font-size="14.00" fill="#000000">dcterms:format</text>
</g>
<!-- B_:node1evflep6ex4 -->
<g id="node17" class="node">
<title>B_:node1evflep6ex4</title>
<ellipse fill="none" stroke="#00ff00" cx="1297.6615" cy="-422.5" rx="18" ry="18"/>
</g>
<!-- B_:node1evflep6ex1&#45;&gt;B_:node1evflep6ex4 -->
<g id="edge17" class="edge">
<title>B_:node1evflep6ex1&#45;&gt;B_:node1evflep6ex4</title>
<path fill="none" stroke="#000000" d="M846.5422,-494.462C869.0839,-491.3904 908.4498,-484.2842 939.0277,-469.5 948.152,-465.0884 947.6113,-459.248 957.0277,-455.5 1065.9006,-412.1649 1209.1964,-416.0148 1269.2565,-420.0669"/>
<polygon fill="#000000" stroke="#000000" points="1269.2465,-423.5754 1279.4753,-420.8145 1269.7574,-416.5941 1269.2465,-423.5754"/>
<text text-anchor="middle" x="1027.0277" y="-459.3" font-family="Times,serif" font-size="14.00" fill="#000000">oa:hasSelector</text>
</g>
<!-- Roa:FragmentSelector -->
<g id="node18" class="node">
<title>Roa:FragmentSelector</title>
<ellipse fill="none" stroke="#0000ff" cx="1911.2953" cy="-423.5" rx="84.485" ry="18"/>
<text text-anchor="middle" x="1911.2953" y="-419.8" font-family="Times,serif" font-size="14.00" fill="#000000">oa:FragmentSelector</text>
</g>
<!-- B_:node1evflep6ex4&#45;&gt;Roa:FragmentSelector -->
<g id="edge18" class="edge">
<title>B_:node1evflep6ex4&#45;&gt;Roa:FragmentSelector</title>
<path fill="none" stroke="#000000" d="M1315.694,-422.5294C1389.0378,-422.6489 1668.0992,-423.1037 1816.7569,-423.3459"/>
<polygon fill="#000000" stroke="#000000" points="1816.7877,-426.8459 1826.7935,-423.3623 1816.7992,-419.8459 1816.7877,-426.8459"/>
<text text-anchor="middle" x="1555.7953" y="-427.3" font-family="Times,serif" font-size="14.00" fill="#000000">rdf:type</text>
</g>
<!-- Rmf: -->
<g id="node19" class="node">
<title>Rmf:</title>
<ellipse fill="none" stroke="#0000ff" cx="1911.2953" cy="-369.5" rx="27" ry="18"/>
<text text-anchor="middle" x="1911.2953" y="-365.8" font-family="Times,serif" font-size="14.00" fill="#000000">mf:</text>
</g>
<!-- B_:node1evflep6ex4&#45;&gt;Rmf: -->
<g id="edge19" class="edge">
<title>B_:node1evflep6ex4&#45;&gt;Rmf:</title>
<path fill="none" stroke="#000000" d="M1315.6436,-420.8568C1350.751,-417.6552 1430.8801,-410.3806 1498.2953,-404.5 1636.9968,-392.401 1801.956,-378.5977 1874.2513,-372.5777"/>
<polygon fill="#000000" stroke="#000000" points="1874.556,-376.0645 1884.2312,-371.7471 1873.9754,-369.0886 1874.556,-376.0645"/>
<text text-anchor="middle" x="1555.7953" y="-408.3" font-family="Times,serif" font-size="14.00" fill="#000000">dcterms:conformsTo</text>
</g>
<!-- Lxywh=0.5575335827826557,0.16560174792980703,0.02356406480117823,0.02061855670103091 -->
<g id="node20" class="node">
<title>Lxywh=0.5575335827826557,0.16560174792980703,0.02356406480117823,0.02061855670103091</title>
<polygon fill="none" stroke="#000000" points="1631.2953,-296.5 1631.2953,-332.5 2191.2953,-332.5 2191.2953,-296.5 1631.2953,-296.5"/>
<text text-anchor="middle" x="1911.2953" y="-310.8" font-family="Times,serif" font-size="14.00" fill="#000000">xywh=0.5575335827826557,0.16560174792980703,0.02356406480117823,0.02061855670103091</text>
</g>
<!-- B_:node1evflep6ex4&#45;&gt;Lxywh=0.5575335827826557,0.16560174792980703,0.02356406480117823,0.02061855670103091 -->
<g id="edge20" class="edge">
<title>B_:node1evflep6ex4&#45;&gt;Lxywh=0.5575335827826557,0.16560174792980703,0.02356406480117823,0.02061855670103091</title>
<path fill="none" stroke="#000000" d="M1315.6939,-423.5954C1349.8723,-424.8903 1425.5563,-423.9696 1480.2953,-395.5 1490.6152,-390.1326 1488.2668,-382.394 1498.2953,-376.5 1550.8952,-345.5854 1571.2148,-353.1211 1631.2953,-342.5 1649.5254,-339.2772 1668.4938,-336.3951 1687.5823,-333.8232"/>
<polygon fill="#000000" stroke="#000000" points="1688.1152,-337.2834 1697.572,-332.5065 1687.2004,-330.3434 1688.1152,-337.2834"/>
<text text-anchor="middle" x="1555.7953" y="-380.3" font-family="Times,serif" font-size="14.00" fill="#000000">rdf:value</text>
</g>
</g>
</svg>
