<?xml version="1.0" encoding="UTF-8" standalone="no"?>
<!DOCTYPE svg PUBLIC "-//W3C//DTD SVG 1.1//EN"
 "http://www.w3.org/Graphics/SVG/1.1/DTD/svg11.dtd">
<!-- Generated by graphviz version 2.40.1 (20161225.0304)
 -->
<!-- Title: %3 Pages: 1 -->
<svg width="2165pt" height="1142pt"
 viewBox="0.00 0.00 2165.10 1142.00" xmlns="http://www.w3.org/2000/svg" xmlns:xlink="http://www.w3.org/1999/xlink">
<g id="graph0" class="graph" transform="scale(1 1) rotate(0) translate(4 1138)">
<title>%3</title>
<polygon fill="#ffffff" stroke="transparent" points="-4,4 -4,-1138 2161.0957,-1138 2161.0957,4 -4,4"/>
<text text-anchor="middle" x="1078.5479" y="-233.8" font-family="Times,serif" font-size="14.00" fill="#000000">Model:</text>
<text text-anchor="middle" x="1078.5479" y="-218.8" font-family="Times,serif" font-size="14.00" fill="#000000">(Unknown)</text>
<text text-anchor="middle" x="1078.5479" y="-187.8" font-family="Times,serif" font-size="14.00" fill="#000000">Namespaces:</text>
<text text-anchor="middle" x="1078.5479" y="-172.8" font-family="Times,serif" font-size="14.00" fill="#000000">dcmitype: http://purl.org/dc/dcmitype/</text>
<text text-anchor="middle" x="1078.5479" y="-157.8" font-family="Times,serif" font-size="14.00" fill="#000000">dcterms: http://purl.org/dc/terms/</text>
<text text-anchor="middle" x="1078.5479" y="-142.8" font-family="Times,serif" font-size="14.00" fill="#000000">dsw: http://purl.org/dsw/</text>
<text text-anchor="middle" x="1078.5479" y="-127.8" font-family="Times,serif" font-size="14.00" fill="#000000">dwc: http://rs.tdwg.org/dwc/terms/</text>
<text text-anchor="middle" x="1078.5479" y="-112.8" font-family="Times,serif" font-size="14.00" fill="#000000">foaf: http://xmlns.com/foaf/0.1/</text>
<text text-anchor="middle" x="1078.5479" y="-97.8" font-family="Times,serif" font-size="14.00" fill="#000000">img: http://localhost:8080/semanticAnnotator/files/</text>
<text text-anchor="middle" x="1078.5479" y="-82.8" font-family="Times,serif" font-size="14.00" fill="#000000">iso: http://iso639&#45;3.sil.org/code/</text>
<text text-anchor="middle" x="1078.5479" y="-67.8" font-family="Times,serif" font-size="14.00" fill="#000000">mf: http://www.w3.org/TR/media&#45;frags/</text>
<text text-anchor="middle" x="1078.5479" y="-52.8" font-family="Times,serif" font-size="14.00" fill="#000000">oa: http://www.w3.org/ns/oa#</text>
<text text-anchor="middle" x="1078.5479" y="-37.8" font-family="Times,serif" font-size="14.00" fill="#000000">orcid: http://orcid.org/</text>
<text text-anchor="middle" x="1078.5479" y="-22.8" font-family="Times,serif" font-size="14.00" fill="#000000">rdf: http://www.w3.org/1999/02/22&#45;rdf&#45;syntax&#45;ns#</text>
<text text-anchor="middle" x="1078.5479" y="-7.8" font-family="Times,serif" font-size="14.00" fill="#000000">viaf: http://viaf.org/viaf/</text>
<!-- Rhttp://localhost:8080/rdf/nc/annotation/c2572510&#45;5ceb&#45;457f&#45;afd0&#45;e59d08408a3c -->
<g id="node1" class="node">
<title>Rhttp://localhost:8080/rdf/nc/annotation/c2572510&#45;5ceb&#45;457f&#45;afd0&#45;e59d08408a3c</title>
<ellipse fill="none" stroke="#0000ff" cx="294.4239" cy="-922" rx="294.3478" ry="18"/>
<text text-anchor="middle" x="294.4239" y="-918.3" font-family="Times,serif" font-size="14.00" fill="#000000">http://localhost:8080/rdf/nc/annotation/c2572510&#45;5ceb&#45;457f&#45;afd0&#45;e59d08408a3c</text>
</g>
<!-- Roa:Annotation -->
<g id="node2" class="node">
<title>Roa:Annotation</title>
<ellipse fill="none" stroke="#0000ff" cx="823.3379" cy="-1055" rx="61.1893" ry="18"/>
<text text-anchor="middle" x="823.3379" y="-1051.3" font-family="Times,serif" font-size="14.00" fill="#000000">oa:Annotation</text>
</g>
<!-- Rhttp://localhost:8080/rdf/nc/annotation/c2572510&#45;5ceb&#45;457f&#45;afd0&#45;e59d08408a3c&#45;&gt;Roa:Annotation -->
<g id="edge1" class="edge">
<title>Rhttp://localhost:8080/rdf/nc/annotation/c2572510&#45;5ceb&#45;457f&#45;afd0&#45;e59d08408a3c&#45;&gt;Roa:Annotation</title>
<path fill="none" stroke="#000000" d="M362.8709,-939.5285C445.695,-960.695 589.4054,-997.2821 712.8478,-1028 730.1478,-1032.305 748.9874,-1036.9316 766.129,-1041.1175"/>
<polygon fill="#000000" stroke="#000000" points="765.4565,-1044.556 776.0011,-1043.5254 767.1153,-1037.7554 765.4565,-1044.556"/>
<text text-anchor="middle" x="650.8478" y="-1025.8" font-family="Times,serif" font-size="14.00" fill="#000000">rdf:type</text>
</g>
<!-- Rorcid:0000&#45;0002&#45;2146&#45;4803 -->
<g id="node3" class="node">
<title>Rorcid:0000&#45;0002&#45;2146&#45;4803</title>
<ellipse fill="none" stroke="#0000ff" cx="823.3379" cy="-1001" rx="110.4804" ry="18"/>
<text text-anchor="middle" x="823.3379" y="-997.3" font-family="Times,serif" font-size="14.00" fill="#000000">orcid:0000&#45;0002&#45;2146&#45;4803</text>
</g>
<!-- Rhttp://localhost:8080/rdf/nc/annotation/c2572510&#45;5ceb&#45;457f&#45;afd0&#45;e59d08408a3c&#45;&gt;Rorcid:0000&#45;0002&#45;2146&#45;4803 -->
<g id="edge2" class="edge">
<title>Rhttp://localhost:8080/rdf/nc/annotation/c2572510&#45;5ceb&#45;457f&#45;afd0&#45;e59d08408a3c&#45;&gt;Rorcid:0000&#45;0002&#45;2146&#45;4803</title>
<path fill="none" stroke="#000000" d="M406.2696,-938.7056C503.1359,-953.1738 641.5312,-973.8449 731.8963,-987.342"/>
<polygon fill="#000000" stroke="#000000" points="731.4444,-990.8133 741.8517,-988.829 732.4785,-983.8901 731.4444,-990.8133"/>
<text text-anchor="middle" x="650.8478" y="-982.8" font-family="Times,serif" font-size="14.00" fill="#000000">dcterms:creator</text>
</g>
<!-- L2021&#45;01&#45;12T14:23:11.646Z|Datatype: dcterms:W3CDTF -->
<g id="node4" class="node">
<title>L2021&#45;01&#45;12T14:23:11.646Z|Datatype: dcterms:W3CDTF</title>
<polygon fill="none" stroke="#000000" points="735.8379,-918 735.8379,-964 910.8379,-964 910.8379,-918 735.8379,-918"/>
<text text-anchor="middle" x="823.3379" y="-948.8" font-family="Times,serif" font-size="14.00" fill="#000000">2021&#45;01&#45;12T14:23:11.646Z</text>
<polyline fill="none" stroke="#000000" points="735.8379,-941 910.8379,-941 "/>
<text text-anchor="middle" x="823.3379" y="-925.8" font-family="Times,serif" font-size="14.00" fill="#000000">Datatype: dcterms:W3CDTF</text>
</g>
<!-- Rhttp://localhost:8080/rdf/nc/annotation/c2572510&#45;5ceb&#45;457f&#45;afd0&#45;e59d08408a3c&#45;&gt;L2021&#45;01&#45;12T14:23:11.646Z|Datatype: dcterms:W3CDTF -->
<g id="edge3" class="edge">
<title>Rhttp://localhost:8080/rdf/nc/annotation/c2572510&#45;5ceb&#45;457f&#45;afd0&#45;e59d08408a3c&#45;&gt;L2021&#45;01&#45;12T14:23:11.646Z|Datatype: dcterms:W3CDTF</title>
<path fill="none" stroke="#000000" d="M548.4239,-931.1244C611.4919,-933.3899 675.3542,-935.684 725.6332,-937.4902"/>
<polygon fill="#000000" stroke="#000000" points="725.7075,-940.995 735.8268,-937.8564 725.9589,-933.9995 725.7075,-940.995"/>
<text text-anchor="middle" x="650.8478" y="-938.8" font-family="Times,serif" font-size="14.00" fill="#000000">dcterms:date</text>
</g>
<!-- B_:node1f26ai8ibx7 -->
<g id="node5" class="node">
<title>B_:node1f26ai8ibx7</title>
<ellipse fill="none" stroke="#00ff00" cx="823.3379" cy="-881" rx="18" ry="18"/>
</g>
<!-- Rhttp://localhost:8080/rdf/nc/annotation/c2572510&#45;5ceb&#45;457f&#45;afd0&#45;e59d08408a3c&#45;&gt;B_:node1f26ai8ibx7 -->
<g id="edge4" class="edge">
<title>Rhttp://localhost:8080/rdf/nc/annotation/c2572510&#45;5ceb&#45;457f&#45;afd0&#45;e59d08408a3c&#45;&gt;B_:node1f26ai8ibx7</title>
<path fill="none" stroke="#000000" d="M476.8163,-907.8614C594.3601,-898.7497 735.9129,-887.777 795.1364,-883.1861"/>
<polygon fill="#000000" stroke="#000000" points="795.5127,-886.6675 805.2123,-882.4051 794.9717,-879.6885 795.5127,-886.6675"/>
<text text-anchor="middle" x="650.8478" y="-899.8" font-family="Times,serif" font-size="14.00" fill="#000000">oa:hasBody</text>
</g>
<!-- B_:node1f26ai8ibx6 -->
<g id="node13" class="node">
<title>B_:node1f26ai8ibx6</title>
<ellipse fill="none" stroke="#00ff00" cx="823.3379" cy="-680" rx="18" ry="18"/>
</g>
<!-- Rhttp://localhost:8080/rdf/nc/annotation/c2572510&#45;5ceb&#45;457f&#45;afd0&#45;e59d08408a3c&#45;&gt;B_:node1f26ai8ibx6 -->
<g id="edge13" class="edge">
<title>Rhttp://localhost:8080/rdf/nc/annotation/c2572510&#45;5ceb&#45;457f&#45;afd0&#45;e59d08408a3c&#45;&gt;B_:node1f26ai8ibx6</title>
<path fill="none" stroke="#000000" d="M333.7463,-904.0084C436.6861,-856.9092 712.0172,-730.9339 797.5934,-691.7792"/>
<polygon fill="#000000" stroke="#000000" points="799.2063,-694.8903 806.8434,-687.5469 796.2938,-688.5249 799.2063,-694.8903"/>
<text text-anchor="middle" x="650.8478" y="-775.8" font-family="Times,serif" font-size="14.00" fill="#000000">oa:hasTarget</text>
</g>
<!-- Roa:describing -->
<g id="node21" class="node">
<title>Roa:describing</title>
<ellipse fill="none" stroke="#0000ff" cx="823.3379" cy="-626" rx="57.6901" ry="18"/>
<text text-anchor="middle" x="823.3379" y="-622.3" font-family="Times,serif" font-size="14.00" fill="#000000">oa:describing</text>
</g>
<!-- Rhttp://localhost:8080/rdf/nc/annotation/c2572510&#45;5ceb&#45;457f&#45;afd0&#45;e59d08408a3c&#45;&gt;Roa:describing -->
<g id="edge21" class="edge">
<title>Rhttp://localhost:8080/rdf/nc/annotation/c2572510&#45;5ceb&#45;457f&#45;afd0&#45;e59d08408a3c&#45;&gt;Roa:describing</title>
<path fill="none" stroke="#000000" d="M316.4897,-903.9581C376.3888,-855.875 548.5807,-723.5212 712.8478,-653 728.4002,-646.3232 745.9241,-641.0907 762.3559,-637.0838"/>
<polygon fill="#000000" stroke="#000000" points="763.4703,-640.4181 772.4185,-634.7453 761.8858,-633.5998 763.4703,-640.4181"/>
<text text-anchor="middle" x="650.8478" y="-703.8" font-family="Times,serif" font-size="14.00" fill="#000000">oa:motivatedBy</text>
</g>
<!-- Rfoaf:Person -->
<g id="node8" class="node">
<title>Rfoaf:Person</title>
<ellipse fill="none" stroke="#0000ff" cx="1249.4619" cy="-1102" rx="51.1914" ry="18"/>
<text text-anchor="middle" x="1249.4619" y="-1098.3" font-family="Times,serif" font-size="14.00" fill="#000000">foaf:Person</text>
</g>
<!-- Rorcid:0000&#45;0002&#45;2146&#45;4803&#45;&gt;Rfoaf:Person -->
<g id="edge22" class="edge">
<title>Rorcid:0000&#45;0002&#45;2146&#45;4803&#45;&gt;Rfoaf:Person</title>
<path fill="none" stroke="#000000" d="M908.9623,-1012.4749C918.0684,-1016.3397 926.62,-1021.398 933.8281,-1028 952.1733,-1044.8024 932.1286,-1065.8081 951.8281,-1081 1022.4015,-1135.4246 1132.545,-1126.1814 1197.1971,-1114.2656"/>
<polygon fill="#000000" stroke="#000000" points="1198.0149,-1117.6725 1207.1697,-1112.3396 1196.6875,-1110.7995 1198.0149,-1117.6725"/>
<text text-anchor="middle" x="1000.3281" y="-1122.8" font-family="Times,serif" font-size="14.00" fill="#000000">rdf:type</text>
</g>
<!-- Rdcterms:Agent -->
<g id="node6" class="node">
<title>Rdcterms:Agent</title>
<ellipse fill="none" stroke="#0000ff" cx="1249.4619" cy="-1045" rx="63.0888" ry="18"/>
<text text-anchor="middle" x="1249.4619" y="-1041.3" font-family="Times,serif" font-size="14.00" fill="#000000">dcterms:Agent</text>
</g>
<!-- B_:node1f26ai8ibx7&#45;&gt;Rdcterms:Agent -->
<g id="edge5" class="edge">
<title>B_:node1f26ai8ibx7&#45;&gt;Rdcterms:Agent</title>
<path fill="none" stroke="#000000" d="M841.7367,-880.2918C866.1854,-880.4006 909.1579,-884.4159 933.8281,-909 956.5824,-931.6748 929.9843,-955.4469 951.8281,-979 988.528,-1018.5716 1014.3648,-1005.3355 1066.8281,-1018 1103.6931,-1026.8991 1145.4949,-1033.3398 1179.7949,-1037.6935"/>
<polygon fill="#000000" stroke="#000000" points="1179.367,-1041.1672 1189.7212,-1038.9222 1180.2269,-1034.2202 1179.367,-1041.1672"/>
<text text-anchor="middle" x="1000.3281" y="-1016.8" font-family="Times,serif" font-size="14.00" fill="#000000">rdf:type</text>
</g>
<!-- Roa:TextualBody -->
<g id="node7" class="node">
<title>Roa:TextualBody</title>
<ellipse fill="none" stroke="#0000ff" cx="1249.4619" cy="-991" rx="67.6881" ry="18"/>
<text text-anchor="middle" x="1249.4619" y="-987.3" font-family="Times,serif" font-size="14.00" fill="#000000">oa:TextualBody</text>
</g>
<!-- B_:node1f26ai8ibx7&#45;&gt;Roa:TextualBody -->
<g id="edge6" class="edge">
<title>B_:node1f26ai8ibx7&#45;&gt;Roa:TextualBody</title>
<path fill="none" stroke="#000000" d="M841.4757,-882.2308C864.5047,-884.512 904.7356,-890.9551 933.8281,-909 944.2746,-915.4795 941.511,-923.3167 951.8281,-930 996.5608,-958.9772 1014.7813,-952.5187 1066.8281,-964 1102.7099,-971.9154 1143.08,-978.156 1176.7228,-982.6346"/>
<polygon fill="#000000" stroke="#000000" points="1176.5663,-986.1438 1186.9353,-983.9678 1177.4725,-979.2027 1176.5663,-986.1438"/>
<text text-anchor="middle" x="1000.3281" y="-963.8" font-family="Times,serif" font-size="14.00" fill="#000000">rdf:type</text>
</g>
<!-- B_:node1f26ai8ibx7&#45;&gt;Rfoaf:Person -->
<g id="edge7" class="edge">
<title>B_:node1f26ai8ibx7&#45;&gt;Rfoaf:Person</title>
<path fill="none" stroke="#000000" d="M841.7073,-879.9235C866.5294,-879.5631 910.3673,-882.9922 933.8281,-909 970.8346,-950.024 915.8956,-990.0322 951.8281,-1032 981.1769,-1066.2782 1007.3266,-1044.2808 1048.8281,-1062 1057.2448,-1065.5935 1058.1851,-1068.9916 1066.8281,-1072 1106.1867,-1085.6995 1152.5421,-1093.2181 1188.7025,-1097.3023"/>
<polygon fill="#000000" stroke="#000000" points="1188.7808,-1100.8305 1199.0963,-1098.414 1189.5253,-1093.8702 1188.7808,-1100.8305"/>
<text text-anchor="middle" x="1000.3281" y="-1065.8" font-family="Times,serif" font-size="14.00" fill="#000000">rdf:type</text>
</g>
<!-- Ltext/plain -->
<g id="node9" class="node">
<title>Ltext/plain</title>
<polygon fill="none" stroke="#000000" points="1215.4619,-918 1215.4619,-954 1283.4619,-954 1283.4619,-918 1215.4619,-918"/>
<text text-anchor="middle" x="1249.4619" y="-932.3" font-family="Times,serif" font-size="14.00" fill="#000000">text/plain</text>
</g>
<!-- B_:node1f26ai8ibx7&#45;&gt;Ltext/plain -->
<g id="edge8" class="edge">
<title>B_:node1f26ai8ibx7&#45;&gt;Ltext/plain</title>
<path fill="none" stroke="#000000" d="M841.1931,-883.7926C865.9898,-887.6362 912.2704,-894.6839 951.8281,-900 1041.6124,-912.066 1146.8894,-924.3657 1205.0908,-931.004"/>
<polygon fill="#000000" stroke="#000000" points="1204.72,-934.4843 1215.0516,-932.1372 1205.5114,-927.5291 1204.72,-934.4843"/>
<text text-anchor="middle" x="1000.3281" y="-914.8" font-family="Times,serif" font-size="14.00" fill="#000000">dcterms:format</text>
</g>
<!-- Rviaf:39377694 -->
<g id="node10" class="node">
<title>Rviaf:39377694</title>
<ellipse fill="none" stroke="#0000ff" cx="1249.4619" cy="-881" rx="61.99" ry="18"/>
<text text-anchor="middle" x="1249.4619" y="-877.3" font-family="Times,serif" font-size="14.00" fill="#000000">viaf:39377694</text>
</g>
<!-- B_:node1f26ai8ibx7&#45;&gt;Rviaf:39377694 -->
<g id="edge9" class="edge">
<title>B_:node1f26ai8ibx7&#45;&gt;Rviaf:39377694</title>
<path fill="none" stroke="#000000" d="M841.3758,-881C898.2714,-881 1076.1599,-881 1177.2917,-881"/>
<polygon fill="#000000" stroke="#000000" points="1177.4318,-884.5001 1187.4317,-881 1177.4317,-877.5001 1177.4318,-884.5001"/>
<text text-anchor="middle" x="1000.3281" y="-884.8" font-family="Times,serif" font-size="14.00" fill="#000000">dcterms:identifier</text>
</g>
<!-- Riso:und -->
<g id="node11" class="node">
<title>Riso:und</title>
<ellipse fill="none" stroke="#0000ff" cx="1249.4619" cy="-827" rx="36.2938" ry="18"/>
<text text-anchor="middle" x="1249.4619" y="-823.3" font-family="Times,serif" font-size="14.00" fill="#000000">iso:und</text>
</g>
<!-- B_:node1f26ai8ibx7&#45;&gt;Riso:und -->
<g id="edge10" class="edge">
<title>B_:node1f26ai8ibx7&#45;&gt;Riso:und</title>
<path fill="none" stroke="#000000" d="M841.1906,-878.1886C865.9844,-874.3234 912.2617,-867.2506 951.8281,-862 1040.867,-850.1843 1145.1685,-838.3881 1203.657,-831.9584"/>
<polygon fill="#000000" stroke="#000000" points="1204.1244,-835.4282 1213.6835,-830.8595 1203.3617,-828.4699 1204.1244,-835.4282"/>
<text text-anchor="middle" x="1000.3281" y="-865.8" font-family="Times,serif" font-size="14.00" fill="#000000">dcterms:language</text>
</g>
<!-- LGeoff|Language: und -->
<g id="node12" class="node">
<title>LGeoff|Language: und</title>
<polygon fill="none" stroke="#000000" points="1200.4619,-744 1200.4619,-790 1298.4619,-790 1298.4619,-744 1200.4619,-744"/>
<text text-anchor="middle" x="1249.4619" y="-774.8" font-family="Times,serif" font-size="14.00" fill="#000000">Geoff</text>
<polyline fill="none" stroke="#000000" points="1200.4619,-767 1298.4619,-767 "/>
<text text-anchor="middle" x="1249.4619" y="-751.8" font-family="Times,serif" font-size="14.00" fill="#000000">Language: und</text>
</g>
<!-- B_:node1f26ai8ibx7&#45;&gt;LGeoff|Language: und -->
<g id="edge11" class="edge">
<title>B_:node1f26ai8ibx7&#45;&gt;LGeoff|Language: und</title>
<path fill="none" stroke="#000000" d="M840.1696,-873.778C864.5193,-863.4849 911.1189,-844.3645 951.8281,-831 1032.6468,-804.468 1129.4815,-786.0013 1190.253,-775.9452"/>
<polygon fill="#000000" stroke="#000000" points="1191.1224,-779.3497 1200.4279,-774.2844 1189.9947,-772.4411 1191.1224,-779.3497"/>
<text text-anchor="middle" x="1000.3281" y="-834.8" font-family="Times,serif" font-size="14.00" fill="#000000">rdf:value</text>
</g>
<!-- B_:node1f26ai8ibx7&#45;&gt;LGeoff|Language: und -->
<g id="edge12" class="edge">
<title>B_:node1f26ai8ibx7&#45;&gt;LGeoff|Language: und</title>
<path fill="none" stroke="#000000" d="M835.6529,-867.7396C856.9096,-845.8766 902.9318,-802.906 951.8281,-785 1030.4055,-756.2248 1128.4204,-756.6123 1189.9956,-760.8067"/>
<polygon fill="#000000" stroke="#000000" points="1190.0749,-764.322 1200.3055,-761.5679 1190.5904,-757.341 1190.0749,-764.322"/>
<text text-anchor="middle" x="1000.3281" y="-788.8" font-family="Times,serif" font-size="14.00" fill="#000000">foaf:name</text>
</g>
<!-- Roa:Target -->
<g id="node14" class="node">
<title>Roa:Target</title>
<ellipse fill="none" stroke="#0000ff" cx="1249.4619" cy="-707" rx="44.393" ry="18"/>
<text text-anchor="middle" x="1249.4619" y="-703.3" font-family="Times,serif" font-size="14.00" fill="#000000">oa:Target</text>
</g>
<!-- B_:node1f26ai8ibx6&#45;&gt;Roa:Target -->
<g id="edge14" class="edge">
<title>B_:node1f26ai8ibx6&#45;&gt;Roa:Target</title>
<path fill="none" stroke="#000000" d="M841.3758,-681.1429C901.9011,-684.9779 1099.3493,-697.4886 1195.6584,-703.5909"/>
<polygon fill="#000000" stroke="#000000" points="1195.5705,-707.0923 1205.7718,-704.2317 1196.0132,-700.1063 1195.5705,-707.0923"/>
<text text-anchor="middle" x="1000.3281" y="-696.8" font-family="Times,serif" font-size="14.00" fill="#000000">rdf:type</text>
</g>
<!-- Limage/jpeg -->
<g id="node15" class="node">
<title>Limage/jpeg</title>
<polygon fill="none" stroke="#000000" points="1210.9619,-634 1210.9619,-670 1287.9619,-670 1287.9619,-634 1210.9619,-634"/>
<text text-anchor="middle" x="1249.4619" y="-648.3" font-family="Times,serif" font-size="14.00" fill="#000000">image/jpeg</text>
</g>
<!-- B_:node1f26ai8ibx6&#45;&gt;Limage/jpeg -->
<g id="edge15" class="edge">
<title>B_:node1f26ai8ibx6&#45;&gt;Limage/jpeg</title>
<path fill="none" stroke="#000000" d="M841.6241,-678.2703C866.5311,-675.9519 912.5236,-671.8043 951.8281,-669 1039.4907,-662.7454 1141.809,-657.3087 1200.7722,-654.3567"/>
<polygon fill="#000000" stroke="#000000" points="1201.0978,-657.8449 1210.9115,-653.8522 1200.7499,-650.8536 1201.0978,-657.8449"/>
<text text-anchor="middle" x="1000.3281" y="-672.8" font-family="Times,serif" font-size="14.00" fill="#000000">dcterms:format</text>
</g>
<!-- B_:node1f26ai8ibx9 -->
<g id="node16" class="node">
<title>B_:node1f26ai8ibx9</title>
<ellipse fill="none" stroke="#00ff00" cx="1249.4619" cy="-597" rx="18" ry="18"/>
</g>
<!-- B_:node1f26ai8ibx6&#45;&gt;B_:node1f26ai8ibx9 -->
<g id="edge16" class="edge">
<title>B_:node1f26ai8ibx6&#45;&gt;B_:node1f26ai8ibx9</title>
<path fill="none" stroke="#000000" d="M841.3075,-676.8937C863.4783,-672.7708 902.1276,-664.6312 933.8281,-653 942.2251,-649.9191 943.3321,-646.7959 951.8281,-644 1047.3621,-612.5615 1167.2687,-601.8356 1221.0598,-598.4433"/>
<polygon fill="#000000" stroke="#000000" points="1221.4309,-601.9276 1231.2064,-597.8422 1221.0169,-594.9398 1221.4309,-601.9276"/>
<text text-anchor="middle" x="1000.3281" y="-647.8" font-family="Times,serif" font-size="14.00" fill="#000000">oa:hasSelector</text>
</g>
<!-- Rimg:MMNAT01_AF_NNM001001033_003.jpg -->
<g id="node20" class="node">
<title>Rimg:MMNAT01_AF_NNM001001033_003.jpg</title>
<ellipse fill="none" stroke="#0000ff" cx="1249.4619" cy="-434" rx="182.7677" ry="18"/>
<text text-anchor="middle" x="1249.4619" y="-430.3" font-family="Times,serif" font-size="14.00" fill="#000000">img:MMNAT01_AF_NNM001001033_003.jpg</text>
</g>
<!-- B_:node1f26ai8ibx6&#45;&gt;Rimg:MMNAT01_AF_NNM001001033_003.jpg -->
<g id="edge20" class="edge">
<title>B_:node1f26ai8ibx6&#45;&gt;Rimg:MMNAT01_AF_NNM001001033_003.jpg</title>
<path fill="none" stroke="#000000" d="M841.4358,-680.5929C865.5433,-680.3859 908.1307,-676.3987 933.8281,-653 951.9114,-636.5343 936.141,-619.7626 951.8281,-601 1013.8612,-526.8054 1117.785,-479.3334 1184.9637,-454.6694"/>
<polygon fill="#000000" stroke="#000000" points="1186.3792,-457.8797 1194.5994,-451.1955 1184.005,-451.2946 1186.3792,-457.8797"/>
<text text-anchor="middle" x="1000.3281" y="-604.8" font-family="Times,serif" font-size="14.00" fill="#000000">oa:hasSource</text>
</g>
<!-- Roa:FragmentSelector -->
<g id="node17" class="node">
<title>Roa:FragmentSelector</title>
<ellipse fill="none" stroke="#0000ff" cx="1870.0957" cy="-679" rx="84.485" ry="18"/>
<text text-anchor="middle" x="1870.0957" y="-675.3" font-family="Times,serif" font-size="14.00" fill="#000000">oa:FragmentSelector</text>
</g>
<!-- B_:node1f26ai8ibx9&#45;&gt;Roa:FragmentSelector -->
<g id="edge17" class="edge">
<title>B_:node1f26ai8ibx9&#45;&gt;Roa:FragmentSelector</title>
<path fill="none" stroke="#000000" d="M1267.5478,-598.6146C1300.5716,-601.7961 1372.7047,-609.8267 1432.0957,-624 1440.2981,-625.9575 1441.9104,-627.9723 1450.0957,-630 1560.4506,-657.3381 1690.9933,-669.5321 1776.9119,-674.9001"/>
<polygon fill="#000000" stroke="#000000" points="1776.71,-678.3942 1786.9036,-675.5061 1777.1339,-671.407 1776.71,-678.3942"/>
<text text-anchor="middle" x="1507.5957" y="-655.8" font-family="Times,serif" font-size="14.00" fill="#000000">rdf:type</text>
</g>
<!-- Rmf: -->
<g id="node18" class="node">
<title>Rmf:</title>
<ellipse fill="none" stroke="#0000ff" cx="1870.0957" cy="-625" rx="27" ry="18"/>
<text text-anchor="middle" x="1870.0957" y="-621.3" font-family="Times,serif" font-size="14.00" fill="#000000">mf:</text>
</g>
<!-- B_:node1f26ai8ibx9&#45;&gt;Rmf: -->
<g id="edge18" class="edge">
<title>B_:node1f26ai8ibx9&#45;&gt;Rmf:</title>
<path fill="none" stroke="#000000" d="M1267.7002,-597.8228C1353.1317,-601.6771 1714.5288,-617.9816 1832.6037,-623.3085"/>
<polygon fill="#000000" stroke="#000000" points="1832.7873,-626.8203 1842.9349,-623.7746 1833.1028,-619.8274 1832.7873,-626.8203"/>
<text text-anchor="middle" x="1507.5957" y="-614.8" font-family="Times,serif" font-size="14.00" fill="#000000">dcterms:conformsTo</text>
</g>
<!-- Lxywh=0.6222427138577663,0.025690113172811516,0.024116347569955843,0.01804123711340206 -->
<g id="node19" class="node">
<title>Lxywh=0.6222427138577663,0.025690113172811516,0.024116347569955843,0.01804123711340206</title>
<polygon fill="none" stroke="#000000" points="1583.0957,-552 1583.0957,-588 2157.0957,-588 2157.0957,-552 1583.0957,-552"/>
<text text-anchor="middle" x="1870.0957" y="-566.3" font-family="Times,serif" font-size="14.00" fill="#000000">xywh=0.6222427138577663,0.025690113172811516,0.024116347569955843,0.01804123711340206</text>
</g>
<!-- B_:node1f26ai8ibx9&#45;&gt;Lxywh=0.6222427138577663,0.025690113172811516,0.024116347569955843,0.01804123711340206 -->
<g id="edge19" class="edge">
<title>B_:node1f26ai8ibx9&#45;&gt;Lxywh=0.6222427138577663,0.025690113172811516,0.024116347569955843,0.01804123711340206</title>
<path fill="none" stroke="#000000" d="M1267.4462,-596.1812C1302.5571,-594.5853 1382.6923,-590.9561 1450.0957,-588 1489.7537,-586.2607 1531.5189,-584.448 1572.7058,-582.6715"/>
<polygon fill="#000000" stroke="#000000" points="1573.0404,-586.1604 1582.8803,-582.2328 1572.7388,-579.1669 1573.0404,-586.1604"/>
<text text-anchor="middle" x="1507.5957" y="-591.8" font-family="Times,serif" font-size="14.00" fill="#000000">rdf:value</text>
</g>
<!-- Rdcmitype:StillImage -->
<g id="node22" class="node">
<title>Rdcmitype:StillImage</title>
<ellipse fill="none" stroke="#0000ff" cx="1870.0957" cy="-515" rx="83.3857" ry="18"/>
<text text-anchor="middle" x="1870.0957" y="-511.3" font-family="Times,serif" font-size="14.00" fill="#000000">dcmitype:StillImage</text>
</g>
<!-- Rimg:MMNAT01_AF_NNM001001033_003.jpg&#45;&gt;Rdcmitype:StillImage -->
<g id="edge23" class="edge">
<title>Rimg:MMNAT01_AF_NNM001001033_003.jpg&#45;&gt;Rdcmitype:StillImage</title>
<path fill="none" stroke="#000000" d="M1342.8418,-449.4867C1376.625,-455.0558 1415.071,-461.3545 1450.0957,-467 1509.1766,-476.523 1523.7207,-480.5271 1583.0957,-488 1649.4945,-496.3569 1724.8341,-503.3503 1781.6572,-508.1244"/>
<polygon fill="#000000" stroke="#000000" points="1781.4301,-511.6175 1791.6862,-508.9602 1782.0114,-504.6417 1781.4301,-511.6175"/>
<text text-anchor="middle" x="1507.5957" y="-489.8" font-family="Times,serif" font-size="14.00" fill="#000000">rdf:type</text>
</g>
<!-- Rdsw:Token -->
<g id="node23" class="node">
<title>Rdsw:Token</title>
<ellipse fill="none" stroke="#0000ff" cx="1870.0957" cy="-461" rx="50.0912" ry="18"/>
<text text-anchor="middle" x="1870.0957" y="-457.3" font-family="Times,serif" font-size="14.00" fill="#000000">dsw:Token</text>
</g>
<!-- Rimg:MMNAT01_AF_NNM001001033_003.jpg&#45;&gt;Rdsw:Token -->
<g id="edge24" class="edge">
<title>Rimg:MMNAT01_AF_NNM001001033_003.jpg&#45;&gt;Rdsw:Token</title>
<path fill="none" stroke="#000000" d="M1416.5968,-441.271C1546.9276,-446.9409 1720.4159,-454.4883 1810.3487,-458.4008"/>
<polygon fill="#000000" stroke="#000000" points="1810.2243,-461.8986 1820.367,-458.8366 1810.5286,-454.9052 1810.2243,-461.8986"/>
<text text-anchor="middle" x="1507.5957" y="-451.8" font-family="Times,serif" font-size="14.00" fill="#000000">rdf:type</text>
</g>
<!-- Rdwc:HumanObservation -->
<g id="node24" class="node">
<title>Rdwc:HumanObservation</title>
<ellipse fill="none" stroke="#0000ff" cx="1870.0957" cy="-407" rx="96.6831" ry="18"/>
<text text-anchor="middle" x="1870.0957" y="-403.3" font-family="Times,serif" font-size="14.00" fill="#000000">dwc:HumanObservation</text>
</g>
<!-- Rimg:MMNAT01_AF_NNM001001033_003.jpg&#45;&gt;Rdwc:HumanObservation -->
<g id="edge25" class="edge">
<title>Rimg:MMNAT01_AF_NNM001001033_003.jpg&#45;&gt;Rdwc:HumanObservation</title>
<path fill="none" stroke="#000000" d="M1412.0639,-425.7666C1424.9314,-425.1544 1437.7275,-424.5585 1450.0957,-424 1557.2789,-419.1598 1679.8788,-414.272 1764.8351,-410.9877"/>
<polygon fill="#000000" stroke="#000000" points="1765.1478,-414.4784 1775.0054,-410.5953 1764.8778,-407.4836 1765.1478,-414.4784"/>
<text text-anchor="middle" x="1507.5957" y="-427.8" font-family="Times,serif" font-size="14.00" fill="#000000">rdf:type</text>
</g>
<!-- Roa:Source -->
<g id="node25" class="node">
<title>Roa:Source</title>
<ellipse fill="none" stroke="#0000ff" cx="1870.0957" cy="-353" rx="46.2923" ry="18"/>
<text text-anchor="middle" x="1870.0957" y="-349.3" font-family="Times,serif" font-size="14.00" fill="#000000">oa:Source</text>
</g>
<!-- Rimg:MMNAT01_AF_NNM001001033_003.jpg&#45;&gt;Roa:Source -->
<g id="edge26" class="edge">
<title>Rimg:MMNAT01_AF_NNM001001033_003.jpg&#45;&gt;Roa:Source</title>
<path fill="none" stroke="#000000" d="M1342.8418,-418.5133C1376.625,-412.9442 1415.071,-406.6455 1450.0957,-401 1509.1766,-391.477 1523.7207,-387.4729 1583.0957,-380 1663.4301,-369.8892 1756.8519,-361.7743 1814.734,-357.1708"/>
<polygon fill="#000000" stroke="#000000" points="1815.0712,-360.6552 1824.7651,-356.3799 1814.5209,-353.6768 1815.0712,-360.6552"/>
<text text-anchor="middle" x="1507.5957" y="-404.8" font-family="Times,serif" font-size="14.00" fill="#000000">rdf:type</text>
</g>
<!-- Rfoaf:Image -->
<g id="node26" class="node">
<title>Rfoaf:Image</title>
<ellipse fill="none" stroke="#0000ff" cx="1870.0957" cy="-299" rx="50.0912" ry="18"/>
<text text-anchor="middle" x="1870.0957" y="-295.3" font-family="Times,serif" font-size="14.00" fill="#000000">foaf:Image</text>
</g>
<!-- Rimg:MMNAT01_AF_NNM001001033_003.jpg&#45;&gt;Rfoaf:Image -->
<g id="edge27" class="edge">
<title>Rimg:MMNAT01_AF_NNM001001033_003.jpg&#45;&gt;Rfoaf:Image</title>
<path fill="none" stroke="#000000" d="M1297.039,-416.5357C1337.5301,-401.881 1397.3458,-380.7226 1450.0957,-364 1508.698,-345.4221 1522.6802,-337.3718 1583.0957,-326 1660.6947,-311.3938 1751.6583,-304.5358 1810.0373,-301.4235"/>
<polygon fill="#000000" stroke="#000000" points="1810.3829,-304.9105 1820.1904,-300.9025 1810.0241,-297.9197 1810.3829,-304.9105"/>
<text text-anchor="middle" x="1507.5957" y="-367.8" font-family="Times,serif" font-size="14.00" fill="#000000">rdf:type</text>
</g>
</g>
</svg>
