<?xml version="1.0" encoding="UTF-8" standalone="no"?>
<!DOCTYPE svg PUBLIC "-//W3C//DTD SVG 1.1//EN"
 "http://www.w3.org/Graphics/SVG/1.1/DTD/svg11.dtd">
<!-- Generated by graphviz version 2.40.1 (20161225.0304)
 -->
<!-- Title: %3 Pages: 1 -->
<svg width="2190pt" height="1133pt"
 viewBox="0.00 0.00 2189.70 1133.00" xmlns="http://www.w3.org/2000/svg" xmlns:xlink="http://www.w3.org/1999/xlink">
<g id="graph0" class="graph" transform="scale(1 1) rotate(0) translate(4 1129)">
<title>%3</title>
<polygon fill="#ffffff" stroke="transparent" points="-4,4 -4,-1129 2185.6955,-1129 2185.6955,4 -4,4"/>
<text text-anchor="middle" x="1090.8478" y="-218.8" font-family="Times,serif" font-size="14.00" fill="#000000">Model:</text>
<text text-anchor="middle" x="1090.8478" y="-203.8" font-family="Times,serif" font-size="14.00" fill="#000000">(Unknown)</text>
<text text-anchor="middle" x="1090.8478" y="-172.8" font-family="Times,serif" font-size="14.00" fill="#000000">Namespaces:</text>
<text text-anchor="middle" x="1090.8478" y="-157.8" font-family="Times,serif" font-size="14.00" fill="#000000">dcmitype: http://purl.org/dc/dcmitype/</text>
<text text-anchor="middle" x="1090.8478" y="-142.8" font-family="Times,serif" font-size="14.00" fill="#000000">dcterms: http://purl.org/dc/terms/</text>
<text text-anchor="middle" x="1090.8478" y="-127.8" font-family="Times,serif" font-size="14.00" fill="#000000">dsw: http://purl.org/dsw/</text>
<text text-anchor="middle" x="1090.8478" y="-112.8" font-family="Times,serif" font-size="14.00" fill="#000000">dwc: http://rs.tdwg.org/dwc/terms/</text>
<text text-anchor="middle" x="1090.8478" y="-97.8" font-family="Times,serif" font-size="14.00" fill="#000000">foaf: http://xmlns.com/foaf/0.1/</text>
<text text-anchor="middle" x="1090.8478" y="-82.8" font-family="Times,serif" font-size="14.00" fill="#000000">img: http://localhost:8080/semanticAnnotator/files/</text>
<text text-anchor="middle" x="1090.8478" y="-67.8" font-family="Times,serif" font-size="14.00" fill="#000000">iso: http://iso639&#45;3.sil.org/code/</text>
<text text-anchor="middle" x="1090.8478" y="-52.8" font-family="Times,serif" font-size="14.00" fill="#000000">mf: http://www.w3.org/TR/media&#45;frags/</text>
<text text-anchor="middle" x="1090.8478" y="-37.8" font-family="Times,serif" font-size="14.00" fill="#000000">oa: http://www.w3.org/ns/oa#</text>
<text text-anchor="middle" x="1090.8478" y="-22.8" font-family="Times,serif" font-size="14.00" fill="#000000">orcid: http://orcid.org/</text>
<text text-anchor="middle" x="1090.8478" y="-7.8" font-family="Times,serif" font-size="14.00" fill="#000000">rdf: http://www.w3.org/1999/02/22&#45;rdf&#45;syntax&#45;ns#</text>
<!-- Rhttp://localhost:8080/rdf/nc/annotation/1a10a71c&#45;3631&#45;4da2&#45;9b44&#45;7ff31d338159 -->
<g id="node1" class="node">
<title>Rhttp://localhost:8080/rdf/nc/annotation/1a10a71c&#45;3631&#45;4da2&#45;9b44&#45;7ff31d338159</title>
<ellipse fill="none" stroke="#0000ff" cx="295.7238" cy="-893" rx="295.9477" ry="18"/>
<text text-anchor="middle" x="295.7238" y="-889.3" font-family="Times,serif" font-size="14.00" fill="#000000">http://localhost:8080/rdf/nc/annotation/1a10a71c&#45;3631&#45;4da2&#45;9b44&#45;7ff31d338159</text>
</g>
<!-- Roa:Annotation -->
<g id="node2" class="node">
<title>Roa:Annotation</title>
<ellipse fill="none" stroke="#0000ff" cx="825.9377" cy="-1026" rx="61.1893" ry="18"/>
<text text-anchor="middle" x="825.9377" y="-1022.3" font-family="Times,serif" font-size="14.00" fill="#000000">oa:Annotation</text>
</g>
<!-- Rhttp://localhost:8080/rdf/nc/annotation/1a10a71c&#45;3631&#45;4da2&#45;9b44&#45;7ff31d338159&#45;&gt;Roa:Annotation -->
<g id="edge1" class="edge">
<title>Rhttp://localhost:8080/rdf/nc/annotation/1a10a71c&#45;3631&#45;4da2&#45;9b44&#45;7ff31d338159&#45;&gt;Roa:Annotation</title>
<path fill="none" stroke="#000000" d="M364.3875,-910.5135C447.4727,-931.6654 591.6334,-968.2381 715.4475,-999 732.7491,-1003.2986 751.5892,-1007.9233 768.7308,-1012.1095"/>
<polygon fill="#000000" stroke="#000000" points="768.0581,-1015.548 778.6028,-1014.5178 769.7172,-1008.7474 768.0581,-1015.548"/>
<text text-anchor="middle" x="653.4475" y="-996.8" font-family="Times,serif" font-size="14.00" fill="#000000">rdf:type</text>
</g>
<!-- Rorcid:0000&#45;0002&#45;2146&#45;4803 -->
<g id="node3" class="node">
<title>Rorcid:0000&#45;0002&#45;2146&#45;4803</title>
<ellipse fill="none" stroke="#0000ff" cx="825.9377" cy="-972" rx="110.4804" ry="18"/>
<text text-anchor="middle" x="825.9377" y="-968.3" font-family="Times,serif" font-size="14.00" fill="#000000">orcid:0000&#45;0002&#45;2146&#45;4803</text>
</g>
<!-- Rhttp://localhost:8080/rdf/nc/annotation/1a10a71c&#45;3631&#45;4da2&#45;9b44&#45;7ff31d338159&#45;&gt;Rorcid:0000&#45;0002&#45;2146&#45;4803 -->
<g id="edge2" class="edge">
<title>Rhttp://localhost:8080/rdf/nc/annotation/1a10a71c&#45;3631&#45;4da2&#45;9b44&#45;7ff31d338159&#45;&gt;Rorcid:0000&#45;0002&#45;2146&#45;4803</title>
<path fill="none" stroke="#000000" d="M407.8444,-909.7056C504.9488,-924.1738 643.6841,-944.8449 734.2713,-958.342"/>
<polygon fill="#000000" stroke="#000000" points="733.8446,-961.817 744.2512,-959.829 734.8762,-954.8934 733.8446,-961.817"/>
<text text-anchor="middle" x="653.4475" y="-953.8" font-family="Times,serif" font-size="14.00" fill="#000000">dcterms:creator</text>
</g>
<!-- L2021&#45;01&#45;12T14:23:11.646Z|Datatype: dcterms:W3CDTF -->
<g id="node4" class="node">
<title>L2021&#45;01&#45;12T14:23:11.646Z|Datatype: dcterms:W3CDTF</title>
<polygon fill="none" stroke="#000000" points="738.4377,-889 738.4377,-935 913.4377,-935 913.4377,-889 738.4377,-889"/>
<text text-anchor="middle" x="825.9377" y="-919.8" font-family="Times,serif" font-size="14.00" fill="#000000">2021&#45;01&#45;12T14:23:11.646Z</text>
<polyline fill="none" stroke="#000000" points="738.4377,-912 913.4377,-912 "/>
<text text-anchor="middle" x="825.9377" y="-896.8" font-family="Times,serif" font-size="14.00" fill="#000000">Datatype: dcterms:W3CDTF</text>
</g>
<!-- Rhttp://localhost:8080/rdf/nc/annotation/1a10a71c&#45;3631&#45;4da2&#45;9b44&#45;7ff31d338159&#45;&gt;L2021&#45;01&#45;12T14:23:11.646Z|Datatype: dcterms:W3CDTF -->
<g id="edge3" class="edge">
<title>Rhttp://localhost:8080/rdf/nc/annotation/1a10a71c&#45;3631&#45;4da2&#45;9b44&#45;7ff31d338159&#45;&gt;L2021&#45;01&#45;12T14:23:11.646Z|Datatype: dcterms:W3CDTF</title>
<path fill="none" stroke="#000000" d="M550.7361,-902.1383C613.9021,-904.4018 677.8334,-906.6927 728.1583,-908.4961"/>
<polygon fill="#000000" stroke="#000000" points="728.2421,-912.0013 738.361,-908.8617 728.4928,-905.0058 728.2421,-912.0013"/>
<text text-anchor="middle" x="653.4475" y="-909.8" font-family="Times,serif" font-size="14.00" fill="#000000">dcterms:date</text>
</g>
<!-- B_:node1evfnhjrix2 -->
<g id="node5" class="node">
<title>B_:node1evfnhjrix2</title>
<ellipse fill="none" stroke="#00ff00" cx="825.9377" cy="-852" rx="18" ry="18"/>
</g>
<!-- Rhttp://localhost:8080/rdf/nc/annotation/1a10a71c&#45;3631&#45;4da2&#45;9b44&#45;7ff31d338159&#45;&gt;B_:node1evfnhjrix2 -->
<g id="edge4" class="edge">
<title>Rhttp://localhost:8080/rdf/nc/annotation/1a10a71c&#45;3631&#45;4da2&#45;9b44&#45;7ff31d338159&#45;&gt;B_:node1evfnhjrix2</title>
<path fill="none" stroke="#000000" d="M478.9358,-878.8327C596.7238,-869.7245 738.4291,-858.7668 797.7101,-854.1828"/>
<polygon fill="#000000" stroke="#000000" points="798.0953,-857.6635 807.7957,-853.4029 797.5556,-850.6844 798.0953,-857.6635"/>
<text text-anchor="middle" x="653.4475" y="-870.8" font-family="Times,serif" font-size="14.00" fill="#000000">oa:hasBody</text>
</g>
<!-- B_:node1evfnhjrix1 -->
<g id="node12" class="node">
<title>B_:node1evfnhjrix1</title>
<ellipse fill="none" stroke="#00ff00" cx="825.9377" cy="-665" rx="18" ry="18"/>
</g>
<!-- Rhttp://localhost:8080/rdf/nc/annotation/1a10a71c&#45;3631&#45;4da2&#45;9b44&#45;7ff31d338159&#45;&gt;B_:node1evfnhjrix1 -->
<g id="edge12" class="edge">
<title>Rhttp://localhost:8080/rdf/nc/annotation/1a10a71c&#45;3631&#45;4da2&#45;9b44&#45;7ff31d338159&#45;&gt;B_:node1evfnhjrix1</title>
<path fill="none" stroke="#000000" d="M337.3288,-875.1092C442.0626,-830.0721 714.3348,-712.9909 799.8446,-676.2204"/>
<polygon fill="#000000" stroke="#000000" points="801.2973,-679.4057 809.1013,-672.2399 798.532,-672.975 801.2973,-679.4057"/>
<text text-anchor="middle" x="653.4475" y="-754.8" font-family="Times,serif" font-size="14.00" fill="#000000">oa:hasTarget</text>
</g>
<!-- Roa:describing -->
<g id="node20" class="node">
<title>Roa:describing</title>
<ellipse fill="none" stroke="#0000ff" cx="825.9377" cy="-611" rx="57.6901" ry="18"/>
<text text-anchor="middle" x="825.9377" y="-607.3" font-family="Times,serif" font-size="14.00" fill="#000000">oa:describing</text>
</g>
<!-- Rhttp://localhost:8080/rdf/nc/annotation/1a10a71c&#45;3631&#45;4da2&#45;9b44&#45;7ff31d338159&#45;&gt;Roa:describing -->
<g id="edge20" class="edge">
<title>Rhttp://localhost:8080/rdf/nc/annotation/1a10a71c&#45;3631&#45;4da2&#45;9b44&#45;7ff31d338159&#45;&gt;Roa:describing</title>
<path fill="none" stroke="#000000" d="M319.382,-874.9757C381.1219,-828.7786 553.5771,-705.0695 715.4475,-638 731.1591,-631.49 748.8047,-626.3044 765.3047,-622.2888"/>
<polygon fill="#000000" stroke="#000000" points="766.4565,-625.6143 775.4027,-619.9384 764.8695,-618.7966 766.4565,-625.6143"/>
<text text-anchor="middle" x="653.4475" y="-686.8" font-family="Times,serif" font-size="14.00" fill="#000000">oa:motivatedBy</text>
</g>
<!-- Rfoaf:Person -->
<g id="node21" class="node">
<title>Rfoaf:Person</title>
<ellipse fill="none" stroke="#0000ff" cx="1288.0617" cy="-1095" rx="51.1914" ry="18"/>
<text text-anchor="middle" x="1288.0617" y="-1091.3" font-family="Times,serif" font-size="14.00" fill="#000000">foaf:Person</text>
</g>
<!-- Rorcid:0000&#45;0002&#45;2146&#45;4803&#45;&gt;Rfoaf:Person -->
<g id="edge21" class="edge">
<title>Rorcid:0000&#45;0002&#45;2146&#45;4803&#45;&gt;Rfoaf:Person</title>
<path fill="none" stroke="#000000" d="M912.1,-983.3118C921.0569,-987.2108 929.4262,-992.3217 936.4279,-999 956.8823,-1018.5097 932.7028,-1041.9159 954.4279,-1060 1033.2491,-1125.6112 1161.491,-1117.5208 1233.872,-1106.077"/>
<polygon fill="#000000" stroke="#000000" points="1234.842,-1109.464 1244.1333,-1104.3726 1233.695,-1102.5586 1234.842,-1109.464"/>
<text text-anchor="middle" x="1020.9279" y="-1113.8" font-family="Times,serif" font-size="14.00" fill="#000000">rdf:type</text>
</g>
<!-- Rdwc:Event -->
<g id="node6" class="node">
<title>Rdwc:Event</title>
<ellipse fill="none" stroke="#0000ff" cx="1288.0617" cy="-1041" rx="48.1917" ry="18"/>
<text text-anchor="middle" x="1288.0617" y="-1037.3" font-family="Times,serif" font-size="14.00" fill="#000000">dwc:Event</text>
</g>
<!-- B_:node1evfnhjrix2&#45;&gt;Rdwc:Event -->
<g id="edge5" class="edge">
<title>B_:node1evfnhjrix2&#45;&gt;Rdwc:Event</title>
<path fill="none" stroke="#000000" d="M844.1597,-851.0591C868.8107,-850.8562 912.4511,-854.467 936.4279,-880 966.1441,-911.6448 924.6856,-944.3798 954.4279,-976 991.2889,-1015.1884 1144.8968,-1031.5275 1230.244,-1037.6858"/>
<polygon fill="#000000" stroke="#000000" points="1230.082,-1041.1829 1240.3013,-1038.3872 1230.5691,-1034.1999 1230.082,-1041.1829"/>
<text text-anchor="middle" x="1020.9279" y="-1024.8" font-family="Times,serif" font-size="14.00" fill="#000000">rdf:type</text>
</g>
<!-- Roa:TextualBody -->
<g id="node7" class="node">
<title>Roa:TextualBody</title>
<ellipse fill="none" stroke="#0000ff" cx="1288.0617" cy="-987" rx="67.6881" ry="18"/>
<text text-anchor="middle" x="1288.0617" y="-983.3" font-family="Times,serif" font-size="14.00" fill="#000000">oa:TextualBody</text>
</g>
<!-- B_:node1evfnhjrix2&#45;&gt;Roa:TextualBody -->
<g id="edge6" class="edge">
<title>B_:node1evfnhjrix2&#45;&gt;Roa:TextualBody</title>
<path fill="none" stroke="#000000" d="M844.2711,-851.814C868.2532,-852.5426 910.2865,-857.2871 936.4279,-880 952.3774,-893.8576 938.3808,-910.2555 954.4279,-924 1006.827,-968.8802 1037.6828,-946.9426 1105.4279,-960 1141.7935,-967.0092 1182.5379,-973.1916 1216.2999,-977.8656"/>
<polygon fill="#000000" stroke="#000000" points="1216.1588,-981.3789 1226.541,-979.267 1217.1079,-974.4435 1216.1588,-981.3789"/>
<text text-anchor="middle" x="1020.9279" y="-960.8" font-family="Times,serif" font-size="14.00" fill="#000000">rdf:type</text>
</g>
<!-- Ltext/plain -->
<g id="node8" class="node">
<title>Ltext/plain</title>
<polygon fill="none" stroke="#000000" points="1254.0617,-914 1254.0617,-950 1322.0617,-950 1322.0617,-914 1254.0617,-914"/>
<text text-anchor="middle" x="1288.0617" y="-928.3" font-family="Times,serif" font-size="14.00" fill="#000000">text/plain</text>
</g>
<!-- B_:node1evfnhjrix2&#45;&gt;Ltext/plain -->
<g id="edge7" class="edge">
<title>B_:node1evfnhjrix2&#45;&gt;Ltext/plain</title>
<path fill="none" stroke="#000000" d="M843.4749,-856.4726C876.0398,-864.7623 943.5428,-881.8672 954.4279,-884 1057.2412,-904.1449 1179.4263,-919.5894 1243.603,-927.0553"/>
<polygon fill="#000000" stroke="#000000" points="1243.4334,-930.5589 1253.7686,-928.2275 1244.2353,-923.605 1243.4334,-930.5589"/>
<text text-anchor="middle" x="1020.9279" y="-908.8" font-family="Times,serif" font-size="14.00" fill="#000000">dcterms:format</text>
</g>
<!-- Riso:ger -->
<g id="node9" class="node">
<title>Riso:ger</title>
<ellipse fill="none" stroke="#0000ff" cx="1288.0617" cy="-877" rx="34.394" ry="18"/>
<text text-anchor="middle" x="1288.0617" y="-873.3" font-family="Times,serif" font-size="14.00" fill="#000000">iso:ger</text>
</g>
<!-- B_:node1evfnhjrix2&#45;&gt;Riso:ger -->
<g id="edge8" class="edge">
<title>B_:node1evfnhjrix2&#45;&gt;Riso:ger</title>
<path fill="none" stroke="#000000" d="M844.0535,-852.98C910.872,-856.5948 1144.7367,-869.2464 1243.5038,-874.5895"/>
<polygon fill="#000000" stroke="#000000" points="1243.573,-878.0983 1253.7475,-875.1437 1243.9512,-871.1085 1243.573,-878.0983"/>
<text text-anchor="middle" x="1020.9279" y="-868.8" font-family="Times,serif" font-size="14.00" fill="#000000">dcterms:language</text>
</g>
<!-- L1821&#45;04&#45;10|Datatype: dcterms:W3CDTF -->
<g id="node10" class="node">
<title>L1821&#45;04&#45;10|Datatype: dcterms:W3CDTF</title>
<polygon fill="none" stroke="#000000" points="1200.5617,-794 1200.5617,-840 1375.5617,-840 1375.5617,-794 1200.5617,-794"/>
<text text-anchor="middle" x="1288.0617" y="-824.8" font-family="Times,serif" font-size="14.00" fill="#000000">1821&#45;04&#45;10</text>
<polyline fill="none" stroke="#000000" points="1200.5617,-817 1375.5617,-817 "/>
<text text-anchor="middle" x="1288.0617" y="-801.8" font-family="Times,serif" font-size="14.00" fill="#000000">Datatype: dcterms:W3CDTF</text>
</g>
<!-- B_:node1evfnhjrix2&#45;&gt;L1821&#45;04&#45;10|Datatype: dcterms:W3CDTF -->
<g id="edge9" class="edge">
<title>B_:node1evfnhjrix2&#45;&gt;L1821&#45;04&#45;10|Datatype: dcterms:W3CDTF</title>
<path fill="none" stroke="#000000" d="M844.2245,-850.1512C869.1321,-847.6653 915.1254,-843.1895 954.4279,-840 1033.829,-833.5564 1123.9564,-827.4129 1190.5039,-823.0989"/>
<polygon fill="#000000" stroke="#000000" points="1190.8079,-826.5866 1200.5614,-822.4492 1190.3566,-819.6012 1190.8079,-826.5866"/>
<text text-anchor="middle" x="1020.9279" y="-843.8" font-family="Times,serif" font-size="14.00" fill="#000000">dwc:eventDate</text>
</g>
<!-- L10 April 1821|Language: ger -->
<g id="node11" class="node">
<title>L10 April 1821|Language: ger</title>
<polygon fill="none" stroke="#000000" points="1240.5617,-729 1240.5617,-775 1335.5617,-775 1335.5617,-729 1240.5617,-729"/>
<text text-anchor="middle" x="1288.0617" y="-759.8" font-family="Times,serif" font-size="14.00" fill="#000000">10 April 1821</text>
<polyline fill="none" stroke="#000000" points="1240.5617,-752 1335.5617,-752 "/>
<text text-anchor="middle" x="1288.0617" y="-736.8" font-family="Times,serif" font-size="14.00" fill="#000000">Language: ger</text>
</g>
<!-- B_:node1evfnhjrix2&#45;&gt;L10 April 1821|Language: ger -->
<g id="edge10" class="edge">
<title>B_:node1evfnhjrix2&#45;&gt;L10 April 1821|Language: ger</title>
<path fill="none" stroke="#000000" d="M843.1841,-845.682C867.6495,-836.9073 913.9625,-820.9864 954.4279,-811 1050.1659,-787.3729 1163.5899,-769.3891 1230.4798,-759.7896"/>
<polygon fill="#000000" stroke="#000000" points="1230.9971,-763.2514 1240.4045,-758.3779 1230.0113,-756.3211 1230.9971,-763.2514"/>
<text text-anchor="middle" x="1020.9279" y="-814.8" font-family="Times,serif" font-size="14.00" fill="#000000">dwc:verbatimEventDate</text>
</g>
<!-- B_:node1evfnhjrix2&#45;&gt;L10 April 1821|Language: ger -->
<g id="edge11" class="edge">
<title>B_:node1evfnhjrix2&#45;&gt;L10 April 1821|Language: ger</title>
<path fill="none" stroke="#000000" d="M839.1783,-839.2217C861.0593,-819.0533 907.0735,-780.5387 954.4279,-765 1047.2853,-734.5301 1162.5396,-738.5553 1230.4165,-744.8557"/>
<polygon fill="#000000" stroke="#000000" points="1230.1928,-748.3505 1240.4858,-745.8397 1230.8736,-741.3837 1230.1928,-748.3505"/>
<text text-anchor="middle" x="1020.9279" y="-768.8" font-family="Times,serif" font-size="14.00" fill="#000000">rdf:value</text>
</g>
<!-- Roa:Target -->
<g id="node13" class="node">
<title>Roa:Target</title>
<ellipse fill="none" stroke="#0000ff" cx="1288.0617" cy="-692" rx="44.393" ry="18"/>
<text text-anchor="middle" x="1288.0617" y="-688.3" font-family="Times,serif" font-size="14.00" fill="#000000">oa:Target</text>
</g>
<!-- B_:node1evfnhjrix1&#45;&gt;Roa:Target -->
<g id="edge13" class="edge">
<title>B_:node1evfnhjrix1&#45;&gt;Roa:Target</title>
<path fill="none" stroke="#000000" d="M844.0535,-666.0584C908.8293,-669.843 1130.5936,-682.7998 1234.0752,-688.8458"/>
<polygon fill="#000000" stroke="#000000" points="1234.1201,-692.3543 1244.3073,-689.4436 1234.5285,-685.3662 1234.1201,-692.3543"/>
<text text-anchor="middle" x="1020.9279" y="-683.8" font-family="Times,serif" font-size="14.00" fill="#000000">rdf:type</text>
</g>
<!-- Limage/jpeg -->
<g id="node14" class="node">
<title>Limage/jpeg</title>
<polygon fill="none" stroke="#000000" points="1249.5617,-619 1249.5617,-655 1326.5617,-655 1326.5617,-619 1249.5617,-619"/>
<text text-anchor="middle" x="1288.0617" y="-633.3" font-family="Times,serif" font-size="14.00" fill="#000000">image/jpeg</text>
</g>
<!-- B_:node1evfnhjrix1&#45;&gt;Limage/jpeg -->
<g id="edge14" class="edge">
<title>B_:node1evfnhjrix1&#45;&gt;Limage/jpeg</title>
<path fill="none" stroke="#000000" d="M844.2154,-663.0308C869.1126,-660.4084 915.0942,-655.7785 954.4279,-653 1055.5239,-645.8588 1174.0825,-641.0109 1239.142,-638.6534"/>
<polygon fill="#000000" stroke="#000000" points="1239.6296,-642.1383 1249.498,-638.2829 1239.3792,-635.1428 1239.6296,-642.1383"/>
<text text-anchor="middle" x="1020.9279" y="-656.8" font-family="Times,serif" font-size="14.00" fill="#000000">dcterms:format</text>
</g>
<!-- B_:node1evfnhjrix4 -->
<g id="node15" class="node">
<title>B_:node1evfnhjrix4</title>
<ellipse fill="none" stroke="#00ff00" cx="1288.0617" cy="-582" rx="18" ry="18"/>
</g>
<!-- B_:node1evfnhjrix1&#45;&gt;B_:node1evfnhjrix4 -->
<g id="edge15" class="edge">
<title>B_:node1evfnhjrix1&#45;&gt;B_:node1evfnhjrix4</title>
<path fill="none" stroke="#000000" d="M844.1665,-662.5377C866.5986,-659.0639 905.5114,-651.5785 936.4279,-638 945.2311,-634.1337 945.428,-629.3831 954.4279,-626 1061.8052,-585.6364 1200.7315,-581.3055 1259.6474,-581.4789"/>
<polygon fill="#000000" stroke="#000000" points="1259.9846,-584.9815 1270.0117,-581.5601 1260.0395,-577.9817 1259.9846,-584.9815"/>
<text text-anchor="middle" x="1020.9279" y="-629.8" font-family="Times,serif" font-size="14.00" fill="#000000">oa:hasSelector</text>
</g>
<!-- Rimg:MMNAT01_AF_NNM001001033_004.jpg -->
<g id="node19" class="node">
<title>Rimg:MMNAT01_AF_NNM001001033_004.jpg</title>
<ellipse fill="none" stroke="#0000ff" cx="1288.0617" cy="-419" rx="182.7677" ry="18"/>
<text text-anchor="middle" x="1288.0617" y="-415.3" font-family="Times,serif" font-size="14.00" fill="#000000">img:MMNAT01_AF_NNM001001033_004.jpg</text>
</g>
<!-- B_:node1evfnhjrix1&#45;&gt;Rimg:MMNAT01_AF_NNM001001033_004.jpg -->
<g id="edge19" class="edge">
<title>B_:node1evfnhjrix1&#45;&gt;Rimg:MMNAT01_AF_NNM001001033_004.jpg</title>
<path fill="none" stroke="#000000" d="M844.2117,-665.7815C868.5189,-665.7882 911.3316,-662.0424 936.4279,-638 957.1475,-618.1504 935.7952,-597.8204 954.4279,-576 1018.4795,-500.9902 1126.2912,-459.3993 1201.9825,-438.1721"/>
<polygon fill="#000000" stroke="#000000" points="1203.2563,-441.4522 1211.9766,-435.4349 1201.4072,-434.7008 1203.2563,-441.4522"/>
<text text-anchor="middle" x="1020.9279" y="-579.8" font-family="Times,serif" font-size="14.00" fill="#000000">oa:hasSource</text>
</g>
<!-- Roa:FragmentSelector -->
<g id="node16" class="node">
<title>Roa:FragmentSelector</title>
<ellipse fill="none" stroke="#0000ff" cx="1901.6955" cy="-664" rx="84.485" ry="18"/>
<text text-anchor="middle" x="1901.6955" y="-660.3" font-family="Times,serif" font-size="14.00" fill="#000000">oa:FragmentSelector</text>
</g>
<!-- B_:node1evfnhjrix4&#45;&gt;Roa:FragmentSelector -->
<g id="edge16" class="edge">
<title>B_:node1evfnhjrix4&#45;&gt;Roa:FragmentSelector</title>
<path fill="none" stroke="#000000" d="M1306.1475,-583.6146C1339.1714,-586.7961 1411.3044,-594.8267 1470.6955,-609 1478.8979,-610.9575 1480.5102,-612.9723 1488.6955,-615 1596.6207,-641.7362 1724.143,-654.0372 1808.6355,-659.5952"/>
<polygon fill="#000000" stroke="#000000" points="1808.5189,-663.0948 1818.7219,-660.2401 1808.9657,-656.1091 1808.5189,-663.0948"/>
<text text-anchor="middle" x="1546.1955" y="-640.8" font-family="Times,serif" font-size="14.00" fill="#000000">rdf:type</text>
</g>
<!-- Rmf: -->
<g id="node17" class="node">
<title>Rmf:</title>
<ellipse fill="none" stroke="#0000ff" cx="1901.6955" cy="-610" rx="27" ry="18"/>
<text text-anchor="middle" x="1901.6955" y="-606.3" font-family="Times,serif" font-size="14.00" fill="#000000">mf:</text>
</g>
<!-- B_:node1evfnhjrix4&#45;&gt;Rmf: -->
<g id="edge17" class="edge">
<title>B_:node1evfnhjrix4&#45;&gt;Rmf:</title>
<path fill="none" stroke="#000000" d="M1306.0943,-582.8228C1390.4662,-586.6727 1747.0714,-602.9445 1864.2274,-608.2903"/>
<polygon fill="#000000" stroke="#000000" points="1864.3349,-611.7988 1874.4841,-608.7583 1864.6541,-604.8061 1864.3349,-611.7988"/>
<text text-anchor="middle" x="1546.1955" y="-599.8" font-family="Times,serif" font-size="14.00" fill="#000000">dcterms:conformsTo</text>
</g>
<!-- Lxywh=0.672574339819018,0.030544471154748218,0.06203976435935199,0.01601620029455081 -->
<g id="node18" class="node">
<title>Lxywh=0.672574339819018,0.030544471154748218,0.06203976435935199,0.01601620029455081</title>
<polygon fill="none" stroke="#000000" points="1621.6955,-537 1621.6955,-573 2181.6955,-573 2181.6955,-537 1621.6955,-537"/>
<text text-anchor="middle" x="1901.6955" y="-551.3" font-family="Times,serif" font-size="14.00" fill="#000000">xywh=0.672574339819018,0.030544471154748218,0.06203976435935199,0.01601620029455081</text>
</g>
<!-- B_:node1evfnhjrix4&#45;&gt;Lxywh=0.672574339819018,0.030544471154748218,0.06203976435935199,0.01601620029455081 -->
<g id="edge18" class="edge">
<title>B_:node1evfnhjrix4&#45;&gt;Lxywh=0.672574339819018,0.030544471154748218,0.06203976435935199,0.01601620029455081</title>
<path fill="none" stroke="#000000" d="M1306.0461,-581.1856C1341.1574,-579.5973 1421.2932,-575.9806 1488.6955,-573 1528.3555,-571.2462 1570.1583,-569.4099 1611.3264,-567.6087"/>
<polygon fill="#000000" stroke="#000000" points="1611.6576,-571.0977 1621.4951,-567.164 1611.3517,-564.1044 1611.6576,-571.0977"/>
<text text-anchor="middle" x="1546.1955" y="-576.8" font-family="Times,serif" font-size="14.00" fill="#000000">rdf:value</text>
</g>
<!-- Rdcmitype:StillImage -->
<g id="node22" class="node">
<title>Rdcmitype:StillImage</title>
<ellipse fill="none" stroke="#0000ff" cx="1901.6955" cy="-500" rx="83.3857" ry="18"/>
<text text-anchor="middle" x="1901.6955" y="-496.3" font-family="Times,serif" font-size="14.00" fill="#000000">dcmitype:StillImage</text>
</g>
<!-- Rimg:MMNAT01_AF_NNM001001033_004.jpg&#45;&gt;Rdcmitype:StillImage -->
<g id="edge22" class="edge">
<title>Rimg:MMNAT01_AF_NNM001001033_004.jpg&#45;&gt;Rdcmitype:StillImage</title>
<path fill="none" stroke="#000000" d="M1381.4416,-434.4867C1415.2248,-440.0558 1453.6708,-446.3545 1488.6955,-452 1547.7764,-461.523 1562.3293,-465.4579 1621.6955,-473 1685.6614,-481.1265 1758.1261,-488.0524 1813.3082,-492.8546"/>
<polygon fill="#000000" stroke="#000000" points="1813.1408,-496.3531 1823.4048,-493.7264 1813.743,-489.379 1813.1408,-496.3531"/>
<text text-anchor="middle" x="1546.1955" y="-474.8" font-family="Times,serif" font-size="14.00" fill="#000000">rdf:type</text>
</g>
<!-- Rdsw:Token -->
<g id="node23" class="node">
<title>Rdsw:Token</title>
<ellipse fill="none" stroke="#0000ff" cx="1901.6955" cy="-446" rx="50.0912" ry="18"/>
<text text-anchor="middle" x="1901.6955" y="-442.3" font-family="Times,serif" font-size="14.00" fill="#000000">dsw:Token</text>
</g>
<!-- Rimg:MMNAT01_AF_NNM001001033_004.jpg&#45;&gt;Rdsw:Token -->
<g id="edge23" class="edge">
<title>Rimg:MMNAT01_AF_NNM001001033_004.jpg&#45;&gt;Rdsw:Token</title>
<path fill="none" stroke="#000000" d="M1454.9293,-426.3422C1583.1189,-431.9826 1752.7894,-439.4481 1841.6163,-443.3565"/>
<polygon fill="#000000" stroke="#000000" points="1841.6353,-446.8606 1851.7795,-443.8037 1841.9431,-439.8674 1841.6353,-446.8606"/>
<text text-anchor="middle" x="1546.1955" y="-436.8" font-family="Times,serif" font-size="14.00" fill="#000000">rdf:type</text>
</g>
<!-- Rdwc:HumanObservation -->
<g id="node24" class="node">
<title>Rdwc:HumanObservation</title>
<ellipse fill="none" stroke="#0000ff" cx="1901.6955" cy="-392" rx="96.6831" ry="18"/>
<text text-anchor="middle" x="1901.6955" y="-388.3" font-family="Times,serif" font-size="14.00" fill="#000000">dwc:HumanObservation</text>
</g>
<!-- Rimg:MMNAT01_AF_NNM001001033_004.jpg&#45;&gt;Rdwc:HumanObservation -->
<g id="edge24" class="edge">
<title>Rimg:MMNAT01_AF_NNM001001033_004.jpg&#45;&gt;Rdwc:HumanObservation</title>
<path fill="none" stroke="#000000" d="M1454.4721,-411.5189C1466.054,-411.0032 1477.5489,-410.4929 1488.6955,-410 1593.5937,-405.3613 1713.4828,-400.1457 1796.9679,-396.5276"/>
<polygon fill="#000000" stroke="#000000" points="1797.126,-400.0241 1806.9651,-396.0944 1796.8229,-393.0307 1797.126,-400.0241"/>
<text text-anchor="middle" x="1546.1955" y="-413.8" font-family="Times,serif" font-size="14.00" fill="#000000">rdf:type</text>
</g>
<!-- Roa:Source -->
<g id="node25" class="node">
<title>Roa:Source</title>
<ellipse fill="none" stroke="#0000ff" cx="1901.6955" cy="-338" rx="46.2923" ry="18"/>
<text text-anchor="middle" x="1901.6955" y="-334.3" font-family="Times,serif" font-size="14.00" fill="#000000">oa:Source</text>
</g>
<!-- Rimg:MMNAT01_AF_NNM001001033_004.jpg&#45;&gt;Roa:Source -->
<g id="edge25" class="edge">
<title>Rimg:MMNAT01_AF_NNM001001033_004.jpg&#45;&gt;Roa:Source</title>
<path fill="none" stroke="#000000" d="M1375.9942,-403.1828C1443.1373,-391.4906 1538.0415,-375.7918 1621.6955,-365 1699.2108,-355.0001 1789.2367,-346.9511 1845.837,-342.3219"/>
<polygon fill="#000000" stroke="#000000" points="1846.3214,-345.7942 1856.0059,-341.4976 1845.7558,-338.8171 1846.3214,-345.7942"/>
<text text-anchor="middle" x="1546.1955" y="-387.8" font-family="Times,serif" font-size="14.00" fill="#000000">rdf:type</text>
</g>
<!-- Rfoaf:Image -->
<g id="node26" class="node">
<title>Rfoaf:Image</title>
<ellipse fill="none" stroke="#0000ff" cx="1901.6955" cy="-284" rx="50.0912" ry="18"/>
<text text-anchor="middle" x="1901.6955" y="-280.3" font-family="Times,serif" font-size="14.00" fill="#000000">foaf:Image</text>
</g>
<!-- Rimg:MMNAT01_AF_NNM001001033_004.jpg&#45;&gt;Rfoaf:Image -->
<g id="edge26" class="edge">
<title>Rimg:MMNAT01_AF_NNM001001033_004.jpg&#45;&gt;Rfoaf:Image</title>
<path fill="none" stroke="#000000" d="M1335.6388,-401.5357C1376.1299,-386.881 1435.9456,-365.7226 1488.6955,-349 1547.2977,-330.4221 1561.2932,-322.4422 1621.6955,-311 1696.6806,-296.7953 1784.4568,-289.8716 1841.4652,-286.6329"/>
<polygon fill="#000000" stroke="#000000" points="1841.9482,-290.1118 1851.7418,-286.0701 1841.5654,-283.1223 1841.9482,-290.1118"/>
<text text-anchor="middle" x="1546.1955" y="-352.8" font-family="Times,serif" font-size="14.00" fill="#000000">rdf:type</text>
</g>
</g>
</svg>
