<?xml version="1.0" encoding="UTF-8" standalone="no"?>
<!DOCTYPE svg PUBLIC "-//W3C//DTD SVG 1.1//EN"
 "http://www.w3.org/Graphics/SVG/1.1/DTD/svg11.dtd">
<!-- Generated by graphviz version 2.40.1 (20161225.0304)
 -->
<!-- Title: %3 Pages: 1 -->
<svg width="2145pt" height="868pt"
 viewBox="0.00 0.00 2145.10 868.00" xmlns="http://www.w3.org/2000/svg" xmlns:xlink="http://www.w3.org/1999/xlink">
<g id="graph0" class="graph" transform="scale(1 1) rotate(0) translate(4 864)">
<title>%3</title>
<polygon fill="#ffffff" stroke="transparent" points="-4,4 -4,-864 2141.0957,-864 2141.0957,4 -4,4"/>
<text text-anchor="middle" x="1068.5479" y="-218.8" font-family="Times,serif" font-size="14.00" fill="#000000">Model:</text>
<text text-anchor="middle" x="1068.5479" y="-203.8" font-family="Times,serif" font-size="14.00" fill="#000000">(Unknown)</text>
<text text-anchor="middle" x="1068.5479" y="-172.8" font-family="Times,serif" font-size="14.00" fill="#000000">Namespaces:</text>
<text text-anchor="middle" x="1068.5479" y="-157.8" font-family="Times,serif" font-size="14.00" fill="#000000">dcmitype: http://purl.org/dc/dcmitype/</text>
<text text-anchor="middle" x="1068.5479" y="-142.8" font-family="Times,serif" font-size="14.00" fill="#000000">dcterms: http://purl.org/dc/terms/</text>
<text text-anchor="middle" x="1068.5479" y="-127.8" font-family="Times,serif" font-size="14.00" fill="#000000">dsw: http://purl.org/dsw/</text>
<text text-anchor="middle" x="1068.5479" y="-112.8" font-family="Times,serif" font-size="14.00" fill="#000000">dwc: http://rs.tdwg.org/dwc/terms/</text>
<text text-anchor="middle" x="1068.5479" y="-97.8" font-family="Times,serif" font-size="14.00" fill="#000000">foaf: http://xmlns.com/foaf/0.1/</text>
<text text-anchor="middle" x="1068.5479" y="-82.8" font-family="Times,serif" font-size="14.00" fill="#000000">img: http://localhost:8080/semanticAnnotator/files/</text>
<text text-anchor="middle" x="1068.5479" y="-67.8" font-family="Times,serif" font-size="14.00" fill="#000000">iso: http://iso639&#45;3.sil.org/code/</text>
<text text-anchor="middle" x="1068.5479" y="-52.8" font-family="Times,serif" font-size="14.00" fill="#000000">mf: http://www.w3.org/TR/media&#45;frags/</text>
<text text-anchor="middle" x="1068.5479" y="-37.8" font-family="Times,serif" font-size="14.00" fill="#000000">oa: http://www.w3.org/ns/oa#</text>
<text text-anchor="middle" x="1068.5479" y="-22.8" font-family="Times,serif" font-size="14.00" fill="#000000">orcid: http://orcid.org/</text>
<text text-anchor="middle" x="1068.5479" y="-7.8" font-family="Times,serif" font-size="14.00" fill="#000000">rdf: http://www.w3.org/1999/02/22&#45;rdf&#45;syntax&#45;ns#</text>
<!-- Rhttp://localhost:8080/rdf/nc/annotation/6656ccbc&#45;29bf&#45;4e0f&#45;99ae&#45;6179b1b9656c -->
<g id="node1" class="node">
<title>Rhttp://localhost:8080/rdf/nc/annotation/6656ccbc&#45;29bf&#45;4e0f&#45;99ae&#45;6179b1b9656c</title>
<ellipse fill="none" stroke="#0000ff" cx="294.4239" cy="-658" rx="294.3478" ry="18"/>
<text text-anchor="middle" x="294.4239" y="-654.3" font-family="Times,serif" font-size="14.00" fill="#000000">http://localhost:8080/rdf/nc/annotation/6656ccbc&#45;29bf&#45;4e0f&#45;99ae&#45;6179b1b9656c</text>
</g>
<!-- Roa:Annotation -->
<g id="node2" class="node">
<title>Roa:Annotation</title>
<ellipse fill="none" stroke="#0000ff" cx="823.3379" cy="-791" rx="61.1893" ry="18"/>
<text text-anchor="middle" x="823.3379" y="-787.3" font-family="Times,serif" font-size="14.00" fill="#000000">oa:Annotation</text>
</g>
<!-- Rhttp://localhost:8080/rdf/nc/annotation/6656ccbc&#45;29bf&#45;4e0f&#45;99ae&#45;6179b1b9656c&#45;&gt;Roa:Annotation -->
<g id="edge1" class="edge">
<title>Rhttp://localhost:8080/rdf/nc/annotation/6656ccbc&#45;29bf&#45;4e0f&#45;99ae&#45;6179b1b9656c&#45;&gt;Roa:Annotation</title>
<path fill="none" stroke="#000000" d="M362.8709,-675.5285C445.695,-696.695 589.4054,-733.2821 712.8478,-764 730.1478,-768.305 748.9874,-772.9316 766.129,-777.1175"/>
<polygon fill="#000000" stroke="#000000" points="765.4565,-780.556 776.0011,-779.5254 767.1153,-773.7554 765.4565,-780.556"/>
<text text-anchor="middle" x="650.8478" y="-761.8" font-family="Times,serif" font-size="14.00" fill="#000000">rdf:type</text>
</g>
<!-- Rorcid:0000&#45;0002&#45;2146&#45;4803 -->
<g id="node3" class="node">
<title>Rorcid:0000&#45;0002&#45;2146&#45;4803</title>
<ellipse fill="none" stroke="#0000ff" cx="823.3379" cy="-737" rx="110.4804" ry="18"/>
<text text-anchor="middle" x="823.3379" y="-733.3" font-family="Times,serif" font-size="14.00" fill="#000000">orcid:0000&#45;0002&#45;2146&#45;4803</text>
</g>
<!-- Rhttp://localhost:8080/rdf/nc/annotation/6656ccbc&#45;29bf&#45;4e0f&#45;99ae&#45;6179b1b9656c&#45;&gt;Rorcid:0000&#45;0002&#45;2146&#45;4803 -->
<g id="edge2" class="edge">
<title>Rhttp://localhost:8080/rdf/nc/annotation/6656ccbc&#45;29bf&#45;4e0f&#45;99ae&#45;6179b1b9656c&#45;&gt;Rorcid:0000&#45;0002&#45;2146&#45;4803</title>
<path fill="none" stroke="#000000" d="M406.2696,-674.7056C503.1359,-689.1738 641.5312,-709.8449 731.8963,-723.342"/>
<polygon fill="#000000" stroke="#000000" points="731.4444,-726.8133 741.8517,-724.829 732.4785,-719.8901 731.4444,-726.8133"/>
<text text-anchor="middle" x="650.8478" y="-718.8" font-family="Times,serif" font-size="14.00" fill="#000000">dcterms:creator</text>
</g>
<!-- L2021&#45;01&#45;12T14:23:11.646Z|Datatype: dcterms:W3CDTF -->
<g id="node4" class="node">
<title>L2021&#45;01&#45;12T14:23:11.646Z|Datatype: dcterms:W3CDTF</title>
<polygon fill="none" stroke="#000000" points="735.8379,-654 735.8379,-700 910.8379,-700 910.8379,-654 735.8379,-654"/>
<text text-anchor="middle" x="823.3379" y="-684.8" font-family="Times,serif" font-size="14.00" fill="#000000">2021&#45;01&#45;12T14:23:11.646Z</text>
<polyline fill="none" stroke="#000000" points="735.8379,-677 910.8379,-677 "/>
<text text-anchor="middle" x="823.3379" y="-661.8" font-family="Times,serif" font-size="14.00" fill="#000000">Datatype: dcterms:W3CDTF</text>
</g>
<!-- Rhttp://localhost:8080/rdf/nc/annotation/6656ccbc&#45;29bf&#45;4e0f&#45;99ae&#45;6179b1b9656c&#45;&gt;L2021&#45;01&#45;12T14:23:11.646Z|Datatype: dcterms:W3CDTF -->
<g id="edge3" class="edge">
<title>Rhttp://localhost:8080/rdf/nc/annotation/6656ccbc&#45;29bf&#45;4e0f&#45;99ae&#45;6179b1b9656c&#45;&gt;L2021&#45;01&#45;12T14:23:11.646Z|Datatype: dcterms:W3CDTF</title>
<path fill="none" stroke="#000000" d="M548.4239,-667.1244C611.4919,-669.3899 675.3542,-671.684 725.6332,-673.4902"/>
<polygon fill="#000000" stroke="#000000" points="725.7075,-676.995 735.8268,-673.8564 725.9589,-669.9995 725.7075,-676.995"/>
<text text-anchor="middle" x="650.8478" y="-674.8" font-family="Times,serif" font-size="14.00" fill="#000000">dcterms:date</text>
</g>
<!-- B_:node1euqlam8lx267 -->
<g id="node5" class="node">
<title>B_:node1euqlam8lx267</title>
<ellipse fill="none" stroke="#00ff00" cx="823.3379" cy="-617" rx="18" ry="18"/>
</g>
<!-- Rhttp://localhost:8080/rdf/nc/annotation/6656ccbc&#45;29bf&#45;4e0f&#45;99ae&#45;6179b1b9656c&#45;&gt;B_:node1euqlam8lx267 -->
<g id="edge4" class="edge">
<title>Rhttp://localhost:8080/rdf/nc/annotation/6656ccbc&#45;29bf&#45;4e0f&#45;99ae&#45;6179b1b9656c&#45;&gt;B_:node1euqlam8lx267</title>
<path fill="none" stroke="#000000" d="M476.8163,-643.8614C594.3601,-634.7497 735.9129,-623.777 795.1364,-619.1861"/>
<polygon fill="#000000" stroke="#000000" points="795.5127,-622.6675 805.2123,-618.4051 794.9717,-615.6885 795.5127,-622.6675"/>
<text text-anchor="middle" x="650.8478" y="-636.8" font-family="Times,serif" font-size="14.00" fill="#000000">oa:hasBody</text>
</g>
<!-- B_:node1euqlam8lx266 -->
<g id="node12" class="node">
<title>B_:node1euqlam8lx266</title>
<ellipse fill="none" stroke="#00ff00" cx="823.3379" cy="-467" rx="18" ry="18"/>
</g>
<!-- Rhttp://localhost:8080/rdf/nc/annotation/6656ccbc&#45;29bf&#45;4e0f&#45;99ae&#45;6179b1b9656c&#45;&gt;B_:node1euqlam8lx266 -->
<g id="edge11" class="edge">
<title>Rhttp://localhost:8080/rdf/nc/annotation/6656ccbc&#45;29bf&#45;4e0f&#45;99ae&#45;6179b1b9656c&#45;&gt;B_:node1euqlam8lx266</title>
<path fill="none" stroke="#000000" d="M343.7079,-640.2027C453.0132,-600.7307 712.7161,-506.9475 796.6663,-476.6316"/>
<polygon fill="#000000" stroke="#000000" points="798.0131,-479.8665 806.2298,-473.178 795.6355,-473.2827 798.0131,-479.8665"/>
<text text-anchor="middle" x="650.8478" y="-543.8" font-family="Times,serif" font-size="14.00" fill="#000000">oa:hasTarget</text>
</g>
<!-- Roa:describing -->
<g id="node19" class="node">
<title>Roa:describing</title>
<ellipse fill="none" stroke="#0000ff" cx="823.3379" cy="-413" rx="57.6901" ry="18"/>
<text text-anchor="middle" x="823.3379" y="-409.3" font-family="Times,serif" font-size="14.00" fill="#000000">oa:describing</text>
</g>
<!-- Rhttp://localhost:8080/rdf/nc/annotation/6656ccbc&#45;29bf&#45;4e0f&#45;99ae&#45;6179b1b9656c&#45;&gt;Roa:describing -->
<g id="edge19" class="edge">
<title>Rhttp://localhost:8080/rdf/nc/annotation/6656ccbc&#45;29bf&#45;4e0f&#45;99ae&#45;6179b1b9656c&#45;&gt;Roa:describing</title>
<path fill="none" stroke="#000000" d="M323.2228,-639.8615C389.5382,-598.8074 559.1432,-497.8528 712.8478,-440 728.9941,-433.9227 746.9885,-428.8488 763.689,-424.8012"/>
<polygon fill="#000000" stroke="#000000" points="764.9526,-428.1002 773.8922,-422.4139 763.3577,-421.2843 764.9526,-428.1002"/>
<text text-anchor="middle" x="650.8478" y="-483.8" font-family="Times,serif" font-size="14.00" fill="#000000">oa:motivatedBy</text>
</g>
<!-- Rfoaf:Person -->
<g id="node20" class="node">
<title>Rfoaf:Person</title>
<ellipse fill="none" stroke="#0000ff" cx="1249.4619" cy="-841" rx="51.1914" ry="18"/>
<text text-anchor="middle" x="1249.4619" y="-837.3" font-family="Times,serif" font-size="14.00" fill="#000000">foaf:Person</text>
</g>
<!-- Rorcid:0000&#45;0002&#45;2146&#45;4803&#45;&gt;Rfoaf:Person -->
<g id="edge20" class="edge">
<title>Rorcid:0000&#45;0002&#45;2146&#45;4803&#45;&gt;Rfoaf:Person</title>
<path fill="none" stroke="#000000" d="M907.6368,-748.69C917.1358,-752.5034 926.1436,-757.4907 933.8281,-764 949.3246,-777.1265 935.5566,-793.8476 951.8281,-806 1021.8653,-858.3071 1128.1703,-857.0317 1192.9716,-849.9758"/>
<polygon fill="#000000" stroke="#000000" points="1193.4785,-853.4404 1203.0036,-848.801 1192.6644,-846.4879 1193.4785,-853.4404"/>
<text text-anchor="middle" x="1000.3281" y="-848.8" font-family="Times,serif" font-size="14.00" fill="#000000">rdf:type</text>
</g>
<!-- Rdwc:MeasurementOrFact -->
<g id="node6" class="node">
<title>Rdwc:MeasurementOrFact</title>
<ellipse fill="none" stroke="#0000ff" cx="1249.4619" cy="-557" rx="100.9827" ry="18"/>
<text text-anchor="middle" x="1249.4619" y="-553.3" font-family="Times,serif" font-size="14.00" fill="#000000">dwc:MeasurementOrFact</text>
</g>
<!-- B_:node1euqlam8lx267&#45;&gt;Rdwc:MeasurementOrFact -->
<g id="edge5" class="edge">
<title>B_:node1euqlam8lx267&#45;&gt;Rdwc:MeasurementOrFact</title>
<path fill="none" stroke="#000000" d="M841.206,-614.3007C866.0178,-610.5654 912.3157,-603.6427 951.8281,-598 1021.2643,-588.0839 1099.8757,-577.2727 1158.8649,-569.2427"/>
<polygon fill="#000000" stroke="#000000" points="1159.4631,-572.6936 1168.9001,-567.8777 1158.5196,-565.7575 1159.4631,-572.6936"/>
<text text-anchor="middle" x="1000.3281" y="-601.8" font-family="Times,serif" font-size="14.00" fill="#000000">rdf:type</text>
</g>
<!-- Roa:TextualBody -->
<g id="node7" class="node">
<title>Roa:TextualBody</title>
<ellipse fill="none" stroke="#0000ff" cx="1249.4619" cy="-787" rx="67.6881" ry="18"/>
<text text-anchor="middle" x="1249.4619" y="-783.3" font-family="Times,serif" font-size="14.00" fill="#000000">oa:TextualBody</text>
</g>
<!-- B_:node1euqlam8lx267&#45;&gt;Roa:TextualBody -->
<g id="edge6" class="edge">
<title>B_:node1euqlam8lx267&#45;&gt;Roa:TextualBody</title>
<path fill="none" stroke="#000000" d="M841.357,-616.2552C865.7725,-616.2797 909.1409,-620.1533 933.8281,-645 957.3808,-668.7048 929.5143,-693.1257 951.8281,-718 988.1629,-758.504 1014.086,-746.6186 1066.8281,-760 1102.1626,-768.9648 1142.149,-775.2932 1175.6794,-779.5583"/>
<polygon fill="#000000" stroke="#000000" points="1175.5122,-783.0642 1185.8659,-780.8163 1176.3703,-776.1169 1175.5122,-783.0642"/>
<text text-anchor="middle" x="1000.3281" y="-758.8" font-family="Times,serif" font-size="14.00" fill="#000000">rdf:type</text>
</g>
<!-- Ltext/plain -->
<g id="node8" class="node">
<title>Ltext/plain</title>
<polygon fill="none" stroke="#000000" points="1215.4619,-714 1215.4619,-750 1283.4619,-750 1283.4619,-714 1215.4619,-714"/>
<text text-anchor="middle" x="1249.4619" y="-728.3" font-family="Times,serif" font-size="14.00" fill="#000000">text/plain</text>
</g>
<!-- B_:node1euqlam8lx267&#45;&gt;Ltext/plain -->
<g id="edge7" class="edge">
<title>B_:node1euqlam8lx267&#45;&gt;Ltext/plain</title>
<path fill="none" stroke="#000000" d="M841.6048,-618.0278C864.7702,-620.0944 905.145,-626.3112 933.8281,-645 944.7038,-652.0861 941.1521,-660.6165 951.8281,-668 995.8769,-698.464 1014.6543,-691.9074 1066.8281,-704 1113.5301,-714.8243 1167.9468,-722.5531 1205.1545,-727.1115"/>
<polygon fill="#000000" stroke="#000000" points="1204.8262,-730.5971 1215.1719,-728.3131 1205.66,-723.647 1204.8262,-730.5971"/>
<text text-anchor="middle" x="1000.3281" y="-702.8" font-family="Times,serif" font-size="14.00" fill="#000000">dcterms:format</text>
</g>
<!-- Riso:und -->
<g id="node9" class="node">
<title>Riso:und</title>
<ellipse fill="none" stroke="#0000ff" cx="1249.4619" cy="-677" rx="36.2938" ry="18"/>
<text text-anchor="middle" x="1249.4619" y="-673.3" font-family="Times,serif" font-size="14.00" fill="#000000">iso:und</text>
</g>
<!-- B_:node1euqlam8lx267&#45;&gt;Riso:und -->
<g id="edge8" class="edge">
<title>B_:node1euqlam8lx267&#45;&gt;Riso:und</title>
<path fill="none" stroke="#000000" d="M841.206,-619.6993C866.0178,-623.4346 912.3157,-630.3573 951.8281,-636 1041.2144,-648.7651 1145.806,-663.0137 1204.1682,-670.9028"/>
<polygon fill="#000000" stroke="#000000" points="1203.7888,-674.3832 1214.1673,-672.2533 1204.7258,-667.4462 1203.7888,-674.3832"/>
<text text-anchor="middle" x="1000.3281" y="-652.8" font-family="Times,serif" font-size="14.00" fill="#000000">dcterms:language</text>
</g>
<!-- Rimg:MMNAT01_AF_NNM001001033_003.jpg -->
<g id="node10" class="node">
<title>Rimg:MMNAT01_AF_NNM001001033_003.jpg</title>
<ellipse fill="none" stroke="#0000ff" cx="1249.4619" cy="-503" rx="182.7677" ry="18"/>
<text text-anchor="middle" x="1249.4619" y="-499.3" font-family="Times,serif" font-size="14.00" fill="#000000">img:MMNAT01_AF_NNM001001033_003.jpg</text>
</g>
<!-- B_:node1euqlam8lx267&#45;&gt;Rimg:MMNAT01_AF_NNM001001033_003.jpg -->
<g id="edge9" class="edge">
<title>B_:node1euqlam8lx267&#45;&gt;Rimg:MMNAT01_AF_NNM001001033_003.jpg</title>
<path fill="none" stroke="#000000" d="M840.2598,-610.0419C864.7191,-600.07 911.4512,-581.337 951.8281,-567 1002.4246,-549.0343 1014.5388,-542.1895 1066.8281,-530 1085.3023,-525.6934 1104.9957,-521.9349 1124.3573,-518.7014"/>
<polygon fill="#000000" stroke="#000000" points="1125.1366,-522.1207 1134.4436,-517.0582 1124.011,-515.2118 1125.1366,-522.1207"/>
<text text-anchor="middle" x="1000.3281" y="-570.8" font-family="Times,serif" font-size="14.00" fill="#000000">dsw:derivedFrom</text>
</g>
<!-- L|Language: und -->
<g id="node11" class="node">
<title>L|Language: und</title>
<polygon fill="none" stroke="#000000" points="1200.4619,-594 1200.4619,-640 1298.4619,-640 1298.4619,-594 1200.4619,-594"/>
<text text-anchor="middle" x="1249.4619" y="-624.8" font-family="Times,serif" font-size="14.00" fill="#000000"> </text>
<polyline fill="none" stroke="#000000" points="1200.4619,-617 1298.4619,-617 "/>
<text text-anchor="middle" x="1249.4619" y="-601.8" font-family="Times,serif" font-size="14.00" fill="#000000">Language: und</text>
</g>
<!-- B_:node1euqlam8lx267&#45;&gt;L|Language: und -->
<g id="edge10" class="edge">
<title>B_:node1euqlam8lx267&#45;&gt;L|Language: und</title>
<path fill="none" stroke="#000000" d="M841.3758,-617C900.8149,-617 1092.3064,-617 1190.3769,-617"/>
<polygon fill="#000000" stroke="#000000" points="1190.4278,-620.5001 1200.4278,-617 1190.4278,-613.5001 1190.4278,-620.5001"/>
<text text-anchor="middle" x="1000.3281" y="-620.8" font-family="Times,serif" font-size="14.00" fill="#000000">rdf:value</text>
</g>
<!-- Rdcmitype:StillImage -->
<g id="node21" class="node">
<title>Rdcmitype:StillImage</title>
<ellipse fill="none" stroke="#0000ff" cx="1860.0957" cy="-502" rx="83.3857" ry="18"/>
<text text-anchor="middle" x="1860.0957" y="-498.3" font-family="Times,serif" font-size="14.00" fill="#000000">dcmitype:StillImage</text>
</g>
<!-- Rimg:MMNAT01_AF_NNM001001033_003.jpg&#45;&gt;Rdcmitype:StillImage -->
<g id="edge21" class="edge">
<title>Rimg:MMNAT01_AF_NNM001001033_003.jpg&#45;&gt;Rdcmitype:StillImage</title>
<path fill="none" stroke="#000000" d="M1432.2585,-502.7006C1542.3843,-502.5203 1678.0055,-502.2982 1766.641,-502.153"/>
<polygon fill="#000000" stroke="#000000" points="1766.6811,-505.6531 1776.6754,-502.1366 1766.6696,-498.6531 1766.6811,-505.6531"/>
<text text-anchor="middle" x="1507.5957" y="-506.8" font-family="Times,serif" font-size="14.00" fill="#000000">rdf:type</text>
</g>
<!-- Rdsw:Token -->
<g id="node22" class="node">
<title>Rdsw:Token</title>
<ellipse fill="none" stroke="#0000ff" cx="1860.0957" cy="-448" rx="50.0912" ry="18"/>
<text text-anchor="middle" x="1860.0957" y="-444.3" font-family="Times,serif" font-size="14.00" fill="#000000">dsw:Token</text>
</g>
<!-- Rimg:MMNAT01_AF_NNM001001033_003.jpg&#45;&gt;Rdsw:Token -->
<g id="edge22" class="edge">
<title>Rimg:MMNAT01_AF_NNM001001033_003.jpg&#45;&gt;Rdsw:Token</title>
<path fill="none" stroke="#000000" d="M1380.5772,-490.4533C1403.7363,-488.2743 1427.6218,-486.0508 1450.0957,-484 1574.8911,-472.6123 1721.1186,-459.932 1800.8457,-453.0745"/>
<polygon fill="#000000" stroke="#000000" points="1801.5108,-456.5303 1811.1743,-452.1867 1800.9113,-449.556 1801.5108,-456.5303"/>
<text text-anchor="middle" x="1507.5957" y="-487.8" font-family="Times,serif" font-size="14.00" fill="#000000">rdf:type</text>
</g>
<!-- Rdwc:HumanObservation -->
<g id="node23" class="node">
<title>Rdwc:HumanObservation</title>
<ellipse fill="none" stroke="#0000ff" cx="1860.0957" cy="-664" rx="96.6831" ry="18"/>
<text text-anchor="middle" x="1860.0957" y="-660.3" font-family="Times,serif" font-size="14.00" fill="#000000">dwc:HumanObservation</text>
</g>
<!-- Rimg:MMNAT01_AF_NNM001001033_003.jpg&#45;&gt;Rdwc:HumanObservation -->
<g id="edge23" class="edge">
<title>Rimg:MMNAT01_AF_NNM001001033_003.jpg&#45;&gt;Rdwc:HumanObservation</title>
<path fill="none" stroke="#000000" d="M1405.4472,-512.4536C1415.0966,-517.05 1424.1156,-522.8161 1432.0957,-530 1455.97,-551.4923 1427.6054,-577.0634 1450.0957,-600 1534.7741,-686.3584 1684.7156,-686.9745 1777.9051,-677.167"/>
<polygon fill="#000000" stroke="#000000" points="1778.3093,-680.6437 1787.8599,-676.0571 1777.5336,-673.6868 1778.3093,-680.6437"/>
<text text-anchor="middle" x="1507.5957" y="-667.8" font-family="Times,serif" font-size="14.00" fill="#000000">rdf:type</text>
</g>
<!-- Roa:Source -->
<g id="node24" class="node">
<title>Roa:Source</title>
<ellipse fill="none" stroke="#0000ff" cx="1860.0957" cy="-610" rx="46.2923" ry="18"/>
<text text-anchor="middle" x="1860.0957" y="-606.3" font-family="Times,serif" font-size="14.00" fill="#000000">oa:Source</text>
</g>
<!-- Rimg:MMNAT01_AF_NNM001001033_003.jpg&#45;&gt;Roa:Source -->
<g id="edge24" class="edge">
<title>Rimg:MMNAT01_AF_NNM001001033_003.jpg&#45;&gt;Roa:Source</title>
<path fill="none" stroke="#000000" d="M1393.3107,-514.1356C1406.8653,-518.1529 1420.0303,-523.3384 1432.0957,-530 1442.8572,-535.9416 1439.6104,-544.5837 1450.0957,-551 1501.9548,-582.7338 1523.1399,-572.9155 1583.0957,-583 1659.1283,-595.7886 1747.9966,-603.1247 1804.1591,-606.8368"/>
<polygon fill="#000000" stroke="#000000" points="1804.0502,-610.3369 1814.2548,-607.4883 1804.501,-603.3515 1804.0502,-610.3369"/>
<text text-anchor="middle" x="1507.5957" y="-584.8" font-family="Times,serif" font-size="14.00" fill="#000000">rdf:type</text>
</g>
<!-- Rfoaf:Image -->
<g id="node25" class="node">
<title>Rfoaf:Image</title>
<ellipse fill="none" stroke="#0000ff" cx="1860.0957" cy="-556" rx="50.0912" ry="18"/>
<text text-anchor="middle" x="1860.0957" y="-552.3" font-family="Times,serif" font-size="14.00" fill="#000000">foaf:Image</text>
</g>
<!-- Rimg:MMNAT01_AF_NNM001001033_003.jpg&#45;&gt;Rfoaf:Image -->
<g id="edge25" class="edge">
<title>Rimg:MMNAT01_AF_NNM001001033_003.jpg&#45;&gt;Rfoaf:Image</title>
<path fill="none" stroke="#000000" d="M1380.0305,-515.5876C1403.3585,-517.7731 1427.4426,-519.9882 1450.0957,-522 1574.8667,-533.081 1721.1032,-544.9362 1800.8384,-551.3044"/>
<polygon fill="#000000" stroke="#000000" points="1800.9215,-554.8221 1811.1681,-552.1284 1801.4782,-547.8442 1800.9215,-554.8221"/>
<text text-anchor="middle" x="1507.5957" y="-535.8" font-family="Times,serif" font-size="14.00" fill="#000000">rdf:type</text>
</g>
<!-- B_:node1euqlam8lx266&#45;&gt;Rimg:MMNAT01_AF_NNM001001033_003.jpg -->
<g id="edge18" class="edge">
<title>B_:node1euqlam8lx266&#45;&gt;Rimg:MMNAT01_AF_NNM001001033_003.jpg</title>
<path fill="none" stroke="#000000" d="M841.3758,-468.5239C885.6364,-472.2631 1003.1185,-482.1883 1100.7255,-490.4344"/>
<polygon fill="#000000" stroke="#000000" points="1100.4488,-493.9234 1110.7079,-491.2777 1101.0381,-486.9482 1100.4488,-493.9234"/>
<text text-anchor="middle" x="1000.3281" y="-488.8" font-family="Times,serif" font-size="14.00" fill="#000000">oa:hasSource</text>
</g>
<!-- Roa:Target -->
<g id="node13" class="node">
<title>Roa:Target</title>
<ellipse fill="none" stroke="#0000ff" cx="1249.4619" cy="-339" rx="44.393" ry="18"/>
<text text-anchor="middle" x="1249.4619" y="-335.3" font-family="Times,serif" font-size="14.00" fill="#000000">oa:Target</text>
</g>
<!-- B_:node1euqlam8lx266&#45;&gt;Roa:Target -->
<g id="edge12" class="edge">
<title>B_:node1euqlam8lx266&#45;&gt;Roa:Target</title>
<path fill="none" stroke="#000000" d="M841.5125,-467.6762C865.707,-467.5636 908.3925,-463.6831 933.8281,-440 952.9614,-422.185 931.9603,-400.9919 951.8281,-384 1020.6289,-325.1587 1132.6051,-325.346 1197.8197,-331.6179"/>
<polygon fill="#000000" stroke="#000000" points="1197.5612,-335.1099 1207.871,-332.6686 1198.2891,-328.1478 1197.5612,-335.1099"/>
<text text-anchor="middle" x="1000.3281" y="-387.8" font-family="Times,serif" font-size="14.00" fill="#000000">rdf:type</text>
</g>
<!-- Limage/jpeg -->
<g id="node14" class="node">
<title>Limage/jpeg</title>
<polygon fill="none" stroke="#000000" points="1210.9619,-430 1210.9619,-466 1287.9619,-466 1287.9619,-430 1210.9619,-430"/>
<text text-anchor="middle" x="1249.4619" y="-444.3" font-family="Times,serif" font-size="14.00" fill="#000000">image/jpeg</text>
</g>
<!-- B_:node1euqlam8lx266&#45;&gt;Limage/jpeg -->
<g id="edge13" class="edge">
<title>B_:node1euqlam8lx266&#45;&gt;Limage/jpeg</title>
<path fill="none" stroke="#000000" d="M841.1329,-463.7266C865.8599,-459.3571 912.0598,-451.8391 951.8281,-449 1039.3483,-442.7517 1141.7131,-444.3525 1200.7238,-446.1387"/>
<polygon fill="#000000" stroke="#000000" points="1200.7655,-449.6417 1210.8716,-446.4608 1200.9877,-442.6452 1200.7655,-449.6417"/>
<text text-anchor="middle" x="1000.3281" y="-452.8" font-family="Times,serif" font-size="14.00" fill="#000000">dcterms:format</text>
</g>
<!-- B_:node1euqlam8lx269 -->
<g id="node15" class="node">
<title>B_:node1euqlam8lx269</title>
<ellipse fill="none" stroke="#00ff00" cx="1249.4619" cy="-393" rx="18" ry="18"/>
</g>
<!-- B_:node1euqlam8lx266&#45;&gt;B_:node1euqlam8lx269 -->
<g id="edge14" class="edge">
<title>B_:node1euqlam8lx266&#45;&gt;B_:node1euqlam8lx269</title>
<path fill="none" stroke="#000000" d="M841.2594,-464.7857C863.715,-461.5321 902.9922,-454.2383 933.8281,-440 942.7874,-435.8631 942.6263,-430.565 951.8281,-427 1045.2915,-390.7906 1166.7138,-389.8305 1221.0292,-391.5681"/>
<polygon fill="#000000" stroke="#000000" points="1221.1434,-395.0748 1231.2685,-391.955 1221.4078,-388.0798 1221.1434,-395.0748"/>
<text text-anchor="middle" x="1000.3281" y="-430.8" font-family="Times,serif" font-size="14.00" fill="#000000">oa:hasSelector</text>
</g>
<!-- Roa:FragmentSelector -->
<g id="node16" class="node">
<title>Roa:FragmentSelector</title>
<ellipse fill="none" stroke="#0000ff" cx="1860.0957" cy="-284" rx="84.485" ry="18"/>
<text text-anchor="middle" x="1860.0957" y="-280.3" font-family="Times,serif" font-size="14.00" fill="#000000">oa:FragmentSelector</text>
</g>
<!-- B_:node1euqlam8lx269&#45;&gt;Roa:FragmentSelector -->
<g id="edge15" class="edge">
<title>B_:node1euqlam8lx269&#45;&gt;Roa:FragmentSelector</title>
<path fill="none" stroke="#000000" d="M1267.4944,-394.0954C1301.6728,-395.3903 1377.3568,-394.4696 1432.0957,-366 1442.4156,-360.6326 1440.109,-352.9644 1450.0957,-347 1502.6712,-315.6003 1522.8552,-322.0089 1583.0957,-311 1644.1589,-299.8408 1713.6943,-293.0821 1767.8204,-289.1176"/>
<polygon fill="#000000" stroke="#000000" points="1768.3615,-292.588 1778.0872,-288.3854 1767.8635,-285.6057 1768.3615,-292.588"/>
<text text-anchor="middle" x="1507.5957" y="-350.8" font-family="Times,serif" font-size="14.00" fill="#000000">rdf:type</text>
</g>
<!-- Rmf: -->
<g id="node17" class="node">
<title>Rmf:</title>
<ellipse fill="none" stroke="#0000ff" cx="1860.0957" cy="-394" rx="27" ry="18"/>
<text text-anchor="middle" x="1860.0957" y="-390.3" font-family="Times,serif" font-size="14.00" fill="#000000">mf:</text>
</g>
<!-- B_:node1euqlam8lx269&#45;&gt;Rmf: -->
<g id="edge16" class="edge">
<title>B_:node1euqlam8lx269&#45;&gt;Rmf:</title>
<path fill="none" stroke="#000000" d="M1267.737,-393.0299C1352.3117,-393.1684 1706.5353,-393.7485 1822.8874,-393.9391"/>
<polygon fill="#000000" stroke="#000000" points="1823.0678,-397.4393 1833.0735,-393.9557 1823.0793,-390.4393 1823.0678,-397.4393"/>
<text text-anchor="middle" x="1507.5957" y="-397.8" font-family="Times,serif" font-size="14.00" fill="#000000">dcterms:conformsTo</text>
</g>
<!-- Lxywh=0.5644329896907211,0.10470473364690311,0.1377025036818852,0.06369661266568483 -->
<g id="node18" class="node">
<title>Lxywh=0.5644329896907211,0.10470473364690311,0.1377025036818852,0.06369661266568483</title>
<polygon fill="none" stroke="#000000" points="1583.0957,-321 1583.0957,-357 2137.0957,-357 2137.0957,-321 1583.0957,-321"/>
<text text-anchor="middle" x="1860.0957" y="-335.3" font-family="Times,serif" font-size="14.00" fill="#000000">xywh=0.5644329896907211,0.10470473364690311,0.1377025036818852,0.06369661266568483</text>
</g>
<!-- B_:node1euqlam8lx269&#45;&gt;Lxywh=0.5644329896907211,0.10470473364690311,0.1377025036818852,0.06369661266568483 -->
<g id="edge17" class="edge">
<title>B_:node1euqlam8lx269&#45;&gt;Lxywh=0.5644329896907211,0.10470473364690311,0.1377025036818852,0.06369661266568483</title>
<path fill="none" stroke="#000000" d="M1267.4457,-391.3751C1302.5558,-388.2052 1382.6896,-380.983 1450.0957,-375 1513.0957,-369.4081 1581.5454,-363.3793 1644.1447,-357.8843"/>
<polygon fill="#000000" stroke="#000000" points="1644.4839,-361.3681 1654.1395,-357.0071 1643.8718,-354.3949 1644.4839,-361.3681"/>
<text text-anchor="middle" x="1507.5957" y="-378.8" font-family="Times,serif" font-size="14.00" fill="#000000">rdf:value</text>
</g>
</g>
</svg>
