<?xml version="1.0" encoding="UTF-8" standalone="no"?>
<!DOCTYPE svg PUBLIC "-//W3C//DTD SVG 1.1//EN"
 "http://www.w3.org/Graphics/SVG/1.1/DTD/svg11.dtd">
<!-- Generated by graphviz version 2.40.1 (20161225.0304)
 -->
<!-- Title: %3 Pages: 1 -->
<svg width="1988pt" height="1048pt"
 viewBox="0.00 0.00 1987.81 1047.50" xmlns="http://www.w3.org/2000/svg" xmlns:xlink="http://www.w3.org/1999/xlink">
<g id="graph0" class="graph" transform="scale(1 1) rotate(0) translate(4 1043.5)">
<title>%3</title>
<polygon fill="#ffffff" stroke="transparent" points="-4,4 -4,-1043.5 1983.8097,-1043.5 1983.8097,4 -4,4"/>
<text text-anchor="middle" x="989.9048" y="-218.8" font-family="Times,serif" font-size="14.00" fill="#000000">Model:</text>
<text text-anchor="middle" x="989.9048" y="-203.8" font-family="Times,serif" font-size="14.00" fill="#000000">(Unknown)</text>
<text text-anchor="middle" x="989.9048" y="-172.8" font-family="Times,serif" font-size="14.00" fill="#000000">Namespaces:</text>
<text text-anchor="middle" x="989.9048" y="-157.8" font-family="Times,serif" font-size="14.00" fill="#000000">dcmitype: http://purl.org/dc/dcmitype/</text>
<text text-anchor="middle" x="989.9048" y="-142.8" font-family="Times,serif" font-size="14.00" fill="#000000">dcterms: http://purl.org/dc/terms/</text>
<text text-anchor="middle" x="989.9048" y="-127.8" font-family="Times,serif" font-size="14.00" fill="#000000">dsw: http://purl.org/dsw/</text>
<text text-anchor="middle" x="989.9048" y="-112.8" font-family="Times,serif" font-size="14.00" fill="#000000">dwc: http://rs.tdwg.org/dwc/terms/</text>
<text text-anchor="middle" x="989.9048" y="-97.8" font-family="Times,serif" font-size="14.00" fill="#000000">foaf: http://xmlns.com/foaf/0.1/</text>
<text text-anchor="middle" x="989.9048" y="-82.8" font-family="Times,serif" font-size="14.00" fill="#000000">img: http://localhost:8182/iiif/2/900c341c1c10fff7:MMNAT01_PM_NNM001001033_003/full/max/0/</text>
<text text-anchor="middle" x="989.9048" y="-67.8" font-family="Times,serif" font-size="14.00" fill="#000000">iso: http://iso639&#45;3.sil.org/code/</text>
<text text-anchor="middle" x="989.9048" y="-52.8" font-family="Times,serif" font-size="14.00" fill="#000000">mf: http://www.w3.org/TR/media&#45;frags/</text>
<text text-anchor="middle" x="989.9048" y="-37.8" font-family="Times,serif" font-size="14.00" fill="#000000">oa: http://www.w3.org/ns/oa#</text>
<text text-anchor="middle" x="989.9048" y="-22.8" font-family="Times,serif" font-size="14.00" fill="#000000">orcid: http://orcid.org/</text>
<text text-anchor="middle" x="989.9048" y="-7.8" font-family="Times,serif" font-size="14.00" fill="#000000">rdf: http://www.w3.org/1999/02/22&#45;rdf&#45;syntax&#45;ns#</text>
<!-- Rhttp://localhost:8080/rdf/nc/annotation/30a1c589&#45;32f1&#45;4c31&#45;b182&#45;40b49649655b -->
<g id="node1" class="node">
<title>Rhttp://localhost:8080/rdf/nc/annotation/30a1c589&#45;32f1&#45;4c31&#45;b182&#45;40b49649655b</title>
<ellipse fill="none" stroke="#0000ff" cx="297.6736" cy="-751.5" rx="297.8473" ry="18"/>
<text text-anchor="middle" x="297.6736" y="-747.8" font-family="Times,serif" font-size="14.00" fill="#000000">http://localhost:8080/rdf/nc/annotation/30a1c589&#45;32f1&#45;4c31&#45;b182&#45;40b49649655b</text>
</g>
<!-- Roa:Annotation -->
<g id="node2" class="node">
<title>Roa:Annotation</title>
<ellipse fill="none" stroke="#0000ff" cx="829.8374" cy="-884.5" rx="61.1893" ry="18"/>
<text text-anchor="middle" x="829.8374" y="-880.8" font-family="Times,serif" font-size="14.00" fill="#000000">oa:Annotation</text>
</g>
<!-- Rhttp://localhost:8080/rdf/nc/annotation/30a1c589&#45;32f1&#45;4c31&#45;b182&#45;40b49649655b&#45;&gt;Roa:Annotation -->
<g id="edge1" class="edge">
<title>Rhttp://localhost:8080/rdf/nc/annotation/30a1c589&#45;32f1&#45;4c31&#45;b182&#45;40b49649655b&#45;&gt;Roa:Annotation</title>
<path fill="none" stroke="#000000" d="M367.0314,-769.0844C450.5658,-790.2285 595.1586,-826.7174 719.3472,-857.5 736.6511,-861.7891 755.4919,-866.411 772.6334,-870.5975"/>
<polygon fill="#000000" stroke="#000000" points="771.9606,-874.036 782.5052,-873.0064 773.62,-867.2355 771.9606,-874.036"/>
<text text-anchor="middle" x="657.3472" y="-855.3" font-family="Times,serif" font-size="14.00" fill="#000000">rdf:type</text>
</g>
<!-- Rorcid:0000&#45;0002&#45;2146&#45;4803 -->
<g id="node3" class="node">
<title>Rorcid:0000&#45;0002&#45;2146&#45;4803</title>
<ellipse fill="none" stroke="#0000ff" cx="829.8374" cy="-830.5" rx="110.4804" ry="18"/>
<text text-anchor="middle" x="829.8374" y="-826.8" font-family="Times,serif" font-size="14.00" fill="#000000">orcid:0000&#45;0002&#45;2146&#45;4803</text>
</g>
<!-- Rhttp://localhost:8080/rdf/nc/annotation/30a1c589&#45;32f1&#45;4c31&#45;b182&#45;40b49649655b&#45;&gt;Rorcid:0000&#45;0002&#45;2146&#45;4803 -->
<g id="edge2" class="edge">
<title>Rhttp://localhost:8080/rdf/nc/annotation/30a1c589&#45;32f1&#45;4c31&#45;b182&#45;40b49649655b&#45;&gt;Rorcid:0000&#45;0002&#45;2146&#45;4803</title>
<path fill="none" stroke="#000000" d="M410.2066,-768.2056C507.668,-782.6738 646.9135,-803.3449 737.8339,-816.842"/>
<polygon fill="#000000" stroke="#000000" points="737.4449,-820.3226 747.8505,-818.329 738.4728,-813.3984 737.4449,-820.3226"/>
<text text-anchor="middle" x="657.3472" y="-814.3" font-family="Times,serif" font-size="14.00" fill="#000000">dcterms:creator</text>
</g>
<!-- L2021&#45;01&#45;12T14:23:11.646Z|Datatype: dcterms:W3CDTF -->
<g id="node4" class="node">
<title>L2021&#45;01&#45;12T14:23:11.646Z|Datatype: dcterms:W3CDTF</title>
<polygon fill="none" stroke="#000000" points="742.3374,-747.5 742.3374,-793.5 917.3374,-793.5 917.3374,-747.5 742.3374,-747.5"/>
<text text-anchor="middle" x="829.8374" y="-778.3" font-family="Times,serif" font-size="14.00" fill="#000000">2021&#45;01&#45;12T14:23:11.646Z</text>
<polyline fill="none" stroke="#000000" points="742.3374,-770.5 917.3374,-770.5 "/>
<text text-anchor="middle" x="829.8374" y="-755.3" font-family="Times,serif" font-size="14.00" fill="#000000">Datatype: dcterms:W3CDTF</text>
</g>
<!-- Rhttp://localhost:8080/rdf/nc/annotation/30a1c589&#45;32f1&#45;4c31&#45;b182&#45;40b49649655b&#45;&gt;L2021&#45;01&#45;12T14:23:11.646Z|Datatype: dcterms:W3CDTF -->
<g id="edge3" class="edge">
<title>Rhttp://localhost:8080/rdf/nc/annotation/30a1c589&#45;32f1&#45;4c31&#45;b182&#45;40b49649655b&#45;&gt;L2021&#45;01&#45;12T14:23:11.646Z|Datatype: dcterms:W3CDTF</title>
<path fill="none" stroke="#000000" d="M554.0132,-760.6522C617.3543,-762.9137 681.4324,-765.2015 731.8643,-767.002"/>
<polygon fill="#000000" stroke="#000000" points="731.9701,-770.508 742.0886,-767.3671 732.2199,-763.5124 731.9701,-770.508"/>
<text text-anchor="middle" x="657.3472" y="-770.3" font-family="Times,serif" font-size="14.00" fill="#000000">dcterms:date</text>
</g>
<!-- B_:node1f0gq2gelx62 -->
<g id="node5" class="node">
<title>B_:node1f0gq2gelx62</title>
<ellipse fill="none" stroke="#00ff00" cx="829.8374" cy="-710.5" rx="18" ry="18"/>
</g>
<!-- Rhttp://localhost:8080/rdf/nc/annotation/30a1c589&#45;32f1&#45;4c31&#45;b182&#45;40b49649655b&#45;&gt;B_:node1f0gq2gelx62 -->
<g id="edge4" class="edge">
<title>Rhttp://localhost:8080/rdf/nc/annotation/30a1c589&#45;32f1&#45;4c31&#45;b182&#45;40b49649655b&#45;&gt;B_:node1f0gq2gelx62</title>
<path fill="none" stroke="#000000" d="M481.5593,-737.3327C599.7805,-728.2245 742.0069,-717.2668 801.506,-712.6828"/>
<polygon fill="#000000" stroke="#000000" points="801.927,-716.1608 811.6286,-711.9029 801.3893,-709.1815 801.927,-716.1608"/>
<text text-anchor="middle" x="657.3472" y="-730.3" font-family="Times,serif" font-size="14.00" fill="#000000">oa:hasBody</text>
</g>
<!-- B_:node1f0gq2gelx61 -->
<g id="node13" class="node">
<title>B_:node1f0gq2gelx61</title>
<ellipse fill="none" stroke="#00ff00" cx="829.8374" cy="-520.5" rx="18" ry="18"/>
</g>
<!-- Rhttp://localhost:8080/rdf/nc/annotation/30a1c589&#45;32f1&#45;4c31&#45;b182&#45;40b49649655b&#45;&gt;B_:node1f0gq2gelx61 -->
<g id="edge12" class="edge">
<title>Rhttp://localhost:8080/rdf/nc/annotation/30a1c589&#45;32f1&#45;4c31&#45;b182&#45;40b49649655b&#45;&gt;B_:node1f0gq2gelx61</title>
<path fill="none" stroke="#000000" d="M338.9888,-733.566C443.7571,-688.0885 717.5785,-569.229 803.5896,-531.8936"/>
<polygon fill="#000000" stroke="#000000" points="805.1213,-535.0443 812.9007,-527.8518 802.334,-528.6231 805.1213,-535.0443"/>
<text text-anchor="middle" x="657.3472" y="-613.3" font-family="Times,serif" font-size="14.00" fill="#000000">oa:hasTarget</text>
</g>
<!-- Roa:describing -->
<g id="node20" class="node">
<title>Roa:describing</title>
<ellipse fill="none" stroke="#0000ff" cx="829.8374" cy="-466.5" rx="57.6901" ry="18"/>
<text text-anchor="middle" x="829.8374" y="-462.8" font-family="Times,serif" font-size="14.00" fill="#000000">oa:describing</text>
</g>
<!-- Rhttp://localhost:8080/rdf/nc/annotation/30a1c589&#45;32f1&#45;4c31&#45;b182&#45;40b49649655b&#45;&gt;Roa:describing -->
<g id="edge20" class="edge">
<title>Rhttp://localhost:8080/rdf/nc/annotation/30a1c589&#45;32f1&#45;4c31&#45;b182&#45;40b49649655b&#45;&gt;Roa:describing</title>
<path fill="none" stroke="#000000" d="M320.9445,-733.5377C382.467,-686.908 555.9237,-560.9492 719.3472,-493.5 735.0677,-487.0117 752.7162,-481.8331 769.2162,-477.8174"/>
<polygon fill="#000000" stroke="#000000" points="770.3682,-481.1429 779.3138,-475.466 768.7805,-474.3253 770.3682,-481.1429"/>
<text text-anchor="middle" x="657.3472" y="-544.3" font-family="Times,serif" font-size="14.00" fill="#000000">oa:motivatedBy</text>
</g>
<!-- Rfoaf:Person -->
<g id="node21" class="node">
<title>Rfoaf:Person</title>
<ellipse fill="none" stroke="#0000ff" cx="1174.0686" cy="-1018.5" rx="51.1914" ry="18"/>
<text text-anchor="middle" x="1174.0686" y="-1014.8" font-family="Times,serif" font-size="14.00" fill="#000000">foaf:Person</text>
</g>
<!-- Rorcid:0000&#45;0002&#45;2146&#45;4803&#45;&gt;Rfoaf:Person -->
<g id="edge21" class="edge">
<title>Rorcid:0000&#45;0002&#45;2146&#45;4803&#45;&gt;Rfoaf:Person</title>
<path fill="none" stroke="#000000" d="M918.0568,-841.356C926.4242,-845.3635 934.0935,-850.6245 940.3276,-857.5 978.3251,-899.4069 918.708,-943.1231 958.3276,-983.5 998.7695,-1024.7149 1067.3642,-1029.298 1116.3513,-1026.2363"/>
<polygon fill="#000000" stroke="#000000" points="1116.7791,-1029.7141 1126.4899,-1025.4773 1116.2565,-1022.7337 1116.7791,-1029.7141"/>
<text text-anchor="middle" x="1006.8276" y="-1028.3" font-family="Times,serif" font-size="14.00" fill="#000000">rdf:type</text>
</g>
<!-- Rdsw:Token -->
<g id="node6" class="node">
<title>Rdsw:Token</title>
<ellipse fill="none" stroke="#0000ff" cx="1702.8097" cy="-663.5" rx="50.0912" ry="18"/>
<text text-anchor="middle" x="1702.8097" y="-659.8" font-family="Times,serif" font-size="14.00" fill="#000000">dsw:Token</text>
</g>
<!-- B_:node1f0gq2gelx62&#45;&gt;Rdsw:Token -->
<g id="edge5" class="edge">
<title>B_:node1f0gq2gelx62&#45;&gt;Rdsw:Token</title>
<path fill="none" stroke="#000000" d="M847.755,-706.8175C887.9136,-698.7595 988.2778,-679.7086 1073.3276,-672.5 1281.905,-654.8214 1530.716,-658.5573 1642.8206,-661.5607"/>
<polygon fill="#000000" stroke="#000000" points="1642.822,-665.062 1652.9148,-661.8392 1643.0151,-658.0646 1642.822,-665.062"/>
<text text-anchor="middle" x="1174.0686" y="-676.3" font-family="Times,serif" font-size="14.00" fill="#000000">rdf:type</text>
</g>
<!-- Rdwc:MeasurementOrFact -->
<g id="node7" class="node">
<title>Rdwc:MeasurementOrFact</title>
<ellipse fill="none" stroke="#0000ff" cx="1174.0686" cy="-609.5" rx="100.9827" ry="18"/>
<text text-anchor="middle" x="1174.0686" y="-605.8" font-family="Times,serif" font-size="14.00" fill="#000000">dwc:MeasurementOrFact</text>
</g>
<!-- B_:node1f0gq2gelx62&#45;&gt;Rdwc:MeasurementOrFact -->
<g id="edge6" class="edge">
<title>B_:node1f0gq2gelx62&#45;&gt;Rdwc:MeasurementOrFact</title>
<path fill="none" stroke="#000000" d="M844.2578,-699.1765C867.0335,-681.9668 913.3779,-649.6332 958.3276,-634.5 991.8276,-623.2216 1029.7232,-616.8509 1064.3028,-613.306"/>
<polygon fill="#000000" stroke="#000000" points="1064.8173,-616.7728 1074.4387,-612.3368 1064.1509,-609.8046 1064.8173,-616.7728"/>
<text text-anchor="middle" x="1006.8276" y="-638.3" font-family="Times,serif" font-size="14.00" fill="#000000">rdf:type</text>
</g>
<!-- Roa:TextualBody -->
<g id="node8" class="node">
<title>Roa:TextualBody</title>
<ellipse fill="none" stroke="#0000ff" cx="1174.0686" cy="-964.5" rx="67.6881" ry="18"/>
<text text-anchor="middle" x="1174.0686" y="-960.8" font-family="Times,serif" font-size="14.00" fill="#000000">oa:TextualBody</text>
</g>
<!-- B_:node1f0gq2gelx62&#45;&gt;Roa:TextualBody -->
<g id="edge7" class="edge">
<title>B_:node1f0gq2gelx62&#45;&gt;Roa:TextualBody</title>
<path fill="none" stroke="#000000" d="M847.9274,-709.1121C872.838,-708.2987 917.2351,-711.0009 940.3276,-737.5 991.696,-796.4463 906.8664,-853.6347 958.3276,-912.5 992.3467,-951.4137 1049.9586,-963.8227 1097.0933,-966.8197"/>
<polygon fill="#000000" stroke="#000000" points="1097.1225,-970.3255 1107.2862,-967.3342 1097.4754,-963.3344 1097.1225,-970.3255"/>
<text text-anchor="middle" x="1006.8276" y="-964.3" font-family="Times,serif" font-size="14.00" fill="#000000">rdf:type</text>
</g>
<!-- Ltext/plain -->
<g id="node9" class="node">
<title>Ltext/plain</title>
<polygon fill="none" stroke="#000000" points="1140.0686,-891.5 1140.0686,-927.5 1208.0686,-927.5 1208.0686,-891.5 1140.0686,-891.5"/>
<text text-anchor="middle" x="1174.0686" y="-905.8" font-family="Times,serif" font-size="14.00" fill="#000000">text/plain</text>
</g>
<!-- B_:node1f0gq2gelx62&#45;&gt;Ltext/plain -->
<g id="edge8" class="edge">
<title>B_:node1f0gq2gelx62&#45;&gt;Ltext/plain</title>
<path fill="none" stroke="#000000" d="M848.0756,-709.3461C872.7453,-708.8642 916.4074,-712.0156 940.3276,-737.5 971.5325,-770.7455 929.1399,-803.4701 958.3276,-838.5 1000.6269,-889.266 1079.9951,-903.9926 1129.7751,-908.1094"/>
<polygon fill="#000000" stroke="#000000" points="1129.7001,-911.6129 1139.9245,-908.836 1130.2,-904.6308 1129.7001,-911.6129"/>
<text text-anchor="middle" x="1006.8276" y="-897.3" font-family="Times,serif" font-size="14.00" fill="#000000">dcterms:format</text>
</g>
<!-- Riso:lat -->
<g id="node10" class="node">
<title>Riso:lat</title>
<ellipse fill="none" stroke="#0000ff" cx="1174.0686" cy="-854.5" rx="32.4942" ry="18"/>
<text text-anchor="middle" x="1174.0686" y="-850.8" font-family="Times,serif" font-size="14.00" fill="#000000">iso:lat</text>
</g>
<!-- B_:node1f0gq2gelx62&#45;&gt;Riso:lat -->
<g id="edge9" class="edge">
<title>B_:node1f0gq2gelx62&#45;&gt;Riso:lat</title>
<path fill="none" stroke="#000000" d="M848.0984,-711.3316C871.2577,-713.156 911.626,-718.9729 940.3276,-737.5 951.2333,-744.5397 948.5443,-751.9688 958.3276,-760.5 1002.9103,-799.3772 1018.7228,-804.7541 1073.3276,-827.5 1092.5078,-835.4897 1114.7343,-841.7416 1133.4224,-846.2083"/>
<polygon fill="#000000" stroke="#000000" points="1132.8683,-849.6723 1143.3988,-848.5059 1134.4394,-842.8508 1132.8683,-849.6723"/>
<text text-anchor="middle" x="1006.8276" y="-823.3" font-family="Times,serif" font-size="14.00" fill="#000000">dcterms:language</text>
</g>
<!-- Rimg:default.jpg -->
<g id="node11" class="node">
<title>Rimg:default.jpg</title>
<ellipse fill="none" stroke="#0000ff" cx="1174.0686" cy="-555.5" rx="65.7887" ry="18"/>
<text text-anchor="middle" x="1174.0686" y="-551.8" font-family="Times,serif" font-size="14.00" fill="#000000">img:default.jpg</text>
</g>
<!-- B_:node1f0gq2gelx62&#45;&gt;Rimg:default.jpg -->
<g id="edge10" class="edge">
<title>B_:node1f0gq2gelx62&#45;&gt;Rimg:default.jpg</title>
<path fill="none" stroke="#000000" d="M841.2393,-696.2696C861.8148,-671.6485 907.7427,-621.3583 958.3276,-596.5 1002.2009,-574.9399 1056.2467,-564.6917 1099.2687,-559.8326"/>
<polygon fill="#000000" stroke="#000000" points="1099.8147,-563.2945 1109.3923,-558.7648 1099.0803,-556.3331 1099.8147,-563.2945"/>
<text text-anchor="middle" x="1006.8276" y="-600.3" font-family="Times,serif" font-size="14.00" fill="#000000">dsw:derivedFrom</text>
</g>
<!-- L&#45; Longitud. tota &#45;&#45;&#45; 1,0,3\n&#45; corporis &#45;&#45;&#45; 0,2,9\n&#45; tota &#45;&#45;&#45; 0,2,9\n&#45; capitis &#45;&#45;&#45; 0,1,1\n&#45; caudae &#45;&#45;&#45; 0,0,1\n&#45; digit. medii &#45;&#45;&#45; 0,3,0|Language: lat -->
<g id="node12" class="node">
<title>L&#45; Longitud. tota &#45;&#45;&#45; 1,0,3\n&#45; corporis &#45;&#45;&#45; 0,2,9\n&#45; tota &#45;&#45;&#45; 0,2,9\n&#45; capitis &#45;&#45;&#45; 0,1,1\n&#45; caudae &#45;&#45;&#45; 0,0,1\n&#45; digit. medii &#45;&#45;&#45; 0,3,0|Language: lat</title>
<polygon fill="none" stroke="#000000" points="1098.5686,-697 1098.5686,-818 1249.5686,-818 1249.5686,-697 1098.5686,-697"/>
<text text-anchor="middle" x="1174.0686" y="-802.8" font-family="Times,serif" font-size="14.00" fill="#000000">&#45; Longitud. tota &#45;&#45;&#45; 1,0,3</text>
<text text-anchor="middle" x="1174.0686" y="-787.8" font-family="Times,serif" font-size="14.00" fill="#000000">&#45; corporis &#45;&#45;&#45; 0,2,9</text>
<text text-anchor="middle" x="1174.0686" y="-772.8" font-family="Times,serif" font-size="14.00" fill="#000000">&#45; tota &#45;&#45;&#45; 0,2,9</text>
<text text-anchor="middle" x="1174.0686" y="-757.8" font-family="Times,serif" font-size="14.00" fill="#000000">&#45; capitis &#45;&#45;&#45; 0,1,1</text>
<text text-anchor="middle" x="1174.0686" y="-742.8" font-family="Times,serif" font-size="14.00" fill="#000000">&#45; caudae &#45;&#45;&#45; 0,0,1</text>
<text text-anchor="middle" x="1174.0686" y="-727.8" font-family="Times,serif" font-size="14.00" fill="#000000">&#45; digit. medii &#45;&#45;&#45; 0,3,0</text>
<polyline fill="none" stroke="#000000" points="1098.5686,-720 1249.5686,-720 "/>
<text text-anchor="middle" x="1174.0686" y="-704.8" font-family="Times,serif" font-size="14.00" fill="#000000">Language: lat</text>
</g>
<!-- B_:node1f0gq2gelx62&#45;&gt;L&#45; Longitud. tota &#45;&#45;&#45; 1,0,3\n&#45; corporis &#45;&#45;&#45; 0,2,9\n&#45; tota &#45;&#45;&#45; 0,2,9\n&#45; capitis &#45;&#45;&#45; 0,1,1\n&#45; caudae &#45;&#45;&#45; 0,0,1\n&#45; digit. medii &#45;&#45;&#45; 0,3,0|Language: lat -->
<g id="edge11" class="edge">
<title>B_:node1f0gq2gelx62&#45;&gt;L&#45; Longitud. tota &#45;&#45;&#45; 1,0,3\n&#45; corporis &#45;&#45;&#45; 0,2,9\n&#45; tota &#45;&#45;&#45; 0,2,9\n&#45; capitis &#45;&#45;&#45; 0,1,1\n&#45; caudae &#45;&#45;&#45; 0,0,1\n&#45; digit. medii &#45;&#45;&#45; 0,3,0|Language: lat</title>
<path fill="none" stroke="#000000" d="M847.8601,-712.9607C891.904,-718.9743 1007.3117,-734.7317 1088.2982,-745.7892"/>
<polygon fill="#000000" stroke="#000000" points="1088.1108,-749.296 1098.4924,-747.1811 1089.0578,-742.3604 1088.1108,-749.296"/>
<text text-anchor="middle" x="1006.8276" y="-745.3" font-family="Times,serif" font-size="14.00" fill="#000000">rdf:value</text>
</g>
<!-- Rimg:default.jpg&#45;&gt;Rdsw:Token -->
<g id="edge23" class="edge">
<title>Rimg:default.jpg&#45;&gt;Rdsw:Token</title>
<path fill="none" stroke="#000000" d="M1231.6827,-564.1826C1246.5534,-568.1813 1261.9721,-574.01 1274.8097,-582.5 1285.6367,-589.6603 1281.8665,-598.5186 1292.8097,-605.5 1343.9789,-638.1445 1365.9194,-626.6456 1425.8097,-636.5 1500.2041,-648.741 1586.819,-656.0906 1643.1181,-659.964"/>
<polygon fill="#000000" stroke="#000000" points="1643.0553,-663.4676 1653.2678,-660.6471 1643.5255,-656.4834 1643.0553,-663.4676"/>
<text text-anchor="middle" x="1350.3097" y="-638.3" font-family="Times,serif" font-size="14.00" fill="#000000">rdf:type</text>
</g>
<!-- Rdcmitype:StillImage -->
<g id="node22" class="node">
<title>Rdcmitype:StillImage</title>
<ellipse fill="none" stroke="#0000ff" cx="1702.8097" cy="-609.5" rx="83.3857" ry="18"/>
<text text-anchor="middle" x="1702.8097" y="-605.8" font-family="Times,serif" font-size="14.00" fill="#000000">dcmitype:StillImage</text>
</g>
<!-- Rimg:default.jpg&#45;&gt;Rdcmitype:StillImage -->
<g id="edge22" class="edge">
<title>Rimg:default.jpg&#45;&gt;Rdcmitype:StillImage</title>
<path fill="none" stroke="#000000" d="M1230.4441,-564.7873C1250.1387,-567.8348 1272.4174,-571.0615 1292.8097,-573.5 1402.8045,-586.6529 1529.9418,-597.0781 1613.1177,-603.2555"/>
<polygon fill="#000000" stroke="#000000" points="1613.061,-606.7607 1623.2914,-604.0062 1613.5761,-599.7797 1613.061,-606.7607"/>
<text text-anchor="middle" x="1350.3097" y="-590.3" font-family="Times,serif" font-size="14.00" fill="#000000">rdf:type</text>
</g>
<!-- Rdwc:HumanObservation -->
<g id="node23" class="node">
<title>Rdwc:HumanObservation</title>
<ellipse fill="none" stroke="#0000ff" cx="1702.8097" cy="-555.5" rx="96.6831" ry="18"/>
<text text-anchor="middle" x="1702.8097" y="-551.8" font-family="Times,serif" font-size="14.00" fill="#000000">dwc:HumanObservation</text>
</g>
<!-- Rimg:default.jpg&#45;&gt;Rdwc:HumanObservation -->
<g id="edge24" class="edge">
<title>Rimg:default.jpg&#45;&gt;Rdwc:HumanObservation</title>
<path fill="none" stroke="#000000" d="M1239.965,-555.5C1329.0013,-555.5 1488.8167,-555.5 1595.354,-555.5"/>
<polygon fill="#000000" stroke="#000000" points="1595.4937,-559.0001 1605.4936,-555.5 1595.4936,-552.0001 1595.4937,-559.0001"/>
<text text-anchor="middle" x="1350.3097" y="-559.3" font-family="Times,serif" font-size="14.00" fill="#000000">rdf:type</text>
</g>
<!-- Roa:Source -->
<g id="node24" class="node">
<title>Roa:Source</title>
<ellipse fill="none" stroke="#0000ff" cx="1702.8097" cy="-501.5" rx="46.2923" ry="18"/>
<text text-anchor="middle" x="1702.8097" y="-497.8" font-family="Times,serif" font-size="14.00" fill="#000000">oa:Source</text>
</g>
<!-- Rimg:default.jpg&#45;&gt;Roa:Source -->
<g id="edge25" class="edge">
<title>Rimg:default.jpg&#45;&gt;Roa:Source</title>
<path fill="none" stroke="#000000" d="M1229.5247,-545.7609C1249.4362,-542.4934 1272.0876,-539.0389 1292.8097,-536.5 1419.0336,-521.0349 1567.9555,-510.1544 1646.9801,-504.9601"/>
<polygon fill="#000000" stroke="#000000" points="1647.4417,-508.4375 1657.1931,-504.2949 1646.9867,-501.4523 1647.4417,-508.4375"/>
<text text-anchor="middle" x="1350.3097" y="-540.3" font-family="Times,serif" font-size="14.00" fill="#000000">rdf:type</text>
</g>
<!-- Rfoaf:Image -->
<g id="node25" class="node">
<title>Rfoaf:Image</title>
<ellipse fill="none" stroke="#0000ff" cx="1702.8097" cy="-447.5" rx="50.0912" ry="18"/>
<text text-anchor="middle" x="1702.8097" y="-443.8" font-family="Times,serif" font-size="14.00" fill="#000000">foaf:Image</text>
</g>
<!-- Rimg:default.jpg&#45;&gt;Rfoaf:Image -->
<g id="edge26" class="edge">
<title>Rimg:default.jpg&#45;&gt;Rfoaf:Image</title>
<path fill="none" stroke="#000000" d="M1231.6827,-546.8174C1246.5534,-542.8187 1261.9721,-536.99 1274.8097,-528.5 1285.6367,-521.3397 1281.8665,-512.4814 1292.8097,-505.5 1401.8961,-435.9061 1560.2673,-435.5026 1644.693,-441.3979"/>
<polygon fill="#000000" stroke="#000000" points="1644.6275,-444.9028 1654.8621,-442.1639 1645.1533,-437.9226 1644.6275,-444.9028"/>
<text text-anchor="middle" x="1350.3097" y="-509.3" font-family="Times,serif" font-size="14.00" fill="#000000">rdf:type</text>
</g>
<!-- B_:node1f0gq2gelx61&#45;&gt;Rimg:default.jpg -->
<g id="edge19" class="edge">
<title>B_:node1f0gq2gelx61&#45;&gt;Rimg:default.jpg</title>
<path fill="none" stroke="#000000" d="M847.9814,-521.879C886.3141,-524.843 978.3473,-532.2267 1055.3276,-540.5 1071.4098,-542.2284 1088.6907,-544.2926 1104.9543,-546.3286"/>
<polygon fill="#000000" stroke="#000000" points="1104.5694,-549.8077 1114.9294,-547.5894 1105.4472,-542.863 1104.5694,-549.8077"/>
<text text-anchor="middle" x="1006.8276" y="-544.3" font-family="Times,serif" font-size="14.00" fill="#000000">oa:hasSource</text>
</g>
<!-- Roa:Target -->
<g id="node14" class="node">
<title>Roa:Target</title>
<ellipse fill="none" stroke="#0000ff" cx="1174.0686" cy="-501.5" rx="44.393" ry="18"/>
<text text-anchor="middle" x="1174.0686" y="-497.8" font-family="Times,serif" font-size="14.00" fill="#000000">oa:Target</text>
</g>
<!-- B_:node1f0gq2gelx61&#45;&gt;Roa:Target -->
<g id="edge13" class="edge">
<title>B_:node1f0gq2gelx61&#45;&gt;Roa:Target</title>
<path fill="none" stroke="#000000" d="M847.6329,-517.2339C872.3604,-512.8727 918.5611,-505.3645 958.3276,-502.5 1013.1463,-498.5512 1076.0028,-498.8007 1119.6723,-499.733"/>
<polygon fill="#000000" stroke="#000000" points="1119.7123,-503.2348 1129.7911,-499.9686 1119.8753,-496.2367 1119.7123,-503.2348"/>
<text text-anchor="middle" x="1006.8276" y="-506.3" font-family="Times,serif" font-size="14.00" fill="#000000">rdf:type</text>
</g>
<!-- Limage/jpeg -->
<g id="node15" class="node">
<title>Limage/jpeg</title>
<polygon fill="none" stroke="#000000" points="1135.5686,-428.5 1135.5686,-464.5 1212.5686,-464.5 1212.5686,-428.5 1135.5686,-428.5"/>
<text text-anchor="middle" x="1174.0686" y="-442.8" font-family="Times,serif" font-size="14.00" fill="#000000">image/jpeg</text>
</g>
<!-- B_:node1f0gq2gelx61&#45;&gt;Limage/jpeg -->
<g id="edge14" class="edge">
<title>B_:node1f0gq2gelx61&#45;&gt;Limage/jpeg</title>
<path fill="none" stroke="#000000" d="M847.7588,-518.2857C870.2145,-515.0321 909.4917,-507.7383 940.3276,-493.5 949.2869,-489.3631 949.2037,-484.26 958.3276,-480.5 1012.6421,-458.1167 1080.2334,-450.3731 1125.1375,-447.7475"/>
<polygon fill="#000000" stroke="#000000" points="1125.3969,-451.2388 1135.201,-447.2226 1125.0322,-444.2484 1125.3969,-451.2388"/>
<text text-anchor="middle" x="1006.8276" y="-484.3" font-family="Times,serif" font-size="14.00" fill="#000000">dcterms:format</text>
</g>
<!-- B_:node1f0gq2gelx64 -->
<g id="node16" class="node">
<title>B_:node1f0gq2gelx64</title>
<ellipse fill="none" stroke="#00ff00" cx="1174.0686" cy="-365.5" rx="18" ry="18"/>
</g>
<!-- B_:node1f0gq2gelx61&#45;&gt;B_:node1f0gq2gelx64 -->
<g id="edge15" class="edge">
<title>B_:node1f0gq2gelx61&#45;&gt;B_:node1f0gq2gelx64</title>
<path fill="none" stroke="#000000" d="M848.0119,-521.1762C872.2064,-521.0636 914.8919,-517.1831 940.3276,-493.5 959.4609,-475.685 939.9447,-456.0883 958.3276,-437.5 1009.865,-385.3867 1100.0877,-370.9927 1145.8013,-367.017"/>
<polygon fill="#000000" stroke="#000000" points="1146.1897,-370.4977 1155.8947,-366.2477 1145.6576,-363.5179 1146.1897,-370.4977"/>
<text text-anchor="middle" x="1006.8276" y="-441.3" font-family="Times,serif" font-size="14.00" fill="#000000">oa:hasSelector</text>
</g>
<!-- Roa:FragmentSelector -->
<g id="node17" class="node">
<title>Roa:FragmentSelector</title>
<ellipse fill="none" stroke="#0000ff" cx="1702.8097" cy="-393.5" rx="84.485" ry="18"/>
<text text-anchor="middle" x="1702.8097" y="-389.8" font-family="Times,serif" font-size="14.00" fill="#000000">oa:FragmentSelector</text>
</g>
<!-- B_:node1f0gq2gelx64&#45;&gt;Roa:FragmentSelector -->
<g id="edge16" class="edge">
<title>B_:node1f0gq2gelx64&#45;&gt;Roa:FragmentSelector</title>
<path fill="none" stroke="#000000" d="M1192.2691,-366.4638C1257.4205,-369.914 1481.9631,-381.8049 1610.5177,-388.6126"/>
<polygon fill="#000000" stroke="#000000" points="1610.5746,-392.1204 1620.7457,-389.1542 1610.9449,-385.1302 1610.5746,-392.1204"/>
<text text-anchor="middle" x="1350.3097" y="-382.3" font-family="Times,serif" font-size="14.00" fill="#000000">rdf:type</text>
</g>
<!-- Rmf: -->
<g id="node18" class="node">
<title>Rmf:</title>
<ellipse fill="none" stroke="#0000ff" cx="1702.8097" cy="-339.5" rx="27" ry="18"/>
<text text-anchor="middle" x="1702.8097" y="-335.8" font-family="Times,serif" font-size="14.00" fill="#000000">mf:</text>
</g>
<!-- B_:node1f0gq2gelx64&#45;&gt;Rmf: -->
<g id="edge17" class="edge">
<title>B_:node1f0gq2gelx64&#45;&gt;Rmf:</title>
<path fill="none" stroke="#000000" d="M1192.1608,-363.9352C1215.4308,-361.9671 1257.1051,-358.5927 1292.8097,-356.5 1429.7949,-348.471 1592.7453,-342.9003 1665.0425,-340.6339"/>
<polygon fill="#000000" stroke="#000000" points="1665.5575,-344.1197 1675.4441,-340.3111 1665.3403,-337.1231 1665.5575,-344.1197"/>
<text text-anchor="middle" x="1350.3097" y="-360.3" font-family="Times,serif" font-size="14.00" fill="#000000">dcterms:conformsTo</text>
</g>
<!-- Lxywh=0.5614033197022136,0.11586327570674965,0.14027982326951394,0.0625920471281296 -->
<g id="node19" class="node">
<title>Lxywh=0.5614033197022136,0.11586327570674965,0.14027982326951394,0.0625920471281296</title>
<polygon fill="none" stroke="#000000" points="1425.8097,-266.5 1425.8097,-302.5 1979.8097,-302.5 1979.8097,-266.5 1425.8097,-266.5"/>
<text text-anchor="middle" x="1702.8097" y="-280.8" font-family="Times,serif" font-size="14.00" fill="#000000">xywh=0.5614033197022136,0.11586327570674965,0.14027982326951394,0.0625920471281296</text>
</g>
<!-- B_:node1f0gq2gelx64&#45;&gt;Lxywh=0.5614033197022136,0.11586327570674965,0.14027982326951394,0.0625920471281296 -->
<g id="edge18" class="edge">
<title>B_:node1f0gq2gelx64&#45;&gt;Lxywh=0.5614033197022136,0.11586327570674965,0.14027982326951394,0.0625920471281296</title>
<path fill="none" stroke="#000000" d="M1191.6055,-359.9023C1214.6291,-352.7208 1256.3997,-340.2668 1292.8097,-332.5 1350.7843,-320.1331 1414.0979,-310.7467 1473.2479,-303.706"/>
<polygon fill="#000000" stroke="#000000" points="1473.9456,-307.1482 1483.4699,-302.5074 1473.1304,-300.1958 1473.9456,-307.1482"/>
<text text-anchor="middle" x="1350.3097" y="-336.3" font-family="Times,serif" font-size="14.00" fill="#000000">rdf:value</text>
</g>
</g>
</svg>
