<?xml version="1.0" encoding="UTF-8" standalone="no"?>
<!DOCTYPE svg PUBLIC "-//W3C//DTD SVG 1.1//EN"
 "http://www.w3.org/Graphics/SVG/1.1/DTD/svg11.dtd">
<!-- Generated by graphviz version 2.40.1 (20161225.0304)
 -->
<!-- Title: %3 Pages: 1 -->
<svg width="2185pt" height="1119pt"
 viewBox="0.00 0.00 2184.70 1119.00" xmlns="http://www.w3.org/2000/svg" xmlns:xlink="http://www.w3.org/1999/xlink">
<g id="graph0" class="graph" transform="scale(1 1) rotate(0) translate(4 1115)">
<title>%3</title>
<polygon fill="#ffffff" stroke="transparent" points="-4,4 -4,-1115 2180.6955,-1115 2180.6955,4 -4,4"/>
<text text-anchor="middle" x="1088.3478" y="-218.8" font-family="Times,serif" font-size="14.00" fill="#000000">Model:</text>
<text text-anchor="middle" x="1088.3478" y="-203.8" font-family="Times,serif" font-size="14.00" fill="#000000">(Unknown)</text>
<text text-anchor="middle" x="1088.3478" y="-172.8" font-family="Times,serif" font-size="14.00" fill="#000000">Namespaces:</text>
<text text-anchor="middle" x="1088.3478" y="-157.8" font-family="Times,serif" font-size="14.00" fill="#000000">dcmitype: http://purl.org/dc/dcmitype/</text>
<text text-anchor="middle" x="1088.3478" y="-142.8" font-family="Times,serif" font-size="14.00" fill="#000000">dcterms: http://purl.org/dc/terms/</text>
<text text-anchor="middle" x="1088.3478" y="-127.8" font-family="Times,serif" font-size="14.00" fill="#000000">dsw: http://purl.org/dsw/</text>
<text text-anchor="middle" x="1088.3478" y="-112.8" font-family="Times,serif" font-size="14.00" fill="#000000">dwc: http://rs.tdwg.org/dwc/terms/</text>
<text text-anchor="middle" x="1088.3478" y="-97.8" font-family="Times,serif" font-size="14.00" fill="#000000">foaf: http://xmlns.com/foaf/0.1/</text>
<text text-anchor="middle" x="1088.3478" y="-82.8" font-family="Times,serif" font-size="14.00" fill="#000000">img: http://localhost:8080/semanticAnnotator/files/</text>
<text text-anchor="middle" x="1088.3478" y="-67.8" font-family="Times,serif" font-size="14.00" fill="#000000">iso: http://iso639&#45;3.sil.org/code/</text>
<text text-anchor="middle" x="1088.3478" y="-52.8" font-family="Times,serif" font-size="14.00" fill="#000000">mf: http://www.w3.org/TR/media&#45;frags/</text>
<text text-anchor="middle" x="1088.3478" y="-37.8" font-family="Times,serif" font-size="14.00" fill="#000000">oa: http://www.w3.org/ns/oa#</text>
<text text-anchor="middle" x="1088.3478" y="-22.8" font-family="Times,serif" font-size="14.00" fill="#000000">orcid: http://orcid.org/</text>
<text text-anchor="middle" x="1088.3478" y="-7.8" font-family="Times,serif" font-size="14.00" fill="#000000">rdf: http://www.w3.org/1999/02/22&#45;rdf&#45;syntax&#45;ns#</text>
<!-- Rhttp://localhost:8080/rdf/nc/annotation/310e8e6f&#45;a49c&#45;4439&#45;8493&#45;100e761455ac -->
<g id="node1" class="node">
<title>Rhttp://localhost:8080/rdf/nc/annotation/310e8e6f&#45;a49c&#45;4439&#45;8493&#45;100e761455ac</title>
<ellipse fill="none" stroke="#0000ff" cx="295.7238" cy="-888" rx="295.9477" ry="18"/>
<text text-anchor="middle" x="295.7238" y="-884.3" font-family="Times,serif" font-size="14.00" fill="#000000">http://localhost:8080/rdf/nc/annotation/310e8e6f&#45;a49c&#45;4439&#45;8493&#45;100e761455ac</text>
</g>
<!-- Roa:Annotation -->
<g id="node2" class="node">
<title>Roa:Annotation</title>
<ellipse fill="none" stroke="#0000ff" cx="825.9377" cy="-1021" rx="61.1893" ry="18"/>
<text text-anchor="middle" x="825.9377" y="-1017.3" font-family="Times,serif" font-size="14.00" fill="#000000">oa:Annotation</text>
</g>
<!-- Rhttp://localhost:8080/rdf/nc/annotation/310e8e6f&#45;a49c&#45;4439&#45;8493&#45;100e761455ac&#45;&gt;Roa:Annotation -->
<g id="edge1" class="edge">
<title>Rhttp://localhost:8080/rdf/nc/annotation/310e8e6f&#45;a49c&#45;4439&#45;8493&#45;100e761455ac&#45;&gt;Roa:Annotation</title>
<path fill="none" stroke="#000000" d="M364.3875,-905.5135C447.4727,-926.6654 591.6334,-963.2381 715.4475,-994 732.7491,-998.2986 751.5892,-1002.9233 768.7308,-1007.1095"/>
<polygon fill="#000000" stroke="#000000" points="768.0581,-1010.548 778.6028,-1009.5178 769.7172,-1003.7474 768.0581,-1010.548"/>
<text text-anchor="middle" x="653.4475" y="-991.8" font-family="Times,serif" font-size="14.00" fill="#000000">rdf:type</text>
</g>
<!-- Rorcid:0000&#45;0002&#45;2146&#45;4803 -->
<g id="node3" class="node">
<title>Rorcid:0000&#45;0002&#45;2146&#45;4803</title>
<ellipse fill="none" stroke="#0000ff" cx="825.9377" cy="-967" rx="110.4804" ry="18"/>
<text text-anchor="middle" x="825.9377" y="-963.3" font-family="Times,serif" font-size="14.00" fill="#000000">orcid:0000&#45;0002&#45;2146&#45;4803</text>
</g>
<!-- Rhttp://localhost:8080/rdf/nc/annotation/310e8e6f&#45;a49c&#45;4439&#45;8493&#45;100e761455ac&#45;&gt;Rorcid:0000&#45;0002&#45;2146&#45;4803 -->
<g id="edge2" class="edge">
<title>Rhttp://localhost:8080/rdf/nc/annotation/310e8e6f&#45;a49c&#45;4439&#45;8493&#45;100e761455ac&#45;&gt;Rorcid:0000&#45;0002&#45;2146&#45;4803</title>
<path fill="none" stroke="#000000" d="M407.8444,-904.7056C504.9488,-919.1738 643.6841,-939.8449 734.2713,-953.342"/>
<polygon fill="#000000" stroke="#000000" points="733.8446,-956.817 744.2512,-954.829 734.8762,-949.8934 733.8446,-956.817"/>
<text text-anchor="middle" x="653.4475" y="-948.8" font-family="Times,serif" font-size="14.00" fill="#000000">dcterms:creator</text>
</g>
<!-- L2021&#45;01&#45;12T14:23:11.646Z|Datatype: dcterms:W3CDTF -->
<g id="node4" class="node">
<title>L2021&#45;01&#45;12T14:23:11.646Z|Datatype: dcterms:W3CDTF</title>
<polygon fill="none" stroke="#000000" points="738.4377,-884 738.4377,-930 913.4377,-930 913.4377,-884 738.4377,-884"/>
<text text-anchor="middle" x="825.9377" y="-914.8" font-family="Times,serif" font-size="14.00" fill="#000000">2021&#45;01&#45;12T14:23:11.646Z</text>
<polyline fill="none" stroke="#000000" points="738.4377,-907 913.4377,-907 "/>
<text text-anchor="middle" x="825.9377" y="-891.8" font-family="Times,serif" font-size="14.00" fill="#000000">Datatype: dcterms:W3CDTF</text>
</g>
<!-- Rhttp://localhost:8080/rdf/nc/annotation/310e8e6f&#45;a49c&#45;4439&#45;8493&#45;100e761455ac&#45;&gt;L2021&#45;01&#45;12T14:23:11.646Z|Datatype: dcterms:W3CDTF -->
<g id="edge3" class="edge">
<title>Rhttp://localhost:8080/rdf/nc/annotation/310e8e6f&#45;a49c&#45;4439&#45;8493&#45;100e761455ac&#45;&gt;L2021&#45;01&#45;12T14:23:11.646Z|Datatype: dcterms:W3CDTF</title>
<path fill="none" stroke="#000000" d="M550.7361,-897.1383C613.9021,-899.4018 677.8334,-901.6927 728.1583,-903.4961"/>
<polygon fill="#000000" stroke="#000000" points="728.2421,-907.0013 738.361,-903.8617 728.4928,-900.0058 728.2421,-907.0013"/>
<text text-anchor="middle" x="653.4475" y="-904.8" font-family="Times,serif" font-size="14.00" fill="#000000">dcterms:date</text>
</g>
<!-- B_:node1euqlam8lx253 -->
<g id="node5" class="node">
<title>B_:node1euqlam8lx253</title>
<ellipse fill="none" stroke="#00ff00" cx="825.9377" cy="-847" rx="18" ry="18"/>
</g>
<!-- Rhttp://localhost:8080/rdf/nc/annotation/310e8e6f&#45;a49c&#45;4439&#45;8493&#45;100e761455ac&#45;&gt;B_:node1euqlam8lx253 -->
<g id="edge4" class="edge">
<title>Rhttp://localhost:8080/rdf/nc/annotation/310e8e6f&#45;a49c&#45;4439&#45;8493&#45;100e761455ac&#45;&gt;B_:node1euqlam8lx253</title>
<path fill="none" stroke="#000000" d="M478.9358,-873.8327C596.7238,-864.7245 738.4291,-853.7668 797.7101,-849.1828"/>
<polygon fill="#000000" stroke="#000000" points="798.0953,-852.6635 807.7957,-848.4029 797.5556,-845.6844 798.0953,-852.6635"/>
<text text-anchor="middle" x="653.4475" y="-865.8" font-family="Times,serif" font-size="14.00" fill="#000000">oa:hasBody</text>
</g>
<!-- B_:node1euqlam8lx252 -->
<g id="node12" class="node">
<title>B_:node1euqlam8lx252</title>
<ellipse fill="none" stroke="#00ff00" cx="825.9377" cy="-665" rx="18" ry="18"/>
</g>
<!-- Rhttp://localhost:8080/rdf/nc/annotation/310e8e6f&#45;a49c&#45;4439&#45;8493&#45;100e761455ac&#45;&gt;B_:node1euqlam8lx252 -->
<g id="edge12" class="edge">
<title>Rhttp://localhost:8080/rdf/nc/annotation/310e8e6f&#45;a49c&#45;4439&#45;8493&#45;100e761455ac&#45;&gt;B_:node1euqlam8lx252</title>
<path fill="none" stroke="#000000" d="M338.2171,-870.1279C443.535,-825.8328 714.2731,-711.9645 799.7017,-676.0345"/>
<polygon fill="#000000" stroke="#000000" points="801.3166,-679.1523 809.1776,-672.0491 798.6027,-672.6998 801.3166,-679.1523"/>
<text text-anchor="middle" x="653.4475" y="-752.8" font-family="Times,serif" font-size="14.00" fill="#000000">oa:hasTarget</text>
</g>
<!-- Roa:describing -->
<g id="node20" class="node">
<title>Roa:describing</title>
<ellipse fill="none" stroke="#0000ff" cx="825.9377" cy="-611" rx="57.6901" ry="18"/>
<text text-anchor="middle" x="825.9377" y="-607.3" font-family="Times,serif" font-size="14.00" fill="#000000">oa:describing</text>
</g>
<!-- Rhttp://localhost:8080/rdf/nc/annotation/310e8e6f&#45;a49c&#45;4439&#45;8493&#45;100e761455ac&#45;&gt;Roa:describing -->
<g id="edge20" class="edge">
<title>Rhttp://localhost:8080/rdf/nc/annotation/310e8e6f&#45;a49c&#45;4439&#45;8493&#45;100e761455ac&#45;&gt;Roa:describing</title>
<path fill="none" stroke="#000000" d="M319.901,-870.0279C382.1834,-824.5506 554.5289,-703.8521 715.4475,-638 731.2631,-631.5278 749.0121,-626.346 765.58,-622.3218"/>
<polygon fill="#000000" stroke="#000000" points="766.7682,-625.639 775.7154,-619.9646 765.1824,-618.8209 766.7682,-625.639"/>
<text text-anchor="middle" x="653.4475" y="-686.8" font-family="Times,serif" font-size="14.00" fill="#000000">oa:motivatedBy</text>
</g>
<!-- Rfoaf:Person -->
<g id="node21" class="node">
<title>Rfoaf:Person</title>
<ellipse fill="none" stroke="#0000ff" cx="1276.0617" cy="-1084" rx="51.1914" ry="18"/>
<text text-anchor="middle" x="1276.0617" y="-1080.3" font-family="Times,serif" font-size="14.00" fill="#000000">foaf:Person</text>
</g>
<!-- Rorcid:0000&#45;0002&#45;2146&#45;4803&#45;&gt;Rfoaf:Person -->
<g id="edge21" class="edge">
<title>Rorcid:0000&#45;0002&#45;2146&#45;4803&#45;&gt;Rfoaf:Person</title>
<path fill="none" stroke="#000000" d="M911.6339,-978.3969C920.7275,-982.2752 929.2566,-987.3581 936.4279,-994 955.2981,-1011.4771 934.4521,-1032.7983 954.4279,-1049 1030.3099,-1110.5452 1151.5656,-1104.6127 1221.501,-1094.4866"/>
<polygon fill="#000000" stroke="#000000" points="1222.0784,-1097.9391 1231.4355,-1092.9697 1221.0217,-1091.0193 1222.0784,-1097.9391"/>
<text text-anchor="middle" x="1014.9279" y="-1099.8" font-family="Times,serif" font-size="14.00" fill="#000000">rdf:type</text>
</g>
<!-- Rdcterms:Location -->
<g id="node6" class="node">
<title>Rdcterms:Location</title>
<ellipse fill="none" stroke="#0000ff" cx="1276.0617" cy="-1030" rx="72.5877" ry="18"/>
<text text-anchor="middle" x="1276.0617" y="-1026.3" font-family="Times,serif" font-size="14.00" fill="#000000">dcterms:Location</text>
</g>
<!-- B_:node1euqlam8lx253&#45;&gt;Rdcterms:Location -->
<g id="edge5" class="edge">
<title>B_:node1euqlam8lx253&#45;&gt;Rdcterms:Location</title>
<path fill="none" stroke="#000000" d="M844.1081,-846.108C868.6992,-845.9617 912.2704,-849.638 936.4279,-875 964.2619,-904.2217 926.9665,-934.4278 954.4279,-964 998.0892,-1011.0173 1030.6763,-989.6146 1093.4279,-1003 1128.2276,-1010.423 1167.1907,-1016.4855 1200.1619,-1020.9715"/>
<polygon fill="#000000" stroke="#000000" points="1199.8149,-1024.4562 1210.1907,-1022.3129 1200.743,-1017.518 1199.8149,-1024.4562"/>
<text text-anchor="middle" x="1014.9279" y="-1002.8" font-family="Times,serif" font-size="14.00" fill="#000000">rdf:type</text>
</g>
<!-- Rdwc:Location -->
<g id="node7" class="node">
<title>Rdwc:Location</title>
<ellipse fill="none" stroke="#0000ff" cx="1276.0617" cy="-976" rx="59.2899" ry="18"/>
<text text-anchor="middle" x="1276.0617" y="-972.3" font-family="Times,serif" font-size="14.00" fill="#000000">dwc:Location</text>
</g>
<!-- B_:node1euqlam8lx253&#45;&gt;Rdwc:Location -->
<g id="edge6" class="edge">
<title>B_:node1euqlam8lx253&#45;&gt;Rdwc:Location</title>
<path fill="none" stroke="#000000" d="M844.0896,-847.0287C867.8708,-847.9949 909.6822,-853.0018 936.4279,-875 950.8609,-886.8711 940.026,-901.0912 954.4279,-913 1003.6083,-953.6667 1030.8851,-936.3155 1093.4279,-949 1132.0246,-956.8279 1175.6439,-963.3615 1210.573,-968.0399"/>
<polygon fill="#000000" stroke="#000000" points="1210.2774,-971.5312 1220.6496,-969.3706 1211.1939,-964.5914 1210.2774,-971.5312"/>
<text text-anchor="middle" x="1014.9279" y="-948.8" font-family="Times,serif" font-size="14.00" fill="#000000">rdf:type</text>
</g>
<!-- Roa:TextualBody -->
<g id="node8" class="node">
<title>Roa:TextualBody</title>
<ellipse fill="none" stroke="#0000ff" cx="1276.0617" cy="-922" rx="67.6881" ry="18"/>
<text text-anchor="middle" x="1276.0617" y="-918.3" font-family="Times,serif" font-size="14.00" fill="#000000">oa:TextualBody</text>
</g>
<!-- B_:node1euqlam8lx253&#45;&gt;Roa:TextualBody -->
<g id="edge7" class="edge">
<title>B_:node1euqlam8lx253&#45;&gt;Roa:TextualBody</title>
<path fill="none" stroke="#000000" d="M843.7212,-851.4873C868.4348,-857.6147 914.6195,-868.6731 954.4279,-876 1039.7346,-891.7011 1138.6075,-905.137 1203.9689,-913.3639"/>
<polygon fill="#000000" stroke="#000000" points="1203.807,-916.8708 1214.1641,-914.6391 1204.6758,-909.9249 1203.807,-916.8708"/>
<text text-anchor="middle" x="1014.9279" y="-897.8" font-family="Times,serif" font-size="14.00" fill="#000000">rdf:type</text>
</g>
<!-- Ltext/plain -->
<g id="node9" class="node">
<title>Ltext/plain</title>
<polygon fill="none" stroke="#000000" points="1242.0617,-849 1242.0617,-885 1310.0617,-885 1310.0617,-849 1242.0617,-849"/>
<text text-anchor="middle" x="1276.0617" y="-863.3" font-family="Times,serif" font-size="14.00" fill="#000000">text/plain</text>
</g>
<!-- B_:node1euqlam8lx253&#45;&gt;Ltext/plain -->
<g id="edge8" class="edge">
<title>B_:node1euqlam8lx253&#45;&gt;Ltext/plain</title>
<path fill="none" stroke="#000000" d="M844.1406,-847.8088C909.7599,-850.7244 1135.3733,-860.7489 1231.7948,-865.0331"/>
<polygon fill="#000000" stroke="#000000" points="1231.6607,-868.5305 1241.8063,-865.478 1231.9715,-861.5374 1231.6607,-868.5305"/>
<text text-anchor="middle" x="1014.9279" y="-860.8" font-family="Times,serif" font-size="14.00" fill="#000000">dcterms:format</text>
</g>
<!-- Riso:und -->
<g id="node10" class="node">
<title>Riso:und</title>
<ellipse fill="none" stroke="#0000ff" cx="1276.0617" cy="-812" rx="36.2938" ry="18"/>
<text text-anchor="middle" x="1276.0617" y="-808.3" font-family="Times,serif" font-size="14.00" fill="#000000">iso:und</text>
</g>
<!-- B_:node1euqlam8lx253&#45;&gt;Riso:und -->
<g id="edge9" class="edge">
<title>B_:node1euqlam8lx253&#45;&gt;Riso:und</title>
<path fill="none" stroke="#000000" d="M844.2122,-844.7567C869.106,-841.7586 915.0836,-836.4262 954.4279,-833 1052.1835,-824.4871 1166.9282,-817.7834 1229.5206,-814.4045"/>
<polygon fill="#000000" stroke="#000000" points="1230.0481,-817.8814 1239.8467,-813.8518 1229.6739,-810.8914 1230.0481,-817.8814"/>
<text text-anchor="middle" x="1014.9279" y="-836.8" font-family="Times,serif" font-size="14.00" fill="#000000">dcterms:language</text>
</g>
<!-- LBagalonga|Language: und -->
<g id="node11" class="node">
<title>LBagalonga|Language: und</title>
<polygon fill="none" stroke="#000000" points="1227.0617,-729 1227.0617,-775 1325.0617,-775 1325.0617,-729 1227.0617,-729"/>
<text text-anchor="middle" x="1276.0617" y="-759.8" font-family="Times,serif" font-size="14.00" fill="#000000">Bagalonga</text>
<polyline fill="none" stroke="#000000" points="1227.0617,-752 1325.0617,-752 "/>
<text text-anchor="middle" x="1276.0617" y="-736.8" font-family="Times,serif" font-size="14.00" fill="#000000">Language: und</text>
</g>
<!-- B_:node1euqlam8lx253&#45;&gt;LBagalonga|Language: und -->
<g id="edge10" class="edge">
<title>B_:node1euqlam8lx253&#45;&gt;LBagalonga|Language: und</title>
<path fill="none" stroke="#000000" d="M843.1519,-840.4401C867.5791,-831.347 913.847,-814.9145 954.4279,-805 1044.836,-782.912 1151.8168,-767.3309 1216.7697,-759.0118"/>
<polygon fill="#000000" stroke="#000000" points="1217.3431,-762.4672 1226.8244,-757.7391 1216.464,-755.5227 1217.3431,-762.4672"/>
<text text-anchor="middle" x="1014.9279" y="-808.8" font-family="Times,serif" font-size="14.00" fill="#000000">dwc:verbatimLocality</text>
</g>
<!-- B_:node1euqlam8lx253&#45;&gt;LBagalonga|Language: und -->
<g id="edge11" class="edge">
<title>B_:node1euqlam8lx253&#45;&gt;LBagalonga|Language: und</title>
<path fill="none" stroke="#000000" d="M839.224,-834.471C861.1691,-814.704 907.2715,-776.9891 954.4279,-762 1042.4897,-734.0088 1151.0223,-738.0133 1216.8125,-744.3535"/>
<polygon fill="#000000" stroke="#000000" points="1216.6925,-747.8592 1226.9948,-745.3866 1217.3992,-740.895 1216.6925,-747.8592"/>
<text text-anchor="middle" x="1014.9279" y="-765.8" font-family="Times,serif" font-size="14.00" fill="#000000">rdf:value</text>
</g>
<!-- Roa:Target -->
<g id="node13" class="node">
<title>Roa:Target</title>
<ellipse fill="none" stroke="#0000ff" cx="1276.0617" cy="-692" rx="44.393" ry="18"/>
<text text-anchor="middle" x="1276.0617" y="-688.3" font-family="Times,serif" font-size="14.00" fill="#000000">oa:Target</text>
</g>
<!-- B_:node1euqlam8lx252&#45;&gt;Roa:Target -->
<g id="edge13" class="edge">
<title>B_:node1euqlam8lx252&#45;&gt;Roa:Target</title>
<path fill="none" stroke="#000000" d="M844.1406,-666.0919C907.6665,-669.9024 1121.1413,-682.7073 1222.1818,-688.7681"/>
<polygon fill="#000000" stroke="#000000" points="1221.9919,-692.2629 1232.1835,-689.368 1222.4111,-685.2755 1221.9919,-692.2629"/>
<text text-anchor="middle" x="1014.9279" y="-682.8" font-family="Times,serif" font-size="14.00" fill="#000000">rdf:type</text>
</g>
<!-- Limage/jpeg -->
<g id="node14" class="node">
<title>Limage/jpeg</title>
<polygon fill="none" stroke="#000000" points="1237.5617,-619 1237.5617,-655 1314.5617,-655 1314.5617,-619 1237.5617,-619"/>
<text text-anchor="middle" x="1276.0617" y="-633.3" font-family="Times,serif" font-size="14.00" fill="#000000">image/jpeg</text>
</g>
<!-- B_:node1euqlam8lx252&#45;&gt;Limage/jpeg -->
<g id="edge14" class="edge">
<title>B_:node1euqlam8lx252&#45;&gt;Limage/jpeg</title>
<path fill="none" stroke="#000000" d="M844.2161,-663.0411C869.1142,-660.4304 915.0967,-655.8136 954.4279,-653 1051.0976,-646.0847 1164.3262,-641.1983 1227.3623,-638.7639"/>
<polygon fill="#000000" stroke="#000000" points="1227.5527,-642.2593 1237.4118,-638.3802 1227.2856,-635.2644 1227.5527,-642.2593"/>
<text text-anchor="middle" x="1014.9279" y="-656.8" font-family="Times,serif" font-size="14.00" fill="#000000">dcterms:format</text>
</g>
<!-- B_:node1euqlam8lx255 -->
<g id="node15" class="node">
<title>B_:node1euqlam8lx255</title>
<ellipse fill="none" stroke="#00ff00" cx="1276.0617" cy="-582" rx="18" ry="18"/>
</g>
<!-- B_:node1euqlam8lx252&#45;&gt;B_:node1euqlam8lx255 -->
<g id="edge15" class="edge">
<title>B_:node1euqlam8lx252&#45;&gt;B_:node1euqlam8lx255</title>
<path fill="none" stroke="#000000" d="M844.1665,-662.5377C866.5986,-659.0639 905.5114,-651.5785 936.4279,-638 945.2311,-634.1337 945.4362,-629.4049 954.4279,-626 1057.4208,-587.0002 1190.5789,-581.902 1247.8443,-581.6735"/>
<polygon fill="#000000" stroke="#000000" points="1247.9392,-585.1734 1257.9423,-581.6822 1247.9454,-578.1734 1247.9392,-585.1734"/>
<text text-anchor="middle" x="1014.9279" y="-629.8" font-family="Times,serif" font-size="14.00" fill="#000000">oa:hasSelector</text>
</g>
<!-- Rimg:MMNAT01_AF_NNM001001033_003.jpg -->
<g id="node19" class="node">
<title>Rimg:MMNAT01_AF_NNM001001033_003.jpg</title>
<ellipse fill="none" stroke="#0000ff" cx="1276.0617" cy="-419" rx="182.7677" ry="18"/>
<text text-anchor="middle" x="1276.0617" y="-415.3" font-family="Times,serif" font-size="14.00" fill="#000000">img:MMNAT01_AF_NNM001001033_003.jpg</text>
</g>
<!-- B_:node1euqlam8lx252&#45;&gt;Rimg:MMNAT01_AF_NNM001001033_003.jpg -->
<g id="edge19" class="edge">
<title>B_:node1euqlam8lx252&#45;&gt;Rimg:MMNAT01_AF_NNM001001033_003.jpg</title>
<path fill="none" stroke="#000000" d="M844.1963,-665.7653C868.486,-665.7538 911.279,-661.9874 936.4279,-638 956.8823,-618.4903 936.2058,-598.6095 954.4279,-577 1017.0866,-502.6934 1123.0602,-460.2361 1196.1413,-438.4293"/>
<polygon fill="#000000" stroke="#000000" points="1197.1605,-441.7779 1205.7791,-435.6159 1195.1989,-435.0584 1197.1605,-441.7779"/>
<text text-anchor="middle" x="1014.9279" y="-580.8" font-family="Times,serif" font-size="14.00" fill="#000000">oa:hasSource</text>
</g>
<!-- Roa:FragmentSelector -->
<g id="node16" class="node">
<title>Roa:FragmentSelector</title>
<ellipse fill="none" stroke="#0000ff" cx="1893.1955" cy="-664" rx="84.485" ry="18"/>
<text text-anchor="middle" x="1893.1955" y="-660.3" font-family="Times,serif" font-size="14.00" fill="#000000">oa:FragmentSelector</text>
</g>
<!-- B_:node1euqlam8lx255&#45;&gt;Roa:FragmentSelector -->
<g id="edge16" class="edge">
<title>B_:node1euqlam8lx255&#45;&gt;Roa:FragmentSelector</title>
<path fill="none" stroke="#000000" d="M1294.1475,-583.6146C1327.1714,-586.7961 1399.3044,-594.8267 1458.6955,-609 1466.8979,-610.9575 1468.5102,-612.9723 1476.6955,-615 1585.8622,-642.0437 1714.931,-654.2916 1800.1372,-659.7528"/>
<polygon fill="#000000" stroke="#000000" points="1800.1083,-663.2577 1810.3064,-660.3857 1800.5432,-656.2712 1800.1083,-663.2577"/>
<text text-anchor="middle" x="1534.1955" y="-640.8" font-family="Times,serif" font-size="14.00" fill="#000000">rdf:type</text>
</g>
<!-- Rmf: -->
<g id="node17" class="node">
<title>Rmf:</title>
<ellipse fill="none" stroke="#0000ff" cx="1893.1955" cy="-610" rx="27" ry="18"/>
<text text-anchor="middle" x="1893.1955" y="-606.3" font-family="Times,serif" font-size="14.00" fill="#000000">mf:</text>
</g>
<!-- B_:node1euqlam8lx255&#45;&gt;Rmf: -->
<g id="edge17" class="edge">
<title>B_:node1euqlam8lx255&#45;&gt;Rmf:</title>
<path fill="none" stroke="#000000" d="M1294.1971,-582.8228C1379.1468,-586.6771 1738.5059,-602.9816 1855.9149,-608.3085"/>
<polygon fill="#000000" stroke="#000000" points="1856.0394,-611.8177 1866.1878,-608.7746 1856.3568,-604.8249 1856.0394,-611.8177"/>
<text text-anchor="middle" x="1534.1955" y="-599.8" font-family="Times,serif" font-size="14.00" fill="#000000">dcterms:conformsTo</text>
</g>
<!-- Lxywh=0.6633333993832923,0.1642253271806423,0.054343173382856436,0.021264720019378597 -->
<g id="node18" class="node">
<title>Lxywh=0.6633333993832923,0.1642253271806423,0.054343173382856436,0.021264720019378597</title>
<polygon fill="none" stroke="#000000" points="1609.6955,-537 1609.6955,-573 2176.6955,-573 2176.6955,-537 1609.6955,-537"/>
<text text-anchor="middle" x="1893.1955" y="-551.3" font-family="Times,serif" font-size="14.00" fill="#000000">xywh=0.6633333993832923,0.1642253271806423,0.054343173382856436,0.021264720019378597</text>
</g>
<!-- B_:node1euqlam8lx255&#45;&gt;Lxywh=0.6633333993832923,0.1642253271806423,0.054343173382856436,0.021264720019378597 -->
<g id="edge18" class="edge">
<title>B_:node1euqlam8lx255&#45;&gt;Lxywh=0.6633333993832923,0.1642253271806423,0.054343173382856436,0.021264720019378597</title>
<path fill="none" stroke="#000000" d="M1294.046,-581.1834C1329.1572,-579.5913 1409.2926,-575.9683 1476.6955,-573 1516.3572,-571.2534 1558.1442,-569.4289 1599.3248,-567.64"/>
<polygon fill="#000000" stroke="#000000" points="1599.6585,-571.1289 1609.4972,-567.1983 1599.3548,-564.1355 1599.6585,-571.1289"/>
<text text-anchor="middle" x="1534.1955" y="-576.8" font-family="Times,serif" font-size="14.00" fill="#000000">rdf:value</text>
</g>
<!-- Rdcmitype:StillImage -->
<g id="node22" class="node">
<title>Rdcmitype:StillImage</title>
<ellipse fill="none" stroke="#0000ff" cx="1893.1955" cy="-500" rx="83.3857" ry="18"/>
<text text-anchor="middle" x="1893.1955" y="-496.3" font-family="Times,serif" font-size="14.00" fill="#000000">dcmitype:StillImage</text>
</g>
<!-- Rimg:MMNAT01_AF_NNM001001033_003.jpg&#45;&gt;Rdcmitype:StillImage -->
<g id="edge22" class="edge">
<title>Rimg:MMNAT01_AF_NNM001001033_003.jpg&#45;&gt;Rdcmitype:StillImage</title>
<path fill="none" stroke="#000000" d="M1369.4416,-434.4867C1403.2248,-440.0558 1441.6708,-446.3545 1476.6955,-452 1535.7764,-461.523 1550.3248,-465.4929 1609.6955,-473 1674.8048,-481.2327 1748.614,-488.1869 1804.5964,-492.9751"/>
<polygon fill="#000000" stroke="#000000" points="1804.5759,-496.4859 1814.836,-493.8438 1805.1677,-489.5109 1804.5759,-496.4859"/>
<text text-anchor="middle" x="1534.1955" y="-474.8" font-family="Times,serif" font-size="14.00" fill="#000000">rdf:type</text>
</g>
<!-- Rdsw:Token -->
<g id="node23" class="node">
<title>Rdsw:Token</title>
<ellipse fill="none" stroke="#0000ff" cx="1893.1955" cy="-446" rx="50.0912" ry="18"/>
<text text-anchor="middle" x="1893.1955" y="-442.3" font-family="Times,serif" font-size="14.00" fill="#000000">dsw:Token</text>
</g>
<!-- Rimg:MMNAT01_AF_NNM001001033_003.jpg&#45;&gt;Rdsw:Token -->
<g id="edge23" class="edge">
<title>Rimg:MMNAT01_AF_NNM001001033_003.jpg&#45;&gt;Rdsw:Token</title>
<path fill="none" stroke="#000000" d="M1443.067,-426.3066C1572.1745,-431.9551 1743.4956,-439.4505 1832.9647,-443.3649"/>
<polygon fill="#000000" stroke="#000000" points="1833.0558,-446.8721 1843.1993,-443.8126 1833.3619,-439.8788 1833.0558,-446.8721"/>
<text text-anchor="middle" x="1534.1955" y="-436.8" font-family="Times,serif" font-size="14.00" fill="#000000">rdf:type</text>
</g>
<!-- Rdwc:HumanObservation -->
<g id="node24" class="node">
<title>Rdwc:HumanObservation</title>
<ellipse fill="none" stroke="#0000ff" cx="1893.1955" cy="-392" rx="96.6831" ry="18"/>
<text text-anchor="middle" x="1893.1955" y="-388.3" font-family="Times,serif" font-size="14.00" fill="#000000">dwc:HumanObservation</text>
</g>
<!-- Rimg:MMNAT01_AF_NNM001001033_003.jpg&#45;&gt;Rdwc:HumanObservation -->
<g id="edge24" class="edge">
<title>Rimg:MMNAT01_AF_NNM001001033_003.jpg&#45;&gt;Rdwc:HumanObservation</title>
<path fill="none" stroke="#000000" d="M1442.4719,-411.5142C1454.0538,-410.9997 1465.5488,-410.4909 1476.6955,-410 1582.8292,-405.3261 1704.1813,-400.0944 1788.4082,-396.4811"/>
<polygon fill="#000000" stroke="#000000" points="1788.6514,-399.974 1798.4923,-396.0486 1788.3514,-392.9804 1788.6514,-399.974"/>
<text text-anchor="middle" x="1534.1955" y="-413.8" font-family="Times,serif" font-size="14.00" fill="#000000">rdf:type</text>
</g>
<!-- Roa:Source -->
<g id="node25" class="node">
<title>Roa:Source</title>
<ellipse fill="none" stroke="#0000ff" cx="1893.1955" cy="-338" rx="46.2923" ry="18"/>
<text text-anchor="middle" x="1893.1955" y="-334.3" font-family="Times,serif" font-size="14.00" fill="#000000">oa:Source</text>
</g>
<!-- Rimg:MMNAT01_AF_NNM001001033_003.jpg&#45;&gt;Roa:Source -->
<g id="edge25" class="edge">
<title>Rimg:MMNAT01_AF_NNM001001033_003.jpg&#45;&gt;Roa:Source</title>
<path fill="none" stroke="#000000" d="M1369.4416,-403.5133C1403.2248,-397.9442 1441.6708,-391.6455 1476.6955,-386 1535.7764,-376.477 1550.3248,-372.5071 1609.6955,-365 1688.427,-355.0449 1779.8795,-346.9591 1837.1504,-342.3121"/>
<polygon fill="#000000" stroke="#000000" points="1837.7484,-345.7754 1847.4356,-341.4847 1837.1871,-338.7979 1837.7484,-345.7754"/>
<text text-anchor="middle" x="1534.1955" y="-389.8" font-family="Times,serif" font-size="14.00" fill="#000000">rdf:type</text>
</g>
<!-- Rfoaf:Image -->
<g id="node26" class="node">
<title>Rfoaf:Image</title>
<ellipse fill="none" stroke="#0000ff" cx="1893.1955" cy="-284" rx="50.0912" ry="18"/>
<text text-anchor="middle" x="1893.1955" y="-280.3" font-family="Times,serif" font-size="14.00" fill="#000000">foaf:Image</text>
</g>
<!-- Rimg:MMNAT01_AF_NNM001001033_003.jpg&#45;&gt;Rfoaf:Image -->
<g id="edge26" class="edge">
<title>Rimg:MMNAT01_AF_NNM001001033_003.jpg&#45;&gt;Rfoaf:Image</title>
<path fill="none" stroke="#000000" d="M1323.6388,-401.5357C1364.1299,-386.881 1423.9456,-365.7226 1476.6955,-349 1535.2977,-330.4221 1549.2865,-322.4066 1609.6955,-311 1686.119,-296.5695 1775.6653,-289.6787 1833.3514,-286.5104"/>
<polygon fill="#000000" stroke="#000000" points="1833.5868,-290.0029 1843.3878,-285.9791 1833.2167,-283.0127 1833.5868,-290.0029"/>
<text text-anchor="middle" x="1534.1955" y="-352.8" font-family="Times,serif" font-size="14.00" fill="#000000">rdf:type</text>
</g>
</g>
</svg>
