<?xml version="1.0" encoding="UTF-8" standalone="no"?>
<!DOCTYPE svg PUBLIC "-//W3C//DTD SVG 1.1//EN"
 "http://www.w3.org/Graphics/SVG/1.1/DTD/svg11.dtd">
<!-- Generated by graphviz version 2.40.1 (20161225.0304)
 -->
<!-- Title: %3 Pages: 1 -->
<svg width="2201pt" height="1016pt"
 viewBox="0.00 0.00 2200.60 1015.50" xmlns="http://www.w3.org/2000/svg" xmlns:xlink="http://www.w3.org/1999/xlink">
<g id="graph0" class="graph" transform="scale(1 1) rotate(0) translate(4 1011.5)">
<title>%3</title>
<polygon fill="#ffffff" stroke="transparent" points="-4,4 -4,-1011.5 2196.5952,-1011.5 2196.5952,4 -4,4"/>
<text text-anchor="middle" x="1096.2976" y="-248.8" font-family="Times,serif" font-size="14.00" fill="#000000">Model:</text>
<text text-anchor="middle" x="1096.2976" y="-233.8" font-family="Times,serif" font-size="14.00" fill="#000000">(Unknown)</text>
<text text-anchor="middle" x="1096.2976" y="-202.8" font-family="Times,serif" font-size="14.00" fill="#000000">Namespaces:</text>
<text text-anchor="middle" x="1096.2976" y="-187.8" font-family="Times,serif" font-size="14.00" fill="#000000">dcmitype: http://purl.org/dc/dcmitype/</text>
<text text-anchor="middle" x="1096.2976" y="-172.8" font-family="Times,serif" font-size="14.00" fill="#000000">dcterms: http://purl.org/dc/terms/</text>
<text text-anchor="middle" x="1096.2976" y="-157.8" font-family="Times,serif" font-size="14.00" fill="#000000">dsw: http://purl.org/dsw/</text>
<text text-anchor="middle" x="1096.2976" y="-142.8" font-family="Times,serif" font-size="14.00" fill="#000000">dwc: http://rs.tdwg.org/dwc/terms/</text>
<text text-anchor="middle" x="1096.2976" y="-127.8" font-family="Times,serif" font-size="14.00" fill="#000000">dwciri: http://rs.tdwg.org/dwc/iri/</text>
<text text-anchor="middle" x="1096.2976" y="-112.8" font-family="Times,serif" font-size="14.00" fill="#000000">foaf: http://xmlns.com/foaf/0.1/</text>
<text text-anchor="middle" x="1096.2976" y="-97.8" font-family="Times,serif" font-size="14.00" fill="#000000">img: http://localhost:8080/semanticAnnotator/files/</text>
<text text-anchor="middle" x="1096.2976" y="-82.8" font-family="Times,serif" font-size="14.00" fill="#000000">iso: http://iso639&#45;3.sil.org/code/</text>
<text text-anchor="middle" x="1096.2976" y="-67.8" font-family="Times,serif" font-size="14.00" fill="#000000">mf: http://www.w3.org/TR/media&#45;frags/</text>
<text text-anchor="middle" x="1096.2976" y="-52.8" font-family="Times,serif" font-size="14.00" fill="#000000">oa: http://www.w3.org/ns/oa#</text>
<text text-anchor="middle" x="1096.2976" y="-37.8" font-family="Times,serif" font-size="14.00" fill="#000000">obo: http://purl.obolibrary.org/obo/</text>
<text text-anchor="middle" x="1096.2976" y="-22.8" font-family="Times,serif" font-size="14.00" fill="#000000">orcid: http://orcid.org/</text>
<text text-anchor="middle" x="1096.2976" y="-7.8" font-family="Times,serif" font-size="14.00" fill="#000000">rdf: http://www.w3.org/1999/02/22&#45;rdf&#45;syntax&#45;ns#</text>
<!-- Rhttp://localhost:8080/rdf/nc/annotation/6515346a&#45;c944&#45;4775&#45;9e45&#45;1d52e7ca1b98 -->
<g id="node1" class="node">
<title>Rhttp://localhost:8080/rdf/nc/annotation/6515346a&#45;c944&#45;4775&#45;9e45&#45;1d52e7ca1b98</title>
<ellipse fill="none" stroke="#0000ff" cx="297.6736" cy="-762.5" rx="297.8473" ry="18"/>
<text text-anchor="middle" x="297.6736" y="-758.8" font-family="Times,serif" font-size="14.00" fill="#000000">http://localhost:8080/rdf/nc/annotation/6515346a&#45;c944&#45;4775&#45;9e45&#45;1d52e7ca1b98</text>
</g>
<!-- Roa:Annotation -->
<g id="node2" class="node">
<title>Roa:Annotation</title>
<ellipse fill="none" stroke="#0000ff" cx="829.8374" cy="-895.5" rx="61.1893" ry="18"/>
<text text-anchor="middle" x="829.8374" y="-891.8" font-family="Times,serif" font-size="14.00" fill="#000000">oa:Annotation</text>
</g>
<!-- Rhttp://localhost:8080/rdf/nc/annotation/6515346a&#45;c944&#45;4775&#45;9e45&#45;1d52e7ca1b98&#45;&gt;Roa:Annotation -->
<g id="edge1" class="edge">
<title>Rhttp://localhost:8080/rdf/nc/annotation/6515346a&#45;c944&#45;4775&#45;9e45&#45;1d52e7ca1b98&#45;&gt;Roa:Annotation</title>
<path fill="none" stroke="#000000" d="M367.0314,-780.0844C450.5658,-801.2285 595.1586,-837.7174 719.3472,-868.5 736.6511,-872.7891 755.4919,-877.411 772.6334,-881.5975"/>
<polygon fill="#000000" stroke="#000000" points="771.9606,-885.036 782.5052,-884.0064 773.62,-878.2355 771.9606,-885.036"/>
<text text-anchor="middle" x="657.3472" y="-866.3" font-family="Times,serif" font-size="14.00" fill="#000000">rdf:type</text>
</g>
<!-- Rorcid:0000&#45;0002&#45;2146&#45;4803 -->
<g id="node3" class="node">
<title>Rorcid:0000&#45;0002&#45;2146&#45;4803</title>
<ellipse fill="none" stroke="#0000ff" cx="829.8374" cy="-841.5" rx="110.4804" ry="18"/>
<text text-anchor="middle" x="829.8374" y="-837.8" font-family="Times,serif" font-size="14.00" fill="#000000">orcid:0000&#45;0002&#45;2146&#45;4803</text>
</g>
<!-- Rhttp://localhost:8080/rdf/nc/annotation/6515346a&#45;c944&#45;4775&#45;9e45&#45;1d52e7ca1b98&#45;&gt;Rorcid:0000&#45;0002&#45;2146&#45;4803 -->
<g id="edge2" class="edge">
<title>Rhttp://localhost:8080/rdf/nc/annotation/6515346a&#45;c944&#45;4775&#45;9e45&#45;1d52e7ca1b98&#45;&gt;Rorcid:0000&#45;0002&#45;2146&#45;4803</title>
<path fill="none" stroke="#000000" d="M410.2066,-779.2056C507.668,-793.6738 646.9135,-814.3449 737.8339,-827.842"/>
<polygon fill="#000000" stroke="#000000" points="737.4449,-831.3226 747.8505,-829.329 738.4728,-824.3984 737.4449,-831.3226"/>
<text text-anchor="middle" x="657.3472" y="-825.3" font-family="Times,serif" font-size="14.00" fill="#000000">dcterms:creator</text>
</g>
<!-- L2021&#45;01&#45;12T14:23:11.646Z|Datatype: dcterms:W3CDTF -->
<g id="node4" class="node">
<title>L2021&#45;01&#45;12T14:23:11.646Z|Datatype: dcterms:W3CDTF</title>
<polygon fill="none" stroke="#000000" points="742.3374,-758.5 742.3374,-804.5 917.3374,-804.5 917.3374,-758.5 742.3374,-758.5"/>
<text text-anchor="middle" x="829.8374" y="-789.3" font-family="Times,serif" font-size="14.00" fill="#000000">2021&#45;01&#45;12T14:23:11.646Z</text>
<polyline fill="none" stroke="#000000" points="742.3374,-781.5 917.3374,-781.5 "/>
<text text-anchor="middle" x="829.8374" y="-766.3" font-family="Times,serif" font-size="14.00" fill="#000000">Datatype: dcterms:W3CDTF</text>
</g>
<!-- Rhttp://localhost:8080/rdf/nc/annotation/6515346a&#45;c944&#45;4775&#45;9e45&#45;1d52e7ca1b98&#45;&gt;L2021&#45;01&#45;12T14:23:11.646Z|Datatype: dcterms:W3CDTF -->
<g id="edge3" class="edge">
<title>Rhttp://localhost:8080/rdf/nc/annotation/6515346a&#45;c944&#45;4775&#45;9e45&#45;1d52e7ca1b98&#45;&gt;L2021&#45;01&#45;12T14:23:11.646Z|Datatype: dcterms:W3CDTF</title>
<path fill="none" stroke="#000000" d="M554.0132,-771.6522C617.3543,-773.9137 681.4324,-776.2015 731.8643,-778.002"/>
<polygon fill="#000000" stroke="#000000" points="731.9701,-781.508 742.0886,-778.3671 732.2199,-774.5124 731.9701,-781.508"/>
<text text-anchor="middle" x="657.3472" y="-781.3" font-family="Times,serif" font-size="14.00" fill="#000000">dcterms:date</text>
</g>
<!-- B_:node1f0go8rutx26 -->
<g id="node5" class="node">
<title>B_:node1f0go8rutx26</title>
<ellipse fill="none" stroke="#00ff00" cx="829.8374" cy="-721.5" rx="18" ry="18"/>
</g>
<!-- Rhttp://localhost:8080/rdf/nc/annotation/6515346a&#45;c944&#45;4775&#45;9e45&#45;1d52e7ca1b98&#45;&gt;B_:node1f0go8rutx26 -->
<g id="edge4" class="edge">
<title>Rhttp://localhost:8080/rdf/nc/annotation/6515346a&#45;c944&#45;4775&#45;9e45&#45;1d52e7ca1b98&#45;&gt;B_:node1f0go8rutx26</title>
<path fill="none" stroke="#000000" d="M481.5593,-748.3327C599.7805,-739.2245 742.0069,-728.2668 801.506,-723.6828"/>
<polygon fill="#000000" stroke="#000000" points="801.927,-727.1608 811.6286,-722.9029 801.3893,-720.1815 801.927,-727.1608"/>
<text text-anchor="middle" x="657.3472" y="-741.3" font-family="Times,serif" font-size="14.00" fill="#000000">oa:hasBody</text>
</g>
<!-- B_:node1f0go8rutx25 -->
<g id="node14" class="node">
<title>B_:node1f0go8rutx25</title>
<ellipse fill="none" stroke="#00ff00" cx="829.8374" cy="-496.5" rx="18" ry="18"/>
</g>
<!-- Rhttp://localhost:8080/rdf/nc/annotation/6515346a&#45;c944&#45;4775&#45;9e45&#45;1d52e7ca1b98&#45;&gt;B_:node1f0go8rutx25 -->
<g id="edge14" class="edge">
<title>Rhttp://localhost:8080/rdf/nc/annotation/6515346a&#45;c944&#45;4775&#45;9e45&#45;1d52e7ca1b98&#45;&gt;B_:node1f0go8rutx25</title>
<path fill="none" stroke="#000000" d="M333.833,-744.4259C434.7477,-693.9841 717.7067,-552.5481 804.3198,-509.2548"/>
<polygon fill="#000000" stroke="#000000" points="806.0574,-512.2993 813.4374,-504.6975 802.9277,-506.0379 806.0574,-512.2993"/>
<text text-anchor="middle" x="657.3472" y="-602.3" font-family="Times,serif" font-size="14.00" fill="#000000">oa:hasTarget</text>
</g>
<!-- Roa:describing -->
<g id="node21" class="node">
<title>Roa:describing</title>
<ellipse fill="none" stroke="#0000ff" cx="829.8374" cy="-442.5" rx="57.6901" ry="18"/>
<text text-anchor="middle" x="829.8374" y="-438.8" font-family="Times,serif" font-size="14.00" fill="#000000">oa:describing</text>
</g>
<!-- Rhttp://localhost:8080/rdf/nc/annotation/6515346a&#45;c944&#45;4775&#45;9e45&#45;1d52e7ca1b98&#45;&gt;Roa:describing -->
<g id="edge22" class="edge">
<title>Rhttp://localhost:8080/rdf/nc/annotation/6515346a&#45;c944&#45;4775&#45;9e45&#45;1d52e7ca1b98&#45;&gt;Roa:describing</title>
<path fill="none" stroke="#000000" d="M317.9023,-744.2041C375.866,-692.7719 549.3314,-545.7056 719.3472,-469.5 734.7172,-462.6108 752.1111,-457.3149 768.4739,-453.3155"/>
<polygon fill="#000000" stroke="#000000" points="769.5507,-456.6588 778.5015,-450.9902 767.9693,-449.8397 769.5507,-456.6588"/>
<text text-anchor="middle" x="657.3472" y="-525.3" font-family="Times,serif" font-size="14.00" fill="#000000">oa:motivatedBy</text>
</g>
<!-- Rfoaf:Person -->
<g id="node22" class="node">
<title>Rfoaf:Person</title>
<ellipse fill="none" stroke="#0000ff" cx="1298.9614" cy="-975.5" rx="51.1914" ry="18"/>
<text text-anchor="middle" x="1298.9614" y="-971.8" font-family="Times,serif" font-size="14.00" fill="#000000">foaf:Person</text>
</g>
<!-- Rorcid:0000&#45;0002&#45;2146&#45;4803&#45;&gt;Rfoaf:Person -->
<g id="edge23" class="edge">
<title>Rorcid:0000&#45;0002&#45;2146&#45;4803&#45;&gt;Rfoaf:Person</title>
<path fill="none" stroke="#000000" d="M916.8221,-852.77C925.5231,-856.6885 933.6075,-861.8155 940.3276,-868.5 963.7132,-891.7618 933.4016,-918.8969 958.3276,-940.5 1038.2409,-1009.7601 1171.5644,-999.6674 1245.489,-987.059"/>
<polygon fill="#000000" stroke="#000000" points="1246.2839,-990.4725 1255.5141,-985.2712 1245.0549,-983.5813 1246.2839,-990.4725"/>
<text text-anchor="middle" x="1028.3276" y="-996.3" font-family="Times,serif" font-size="14.00" fill="#000000">rdf:type</text>
</g>
<!-- Rdsw:Token -->
<g id="node6" class="node">
<title>Rdsw:Token</title>
<ellipse fill="none" stroke="#0000ff" cx="1912.5952" cy="-694.5" rx="50.0912" ry="18"/>
<text text-anchor="middle" x="1912.5952" y="-690.8" font-family="Times,serif" font-size="14.00" fill="#000000">dsw:Token</text>
</g>
<!-- B_:node1f0go8rutx26&#45;&gt;Rdsw:Token -->
<g id="edge5" class="edge">
<title>B_:node1f0go8rutx26&#45;&gt;Rdsw:Token</title>
<path fill="none" stroke="#000000" d="M847.9256,-720.2254C893.144,-717.0966 1014.7657,-709.036 1116.3276,-705.5 1390.7631,-695.9452 1718.6743,-694.5953 1851.881,-694.4701"/>
<polygon fill="#000000" stroke="#000000" points="1852.2725,-697.9699 1862.2699,-694.4625 1852.2673,-690.9699 1852.2725,-697.9699"/>
<text text-anchor="middle" x="1298.9614" y="-709.3" font-family="Times,serif" font-size="14.00" fill="#000000">rdf:type</text>
</g>
<!-- Rdwc:MeasurementOrFact -->
<g id="node7" class="node">
<title>Rdwc:MeasurementOrFact</title>
<ellipse fill="none" stroke="#0000ff" cx="1298.9614" cy="-747.5" rx="100.9827" ry="18"/>
<text text-anchor="middle" x="1298.9614" y="-743.8" font-family="Times,serif" font-size="14.00" fill="#000000">dwc:MeasurementOrFact</text>
</g>
<!-- B_:node1f0go8rutx26&#45;&gt;Rdwc:MeasurementOrFact -->
<g id="edge6" class="edge">
<title>B_:node1f0go8rutx26&#45;&gt;Rdwc:MeasurementOrFact</title>
<path fill="none" stroke="#000000" d="M847.9401,-722.5033C903.9639,-725.6083 1077.6285,-735.2332 1192.3859,-741.5933"/>
<polygon fill="#000000" stroke="#000000" points="1192.4322,-745.1012 1202.6105,-742.16 1192.8196,-738.1119 1192.4322,-745.1012"/>
<text text-anchor="middle" x="1028.3276" y="-740.3" font-family="Times,serif" font-size="14.00" fill="#000000">rdf:type</text>
</g>
<!-- Roa:TextualBody -->
<g id="node8" class="node">
<title>Roa:TextualBody</title>
<ellipse fill="none" stroke="#0000ff" cx="1298.9614" cy="-642.5" rx="67.6881" ry="18"/>
<text text-anchor="middle" x="1298.9614" y="-638.8" font-family="Times,serif" font-size="14.00" fill="#000000">oa:TextualBody</text>
</g>
<!-- B_:node1f0go8rutx26&#45;&gt;Roa:TextualBody -->
<g id="edge7" class="edge">
<title>B_:node1f0go8rutx26&#45;&gt;Roa:TextualBody</title>
<path fill="none" stroke="#000000" d="M845.8887,-712.7357C869.6573,-700.2323 915.9753,-677.6651 958.3276,-667.5 1046.8076,-646.2636 1151.6069,-641.5037 1221.3691,-641.0979"/>
<polygon fill="#000000" stroke="#000000" points="1221.412,-644.5979 1231.4016,-641.0682 1221.3912,-637.5979 1221.412,-644.5979"/>
<text text-anchor="middle" x="1028.3276" y="-671.3" font-family="Times,serif" font-size="14.00" fill="#000000">rdf:type</text>
</g>
<!-- Ltext/plain -->
<g id="node9" class="node">
<title>Ltext/plain</title>
<polygon fill="none" stroke="#000000" points="1264.9614,-569.5 1264.9614,-605.5 1332.9614,-605.5 1332.9614,-569.5 1264.9614,-569.5"/>
<text text-anchor="middle" x="1298.9614" y="-583.8" font-family="Times,serif" font-size="14.00" fill="#000000">text/plain</text>
</g>
<!-- B_:node1f0go8rutx26&#45;&gt;Ltext/plain -->
<g id="edge8" class="edge">
<title>B_:node1f0go8rutx26&#45;&gt;Ltext/plain</title>
<path fill="none" stroke="#000000" d="M842.6713,-708.4745C864.33,-687.3999 910.4765,-646.2939 958.3276,-627.5 1058.8093,-588.035 1187.8144,-584.4064 1254.5448,-585.6491"/>
<polygon fill="#000000" stroke="#000000" points="1254.6272,-589.1519 1264.706,-585.8856 1254.7902,-582.1538 1254.6272,-589.1519"/>
<text text-anchor="middle" x="1028.3276" y="-631.3" font-family="Times,serif" font-size="14.00" fill="#000000">dcterms:format</text>
</g>
<!-- Robo:PATO_0000014 -->
<g id="node10" class="node">
<title>Robo:PATO_0000014</title>
<ellipse fill="none" stroke="#0000ff" cx="1298.9614" cy="-921.5" rx="84.485" ry="18"/>
<text text-anchor="middle" x="1298.9614" y="-917.8" font-family="Times,serif" font-size="14.00" fill="#000000">obo:PATO_0000014</text>
</g>
<!-- B_:node1f0go8rutx26&#45;&gt;Robo:PATO_0000014 -->
<g id="edge9" class="edge">
<title>B_:node1f0go8rutx26&#45;&gt;Robo:PATO_0000014</title>
<path fill="none" stroke="#000000" d="M847.868,-720.1642C872.7081,-719.4128 917.0219,-722.1882 940.3276,-748.5 985.1407,-799.0934 909.2606,-853.0206 958.3276,-899.5 975.8916,-916.1378 1109.6529,-920.5013 1204.2225,-921.4799"/>
<polygon fill="#000000" stroke="#000000" points="1204.3645,-924.9812 1214.3964,-921.5738 1204.4292,-917.9815 1204.3645,-924.9812"/>
<text text-anchor="middle" x="1028.3276" y="-922.3" font-family="Times,serif" font-size="14.00" fill="#000000">dcterms:identifier</text>
</g>
<!-- B_:node1f0go8rutx26&#45;&gt;Robo:PATO_0000014 -->
<g id="edge12" class="edge">
<title>B_:node1f0go8rutx26&#45;&gt;Robo:PATO_0000014</title>
<path fill="none" stroke="#000000" d="M848.111,-720.313C872.8218,-719.7928 916.5314,-722.8999 940.3276,-748.5 973.1598,-783.8211 924.3999,-821.2298 958.3276,-855.5 1002.7963,-900.4177 1040.5855,-854.7918 1098.3276,-880.5 1107.5863,-884.6222 1107.0082,-890.5168 1116.3276,-894.5 1144.0101,-906.3317 1175.9643,-913.1159 1205.3293,-916.9638"/>
<polygon fill="#000000" stroke="#000000" points="1205.2488,-920.4795 1215.5968,-918.2058 1206.0895,-913.5302 1205.2488,-920.4795"/>
<text text-anchor="middle" x="1028.3276" y="-884.3" font-family="Times,serif" font-size="14.00" fill="#000000">dwciri:measurementType</text>
</g>
<!-- Riso:lat -->
<g id="node11" class="node">
<title>Riso:lat</title>
<ellipse fill="none" stroke="#0000ff" cx="1298.9614" cy="-867.5" rx="32.4942" ry="18"/>
<text text-anchor="middle" x="1298.9614" y="-863.8" font-family="Times,serif" font-size="14.00" fill="#000000">iso:lat</text>
</g>
<!-- B_:node1f0go8rutx26&#45;&gt;Riso:lat -->
<g id="edge10" class="edge">
<title>B_:node1f0go8rutx26&#45;&gt;Riso:lat</title>
<path fill="none" stroke="#000000" d="M847.9936,-720.8435C872.1673,-720.9784 914.8294,-724.8842 940.3276,-748.5 959.1977,-765.9771 939.3734,-786.1141 958.3276,-803.5 980.219,-823.5802 1171.0224,-850.7631 1257.122,-862.1427"/>
<polygon fill="#000000" stroke="#000000" points="1256.714,-865.6191 1267.0845,-863.4506 1257.6252,-858.6787 1256.714,-865.6191"/>
<text text-anchor="middle" x="1028.3276" y="-840.3" font-family="Times,serif" font-size="14.00" fill="#000000">dcterms:language</text>
</g>
<!-- Rimg:MMNAT01_AF_NNM001001033_003.jpg -->
<g id="node12" class="node">
<title>Rimg:MMNAT01_AF_NNM001001033_003.jpg</title>
<ellipse fill="none" stroke="#0000ff" cx="1298.9614" cy="-532.5" rx="182.7677" ry="18"/>
<text text-anchor="middle" x="1298.9614" y="-528.8" font-family="Times,serif" font-size="14.00" fill="#000000">img:MMNAT01_AF_NNM001001033_003.jpg</text>
</g>
<!-- B_:node1f0go8rutx26&#45;&gt;Rimg:MMNAT01_AF_NNM001001033_003.jpg -->
<g id="edge11" class="edge">
<title>B_:node1f0go8rutx26&#45;&gt;Rimg:MMNAT01_AF_NNM001001033_003.jpg</title>
<path fill="none" stroke="#000000" d="M838.6119,-705.3548C856.5031,-674.2027 900.4487,-606.1742 958.3276,-575.5 1003.2598,-551.6872 1056.0743,-538.9702 1106.5274,-532.5983"/>
<polygon fill="#000000" stroke="#000000" points="1107.0647,-536.0592 1116.5835,-531.4071 1106.2412,-529.1078 1107.0647,-536.0592"/>
<text text-anchor="middle" x="1028.3276" y="-579.3" font-family="Times,serif" font-size="14.00" fill="#000000">dsw:derivedFrom</text>
</g>
<!-- LColor|Language: lat -->
<g id="node13" class="node">
<title>LColor|Language: lat</title>
<polygon fill="none" stroke="#000000" points="1253.4614,-784.5 1253.4614,-830.5 1344.4614,-830.5 1344.4614,-784.5 1253.4614,-784.5"/>
<text text-anchor="middle" x="1298.9614" y="-815.3" font-family="Times,serif" font-size="14.00" fill="#000000">Color</text>
<polyline fill="none" stroke="#000000" points="1253.4614,-807.5 1344.4614,-807.5 "/>
<text text-anchor="middle" x="1298.9614" y="-792.3" font-family="Times,serif" font-size="14.00" fill="#000000">Language: lat</text>
</g>
<!-- B_:node1f0go8rutx26&#45;&gt;LColor|Language: lat -->
<g id="edge13" class="edge">
<title>B_:node1f0go8rutx26&#45;&gt;LColor|Language: lat</title>
<path fill="none" stroke="#000000" d="M847.6398,-725.0965C869.6422,-729.7135 908.1219,-738.351 940.3276,-748.5 948.5143,-751.0799 950.035,-753.2834 958.3276,-755.5 1056.8648,-781.8385 1175.2422,-796.1592 1243.3248,-802.787"/>
<polygon fill="#000000" stroke="#000000" points="1243.1157,-806.2829 1253.4027,-803.7475 1243.7799,-799.3145 1243.1157,-806.2829"/>
<text text-anchor="middle" x="1028.3276" y="-788.3" font-family="Times,serif" font-size="14.00" fill="#000000">rdf:value</text>
</g>
<!-- Rimg:MMNAT01_AF_NNM001001033_003.jpg&#45;&gt;Rdsw:Token -->
<g id="edge25" class="edge">
<title>Rimg:MMNAT01_AF_NNM001001033_003.jpg&#45;&gt;Rdsw:Token</title>
<path fill="none" stroke="#000000" d="M1454.9466,-541.9536C1464.596,-546.55 1473.615,-552.3161 1481.5952,-559.5 1505.4695,-580.9923 1477.1048,-606.5634 1499.5952,-629.5 1542.5521,-673.3092 1572.2919,-655.1835 1632.5952,-666.5 1707.7435,-680.6023 1795.66,-687.9267 1852.645,-691.4899"/>
<polygon fill="#000000" stroke="#000000" points="1852.7219,-695.0009 1862.9154,-692.1122 1853.1454,-688.0137 1852.7219,-695.0009"/>
<text text-anchor="middle" x="1557.0952" y="-668.3" font-family="Times,serif" font-size="14.00" fill="#000000">rdf:type</text>
</g>
<!-- Rdcmitype:StillImage -->
<g id="node23" class="node">
<title>Rdcmitype:StillImage</title>
<ellipse fill="none" stroke="#0000ff" cx="1912.5952" cy="-639.5" rx="83.3857" ry="18"/>
<text text-anchor="middle" x="1912.5952" y="-635.8" font-family="Times,serif" font-size="14.00" fill="#000000">dcmitype:StillImage</text>
</g>
<!-- Rimg:MMNAT01_AF_NNM001001033_003.jpg&#45;&gt;Rdcmitype:StillImage -->
<g id="edge24" class="edge">
<title>Rimg:MMNAT01_AF_NNM001001033_003.jpg&#45;&gt;Rdcmitype:StillImage</title>
<path fill="none" stroke="#000000" d="M1442.8101,-543.6356C1456.3648,-547.6529 1469.5297,-552.8384 1481.5952,-559.5 1492.3566,-565.4416 1489.1098,-574.0837 1499.5952,-580.5 1551.4542,-612.2338 1572.6342,-602.4465 1632.5952,-612.5 1695.5074,-623.0483 1767.1147,-629.8616 1822.1654,-634.0051"/>
<polygon fill="#000000" stroke="#000000" points="1822.0159,-637.5035 1832.2461,-634.7481 1822.5305,-630.5225 1822.0159,-637.5035"/>
<text text-anchor="middle" x="1557.0952" y="-614.3" font-family="Times,serif" font-size="14.00" fill="#000000">rdf:type</text>
</g>
<!-- Rdwc:HumanObservation -->
<g id="node24" class="node">
<title>Rdwc:HumanObservation</title>
<ellipse fill="none" stroke="#0000ff" cx="1912.5952" cy="-585.5" rx="96.6831" ry="18"/>
<text text-anchor="middle" x="1912.5952" y="-581.8" font-family="Times,serif" font-size="14.00" fill="#000000">dwc:HumanObservation</text>
</g>
<!-- Rimg:MMNAT01_AF_NNM001001033_003.jpg&#45;&gt;Rdwc:HumanObservation -->
<g id="edge26" class="edge">
<title>Rimg:MMNAT01_AF_NNM001001033_003.jpg&#45;&gt;Rdwc:HumanObservation</title>
<path fill="none" stroke="#000000" d="M1429.5289,-545.0989C1452.857,-547.2832 1476.9415,-549.4949 1499.5952,-551.5 1606.6793,-560.9779 1729.4634,-570.9752 1813.136,-577.6564"/>
<polygon fill="#000000" stroke="#000000" points="1812.8958,-581.1483 1823.1424,-578.4545 1813.4524,-574.1704 1812.8958,-581.1483"/>
<text text-anchor="middle" x="1557.0952" y="-565.3" font-family="Times,serif" font-size="14.00" fill="#000000">rdf:type</text>
</g>
<!-- Roa:Source -->
<g id="node25" class="node">
<title>Roa:Source</title>
<ellipse fill="none" stroke="#0000ff" cx="1912.5952" cy="-531.5" rx="46.2923" ry="18"/>
<text text-anchor="middle" x="1912.5952" y="-527.8" font-family="Times,serif" font-size="14.00" fill="#000000">oa:Source</text>
</g>
<!-- Rimg:MMNAT01_AF_NNM001001033_003.jpg&#45;&gt;Roa:Source -->
<g id="edge27" class="edge">
<title>Rimg:MMNAT01_AF_NNM001001033_003.jpg&#45;&gt;Roa:Source</title>
<path fill="none" stroke="#000000" d="M1481.8253,-532.202C1609.6585,-531.9937 1772.0011,-531.7291 1856.1979,-531.5919"/>
<polygon fill="#000000" stroke="#000000" points="1856.323,-535.0918 1866.3172,-531.5754 1856.3115,-528.0918 1856.323,-535.0918"/>
<text text-anchor="middle" x="1557.0952" y="-536.3" font-family="Times,serif" font-size="14.00" fill="#000000">rdf:type</text>
</g>
<!-- Rfoaf:Image -->
<g id="node26" class="node">
<title>Rfoaf:Image</title>
<ellipse fill="none" stroke="#0000ff" cx="1912.5952" cy="-477.5" rx="50.0912" ry="18"/>
<text text-anchor="middle" x="1912.5952" y="-473.8" font-family="Times,serif" font-size="14.00" fill="#000000">foaf:Image</text>
</g>
<!-- Rimg:MMNAT01_AF_NNM001001033_003.jpg&#45;&gt;Rfoaf:Image -->
<g id="edge28" class="edge">
<title>Rimg:MMNAT01_AF_NNM001001033_003.jpg&#45;&gt;Rfoaf:Image</title>
<path fill="none" stroke="#000000" d="M1430.0755,-519.9414C1453.2347,-517.7636 1477.1206,-515.5437 1499.5952,-513.5 1625.4718,-502.0538 1773.0009,-489.3704 1853.2389,-482.5337"/>
<polygon fill="#000000" stroke="#000000" points="1853.9645,-485.9847 1863.6315,-481.6489 1853.3706,-479.0099 1853.9645,-485.9847"/>
<text text-anchor="middle" x="1557.0952" y="-517.3" font-family="Times,serif" font-size="14.00" fill="#000000">rdf:type</text>
</g>
<!-- B_:node1f0go8rutx25&#45;&gt;Rimg:MMNAT01_AF_NNM001001033_003.jpg -->
<g id="edge21" class="edge">
<title>B_:node1f0go8rutx25&#45;&gt;Rimg:MMNAT01_AF_NNM001001033_003.jpg</title>
<path fill="none" stroke="#000000" d="M848.0705,-497.8252C891.4453,-500.9848 1004.1882,-509.2401 1098.3276,-516.5 1114.1237,-517.7182 1130.6179,-519.0067 1147.0675,-520.3025"/>
<polygon fill="#000000" stroke="#000000" points="1147.053,-523.8122 1157.2973,-521.1097 1147.6037,-516.8339 1147.053,-523.8122"/>
<text text-anchor="middle" x="1028.3276" y="-520.3" font-family="Times,serif" font-size="14.00" fill="#000000">oa:hasSource</text>
</g>
<!-- Roa:Target -->
<g id="node15" class="node">
<title>Roa:Target</title>
<ellipse fill="none" stroke="#0000ff" cx="1298.9614" cy="-368.5" rx="44.393" ry="18"/>
<text text-anchor="middle" x="1298.9614" y="-364.8" font-family="Times,serif" font-size="14.00" fill="#000000">oa:Target</text>
</g>
<!-- B_:node1f0go8rutx25&#45;&gt;Roa:Target -->
<g id="edge15" class="edge">
<title>B_:node1f0go8rutx25&#45;&gt;Roa:Target</title>
<path fill="none" stroke="#000000" d="M848.1409,-497.3122C872.4817,-497.3539 915.3323,-493.6475 940.3276,-469.5 961.5785,-448.9699 935.774,-424.5898 958.3276,-405.5 1040.5524,-335.9032 1176.9029,-346.2564 1249.6561,-358.2737"/>
<polygon fill="#000000" stroke="#000000" points="1249.4643,-361.7925 1259.9147,-360.0495 1250.6583,-354.8951 1249.4643,-361.7925"/>
<text text-anchor="middle" x="1028.3276" y="-409.3" font-family="Times,serif" font-size="14.00" fill="#000000">rdf:type</text>
</g>
<!-- Limage/jpeg -->
<g id="node16" class="node">
<title>Limage/jpeg</title>
<polygon fill="none" stroke="#000000" points="1260.4614,-459.5 1260.4614,-495.5 1337.4614,-495.5 1337.4614,-459.5 1260.4614,-459.5"/>
<text text-anchor="middle" x="1298.9614" y="-473.8" font-family="Times,serif" font-size="14.00" fill="#000000">image/jpeg</text>
</g>
<!-- B_:node1f0go8rutx25&#45;&gt;Limage/jpeg -->
<g id="edge16" class="edge">
<title>B_:node1f0go8rutx25&#45;&gt;Limage/jpeg</title>
<path fill="none" stroke="#000000" d="M847.6322,-493.2242C872.3589,-488.8518 918.5587,-481.3307 958.3276,-478.5 1062.0551,-471.1168 1183.9999,-473.4046 1250.1956,-475.5612"/>
<polygon fill="#000000" stroke="#000000" points="1250.2168,-479.0638 1260.3296,-475.9046 1250.454,-472.0678 1250.2168,-479.0638"/>
<text text-anchor="middle" x="1028.3276" y="-482.3" font-family="Times,serif" font-size="14.00" fill="#000000">dcterms:format</text>
</g>
<!-- B_:node1f0go8rutx28 -->
<g id="node17" class="node">
<title>B_:node1f0go8rutx28</title>
<ellipse fill="none" stroke="#00ff00" cx="1298.9614" cy="-422.5" rx="18" ry="18"/>
</g>
<!-- B_:node1f0go8rutx25&#45;&gt;B_:node1f0go8rutx28 -->
<g id="edge17" class="edge">
<title>B_:node1f0go8rutx25&#45;&gt;B_:node1f0go8rutx28</title>
<path fill="none" stroke="#000000" d="M847.8421,-494.462C870.3838,-491.3904 909.7497,-484.2842 940.3276,-469.5 949.4519,-465.0884 948.9112,-459.248 958.3276,-455.5 1067.2005,-412.1649 1210.4963,-416.0148 1270.5564,-420.0669"/>
<polygon fill="#000000" stroke="#000000" points="1270.5464,-423.5754 1280.7752,-420.8145 1271.0573,-416.5941 1270.5464,-423.5754"/>
<text text-anchor="middle" x="1028.3276" y="-459.3" font-family="Times,serif" font-size="14.00" fill="#000000">oa:hasSelector</text>
</g>
<!-- Roa:FragmentSelector -->
<g id="node18" class="node">
<title>Roa:FragmentSelector</title>
<ellipse fill="none" stroke="#0000ff" cx="1912.5952" cy="-423.5" rx="84.485" ry="18"/>
<text text-anchor="middle" x="1912.5952" y="-419.8" font-family="Times,serif" font-size="14.00" fill="#000000">oa:FragmentSelector</text>
</g>
<!-- B_:node1f0go8rutx28&#45;&gt;Roa:FragmentSelector -->
<g id="edge18" class="edge">
<title>B_:node1f0go8rutx28&#45;&gt;Roa:FragmentSelector</title>
<path fill="none" stroke="#000000" d="M1316.9939,-422.5294C1390.3377,-422.6489 1669.3991,-423.1037 1818.0568,-423.3459"/>
<polygon fill="#000000" stroke="#000000" points="1818.0876,-426.8459 1828.0934,-423.3623 1818.0991,-419.8459 1818.0876,-426.8459"/>
<text text-anchor="middle" x="1557.0952" y="-427.3" font-family="Times,serif" font-size="14.00" fill="#000000">rdf:type</text>
</g>
<!-- Rmf: -->
<g id="node19" class="node">
<title>Rmf:</title>
<ellipse fill="none" stroke="#0000ff" cx="1912.5952" cy="-369.5" rx="27" ry="18"/>
<text text-anchor="middle" x="1912.5952" y="-365.8" font-family="Times,serif" font-size="14.00" fill="#000000">mf:</text>
</g>
<!-- B_:node1f0go8rutx28&#45;&gt;Rmf: -->
<g id="edge19" class="edge">
<title>B_:node1f0go8rutx28&#45;&gt;Rmf:</title>
<path fill="none" stroke="#000000" d="M1316.9435,-420.8568C1352.0508,-417.6552 1432.18,-410.3806 1499.5952,-404.5 1638.2967,-392.401 1803.2559,-378.5977 1875.5511,-372.5777"/>
<polygon fill="#000000" stroke="#000000" points="1875.8559,-376.0645 1885.5311,-371.7471 1875.2753,-369.0886 1875.8559,-376.0645"/>
<text text-anchor="middle" x="1557.0952" y="-408.3" font-family="Times,serif" font-size="14.00" fill="#000000">dcterms:conformsTo</text>
</g>
<!-- Lxywh=0.5575335827826557,0.16560174792980703,0.02356406480117823,0.02061855670103091 -->
<g id="node20" class="node">
<title>Lxywh=0.5575335827826557,0.16560174792980703,0.02356406480117823,0.02061855670103091</title>
<polygon fill="none" stroke="#000000" points="1632.5952,-296.5 1632.5952,-332.5 2192.5952,-332.5 2192.5952,-296.5 1632.5952,-296.5"/>
<text text-anchor="middle" x="1912.5952" y="-310.8" font-family="Times,serif" font-size="14.00" fill="#000000">xywh=0.5575335827826557,0.16560174792980703,0.02356406480117823,0.02061855670103091</text>
</g>
<!-- B_:node1f0go8rutx28&#45;&gt;Lxywh=0.5575335827826557,0.16560174792980703,0.02356406480117823,0.02061855670103091 -->
<g id="edge20" class="edge">
<title>B_:node1f0go8rutx28&#45;&gt;Lxywh=0.5575335827826557,0.16560174792980703,0.02356406480117823,0.02061855670103091</title>
<path fill="none" stroke="#000000" d="M1316.9938,-423.5954C1351.1722,-424.8903 1426.8562,-423.9696 1481.5952,-395.5 1491.915,-390.1326 1489.5667,-382.394 1499.5952,-376.5 1552.1951,-345.5854 1572.5147,-353.1211 1632.5952,-342.5 1650.8253,-339.2772 1669.7936,-336.3951 1688.8822,-333.8232"/>
<polygon fill="#000000" stroke="#000000" points="1689.4151,-337.2834 1698.8719,-332.5065 1688.5003,-330.3434 1689.4151,-337.2834"/>
<text text-anchor="middle" x="1557.0952" y="-380.3" font-family="Times,serif" font-size="14.00" fill="#000000">rdf:value</text>
</g>
</g>
</svg>
