<?xml version="1.0" encoding="UTF-8" standalone="no"?>
<!DOCTYPE svg PUBLIC "-//W3C//DTD SVG 1.1//EN"
 "http://www.w3.org/Graphics/SVG/1.1/DTD/svg11.dtd">
<!-- Generated by graphviz version 2.40.1 (20161225.0304)
 -->
<!-- Title: %3 Pages: 1 -->
<svg width="2204pt" height="1208pt"
 viewBox="0.00 0.00 2203.70 1208.00" xmlns="http://www.w3.org/2000/svg" xmlns:xlink="http://www.w3.org/1999/xlink">
<g id="graph0" class="graph" transform="scale(1 1) rotate(0) translate(4 1204)">
<title>%3</title>
<polygon fill="#ffffff" stroke="transparent" points="-4,4 -4,-1204 2199.6955,-1204 2199.6955,4 -4,4"/>
<text text-anchor="middle" x="1097.8478" y="-248.8" font-family="Times,serif" font-size="14.00" fill="#000000">Model:</text>
<text text-anchor="middle" x="1097.8478" y="-233.8" font-family="Times,serif" font-size="14.00" fill="#000000">(Unknown)</text>
<text text-anchor="middle" x="1097.8478" y="-202.8" font-family="Times,serif" font-size="14.00" fill="#000000">Namespaces:</text>
<text text-anchor="middle" x="1097.8478" y="-187.8" font-family="Times,serif" font-size="14.00" fill="#000000">dcmitype: http://purl.org/dc/dcmitype/</text>
<text text-anchor="middle" x="1097.8478" y="-172.8" font-family="Times,serif" font-size="14.00" fill="#000000">dcterms: http://purl.org/dc/terms/</text>
<text text-anchor="middle" x="1097.8478" y="-157.8" font-family="Times,serif" font-size="14.00" fill="#000000">dsw: http://purl.org/dsw/</text>
<text text-anchor="middle" x="1097.8478" y="-142.8" font-family="Times,serif" font-size="14.00" fill="#000000">dwc: http://rs.tdwg.org/dwc/terms/</text>
<text text-anchor="middle" x="1097.8478" y="-127.8" font-family="Times,serif" font-size="14.00" fill="#000000">dwciri: http://rs.tdwg.org/dwc/iri/</text>
<text text-anchor="middle" x="1097.8478" y="-112.8" font-family="Times,serif" font-size="14.00" fill="#000000">foaf: http://xmlns.com/foaf/0.1/</text>
<text text-anchor="middle" x="1097.8478" y="-97.8" font-family="Times,serif" font-size="14.00" fill="#000000">gn: http://sws.geonames.org/</text>
<text text-anchor="middle" x="1097.8478" y="-82.8" font-family="Times,serif" font-size="14.00" fill="#000000">img: http://localhost:8080/semanticAnnotator/files/</text>
<text text-anchor="middle" x="1097.8478" y="-67.8" font-family="Times,serif" font-size="14.00" fill="#000000">iso: http://iso639&#45;3.sil.org/code/</text>
<text text-anchor="middle" x="1097.8478" y="-52.8" font-family="Times,serif" font-size="14.00" fill="#000000">mf: http://www.w3.org/TR/media&#45;frags/</text>
<text text-anchor="middle" x="1097.8478" y="-37.8" font-family="Times,serif" font-size="14.00" fill="#000000">oa: http://www.w3.org/ns/oa#</text>
<text text-anchor="middle" x="1097.8478" y="-22.8" font-family="Times,serif" font-size="14.00" fill="#000000">orcid: http://orcid.org/</text>
<text text-anchor="middle" x="1097.8478" y="-7.8" font-family="Times,serif" font-size="14.00" fill="#000000">rdf: http://www.w3.org/1999/02/22&#45;rdf&#45;syntax&#45;ns#</text>
<!-- Rhttp://localhost:8080/rdf/nc/annotation/27e82c34&#45;f5dd&#45;4c78&#45;a9c0&#45;6cd331e1061c -->
<g id="node1" class="node">
<title>Rhttp://localhost:8080/rdf/nc/annotation/27e82c34&#45;f5dd&#45;4c78&#45;a9c0&#45;6cd331e1061c</title>
<ellipse fill="none" stroke="#0000ff" cx="295.7238" cy="-940" rx="295.9477" ry="18"/>
<text text-anchor="middle" x="295.7238" y="-936.3" font-family="Times,serif" font-size="14.00" fill="#000000">http://localhost:8080/rdf/nc/annotation/27e82c34&#45;f5dd&#45;4c78&#45;a9c0&#45;6cd331e1061c</text>
</g>
<!-- Roa:Annotation -->
<g id="node2" class="node">
<title>Roa:Annotation</title>
<ellipse fill="none" stroke="#0000ff" cx="825.9377" cy="-1073" rx="61.1893" ry="18"/>
<text text-anchor="middle" x="825.9377" y="-1069.3" font-family="Times,serif" font-size="14.00" fill="#000000">oa:Annotation</text>
</g>
<!-- Rhttp://localhost:8080/rdf/nc/annotation/27e82c34&#45;f5dd&#45;4c78&#45;a9c0&#45;6cd331e1061c&#45;&gt;Roa:Annotation -->
<g id="edge1" class="edge">
<title>Rhttp://localhost:8080/rdf/nc/annotation/27e82c34&#45;f5dd&#45;4c78&#45;a9c0&#45;6cd331e1061c&#45;&gt;Roa:Annotation</title>
<path fill="none" stroke="#000000" d="M364.3875,-957.5135C447.4727,-978.6654 591.6334,-1015.2381 715.4475,-1046 732.7491,-1050.2986 751.5892,-1054.9233 768.7308,-1059.1095"/>
<polygon fill="#000000" stroke="#000000" points="768.0581,-1062.548 778.6028,-1061.5178 769.7172,-1055.7474 768.0581,-1062.548"/>
<text text-anchor="middle" x="653.4475" y="-1043.8" font-family="Times,serif" font-size="14.00" fill="#000000">rdf:type</text>
</g>
<!-- Rorcid:0000&#45;0002&#45;2146&#45;4803 -->
<g id="node3" class="node">
<title>Rorcid:0000&#45;0002&#45;2146&#45;4803</title>
<ellipse fill="none" stroke="#0000ff" cx="825.9377" cy="-1019" rx="110.4804" ry="18"/>
<text text-anchor="middle" x="825.9377" y="-1015.3" font-family="Times,serif" font-size="14.00" fill="#000000">orcid:0000&#45;0002&#45;2146&#45;4803</text>
</g>
<!-- Rhttp://localhost:8080/rdf/nc/annotation/27e82c34&#45;f5dd&#45;4c78&#45;a9c0&#45;6cd331e1061c&#45;&gt;Rorcid:0000&#45;0002&#45;2146&#45;4803 -->
<g id="edge2" class="edge">
<title>Rhttp://localhost:8080/rdf/nc/annotation/27e82c34&#45;f5dd&#45;4c78&#45;a9c0&#45;6cd331e1061c&#45;&gt;Rorcid:0000&#45;0002&#45;2146&#45;4803</title>
<path fill="none" stroke="#000000" d="M407.8444,-956.7056C504.9488,-971.1738 643.6841,-991.8449 734.2713,-1005.342"/>
<polygon fill="#000000" stroke="#000000" points="733.8446,-1008.817 744.2512,-1006.829 734.8762,-1001.8934 733.8446,-1008.817"/>
<text text-anchor="middle" x="653.4475" y="-1000.8" font-family="Times,serif" font-size="14.00" fill="#000000">dcterms:creator</text>
</g>
<!-- L2021&#45;01&#45;12T14:23:11.646Z|Datatype: dcterms:W3CDTF -->
<g id="node4" class="node">
<title>L2021&#45;01&#45;12T14:23:11.646Z|Datatype: dcterms:W3CDTF</title>
<polygon fill="none" stroke="#000000" points="738.4377,-936 738.4377,-982 913.4377,-982 913.4377,-936 738.4377,-936"/>
<text text-anchor="middle" x="825.9377" y="-966.8" font-family="Times,serif" font-size="14.00" fill="#000000">2021&#45;01&#45;12T14:23:11.646Z</text>
<polyline fill="none" stroke="#000000" points="738.4377,-959 913.4377,-959 "/>
<text text-anchor="middle" x="825.9377" y="-943.8" font-family="Times,serif" font-size="14.00" fill="#000000">Datatype: dcterms:W3CDTF</text>
</g>
<!-- Rhttp://localhost:8080/rdf/nc/annotation/27e82c34&#45;f5dd&#45;4c78&#45;a9c0&#45;6cd331e1061c&#45;&gt;L2021&#45;01&#45;12T14:23:11.646Z|Datatype: dcterms:W3CDTF -->
<g id="edge3" class="edge">
<title>Rhttp://localhost:8080/rdf/nc/annotation/27e82c34&#45;f5dd&#45;4c78&#45;a9c0&#45;6cd331e1061c&#45;&gt;L2021&#45;01&#45;12T14:23:11.646Z|Datatype: dcterms:W3CDTF</title>
<path fill="none" stroke="#000000" d="M550.7361,-949.1383C613.9021,-951.4018 677.8334,-953.6927 728.1583,-955.4961"/>
<polygon fill="#000000" stroke="#000000" points="728.2421,-959.0013 738.361,-955.8617 728.4928,-952.0058 728.2421,-959.0013"/>
<text text-anchor="middle" x="653.4475" y="-956.8" font-family="Times,serif" font-size="14.00" fill="#000000">dcterms:date</text>
</g>
<!-- B_:node1f0go8rutx13 -->
<g id="node5" class="node">
<title>B_:node1f0go8rutx13</title>
<ellipse fill="none" stroke="#00ff00" cx="825.9377" cy="-899" rx="18" ry="18"/>
</g>
<!-- Rhttp://localhost:8080/rdf/nc/annotation/27e82c34&#45;f5dd&#45;4c78&#45;a9c0&#45;6cd331e1061c&#45;&gt;B_:node1f0go8rutx13 -->
<g id="edge4" class="edge">
<title>Rhttp://localhost:8080/rdf/nc/annotation/27e82c34&#45;f5dd&#45;4c78&#45;a9c0&#45;6cd331e1061c&#45;&gt;B_:node1f0go8rutx13</title>
<path fill="none" stroke="#000000" d="M478.9358,-925.8327C596.7238,-916.7245 738.4291,-905.7668 797.7101,-901.1828"/>
<polygon fill="#000000" stroke="#000000" points="798.0953,-904.6635 807.7957,-900.4029 797.5556,-897.6844 798.0953,-904.6635"/>
<text text-anchor="middle" x="653.4475" y="-917.8" font-family="Times,serif" font-size="14.00" fill="#000000">oa:hasBody</text>
</g>
<!-- B_:node1f0go8rutx12 -->
<g id="node13" class="node">
<title>B_:node1f0go8rutx12</title>
<ellipse fill="none" stroke="#00ff00" cx="825.9377" cy="-695" rx="18" ry="18"/>
</g>
<!-- Rhttp://localhost:8080/rdf/nc/annotation/27e82c34&#45;f5dd&#45;4c78&#45;a9c0&#45;6cd331e1061c&#45;&gt;B_:node1f0go8rutx12 -->
<g id="edge14" class="edge">
<title>Rhttp://localhost:8080/rdf/nc/annotation/27e82c34&#45;f5dd&#45;4c78&#45;a9c0&#45;6cd331e1061c&#45;&gt;B_:node1f0go8rutx12</title>
<path fill="none" stroke="#000000" d="M334.7117,-921.9846C437.5416,-874.4691 714.1,-746.6777 800.0723,-706.9518"/>
<polygon fill="#000000" stroke="#000000" points="801.7557,-710.0296 809.3653,-702.6577 798.8195,-703.6752 801.7557,-710.0296"/>
<text text-anchor="middle" x="653.4475" y="-791.8" font-family="Times,serif" font-size="14.00" fill="#000000">oa:hasTarget</text>
</g>
<!-- Roa:describing -->
<g id="node21" class="node">
<title>Roa:describing</title>
<ellipse fill="none" stroke="#0000ff" cx="825.9377" cy="-641" rx="57.6901" ry="18"/>
<text text-anchor="middle" x="825.9377" y="-637.3" font-family="Times,serif" font-size="14.00" fill="#000000">oa:describing</text>
</g>
<!-- Rhttp://localhost:8080/rdf/nc/annotation/27e82c34&#45;f5dd&#45;4c78&#45;a9c0&#45;6cd331e1061c&#45;&gt;Roa:describing -->
<g id="edge22" class="edge">
<title>Rhttp://localhost:8080/rdf/nc/annotation/27e82c34&#45;f5dd&#45;4c78&#45;a9c0&#45;6cd331e1061c&#45;&gt;Roa:describing</title>
<path fill="none" stroke="#000000" d="M317.8297,-921.7458C377.8444,-873.0991 550.4119,-739.2072 715.4475,-668 730.9878,-661.2949 748.5077,-656.053 764.9395,-652.0462"/>
<polygon fill="#000000" stroke="#000000" points="766.0537,-655.3807 775.0026,-649.709 764.47,-648.5622 766.0537,-655.3807"/>
<text text-anchor="middle" x="653.4475" y="-719.8" font-family="Times,serif" font-size="14.00" fill="#000000">oa:motivatedBy</text>
</g>
<!-- Rfoaf:Person -->
<g id="node22" class="node">
<title>Rfoaf:Person</title>
<ellipse fill="none" stroke="#0000ff" cx="1288.0617" cy="-1168" rx="51.1914" ry="18"/>
<text text-anchor="middle" x="1288.0617" y="-1164.3" font-family="Times,serif" font-size="14.00" fill="#000000">foaf:Person</text>
</g>
<!-- Rorcid:0000&#45;0002&#45;2146&#45;4803&#45;&gt;Rfoaf:Person -->
<g id="edge23" class="edge">
<title>Rorcid:0000&#45;0002&#45;2146&#45;4803&#45;&gt;Rfoaf:Person</title>
<path fill="none" stroke="#000000" d="M913.4665,-1030.1246C922.0146,-1034.076 929.9147,-1039.2504 936.4279,-1046 963.8463,-1074.4138 925.1535,-1106.5024 954.4279,-1133 1031.1332,-1202.4295 1162.038,-1192.355 1234.9858,-1179.6835"/>
<polygon fill="#000000" stroke="#000000" points="1235.669,-1183.1168 1244.8827,-1177.8863 1234.4182,-1176.2294 1235.669,-1183.1168"/>
<text text-anchor="middle" x="1020.9279" y="-1188.8" font-family="Times,serif" font-size="14.00" fill="#000000">rdf:type</text>
</g>
<!-- Rdcterms:Location -->
<g id="node6" class="node">
<title>Rdcterms:Location</title>
<ellipse fill="none" stroke="#0000ff" cx="1288.0617" cy="-1114" rx="72.5877" ry="18"/>
<text text-anchor="middle" x="1288.0617" y="-1110.3" font-family="Times,serif" font-size="14.00" fill="#000000">dcterms:Location</text>
</g>
<!-- B_:node1f0go8rutx13&#45;&gt;Rdcterms:Location -->
<g id="edge5" class="edge">
<title>B_:node1f0go8rutx13&#45;&gt;Rdcterms:Location</title>
<path fill="none" stroke="#000000" d="M843.9801,-897.8481C868.8342,-897.346 913.1644,-900.5514 936.4279,-927 980.4822,-977.086 907.1009,-1028.9943 954.4279,-1076 988.6448,-1109.9845 1117.9879,-1115.9137 1205.2079,-1115.8562"/>
<polygon fill="#000000" stroke="#000000" points="1205.3731,-1119.3557 1215.3614,-1115.8226 1205.3498,-1112.3558 1205.3731,-1119.3557"/>
<text text-anchor="middle" x="1020.9279" y="-1114.8" font-family="Times,serif" font-size="14.00" fill="#000000">rdf:type</text>
</g>
<!-- Rdwc:Location -->
<g id="node7" class="node">
<title>Rdwc:Location</title>
<ellipse fill="none" stroke="#0000ff" cx="1288.0617" cy="-1060" rx="59.2899" ry="18"/>
<text text-anchor="middle" x="1288.0617" y="-1056.3" font-family="Times,serif" font-size="14.00" fill="#000000">dwc:Location</text>
</g>
<!-- B_:node1f0go8rutx13&#45;&gt;Rdwc:Location -->
<g id="edge6" class="edge">
<title>B_:node1f0go8rutx13&#45;&gt;Rdwc:Location</title>
<path fill="none" stroke="#000000" d="M844.311,-898.3174C868.7308,-898.4553 911.6708,-902.5034 936.4279,-927 958.6509,-948.9891 932.1867,-973.0293 954.4279,-995 1024.997,-1064.7109 1146.7369,-1070.8996 1222.023,-1066.93"/>
<polygon fill="#000000" stroke="#000000" points="1222.5568,-1070.4043 1232.3278,-1066.308 1222.135,-1063.417 1222.5568,-1070.4043"/>
<text text-anchor="middle" x="1020.9279" y="-1060.8" font-family="Times,serif" font-size="14.00" fill="#000000">rdf:type</text>
</g>
<!-- Roa:TextualBody -->
<g id="node8" class="node">
<title>Roa:TextualBody</title>
<ellipse fill="none" stroke="#0000ff" cx="1288.0617" cy="-1006" rx="67.6881" ry="18"/>
<text text-anchor="middle" x="1288.0617" y="-1002.3" font-family="Times,serif" font-size="14.00" fill="#000000">oa:TextualBody</text>
</g>
<!-- B_:node1f0go8rutx13&#45;&gt;Roa:TextualBody -->
<g id="edge7" class="edge">
<title>B_:node1f0go8rutx13&#45;&gt;Roa:TextualBody</title>
<path fill="none" stroke="#000000" d="M844.2046,-900.0278C867.37,-902.0944 907.7447,-908.3112 936.4279,-927 947.3036,-934.0861 943.3498,-943.2347 954.4279,-950 1012.7499,-985.617 1038.0554,-967.5558 1105.4279,-979 1142.3694,-985.275 1183.6581,-991.4496 1217.6197,-996.3067"/>
<polygon fill="#000000" stroke="#000000" points="1217.5181,-999.8274 1227.9113,-997.7705 1218.5038,-992.8972 1217.5181,-999.8274"/>
<text text-anchor="middle" x="1020.9279" y="-979.8" font-family="Times,serif" font-size="14.00" fill="#000000">rdf:type</text>
</g>
<!-- Ltext/plain -->
<g id="node9" class="node">
<title>Ltext/plain</title>
<polygon fill="none" stroke="#000000" points="1254.0617,-933 1254.0617,-969 1322.0617,-969 1322.0617,-933 1254.0617,-933"/>
<text text-anchor="middle" x="1288.0617" y="-947.3" font-family="Times,serif" font-size="14.00" fill="#000000">text/plain</text>
</g>
<!-- B_:node1f0go8rutx13&#45;&gt;Ltext/plain -->
<g id="edge8" class="edge">
<title>B_:node1f0go8rutx13&#45;&gt;Ltext/plain</title>
<path fill="none" stroke="#000000" d="M843.7862,-901.7167C868.5752,-905.4404 914.8469,-912.2125 954.4279,-917 1057.9113,-929.5168 1179.8292,-941.1554 1243.7848,-947.0223"/>
<polygon fill="#000000" stroke="#000000" points="1243.6369,-950.5233 1253.9139,-947.9476 1244.2738,-943.5523 1243.6369,-950.5233"/>
<text text-anchor="middle" x="1020.9279" y="-934.8" font-family="Times,serif" font-size="14.00" fill="#000000">dcterms:format</text>
</g>
<!-- Rgn:1648473 -->
<g id="node10" class="node">
<title>Rgn:1648473</title>
<ellipse fill="none" stroke="#0000ff" cx="1288.0617" cy="-896" rx="52.7911" ry="18"/>
<text text-anchor="middle" x="1288.0617" y="-892.3" font-family="Times,serif" font-size="14.00" fill="#000000">gn:1648473</text>
</g>
<!-- B_:node1f0go8rutx13&#45;&gt;Rgn:1648473 -->
<g id="edge9" class="edge">
<title>B_:node1f0go8rutx13&#45;&gt;Rgn:1648473</title>
<path fill="none" stroke="#000000" d="M844.0535,-898.8824C907.0202,-898.4736 1118.3291,-897.1019 1225.1343,-896.4085"/>
<polygon fill="#000000" stroke="#000000" points="1225.1585,-899.9085 1235.1356,-896.3436 1225.113,-892.9087 1225.1585,-899.9085"/>
<text text-anchor="middle" x="1020.9279" y="-901.8" font-family="Times,serif" font-size="14.00" fill="#000000">dcterms:identifier</text>
</g>
<!-- B_:node1f0go8rutx13&#45;&gt;Rgn:1648473 -->
<g id="edge11" class="edge">
<title>B_:node1f0go8rutx13&#45;&gt;Rgn:1648473</title>
<path fill="none" stroke="#000000" d="M843.7018,-895.1596C868.3928,-890.0368 914.5513,-881.2372 954.4279,-878 1050.3317,-870.2146 1162.0271,-880.0755 1228.785,-887.9834"/>
<polygon fill="#000000" stroke="#000000" points="1228.7559,-891.5054 1239.1041,-889.2328 1229.5974,-884.5561 1228.7559,-891.5054"/>
<text text-anchor="middle" x="1020.9279" y="-881.8" font-family="Times,serif" font-size="14.00" fill="#000000">dwciri:inDescribedPlace</text>
</g>
<!-- Riso:dut -->
<g id="node11" class="node">
<title>Riso:dut</title>
<ellipse fill="none" stroke="#0000ff" cx="1288.0617" cy="-842" rx="34.394" ry="18"/>
<text text-anchor="middle" x="1288.0617" y="-838.3" font-family="Times,serif" font-size="14.00" fill="#000000">iso:dut</text>
</g>
<!-- B_:node1f0go8rutx13&#45;&gt;Riso:dut -->
<g id="edge10" class="edge">
<title>B_:node1f0go8rutx13&#45;&gt;Riso:dut</title>
<path fill="none" stroke="#000000" d="M842.5797,-891.743C866.6987,-881.6186 913.0199,-863.6394 954.4279,-856 1056.4972,-837.1692 1178.9789,-837.8297 1243.4013,-839.9291"/>
<polygon fill="#000000" stroke="#000000" points="1243.4897,-843.4343 1253.6072,-840.2899 1243.7371,-836.4387 1243.4897,-843.4343"/>
<text text-anchor="middle" x="1020.9279" y="-859.8" font-family="Times,serif" font-size="14.00" fill="#000000">dcterms:language</text>
</g>
<!-- LBuitenzorg|Language: dut -->
<g id="node12" class="node">
<title>LBuitenzorg|Language: dut</title>
<polygon fill="none" stroke="#000000" points="1240.5617,-759 1240.5617,-805 1335.5617,-805 1335.5617,-759 1240.5617,-759"/>
<text text-anchor="middle" x="1288.0617" y="-789.8" font-family="Times,serif" font-size="14.00" fill="#000000">Buitenzorg</text>
<polyline fill="none" stroke="#000000" points="1240.5617,-782 1335.5617,-782 "/>
<text text-anchor="middle" x="1288.0617" y="-766.8" font-family="Times,serif" font-size="14.00" fill="#000000">Language: dut</text>
</g>
<!-- B_:node1f0go8rutx13&#45;&gt;LBuitenzorg|Language: dut -->
<g id="edge12" class="edge">
<title>B_:node1f0go8rutx13&#45;&gt;LBuitenzorg|Language: dut</title>
<path fill="none" stroke="#000000" d="M840.3386,-887.5449C863.0883,-870.132 909.3984,-837.4037 954.4279,-822 1047.4876,-790.1662 1162.6777,-782.9134 1230.4872,-781.6718"/>
<polygon fill="#000000" stroke="#000000" points="1230.5982,-785.1706 1240.5462,-781.5256 1230.4964,-778.1714 1230.5982,-785.1706"/>
<text text-anchor="middle" x="1020.9279" y="-825.8" font-family="Times,serif" font-size="14.00" fill="#000000">dwc:verbatimLocality</text>
</g>
<!-- B_:node1f0go8rutx13&#45;&gt;LBuitenzorg|Language: dut -->
<g id="edge13" class="edge">
<title>B_:node1f0go8rutx13&#45;&gt;LBuitenzorg|Language: dut</title>
<path fill="none" stroke="#000000" d="M835.634,-883.6849C854.4714,-855.5556 899.0664,-796.4863 954.4279,-774 1045.1854,-737.1369 1161.586,-752.4544 1230.1728,-767.1075"/>
<polygon fill="#000000" stroke="#000000" points="1229.8283,-770.6156 1240.3475,-769.3518 1231.3361,-763.7799 1229.8283,-770.6156"/>
<text text-anchor="middle" x="1020.9279" y="-777.8" font-family="Times,serif" font-size="14.00" fill="#000000">rdf:value</text>
</g>
<!-- Roa:Target -->
<g id="node14" class="node">
<title>Roa:Target</title>
<ellipse fill="none" stroke="#0000ff" cx="1288.0617" cy="-722" rx="44.393" ry="18"/>
<text text-anchor="middle" x="1288.0617" y="-718.3" font-family="Times,serif" font-size="14.00" fill="#000000">oa:Target</text>
</g>
<!-- B_:node1f0go8rutx12&#45;&gt;Roa:Target -->
<g id="edge15" class="edge">
<title>B_:node1f0go8rutx12&#45;&gt;Roa:Target</title>
<path fill="none" stroke="#000000" d="M844.0535,-696.0584C908.8293,-699.843 1130.5936,-712.7998 1234.0752,-718.8458"/>
<polygon fill="#000000" stroke="#000000" points="1234.1201,-722.3543 1244.3073,-719.4436 1234.5285,-715.3662 1234.1201,-722.3543"/>
<text text-anchor="middle" x="1020.9279" y="-713.8" font-family="Times,serif" font-size="14.00" fill="#000000">rdf:type</text>
</g>
<!-- Limage/jpeg -->
<g id="node15" class="node">
<title>Limage/jpeg</title>
<polygon fill="none" stroke="#000000" points="1249.5617,-649 1249.5617,-685 1326.5617,-685 1326.5617,-649 1249.5617,-649"/>
<text text-anchor="middle" x="1288.0617" y="-663.3" font-family="Times,serif" font-size="14.00" fill="#000000">image/jpeg</text>
</g>
<!-- B_:node1f0go8rutx12&#45;&gt;Limage/jpeg -->
<g id="edge16" class="edge">
<title>B_:node1f0go8rutx12&#45;&gt;Limage/jpeg</title>
<path fill="none" stroke="#000000" d="M844.2154,-693.0308C869.1126,-690.4084 915.0942,-685.7785 954.4279,-683 1055.5239,-675.8588 1174.0825,-671.0109 1239.142,-668.6534"/>
<polygon fill="#000000" stroke="#000000" points="1239.6296,-672.1383 1249.498,-668.2829 1239.3792,-665.1428 1239.6296,-672.1383"/>
<text text-anchor="middle" x="1020.9279" y="-686.8" font-family="Times,serif" font-size="14.00" fill="#000000">dcterms:format</text>
</g>
<!-- B_:node1f0go8rutx15 -->
<g id="node16" class="node">
<title>B_:node1f0go8rutx15</title>
<ellipse fill="none" stroke="#00ff00" cx="1288.0617" cy="-612" rx="18" ry="18"/>
</g>
<!-- B_:node1f0go8rutx12&#45;&gt;B_:node1f0go8rutx15 -->
<g id="edge17" class="edge">
<title>B_:node1f0go8rutx12&#45;&gt;B_:node1f0go8rutx15</title>
<path fill="none" stroke="#000000" d="M844.1665,-692.5377C866.5986,-689.0639 905.5114,-681.5785 936.4279,-668 945.2311,-664.1337 945.428,-659.3831 954.4279,-656 1061.8052,-615.6364 1200.7315,-611.3055 1259.6474,-611.4789"/>
<polygon fill="#000000" stroke="#000000" points="1259.9846,-614.9815 1270.0117,-611.5601 1260.0395,-607.9817 1259.9846,-614.9815"/>
<text text-anchor="middle" x="1020.9279" y="-659.8" font-family="Times,serif" font-size="14.00" fill="#000000">oa:hasSelector</text>
</g>
<!-- Rimg:MMNAT01_AF_NNM001001033_003.jpg -->
<g id="node20" class="node">
<title>Rimg:MMNAT01_AF_NNM001001033_003.jpg</title>
<ellipse fill="none" stroke="#0000ff" cx="1288.0617" cy="-449" rx="182.7677" ry="18"/>
<text text-anchor="middle" x="1288.0617" y="-445.3" font-family="Times,serif" font-size="14.00" fill="#000000">img:MMNAT01_AF_NNM001001033_003.jpg</text>
</g>
<!-- B_:node1f0go8rutx12&#45;&gt;Rimg:MMNAT01_AF_NNM001001033_003.jpg -->
<g id="edge21" class="edge">
<title>B_:node1f0go8rutx12&#45;&gt;Rimg:MMNAT01_AF_NNM001001033_003.jpg</title>
<path fill="none" stroke="#000000" d="M844.2117,-695.7815C868.5189,-695.7882 911.3316,-692.0424 936.4279,-668 957.1475,-648.1504 935.7952,-627.8204 954.4279,-606 1018.4795,-530.9902 1126.2912,-489.3993 1201.9825,-468.1721"/>
<polygon fill="#000000" stroke="#000000" points="1203.2563,-471.4522 1211.9766,-465.4349 1201.4072,-464.7008 1203.2563,-471.4522"/>
<text text-anchor="middle" x="1020.9279" y="-609.8" font-family="Times,serif" font-size="14.00" fill="#000000">oa:hasSource</text>
</g>
<!-- Roa:FragmentSelector -->
<g id="node17" class="node">
<title>Roa:FragmentSelector</title>
<ellipse fill="none" stroke="#0000ff" cx="1908.6955" cy="-694" rx="84.485" ry="18"/>
<text text-anchor="middle" x="1908.6955" y="-690.3" font-family="Times,serif" font-size="14.00" fill="#000000">oa:FragmentSelector</text>
</g>
<!-- B_:node1f0go8rutx15&#45;&gt;Roa:FragmentSelector -->
<g id="edge18" class="edge">
<title>B_:node1f0go8rutx15&#45;&gt;Roa:FragmentSelector</title>
<path fill="none" stroke="#000000" d="M1306.1475,-613.6146C1339.1714,-616.7961 1411.3044,-624.8267 1470.6955,-639 1478.8979,-640.9575 1480.5102,-642.9723 1488.6955,-645 1599.0503,-672.3381 1729.593,-684.5321 1815.5117,-689.9001"/>
<polygon fill="#000000" stroke="#000000" points="1815.3098,-693.3942 1825.5034,-690.5061 1815.7336,-686.407 1815.3098,-693.3942"/>
<text text-anchor="middle" x="1546.1955" y="-670.8" font-family="Times,serif" font-size="14.00" fill="#000000">rdf:type</text>
</g>
<!-- Rmf: -->
<g id="node18" class="node">
<title>Rmf:</title>
<ellipse fill="none" stroke="#0000ff" cx="1908.6955" cy="-640" rx="27" ry="18"/>
<text text-anchor="middle" x="1908.6955" y="-636.3" font-family="Times,serif" font-size="14.00" fill="#000000">mf:</text>
</g>
<!-- B_:node1f0go8rutx15&#45;&gt;Rmf: -->
<g id="edge19" class="edge">
<title>B_:node1f0go8rutx15&#45;&gt;Rmf:</title>
<path fill="none" stroke="#000000" d="M1306.3,-612.8228C1391.7315,-616.6771 1753.1285,-632.9816 1871.2035,-638.3085"/>
<polygon fill="#000000" stroke="#000000" points="1871.387,-641.8203 1881.5347,-638.7746 1871.7026,-634.8274 1871.387,-641.8203"/>
<text text-anchor="middle" x="1546.1955" y="-629.8" font-family="Times,serif" font-size="14.00" fill="#000000">dcterms:conformsTo</text>
</g>
<!-- Lxywh=0.783509282340829,0.018142248666184174,0.050441826215022134,0.017488954344624445 -->
<g id="node19" class="node">
<title>Lxywh=0.783509282340829,0.018142248666184174,0.050441826215022134,0.017488954344624445</title>
<polygon fill="none" stroke="#000000" points="1621.6955,-567 1621.6955,-603 2195.6955,-603 2195.6955,-567 1621.6955,-567"/>
<text text-anchor="middle" x="1908.6955" y="-581.3" font-family="Times,serif" font-size="14.00" fill="#000000">xywh=0.783509282340829,0.018142248666184174,0.050441826215022134,0.017488954344624445</text>
</g>
<!-- B_:node1f0go8rutx15&#45;&gt;Lxywh=0.783509282340829,0.018142248666184174,0.050441826215022134,0.017488954344624445 -->
<g id="edge20" class="edge">
<title>B_:node1f0go8rutx15&#45;&gt;Lxywh=0.783509282340829,0.018142248666184174,0.050441826215022134,0.017488954344624445</title>
<path fill="none" stroke="#000000" d="M1306.0459,-611.1812C1341.1569,-609.5853 1421.2921,-605.9561 1488.6955,-603 1528.3534,-601.2607 1570.1187,-599.448 1611.3055,-597.6715"/>
<polygon fill="#000000" stroke="#000000" points="1611.6402,-601.1604 1621.4801,-597.2328 1611.3386,-594.1669 1611.6402,-601.1604"/>
<text text-anchor="middle" x="1546.1955" y="-606.8" font-family="Times,serif" font-size="14.00" fill="#000000">rdf:value</text>
</g>
<!-- Rdcmitype:StillImage -->
<g id="node23" class="node">
<title>Rdcmitype:StillImage</title>
<ellipse fill="none" stroke="#0000ff" cx="1908.6955" cy="-530" rx="83.3857" ry="18"/>
<text text-anchor="middle" x="1908.6955" y="-526.3" font-family="Times,serif" font-size="14.00" fill="#000000">dcmitype:StillImage</text>
</g>
<!-- Rimg:MMNAT01_AF_NNM001001033_003.jpg&#45;&gt;Rdcmitype:StillImage -->
<g id="edge24" class="edge">
<title>Rimg:MMNAT01_AF_NNM001001033_003.jpg&#45;&gt;Rdcmitype:StillImage</title>
<path fill="none" stroke="#000000" d="M1381.4416,-464.4867C1415.2248,-470.0558 1453.6708,-476.3545 1488.6955,-482 1547.7764,-491.523 1562.3205,-495.5271 1621.6955,-503 1688.0943,-511.3569 1763.4338,-518.3503 1820.257,-523.1244"/>
<polygon fill="#000000" stroke="#000000" points="1820.0298,-526.6175 1830.286,-523.9602 1820.6112,-519.6417 1820.0298,-526.6175"/>
<text text-anchor="middle" x="1546.1955" y="-504.8" font-family="Times,serif" font-size="14.00" fill="#000000">rdf:type</text>
</g>
<!-- Rdsw:Token -->
<g id="node24" class="node">
<title>Rdsw:Token</title>
<ellipse fill="none" stroke="#0000ff" cx="1908.6955" cy="-476" rx="50.0912" ry="18"/>
<text text-anchor="middle" x="1908.6955" y="-472.3" font-family="Times,serif" font-size="14.00" fill="#000000">dsw:Token</text>
</g>
<!-- Rimg:MMNAT01_AF_NNM001001033_003.jpg&#45;&gt;Rdsw:Token -->
<g id="edge25" class="edge">
<title>Rimg:MMNAT01_AF_NNM001001033_003.jpg&#45;&gt;Rdsw:Token</title>
<path fill="none" stroke="#000000" d="M1455.1966,-456.271C1585.5273,-461.9409 1759.0157,-469.4883 1848.9484,-473.4008"/>
<polygon fill="#000000" stroke="#000000" points="1848.8241,-476.8986 1858.9668,-473.8366 1849.1284,-469.9052 1848.8241,-476.8986"/>
<text text-anchor="middle" x="1546.1955" y="-466.8" font-family="Times,serif" font-size="14.00" fill="#000000">rdf:type</text>
</g>
<!-- Rdwc:HumanObservation -->
<g id="node25" class="node">
<title>Rdwc:HumanObservation</title>
<ellipse fill="none" stroke="#0000ff" cx="1908.6955" cy="-422" rx="96.6831" ry="18"/>
<text text-anchor="middle" x="1908.6955" y="-418.3" font-family="Times,serif" font-size="14.00" fill="#000000">dwc:HumanObservation</text>
</g>
<!-- Rimg:MMNAT01_AF_NNM001001033_003.jpg&#45;&gt;Rdwc:HumanObservation -->
<g id="edge26" class="edge">
<title>Rimg:MMNAT01_AF_NNM001001033_003.jpg&#45;&gt;Rdwc:HumanObservation</title>
<path fill="none" stroke="#000000" d="M1450.6637,-440.7666C1463.5312,-440.1544 1476.3273,-439.5585 1488.6955,-439 1595.8786,-434.1598 1718.4786,-429.272 1803.4348,-425.9877"/>
<polygon fill="#000000" stroke="#000000" points="1803.7476,-429.4784 1813.6052,-425.5953 1803.4776,-422.4836 1803.7476,-429.4784"/>
<text text-anchor="middle" x="1546.1955" y="-442.8" font-family="Times,serif" font-size="14.00" fill="#000000">rdf:type</text>
</g>
<!-- Roa:Source -->
<g id="node26" class="node">
<title>Roa:Source</title>
<ellipse fill="none" stroke="#0000ff" cx="1908.6955" cy="-368" rx="46.2923" ry="18"/>
<text text-anchor="middle" x="1908.6955" y="-364.3" font-family="Times,serif" font-size="14.00" fill="#000000">oa:Source</text>
</g>
<!-- Rimg:MMNAT01_AF_NNM001001033_003.jpg&#45;&gt;Roa:Source -->
<g id="edge27" class="edge">
<title>Rimg:MMNAT01_AF_NNM001001033_003.jpg&#45;&gt;Roa:Source</title>
<path fill="none" stroke="#000000" d="M1381.4416,-433.5133C1415.2248,-427.9442 1453.6708,-421.6455 1488.6955,-416 1547.7764,-406.477 1562.3205,-402.4729 1621.6955,-395 1702.0299,-384.8892 1795.4516,-376.7743 1853.3338,-372.1708"/>
<polygon fill="#000000" stroke="#000000" points="1853.671,-375.6552 1863.3649,-371.3799 1853.1207,-368.6768 1853.671,-375.6552"/>
<text text-anchor="middle" x="1546.1955" y="-419.8" font-family="Times,serif" font-size="14.00" fill="#000000">rdf:type</text>
</g>
<!-- Rfoaf:Image -->
<g id="node27" class="node">
<title>Rfoaf:Image</title>
<ellipse fill="none" stroke="#0000ff" cx="1908.6955" cy="-314" rx="50.0912" ry="18"/>
<text text-anchor="middle" x="1908.6955" y="-310.3" font-family="Times,serif" font-size="14.00" fill="#000000">foaf:Image</text>
</g>
<!-- Rimg:MMNAT01_AF_NNM001001033_003.jpg&#45;&gt;Rfoaf:Image -->
<g id="edge28" class="edge">
<title>Rimg:MMNAT01_AF_NNM001001033_003.jpg&#45;&gt;Rfoaf:Image</title>
<path fill="none" stroke="#000000" d="M1335.6388,-431.5357C1376.1299,-416.881 1435.9456,-395.7226 1488.6955,-379 1547.2977,-360.4221 1561.2799,-352.3718 1621.6955,-341 1699.2945,-326.3938 1790.2581,-319.5358 1848.637,-316.4235"/>
<polygon fill="#000000" stroke="#000000" points="1848.9827,-319.9105 1858.7901,-315.9025 1848.6239,-312.9197 1848.9827,-319.9105"/>
<text text-anchor="middle" x="1546.1955" y="-382.8" font-family="Times,serif" font-size="14.00" fill="#000000">rdf:type</text>
</g>
</g>
</svg>
