<?xml version="1.0" encoding="UTF-8" standalone="no"?>
<!DOCTYPE svg PUBLIC "-//W3C//DTD SVG 1.1//EN"
 "http://www.w3.org/Graphics/SVG/1.1/DTD/svg11.dtd">
<!-- Generated by graphviz version 2.40.1 (20161225.0304)
 -->
<!-- Title: %3 Pages: 1 -->
<svg width="2160pt" height="868pt"
 viewBox="0.00 0.00 2160.19 868.00" xmlns="http://www.w3.org/2000/svg" xmlns:xlink="http://www.w3.org/1999/xlink">
<g id="graph0" class="graph" transform="scale(1 1) rotate(0) translate(4 864)">
<title>%3</title>
<polygon fill="#ffffff" stroke="transparent" points="-4,4 -4,-864 2156.1949,-864 2156.1949,4 -4,4"/>
<text text-anchor="middle" x="1076.0975" y="-218.8" font-family="Times,serif" font-size="14.00" fill="#000000">Model:</text>
<text text-anchor="middle" x="1076.0975" y="-203.8" font-family="Times,serif" font-size="14.00" fill="#000000">(Unknown)</text>
<text text-anchor="middle" x="1076.0975" y="-172.8" font-family="Times,serif" font-size="14.00" fill="#000000">Namespaces:</text>
<text text-anchor="middle" x="1076.0975" y="-157.8" font-family="Times,serif" font-size="14.00" fill="#000000">dcmitype: http://purl.org/dc/dcmitype/</text>
<text text-anchor="middle" x="1076.0975" y="-142.8" font-family="Times,serif" font-size="14.00" fill="#000000">dcterms: http://purl.org/dc/terms/</text>
<text text-anchor="middle" x="1076.0975" y="-127.8" font-family="Times,serif" font-size="14.00" fill="#000000">dsw: http://purl.org/dsw/</text>
<text text-anchor="middle" x="1076.0975" y="-112.8" font-family="Times,serif" font-size="14.00" fill="#000000">dwc: http://rs.tdwg.org/dwc/terms/</text>
<text text-anchor="middle" x="1076.0975" y="-97.8" font-family="Times,serif" font-size="14.00" fill="#000000">foaf: http://xmlns.com/foaf/0.1/</text>
<text text-anchor="middle" x="1076.0975" y="-82.8" font-family="Times,serif" font-size="14.00" fill="#000000">img: http://localhost:8080/semanticAnnotator/files/</text>
<text text-anchor="middle" x="1076.0975" y="-67.8" font-family="Times,serif" font-size="14.00" fill="#000000">iso: http://iso639&#45;3.sil.org/code/</text>
<text text-anchor="middle" x="1076.0975" y="-52.8" font-family="Times,serif" font-size="14.00" fill="#000000">mf: http://www.w3.org/TR/media&#45;frags/</text>
<text text-anchor="middle" x="1076.0975" y="-37.8" font-family="Times,serif" font-size="14.00" fill="#000000">oa: http://www.w3.org/ns/oa#</text>
<text text-anchor="middle" x="1076.0975" y="-22.8" font-family="Times,serif" font-size="14.00" fill="#000000">orcid: http://orcid.org/</text>
<text text-anchor="middle" x="1076.0975" y="-7.8" font-family="Times,serif" font-size="14.00" fill="#000000">rdf: http://www.w3.org/1999/02/22&#45;rdf&#45;syntax&#45;ns#</text>
<!-- Rhttp://localhost:8080/rdf/nc/annotation/da50b851&#45;9b55&#45;42d9&#45;be80&#45;90448e320c40 -->
<g id="node1" class="node">
<title>Rhttp://localhost:8080/rdf/nc/annotation/da50b851&#45;9b55&#45;42d9&#45;be80&#45;90448e320c40</title>
<ellipse fill="none" stroke="#0000ff" cx="298.9735" cy="-658" rx="298.9469" ry="18"/>
<text text-anchor="middle" x="298.9735" y="-654.3" font-family="Times,serif" font-size="14.00" fill="#000000">http://localhost:8080/rdf/nc/annotation/da50b851&#45;9b55&#45;42d9&#45;be80&#45;90448e320c40</text>
</g>
<!-- Roa:Annotation -->
<g id="node2" class="node">
<title>Roa:Annotation</title>
<ellipse fill="none" stroke="#0000ff" cx="832.4371" cy="-791" rx="61.1893" ry="18"/>
<text text-anchor="middle" x="832.4371" y="-787.3" font-family="Times,serif" font-size="14.00" fill="#000000">oa:Annotation</text>
</g>
<!-- Rhttp://localhost:8080/rdf/nc/annotation/da50b851&#45;9b55&#45;42d9&#45;be80&#45;90448e320c40&#45;&gt;Roa:Annotation -->
<g id="edge1" class="edge">
<title>Rhttp://localhost:8080/rdf/nc/annotation/da50b851&#45;9b55&#45;42d9&#45;be80&#45;90448e320c40&#45;&gt;Roa:Annotation</title>
<path fill="none" stroke="#000000" d="M368.5491,-675.5693C452.3448,-696.6988 597.387,-733.1734 721.9469,-764 739.2525,-768.2828 758.0937,-772.9029 775.2351,-777.0896"/>
<polygon fill="#000000" stroke="#000000" points="774.5622,-780.5281 785.1069,-779.4988 776.2218,-773.7276 774.5622,-780.5281"/>
<text text-anchor="middle" x="659.9469" y="-761.8" font-family="Times,serif" font-size="14.00" fill="#000000">rdf:type</text>
</g>
<!-- Rorcid:0000&#45;0002&#45;2146&#45;4803 -->
<g id="node3" class="node">
<title>Rorcid:0000&#45;0002&#45;2146&#45;4803</title>
<ellipse fill="none" stroke="#0000ff" cx="832.4371" cy="-737" rx="110.4804" ry="18"/>
<text text-anchor="middle" x="832.4371" y="-733.3" font-family="Times,serif" font-size="14.00" fill="#000000">orcid:0000&#45;0002&#45;2146&#45;4803</text>
</g>
<!-- Rhttp://localhost:8080/rdf/nc/annotation/da50b851&#45;9b55&#45;42d9&#45;be80&#45;90448e320c40&#45;&gt;Rorcid:0000&#45;0002&#45;2146&#45;4803 -->
<g id="edge2" class="edge">
<title>Rhttp://localhost:8080/rdf/nc/annotation/da50b851&#45;9b55&#45;42d9&#45;be80&#45;90448e320c40&#45;&gt;Rorcid:0000&#45;0002&#45;2146&#45;4803</title>
<path fill="none" stroke="#000000" d="M411.7813,-674.7056C509.6282,-689.1956 649.4877,-709.9072 740.621,-723.4031"/>
<polygon fill="#000000" stroke="#000000" points="740.255,-726.8869 750.6598,-724.8897 741.2805,-719.9625 740.255,-726.8869"/>
<text text-anchor="middle" x="659.9469" y="-720.8" font-family="Times,serif" font-size="14.00" fill="#000000">dcterms:creator</text>
</g>
<!-- L2021&#45;01&#45;12T14:23:11.646Z|Datatype: dcterms:W3CDTF -->
<g id="node4" class="node">
<title>L2021&#45;01&#45;12T14:23:11.646Z|Datatype: dcterms:W3CDTF</title>
<polygon fill="none" stroke="#000000" points="744.9371,-654 744.9371,-700 919.9371,-700 919.9371,-654 744.9371,-654"/>
<text text-anchor="middle" x="832.4371" y="-684.8" font-family="Times,serif" font-size="14.00" fill="#000000">2021&#45;01&#45;12T14:23:11.646Z</text>
<polyline fill="none" stroke="#000000" points="744.9371,-677 919.9371,-677 "/>
<text text-anchor="middle" x="832.4371" y="-661.8" font-family="Times,serif" font-size="14.00" fill="#000000">Datatype: dcterms:W3CDTF</text>
</g>
<!-- Rhttp://localhost:8080/rdf/nc/annotation/da50b851&#45;9b55&#45;42d9&#45;be80&#45;90448e320c40&#45;&gt;L2021&#45;01&#45;12T14:23:11.646Z|Datatype: dcterms:W3CDTF -->
<g id="edge3" class="edge">
<title>Rhttp://localhost:8080/rdf/nc/annotation/da50b851&#45;9b55&#45;42d9&#45;be80&#45;90448e320c40&#45;&gt;L2021&#45;01&#45;12T14:23:11.646Z|Datatype: dcterms:W3CDTF</title>
<path fill="none" stroke="#000000" d="M556.3297,-667.1661C619.8926,-669.4299 684.1662,-671.7191 734.6884,-673.5186"/>
<polygon fill="#000000" stroke="#000000" points="734.8116,-677.0251 744.9298,-673.8833 735.0608,-670.0295 734.8116,-677.0251"/>
<text text-anchor="middle" x="659.9469" y="-675.8" font-family="Times,serif" font-size="14.00" fill="#000000">dcterms:date</text>
</g>
<!-- B_:node1euqlam8lx280 -->
<g id="node5" class="node">
<title>B_:node1euqlam8lx280</title>
<ellipse fill="none" stroke="#00ff00" cx="832.4371" cy="-617" rx="18" ry="18"/>
</g>
<!-- Rhttp://localhost:8080/rdf/nc/annotation/da50b851&#45;9b55&#45;42d9&#45;be80&#45;90448e320c40&#45;&gt;B_:node1euqlam8lx280 -->
<g id="edge4" class="edge">
<title>Rhttp://localhost:8080/rdf/nc/annotation/da50b851&#45;9b55&#45;42d9&#45;be80&#45;90448e320c40&#45;&gt;B_:node1euqlam8lx280</title>
<path fill="none" stroke="#000000" d="M483.6821,-643.804C602.1467,-634.6992 744.5242,-623.7567 804.0801,-619.1794"/>
<polygon fill="#000000" stroke="#000000" points="804.5098,-622.6568 814.2122,-618.4007 803.9734,-615.6774 804.5098,-622.6568"/>
<text text-anchor="middle" x="659.9469" y="-636.8" font-family="Times,serif" font-size="14.00" fill="#000000">oa:hasBody</text>
</g>
<!-- B_:node1euqlam8lx279 -->
<g id="node12" class="node">
<title>B_:node1euqlam8lx279</title>
<ellipse fill="none" stroke="#00ff00" cx="832.4371" cy="-467" rx="18" ry="18"/>
</g>
<!-- Rhttp://localhost:8080/rdf/nc/annotation/da50b851&#45;9b55&#45;42d9&#45;be80&#45;90448e320c40&#45;&gt;B_:node1euqlam8lx279 -->
<g id="edge11" class="edge">
<title>Rhttp://localhost:8080/rdf/nc/annotation/da50b851&#45;9b55&#45;42d9&#45;be80&#45;90448e320c40&#45;&gt;B_:node1euqlam8lx279</title>
<path fill="none" stroke="#000000" d="M348.6814,-640.2027C458.9269,-600.7307 720.8638,-506.9475 805.536,-476.6316"/>
<polygon fill="#000000" stroke="#000000" points="806.9469,-479.8441 815.1818,-473.178 804.5873,-473.2538 806.9469,-479.8441"/>
<text text-anchor="middle" x="659.9469" y="-543.8" font-family="Times,serif" font-size="14.00" fill="#000000">oa:hasTarget</text>
</g>
<!-- Roa:describing -->
<g id="node19" class="node">
<title>Roa:describing</title>
<ellipse fill="none" stroke="#0000ff" cx="832.4371" cy="-413" rx="57.6901" ry="18"/>
<text text-anchor="middle" x="832.4371" y="-409.3" font-family="Times,serif" font-size="14.00" fill="#000000">oa:describing</text>
</g>
<!-- Rhttp://localhost:8080/rdf/nc/annotation/da50b851&#45;9b55&#45;42d9&#45;be80&#45;90448e320c40&#45;&gt;Roa:describing -->
<g id="edge19" class="edge">
<title>Rhttp://localhost:8080/rdf/nc/annotation/da50b851&#45;9b55&#45;42d9&#45;be80&#45;90448e320c40&#45;&gt;Roa:describing</title>
<path fill="none" stroke="#000000" d="M327.867,-640.0362C394.7924,-599.1252 566.6044,-498.0779 721.9469,-440 738.1067,-433.9584 756.1053,-428.8958 772.8056,-424.8477"/>
<polygon fill="#000000" stroke="#000000" points="774.0695,-428.1464 783.0081,-422.4585 772.4735,-421.3308 774.0695,-428.1464"/>
<text text-anchor="middle" x="659.9469" y="-484.8" font-family="Times,serif" font-size="14.00" fill="#000000">oa:motivatedBy</text>
</g>
<!-- Rfoaf:Person -->
<g id="node20" class="node">
<title>Rfoaf:Person</title>
<ellipse fill="none" stroke="#0000ff" cx="1258.5611" cy="-841" rx="51.1914" ry="18"/>
<text text-anchor="middle" x="1258.5611" y="-837.3" font-family="Times,serif" font-size="14.00" fill="#000000">foaf:Person</text>
</g>
<!-- Rorcid:0000&#45;0002&#45;2146&#45;4803&#45;&gt;Rfoaf:Person -->
<g id="edge20" class="edge">
<title>Rorcid:0000&#45;0002&#45;2146&#45;4803&#45;&gt;Rfoaf:Person</title>
<path fill="none" stroke="#000000" d="M916.736,-748.69C926.235,-752.5034 935.2428,-757.4907 942.9273,-764 958.4238,-777.1265 944.6558,-793.8476 960.9273,-806 1030.9645,-858.3071 1137.2695,-857.0317 1202.0708,-849.9758"/>
<polygon fill="#000000" stroke="#000000" points="1202.5777,-853.4404 1212.1028,-848.801 1201.7635,-846.4879 1202.5777,-853.4404"/>
<text text-anchor="middle" x="1009.4273" y="-848.8" font-family="Times,serif" font-size="14.00" fill="#000000">rdf:type</text>
</g>
<!-- Rdwc:MeasurementOrFact -->
<g id="node6" class="node">
<title>Rdwc:MeasurementOrFact</title>
<ellipse fill="none" stroke="#0000ff" cx="1258.5611" cy="-557" rx="100.9827" ry="18"/>
<text text-anchor="middle" x="1258.5611" y="-553.3" font-family="Times,serif" font-size="14.00" fill="#000000">dwc:MeasurementOrFact</text>
</g>
<!-- B_:node1euqlam8lx280&#45;&gt;Rdwc:MeasurementOrFact -->
<g id="edge5" class="edge">
<title>B_:node1euqlam8lx280&#45;&gt;Rdwc:MeasurementOrFact</title>
<path fill="none" stroke="#000000" d="M850.3052,-614.3007C875.117,-610.5654 921.4149,-603.6427 960.9273,-598 1030.3634,-588.0839 1108.9749,-577.2727 1167.9641,-569.2427"/>
<polygon fill="#000000" stroke="#000000" points="1168.5623,-572.6936 1177.9993,-567.8777 1167.6188,-565.7575 1168.5623,-572.6936"/>
<text text-anchor="middle" x="1009.4273" y="-601.8" font-family="Times,serif" font-size="14.00" fill="#000000">rdf:type</text>
</g>
<!-- Roa:TextualBody -->
<g id="node7" class="node">
<title>Roa:TextualBody</title>
<ellipse fill="none" stroke="#0000ff" cx="1258.5611" cy="-787" rx="67.6881" ry="18"/>
<text text-anchor="middle" x="1258.5611" y="-783.3" font-family="Times,serif" font-size="14.00" fill="#000000">oa:TextualBody</text>
</g>
<!-- B_:node1euqlam8lx280&#45;&gt;Roa:TextualBody -->
<g id="edge6" class="edge">
<title>B_:node1euqlam8lx280&#45;&gt;Roa:TextualBody</title>
<path fill="none" stroke="#000000" d="M850.4562,-616.2552C874.8717,-616.2797 918.2401,-620.1533 942.9273,-645 966.48,-668.7048 938.6134,-693.1257 960.9273,-718 997.2621,-758.504 1023.1852,-746.6186 1075.9273,-760 1111.2618,-768.9648 1151.2482,-775.2932 1184.7786,-779.5583"/>
<polygon fill="#000000" stroke="#000000" points="1184.6114,-783.0642 1194.965,-780.8163 1185.4695,-776.1169 1184.6114,-783.0642"/>
<text text-anchor="middle" x="1009.4273" y="-758.8" font-family="Times,serif" font-size="14.00" fill="#000000">rdf:type</text>
</g>
<!-- Ltext/plain -->
<g id="node8" class="node">
<title>Ltext/plain</title>
<polygon fill="none" stroke="#000000" points="1224.5611,-714 1224.5611,-750 1292.5611,-750 1292.5611,-714 1224.5611,-714"/>
<text text-anchor="middle" x="1258.5611" y="-728.3" font-family="Times,serif" font-size="14.00" fill="#000000">text/plain</text>
</g>
<!-- B_:node1euqlam8lx280&#45;&gt;Ltext/plain -->
<g id="edge7" class="edge">
<title>B_:node1euqlam8lx280&#45;&gt;Ltext/plain</title>
<path fill="none" stroke="#000000" d="M850.704,-618.0278C873.8694,-620.0944 914.2442,-626.3112 942.9273,-645 953.803,-652.0861 950.2513,-660.6165 960.9273,-668 1004.976,-698.464 1023.7535,-691.9074 1075.9273,-704 1122.6292,-714.8243 1177.046,-722.5531 1214.2537,-727.1115"/>
<polygon fill="#000000" stroke="#000000" points="1213.9254,-730.5971 1224.2711,-728.3131 1214.7592,-723.647 1213.9254,-730.5971"/>
<text text-anchor="middle" x="1009.4273" y="-702.8" font-family="Times,serif" font-size="14.00" fill="#000000">dcterms:format</text>
</g>
<!-- Riso:lat -->
<g id="node9" class="node">
<title>Riso:lat</title>
<ellipse fill="none" stroke="#0000ff" cx="1258.5611" cy="-677" rx="32.4942" ry="18"/>
<text text-anchor="middle" x="1258.5611" y="-673.3" font-family="Times,serif" font-size="14.00" fill="#000000">iso:lat</text>
</g>
<!-- B_:node1euqlam8lx280&#45;&gt;Riso:lat -->
<g id="edge8" class="edge">
<title>B_:node1euqlam8lx280&#45;&gt;Riso:lat</title>
<path fill="none" stroke="#000000" d="M850.3052,-619.6993C875.117,-623.4346 921.4149,-630.3573 960.9273,-636 1052.073,-649.0164 1159.0284,-663.5752 1216.6594,-671.3612"/>
<polygon fill="#000000" stroke="#000000" points="1216.453,-674.865 1226.8314,-672.7343 1217.3895,-667.9279 1216.453,-674.865"/>
<text text-anchor="middle" x="1009.4273" y="-652.8" font-family="Times,serif" font-size="14.00" fill="#000000">dcterms:language</text>
</g>
<!-- Rimg:MMNAT01_AF_NNM001001033_003.jpg -->
<g id="node10" class="node">
<title>Rimg:MMNAT01_AF_NNM001001033_003.jpg</title>
<ellipse fill="none" stroke="#0000ff" cx="1258.5611" cy="-503" rx="182.7677" ry="18"/>
<text text-anchor="middle" x="1258.5611" y="-499.3" font-family="Times,serif" font-size="14.00" fill="#000000">img:MMNAT01_AF_NNM001001033_003.jpg</text>
</g>
<!-- B_:node1euqlam8lx280&#45;&gt;Rimg:MMNAT01_AF_NNM001001033_003.jpg -->
<g id="edge9" class="edge">
<title>B_:node1euqlam8lx280&#45;&gt;Rimg:MMNAT01_AF_NNM001001033_003.jpg</title>
<path fill="none" stroke="#000000" d="M849.359,-610.0419C873.8183,-600.07 920.5504,-581.337 960.9273,-567 1011.5238,-549.0343 1023.6379,-542.1895 1075.9273,-530 1094.4015,-525.6934 1114.0949,-521.9349 1133.4564,-518.7014"/>
<polygon fill="#000000" stroke="#000000" points="1134.2358,-522.1207 1143.5428,-517.0582 1133.1101,-515.2118 1134.2358,-522.1207"/>
<text text-anchor="middle" x="1009.4273" y="-570.8" font-family="Times,serif" font-size="14.00" fill="#000000">dsw:derivedFrom</text>
</g>
<!-- LColor|Language: lat -->
<g id="node11" class="node">
<title>LColor|Language: lat</title>
<polygon fill="none" stroke="#000000" points="1213.0611,-594 1213.0611,-640 1304.0611,-640 1304.0611,-594 1213.0611,-594"/>
<text text-anchor="middle" x="1258.5611" y="-624.8" font-family="Times,serif" font-size="14.00" fill="#000000">Color</text>
<polyline fill="none" stroke="#000000" points="1213.0611,-617 1304.0611,-617 "/>
<text text-anchor="middle" x="1258.5611" y="-601.8" font-family="Times,serif" font-size="14.00" fill="#000000">Language: lat</text>
</g>
<!-- B_:node1euqlam8lx280&#45;&gt;LColor|Language: lat -->
<g id="edge10" class="edge">
<title>B_:node1euqlam8lx280&#45;&gt;LColor|Language: lat</title>
<path fill="none" stroke="#000000" d="M850.475,-617C910.5418,-617 1105.4647,-617 1202.5515,-617"/>
<polygon fill="#000000" stroke="#000000" points="1202.7633,-620.5001 1212.7633,-617 1202.7632,-613.5001 1202.7633,-620.5001"/>
<text text-anchor="middle" x="1009.4273" y="-620.8" font-family="Times,serif" font-size="14.00" fill="#000000">rdf:value</text>
</g>
<!-- Rdcmitype:StillImage -->
<g id="node21" class="node">
<title>Rdcmitype:StillImage</title>
<ellipse fill="none" stroke="#0000ff" cx="1872.1949" cy="-502" rx="83.3857" ry="18"/>
<text text-anchor="middle" x="1872.1949" y="-498.3" font-family="Times,serif" font-size="14.00" fill="#000000">dcmitype:StillImage</text>
</g>
<!-- Rimg:MMNAT01_AF_NNM001001033_003.jpg&#45;&gt;Rdcmitype:StillImage -->
<g id="edge21" class="edge">
<title>Rimg:MMNAT01_AF_NNM001001033_003.jpg&#45;&gt;Rdcmitype:StillImage</title>
<path fill="none" stroke="#000000" d="M1441.4251,-502.702C1552.4726,-502.521 1689.5618,-502.2976 1778.8431,-502.1521"/>
<polygon fill="#000000" stroke="#000000" points="1778.9542,-505.6521 1788.9485,-502.1357 1778.9427,-498.6521 1778.9542,-505.6521"/>
<text text-anchor="middle" x="1516.6949" y="-506.8" font-family="Times,serif" font-size="14.00" fill="#000000">rdf:type</text>
</g>
<!-- Rdsw:Token -->
<g id="node22" class="node">
<title>Rdsw:Token</title>
<ellipse fill="none" stroke="#0000ff" cx="1872.1949" cy="-448" rx="50.0912" ry="18"/>
<text text-anchor="middle" x="1872.1949" y="-444.3" font-family="Times,serif" font-size="14.00" fill="#000000">dsw:Token</text>
</g>
<!-- Rimg:MMNAT01_AF_NNM001001033_003.jpg&#45;&gt;Rdsw:Token -->
<g id="edge22" class="edge">
<title>Rimg:MMNAT01_AF_NNM001001033_003.jpg&#45;&gt;Rdsw:Token</title>
<path fill="none" stroke="#000000" d="M1389.6753,-490.4414C1412.8345,-488.2636 1436.7203,-486.0437 1459.1949,-484 1585.0716,-472.5538 1732.6007,-459.8704 1812.8387,-453.0337"/>
<polygon fill="#000000" stroke="#000000" points="1813.5642,-456.4847 1823.2312,-452.1489 1812.9703,-449.5099 1813.5642,-456.4847"/>
<text text-anchor="middle" x="1516.6949" y="-487.8" font-family="Times,serif" font-size="14.00" fill="#000000">rdf:type</text>
</g>
<!-- Rdwc:HumanObservation -->
<g id="node23" class="node">
<title>Rdwc:HumanObservation</title>
<ellipse fill="none" stroke="#0000ff" cx="1872.1949" cy="-664" rx="96.6831" ry="18"/>
<text text-anchor="middle" x="1872.1949" y="-660.3" font-family="Times,serif" font-size="14.00" fill="#000000">dwc:HumanObservation</text>
</g>
<!-- Rimg:MMNAT01_AF_NNM001001033_003.jpg&#45;&gt;Rdwc:HumanObservation -->
<g id="edge23" class="edge">
<title>Rimg:MMNAT01_AF_NNM001001033_003.jpg&#45;&gt;Rdwc:HumanObservation</title>
<path fill="none" stroke="#000000" d="M1414.5464,-512.4536C1424.1958,-517.05 1433.2148,-522.8161 1441.1949,-530 1465.0692,-551.4923 1436.7046,-577.0634 1459.1949,-600 1544.7232,-687.2252 1696.3901,-687.4009 1790.2056,-677.2997"/>
<polygon fill="#000000" stroke="#000000" points="1790.6848,-680.7678 1800.2243,-676.1583 1789.8923,-673.8128 1790.6848,-680.7678"/>
<text text-anchor="middle" x="1516.6949" y="-667.8" font-family="Times,serif" font-size="14.00" fill="#000000">rdf:type</text>
</g>
<!-- Roa:Source -->
<g id="node24" class="node">
<title>Roa:Source</title>
<ellipse fill="none" stroke="#0000ff" cx="1872.1949" cy="-610" rx="46.2923" ry="18"/>
<text text-anchor="middle" x="1872.1949" y="-606.3" font-family="Times,serif" font-size="14.00" fill="#000000">oa:Source</text>
</g>
<!-- Rimg:MMNAT01_AF_NNM001001033_003.jpg&#45;&gt;Roa:Source -->
<g id="edge24" class="edge">
<title>Rimg:MMNAT01_AF_NNM001001033_003.jpg&#45;&gt;Roa:Source</title>
<path fill="none" stroke="#000000" d="M1402.4099,-514.1356C1415.9645,-518.1529 1429.1295,-523.3384 1441.1949,-530 1451.9563,-535.9416 1448.7096,-544.5837 1459.1949,-551 1511.054,-582.7338 1532.2339,-572.9465 1592.1949,-583 1669.2766,-595.9241 1759.4111,-603.2412 1816.1536,-606.9107"/>
<polygon fill="#000000" stroke="#000000" points="1816.1489,-610.4173 1826.3494,-607.554 1816.5897,-603.4312 1816.1489,-610.4173"/>
<text text-anchor="middle" x="1516.6949" y="-584.8" font-family="Times,serif" font-size="14.00" fill="#000000">rdf:type</text>
</g>
<!-- Rfoaf:Image -->
<g id="node25" class="node">
<title>Rfoaf:Image</title>
<ellipse fill="none" stroke="#0000ff" cx="1872.1949" cy="-556" rx="50.0912" ry="18"/>
<text text-anchor="middle" x="1872.1949" y="-552.3" font-family="Times,serif" font-size="14.00" fill="#000000">foaf:Image</text>
</g>
<!-- Rimg:MMNAT01_AF_NNM001001033_003.jpg&#45;&gt;Rfoaf:Image -->
<g id="edge25" class="edge">
<title>Rimg:MMNAT01_AF_NNM001001033_003.jpg&#45;&gt;Rfoaf:Image</title>
<path fill="none" stroke="#000000" d="M1389.1287,-515.5989C1412.4568,-517.7832 1436.5412,-519.9949 1459.1949,-522 1585.0475,-533.1391 1732.5855,-544.9955 1812.8315,-551.3432"/>
<polygon fill="#000000" stroke="#000000" points="1812.9805,-554.8658 1823.2252,-552.1643 1813.5319,-547.8875 1812.9805,-554.8658"/>
<text text-anchor="middle" x="1516.6949" y="-535.8" font-family="Times,serif" font-size="14.00" fill="#000000">rdf:type</text>
</g>
<!-- B_:node1euqlam8lx279&#45;&gt;Rimg:MMNAT01_AF_NNM001001033_003.jpg -->
<g id="edge18" class="edge">
<title>B_:node1euqlam8lx279&#45;&gt;Rimg:MMNAT01_AF_NNM001001033_003.jpg</title>
<path fill="none" stroke="#000000" d="M850.475,-468.5239C894.7356,-472.2631 1012.2177,-482.1883 1109.8247,-490.4344"/>
<polygon fill="#000000" stroke="#000000" points="1109.5479,-493.9234 1119.8071,-491.2777 1110.1373,-486.9482 1109.5479,-493.9234"/>
<text text-anchor="middle" x="1009.4273" y="-488.8" font-family="Times,serif" font-size="14.00" fill="#000000">oa:hasSource</text>
</g>
<!-- Roa:Target -->
<g id="node13" class="node">
<title>Roa:Target</title>
<ellipse fill="none" stroke="#0000ff" cx="1258.5611" cy="-339" rx="44.393" ry="18"/>
<text text-anchor="middle" x="1258.5611" y="-335.3" font-family="Times,serif" font-size="14.00" fill="#000000">oa:Target</text>
</g>
<!-- B_:node1euqlam8lx279&#45;&gt;Roa:Target -->
<g id="edge12" class="edge">
<title>B_:node1euqlam8lx279&#45;&gt;Roa:Target</title>
<path fill="none" stroke="#000000" d="M850.6117,-467.6762C874.8062,-467.5636 917.4917,-463.6831 942.9273,-440 962.0606,-422.185 941.0594,-400.9919 960.9273,-384 1029.7281,-325.1587 1141.7043,-325.346 1206.9189,-331.6179"/>
<polygon fill="#000000" stroke="#000000" points="1206.6604,-335.1099 1216.9702,-332.6686 1207.3883,-328.1478 1206.6604,-335.1099"/>
<text text-anchor="middle" x="1009.4273" y="-387.8" font-family="Times,serif" font-size="14.00" fill="#000000">rdf:type</text>
</g>
<!-- Limage/jpeg -->
<g id="node14" class="node">
<title>Limage/jpeg</title>
<polygon fill="none" stroke="#000000" points="1220.0611,-430 1220.0611,-466 1297.0611,-466 1297.0611,-430 1220.0611,-430"/>
<text text-anchor="middle" x="1258.5611" y="-444.3" font-family="Times,serif" font-size="14.00" fill="#000000">image/jpeg</text>
</g>
<!-- B_:node1euqlam8lx279&#45;&gt;Limage/jpeg -->
<g id="edge13" class="edge">
<title>B_:node1euqlam8lx279&#45;&gt;Limage/jpeg</title>
<path fill="none" stroke="#000000" d="M850.2321,-463.7266C874.9591,-459.3571 921.159,-451.8391 960.9273,-449 1048.4475,-442.7517 1150.8123,-444.3525 1209.823,-446.1387"/>
<polygon fill="#000000" stroke="#000000" points="1209.8647,-449.6417 1219.9708,-446.4608 1210.0869,-442.6452 1209.8647,-449.6417"/>
<text text-anchor="middle" x="1009.4273" y="-452.8" font-family="Times,serif" font-size="14.00" fill="#000000">dcterms:format</text>
</g>
<!-- B_:node1euqlam8lx282 -->
<g id="node15" class="node">
<title>B_:node1euqlam8lx282</title>
<ellipse fill="none" stroke="#00ff00" cx="1258.5611" cy="-393" rx="18" ry="18"/>
</g>
<!-- B_:node1euqlam8lx279&#45;&gt;B_:node1euqlam8lx282 -->
<g id="edge14" class="edge">
<title>B_:node1euqlam8lx279&#45;&gt;B_:node1euqlam8lx282</title>
<path fill="none" stroke="#000000" d="M850.3585,-464.7857C872.8142,-461.5321 912.0914,-454.2383 942.9273,-440 951.8866,-435.8631 951.7255,-430.565 960.9273,-427 1054.3907,-390.7906 1175.813,-389.8305 1230.1283,-391.5681"/>
<polygon fill="#000000" stroke="#000000" points="1230.2426,-395.0748 1240.3677,-391.955 1230.507,-388.0798 1230.2426,-395.0748"/>
<text text-anchor="middle" x="1009.4273" y="-430.8" font-family="Times,serif" font-size="14.00" fill="#000000">oa:hasSelector</text>
</g>
<!-- Roa:FragmentSelector -->
<g id="node16" class="node">
<title>Roa:FragmentSelector</title>
<ellipse fill="none" stroke="#0000ff" cx="1872.1949" cy="-284" rx="84.485" ry="18"/>
<text text-anchor="middle" x="1872.1949" y="-280.3" font-family="Times,serif" font-size="14.00" fill="#000000">oa:FragmentSelector</text>
</g>
<!-- B_:node1euqlam8lx282&#45;&gt;Roa:FragmentSelector -->
<g id="edge15" class="edge">
<title>B_:node1euqlam8lx282&#45;&gt;Roa:FragmentSelector</title>
<path fill="none" stroke="#000000" d="M1276.5936,-394.0954C1310.772,-395.3903 1386.456,-394.4696 1441.1949,-366 1451.5148,-360.6326 1449.2082,-352.9644 1459.1949,-347 1511.7704,-315.6003 1531.9487,-321.9777 1592.1949,-311 1654.2736,-299.6884 1725.0152,-292.9171 1779.8611,-288.9846"/>
<polygon fill="#000000" stroke="#000000" points="1780.1794,-292.4709 1789.9113,-288.2828 1779.6918,-285.4879 1780.1794,-292.4709"/>
<text text-anchor="middle" x="1516.6949" y="-350.8" font-family="Times,serif" font-size="14.00" fill="#000000">rdf:type</text>
</g>
<!-- Rmf: -->
<g id="node17" class="node">
<title>Rmf:</title>
<ellipse fill="none" stroke="#0000ff" cx="1872.1949" cy="-394" rx="27" ry="18"/>
<text text-anchor="middle" x="1872.1949" y="-390.3" font-family="Times,serif" font-size="14.00" fill="#000000">mf:</text>
</g>
<!-- B_:node1euqlam8lx282&#45;&gt;Rmf: -->
<g id="edge16" class="edge">
<title>B_:node1euqlam8lx282&#45;&gt;Rmf:</title>
<path fill="none" stroke="#000000" d="M1276.5937,-393.0294C1360.9656,-393.1669 1717.5708,-393.748 1834.7269,-393.9389"/>
<polygon fill="#000000" stroke="#000000" points="1834.9778,-397.4393 1844.9835,-393.9557 1834.9893,-390.4393 1834.9778,-397.4393"/>
<text text-anchor="middle" x="1516.6949" y="-397.8" font-family="Times,serif" font-size="14.00" fill="#000000">dcterms:conformsTo</text>
</g>
<!-- Lxywh=0.5546807055451607,0.2902726218015227,0.02939634895478893,0.022047261716091726 -->
<g id="node18" class="node">
<title>Lxywh=0.5546807055451607,0.2902726218015227,0.02939634895478893,0.022047261716091726</title>
<polygon fill="none" stroke="#000000" points="1592.1949,-321 1592.1949,-357 2152.1949,-357 2152.1949,-321 1592.1949,-321"/>
<text text-anchor="middle" x="1872.1949" y="-335.3" font-family="Times,serif" font-size="14.00" fill="#000000">xywh=0.5546807055451607,0.2902726218015227,0.02939634895478893,0.022047261716091726</text>
</g>
<!-- B_:node1euqlam8lx282&#45;&gt;Lxywh=0.5546807055451607,0.2902726218015227,0.02939634895478893,0.022047261716091726 -->
<g id="edge17" class="edge">
<title>B_:node1euqlam8lx282&#45;&gt;Lxywh=0.5546807055451607,0.2902726218015227,0.02939634895478893,0.022047261716091726</title>
<path fill="none" stroke="#000000" d="M1276.5445,-391.3712C1311.6541,-388.1948 1391.7869,-380.9616 1459.1949,-375 1522.569,-369.3951 1591.4194,-363.3687 1654.4079,-357.88"/>
<polygon fill="#000000" stroke="#000000" points="1654.8067,-361.3586 1664.4652,-357.0039 1654.1991,-354.385 1654.8067,-361.3586"/>
<text text-anchor="middle" x="1516.6949" y="-378.8" font-family="Times,serif" font-size="14.00" fill="#000000">rdf:value</text>
</g>
</g>
</svg>
