<?xml version="1.0" encoding="UTF-8" standalone="no"?>
<!DOCTYPE svg PUBLIC "-//W3C//DTD SVG 1.1//EN"
 "http://www.w3.org/Graphics/SVG/1.1/DTD/svg11.dtd">
<!-- Generated by graphviz version 2.40.1 (20161225.0304)
 -->
<!-- Title: %3 Pages: 1 -->
<svg width="2176pt" height="981pt"
 viewBox="0.00 0.00 2175.60 981.33" xmlns="http://www.w3.org/2000/svg" xmlns:xlink="http://www.w3.org/1999/xlink">
<g id="graph0" class="graph" transform="scale(1 1) rotate(0) translate(4 977.3265)">
<title>%3</title>
<polygon fill="#ffffff" stroke="transparent" points="-4,4 -4,-977.3265 2171.5952,-977.3265 2171.5952,4 -4,4"/>
<text text-anchor="middle" x="1083.7976" y="-218.8" font-family="Times,serif" font-size="14.00" fill="#000000">Model:</text>
<text text-anchor="middle" x="1083.7976" y="-203.8" font-family="Times,serif" font-size="14.00" fill="#000000">(Unknown)</text>
<text text-anchor="middle" x="1083.7976" y="-172.8" font-family="Times,serif" font-size="14.00" fill="#000000">Namespaces:</text>
<text text-anchor="middle" x="1083.7976" y="-157.8" font-family="Times,serif" font-size="14.00" fill="#000000">dcmitype: http://purl.org/dc/dcmitype/</text>
<text text-anchor="middle" x="1083.7976" y="-142.8" font-family="Times,serif" font-size="14.00" fill="#000000">dcterms: http://purl.org/dc/terms/</text>
<text text-anchor="middle" x="1083.7976" y="-127.8" font-family="Times,serif" font-size="14.00" fill="#000000">dsw: http://purl.org/dsw/</text>
<text text-anchor="middle" x="1083.7976" y="-112.8" font-family="Times,serif" font-size="14.00" fill="#000000">dwc: http://rs.tdwg.org/dwc/terms/</text>
<text text-anchor="middle" x="1083.7976" y="-97.8" font-family="Times,serif" font-size="14.00" fill="#000000">foaf: http://xmlns.com/foaf/0.1/</text>
<text text-anchor="middle" x="1083.7976" y="-82.8" font-family="Times,serif" font-size="14.00" fill="#000000">img: http://localhost:8080/semanticAnnotator/files/</text>
<text text-anchor="middle" x="1083.7976" y="-67.8" font-family="Times,serif" font-size="14.00" fill="#000000">iso: http://iso639&#45;3.sil.org/code/</text>
<text text-anchor="middle" x="1083.7976" y="-52.8" font-family="Times,serif" font-size="14.00" fill="#000000">mf: http://www.w3.org/TR/media&#45;frags/</text>
<text text-anchor="middle" x="1083.7976" y="-37.8" font-family="Times,serif" font-size="14.00" fill="#000000">oa: http://www.w3.org/ns/oa#</text>
<text text-anchor="middle" x="1083.7976" y="-22.8" font-family="Times,serif" font-size="14.00" fill="#000000">orcid: http://orcid.org/</text>
<text text-anchor="middle" x="1083.7976" y="-7.8" font-family="Times,serif" font-size="14.00" fill="#000000">rdf: http://www.w3.org/1999/02/22&#45;rdf&#45;syntax&#45;ns#</text>
<!-- Rhttp://localhost:8080/rdf/nc/annotation/87512277&#45;50cc&#45;4b2c&#45;b3cb&#45;475a36b6d93e -->
<g id="node1" class="node">
<title>Rhttp://localhost:8080/rdf/nc/annotation/87512277&#45;50cc&#45;4b2c&#45;b3cb&#45;475a36b6d93e</title>
<ellipse fill="none" stroke="#0000ff" cx="297.6736" cy="-805.3265" rx="297.8473" ry="18"/>
<text text-anchor="middle" x="297.6736" y="-801.6265" font-family="Times,serif" font-size="14.00" fill="#000000">http://localhost:8080/rdf/nc/annotation/87512277&#45;50cc&#45;4b2c&#45;b3cb&#45;475a36b6d93e</text>
</g>
<!-- Roa:Annotation -->
<g id="node2" class="node">
<title>Roa:Annotation</title>
<ellipse fill="none" stroke="#0000ff" cx="829.8374" cy="-938.3265" rx="61.1893" ry="18"/>
<text text-anchor="middle" x="829.8374" y="-934.6265" font-family="Times,serif" font-size="14.00" fill="#000000">oa:Annotation</text>
</g>
<!-- Rhttp://localhost:8080/rdf/nc/annotation/87512277&#45;50cc&#45;4b2c&#45;b3cb&#45;475a36b6d93e&#45;&gt;Roa:Annotation -->
<g id="edge1" class="edge">
<title>Rhttp://localhost:8080/rdf/nc/annotation/87512277&#45;50cc&#45;4b2c&#45;b3cb&#45;475a36b6d93e&#45;&gt;Roa:Annotation</title>
<path fill="none" stroke="#000000" d="M367.0314,-822.9109C450.5658,-844.055 595.1586,-880.5439 719.3472,-911.3265 736.6511,-915.6156 755.4919,-920.2375 772.6334,-924.4241"/>
<polygon fill="#000000" stroke="#000000" points="771.9606,-927.8625 782.5052,-926.8329 773.62,-921.062 771.9606,-927.8625"/>
<text text-anchor="middle" x="657.3472" y="-909.1265" font-family="Times,serif" font-size="14.00" fill="#000000">rdf:type</text>
</g>
<!-- Rorcid:0000&#45;0002&#45;2146&#45;4803 -->
<g id="node3" class="node">
<title>Rorcid:0000&#45;0002&#45;2146&#45;4803</title>
<ellipse fill="none" stroke="#0000ff" cx="829.8374" cy="-884.3265" rx="110.4804" ry="18"/>
<text text-anchor="middle" x="829.8374" y="-880.6265" font-family="Times,serif" font-size="14.00" fill="#000000">orcid:0000&#45;0002&#45;2146&#45;4803</text>
</g>
<!-- Rhttp://localhost:8080/rdf/nc/annotation/87512277&#45;50cc&#45;4b2c&#45;b3cb&#45;475a36b6d93e&#45;&gt;Rorcid:0000&#45;0002&#45;2146&#45;4803 -->
<g id="edge2" class="edge">
<title>Rhttp://localhost:8080/rdf/nc/annotation/87512277&#45;50cc&#45;4b2c&#45;b3cb&#45;475a36b6d93e&#45;&gt;Rorcid:0000&#45;0002&#45;2146&#45;4803</title>
<path fill="none" stroke="#000000" d="M410.2066,-822.0321C507.668,-836.5003 646.9135,-857.1714 737.8339,-870.6685"/>
<polygon fill="#000000" stroke="#000000" points="737.4449,-874.1491 747.8505,-872.1555 738.4728,-867.225 737.4449,-874.1491"/>
<text text-anchor="middle" x="657.3472" y="-868.1265" font-family="Times,serif" font-size="14.00" fill="#000000">dcterms:creator</text>
</g>
<!-- L2021&#45;01&#45;12T14:23:11.646Z|Datatype: dcterms:W3CDTF -->
<g id="node4" class="node">
<title>L2021&#45;01&#45;12T14:23:11.646Z|Datatype: dcterms:W3CDTF</title>
<polygon fill="none" stroke="#000000" points="742.3374,-801.3265 742.3374,-847.3265 917.3374,-847.3265 917.3374,-801.3265 742.3374,-801.3265"/>
<text text-anchor="middle" x="829.8374" y="-832.1265" font-family="Times,serif" font-size="14.00" fill="#000000">2021&#45;01&#45;12T14:23:11.646Z</text>
<polyline fill="none" stroke="#000000" points="742.3374,-824.3265 917.3374,-824.3265 "/>
<text text-anchor="middle" x="829.8374" y="-809.1265" font-family="Times,serif" font-size="14.00" fill="#000000">Datatype: dcterms:W3CDTF</text>
</g>
<!-- Rhttp://localhost:8080/rdf/nc/annotation/87512277&#45;50cc&#45;4b2c&#45;b3cb&#45;475a36b6d93e&#45;&gt;L2021&#45;01&#45;12T14:23:11.646Z|Datatype: dcterms:W3CDTF -->
<g id="edge3" class="edge">
<title>Rhttp://localhost:8080/rdf/nc/annotation/87512277&#45;50cc&#45;4b2c&#45;b3cb&#45;475a36b6d93e&#45;&gt;L2021&#45;01&#45;12T14:23:11.646Z|Datatype: dcterms:W3CDTF</title>
<path fill="none" stroke="#000000" d="M554.0132,-814.4787C617.3543,-816.7402 681.4324,-819.028 731.8643,-820.8286"/>
<polygon fill="#000000" stroke="#000000" points="731.9701,-824.3345 742.0886,-821.1936 732.2199,-817.3389 731.9701,-824.3345"/>
<text text-anchor="middle" x="657.3472" y="-823.1265" font-family="Times,serif" font-size="14.00" fill="#000000">dcterms:date</text>
</g>
<!-- B_:node1evfck18lx51 -->
<g id="node5" class="node">
<title>B_:node1evfck18lx51</title>
<ellipse fill="none" stroke="#00ff00" cx="829.8374" cy="-764.3265" rx="18" ry="18"/>
</g>
<!-- Rhttp://localhost:8080/rdf/nc/annotation/87512277&#45;50cc&#45;4b2c&#45;b3cb&#45;475a36b6d93e&#45;&gt;B_:node1evfck18lx51 -->
<g id="edge4" class="edge">
<title>Rhttp://localhost:8080/rdf/nc/annotation/87512277&#45;50cc&#45;4b2c&#45;b3cb&#45;475a36b6d93e&#45;&gt;B_:node1evfck18lx51</title>
<path fill="none" stroke="#000000" d="M481.5593,-791.1592C599.7805,-782.051 742.0069,-771.0933 801.506,-766.5093"/>
<polygon fill="#000000" stroke="#000000" points="801.927,-769.9873 811.6286,-765.7294 801.3893,-763.008 801.927,-769.9873"/>
<text text-anchor="middle" x="657.3472" y="-783.1265" font-family="Times,serif" font-size="14.00" fill="#000000">oa:hasBody</text>
</g>
<!-- B_:node1evfck18lx50 -->
<g id="node11" class="node">
<title>B_:node1evfck18lx50</title>
<ellipse fill="none" stroke="#00ff00" cx="829.8374" cy="-544.3265" rx="18" ry="18"/>
</g>
<!-- Rhttp://localhost:8080/rdf/nc/annotation/87512277&#45;50cc&#45;4b2c&#45;b3cb&#45;475a36b6d93e&#45;&gt;B_:node1evfck18lx50 -->
<g id="edge10" class="edge">
<title>Rhttp://localhost:8080/rdf/nc/annotation/87512277&#45;50cc&#45;4b2c&#45;b3cb&#45;475a36b6d93e&#45;&gt;B_:node1evfck18lx50</title>
<path fill="none" stroke="#000000" d="M334.2514,-787.3869C435.5494,-737.7052 717.9488,-599.2023 804.3762,-556.814"/>
<polygon fill="#000000" stroke="#000000" points="806.0369,-559.8978 813.474,-552.3519 802.9545,-553.613 806.0369,-559.8978"/>
<text text-anchor="middle" x="657.3472" y="-648.1265" font-family="Times,serif" font-size="14.00" fill="#000000">oa:hasTarget</text>
</g>
<!-- Roa:describing -->
<g id="node19" class="node">
<title>Roa:describing</title>
<ellipse fill="none" stroke="#0000ff" cx="829.8374" cy="-490.3265" rx="57.6901" ry="18"/>
<text text-anchor="middle" x="829.8374" y="-486.6265" font-family="Times,serif" font-size="14.00" fill="#000000">oa:describing</text>
</g>
<!-- Rhttp://localhost:8080/rdf/nc/annotation/87512277&#45;50cc&#45;4b2c&#45;b3cb&#45;475a36b6d93e&#45;&gt;Roa:describing -->
<g id="edge18" class="edge">
<title>Rhttp://localhost:8080/rdf/nc/annotation/87512277&#45;50cc&#45;4b2c&#45;b3cb&#45;475a36b6d93e&#45;&gt;Roa:describing</title>
<path fill="none" stroke="#000000" d="M318.3921,-787.013C376.9538,-736.2213 550.433,-592.3874 719.3472,-517.3265 734.814,-510.4535 752.3095,-505.1562 768.7416,-501.1498"/>
<polygon fill="#000000" stroke="#000000" points="769.8547,-504.4848 778.8077,-498.8196 768.276,-497.6651 769.8547,-504.4848"/>
<text text-anchor="middle" x="657.3472" y="-572.1265" font-family="Times,serif" font-size="14.00" fill="#000000">oa:motivatedBy</text>
</g>
<!-- Rfoaf:Person -->
<g id="node20" class="node">
<title>Rfoaf:Person</title>
<ellipse fill="none" stroke="#0000ff" cx="1255.9614" cy="-955.3265" rx="51.1914" ry="18"/>
<text text-anchor="middle" x="1255.9614" y="-951.6265" font-family="Times,serif" font-size="14.00" fill="#000000">foaf:Person</text>
</g>
<!-- Rorcid:0000&#45;0002&#45;2146&#45;4803&#45;&gt;Rfoaf:Person -->
<g id="edge19" class="edge">
<title>Rorcid:0000&#45;0002&#45;2146&#45;4803&#45;&gt;Rfoaf:Person</title>
<path fill="none" stroke="#000000" d="M893.3799,-899.1102C914.0322,-903.6638 937.0972,-908.4847 958.3276,-912.3265 1040.8882,-927.2665 1137.0818,-940.3943 1197.258,-948.0977"/>
<polygon fill="#000000" stroke="#000000" points="1196.9687,-951.589 1207.3305,-949.3795 1197.8524,-944.645 1196.9687,-951.589"/>
<text text-anchor="middle" x="1006.8276" y="-930.1265" font-family="Times,serif" font-size="14.00" fill="#000000">rdf:type</text>
</g>
<!-- Rdwc:Event -->
<g id="node6" class="node">
<title>Rdwc:Event</title>
<ellipse fill="none" stroke="#0000ff" cx="1255.9614" cy="-901.3265" rx="48.1917" ry="18"/>
<text text-anchor="middle" x="1255.9614" y="-897.6265" font-family="Times,serif" font-size="14.00" fill="#000000">dwc:Event</text>
</g>
<!-- B_:node1evfck18lx51&#45;&gt;Rdwc:Event -->
<g id="edge5" class="edge">
<title>B_:node1evfck18lx51&#45;&gt;Rdwc:Event</title>
<path fill="none" stroke="#000000" d="M848.1145,-764.2059C872.0343,-765.0067 913.9988,-769.831 940.3276,-792.3265 955.7679,-805.5189 943.4723,-820.4785 958.3276,-834.3265 997.9108,-871.2259 1020.7737,-861.4236 1073.3276,-874.3265 1114.8322,-884.5166 1162.6474,-891.4164 1198.9397,-895.6889"/>
<polygon fill="#000000" stroke="#000000" points="1199.0002,-899.2186 1209.3332,-896.878 1199.7959,-892.264 1199.0002,-899.2186"/>
<text text-anchor="middle" x="1006.8276" y="-873.1265" font-family="Times,serif" font-size="14.00" fill="#000000">rdf:type</text>
</g>
<!-- Roa:TextualBody -->
<g id="node7" class="node">
<title>Roa:TextualBody</title>
<ellipse fill="none" stroke="#0000ff" cx="1255.9614" cy="-847.3265" rx="67.6881" ry="18"/>
<text text-anchor="middle" x="1255.9614" y="-843.6265" font-family="Times,serif" font-size="14.00" fill="#000000">oa:TextualBody</text>
</g>
<!-- B_:node1evfck18lx51&#45;&gt;Roa:TextualBody -->
<g id="edge6" class="edge">
<title>B_:node1evfck18lx51&#45;&gt;Roa:TextualBody</title>
<path fill="none" stroke="#000000" d="M847.4747,-768.6647C869.3106,-774.0659 907.6225,-783.6413 940.3276,-792.3265 948.3523,-794.4576 950.2513,-795.3999 958.3276,-797.3265 1034.8122,-815.5717 1123.9032,-829.6079 1184.5378,-838.1"/>
<polygon fill="#000000" stroke="#000000" points="1184.3817,-841.6117 1194.7676,-839.5179 1185.3428,-834.678 1184.3817,-841.6117"/>
<text text-anchor="middle" x="1006.8276" y="-819.1265" font-family="Times,serif" font-size="14.00" fill="#000000">rdf:type</text>
</g>
<!-- Ltext/plain -->
<g id="node8" class="node">
<title>Ltext/plain</title>
<polygon fill="none" stroke="#000000" points="1221.9614,-774.3265 1221.9614,-810.3265 1289.9614,-810.3265 1289.9614,-774.3265 1221.9614,-774.3265"/>
<text text-anchor="middle" x="1255.9614" y="-788.6265" font-family="Times,serif" font-size="14.00" fill="#000000">text/plain</text>
</g>
<!-- B_:node1evfck18lx51&#45;&gt;Ltext/plain -->
<g id="edge7" class="edge">
<title>B_:node1evfck18lx51&#45;&gt;Ltext/plain</title>
<path fill="none" stroke="#000000" d="M847.8752,-765.5118C910.4897,-769.6261 1119.6428,-783.3692 1211.7597,-789.4221"/>
<polygon fill="#000000" stroke="#000000" points="1211.6655,-792.9234 1221.8735,-790.0867 1212.1246,-785.9384 1211.6655,-792.9234"/>
<text text-anchor="middle" x="1006.8276" y="-782.1265" font-family="Times,serif" font-size="14.00" fill="#000000">dcterms:format</text>
</g>
<!-- Riso:ger -->
<g id="node9" class="node">
<title>Riso:ger</title>
<ellipse fill="none" stroke="#0000ff" cx="1255.9614" cy="-737.3265" rx="34.394" ry="18"/>
<text text-anchor="middle" x="1255.9614" y="-733.6265" font-family="Times,serif" font-size="14.00" fill="#000000">iso:ger</text>
</g>
<!-- B_:node1evfck18lx51&#45;&gt;Riso:ger -->
<g id="edge8" class="edge">
<title>B_:node1evfck18lx51&#45;&gt;Riso:ger</title>
<path fill="none" stroke="#000000" d="M848.1326,-762.99C873.0499,-761.1823 919.054,-757.8895 958.3276,-755.3265 1048.0504,-749.4713 1153.033,-743.2754 1211.2667,-739.8964"/>
<polygon fill="#000000" stroke="#000000" points="1211.8011,-743.3715 1221.582,-739.299 1211.3963,-736.3832 1211.8011,-743.3715"/>
<text text-anchor="middle" x="1006.8276" y="-759.1265" font-family="Times,serif" font-size="14.00" fill="#000000">dcterms:language</text>
</g>
<!-- L10 April 1821|Language: ger -->
<g id="node10" class="node">
<title>L10 April 1821|Language: ger</title>
<polygon fill="none" stroke="#000000" points="1840.0952,-766.3265 1840.0952,-812.3265 1935.0952,-812.3265 1935.0952,-766.3265 1840.0952,-766.3265"/>
<text text-anchor="middle" x="1887.5952" y="-797.1265" font-family="Times,serif" font-size="14.00" fill="#000000">10 April 1821</text>
<polyline fill="none" stroke="#000000" points="1840.0952,-789.3265 1935.0952,-789.3265 "/>
<text text-anchor="middle" x="1887.5952" y="-774.1265" font-family="Times,serif" font-size="14.00" fill="#000000">Language: ger</text>
</g>
<!-- B_:node1evfck18lx51&#45;&gt;L10 April 1821|Language: ger -->
<g id="edge9" class="edge">
<title>B_:node1evfck18lx51&#45;&gt;L10 April 1821|Language: ger</title>
<path fill="none" stroke="#000000" d="M846.9047,-757.7131C886.1354,-742.9087 986.0719,-707.451 1073.3276,-695.3265 1234.1238,-672.9833 1277.1175,-678.6048 1438.5952,-695.3265 1581.2809,-710.1023 1745.4537,-750.6193 1830.243,-773.3406"/>
<polygon fill="#000000" stroke="#000000" points="1829.3685,-776.7297 1839.9349,-775.953 1831.1904,-769.9709 1829.3685,-776.7297"/>
<text text-anchor="middle" x="1255.9614" y="-699.1265" font-family="Times,serif" font-size="14.00" fill="#000000">rdf:value</text>
</g>
<!-- Rdwc:Event&#45;&gt;L10 April 1821|Language: ger -->
<g id="edge26" class="edge">
<title>Rdwc:Event&#45;&gt;L10 April 1821|Language: ger</title>
<path fill="none" stroke="#000000" d="M1301.4496,-895.1209C1338.4483,-889.9486 1391.9758,-882.182 1438.5952,-874.3265 1579.5521,-850.5749 1744.5073,-818.1518 1829.8571,-801.0288"/>
<polygon fill="#000000" stroke="#000000" points="1830.7495,-804.4195 1839.864,-799.018 1829.3705,-797.5567 1830.7495,-804.4195"/>
<text text-anchor="middle" x="1523.0952" y="-873.1265" font-family="Times,serif" font-size="14.00" fill="#000000">dwc:verbatimEventDate</text>
</g>
<!-- L1821&#45;04&#45;10|Datatype: dcterms:W3CDTF -->
<g id="node26" class="node">
<title>L1821&#45;04&#45;10|Datatype: dcterms:W3CDTF</title>
<polygon fill="none" stroke="#000000" points="1800.0952,-878.3265 1800.0952,-924.3265 1975.0952,-924.3265 1975.0952,-878.3265 1800.0952,-878.3265"/>
<text text-anchor="middle" x="1887.5952" y="-909.1265" font-family="Times,serif" font-size="14.00" fill="#000000">1821&#45;04&#45;10</text>
<polyline fill="none" stroke="#000000" points="1800.0952,-901.3265 1975.0952,-901.3265 "/>
<text text-anchor="middle" x="1887.5952" y="-886.1265" font-family="Times,serif" font-size="14.00" fill="#000000">Datatype: dcterms:W3CDTF</text>
</g>
<!-- Rdwc:Event&#45;&gt;L1821&#45;04&#45;10|Datatype: dcterms:W3CDTF -->
<g id="edge25" class="edge">
<title>Rdwc:Event&#45;&gt;L1821&#45;04&#45;10|Datatype: dcterms:W3CDTF</title>
<path fill="none" stroke="#000000" d="M1304.2151,-901.3265C1407.6797,-901.3265 1652.5931,-901.3265 1789.9188,-901.3265"/>
<polygon fill="#000000" stroke="#000000" points="1790.0225,-904.8266 1800.0225,-901.3265 1790.0224,-897.8266 1790.0225,-904.8266"/>
<text text-anchor="middle" x="1523.0952" y="-905.1265" font-family="Times,serif" font-size="14.00" fill="#000000">dwc:eventDate</text>
</g>
<!-- Roa:Target -->
<g id="node12" class="node">
<title>Roa:Target</title>
<ellipse fill="none" stroke="#0000ff" cx="1255.9614" cy="-437.3265" rx="44.393" ry="18"/>
<text text-anchor="middle" x="1255.9614" y="-433.6265" font-family="Times,serif" font-size="14.00" fill="#000000">oa:Target</text>
</g>
<!-- B_:node1evfck18lx50&#45;&gt;Roa:Target -->
<g id="edge11" class="edge">
<title>B_:node1evfck18lx50&#45;&gt;Roa:Target</title>
<path fill="none" stroke="#000000" d="M848.1579,-542.893C871.0254,-540.445 910.7274,-533.9822 940.3276,-517.3265 950.1875,-511.7784 948.6261,-505.1474 958.3276,-499.3265 1004.1399,-471.8391 1021.2024,-476.0433 1073.3276,-464.3265 1116.4897,-454.6244 1166.199,-447.5356 1202.849,-443.0625"/>
<polygon fill="#000000" stroke="#000000" points="1203.3097,-446.5324 1212.8236,-441.8702 1202.4788,-439.5819 1203.3097,-446.5324"/>
<text text-anchor="middle" x="1006.8276" y="-503.1265" font-family="Times,serif" font-size="14.00" fill="#000000">rdf:type</text>
</g>
<!-- Limage/jpeg -->
<g id="node13" class="node">
<title>Limage/jpeg</title>
<polygon fill="none" stroke="#000000" points="1217.4614,-364.3265 1217.4614,-400.3265 1294.4614,-400.3265 1294.4614,-364.3265 1217.4614,-364.3265"/>
<text text-anchor="middle" x="1255.9614" y="-378.6265" font-family="Times,serif" font-size="14.00" fill="#000000">image/jpeg</text>
</g>
<!-- B_:node1evfck18lx50&#45;&gt;Limage/jpeg -->
<g id="edge12" class="edge">
<title>B_:node1evfck18lx50&#45;&gt;Limage/jpeg</title>
<path fill="none" stroke="#000000" d="M848.1825,-545.1815C872.5703,-545.2716 915.4741,-541.6199 940.3276,-517.3265 962.3773,-495.7737 937.3268,-472.9027 958.3276,-450.3265 1022.3223,-381.5308 1140.4016,-375.4051 1206.9796,-378.1444"/>
<polygon fill="#000000" stroke="#000000" points="1207.0453,-381.6518 1217.2066,-378.6519 1207.3924,-374.6604 1207.0453,-381.6518"/>
<text text-anchor="middle" x="1006.8276" y="-454.1265" font-family="Times,serif" font-size="14.00" fill="#000000">dcterms:format</text>
</g>
<!-- B_:node1evfck18lx53 -->
<g id="node14" class="node">
<title>B_:node1evfck18lx53</title>
<ellipse fill="none" stroke="#00ff00" cx="1255.9614" cy="-596.3265" rx="18" ry="18"/>
</g>
<!-- B_:node1evfck18lx50&#45;&gt;B_:node1evfck18lx53 -->
<g id="edge13" class="edge">
<title>B_:node1evfck18lx50&#45;&gt;B_:node1evfck18lx53</title>
<path fill="none" stroke="#000000" d="M847.8752,-546.5277C914.4294,-554.6493 1146.5427,-582.9741 1227.692,-592.8768"/>
<polygon fill="#000000" stroke="#000000" points="1227.3303,-596.3585 1237.6807,-594.0957 1228.1783,-589.4101 1227.3303,-596.3585"/>
<text text-anchor="middle" x="1006.8276" y="-574.1265" font-family="Times,serif" font-size="14.00" fill="#000000">oa:hasSelector</text>
</g>
<!-- Rimg:MMNAT01_AF_NNM001001033_004.jpg -->
<g id="node18" class="node">
<title>Rimg:MMNAT01_AF_NNM001001033_004.jpg</title>
<ellipse fill="none" stroke="#0000ff" cx="1255.9614" cy="-491.3265" rx="182.7677" ry="18"/>
<text text-anchor="middle" x="1255.9614" y="-487.6265" font-family="Times,serif" font-size="14.00" fill="#000000">img:MMNAT01_AF_NNM001001033_004.jpg</text>
</g>
<!-- B_:node1evfck18lx50&#45;&gt;Rimg:MMNAT01_AF_NNM001001033_004.jpg -->
<g id="edge17" class="edge">
<title>B_:node1evfck18lx50&#45;&gt;Rimg:MMNAT01_AF_NNM001001033_004.jpg</title>
<path fill="none" stroke="#000000" d="M847.8752,-542.083C896.0132,-536.0958 1030.7633,-519.336 1132.3567,-506.7001"/>
<polygon fill="#000000" stroke="#000000" points="1132.8996,-510.1596 1142.3911,-505.452 1132.0355,-503.2131 1132.8996,-510.1596"/>
<text text-anchor="middle" x="1006.8276" y="-531.1265" font-family="Times,serif" font-size="14.00" fill="#000000">oa:hasSource</text>
</g>
<!-- Roa:FragmentSelector -->
<g id="node15" class="node">
<title>Roa:FragmentSelector</title>
<ellipse fill="none" stroke="#0000ff" cx="1887.5952" cy="-572.3265" rx="84.485" ry="18"/>
<text text-anchor="middle" x="1887.5952" y="-568.6265" font-family="Times,serif" font-size="14.00" fill="#000000">oa:FragmentSelector</text>
</g>
<!-- B_:node1evfck18lx53&#45;&gt;Roa:FragmentSelector -->
<g id="edge14" class="edge">
<title>B_:node1evfck18lx53&#45;&gt;Roa:FragmentSelector</title>
<path fill="none" stroke="#000000" d="M1273.9263,-594.6578C1309.0038,-591.4717 1389.0837,-584.5527 1456.5952,-581.3265 1572.1908,-575.8025 1705.3868,-573.6681 1792.7482,-572.844"/>
<polygon fill="#000000" stroke="#000000" points="1792.9377,-576.3425 1802.9056,-572.7521 1792.8744,-569.3428 1792.9377,-576.3425"/>
<text text-anchor="middle" x="1523.0952" y="-585.1265" font-family="Times,serif" font-size="14.00" fill="#000000">rdf:type</text>
</g>
<!-- Rmf: -->
<g id="node16" class="node">
<title>Rmf:</title>
<ellipse fill="none" stroke="#0000ff" cx="1887.5952" cy="-682.3265" rx="27" ry="18"/>
<text text-anchor="middle" x="1887.5952" y="-678.6265" font-family="Times,serif" font-size="14.00" fill="#000000">mf:</text>
</g>
<!-- B_:node1evfck18lx53&#45;&gt;Rmf: -->
<g id="edge15" class="edge">
<title>B_:node1evfck18lx53&#45;&gt;Rmf:</title>
<path fill="none" stroke="#000000" d="M1273.9242,-599.5939C1308.9981,-605.9441 1389.0719,-620.2957 1456.5952,-631.3265 1523.5922,-642.2714 1540.2432,-645.8352 1607.5952,-654.3265 1694.3865,-665.2687 1796.7527,-674.6025 1850.4432,-679.2245"/>
<polygon fill="#000000" stroke="#000000" points="1850.2515,-682.7208 1860.5133,-680.0852 1850.8477,-675.7462 1850.2515,-682.7208"/>
<text text-anchor="middle" x="1523.0952" y="-656.1265" font-family="Times,serif" font-size="14.00" fill="#000000">dcterms:conformsTo</text>
</g>
<!-- Lxywh=0.672574339819018,0.030544471154748218,0.06203976435935199,0.01601620029455081 -->
<g id="node17" class="node">
<title>Lxywh=0.672574339819018,0.030544471154748218,0.06203976435935199,0.01601620029455081</title>
<polygon fill="none" stroke="#000000" points="1607.5952,-609.3265 1607.5952,-645.3265 2167.5952,-645.3265 2167.5952,-609.3265 1607.5952,-609.3265"/>
<text text-anchor="middle" x="1887.5952" y="-623.6265" font-family="Times,serif" font-size="14.00" fill="#000000">xywh=0.672574339819018,0.030544471154748218,0.06203976435935199,0.01601620029455081</text>
</g>
<!-- B_:node1evfck18lx53&#45;&gt;Lxywh=0.672574339819018,0.030544471154748218,0.06203976435935199,0.01601620029455081 -->
<g id="edge16" class="edge">
<title>B_:node1evfck18lx53&#45;&gt;Lxywh=0.672574339819018,0.030544471154748218,0.06203976435935199,0.01601620029455081</title>
<path fill="none" stroke="#000000" d="M1274.1837,-597.2209C1323.221,-599.6276 1463.3493,-606.5049 1597.3106,-613.0796"/>
<polygon fill="#000000" stroke="#000000" points="1597.195,-616.5781 1607.3546,-613.5726 1597.5382,-609.5865 1597.195,-616.5781"/>
<text text-anchor="middle" x="1523.0952" y="-616.1265" font-family="Times,serif" font-size="14.00" fill="#000000">rdf:value</text>
</g>
<!-- Rdcmitype:StillImage -->
<g id="node21" class="node">
<title>Rdcmitype:StillImage</title>
<ellipse fill="none" stroke="#0000ff" cx="1887.5952" cy="-464.3265" rx="83.3857" ry="18"/>
<text text-anchor="middle" x="1887.5952" y="-460.6265" font-family="Times,serif" font-size="14.00" fill="#000000">dcmitype:StillImage</text>
</g>
<!-- Rimg:MMNAT01_AF_NNM001001033_004.jpg&#45;&gt;Rdcmitype:StillImage -->
<g id="edge20" class="edge">
<title>Rimg:MMNAT01_AF_NNM001001033_004.jpg&#45;&gt;Rdcmitype:StillImage</title>
<path fill="none" stroke="#000000" d="M1418.5627,-483.079C1431.4303,-482.47 1444.2267,-481.8787 1456.5952,-481.3265 1573.3516,-476.1143 1707.9382,-470.9389 1795.2193,-467.6927"/>
<polygon fill="#000000" stroke="#000000" points="1795.497,-471.1849 1805.3602,-467.3163 1795.2372,-464.1897 1795.497,-471.1849"/>
<text text-anchor="middle" x="1523.0952" y="-485.1265" font-family="Times,serif" font-size="14.00" fill="#000000">rdf:type</text>
</g>
<!-- Rdsw:Token -->
<g id="node22" class="node">
<title>Rdsw:Token</title>
<ellipse fill="none" stroke="#0000ff" cx="1887.5952" cy="-410.3265" rx="50.0912" ry="18"/>
<text text-anchor="middle" x="1887.5952" y="-406.6265" font-family="Times,serif" font-size="14.00" fill="#000000">dsw:Token</text>
</g>
<!-- Rimg:MMNAT01_AF_NNM001001033_004.jpg&#45;&gt;Rdsw:Token -->
<g id="edge21" class="edge">
<title>Rimg:MMNAT01_AF_NNM001001033_004.jpg&#45;&gt;Rdsw:Token</title>
<path fill="none" stroke="#000000" d="M1375.1312,-477.6512C1396.4351,-474.0913 1418.3005,-469.7 1438.5952,-464.3265 1446.8929,-462.1295 1448.2811,-459.4608 1456.5952,-457.3265 1585.8959,-424.1332 1742.9001,-414.3738 1827.1648,-411.5102"/>
<polygon fill="#000000" stroke="#000000" points="1827.4382,-415.0034 1837.3217,-411.1867 1827.2153,-408.0069 1827.4382,-415.0034"/>
<text text-anchor="middle" x="1523.0952" y="-461.1265" font-family="Times,serif" font-size="14.00" fill="#000000">rdf:type</text>
</g>
<!-- Rdwc:HumanObservation -->
<g id="node23" class="node">
<title>Rdwc:HumanObservation</title>
<ellipse fill="none" stroke="#0000ff" cx="1887.5952" cy="-356.3265" rx="96.6831" ry="18"/>
<text text-anchor="middle" x="1887.5952" y="-352.6265" font-family="Times,serif" font-size="14.00" fill="#000000">dwc:HumanObservation</text>
</g>
<!-- Rimg:MMNAT01_AF_NNM001001033_004.jpg&#45;&gt;Rdwc:HumanObservation -->
<g id="edge22" class="edge">
<title>Rimg:MMNAT01_AF_NNM001001033_004.jpg&#45;&gt;Rdwc:HumanObservation</title>
<path fill="none" stroke="#000000" d="M1410.3709,-481.4572C1420.5097,-476.9845 1430.0607,-471.3579 1438.5952,-464.3265 1457.1468,-449.042 1438.4263,-429.064 1456.5952,-413.3265 1553.3383,-329.5296 1711.023,-331.7356 1806.4686,-342.7765"/>
<polygon fill="#000000" stroke="#000000" points="1806.2986,-346.2815 1816.6481,-344.0149 1807.144,-339.3328 1806.2986,-346.2815"/>
<text text-anchor="middle" x="1523.0952" y="-417.1265" font-family="Times,serif" font-size="14.00" fill="#000000">rdf:type</text>
</g>
<!-- Roa:Source -->
<g id="node24" class="node">
<title>Roa:Source</title>
<ellipse fill="none" stroke="#0000ff" cx="1887.5952" cy="-302.3265" rx="46.2923" ry="18"/>
<text text-anchor="middle" x="1887.5952" y="-298.6265" font-family="Times,serif" font-size="14.00" fill="#000000">oa:Source</text>
</g>
<!-- Rimg:MMNAT01_AF_NNM001001033_004.jpg&#45;&gt;Roa:Source -->
<g id="edge23" class="edge">
<title>Rimg:MMNAT01_AF_NNM001001033_004.jpg&#45;&gt;Roa:Source</title>
<path fill="none" stroke="#000000" d="M1414.1662,-482.2211C1423.108,-477.4985 1431.376,-471.6123 1438.5952,-464.3265 1479.6501,-422.8927 1414.0623,-374.2417 1456.5952,-334.3265 1561.96,-235.4462 1752.7014,-267.2244 1840.7437,-289.0389"/>
<polygon fill="#000000" stroke="#000000" points="1839.9005,-292.4357 1850.4546,-291.5086 1841.6258,-285.6517 1839.9005,-292.4357"/>
<text text-anchor="middle" x="1523.0952" y="-338.1265" font-family="Times,serif" font-size="14.00" fill="#000000">rdf:type</text>
</g>
<!-- Rfoaf:Image -->
<g id="node25" class="node">
<title>Rfoaf:Image</title>
<ellipse fill="none" stroke="#0000ff" cx="1887.5952" cy="-518.3265" rx="50.0912" ry="18"/>
<text text-anchor="middle" x="1887.5952" y="-514.6265" font-family="Times,serif" font-size="14.00" fill="#000000">foaf:Image</text>
</g>
<!-- Rimg:MMNAT01_AF_NNM001001033_004.jpg&#45;&gt;Rfoaf:Image -->
<g id="edge24" class="edge">
<title>Rimg:MMNAT01_AF_NNM001001033_004.jpg&#45;&gt;Rfoaf:Image</title>
<path fill="none" stroke="#000000" d="M1423.5693,-498.4911C1556.7692,-504.1849 1735.4583,-511.8232 1827.3844,-515.7527"/>
<polygon fill="#000000" stroke="#000000" points="1827.4782,-519.2598 1837.6186,-516.1902 1827.7772,-512.2662 1827.4782,-519.2598"/>
<text text-anchor="middle" x="1523.0952" y="-509.1265" font-family="Times,serif" font-size="14.00" fill="#000000">rdf:type</text>
</g>
</g>
</svg>
