<?xml version="1.0" encoding="UTF-8" standalone="no"?>
<!DOCTYPE svg PUBLIC "-//W3C//DTD SVG 1.1//EN"
 "http://www.w3.org/Graphics/SVG/1.1/DTD/svg11.dtd">
<!-- Generated by graphviz version 2.40.1 (20161225.0304)
 -->
<!-- Title: %3 Pages: 1 -->
<svg width="2188pt" height="1133pt"
 viewBox="0.00 0.00 2188.40 1133.00" xmlns="http://www.w3.org/2000/svg" xmlns:xlink="http://www.w3.org/1999/xlink">
<g id="graph0" class="graph" transform="scale(1 1) rotate(0) translate(4 1129)">
<title>%3</title>
<polygon fill="#ffffff" stroke="transparent" points="-4,4 -4,-1129 2184.3956,-1129 2184.3956,4 -4,4"/>
<text text-anchor="middle" x="1090.1978" y="-218.8" font-family="Times,serif" font-size="14.00" fill="#000000">Model:</text>
<text text-anchor="middle" x="1090.1978" y="-203.8" font-family="Times,serif" font-size="14.00" fill="#000000">(Unknown)</text>
<text text-anchor="middle" x="1090.1978" y="-172.8" font-family="Times,serif" font-size="14.00" fill="#000000">Namespaces:</text>
<text text-anchor="middle" x="1090.1978" y="-157.8" font-family="Times,serif" font-size="14.00" fill="#000000">dcmitype: http://purl.org/dc/dcmitype/</text>
<text text-anchor="middle" x="1090.1978" y="-142.8" font-family="Times,serif" font-size="14.00" fill="#000000">dcterms: http://purl.org/dc/terms/</text>
<text text-anchor="middle" x="1090.1978" y="-127.8" font-family="Times,serif" font-size="14.00" fill="#000000">dsw: http://purl.org/dsw/</text>
<text text-anchor="middle" x="1090.1978" y="-112.8" font-family="Times,serif" font-size="14.00" fill="#000000">dwc: http://rs.tdwg.org/dwc/terms/</text>
<text text-anchor="middle" x="1090.1978" y="-97.8" font-family="Times,serif" font-size="14.00" fill="#000000">foaf: http://xmlns.com/foaf/0.1/</text>
<text text-anchor="middle" x="1090.1978" y="-82.8" font-family="Times,serif" font-size="14.00" fill="#000000">img: http://localhost:8080/semanticAnnotator/files/</text>
<text text-anchor="middle" x="1090.1978" y="-67.8" font-family="Times,serif" font-size="14.00" fill="#000000">iso: http://iso639&#45;3.sil.org/code/</text>
<text text-anchor="middle" x="1090.1978" y="-52.8" font-family="Times,serif" font-size="14.00" fill="#000000">mf: http://www.w3.org/TR/media&#45;frags/</text>
<text text-anchor="middle" x="1090.1978" y="-37.8" font-family="Times,serif" font-size="14.00" fill="#000000">oa: http://www.w3.org/ns/oa#</text>
<text text-anchor="middle" x="1090.1978" y="-22.8" font-family="Times,serif" font-size="14.00" fill="#000000">orcid: http://orcid.org/</text>
<text text-anchor="middle" x="1090.1978" y="-7.8" font-family="Times,serif" font-size="14.00" fill="#000000">rdf: http://www.w3.org/1999/02/22&#45;rdf&#45;syntax&#45;ns#</text>
<!-- Rhttp://localhost:8080/rdf/nc/annotation/a5c34448&#45;4ba1&#45;44e9&#45;8fda&#45;f40c466d5430 -->
<g id="node1" class="node">
<title>Rhttp://localhost:8080/rdf/nc/annotation/a5c34448&#45;4ba1&#45;44e9&#45;8fda&#45;f40c466d5430</title>
<ellipse fill="none" stroke="#0000ff" cx="295.0738" cy="-893" rx="295.1477" ry="18"/>
<text text-anchor="middle" x="295.0738" y="-889.3" font-family="Times,serif" font-size="14.00" fill="#000000">http://localhost:8080/rdf/nc/annotation/a5c34448&#45;4ba1&#45;44e9&#45;8fda&#45;f40c466d5430</text>
</g>
<!-- Roa:Annotation -->
<g id="node2" class="node">
<title>Roa:Annotation</title>
<ellipse fill="none" stroke="#0000ff" cx="824.6378" cy="-1026" rx="61.1893" ry="18"/>
<text text-anchor="middle" x="824.6378" y="-1022.3" font-family="Times,serif" font-size="14.00" fill="#000000">oa:Annotation</text>
</g>
<!-- Rhttp://localhost:8080/rdf/nc/annotation/a5c34448&#45;4ba1&#45;44e9&#45;8fda&#45;f40c466d5430&#45;&gt;Roa:Annotation -->
<g id="edge1" class="edge">
<title>Rhttp://localhost:8080/rdf/nc/annotation/a5c34448&#45;4ba1&#45;44e9&#45;8fda&#45;f40c466d5430&#45;&gt;Roa:Annotation</title>
<path fill="none" stroke="#000000" d="M363.6292,-910.521C446.5839,-931.6802 590.5194,-968.2601 714.1476,-999 731.4485,-1003.3018 750.2883,-1007.9274 767.4299,-1012.1135"/>
<polygon fill="#000000" stroke="#000000" points="766.7573,-1015.552 777.3019,-1014.5216 768.4163,-1008.7514 766.7573,-1015.552"/>
<text text-anchor="middle" x="652.1476" y="-996.8" font-family="Times,serif" font-size="14.00" fill="#000000">rdf:type</text>
</g>
<!-- Rorcid:0000&#45;0002&#45;2146&#45;4803 -->
<g id="node3" class="node">
<title>Rorcid:0000&#45;0002&#45;2146&#45;4803</title>
<ellipse fill="none" stroke="#0000ff" cx="824.6378" cy="-972" rx="110.4804" ry="18"/>
<text text-anchor="middle" x="824.6378" y="-968.3" font-family="Times,serif" font-size="14.00" fill="#000000">orcid:0000&#45;0002&#45;2146&#45;4803</text>
</g>
<!-- Rhttp://localhost:8080/rdf/nc/annotation/a5c34448&#45;4ba1&#45;44e9&#45;8fda&#45;f40c466d5430&#45;&gt;Rorcid:0000&#45;0002&#45;2146&#45;4803 -->
<g id="edge2" class="edge">
<title>Rhttp://localhost:8080/rdf/nc/annotation/a5c34448&#45;4ba1&#45;44e9&#45;8fda&#45;f40c466d5430&#45;&gt;Rorcid:0000&#45;0002&#45;2146&#45;4803</title>
<path fill="none" stroke="#000000" d="M407.057,-909.7056C504.0424,-924.1738 642.6076,-944.8449 733.0838,-958.342"/>
<polygon fill="#000000" stroke="#000000" points="732.6445,-961.8151 743.0515,-959.829 733.6774,-954.8918 732.6445,-961.8151"/>
<text text-anchor="middle" x="652.1476" y="-953.8" font-family="Times,serif" font-size="14.00" fill="#000000">dcterms:creator</text>
</g>
<!-- L2021&#45;01&#45;12T14:23:11.646Z|Datatype: dcterms:W3CDTF -->
<g id="node4" class="node">
<title>L2021&#45;01&#45;12T14:23:11.646Z|Datatype: dcterms:W3CDTF</title>
<polygon fill="none" stroke="#000000" points="737.1378,-889 737.1378,-935 912.1378,-935 912.1378,-889 737.1378,-889"/>
<text text-anchor="middle" x="824.6378" y="-919.8" font-family="Times,serif" font-size="14.00" fill="#000000">2021&#45;01&#45;12T14:23:11.646Z</text>
<polyline fill="none" stroke="#000000" points="737.1378,-912 912.1378,-912 "/>
<text text-anchor="middle" x="824.6378" y="-896.8" font-family="Times,serif" font-size="14.00" fill="#000000">Datatype: dcterms:W3CDTF</text>
</g>
<!-- Rhttp://localhost:8080/rdf/nc/annotation/a5c34448&#45;4ba1&#45;44e9&#45;8fda&#45;f40c466d5430&#45;&gt;L2021&#45;01&#45;12T14:23:11.646Z|Datatype: dcterms:W3CDTF -->
<g id="edge3" class="edge">
<title>Rhttp://localhost:8080/rdf/nc/annotation/a5c34448&#45;4ba1&#45;44e9&#45;8fda&#45;f40c466d5430&#45;&gt;L2021&#45;01&#45;12T14:23:11.646Z|Datatype: dcterms:W3CDTF</title>
<path fill="none" stroke="#000000" d="M549.7735,-902.1383C612.7382,-904.3973 676.4642,-906.6837 726.6819,-908.4855"/>
<polygon fill="#000000" stroke="#000000" points="726.7448,-911.9899 736.8639,-908.8508 726.9958,-904.9944 726.7448,-911.9899"/>
<text text-anchor="middle" x="652.1476" y="-909.8" font-family="Times,serif" font-size="14.00" fill="#000000">dcterms:date</text>
</g>
<!-- B_:node1f0go8rutx38 -->
<g id="node5" class="node">
<title>B_:node1f0go8rutx38</title>
<ellipse fill="none" stroke="#00ff00" cx="824.6378" cy="-852" rx="18" ry="18"/>
</g>
<!-- Rhttp://localhost:8080/rdf/nc/annotation/a5c34448&#45;4ba1&#45;44e9&#45;8fda&#45;f40c466d5430&#45;&gt;B_:node1f0go8rutx38 -->
<g id="edge4" class="edge">
<title>Rhttp://localhost:8080/rdf/nc/annotation/a5c34448&#45;4ba1&#45;44e9&#45;8fda&#45;f40c466d5430&#45;&gt;B_:node1f0go8rutx38</title>
<path fill="none" stroke="#000000" d="M478.0612,-878.8327C595.7048,-869.7245 737.2365,-858.7668 796.4449,-854.1828"/>
<polygon fill="#000000" stroke="#000000" points="796.8181,-857.6644 806.518,-853.4029 796.2776,-850.6853 796.8181,-857.6644"/>
<text text-anchor="middle" x="652.1476" y="-870.8" font-family="Times,serif" font-size="14.00" fill="#000000">oa:hasBody</text>
</g>
<!-- B_:node1f0go8rutx37 -->
<g id="node12" class="node">
<title>B_:node1f0go8rutx37</title>
<ellipse fill="none" stroke="#00ff00" cx="824.6378" cy="-665" rx="18" ry="18"/>
</g>
<!-- Rhttp://localhost:8080/rdf/nc/annotation/a5c34448&#45;4ba1&#45;44e9&#45;8fda&#45;f40c466d5430&#45;&gt;B_:node1f0go8rutx37 -->
<g id="edge12" class="edge">
<title>Rhttp://localhost:8080/rdf/nc/annotation/a5c34448&#45;4ba1&#45;44e9&#45;8fda&#45;f40c466d5430&#45;&gt;B_:node1f0go8rutx37</title>
<path fill="none" stroke="#000000" d="M336.6278,-875.1092C441.2332,-830.0721 713.1718,-712.9909 798.5767,-676.2204"/>
<polygon fill="#000000" stroke="#000000" points="800.0212,-679.4092 807.822,-672.2399 797.2531,-672.9797 800.0212,-679.4092"/>
<text text-anchor="middle" x="652.1476" y="-754.8" font-family="Times,serif" font-size="14.00" fill="#000000">oa:hasTarget</text>
</g>
<!-- Roa:describing -->
<g id="node20" class="node">
<title>Roa:describing</title>
<ellipse fill="none" stroke="#0000ff" cx="824.6378" cy="-611" rx="57.6901" ry="18"/>
<text text-anchor="middle" x="824.6378" y="-607.3" font-family="Times,serif" font-size="14.00" fill="#000000">oa:describing</text>
</g>
<!-- Rhttp://localhost:8080/rdf/nc/annotation/a5c34448&#45;4ba1&#45;44e9&#45;8fda&#45;f40c466d5430&#45;&gt;Roa:describing -->
<g id="edge20" class="edge">
<title>Rhttp://localhost:8080/rdf/nc/annotation/a5c34448&#45;4ba1&#45;44e9&#45;8fda&#45;f40c466d5430&#45;&gt;Roa:describing</title>
<path fill="none" stroke="#000000" d="M318.6902,-874.9733C380.3222,-828.7706 552.4833,-705.0493 714.1476,-638 729.857,-631.4846 747.5018,-626.2972 764.0018,-622.2817"/>
<polygon fill="#000000" stroke="#000000" points="765.1536,-625.6072 774.0999,-619.9315 763.5668,-618.7894 765.1536,-625.6072"/>
<text text-anchor="middle" x="652.1476" y="-686.8" font-family="Times,serif" font-size="14.00" fill="#000000">oa:motivatedBy</text>
</g>
<!-- Rfoaf:Person -->
<g id="node21" class="node">
<title>Rfoaf:Person</title>
<ellipse fill="none" stroke="#0000ff" cx="1286.7618" cy="-1095" rx="51.1914" ry="18"/>
<text text-anchor="middle" x="1286.7618" y="-1091.3" font-family="Times,serif" font-size="14.00" fill="#000000">foaf:Person</text>
</g>
<!-- Rorcid:0000&#45;0002&#45;2146&#45;4803&#45;&gt;Rfoaf:Person -->
<g id="edge21" class="edge">
<title>Rorcid:0000&#45;0002&#45;2146&#45;4803&#45;&gt;Rfoaf:Person</title>
<path fill="none" stroke="#000000" d="M910.8002,-983.3118C919.757,-987.2108 928.1263,-992.3217 935.128,-999 955.5825,-1018.5097 931.403,-1041.9159 953.128,-1060 1031.9492,-1125.6112 1160.1911,-1117.5208 1232.5721,-1106.077"/>
<polygon fill="#000000" stroke="#000000" points="1233.5421,-1109.464 1242.8335,-1104.3726 1232.3951,-1102.5586 1233.5421,-1109.464"/>
<text text-anchor="middle" x="1019.628" y="-1113.8" font-family="Times,serif" font-size="14.00" fill="#000000">rdf:type</text>
</g>
<!-- Rdwc:Event -->
<g id="node6" class="node">
<title>Rdwc:Event</title>
<ellipse fill="none" stroke="#0000ff" cx="1286.7618" cy="-1041" rx="48.1917" ry="18"/>
<text text-anchor="middle" x="1286.7618" y="-1037.3" font-family="Times,serif" font-size="14.00" fill="#000000">dwc:Event</text>
</g>
<!-- B_:node1f0go8rutx38&#45;&gt;Rdwc:Event -->
<g id="edge5" class="edge">
<title>B_:node1f0go8rutx38&#45;&gt;Rdwc:Event</title>
<path fill="none" stroke="#000000" d="M842.8598,-851.0591C867.5108,-850.8562 911.1512,-854.467 935.128,-880 964.8442,-911.6448 923.3857,-944.3798 953.128,-976 989.989,-1015.1884 1143.5969,-1031.5275 1228.9441,-1037.6858"/>
<polygon fill="#000000" stroke="#000000" points="1228.7822,-1041.1829 1239.0015,-1038.3872 1229.2692,-1034.1999 1228.7822,-1041.1829"/>
<text text-anchor="middle" x="1019.628" y="-1024.8" font-family="Times,serif" font-size="14.00" fill="#000000">rdf:type</text>
</g>
<!-- Roa:TextualBody -->
<g id="node7" class="node">
<title>Roa:TextualBody</title>
<ellipse fill="none" stroke="#0000ff" cx="1286.7618" cy="-987" rx="67.6881" ry="18"/>
<text text-anchor="middle" x="1286.7618" y="-983.3" font-family="Times,serif" font-size="14.00" fill="#000000">oa:TextualBody</text>
</g>
<!-- B_:node1f0go8rutx38&#45;&gt;Roa:TextualBody -->
<g id="edge6" class="edge">
<title>B_:node1f0go8rutx38&#45;&gt;Roa:TextualBody</title>
<path fill="none" stroke="#000000" d="M842.9712,-851.814C866.9533,-852.5426 908.9866,-857.2871 935.128,-880 951.0775,-893.8576 937.0809,-910.2555 953.128,-924 1005.5271,-968.8802 1036.3829,-946.9426 1104.128,-960 1140.4936,-967.0092 1181.2381,-973.1916 1215,-977.8656"/>
<polygon fill="#000000" stroke="#000000" points="1214.8589,-981.3789 1225.2411,-979.267 1215.808,-974.4435 1214.8589,-981.3789"/>
<text text-anchor="middle" x="1019.628" y="-960.8" font-family="Times,serif" font-size="14.00" fill="#000000">rdf:type</text>
</g>
<!-- Ltext/plain -->
<g id="node8" class="node">
<title>Ltext/plain</title>
<polygon fill="none" stroke="#000000" points="1252.7618,-914 1252.7618,-950 1320.7618,-950 1320.7618,-914 1252.7618,-914"/>
<text text-anchor="middle" x="1286.7618" y="-928.3" font-family="Times,serif" font-size="14.00" fill="#000000">text/plain</text>
</g>
<!-- B_:node1f0go8rutx38&#45;&gt;Ltext/plain -->
<g id="edge7" class="edge">
<title>B_:node1f0go8rutx38&#45;&gt;Ltext/plain</title>
<path fill="none" stroke="#000000" d="M842.1751,-856.4726C874.74,-864.7623 942.243,-881.8672 953.128,-884 1055.9414,-904.1449 1178.1264,-919.5894 1242.3032,-927.0553"/>
<polygon fill="#000000" stroke="#000000" points="1242.1335,-930.5589 1252.4687,-928.2275 1242.9354,-923.605 1242.1335,-930.5589"/>
<text text-anchor="middle" x="1019.628" y="-908.8" font-family="Times,serif" font-size="14.00" fill="#000000">dcterms:format</text>
</g>
<!-- Riso:ger -->
<g id="node9" class="node">
<title>Riso:ger</title>
<ellipse fill="none" stroke="#0000ff" cx="1286.7618" cy="-877" rx="34.394" ry="18"/>
<text text-anchor="middle" x="1286.7618" y="-873.3" font-family="Times,serif" font-size="14.00" fill="#000000">iso:ger</text>
</g>
<!-- B_:node1f0go8rutx38&#45;&gt;Riso:ger -->
<g id="edge8" class="edge">
<title>B_:node1f0go8rutx38&#45;&gt;Riso:ger</title>
<path fill="none" stroke="#000000" d="M842.7536,-852.98C909.5721,-856.5948 1143.4368,-869.2464 1242.2039,-874.5895"/>
<polygon fill="#000000" stroke="#000000" points="1242.2731,-878.0983 1252.4476,-875.1437 1242.6513,-871.1085 1242.2731,-878.0983"/>
<text text-anchor="middle" x="1019.628" y="-868.8" font-family="Times,serif" font-size="14.00" fill="#000000">dcterms:language</text>
</g>
<!-- L1821&#45;04&#45;10|Datatype: dcterms:W3CDTF -->
<g id="node10" class="node">
<title>L1821&#45;04&#45;10|Datatype: dcterms:W3CDTF</title>
<polygon fill="none" stroke="#000000" points="1199.2618,-794 1199.2618,-840 1374.2618,-840 1374.2618,-794 1199.2618,-794"/>
<text text-anchor="middle" x="1286.7618" y="-824.8" font-family="Times,serif" font-size="14.00" fill="#000000">1821&#45;04&#45;10</text>
<polyline fill="none" stroke="#000000" points="1199.2618,-817 1374.2618,-817 "/>
<text text-anchor="middle" x="1286.7618" y="-801.8" font-family="Times,serif" font-size="14.00" fill="#000000">Datatype: dcterms:W3CDTF</text>
</g>
<!-- B_:node1f0go8rutx38&#45;&gt;L1821&#45;04&#45;10|Datatype: dcterms:W3CDTF -->
<g id="edge9" class="edge">
<title>B_:node1f0go8rutx38&#45;&gt;L1821&#45;04&#45;10|Datatype: dcterms:W3CDTF</title>
<path fill="none" stroke="#000000" d="M842.9246,-850.1512C867.8323,-847.6653 913.8255,-843.1895 953.128,-840 1032.5291,-833.5564 1122.6566,-827.4129 1189.204,-823.0989"/>
<polygon fill="#000000" stroke="#000000" points="1189.508,-826.5866 1199.2615,-822.4492 1189.0567,-819.6012 1189.508,-826.5866"/>
<text text-anchor="middle" x="1019.628" y="-843.8" font-family="Times,serif" font-size="14.00" fill="#000000">dwc:eventDate</text>
</g>
<!-- L10 April 1821|Language: ger -->
<g id="node11" class="node">
<title>L10 April 1821|Language: ger</title>
<polygon fill="none" stroke="#000000" points="1239.2618,-729 1239.2618,-775 1334.2618,-775 1334.2618,-729 1239.2618,-729"/>
<text text-anchor="middle" x="1286.7618" y="-759.8" font-family="Times,serif" font-size="14.00" fill="#000000">10 April 1821</text>
<polyline fill="none" stroke="#000000" points="1239.2618,-752 1334.2618,-752 "/>
<text text-anchor="middle" x="1286.7618" y="-736.8" font-family="Times,serif" font-size="14.00" fill="#000000">Language: ger</text>
</g>
<!-- B_:node1f0go8rutx38&#45;&gt;L10 April 1821|Language: ger -->
<g id="edge10" class="edge">
<title>B_:node1f0go8rutx38&#45;&gt;L10 April 1821|Language: ger</title>
<path fill="none" stroke="#000000" d="M841.8842,-845.682C866.3496,-836.9073 912.6626,-820.9864 953.128,-811 1048.866,-787.3729 1162.29,-769.3891 1229.1799,-759.7896"/>
<polygon fill="#000000" stroke="#000000" points="1229.6972,-763.2514 1239.1046,-758.3779 1228.7114,-756.3211 1229.6972,-763.2514"/>
<text text-anchor="middle" x="1019.628" y="-814.8" font-family="Times,serif" font-size="14.00" fill="#000000">dwc:verbatimEventDate</text>
</g>
<!-- B_:node1f0go8rutx38&#45;&gt;L10 April 1821|Language: ger -->
<g id="edge11" class="edge">
<title>B_:node1f0go8rutx38&#45;&gt;L10 April 1821|Language: ger</title>
<path fill="none" stroke="#000000" d="M837.8784,-839.2217C859.7594,-819.0533 905.7736,-780.5387 953.128,-765 1045.9854,-734.5301 1161.2397,-738.5553 1229.1166,-744.8557"/>
<polygon fill="#000000" stroke="#000000" points="1228.8929,-748.3505 1239.1859,-745.8397 1229.5737,-741.3837 1228.8929,-748.3505"/>
<text text-anchor="middle" x="1019.628" y="-768.8" font-family="Times,serif" font-size="14.00" fill="#000000">rdf:value</text>
</g>
<!-- Roa:Target -->
<g id="node13" class="node">
<title>Roa:Target</title>
<ellipse fill="none" stroke="#0000ff" cx="1286.7618" cy="-692" rx="44.393" ry="18"/>
<text text-anchor="middle" x="1286.7618" y="-688.3" font-family="Times,serif" font-size="14.00" fill="#000000">oa:Target</text>
</g>
<!-- B_:node1f0go8rutx37&#45;&gt;Roa:Target -->
<g id="edge13" class="edge">
<title>B_:node1f0go8rutx37&#45;&gt;Roa:Target</title>
<path fill="none" stroke="#000000" d="M842.7536,-666.0584C907.5294,-669.843 1129.2937,-682.7998 1232.7753,-688.8458"/>
<polygon fill="#000000" stroke="#000000" points="1232.8202,-692.3543 1243.0074,-689.4436 1233.2286,-685.3662 1232.8202,-692.3543"/>
<text text-anchor="middle" x="1019.628" y="-683.8" font-family="Times,serif" font-size="14.00" fill="#000000">rdf:type</text>
</g>
<!-- Limage/jpeg -->
<g id="node14" class="node">
<title>Limage/jpeg</title>
<polygon fill="none" stroke="#000000" points="1248.2618,-619 1248.2618,-655 1325.2618,-655 1325.2618,-619 1248.2618,-619"/>
<text text-anchor="middle" x="1286.7618" y="-633.3" font-family="Times,serif" font-size="14.00" fill="#000000">image/jpeg</text>
</g>
<!-- B_:node1f0go8rutx37&#45;&gt;Limage/jpeg -->
<g id="edge14" class="edge">
<title>B_:node1f0go8rutx37&#45;&gt;Limage/jpeg</title>
<path fill="none" stroke="#000000" d="M842.9155,-663.0308C867.8128,-660.4084 913.7943,-655.7785 953.128,-653 1054.224,-645.8588 1172.7826,-641.0109 1237.8422,-638.6534"/>
<polygon fill="#000000" stroke="#000000" points="1238.3297,-642.1383 1248.1981,-638.2829 1238.0793,-635.1428 1238.3297,-642.1383"/>
<text text-anchor="middle" x="1019.628" y="-656.8" font-family="Times,serif" font-size="14.00" fill="#000000">dcterms:format</text>
</g>
<!-- B_:node1f0go8rutx40 -->
<g id="node15" class="node">
<title>B_:node1f0go8rutx40</title>
<ellipse fill="none" stroke="#00ff00" cx="1286.7618" cy="-582" rx="18" ry="18"/>
</g>
<!-- B_:node1f0go8rutx37&#45;&gt;B_:node1f0go8rutx40 -->
<g id="edge15" class="edge">
<title>B_:node1f0go8rutx37&#45;&gt;B_:node1f0go8rutx40</title>
<path fill="none" stroke="#000000" d="M842.8667,-662.5377C865.2988,-659.0639 904.2115,-651.5785 935.128,-638 943.9312,-634.1337 944.1281,-629.3831 953.128,-626 1060.5053,-585.6364 1199.4316,-581.3055 1258.3475,-581.4789"/>
<polygon fill="#000000" stroke="#000000" points="1258.6847,-584.9815 1268.7118,-581.5601 1258.7396,-577.9817 1258.6847,-584.9815"/>
<text text-anchor="middle" x="1019.628" y="-629.8" font-family="Times,serif" font-size="14.00" fill="#000000">oa:hasSelector</text>
</g>
<!-- Rimg:MMNAT01_AF_NNM001001033_004.jpg -->
<g id="node19" class="node">
<title>Rimg:MMNAT01_AF_NNM001001033_004.jpg</title>
<ellipse fill="none" stroke="#0000ff" cx="1286.7618" cy="-419" rx="182.7677" ry="18"/>
<text text-anchor="middle" x="1286.7618" y="-415.3" font-family="Times,serif" font-size="14.00" fill="#000000">img:MMNAT01_AF_NNM001001033_004.jpg</text>
</g>
<!-- B_:node1f0go8rutx37&#45;&gt;Rimg:MMNAT01_AF_NNM001001033_004.jpg -->
<g id="edge19" class="edge">
<title>B_:node1f0go8rutx37&#45;&gt;Rimg:MMNAT01_AF_NNM001001033_004.jpg</title>
<path fill="none" stroke="#000000" d="M842.9118,-665.7815C867.219,-665.7882 910.0318,-662.0424 935.128,-638 955.8477,-618.1504 934.4953,-597.8204 953.128,-576 1017.1796,-500.9902 1124.9913,-459.3993 1200.6826,-438.1721"/>
<polygon fill="#000000" stroke="#000000" points="1201.9564,-441.4522 1210.6767,-435.4349 1200.1073,-434.7008 1201.9564,-441.4522"/>
<text text-anchor="middle" x="1019.628" y="-579.8" font-family="Times,serif" font-size="14.00" fill="#000000">oa:hasSource</text>
</g>
<!-- Roa:FragmentSelector -->
<g id="node16" class="node">
<title>Roa:FragmentSelector</title>
<ellipse fill="none" stroke="#0000ff" cx="1900.3956" cy="-664" rx="84.485" ry="18"/>
<text text-anchor="middle" x="1900.3956" y="-660.3" font-family="Times,serif" font-size="14.00" fill="#000000">oa:FragmentSelector</text>
</g>
<!-- B_:node1f0go8rutx40&#45;&gt;Roa:FragmentSelector -->
<g id="edge16" class="edge">
<title>B_:node1f0go8rutx40&#45;&gt;Roa:FragmentSelector</title>
<path fill="none" stroke="#000000" d="M1304.8476,-583.6146C1337.8715,-586.7961 1410.0046,-594.8267 1469.3956,-609 1477.598,-610.9575 1479.2103,-612.9723 1487.3956,-615 1595.3208,-641.7362 1722.8432,-654.0372 1807.3356,-659.5952"/>
<polygon fill="#000000" stroke="#000000" points="1807.2191,-663.0948 1817.422,-660.2401 1807.6658,-656.1091 1807.2191,-663.0948"/>
<text text-anchor="middle" x="1544.8956" y="-640.8" font-family="Times,serif" font-size="14.00" fill="#000000">rdf:type</text>
</g>
<!-- Rmf: -->
<g id="node17" class="node">
<title>Rmf:</title>
<ellipse fill="none" stroke="#0000ff" cx="1900.3956" cy="-610" rx="27" ry="18"/>
<text text-anchor="middle" x="1900.3956" y="-606.3" font-family="Times,serif" font-size="14.00" fill="#000000">mf:</text>
</g>
<!-- B_:node1f0go8rutx40&#45;&gt;Rmf: -->
<g id="edge17" class="edge">
<title>B_:node1f0go8rutx40&#45;&gt;Rmf:</title>
<path fill="none" stroke="#000000" d="M1304.7944,-582.8228C1389.1663,-586.6727 1745.7715,-602.9445 1862.9276,-608.2903"/>
<polygon fill="#000000" stroke="#000000" points="1863.035,-611.7988 1873.1842,-608.7583 1863.3542,-604.8061 1863.035,-611.7988"/>
<text text-anchor="middle" x="1544.8956" y="-599.8" font-family="Times,serif" font-size="14.00" fill="#000000">dcterms:conformsTo</text>
</g>
<!-- Lxywh=0.672574339819018,0.030544471154748218,0.06203976435935199,0.01601620029455081 -->
<g id="node18" class="node">
<title>Lxywh=0.672574339819018,0.030544471154748218,0.06203976435935199,0.01601620029455081</title>
<polygon fill="none" stroke="#000000" points="1620.3956,-537 1620.3956,-573 2180.3956,-573 2180.3956,-537 1620.3956,-537"/>
<text text-anchor="middle" x="1900.3956" y="-551.3" font-family="Times,serif" font-size="14.00" fill="#000000">xywh=0.672574339819018,0.030544471154748218,0.06203976435935199,0.01601620029455081</text>
</g>
<!-- B_:node1f0go8rutx40&#45;&gt;Lxywh=0.672574339819018,0.030544471154748218,0.06203976435935199,0.01601620029455081 -->
<g id="edge18" class="edge">
<title>B_:node1f0go8rutx40&#45;&gt;Lxywh=0.672574339819018,0.030544471154748218,0.06203976435935199,0.01601620029455081</title>
<path fill="none" stroke="#000000" d="M1304.7463,-581.1856C1339.8575,-579.5973 1419.9933,-575.9806 1487.3956,-573 1527.0556,-571.2462 1568.8584,-569.4099 1610.0265,-567.6087"/>
<polygon fill="#000000" stroke="#000000" points="1610.3577,-571.0977 1620.1952,-567.164 1610.0518,-564.1044 1610.3577,-571.0977"/>
<text text-anchor="middle" x="1544.8956" y="-576.8" font-family="Times,serif" font-size="14.00" fill="#000000">rdf:value</text>
</g>
<!-- Rdcmitype:StillImage -->
<g id="node22" class="node">
<title>Rdcmitype:StillImage</title>
<ellipse fill="none" stroke="#0000ff" cx="1900.3956" cy="-500" rx="83.3857" ry="18"/>
<text text-anchor="middle" x="1900.3956" y="-496.3" font-family="Times,serif" font-size="14.00" fill="#000000">dcmitype:StillImage</text>
</g>
<!-- Rimg:MMNAT01_AF_NNM001001033_004.jpg&#45;&gt;Rdcmitype:StillImage -->
<g id="edge22" class="edge">
<title>Rimg:MMNAT01_AF_NNM001001033_004.jpg&#45;&gt;Rdcmitype:StillImage</title>
<path fill="none" stroke="#000000" d="M1380.1417,-434.4867C1413.9249,-440.0558 1452.3709,-446.3545 1487.3956,-452 1546.4765,-461.523 1561.0294,-465.4579 1620.3956,-473 1684.3615,-481.1265 1756.8262,-488.0524 1812.0083,-492.8546"/>
<polygon fill="#000000" stroke="#000000" points="1811.8409,-496.3531 1822.1049,-493.7264 1812.4431,-489.379 1811.8409,-496.3531"/>
<text text-anchor="middle" x="1544.8956" y="-474.8" font-family="Times,serif" font-size="14.00" fill="#000000">rdf:type</text>
</g>
<!-- Rdsw:Token -->
<g id="node23" class="node">
<title>Rdsw:Token</title>
<ellipse fill="none" stroke="#0000ff" cx="1900.3956" cy="-446" rx="50.0912" ry="18"/>
<text text-anchor="middle" x="1900.3956" y="-442.3" font-family="Times,serif" font-size="14.00" fill="#000000">dsw:Token</text>
</g>
<!-- Rimg:MMNAT01_AF_NNM001001033_004.jpg&#45;&gt;Rdsw:Token -->
<g id="edge23" class="edge">
<title>Rimg:MMNAT01_AF_NNM001001033_004.jpg&#45;&gt;Rdsw:Token</title>
<path fill="none" stroke="#000000" d="M1453.6294,-426.3422C1581.819,-431.9826 1751.4895,-439.4481 1840.3165,-443.3565"/>
<polygon fill="#000000" stroke="#000000" points="1840.3354,-446.8606 1850.4797,-443.8037 1840.6432,-439.8674 1840.3354,-446.8606"/>
<text text-anchor="middle" x="1544.8956" y="-436.8" font-family="Times,serif" font-size="14.00" fill="#000000">rdf:type</text>
</g>
<!-- Rdwc:HumanObservation -->
<g id="node24" class="node">
<title>Rdwc:HumanObservation</title>
<ellipse fill="none" stroke="#0000ff" cx="1900.3956" cy="-392" rx="96.6831" ry="18"/>
<text text-anchor="middle" x="1900.3956" y="-388.3" font-family="Times,serif" font-size="14.00" fill="#000000">dwc:HumanObservation</text>
</g>
<!-- Rimg:MMNAT01_AF_NNM001001033_004.jpg&#45;&gt;Rdwc:HumanObservation -->
<g id="edge24" class="edge">
<title>Rimg:MMNAT01_AF_NNM001001033_004.jpg&#45;&gt;Rdwc:HumanObservation</title>
<path fill="none" stroke="#000000" d="M1453.1722,-411.5189C1464.7541,-411.0032 1476.249,-410.4929 1487.3956,-410 1592.2938,-405.3613 1712.1829,-400.1457 1795.668,-396.5276"/>
<polygon fill="#000000" stroke="#000000" points="1795.8262,-400.0241 1805.6652,-396.0944 1795.5231,-393.0307 1795.8262,-400.0241"/>
<text text-anchor="middle" x="1544.8956" y="-413.8" font-family="Times,serif" font-size="14.00" fill="#000000">rdf:type</text>
</g>
<!-- Roa:Source -->
<g id="node25" class="node">
<title>Roa:Source</title>
<ellipse fill="none" stroke="#0000ff" cx="1900.3956" cy="-338" rx="46.2923" ry="18"/>
<text text-anchor="middle" x="1900.3956" y="-334.3" font-family="Times,serif" font-size="14.00" fill="#000000">oa:Source</text>
</g>
<!-- Rimg:MMNAT01_AF_NNM001001033_004.jpg&#45;&gt;Roa:Source -->
<g id="edge25" class="edge">
<title>Rimg:MMNAT01_AF_NNM001001033_004.jpg&#45;&gt;Roa:Source</title>
<path fill="none" stroke="#000000" d="M1374.6943,-403.1828C1441.8374,-391.4906 1536.7416,-375.7918 1620.3956,-365 1697.9109,-355.0001 1787.9368,-346.9511 1844.5371,-342.3219"/>
<polygon fill="#000000" stroke="#000000" points="1845.0216,-345.7942 1854.7061,-341.4976 1844.4559,-338.8171 1845.0216,-345.7942"/>
<text text-anchor="middle" x="1544.8956" y="-387.8" font-family="Times,serif" font-size="14.00" fill="#000000">rdf:type</text>
</g>
<!-- Rfoaf:Image -->
<g id="node26" class="node">
<title>Rfoaf:Image</title>
<ellipse fill="none" stroke="#0000ff" cx="1900.3956" cy="-284" rx="50.0912" ry="18"/>
<text text-anchor="middle" x="1900.3956" y="-280.3" font-family="Times,serif" font-size="14.00" fill="#000000">foaf:Image</text>
</g>
<!-- Rimg:MMNAT01_AF_NNM001001033_004.jpg&#45;&gt;Rfoaf:Image -->
<g id="edge26" class="edge">
<title>Rimg:MMNAT01_AF_NNM001001033_004.jpg&#45;&gt;Rfoaf:Image</title>
<path fill="none" stroke="#000000" d="M1334.3389,-401.5357C1374.83,-386.881 1434.6457,-365.7226 1487.3956,-349 1545.9978,-330.4221 1559.9934,-322.4422 1620.3956,-311 1695.3807,-296.7953 1783.1569,-289.8716 1840.1653,-286.6329"/>
<polygon fill="#000000" stroke="#000000" points="1840.6483,-290.1118 1850.4419,-286.0701 1840.2655,-283.1223 1840.6483,-290.1118"/>
<text text-anchor="middle" x="1544.8956" y="-352.8" font-family="Times,serif" font-size="14.00" fill="#000000">rdf:type</text>
</g>
</g>
</svg>
