<?xml version="1.0" encoding="UTF-8" standalone="no"?>
<!DOCTYPE svg PUBLIC "-//W3C//DTD SVG 1.1//EN"
 "http://www.w3.org/Graphics/SVG/1.1/DTD/svg11.dtd">
<!-- Generated by graphviz version 2.40.1 (20161225.0304)
 -->
<!-- Title: %3 Pages: 1 -->
<svg width="2172pt" height="1074pt"
 viewBox="0.00 0.00 2171.60 1074.00" xmlns="http://www.w3.org/2000/svg" xmlns:xlink="http://www.w3.org/1999/xlink">
<g id="graph0" class="graph" transform="scale(1 1) rotate(0) translate(4 1070)">
<title>%3</title>
<polygon fill="#ffffff" stroke="transparent" points="-4,4 -4,-1070 2167.5952,-1070 2167.5952,4 -4,4"/>
<text text-anchor="middle" x="1081.7976" y="-233.8" font-family="Times,serif" font-size="14.00" fill="#000000">Model:</text>
<text text-anchor="middle" x="1081.7976" y="-218.8" font-family="Times,serif" font-size="14.00" fill="#000000">(Unknown)</text>
<text text-anchor="middle" x="1081.7976" y="-187.8" font-family="Times,serif" font-size="14.00" fill="#000000">Namespaces:</text>
<text text-anchor="middle" x="1081.7976" y="-172.8" font-family="Times,serif" font-size="14.00" fill="#000000">dcmitype: http://purl.org/dc/dcmitype/</text>
<text text-anchor="middle" x="1081.7976" y="-157.8" font-family="Times,serif" font-size="14.00" fill="#000000">dcterms: http://purl.org/dc/terms/</text>
<text text-anchor="middle" x="1081.7976" y="-142.8" font-family="Times,serif" font-size="14.00" fill="#000000">dsw: http://purl.org/dsw/</text>
<text text-anchor="middle" x="1081.7976" y="-127.8" font-family="Times,serif" font-size="14.00" fill="#000000">dwc: http://rs.tdwg.org/dwc/terms/</text>
<text text-anchor="middle" x="1081.7976" y="-112.8" font-family="Times,serif" font-size="14.00" fill="#000000">foaf: http://xmlns.com/foaf/0.1/</text>
<text text-anchor="middle" x="1081.7976" y="-97.8" font-family="Times,serif" font-size="14.00" fill="#000000">img: http://localhost:8080/semanticAnnotator/files/</text>
<text text-anchor="middle" x="1081.7976" y="-82.8" font-family="Times,serif" font-size="14.00" fill="#000000">iso: http://iso639&#45;3.sil.org/code/</text>
<text text-anchor="middle" x="1081.7976" y="-67.8" font-family="Times,serif" font-size="14.00" fill="#000000">mf: http://www.w3.org/TR/media&#45;frags/</text>
<text text-anchor="middle" x="1081.7976" y="-52.8" font-family="Times,serif" font-size="14.00" fill="#000000">oa: http://www.w3.org/ns/oa#</text>
<text text-anchor="middle" x="1081.7976" y="-37.8" font-family="Times,serif" font-size="14.00" fill="#000000">orcid: http://orcid.org/</text>
<text text-anchor="middle" x="1081.7976" y="-22.8" font-family="Times,serif" font-size="14.00" fill="#000000">rdf: http://www.w3.org/1999/02/22&#45;rdf&#45;syntax&#45;ns#</text>
<text text-anchor="middle" x="1081.7976" y="-7.8" font-family="Times,serif" font-size="14.00" fill="#000000">viaf: http://viaf.org/viaf/</text>
<!-- Rhttp://localhost:8080/rdf/nc/annotation/906d3698&#45;d707&#45;49ce&#45;a447&#45;66e360821f95 -->
<g id="node1" class="node">
<title>Rhttp://localhost:8080/rdf/nc/annotation/906d3698&#45;d707&#45;49ce&#45;a447&#45;66e360821f95</title>
<ellipse fill="none" stroke="#0000ff" cx="297.6736" cy="-903" rx="297.8473" ry="18"/>
<text text-anchor="middle" x="297.6736" y="-899.3" font-family="Times,serif" font-size="14.00" fill="#000000">http://localhost:8080/rdf/nc/annotation/906d3698&#45;d707&#45;49ce&#45;a447&#45;66e360821f95</text>
</g>
<!-- Roa:Annotation -->
<g id="node2" class="node">
<title>Roa:Annotation</title>
<ellipse fill="none" stroke="#0000ff" cx="829.8374" cy="-1036" rx="61.1893" ry="18"/>
<text text-anchor="middle" x="829.8374" y="-1032.3" font-family="Times,serif" font-size="14.00" fill="#000000">oa:Annotation</text>
</g>
<!-- Rhttp://localhost:8080/rdf/nc/annotation/906d3698&#45;d707&#45;49ce&#45;a447&#45;66e360821f95&#45;&gt;Roa:Annotation -->
<g id="edge1" class="edge">
<title>Rhttp://localhost:8080/rdf/nc/annotation/906d3698&#45;d707&#45;49ce&#45;a447&#45;66e360821f95&#45;&gt;Roa:Annotation</title>
<path fill="none" stroke="#000000" d="M367.0314,-920.5844C450.5658,-941.7285 595.1586,-978.2174 719.3472,-1009 736.6511,-1013.2891 755.4919,-1017.911 772.6334,-1022.0975"/>
<polygon fill="#000000" stroke="#000000" points="771.9606,-1025.536 782.5052,-1024.5064 773.62,-1018.7355 771.9606,-1025.536"/>
<text text-anchor="middle" x="657.3472" y="-1006.8" font-family="Times,serif" font-size="14.00" fill="#000000">rdf:type</text>
</g>
<!-- Rorcid:0000&#45;0002&#45;2146&#45;4803 -->
<g id="node3" class="node">
<title>Rorcid:0000&#45;0002&#45;2146&#45;4803</title>
<ellipse fill="none" stroke="#0000ff" cx="829.8374" cy="-982" rx="110.4804" ry="18"/>
<text text-anchor="middle" x="829.8374" y="-978.3" font-family="Times,serif" font-size="14.00" fill="#000000">orcid:0000&#45;0002&#45;2146&#45;4803</text>
</g>
<!-- Rhttp://localhost:8080/rdf/nc/annotation/906d3698&#45;d707&#45;49ce&#45;a447&#45;66e360821f95&#45;&gt;Rorcid:0000&#45;0002&#45;2146&#45;4803 -->
<g id="edge2" class="edge">
<title>Rhttp://localhost:8080/rdf/nc/annotation/906d3698&#45;d707&#45;49ce&#45;a447&#45;66e360821f95&#45;&gt;Rorcid:0000&#45;0002&#45;2146&#45;4803</title>
<path fill="none" stroke="#000000" d="M410.2066,-919.7056C507.668,-934.1738 646.9135,-954.8449 737.8339,-968.342"/>
<polygon fill="#000000" stroke="#000000" points="737.4449,-971.8226 747.8505,-969.829 738.4728,-964.8984 737.4449,-971.8226"/>
<text text-anchor="middle" x="657.3472" y="-965.8" font-family="Times,serif" font-size="14.00" fill="#000000">dcterms:creator</text>
</g>
<!-- L2021&#45;01&#45;12T14:23:11.646Z|Datatype: dcterms:W3CDTF -->
<g id="node4" class="node">
<title>L2021&#45;01&#45;12T14:23:11.646Z|Datatype: dcterms:W3CDTF</title>
<polygon fill="none" stroke="#000000" points="742.3374,-899 742.3374,-945 917.3374,-945 917.3374,-899 742.3374,-899"/>
<text text-anchor="middle" x="829.8374" y="-929.8" font-family="Times,serif" font-size="14.00" fill="#000000">2021&#45;01&#45;12T14:23:11.646Z</text>
<polyline fill="none" stroke="#000000" points="742.3374,-922 917.3374,-922 "/>
<text text-anchor="middle" x="829.8374" y="-906.8" font-family="Times,serif" font-size="14.00" fill="#000000">Datatype: dcterms:W3CDTF</text>
</g>
<!-- Rhttp://localhost:8080/rdf/nc/annotation/906d3698&#45;d707&#45;49ce&#45;a447&#45;66e360821f95&#45;&gt;L2021&#45;01&#45;12T14:23:11.646Z|Datatype: dcterms:W3CDTF -->
<g id="edge3" class="edge">
<title>Rhttp://localhost:8080/rdf/nc/annotation/906d3698&#45;d707&#45;49ce&#45;a447&#45;66e360821f95&#45;&gt;L2021&#45;01&#45;12T14:23:11.646Z|Datatype: dcterms:W3CDTF</title>
<path fill="none" stroke="#000000" d="M554.0132,-912.1522C617.3543,-914.4137 681.4324,-916.7015 731.8643,-918.502"/>
<polygon fill="#000000" stroke="#000000" points="731.9701,-922.008 742.0886,-918.8671 732.2199,-915.0124 731.9701,-922.008"/>
<text text-anchor="middle" x="657.3472" y="-920.8" font-family="Times,serif" font-size="14.00" fill="#000000">dcterms:date</text>
</g>
<!-- B_:node1f0go8rutx7 -->
<g id="node5" class="node">
<title>B_:node1f0go8rutx7</title>
<ellipse fill="none" stroke="#00ff00" cx="829.8374" cy="-862" rx="18" ry="18"/>
</g>
<!-- Rhttp://localhost:8080/rdf/nc/annotation/906d3698&#45;d707&#45;49ce&#45;a447&#45;66e360821f95&#45;&gt;B_:node1f0go8rutx7 -->
<g id="edge4" class="edge">
<title>Rhttp://localhost:8080/rdf/nc/annotation/906d3698&#45;d707&#45;49ce&#45;a447&#45;66e360821f95&#45;&gt;B_:node1f0go8rutx7</title>
<path fill="none" stroke="#000000" d="M481.5593,-888.8327C599.7805,-879.7245 742.0069,-868.7668 801.506,-864.1828"/>
<polygon fill="#000000" stroke="#000000" points="801.927,-867.6608 811.6286,-863.4029 801.3893,-860.6815 801.927,-867.6608"/>
<text text-anchor="middle" x="657.3472" y="-880.8" font-family="Times,serif" font-size="14.00" fill="#000000">oa:hasBody</text>
</g>
<!-- B_:node1f0go8rutx6 -->
<g id="node12" class="node">
<title>B_:node1f0go8rutx6</title>
<ellipse fill="none" stroke="#00ff00" cx="829.8374" cy="-680" rx="18" ry="18"/>
</g>
<!-- Rhttp://localhost:8080/rdf/nc/annotation/906d3698&#45;d707&#45;49ce&#45;a447&#45;66e360821f95&#45;&gt;B_:node1f0go8rutx6 -->
<g id="edge12" class="edge">
<title>Rhttp://localhost:8080/rdf/nc/annotation/906d3698&#45;d707&#45;49ce&#45;a447&#45;66e360821f95&#45;&gt;B_:node1f0go8rutx6</title>
<path fill="none" stroke="#000000" d="M340.3232,-885.1279C446.1358,-840.7878 718.3145,-726.733 803.7657,-690.9252"/>
<polygon fill="#000000" stroke="#000000" points="805.1453,-694.142 813.0156,-687.0491 802.4399,-687.6859 805.1453,-694.142"/>
<text text-anchor="middle" x="657.3472" y="-767.8" font-family="Times,serif" font-size="14.00" fill="#000000">oa:hasTarget</text>
</g>
<!-- Roa:describing -->
<g id="node20" class="node">
<title>Roa:describing</title>
<ellipse fill="none" stroke="#0000ff" cx="829.8374" cy="-626" rx="57.6901" ry="18"/>
<text text-anchor="middle" x="829.8374" y="-622.3" font-family="Times,serif" font-size="14.00" fill="#000000">oa:describing</text>
</g>
<!-- Rhttp://localhost:8080/rdf/nc/annotation/906d3698&#45;d707&#45;49ce&#45;a447&#45;66e360821f95&#45;&gt;Roa:describing -->
<g id="edge20" class="edge">
<title>Rhttp://localhost:8080/rdf/nc/annotation/906d3698&#45;d707&#45;49ce&#45;a447&#45;66e360821f95&#45;&gt;Roa:describing</title>
<path fill="none" stroke="#000000" d="M321.9279,-884.9102C384.4169,-839.157 557.385,-717.8642 719.3472,-653 735.2109,-646.6467 752.9755,-641.5034 769.5429,-637.4781"/>
<polygon fill="#000000" stroke="#000000" points="770.7321,-640.7948 779.6761,-635.1154 769.1425,-633.9776 770.7321,-640.7948"/>
<text text-anchor="middle" x="657.3472" y="-700.8" font-family="Times,serif" font-size="14.00" fill="#000000">oa:motivatedBy</text>
</g>
<!-- Rfoaf:Person -->
<g id="node7" class="node">
<title>Rfoaf:Person</title>
<ellipse fill="none" stroke="#0000ff" cx="1255.9614" cy="-1047" rx="51.1914" ry="18"/>
<text text-anchor="middle" x="1255.9614" y="-1043.3" font-family="Times,serif" font-size="14.00" fill="#000000">foaf:Person</text>
</g>
<!-- Rorcid:0000&#45;0002&#45;2146&#45;4803&#45;&gt;Rfoaf:Person -->
<g id="edge21" class="edge">
<title>Rorcid:0000&#45;0002&#45;2146&#45;4803&#45;&gt;Rfoaf:Person</title>
<path fill="none" stroke="#000000" d="M906.0792,-995.1116C917.9346,-998.6974 929.7465,-1003.2436 940.3276,-1009 949.9936,-1014.2587 948.2517,-1021.5771 958.3276,-1026 1035.8336,-1060.0222 1135.6581,-1059.1679 1197.7322,-1054.0987"/>
<polygon fill="#000000" stroke="#000000" points="1198.0832,-1057.5814 1207.7378,-1053.2182 1197.4695,-1050.6084 1198.0832,-1057.5814"/>
<text text-anchor="middle" x="1006.8276" y="-1054.8" font-family="Times,serif" font-size="14.00" fill="#000000">rdf:type</text>
</g>
<!-- Roa:TextualBody -->
<g id="node6" class="node">
<title>Roa:TextualBody</title>
<ellipse fill="none" stroke="#0000ff" cx="1255.9614" cy="-991" rx="67.6881" ry="18"/>
<text text-anchor="middle" x="1255.9614" y="-987.3" font-family="Times,serif" font-size="14.00" fill="#000000">oa:TextualBody</text>
</g>
<!-- B_:node1f0go8rutx7&#45;&gt;Roa:TextualBody -->
<g id="edge5" class="edge">
<title>B_:node1f0go8rutx7&#45;&gt;Roa:TextualBody</title>
<path fill="none" stroke="#000000" d="M847.8442,-862.2092C871.4648,-863.3751 913.0988,-868.6027 940.3276,-890 953.7713,-900.5646 945.3534,-912.8637 958.3276,-924 999.3901,-959.2457 1020.7737,-951.0971 1073.3276,-964 1108.7302,-972.692 1148.7241,-978.9899 1182.2419,-983.3055"/>
<polygon fill="#000000" stroke="#000000" points="1182.0662,-986.8108 1192.4239,-984.5816 1182.9368,-979.8651 1182.0662,-986.8108"/>
<text text-anchor="middle" x="1006.8276" y="-962.8" font-family="Times,serif" font-size="14.00" fill="#000000">rdf:type</text>
</g>
<!-- B_:node1f0go8rutx7&#45;&gt;Rfoaf:Person -->
<g id="edge6" class="edge">
<title>B_:node1f0go8rutx7&#45;&gt;Rfoaf:Person</title>
<path fill="none" stroke="#000000" d="M847.9997,-861.1156C872.5815,-860.9782 916.142,-864.6647 940.3276,-890 967.8931,-918.876 931.3792,-948.5472 958.3276,-978 988.7022,-1011.1975 1014.2331,-988.6715 1055.3276,-1007 1063.8901,-1010.819 1064.5301,-1014.7586 1073.3276,-1018 1112.2615,-1032.345 1158.4326,-1039.5972 1194.6102,-1043.262"/>
<polygon fill="#000000" stroke="#000000" points="1194.7299,-1046.7889 1205.015,-1044.2458 1195.3889,-1039.8199 1194.7299,-1046.7889"/>
<text text-anchor="middle" x="1006.8276" y="-1010.8" font-family="Times,serif" font-size="14.00" fill="#000000">rdf:type</text>
</g>
<!-- Ltext/plain -->
<g id="node8" class="node">
<title>Ltext/plain</title>
<polygon fill="none" stroke="#000000" points="1221.9614,-918 1221.9614,-954 1289.9614,-954 1289.9614,-918 1221.9614,-918"/>
<text text-anchor="middle" x="1255.9614" y="-932.3" font-family="Times,serif" font-size="14.00" fill="#000000">text/plain</text>
</g>
<!-- B_:node1f0go8rutx7&#45;&gt;Ltext/plain -->
<g id="edge7" class="edge">
<title>B_:node1f0go8rutx7&#45;&gt;Ltext/plain</title>
<path fill="none" stroke="#000000" d="M847.6457,-866.231C872.3881,-872.0292 918.6059,-882.5701 958.3276,-890 1048.0223,-906.7773 1153.7477,-922.058 1211.9612,-930.0855"/>
<polygon fill="#000000" stroke="#000000" points="1211.5363,-933.5599 1221.9193,-931.4517 1212.4879,-926.6248 1211.5363,-933.5599"/>
<text text-anchor="middle" x="1006.8276" y="-908.8" font-family="Times,serif" font-size="14.00" fill="#000000">dcterms:format</text>
</g>
<!-- Rviaf:39377694 -->
<g id="node9" class="node">
<title>Rviaf:39377694</title>
<ellipse fill="none" stroke="#0000ff" cx="1255.9614" cy="-881" rx="61.99" ry="18"/>
<text text-anchor="middle" x="1255.9614" y="-877.3" font-family="Times,serif" font-size="14.00" fill="#000000">viaf:39377694</text>
</g>
<!-- B_:node1f0go8rutx7&#45;&gt;Rviaf:39377694 -->
<g id="edge8" class="edge">
<title>B_:node1f0go8rutx7&#45;&gt;Rviaf:39377694</title>
<path fill="none" stroke="#000000" d="M847.8752,-862.8043C904.924,-865.348 1083.6179,-873.3156 1184.6061,-877.8184"/>
<polygon fill="#000000" stroke="#000000" points="1184.582,-881.3207 1194.728,-878.2697 1184.8938,-874.3277 1184.582,-881.3207"/>
<text text-anchor="middle" x="1006.8276" y="-874.8" font-family="Times,serif" font-size="14.00" fill="#000000">dcterms:identifier</text>
</g>
<!-- Riso:und -->
<g id="node10" class="node">
<title>Riso:und</title>
<ellipse fill="none" stroke="#0000ff" cx="1255.9614" cy="-827" rx="36.2938" ry="18"/>
<text text-anchor="middle" x="1255.9614" y="-823.3" font-family="Times,serif" font-size="14.00" fill="#000000">iso:und</text>
</g>
<!-- B_:node1f0go8rutx7&#45;&gt;Riso:und -->
<g id="edge9" class="edge">
<title>B_:node1f0go8rutx7&#45;&gt;Riso:und</title>
<path fill="none" stroke="#000000" d="M848.1217,-859.9929C873.0265,-857.2951 919.0165,-852.4409 958.3276,-849 1047.1915,-841.2218 1151.1429,-833.9555 1209.698,-830.0304"/>
<polygon fill="#000000" stroke="#000000" points="1209.9964,-833.5184 1219.7412,-829.3601 1209.5303,-826.5339 1209.9964,-833.5184"/>
<text text-anchor="middle" x="1006.8276" y="-852.8" font-family="Times,serif" font-size="14.00" fill="#000000">dcterms:language</text>
</g>
<!-- LGeoff|Language: und -->
<g id="node11" class="node">
<title>LGeoff|Language: und</title>
<polygon fill="none" stroke="#000000" points="1206.9614,-744 1206.9614,-790 1304.9614,-790 1304.9614,-744 1206.9614,-744"/>
<text text-anchor="middle" x="1255.9614" y="-774.8" font-family="Times,serif" font-size="14.00" fill="#000000">Geoff</text>
<polyline fill="none" stroke="#000000" points="1206.9614,-767 1304.9614,-767 "/>
<text text-anchor="middle" x="1255.9614" y="-751.8" font-family="Times,serif" font-size="14.00" fill="#000000">Language: und</text>
</g>
<!-- B_:node1f0go8rutx7&#45;&gt;LGeoff|Language: und -->
<g id="edge10" class="edge">
<title>B_:node1f0go8rutx7&#45;&gt;LGeoff|Language: und</title>
<path fill="none" stroke="#000000" d="M847.1185,-855.9366C871.6252,-847.4953 917.987,-832.1036 958.3276,-822 1040.1222,-801.5139 1136.3178,-785.1002 1196.723,-775.7027"/>
<polygon fill="#000000" stroke="#000000" points="1197.4878,-779.1262 1206.8374,-774.1428 1196.4208,-772.208 1197.4878,-779.1262"/>
<text text-anchor="middle" x="1006.8276" y="-825.8" font-family="Times,serif" font-size="14.00" fill="#000000">rdf:value</text>
</g>
<!-- B_:node1f0go8rutx7&#45;&gt;LGeoff|Language: und -->
<g id="edge11" class="edge">
<title>B_:node1f0go8rutx7&#45;&gt;LGeoff|Language: und</title>
<path fill="none" stroke="#000000" d="M843.6966,-850.1741C866.0769,-831.8852 912.3321,-797.3531 958.3276,-783 1037.9449,-758.1549 1135.2875,-758.2522 1196.4766,-761.7331"/>
<polygon fill="#000000" stroke="#000000" points="1196.5257,-765.2427 1206.7228,-762.367 1196.958,-758.2561 1196.5257,-765.2427"/>
<text text-anchor="middle" x="1006.8276" y="-786.8" font-family="Times,serif" font-size="14.00" fill="#000000">foaf:name</text>
</g>
<!-- Roa:Target -->
<g id="node13" class="node">
<title>Roa:Target</title>
<ellipse fill="none" stroke="#0000ff" cx="1255.9614" cy="-707" rx="44.393" ry="18"/>
<text text-anchor="middle" x="1255.9614" y="-703.3" font-family="Times,serif" font-size="14.00" fill="#000000">oa:Target</text>
</g>
<!-- B_:node1f0go8rutx6&#45;&gt;Roa:Target -->
<g id="edge13" class="edge">
<title>B_:node1f0go8rutx6&#45;&gt;Roa:Target</title>
<path fill="none" stroke="#000000" d="M847.8752,-681.1429C908.4005,-684.9779 1105.8487,-697.4886 1202.1579,-703.5909"/>
<polygon fill="#000000" stroke="#000000" points="1202.0699,-707.0923 1212.2712,-704.2317 1202.5126,-700.1063 1202.0699,-707.0923"/>
<text text-anchor="middle" x="1006.8276" y="-696.8" font-family="Times,serif" font-size="14.00" fill="#000000">rdf:type</text>
</g>
<!-- Limage/jpeg -->
<g id="node14" class="node">
<title>Limage/jpeg</title>
<polygon fill="none" stroke="#000000" points="1217.4614,-634 1217.4614,-670 1294.4614,-670 1294.4614,-634 1217.4614,-634"/>
<text text-anchor="middle" x="1255.9614" y="-648.3" font-family="Times,serif" font-size="14.00" fill="#000000">image/jpeg</text>
</g>
<!-- B_:node1f0go8rutx6&#45;&gt;Limage/jpeg -->
<g id="edge14" class="edge">
<title>B_:node1f0go8rutx6&#45;&gt;Limage/jpeg</title>
<path fill="none" stroke="#000000" d="M848.1235,-678.2703C873.0305,-675.9519 919.023,-671.8043 958.3276,-669 1045.9901,-662.7454 1148.3084,-657.3087 1207.2716,-654.3567"/>
<polygon fill="#000000" stroke="#000000" points="1207.5972,-657.8449 1217.4109,-653.8522 1207.2493,-650.8536 1207.5972,-657.8449"/>
<text text-anchor="middle" x="1006.8276" y="-672.8" font-family="Times,serif" font-size="14.00" fill="#000000">dcterms:format</text>
</g>
<!-- B_:node1f0go8rutx9 -->
<g id="node15" class="node">
<title>B_:node1f0go8rutx9</title>
<ellipse fill="none" stroke="#00ff00" cx="1255.9614" cy="-597" rx="18" ry="18"/>
</g>
<!-- B_:node1f0go8rutx6&#45;&gt;B_:node1f0go8rutx9 -->
<g id="edge15" class="edge">
<title>B_:node1f0go8rutx6&#45;&gt;B_:node1f0go8rutx9</title>
<path fill="none" stroke="#000000" d="M847.8069,-676.8937C869.9777,-672.7708 908.6271,-664.6312 940.3276,-653 948.7245,-649.9191 949.8315,-646.7959 958.3276,-644 1053.8616,-612.5615 1173.7681,-601.8356 1227.5592,-598.4433"/>
<polygon fill="#000000" stroke="#000000" points="1227.9303,-601.9276 1237.7058,-597.8422 1227.5163,-594.9398 1227.9303,-601.9276"/>
<text text-anchor="middle" x="1006.8276" y="-647.8" font-family="Times,serif" font-size="14.00" fill="#000000">oa:hasSelector</text>
</g>
<!-- Rimg:MMNAT01_AF_NNM001001033_003.jpg -->
<g id="node19" class="node">
<title>Rimg:MMNAT01_AF_NNM001001033_003.jpg</title>
<ellipse fill="none" stroke="#0000ff" cx="1255.9614" cy="-434" rx="182.7677" ry="18"/>
<text text-anchor="middle" x="1255.9614" y="-430.3" font-family="Times,serif" font-size="14.00" fill="#000000">img:MMNAT01_AF_NNM001001033_003.jpg</text>
</g>
<!-- B_:node1f0go8rutx6&#45;&gt;Rimg:MMNAT01_AF_NNM001001033_003.jpg -->
<g id="edge19" class="edge">
<title>B_:node1f0go8rutx6&#45;&gt;Rimg:MMNAT01_AF_NNM001001033_003.jpg</title>
<path fill="none" stroke="#000000" d="M847.9352,-680.5929C872.0428,-680.3859 914.6301,-676.3987 940.3276,-653 958.4109,-636.5343 942.6404,-619.7626 958.3276,-601 1020.3606,-526.8054 1124.2844,-479.3334 1191.4632,-454.6694"/>
<polygon fill="#000000" stroke="#000000" points="1192.8786,-457.8797 1201.0988,-451.1955 1190.5044,-451.2946 1192.8786,-457.8797"/>
<text text-anchor="middle" x="1006.8276" y="-604.8" font-family="Times,serif" font-size="14.00" fill="#000000">oa:hasSource</text>
</g>
<!-- Roa:FragmentSelector -->
<g id="node16" class="node">
<title>Roa:FragmentSelector</title>
<ellipse fill="none" stroke="#0000ff" cx="1876.5952" cy="-679" rx="84.485" ry="18"/>
<text text-anchor="middle" x="1876.5952" y="-675.3" font-family="Times,serif" font-size="14.00" fill="#000000">oa:FragmentSelector</text>
</g>
<!-- B_:node1f0go8rutx9&#45;&gt;Roa:FragmentSelector -->
<g id="edge16" class="edge">
<title>B_:node1f0go8rutx9&#45;&gt;Roa:FragmentSelector</title>
<path fill="none" stroke="#000000" d="M1274.0472,-598.6146C1307.071,-601.7961 1379.2041,-609.8267 1438.5952,-624 1446.7976,-625.9575 1448.4098,-627.9723 1456.5952,-630 1566.95,-657.3381 1697.4927,-669.5321 1783.4113,-674.9001"/>
<polygon fill="#000000" stroke="#000000" points="1783.2094,-678.3942 1793.403,-675.5061 1783.6333,-671.407 1783.2094,-678.3942"/>
<text text-anchor="middle" x="1514.0952" y="-655.8" font-family="Times,serif" font-size="14.00" fill="#000000">rdf:type</text>
</g>
<!-- Rmf: -->
<g id="node17" class="node">
<title>Rmf:</title>
<ellipse fill="none" stroke="#0000ff" cx="1876.5952" cy="-625" rx="27" ry="18"/>
<text text-anchor="middle" x="1876.5952" y="-621.3" font-family="Times,serif" font-size="14.00" fill="#000000">mf:</text>
</g>
<!-- B_:node1f0go8rutx9&#45;&gt;Rmf: -->
<g id="edge17" class="edge">
<title>B_:node1f0go8rutx9&#45;&gt;Rmf:</title>
<path fill="none" stroke="#000000" d="M1274.1996,-597.8228C1359.6311,-601.6771 1721.0282,-617.9816 1839.1031,-623.3085"/>
<polygon fill="#000000" stroke="#000000" points="1839.2867,-626.8203 1849.4343,-623.7746 1839.6022,-619.8274 1839.2867,-626.8203"/>
<text text-anchor="middle" x="1514.0952" y="-614.8" font-family="Times,serif" font-size="14.00" fill="#000000">dcterms:conformsTo</text>
</g>
<!-- Lxywh=0.6222427138577663,0.025690113172811516,0.024116347569955843,0.01804123711340206 -->
<g id="node18" class="node">
<title>Lxywh=0.6222427138577663,0.025690113172811516,0.024116347569955843,0.01804123711340206</title>
<polygon fill="none" stroke="#000000" points="1589.5952,-552 1589.5952,-588 2163.5952,-588 2163.5952,-552 1589.5952,-552"/>
<text text-anchor="middle" x="1876.5952" y="-566.3" font-family="Times,serif" font-size="14.00" fill="#000000">xywh=0.6222427138577663,0.025690113172811516,0.024116347569955843,0.01804123711340206</text>
</g>
<!-- B_:node1f0go8rutx9&#45;&gt;Lxywh=0.6222427138577663,0.025690113172811516,0.024116347569955843,0.01804123711340206 -->
<g id="edge18" class="edge">
<title>B_:node1f0go8rutx9&#45;&gt;Lxywh=0.6222427138577663,0.025690113172811516,0.024116347569955843,0.01804123711340206</title>
<path fill="none" stroke="#000000" d="M1273.9456,-596.1812C1309.0566,-594.5853 1389.1918,-590.9561 1456.5952,-588 1496.2531,-586.2607 1538.0183,-584.448 1579.2052,-582.6715"/>
<polygon fill="#000000" stroke="#000000" points="1579.5398,-586.1604 1589.3798,-582.2328 1579.2383,-579.1669 1579.5398,-586.1604"/>
<text text-anchor="middle" x="1514.0952" y="-591.8" font-family="Times,serif" font-size="14.00" fill="#000000">rdf:value</text>
</g>
<!-- Rdcmitype:StillImage -->
<g id="node21" class="node">
<title>Rdcmitype:StillImage</title>
<ellipse fill="none" stroke="#0000ff" cx="1876.5952" cy="-515" rx="83.3857" ry="18"/>
<text text-anchor="middle" x="1876.5952" y="-511.3" font-family="Times,serif" font-size="14.00" fill="#000000">dcmitype:StillImage</text>
</g>
<!-- Rimg:MMNAT01_AF_NNM001001033_003.jpg&#45;&gt;Rdcmitype:StillImage -->
<g id="edge22" class="edge">
<title>Rimg:MMNAT01_AF_NNM001001033_003.jpg&#45;&gt;Rdcmitype:StillImage</title>
<path fill="none" stroke="#000000" d="M1349.3412,-449.4867C1383.1244,-455.0558 1421.5704,-461.3545 1456.5952,-467 1515.676,-476.523 1530.2202,-480.5271 1589.5952,-488 1655.994,-496.3569 1731.3335,-503.3503 1788.1566,-508.1244"/>
<polygon fill="#000000" stroke="#000000" points="1787.9295,-511.6175 1798.1856,-508.9602 1788.5109,-504.6417 1787.9295,-511.6175"/>
<text text-anchor="middle" x="1514.0952" y="-489.8" font-family="Times,serif" font-size="14.00" fill="#000000">rdf:type</text>
</g>
<!-- Rdsw:Token -->
<g id="node22" class="node">
<title>Rdsw:Token</title>
<ellipse fill="none" stroke="#0000ff" cx="1876.5952" cy="-461" rx="50.0912" ry="18"/>
<text text-anchor="middle" x="1876.5952" y="-457.3" font-family="Times,serif" font-size="14.00" fill="#000000">dsw:Token</text>
</g>
<!-- Rimg:MMNAT01_AF_NNM001001033_003.jpg&#45;&gt;Rdsw:Token -->
<g id="edge23" class="edge">
<title>Rimg:MMNAT01_AF_NNM001001033_003.jpg&#45;&gt;Rdsw:Token</title>
<path fill="none" stroke="#000000" d="M1423.0963,-441.271C1553.427,-446.9409 1726.9153,-454.4883 1816.8481,-458.4008"/>
<polygon fill="#000000" stroke="#000000" points="1816.7237,-461.8986 1826.8664,-458.8366 1817.028,-454.9052 1816.7237,-461.8986"/>
<text text-anchor="middle" x="1514.0952" y="-451.8" font-family="Times,serif" font-size="14.00" fill="#000000">rdf:type</text>
</g>
<!-- Rdwc:HumanObservation -->
<g id="node23" class="node">
<title>Rdwc:HumanObservation</title>
<ellipse fill="none" stroke="#0000ff" cx="1876.5952" cy="-407" rx="96.6831" ry="18"/>
<text text-anchor="middle" x="1876.5952" y="-403.3" font-family="Times,serif" font-size="14.00" fill="#000000">dwc:HumanObservation</text>
</g>
<!-- Rimg:MMNAT01_AF_NNM001001033_003.jpg&#45;&gt;Rdwc:HumanObservation -->
<g id="edge24" class="edge">
<title>Rimg:MMNAT01_AF_NNM001001033_003.jpg&#45;&gt;Rdwc:HumanObservation</title>
<path fill="none" stroke="#000000" d="M1418.5633,-425.7666C1431.4308,-425.1544 1444.227,-424.5585 1456.5952,-424 1563.7783,-419.1598 1686.3782,-414.272 1771.3345,-410.9877"/>
<polygon fill="#000000" stroke="#000000" points="1771.6473,-414.4784 1781.5048,-410.5953 1771.3773,-407.4836 1771.6473,-414.4784"/>
<text text-anchor="middle" x="1514.0952" y="-427.8" font-family="Times,serif" font-size="14.00" fill="#000000">rdf:type</text>
</g>
<!-- Roa:Source -->
<g id="node24" class="node">
<title>Roa:Source</title>
<ellipse fill="none" stroke="#0000ff" cx="1876.5952" cy="-353" rx="46.2923" ry="18"/>
<text text-anchor="middle" x="1876.5952" y="-349.3" font-family="Times,serif" font-size="14.00" fill="#000000">oa:Source</text>
</g>
<!-- Rimg:MMNAT01_AF_NNM001001033_003.jpg&#45;&gt;Roa:Source -->
<g id="edge25" class="edge">
<title>Rimg:MMNAT01_AF_NNM001001033_003.jpg&#45;&gt;Roa:Source</title>
<path fill="none" stroke="#000000" d="M1349.3412,-418.5133C1383.1244,-412.9442 1421.5704,-406.6455 1456.5952,-401 1515.676,-391.477 1530.2202,-387.4729 1589.5952,-380 1669.9295,-369.8892 1763.3513,-361.7743 1821.2335,-357.1708"/>
<polygon fill="#000000" stroke="#000000" points="1821.5706,-360.6552 1831.2646,-356.3799 1821.0204,-353.6768 1821.5706,-360.6552"/>
<text text-anchor="middle" x="1514.0952" y="-404.8" font-family="Times,serif" font-size="14.00" fill="#000000">rdf:type</text>
</g>
<!-- Rfoaf:Image -->
<g id="node25" class="node">
<title>Rfoaf:Image</title>
<ellipse fill="none" stroke="#0000ff" cx="1876.5952" cy="-299" rx="50.0912" ry="18"/>
<text text-anchor="middle" x="1876.5952" y="-295.3" font-family="Times,serif" font-size="14.00" fill="#000000">foaf:Image</text>
</g>
<!-- Rimg:MMNAT01_AF_NNM001001033_003.jpg&#45;&gt;Rfoaf:Image -->
<g id="edge26" class="edge">
<title>Rimg:MMNAT01_AF_NNM001001033_003.jpg&#45;&gt;Rfoaf:Image</title>
<path fill="none" stroke="#000000" d="M1303.5384,-416.5357C1344.0295,-401.881 1403.8453,-380.7226 1456.5952,-364 1515.1974,-345.4221 1529.1796,-337.3718 1589.5952,-326 1667.1941,-311.3938 1758.1577,-304.5358 1816.5367,-301.4235"/>
<polygon fill="#000000" stroke="#000000" points="1816.8823,-304.9105 1826.6898,-300.9025 1816.5236,-297.9197 1816.8823,-304.9105"/>
<text text-anchor="middle" x="1514.0952" y="-367.8" font-family="Times,serif" font-size="14.00" fill="#000000">rdf:type</text>
</g>
</g>
</svg>
