<?xml version="1.0" encoding="UTF-8" standalone="no"?>
<!DOCTYPE svg PUBLIC "-//W3C//DTD SVG 1.1//EN"
 "http://www.w3.org/Graphics/SVG/1.1/DTD/svg11.dtd">
<!-- Generated by graphviz version 2.40.1 (20161225.0304)
 -->
<!-- Title: %3 Pages: 1 -->
<svg width="2176pt" height="1041pt"
 viewBox="0.00 0.00 2175.60 1041.00" xmlns="http://www.w3.org/2000/svg" xmlns:xlink="http://www.w3.org/1999/xlink">
<g id="graph0" class="graph" transform="scale(1 1) rotate(0) translate(4 1037)">
<title>%3</title>
<polygon fill="#ffffff" stroke="transparent" points="-4,4 -4,-1037 2171.5952,-1037 2171.5952,4 -4,4"/>
<text text-anchor="middle" x="1083.7976" y="-218.8" font-family="Times,serif" font-size="14.00" fill="#000000">Model:</text>
<text text-anchor="middle" x="1083.7976" y="-203.8" font-family="Times,serif" font-size="14.00" fill="#000000">(Unknown)</text>
<text text-anchor="middle" x="1083.7976" y="-172.8" font-family="Times,serif" font-size="14.00" fill="#000000">Namespaces:</text>
<text text-anchor="middle" x="1083.7976" y="-157.8" font-family="Times,serif" font-size="14.00" fill="#000000">dcmitype: http://purl.org/dc/dcmitype/</text>
<text text-anchor="middle" x="1083.7976" y="-142.8" font-family="Times,serif" font-size="14.00" fill="#000000">dcterms: http://purl.org/dc/terms/</text>
<text text-anchor="middle" x="1083.7976" y="-127.8" font-family="Times,serif" font-size="14.00" fill="#000000">dsw: http://purl.org/dsw/</text>
<text text-anchor="middle" x="1083.7976" y="-112.8" font-family="Times,serif" font-size="14.00" fill="#000000">dwc: http://rs.tdwg.org/dwc/terms/</text>
<text text-anchor="middle" x="1083.7976" y="-97.8" font-family="Times,serif" font-size="14.00" fill="#000000">foaf: http://xmlns.com/foaf/0.1/</text>
<text text-anchor="middle" x="1083.7976" y="-82.8" font-family="Times,serif" font-size="14.00" fill="#000000">img: http://localhost:8080/semanticAnnotator/files/</text>
<text text-anchor="middle" x="1083.7976" y="-67.8" font-family="Times,serif" font-size="14.00" fill="#000000">iso: http://iso639&#45;3.sil.org/code/</text>
<text text-anchor="middle" x="1083.7976" y="-52.8" font-family="Times,serif" font-size="14.00" fill="#000000">mf: http://www.w3.org/TR/media&#45;frags/</text>
<text text-anchor="middle" x="1083.7976" y="-37.8" font-family="Times,serif" font-size="14.00" fill="#000000">oa: http://www.w3.org/ns/oa#</text>
<text text-anchor="middle" x="1083.7976" y="-22.8" font-family="Times,serif" font-size="14.00" fill="#000000">orcid: http://orcid.org/</text>
<text text-anchor="middle" x="1083.7976" y="-7.8" font-family="Times,serif" font-size="14.00" fill="#000000">rdf: http://www.w3.org/1999/02/22&#45;rdf&#45;syntax&#45;ns#</text>
<!-- Rhttp://localhost:8080/rdf/nc/annotation/19b229b0&#45;b068&#45;499f&#45;98b2&#45;0e05007f4d52 -->
<g id="node1" class="node">
<title>Rhttp://localhost:8080/rdf/nc/annotation/19b229b0&#45;b068&#45;499f&#45;98b2&#45;0e05007f4d52</title>
<ellipse fill="none" stroke="#0000ff" cx="297.6736" cy="-865" rx="297.8473" ry="18"/>
<text text-anchor="middle" x="297.6736" y="-861.3" font-family="Times,serif" font-size="14.00" fill="#000000">http://localhost:8080/rdf/nc/annotation/19b229b0&#45;b068&#45;499f&#45;98b2&#45;0e05007f4d52</text>
</g>
<!-- Roa:Annotation -->
<g id="node2" class="node">
<title>Roa:Annotation</title>
<ellipse fill="none" stroke="#0000ff" cx="829.8374" cy="-998" rx="61.1893" ry="18"/>
<text text-anchor="middle" x="829.8374" y="-994.3" font-family="Times,serif" font-size="14.00" fill="#000000">oa:Annotation</text>
</g>
<!-- Rhttp://localhost:8080/rdf/nc/annotation/19b229b0&#45;b068&#45;499f&#45;98b2&#45;0e05007f4d52&#45;&gt;Roa:Annotation -->
<g id="edge1" class="edge">
<title>Rhttp://localhost:8080/rdf/nc/annotation/19b229b0&#45;b068&#45;499f&#45;98b2&#45;0e05007f4d52&#45;&gt;Roa:Annotation</title>
<path fill="none" stroke="#000000" d="M367.0314,-882.5844C450.5658,-903.7285 595.1586,-940.2174 719.3472,-971 736.6511,-975.2891 755.4919,-979.911 772.6334,-984.0975"/>
<polygon fill="#000000" stroke="#000000" points="771.9606,-987.536 782.5052,-986.5064 773.62,-980.7355 771.9606,-987.536"/>
<text text-anchor="middle" x="657.3472" y="-968.8" font-family="Times,serif" font-size="14.00" fill="#000000">rdf:type</text>
</g>
<!-- Rorcid:0000&#45;0002&#45;2146&#45;4803 -->
<g id="node3" class="node">
<title>Rorcid:0000&#45;0002&#45;2146&#45;4803</title>
<ellipse fill="none" stroke="#0000ff" cx="829.8374" cy="-944" rx="110.4804" ry="18"/>
<text text-anchor="middle" x="829.8374" y="-940.3" font-family="Times,serif" font-size="14.00" fill="#000000">orcid:0000&#45;0002&#45;2146&#45;4803</text>
</g>
<!-- Rhttp://localhost:8080/rdf/nc/annotation/19b229b0&#45;b068&#45;499f&#45;98b2&#45;0e05007f4d52&#45;&gt;Rorcid:0000&#45;0002&#45;2146&#45;4803 -->
<g id="edge2" class="edge">
<title>Rhttp://localhost:8080/rdf/nc/annotation/19b229b0&#45;b068&#45;499f&#45;98b2&#45;0e05007f4d52&#45;&gt;Rorcid:0000&#45;0002&#45;2146&#45;4803</title>
<path fill="none" stroke="#000000" d="M410.2066,-881.7056C507.668,-896.1738 646.9135,-916.8449 737.8339,-930.342"/>
<polygon fill="#000000" stroke="#000000" points="737.4449,-933.8226 747.8505,-931.829 738.4728,-926.8984 737.4449,-933.8226"/>
<text text-anchor="middle" x="657.3472" y="-927.8" font-family="Times,serif" font-size="14.00" fill="#000000">dcterms:creator</text>
</g>
<!-- L2021&#45;01&#45;12T14:23:11.646Z|Datatype: dcterms:W3CDTF -->
<g id="node4" class="node">
<title>L2021&#45;01&#45;12T14:23:11.646Z|Datatype: dcterms:W3CDTF</title>
<polygon fill="none" stroke="#000000" points="742.3374,-861 742.3374,-907 917.3374,-907 917.3374,-861 742.3374,-861"/>
<text text-anchor="middle" x="829.8374" y="-891.8" font-family="Times,serif" font-size="14.00" fill="#000000">2021&#45;01&#45;12T14:23:11.646Z</text>
<polyline fill="none" stroke="#000000" points="742.3374,-884 917.3374,-884 "/>
<text text-anchor="middle" x="829.8374" y="-868.8" font-family="Times,serif" font-size="14.00" fill="#000000">Datatype: dcterms:W3CDTF</text>
</g>
<!-- Rhttp://localhost:8080/rdf/nc/annotation/19b229b0&#45;b068&#45;499f&#45;98b2&#45;0e05007f4d52&#45;&gt;L2021&#45;01&#45;12T14:23:11.646Z|Datatype: dcterms:W3CDTF -->
<g id="edge3" class="edge">
<title>Rhttp://localhost:8080/rdf/nc/annotation/19b229b0&#45;b068&#45;499f&#45;98b2&#45;0e05007f4d52&#45;&gt;L2021&#45;01&#45;12T14:23:11.646Z|Datatype: dcterms:W3CDTF</title>
<path fill="none" stroke="#000000" d="M554.0132,-874.1522C617.3543,-876.4137 681.4324,-878.7015 731.8643,-880.502"/>
<polygon fill="#000000" stroke="#000000" points="731.9701,-884.008 742.0886,-880.8671 732.2199,-877.0124 731.9701,-884.008"/>
<text text-anchor="middle" x="657.3472" y="-882.8" font-family="Times,serif" font-size="14.00" fill="#000000">dcterms:date</text>
</g>
<!-- B_:node1euqlam8lx300 -->
<g id="node5" class="node">
<title>B_:node1euqlam8lx300</title>
<ellipse fill="none" stroke="#00ff00" cx="829.8374" cy="-824" rx="18" ry="18"/>
</g>
<!-- Rhttp://localhost:8080/rdf/nc/annotation/19b229b0&#45;b068&#45;499f&#45;98b2&#45;0e05007f4d52&#45;&gt;B_:node1euqlam8lx300 -->
<g id="edge4" class="edge">
<title>Rhttp://localhost:8080/rdf/nc/annotation/19b229b0&#45;b068&#45;499f&#45;98b2&#45;0e05007f4d52&#45;&gt;B_:node1euqlam8lx300</title>
<path fill="none" stroke="#000000" d="M481.5593,-850.8327C599.7805,-841.7245 742.0069,-830.7668 801.506,-826.1828"/>
<polygon fill="#000000" stroke="#000000" points="801.927,-829.6608 811.6286,-825.4029 801.3893,-822.6815 801.927,-829.6608"/>
<text text-anchor="middle" x="657.3472" y="-842.8" font-family="Times,serif" font-size="14.00" fill="#000000">oa:hasBody</text>
</g>
<!-- B_:node1euqlam8lx299 -->
<g id="node11" class="node">
<title>B_:node1euqlam8lx299</title>
<ellipse fill="none" stroke="#00ff00" cx="829.8374" cy="-665" rx="18" ry="18"/>
</g>
<!-- Rhttp://localhost:8080/rdf/nc/annotation/19b229b0&#45;b068&#45;499f&#45;98b2&#45;0e05007f4d52&#45;&gt;B_:node1euqlam8lx299 -->
<g id="edge10" class="edge">
<title>Rhttp://localhost:8080/rdf/nc/annotation/19b229b0&#45;b068&#45;499f&#45;98b2&#45;0e05007f4d52&#45;&gt;B_:node1euqlam8lx299</title>
<path fill="none" stroke="#000000" d="M345.3679,-847.0753C454.4605,-806.0757 719.2649,-706.5558 803.5866,-674.8657"/>
<polygon fill="#000000" stroke="#000000" points="804.823,-678.1401 812.9524,-671.3458 802.3603,-671.5876 804.823,-678.1401"/>
<text text-anchor="middle" x="657.3472" y="-744.8" font-family="Times,serif" font-size="14.00" fill="#000000">oa:hasTarget</text>
</g>
<!-- Roa:describing -->
<g id="node19" class="node">
<title>Roa:describing</title>
<ellipse fill="none" stroke="#0000ff" cx="829.8374" cy="-611" rx="57.6901" ry="18"/>
<text text-anchor="middle" x="829.8374" y="-607.3" font-family="Times,serif" font-size="14.00" fill="#000000">oa:describing</text>
</g>
<!-- Rhttp://localhost:8080/rdf/nc/annotation/19b229b0&#45;b068&#45;499f&#45;98b2&#45;0e05007f4d52&#45;&gt;Roa:describing -->
<g id="edge18" class="edge">
<title>Rhttp://localhost:8080/rdf/nc/annotation/19b229b0&#45;b068&#45;499f&#45;98b2&#45;0e05007f4d52&#45;&gt;Roa:describing</title>
<path fill="none" stroke="#000000" d="M325.0866,-846.9172C390.5664,-804.4828 562.3375,-697.6104 719.3472,-638 735.476,-631.8765 753.4649,-626.7879 770.1657,-622.7411"/>
<polygon fill="#000000" stroke="#000000" points="771.4288,-626.0403 780.3697,-620.356 769.8356,-619.224 771.4288,-626.0403"/>
<text text-anchor="middle" x="657.3472" y="-682.8" font-family="Times,serif" font-size="14.00" fill="#000000">oa:motivatedBy</text>
</g>
<!-- Rfoaf:Person -->
<g id="node20" class="node">
<title>Rfoaf:Person</title>
<ellipse fill="none" stroke="#0000ff" cx="1255.9614" cy="-1015" rx="51.1914" ry="18"/>
<text text-anchor="middle" x="1255.9614" y="-1011.3" font-family="Times,serif" font-size="14.00" fill="#000000">foaf:Person</text>
</g>
<!-- Rorcid:0000&#45;0002&#45;2146&#45;4803&#45;&gt;Rfoaf:Person -->
<g id="edge19" class="edge">
<title>Rorcid:0000&#45;0002&#45;2146&#45;4803&#45;&gt;Rfoaf:Person</title>
<path fill="none" stroke="#000000" d="M893.3799,-958.7837C914.0322,-963.3373 937.0972,-968.1582 958.3276,-972 1040.8882,-986.94 1137.0818,-1000.0678 1197.258,-1007.7712"/>
<polygon fill="#000000" stroke="#000000" points="1196.9687,-1011.2625 1207.3305,-1009.053 1197.8524,-1004.3185 1196.9687,-1011.2625"/>
<text text-anchor="middle" x="1006.8276" y="-989.8" font-family="Times,serif" font-size="14.00" fill="#000000">rdf:type</text>
</g>
<!-- Rdwc:Event -->
<g id="node6" class="node">
<title>Rdwc:Event</title>
<ellipse fill="none" stroke="#0000ff" cx="1255.9614" cy="-961" rx="48.1917" ry="18"/>
<text text-anchor="middle" x="1255.9614" y="-957.3" font-family="Times,serif" font-size="14.00" fill="#000000">dwc:Event</text>
</g>
<!-- B_:node1euqlam8lx300&#45;&gt;Rdwc:Event -->
<g id="edge5" class="edge">
<title>B_:node1euqlam8lx300&#45;&gt;Rdwc:Event</title>
<path fill="none" stroke="#000000" d="M848.1145,-823.8793C872.0343,-824.6802 913.9988,-829.5045 940.3276,-852 955.7679,-865.1924 943.4723,-880.152 958.3276,-894 997.9108,-930.8993 1020.7737,-921.0971 1073.3276,-934 1114.8322,-944.1901 1162.6474,-951.0899 1198.9397,-955.3624"/>
<polygon fill="#000000" stroke="#000000" points="1199.0002,-958.8921 1209.3332,-956.5515 1199.7959,-951.9375 1199.0002,-958.8921"/>
<text text-anchor="middle" x="1006.8276" y="-932.8" font-family="Times,serif" font-size="14.00" fill="#000000">rdf:type</text>
</g>
<!-- Roa:TextualBody -->
<g id="node7" class="node">
<title>Roa:TextualBody</title>
<ellipse fill="none" stroke="#0000ff" cx="1255.9614" cy="-907" rx="67.6881" ry="18"/>
<text text-anchor="middle" x="1255.9614" y="-903.3" font-family="Times,serif" font-size="14.00" fill="#000000">oa:TextualBody</text>
</g>
<!-- B_:node1euqlam8lx300&#45;&gt;Roa:TextualBody -->
<g id="edge6" class="edge">
<title>B_:node1euqlam8lx300&#45;&gt;Roa:TextualBody</title>
<path fill="none" stroke="#000000" d="M847.4747,-828.3382C869.3106,-833.7394 907.6225,-843.3148 940.3276,-852 948.3523,-854.1311 950.2513,-855.0734 958.3276,-857 1034.8122,-875.2452 1123.9032,-889.2814 1184.5378,-897.7735"/>
<polygon fill="#000000" stroke="#000000" points="1184.3817,-901.2852 1194.7676,-899.1914 1185.3428,-894.3515 1184.3817,-901.2852"/>
<text text-anchor="middle" x="1006.8276" y="-878.8" font-family="Times,serif" font-size="14.00" fill="#000000">rdf:type</text>
</g>
<!-- Ltext/plain -->
<g id="node8" class="node">
<title>Ltext/plain</title>
<polygon fill="none" stroke="#000000" points="1221.9614,-834 1221.9614,-870 1289.9614,-870 1289.9614,-834 1221.9614,-834"/>
<text text-anchor="middle" x="1255.9614" y="-848.3" font-family="Times,serif" font-size="14.00" fill="#000000">text/plain</text>
</g>
<!-- B_:node1euqlam8lx300&#45;&gt;Ltext/plain -->
<g id="edge7" class="edge">
<title>B_:node1euqlam8lx300&#45;&gt;Ltext/plain</title>
<path fill="none" stroke="#000000" d="M847.8752,-825.1852C910.4897,-829.2995 1119.6428,-843.0427 1211.7597,-849.0956"/>
<polygon fill="#000000" stroke="#000000" points="1211.6655,-852.5968 1221.8735,-849.7601 1212.1246,-845.6119 1211.6655,-852.5968"/>
<text text-anchor="middle" x="1006.8276" y="-841.8" font-family="Times,serif" font-size="14.00" fill="#000000">dcterms:format</text>
</g>
<!-- Riso:ger -->
<g id="node9" class="node">
<title>Riso:ger</title>
<ellipse fill="none" stroke="#0000ff" cx="1255.9614" cy="-797" rx="34.394" ry="18"/>
<text text-anchor="middle" x="1255.9614" y="-793.3" font-family="Times,serif" font-size="14.00" fill="#000000">iso:ger</text>
</g>
<!-- B_:node1euqlam8lx300&#45;&gt;Riso:ger -->
<g id="edge8" class="edge">
<title>B_:node1euqlam8lx300&#45;&gt;Riso:ger</title>
<path fill="none" stroke="#000000" d="M848.1326,-822.6635C873.0499,-820.8558 919.054,-817.563 958.3276,-815 1048.0504,-809.1448 1153.033,-802.9489 1211.2667,-799.5699"/>
<polygon fill="#000000" stroke="#000000" points="1211.8011,-803.0449 1221.582,-798.9725 1211.3963,-796.0566 1211.8011,-803.0449"/>
<text text-anchor="middle" x="1006.8276" y="-818.8" font-family="Times,serif" font-size="14.00" fill="#000000">dcterms:language</text>
</g>
<!-- L10 April 1821|Language: ger -->
<g id="node10" class="node">
<title>L10 April 1821|Language: ger</title>
<polygon fill="none" stroke="#000000" points="1840.0952,-788 1840.0952,-834 1935.0952,-834 1935.0952,-788 1840.0952,-788"/>
<text text-anchor="middle" x="1887.5952" y="-818.8" font-family="Times,serif" font-size="14.00" fill="#000000">10 April 1821</text>
<polyline fill="none" stroke="#000000" points="1840.0952,-811 1935.0952,-811 "/>
<text text-anchor="middle" x="1887.5952" y="-795.8" font-family="Times,serif" font-size="14.00" fill="#000000">Language: ger</text>
</g>
<!-- B_:node1euqlam8lx300&#45;&gt;L10 April 1821|Language: ger -->
<g id="edge9" class="edge">
<title>B_:node1euqlam8lx300&#45;&gt;L10 April 1821|Language: ger</title>
<path fill="none" stroke="#000000" d="M846.9047,-817.3866C886.1354,-802.5822 986.0719,-767.1245 1073.3276,-755 1355.4523,-715.7977 1696.5616,-772.6862 1830.0809,-798.9332"/>
<polygon fill="#000000" stroke="#000000" points="1829.5988,-802.4057 1840.0889,-800.9199 1830.9618,-795.5397 1829.5988,-802.4057"/>
<text text-anchor="middle" x="1255.9614" y="-758.8" font-family="Times,serif" font-size="14.00" fill="#000000">rdf:value</text>
</g>
<!-- Rdwc:Event&#45;&gt;L10 April 1821|Language: ger -->
<g id="edge25" class="edge">
<title>Rdwc:Event&#45;&gt;L10 April 1821|Language: ger</title>
<path fill="none" stroke="#000000" d="M1302.0177,-955.7523C1339.1106,-951.1519 1392.4855,-943.6872 1438.5952,-934 1581.0628,-904.069 1745.3244,-855.3668 1830.1856,-829.1247"/>
<polygon fill="#000000" stroke="#000000" points="1831.3717,-832.4213 1839.8858,-826.1158 1829.2978,-825.7356 1831.3717,-832.4213"/>
<text text-anchor="middle" x="1523.0952" y="-931.8" font-family="Times,serif" font-size="14.00" fill="#000000">dwc:verbatimEventDate</text>
</g>
<!-- Roa:Target -->
<g id="node12" class="node">
<title>Roa:Target</title>
<ellipse fill="none" stroke="#0000ff" cx="1255.9614" cy="-692" rx="44.393" ry="18"/>
<text text-anchor="middle" x="1255.9614" y="-688.3" font-family="Times,serif" font-size="14.00" fill="#000000">oa:Target</text>
</g>
<!-- B_:node1euqlam8lx299&#45;&gt;Roa:Target -->
<g id="edge11" class="edge">
<title>B_:node1euqlam8lx299&#45;&gt;Roa:Target</title>
<path fill="none" stroke="#000000" d="M847.8752,-666.1429C908.4005,-669.9779 1105.8487,-682.4886 1202.1579,-688.5909"/>
<polygon fill="#000000" stroke="#000000" points="1202.0699,-692.0923 1212.2712,-689.2317 1202.5126,-685.1063 1202.0699,-692.0923"/>
<text text-anchor="middle" x="1006.8276" y="-681.8" font-family="Times,serif" font-size="14.00" fill="#000000">rdf:type</text>
</g>
<!-- Limage/jpeg -->
<g id="node13" class="node">
<title>Limage/jpeg</title>
<polygon fill="none" stroke="#000000" points="1217.4614,-619 1217.4614,-655 1294.4614,-655 1294.4614,-619 1217.4614,-619"/>
<text text-anchor="middle" x="1255.9614" y="-633.3" font-family="Times,serif" font-size="14.00" fill="#000000">image/jpeg</text>
</g>
<!-- B_:node1euqlam8lx299&#45;&gt;Limage/jpeg -->
<g id="edge12" class="edge">
<title>B_:node1euqlam8lx299&#45;&gt;Limage/jpeg</title>
<path fill="none" stroke="#000000" d="M848.1235,-663.2703C873.0305,-660.9519 919.023,-656.8043 958.3276,-654 1045.9901,-647.7454 1148.3084,-642.3087 1207.2716,-639.3567"/>
<polygon fill="#000000" stroke="#000000" points="1207.5972,-642.8449 1217.4109,-638.8522 1207.2493,-635.8536 1207.5972,-642.8449"/>
<text text-anchor="middle" x="1006.8276" y="-657.8" font-family="Times,serif" font-size="14.00" fill="#000000">dcterms:format</text>
</g>
<!-- B_:node1euqlam8lx302 -->
<g id="node14" class="node">
<title>B_:node1euqlam8lx302</title>
<ellipse fill="none" stroke="#00ff00" cx="1255.9614" cy="-582" rx="18" ry="18"/>
</g>
<!-- B_:node1euqlam8lx299&#45;&gt;B_:node1euqlam8lx302 -->
<g id="edge13" class="edge">
<title>B_:node1euqlam8lx299&#45;&gt;B_:node1euqlam8lx302</title>
<path fill="none" stroke="#000000" d="M847.8069,-661.8937C869.9777,-657.7708 908.6271,-649.6312 940.3276,-638 948.7245,-634.9191 949.8315,-631.7959 958.3276,-629 1053.8616,-597.5615 1173.7681,-586.8356 1227.5592,-583.4433"/>
<polygon fill="#000000" stroke="#000000" points="1227.9303,-586.9276 1237.7058,-582.8422 1227.5163,-579.9398 1227.9303,-586.9276"/>
<text text-anchor="middle" x="1006.8276" y="-632.8" font-family="Times,serif" font-size="14.00" fill="#000000">oa:hasSelector</text>
</g>
<!-- Rimg:MMNAT01_AF_NNM001001033_004.jpg -->
<g id="node18" class="node">
<title>Rimg:MMNAT01_AF_NNM001001033_004.jpg</title>
<ellipse fill="none" stroke="#0000ff" cx="1255.9614" cy="-419" rx="182.7677" ry="18"/>
<text text-anchor="middle" x="1255.9614" y="-415.3" font-family="Times,serif" font-size="14.00" fill="#000000">img:MMNAT01_AF_NNM001001033_004.jpg</text>
</g>
<!-- B_:node1euqlam8lx299&#45;&gt;Rimg:MMNAT01_AF_NNM001001033_004.jpg -->
<g id="edge17" class="edge">
<title>B_:node1euqlam8lx299&#45;&gt;Rimg:MMNAT01_AF_NNM001001033_004.jpg</title>
<path fill="none" stroke="#000000" d="M847.9352,-665.5929C872.0428,-665.3859 914.6301,-661.3987 940.3276,-638 958.4109,-621.5343 942.6404,-604.7626 958.3276,-586 1020.3606,-511.8054 1124.2844,-464.3334 1191.4632,-439.6694"/>
<polygon fill="#000000" stroke="#000000" points="1192.8786,-442.8797 1201.0988,-436.1955 1190.5044,-436.2946 1192.8786,-442.8797"/>
<text text-anchor="middle" x="1006.8276" y="-589.8" font-family="Times,serif" font-size="14.00" fill="#000000">oa:hasSource</text>
</g>
<!-- Roa:FragmentSelector -->
<g id="node15" class="node">
<title>Roa:FragmentSelector</title>
<ellipse fill="none" stroke="#0000ff" cx="1887.5952" cy="-664" rx="84.485" ry="18"/>
<text text-anchor="middle" x="1887.5952" y="-660.3" font-family="Times,serif" font-size="14.00" fill="#000000">oa:FragmentSelector</text>
</g>
<!-- B_:node1euqlam8lx302&#45;&gt;Roa:FragmentSelector -->
<g id="edge14" class="edge">
<title>B_:node1euqlam8lx302&#45;&gt;Roa:FragmentSelector</title>
<path fill="none" stroke="#000000" d="M1274.0472,-583.6146C1307.071,-586.7961 1379.2041,-594.8267 1438.5952,-609 1446.7976,-610.9575 1448.3907,-613.0511 1456.5952,-615 1570.9476,-642.1628 1706.0614,-654.418 1794.1204,-659.8467"/>
<polygon fill="#000000" stroke="#000000" points="1794.1632,-663.3555 1804.3547,-660.46 1794.582,-656.368 1794.1632,-663.3555"/>
<text text-anchor="middle" x="1523.0952" y="-641.8" font-family="Times,serif" font-size="14.00" fill="#000000">rdf:type</text>
</g>
<!-- Rmf: -->
<g id="node16" class="node">
<title>Rmf:</title>
<ellipse fill="none" stroke="#0000ff" cx="1887.5952" cy="-610" rx="27" ry="18"/>
<text text-anchor="middle" x="1887.5952" y="-606.3" font-family="Times,serif" font-size="14.00" fill="#000000">mf:</text>
</g>
<!-- B_:node1euqlam8lx302&#45;&gt;Rmf: -->
<g id="edge15" class="edge">
<title>B_:node1euqlam8lx302&#45;&gt;Rmf:</title>
<path fill="none" stroke="#000000" d="M1274.1837,-582.8078C1360.7721,-586.6462 1731.3756,-603.0749 1850.5377,-608.3573"/>
<polygon fill="#000000" stroke="#000000" points="1850.4799,-611.858 1860.6252,-608.8044 1850.79,-604.8649 1850.4799,-611.858"/>
<text text-anchor="middle" x="1523.0952" y="-599.8" font-family="Times,serif" font-size="14.00" fill="#000000">dcterms:conformsTo</text>
</g>
<!-- Lxywh=0.672574339819018,0.030544471154748218,0.06203976435935199,0.01601620029455081 -->
<g id="node17" class="node">
<title>Lxywh=0.672574339819018,0.030544471154748218,0.06203976435935199,0.01601620029455081</title>
<polygon fill="none" stroke="#000000" points="1607.5952,-537 1607.5952,-573 2167.5952,-573 2167.5952,-537 1607.5952,-537"/>
<text text-anchor="middle" x="1887.5952" y="-551.3" font-family="Times,serif" font-size="14.00" fill="#000000">xywh=0.672574339819018,0.030544471154748218,0.06203976435935199,0.01601620029455081</text>
</g>
<!-- B_:node1euqlam8lx302&#45;&gt;Lxywh=0.672574339819018,0.030544471154748218,0.06203976435935199,0.01601620029455081 -->
<g id="edge16" class="edge">
<title>B_:node1euqlam8lx302&#45;&gt;Lxywh=0.672574339819018,0.030544471154748218,0.06203976435935199,0.01601620029455081</title>
<path fill="none" stroke="#000000" d="M1273.9453,-581.1746C1309.0558,-579.5674 1389.1902,-575.9193 1456.5952,-573 1502.0868,-571.0297 1550.2812,-568.98 1597.3284,-566.9997"/>
<polygon fill="#000000" stroke="#000000" points="1597.5049,-570.4955 1607.349,-566.5783 1597.2107,-563.5017 1597.5049,-570.4955"/>
<text text-anchor="middle" x="1523.0952" y="-576.8" font-family="Times,serif" font-size="14.00" fill="#000000">rdf:value</text>
</g>
<!-- Rdcmitype:StillImage -->
<g id="node21" class="node">
<title>Rdcmitype:StillImage</title>
<ellipse fill="none" stroke="#0000ff" cx="1887.5952" cy="-500" rx="83.3857" ry="18"/>
<text text-anchor="middle" x="1887.5952" y="-496.3" font-family="Times,serif" font-size="14.00" fill="#000000">dcmitype:StillImage</text>
</g>
<!-- Rimg:MMNAT01_AF_NNM001001033_004.jpg&#45;&gt;Rdcmitype:StillImage -->
<g id="edge20" class="edge">
<title>Rimg:MMNAT01_AF_NNM001001033_004.jpg&#45;&gt;Rdcmitype:StillImage</title>
<path fill="none" stroke="#000000" d="M1347.7761,-434.5934C1381.9143,-440.2617 1420.9964,-446.5978 1456.5952,-452 1523.5852,-462.1659 1540.3026,-465.0798 1607.5952,-473 1671.8615,-480.564 1744.6123,-487.5312 1799.8479,-492.493"/>
<polygon fill="#000000" stroke="#000000" points="1799.6799,-495.9918 1809.9517,-493.3958 1800.3029,-489.0196 1799.6799,-495.9918"/>
<text text-anchor="middle" x="1523.0952" y="-474.8" font-family="Times,serif" font-size="14.00" fill="#000000">rdf:type</text>
</g>
<!-- Rdsw:Token -->
<g id="node22" class="node">
<title>Rdsw:Token</title>
<ellipse fill="none" stroke="#0000ff" cx="1887.5952" cy="-446" rx="50.0912" ry="18"/>
<text text-anchor="middle" x="1887.5952" y="-442.3" font-family="Times,serif" font-size="14.00" fill="#000000">dsw:Token</text>
</g>
<!-- Rimg:MMNAT01_AF_NNM001001033_004.jpg&#45;&gt;Rdsw:Token -->
<g id="edge21" class="edge">
<title>Rimg:MMNAT01_AF_NNM001001033_004.jpg&#45;&gt;Rdsw:Token</title>
<path fill="none" stroke="#000000" d="M1423.5693,-426.1646C1556.7692,-431.8584 1735.4583,-439.4967 1827.3844,-443.4262"/>
<polygon fill="#000000" stroke="#000000" points="1827.4782,-446.9333 1837.6186,-443.8637 1827.7772,-439.9397 1827.4782,-446.9333"/>
<text text-anchor="middle" x="1523.0952" y="-436.8" font-family="Times,serif" font-size="14.00" fill="#000000">rdf:type</text>
</g>
<!-- Rdwc:HumanObservation -->
<g id="node23" class="node">
<title>Rdwc:HumanObservation</title>
<ellipse fill="none" stroke="#0000ff" cx="1887.5952" cy="-392" rx="96.6831" ry="18"/>
<text text-anchor="middle" x="1887.5952" y="-388.3" font-family="Times,serif" font-size="14.00" fill="#000000">dwc:HumanObservation</text>
</g>
<!-- Rimg:MMNAT01_AF_NNM001001033_004.jpg&#45;&gt;Rdwc:HumanObservation -->
<g id="edge22" class="edge">
<title>Rimg:MMNAT01_AF_NNM001001033_004.jpg&#45;&gt;Rdwc:HumanObservation</title>
<path fill="none" stroke="#000000" d="M1418.5627,-410.7525C1431.4303,-410.1435 1444.2267,-409.5521 1456.5952,-409 1567.5948,-404.0448 1694.7096,-399.1229 1781.9715,-395.8602"/>
<polygon fill="#000000" stroke="#000000" points="1782.2832,-399.3511 1792.1457,-395.4805 1782.0222,-392.356 1782.2832,-399.3511"/>
<text text-anchor="middle" x="1523.0952" y="-412.8" font-family="Times,serif" font-size="14.00" fill="#000000">rdf:type</text>
</g>
<!-- Roa:Source -->
<g id="node24" class="node">
<title>Roa:Source</title>
<ellipse fill="none" stroke="#0000ff" cx="1887.5952" cy="-338" rx="46.2923" ry="18"/>
<text text-anchor="middle" x="1887.5952" y="-334.3" font-family="Times,serif" font-size="14.00" fill="#000000">oa:Source</text>
</g>
<!-- Rimg:MMNAT01_AF_NNM001001033_004.jpg&#45;&gt;Roa:Source -->
<g id="edge23" class="edge">
<title>Rimg:MMNAT01_AF_NNM001001033_004.jpg&#45;&gt;Roa:Source</title>
<path fill="none" stroke="#000000" d="M1344.7411,-403.2447C1379.572,-397.2496 1419.9151,-390.5352 1456.5952,-385 1523.5345,-374.8984 1540.3366,-372.6946 1607.5952,-365 1685.4747,-356.0904 1775.7677,-347.7391 1832.2921,-342.7485"/>
<polygon fill="#000000" stroke="#000000" points="1832.7877,-346.2185 1842.4428,-341.8564 1832.1748,-339.2454 1832.7877,-346.2185"/>
<text text-anchor="middle" x="1523.0952" y="-388.8" font-family="Times,serif" font-size="14.00" fill="#000000">rdf:type</text>
</g>
<!-- Rfoaf:Image -->
<g id="node25" class="node">
<title>Rfoaf:Image</title>
<ellipse fill="none" stroke="#0000ff" cx="1887.5952" cy="-284" rx="50.0912" ry="18"/>
<text text-anchor="middle" x="1887.5952" y="-280.3" font-family="Times,serif" font-size="14.00" fill="#000000">foaf:Image</text>
</g>
<!-- Rimg:MMNAT01_AF_NNM001001033_004.jpg&#45;&gt;Rfoaf:Image -->
<g id="edge24" class="edge">
<title>Rimg:MMNAT01_AF_NNM001001033_004.jpg&#45;&gt;Rfoaf:Image</title>
<path fill="none" stroke="#000000" d="M1302.1988,-401.5494C1342.619,-386.6121 1403.0563,-365.0416 1456.5952,-349 1522.887,-329.1373 1539.4048,-322.799 1607.5952,-311 1682.9096,-297.9683 1770.7891,-290.7792 1827.7203,-287.1595"/>
<polygon fill="#000000" stroke="#000000" points="1828.2157,-290.6356 1837.9804,-286.5246 1827.7833,-283.649 1828.2157,-290.6356"/>
<text text-anchor="middle" x="1523.0952" y="-352.8" font-family="Times,serif" font-size="14.00" fill="#000000">rdf:type</text>
</g>
</g>
</svg>
