<?xml version="1.0" encoding="UTF-8" standalone="no"?>
<!DOCTYPE svg PUBLIC "-//W3C//DTD SVG 1.1//EN"
 "http://www.w3.org/Graphics/SVG/1.1/DTD/svg11.dtd">
<!-- Generated by graphviz version 2.40.1 (20161225.0304)
 -->
<!-- Title: %3 Pages: 1 -->
<svg width="2162pt" height="1146pt"
 viewBox="0.00 0.00 2161.80 1146.00" xmlns="http://www.w3.org/2000/svg" xmlns:xlink="http://www.w3.org/1999/xlink">
<g id="graph0" class="graph" transform="scale(1 1) rotate(0) translate(4 1142)">
<title>%3</title>
<polygon fill="#ffffff" stroke="transparent" points="-4,4 -4,-1142 2157.7958,-1142 2157.7958,4 -4,4"/>
<text text-anchor="middle" x="1076.8979" y="-248.8" font-family="Times,serif" font-size="14.00" fill="#000000">Model:</text>
<text text-anchor="middle" x="1076.8979" y="-233.8" font-family="Times,serif" font-size="14.00" fill="#000000">(Unknown)</text>
<text text-anchor="middle" x="1076.8979" y="-202.8" font-family="Times,serif" font-size="14.00" fill="#000000">Namespaces:</text>
<text text-anchor="middle" x="1076.8979" y="-187.8" font-family="Times,serif" font-size="14.00" fill="#000000">dcmitype: http://purl.org/dc/dcmitype/</text>
<text text-anchor="middle" x="1076.8979" y="-172.8" font-family="Times,serif" font-size="14.00" fill="#000000">dcterms: http://purl.org/dc/terms/</text>
<text text-anchor="middle" x="1076.8979" y="-157.8" font-family="Times,serif" font-size="14.00" fill="#000000">dsw: http://purl.org/dsw/</text>
<text text-anchor="middle" x="1076.8979" y="-142.8" font-family="Times,serif" font-size="14.00" fill="#000000">dwc: http://rs.tdwg.org/dwc/terms/</text>
<text text-anchor="middle" x="1076.8979" y="-127.8" font-family="Times,serif" font-size="14.00" fill="#000000">foaf: http://xmlns.com/foaf/0.1/</text>
<text text-anchor="middle" x="1076.8979" y="-112.8" font-family="Times,serif" font-size="14.00" fill="#000000">gbif: http://www.gbif.org/species/</text>
<text text-anchor="middle" x="1076.8979" y="-97.8" font-family="Times,serif" font-size="14.00" fill="#000000">img: http://localhost:8080/semanticAnnotator/files/</text>
<text text-anchor="middle" x="1076.8979" y="-82.8" font-family="Times,serif" font-size="14.00" fill="#000000">iso: http://iso639&#45;3.sil.org/code/</text>
<text text-anchor="middle" x="1076.8979" y="-67.8" font-family="Times,serif" font-size="14.00" fill="#000000">mf: http://www.w3.org/TR/media&#45;frags/</text>
<text text-anchor="middle" x="1076.8979" y="-52.8" font-family="Times,serif" font-size="14.00" fill="#000000">oa: http://www.w3.org/ns/oa#</text>
<text text-anchor="middle" x="1076.8979" y="-37.8" font-family="Times,serif" font-size="14.00" fill="#000000">obo: http://purl.obolibrary.org/obo/</text>
<text text-anchor="middle" x="1076.8979" y="-22.8" font-family="Times,serif" font-size="14.00" fill="#000000">orcid: http://orcid.org/</text>
<text text-anchor="middle" x="1076.8979" y="-7.8" font-family="Times,serif" font-size="14.00" fill="#000000">rdf: http://www.w3.org/1999/02/22&#45;rdf&#45;syntax&#45;ns#</text>
<!-- Rhttp://localhost:8080/rdf/nc/annotation/d5e8d8c5&#45;b68a&#45;44b0&#45;8ef2&#45;c6906e3fa54c -->
<g id="node1" class="node">
<title>Rhttp://localhost:8080/rdf/nc/annotation/d5e8d8c5&#45;b68a&#45;44b0&#45;8ef2&#45;c6906e3fa54c</title>
<ellipse fill="none" stroke="#0000ff" cx="293.7739" cy="-918" rx="293.548" ry="18"/>
<text text-anchor="middle" x="293.7739" y="-914.3" font-family="Times,serif" font-size="14.00" fill="#000000">http://localhost:8080/rdf/nc/annotation/d5e8d8c5&#45;b68a&#45;44b0&#45;8ef2&#45;c6906e3fa54c</text>
</g>
<!-- Roa:Annotation -->
<g id="node2" class="node">
<title>Roa:Annotation</title>
<ellipse fill="none" stroke="#0000ff" cx="822.0381" cy="-1051" rx="61.1893" ry="18"/>
<text text-anchor="middle" x="822.0381" y="-1047.3" font-family="Times,serif" font-size="14.00" fill="#000000">oa:Annotation</text>
</g>
<!-- Rhttp://localhost:8080/rdf/nc/annotation/d5e8d8c5&#45;b68a&#45;44b0&#45;8ef2&#45;c6906e3fa54c&#45;&gt;Roa:Annotation -->
<g id="edge1" class="edge">
<title>Rhttp://localhost:8080/rdf/nc/annotation/d5e8d8c5&#45;b68a&#45;44b0&#45;8ef2&#45;c6906e3fa54c&#45;&gt;Roa:Annotation</title>
<path fill="none" stroke="#000000" d="M362.1127,-935.5359C444.8061,-956.7099 588.2914,-993.3041 711.5479,-1024 728.8471,-1028.3082 747.6864,-1032.9357 764.8281,-1037.1215"/>
<polygon fill="#000000" stroke="#000000" points="764.1557,-1040.56 774.7002,-1039.5293 765.8144,-1033.7594 764.1557,-1040.56"/>
<text text-anchor="middle" x="649.5479" y="-1021.8" font-family="Times,serif" font-size="14.00" fill="#000000">rdf:type</text>
</g>
<!-- Rorcid:0000&#45;0002&#45;2146&#45;4803 -->
<g id="node3" class="node">
<title>Rorcid:0000&#45;0002&#45;2146&#45;4803</title>
<ellipse fill="none" stroke="#0000ff" cx="822.0381" cy="-997" rx="110.4804" ry="18"/>
<text text-anchor="middle" x="822.0381" y="-993.3" font-family="Times,serif" font-size="14.00" fill="#000000">orcid:0000&#45;0002&#45;2146&#45;4803</text>
</g>
<!-- Rhttp://localhost:8080/rdf/nc/annotation/d5e8d8c5&#45;b68a&#45;44b0&#45;8ef2&#45;c6906e3fa54c&#45;&gt;Rorcid:0000&#45;0002&#45;2146&#45;4803 -->
<g id="edge2" class="edge">
<title>Rhttp://localhost:8080/rdf/nc/annotation/d5e8d8c5&#45;b68a&#45;44b0&#45;8ef2&#45;c6906e3fa54c&#45;&gt;Rorcid:0000&#45;0002&#45;2146&#45;4803</title>
<path fill="none" stroke="#000000" d="M405.1597,-934.6573C501.8816,-949.1218 640.2387,-969.8126 730.5955,-983.3251"/>
<polygon fill="#000000" stroke="#000000" points="730.1425,-986.7962 740.5502,-984.8138 731.1778,-979.8732 730.1425,-986.7962"/>
<text text-anchor="middle" x="649.5479" y="-978.8" font-family="Times,serif" font-size="14.00" fill="#000000">dcterms:creator</text>
</g>
<!-- L2021&#45;01&#45;12T14:23:11.646Z|Datatype: dcterms:W3CDTF -->
<g id="node4" class="node">
<title>L2021&#45;01&#45;12T14:23:11.646Z|Datatype: dcterms:W3CDTF</title>
<polygon fill="none" stroke="#000000" points="734.5381,-914 734.5381,-960 909.5381,-960 909.5381,-914 734.5381,-914"/>
<text text-anchor="middle" x="822.0381" y="-944.8" font-family="Times,serif" font-size="14.00" fill="#000000">2021&#45;01&#45;12T14:23:11.646Z</text>
<polyline fill="none" stroke="#000000" points="734.5381,-937 909.5381,-937 "/>
<text text-anchor="middle" x="822.0381" y="-921.8" font-family="Times,serif" font-size="14.00" fill="#000000">Datatype: dcterms:W3CDTF</text>
</g>
<!-- Rhttp://localhost:8080/rdf/nc/annotation/d5e8d8c5&#45;b68a&#45;44b0&#45;8ef2&#45;c6906e3fa54c&#45;&gt;L2021&#45;01&#45;12T14:23:11.646Z|Datatype: dcterms:W3CDTF -->
<g id="edge3" class="edge">
<title>Rhttp://localhost:8080/rdf/nc/annotation/d5e8d8c5&#45;b68a&#45;44b0&#45;8ef2&#45;c6906e3fa54c&#45;&gt;L2021&#45;01&#45;12T14:23:11.646Z|Datatype: dcterms:W3CDTF</title>
<path fill="none" stroke="#000000" d="M547.4618,-927.1244C610.3286,-929.3855 673.9855,-931.675 724.1572,-933.4795"/>
<polygon fill="#000000" stroke="#000000" points="724.2107,-936.9836 734.3301,-933.8454 724.4624,-929.9882 724.2107,-936.9836"/>
<text text-anchor="middle" x="649.5479" y="-934.8" font-family="Times,serif" font-size="14.00" fill="#000000">dcterms:date</text>
</g>
<!-- B_:node1f0go8rutx2 -->
<g id="node5" class="node">
<title>B_:node1f0go8rutx2</title>
<ellipse fill="none" stroke="#00ff00" cx="822.0381" cy="-877" rx="18" ry="18"/>
</g>
<!-- Rhttp://localhost:8080/rdf/nc/annotation/d5e8d8c5&#45;b68a&#45;44b0&#45;8ef2&#45;c6906e3fa54c&#45;&gt;B_:node1f0go8rutx2 -->
<g id="edge4" class="edge">
<title>Rhttp://localhost:8080/rdf/nc/annotation/d5e8d8c5&#45;b68a&#45;44b0&#45;8ef2&#45;c6906e3fa54c&#45;&gt;B_:node1f0go8rutx2</title>
<path fill="none" stroke="#000000" d="M475.9423,-903.8614C593.3416,-894.7497 734.7205,-883.777 793.8712,-879.1861"/>
<polygon fill="#000000" stroke="#000000" points="794.2355,-882.6684 803.9347,-878.4051 793.6938,-875.6894 794.2355,-882.6684"/>
<text text-anchor="middle" x="649.5479" y="-895.8" font-family="Times,serif" font-size="14.00" fill="#000000">oa:hasBody</text>
</g>
<!-- B_:node1f0go8rutx1 -->
<g id="node12" class="node">
<title>B_:node1f0go8rutx1</title>
<ellipse fill="none" stroke="#00ff00" cx="822.0381" cy="-695" rx="18" ry="18"/>
</g>
<!-- Rhttp://localhost:8080/rdf/nc/annotation/d5e8d8c5&#45;b68a&#45;44b0&#45;8ef2&#45;c6906e3fa54c&#45;&gt;B_:node1f0go8rutx1 -->
<g id="edge12" class="edge">
<title>Rhttp://localhost:8080/rdf/nc/annotation/d5e8d8c5&#45;b68a&#45;44b0&#45;8ef2&#45;c6906e3fa54c&#45;&gt;B_:node1f0go8rutx1</title>
<path fill="none" stroke="#000000" d="M336.111,-900.1279C441.0416,-855.8328 710.784,-741.9645 795.8985,-706.0345"/>
<polygon fill="#000000" stroke="#000000" points="797.488,-709.1626 805.3396,-702.0491 794.7656,-702.7137 797.488,-709.1626"/>
<text text-anchor="middle" x="649.5479" y="-782.8" font-family="Times,serif" font-size="14.00" fill="#000000">oa:hasTarget</text>
</g>
<!-- Roa:describing -->
<g id="node20" class="node">
<title>Roa:describing</title>
<ellipse fill="none" stroke="#0000ff" cx="822.0381" cy="-641" rx="57.6901" ry="18"/>
<text text-anchor="middle" x="822.0381" y="-637.3" font-family="Times,serif" font-size="14.00" fill="#000000">oa:describing</text>
</g>
<!-- Rhttp://localhost:8080/rdf/nc/annotation/d5e8d8c5&#45;b68a&#45;44b0&#45;8ef2&#45;c6906e3fa54c&#45;&gt;Roa:describing -->
<g id="edge20" class="edge">
<title>Rhttp://localhost:8080/rdf/nc/annotation/d5e8d8c5&#45;b68a&#45;44b0&#45;8ef2&#45;c6906e3fa54c&#45;&gt;Roa:describing</title>
<path fill="none" stroke="#000000" d="M317.8236,-900.0206C379.7806,-854.5261 551.248,-733.7907 711.5479,-668 727.3568,-661.5116 745.1036,-656.3246 761.6716,-652.3005"/>
<polygon fill="#000000" stroke="#000000" points="762.8597,-655.6177 771.8073,-649.944 761.2745,-648.7996 762.8597,-655.6177"/>
<text text-anchor="middle" x="649.5479" y="-715.8" font-family="Times,serif" font-size="14.00" fill="#000000">oa:motivatedBy</text>
</g>
<!-- Rfoaf:Person -->
<g id="node21" class="node">
<title>Rfoaf:Person</title>
<ellipse fill="none" stroke="#0000ff" cx="1260.1621" cy="-1114" rx="51.1914" ry="18"/>
<text text-anchor="middle" x="1260.1621" y="-1110.3" font-family="Times,serif" font-size="14.00" fill="#000000">foaf:Person</text>
</g>
<!-- Rorcid:0000&#45;0002&#45;2146&#45;4803&#45;&gt;Rfoaf:Person -->
<g id="edge21" class="edge">
<title>Rorcid:0000&#45;0002&#45;2146&#45;4803&#45;&gt;Rfoaf:Person</title>
<path fill="none" stroke="#000000" d="M907.7343,-1008.3969C916.8278,-1012.2752 925.3569,-1017.3581 932.5283,-1024 951.3984,-1041.4771 930.5862,-1062.7567 950.5283,-1079 1022.5418,-1137.6568 1137.2281,-1133.3792 1204.9605,-1124.199"/>
<polygon fill="#000000" stroke="#000000" points="1205.6082,-1127.6419 1215.0083,-1122.7543 1204.6119,-1120.7132 1205.6082,-1127.6419"/>
<text text-anchor="middle" x="1005.0283" y="-1126.8" font-family="Times,serif" font-size="14.00" fill="#000000">rdf:type</text>
</g>
<!-- Rdwc:Taxon -->
<g id="node6" class="node">
<title>Rdwc:Taxon</title>
<ellipse fill="none" stroke="#0000ff" cx="1260.1621" cy="-1060" rx="50.0912" ry="18"/>
<text text-anchor="middle" x="1260.1621" y="-1056.3" font-family="Times,serif" font-size="14.00" fill="#000000">dwc:Taxon</text>
</g>
<!-- B_:node1f0go8rutx2&#45;&gt;Rdwc:Taxon -->
<g id="edge5" class="edge">
<title>B_:node1f0go8rutx2&#45;&gt;Rdwc:Taxon</title>
<path fill="none" stroke="#000000" d="M840.2084,-876.108C864.7995,-875.9617 908.3707,-879.638 932.5283,-905 960.3623,-934.2217 923.4298,-964.0949 950.5283,-994 990.1764,-1037.7544 1019.9361,-1019.9785 1077.5283,-1033 1118.6443,-1042.2963 1165.7168,-1049.1669 1201.7739,-1053.6506"/>
<polygon fill="#000000" stroke="#000000" points="1201.7638,-1057.1751 1212.1134,-1054.9087 1202.6094,-1050.2264 1201.7638,-1057.1751"/>
<text text-anchor="middle" x="1005.0283" y="-1032.8" font-family="Times,serif" font-size="14.00" fill="#000000">rdf:type</text>
</g>
<!-- Roa:TextualBody -->
<g id="node7" class="node">
<title>Roa:TextualBody</title>
<ellipse fill="none" stroke="#0000ff" cx="1260.1621" cy="-1006" rx="67.6881" ry="18"/>
<text text-anchor="middle" x="1260.1621" y="-1002.3" font-family="Times,serif" font-size="14.00" fill="#000000">oa:TextualBody</text>
</g>
<!-- B_:node1f0go8rutx2&#45;&gt;Roa:TextualBody -->
<g id="edge6" class="edge">
<title>B_:node1f0go8rutx2&#45;&gt;Roa:TextualBody</title>
<path fill="none" stroke="#000000" d="M840.1557,-877.0706C863.8989,-878.0831 905.6685,-883.1413 932.5283,-905 946.7121,-916.5429 936.5504,-930.2085 950.5283,-942 995.4656,-979.9082 1020.0924,-966.4494 1077.5283,-979 1113.4257,-986.8441 1153.7974,-993.0773 1187.4372,-997.5694"/>
<polygon fill="#000000" stroke="#000000" points="1187.2786,-1001.0784 1197.6486,-998.9074 1188.1882,-994.1378 1187.2786,-1001.0784"/>
<text text-anchor="middle" x="1005.0283" y="-978.8" font-family="Times,serif" font-size="14.00" fill="#000000">rdf:type</text>
</g>
<!-- Ltext/plain -->
<g id="node8" class="node">
<title>Ltext/plain</title>
<polygon fill="none" stroke="#000000" points="1226.1621,-933 1226.1621,-969 1294.1621,-969 1294.1621,-933 1226.1621,-933"/>
<text text-anchor="middle" x="1260.1621" y="-947.3" font-family="Times,serif" font-size="14.00" fill="#000000">text/plain</text>
</g>
<!-- B_:node1f0go8rutx2&#45;&gt;Ltext/plain -->
<g id="edge7" class="edge">
<title>B_:node1f0go8rutx2&#45;&gt;Ltext/plain</title>
<path fill="none" stroke="#000000" d="M839.824,-881.4744C864.5403,-887.5868 910.7281,-898.628 950.5283,-906 1044.4996,-923.406 1155.5518,-938.1416 1215.823,-945.6561"/>
<polygon fill="#000000" stroke="#000000" points="1215.761,-949.1751 1226.1154,-946.9306 1216.6213,-942.2281 1215.761,-949.1751"/>
<text text-anchor="middle" x="1005.0283" y="-926.8" font-family="Times,serif" font-size="14.00" fill="#000000">dcterms:format</text>
</g>
<!-- Rgbif:9180402 -->
<g id="node9" class="node">
<title>Rgbif:9180402</title>
<ellipse fill="none" stroke="#0000ff" cx="1260.1621" cy="-896" rx="57.6901" ry="18"/>
<text text-anchor="middle" x="1260.1621" y="-892.3" font-family="Times,serif" font-size="14.00" fill="#000000">gbif:9180402</text>
</g>
<!-- B_:node1f0go8rutx2&#45;&gt;Rgbif:9180402 -->
<g id="edge8" class="edge">
<title>B_:node1f0go8rutx2&#45;&gt;Rgbif:9180402</title>
<path fill="none" stroke="#000000" d="M840.0298,-877.7802C899.1089,-880.3423 1089.2605,-888.5886 1192.2933,-893.0568"/>
<polygon fill="#000000" stroke="#000000" points="1192.4494,-896.5667 1202.5917,-893.5034 1192.7528,-889.5733 1192.4494,-896.5667"/>
<text text-anchor="middle" x="1005.0283" y="-890.8" font-family="Times,serif" font-size="14.00" fill="#000000">dcterms:identifier</text>
</g>
<!-- Riso:lat -->
<g id="node10" class="node">
<title>Riso:lat</title>
<ellipse fill="none" stroke="#0000ff" cx="1260.1621" cy="-842" rx="32.4942" ry="18"/>
<text text-anchor="middle" x="1260.1621" y="-838.3" font-family="Times,serif" font-size="14.00" fill="#000000">iso:lat</text>
</g>
<!-- B_:node1f0go8rutx2&#45;&gt;Riso:lat -->
<g id="edge9" class="edge">
<title>B_:node1f0go8rutx2&#45;&gt;Riso:lat</title>
<path fill="none" stroke="#000000" d="M840.3139,-874.7712C865.2091,-871.7896 911.1883,-866.4758 950.5283,-863 1045.7133,-854.5901 1157.6206,-847.7538 1217.397,-844.3471"/>
<polygon fill="#000000" stroke="#000000" points="1217.7991,-847.83 1227.5855,-843.7709 1217.4038,-840.8412 1217.7991,-847.83"/>
<text text-anchor="middle" x="1005.0283" y="-866.8" font-family="Times,serif" font-size="14.00" fill="#000000">dcterms:language</text>
</g>
<!-- LPteropus minimus|Language: lat -->
<g id="node11" class="node">
<title>LPteropus minimus|Language: lat</title>
<polygon fill="none" stroke="#000000" points="1202.1621,-759 1202.1621,-805 1318.1621,-805 1318.1621,-759 1202.1621,-759"/>
<text text-anchor="middle" x="1260.1621" y="-789.8" font-family="Times,serif" font-size="14.00" fill="#000000">Pteropus minimus</text>
<polyline fill="none" stroke="#000000" points="1202.1621,-782 1318.1621,-782 "/>
<text text-anchor="middle" x="1260.1621" y="-766.8" font-family="Times,serif" font-size="14.00" fill="#000000">Language: lat</text>
</g>
<!-- B_:node1f0go8rutx2&#45;&gt;LPteropus minimus|Language: lat -->
<g id="edge10" class="edge">
<title>B_:node1f0go8rutx2&#45;&gt;LPteropus minimus|Language: lat</title>
<path fill="none" stroke="#000000" d="M839.2609,-870.4751C863.6983,-861.4237 909.9783,-845.0405 950.5283,-835 1032.5191,-814.6984 1128.633,-799.5626 1191.7714,-790.7728"/>
<polygon fill="#000000" stroke="#000000" points="1192.5725,-794.1956 1202.0015,-789.364 1191.6175,-787.261 1192.5725,-794.1956"/>
<text text-anchor="middle" x="1005.0283" y="-838.8" font-family="Times,serif" font-size="14.00" fill="#000000">dwc:scientificName</text>
</g>
<!-- B_:node1f0go8rutx2&#45;&gt;LPteropus minimus|Language: lat -->
<g id="edge11" class="edge">
<title>B_:node1f0go8rutx2&#45;&gt;LPteropus minimus|Language: lat</title>
<path fill="none" stroke="#000000" d="M835.3961,-864.8051C857.4419,-845.5582 903.6827,-808.8065 950.5283,-794 1030.4588,-768.7363 1127.8044,-769.7822 1191.7494,-774.4691"/>
<polygon fill="#000000" stroke="#000000" points="1191.8665,-777.9889 1202.1096,-775.2818 1192.414,-771.0104 1191.8665,-777.9889"/>
<text text-anchor="middle" x="1005.0283" y="-797.8" font-family="Times,serif" font-size="14.00" fill="#000000">rdf:value</text>
</g>
<!-- Robo:TAXRANK_0000006 -->
<g id="node27" class="node">
<title>Robo:TAXRANK_0000006</title>
<ellipse fill="none" stroke="#0000ff" cx="1873.7958" cy="-896" rx="104.7816" ry="18"/>
<text text-anchor="middle" x="1873.7958" y="-892.3" font-family="Times,serif" font-size="14.00" fill="#000000">obo:TAXRANK_0000006</text>
</g>
<!-- Rgbif:9180402&#45;&gt;Robo:TAXRANK_0000006 -->
<g id="edge27" class="edge">
<title>Rgbif:9180402&#45;&gt;Robo:TAXRANK_0000006</title>
<path fill="none" stroke="#000000" d="M1318.1676,-896C1418.9137,-896 1627.9751,-896 1758.9719,-896"/>
<polygon fill="#000000" stroke="#000000" points="1759.0479,-899.5001 1769.0478,-896 1759.0478,-892.5001 1759.0479,-899.5001"/>
<text text-anchor="middle" x="1518.2958" y="-899.8" font-family="Times,serif" font-size="14.00" fill="#000000">dwc:taxonRank</text>
</g>
<!-- Roa:Target -->
<g id="node13" class="node">
<title>Roa:Target</title>
<ellipse fill="none" stroke="#0000ff" cx="1260.1621" cy="-722" rx="44.393" ry="18"/>
<text text-anchor="middle" x="1260.1621" y="-718.3" font-family="Times,serif" font-size="14.00" fill="#000000">oa:Target</text>
</g>
<!-- B_:node1f0go8rutx1&#45;&gt;Roa:Target -->
<g id="edge13" class="edge">
<title>B_:node1f0go8rutx1&#45;&gt;Roa:Target</title>
<path fill="none" stroke="#000000" d="M840.0298,-696.1088C901.8486,-699.9184 1107.1781,-712.5722 1206.0433,-718.6649"/>
<polygon fill="#000000" stroke="#000000" points="1205.9321,-722.1646 1216.1285,-719.2864 1206.3627,-715.1778 1205.9321,-722.1646"/>
<text text-anchor="middle" x="1005.0283" y="-712.8" font-family="Times,serif" font-size="14.00" fill="#000000">rdf:type</text>
</g>
<!-- Limage/jpeg -->
<g id="node14" class="node">
<title>Limage/jpeg</title>
<polygon fill="none" stroke="#000000" points="1221.6621,-649 1221.6621,-685 1298.6621,-685 1298.6621,-649 1221.6621,-649"/>
<text text-anchor="middle" x="1260.1621" y="-663.3" font-family="Times,serif" font-size="14.00" fill="#000000">image/jpeg</text>
</g>
<!-- B_:node1f0go8rutx1&#45;&gt;Limage/jpeg -->
<g id="edge14" class="edge">
<title>B_:node1f0go8rutx1&#45;&gt;Limage/jpeg</title>
<path fill="none" stroke="#000000" d="M840.3172,-693.0522C865.2162,-690.454 911.1997,-685.8514 950.5283,-683 1042.6407,-676.3217 1150.366,-671.4082 1211.4008,-668.8937"/>
<polygon fill="#000000" stroke="#000000" points="1211.6637,-672.386 1221.5128,-668.4815 1211.3785,-665.3918 1211.6637,-672.386"/>
<text text-anchor="middle" x="1005.0283" y="-686.8" font-family="Times,serif" font-size="14.00" fill="#000000">dcterms:format</text>
</g>
<!-- B_:node1f0go8rutx4 -->
<g id="node15" class="node">
<title>B_:node1f0go8rutx4</title>
<ellipse fill="none" stroke="#00ff00" cx="1260.1621" cy="-612" rx="18" ry="18"/>
</g>
<!-- B_:node1f0go8rutx1&#45;&gt;B_:node1f0go8rutx4 -->
<g id="edge15" class="edge">
<title>B_:node1f0go8rutx1&#45;&gt;B_:node1f0go8rutx4</title>
<path fill="none" stroke="#000000" d="M840.1803,-692.3351C862.5251,-688.6572 901.3499,-680.966 932.5283,-668 941.1851,-664.3999 941.7097,-660.1835 950.5283,-657 1049.6813,-621.2063 1176.4381,-613.8206 1231.97,-612.3421"/>
<polygon fill="#000000" stroke="#000000" points="1232.1771,-615.8385 1242.0974,-612.1185 1232.0225,-608.8402 1232.1771,-615.8385"/>
<text text-anchor="middle" x="1005.0283" y="-660.8" font-family="Times,serif" font-size="14.00" fill="#000000">oa:hasSelector</text>
</g>
<!-- Rimg:MMNAT01_AF_NNM001001033_003.jpg -->
<g id="node19" class="node">
<title>Rimg:MMNAT01_AF_NNM001001033_003.jpg</title>
<ellipse fill="none" stroke="#0000ff" cx="1260.1621" cy="-449" rx="182.7677" ry="18"/>
<text text-anchor="middle" x="1260.1621" y="-445.3" font-family="Times,serif" font-size="14.00" fill="#000000">img:MMNAT01_AF_NNM001001033_003.jpg</text>
</g>
<!-- B_:node1f0go8rutx1&#45;&gt;Rimg:MMNAT01_AF_NNM001001033_003.jpg -->
<g id="edge19" class="edge">
<title>B_:node1f0go8rutx1&#45;&gt;Rimg:MMNAT01_AF_NNM001001033_003.jpg</title>
<path fill="none" stroke="#000000" d="M840.2304,-695.6952C864.445,-695.6043 907.1533,-691.7481 932.5283,-668 951.9251,-649.8467 933.4682,-631.3649 950.5283,-611 1012.6679,-536.8228 1117.5696,-492.1914 1187.8273,-469.0834"/>
<polygon fill="#000000" stroke="#000000" points="1189.0589,-472.3638 1197.503,-465.9647 1186.9115,-465.7013 1189.0589,-472.3638"/>
<text text-anchor="middle" x="1005.0283" y="-614.8" font-family="Times,serif" font-size="14.00" fill="#000000">oa:hasSource</text>
</g>
<!-- Roa:FragmentSelector -->
<g id="node16" class="node">
<title>Roa:FragmentSelector</title>
<ellipse fill="none" stroke="#0000ff" cx="1873.7958" cy="-694" rx="84.485" ry="18"/>
<text text-anchor="middle" x="1873.7958" y="-690.3" font-family="Times,serif" font-size="14.00" fill="#000000">oa:FragmentSelector</text>
</g>
<!-- B_:node1f0go8rutx4&#45;&gt;Roa:FragmentSelector -->
<g id="edge16" class="edge">
<title>B_:node1f0go8rutx4&#45;&gt;Roa:FragmentSelector</title>
<path fill="none" stroke="#000000" d="M1278.2479,-613.6146C1311.2717,-616.7961 1383.4048,-624.8267 1442.7958,-639 1450.9983,-640.9575 1452.6105,-642.9723 1460.7958,-645 1568.721,-671.7362 1696.2434,-684.0372 1780.7358,-689.5952"/>
<polygon fill="#000000" stroke="#000000" points="1780.6193,-693.0948 1790.8223,-690.2401 1781.066,-686.1091 1780.6193,-693.0948"/>
<text text-anchor="middle" x="1518.2958" y="-670.8" font-family="Times,serif" font-size="14.00" fill="#000000">rdf:type</text>
</g>
<!-- Rmf: -->
<g id="node17" class="node">
<title>Rmf:</title>
<ellipse fill="none" stroke="#0000ff" cx="1873.7958" cy="-640" rx="27" ry="18"/>
<text text-anchor="middle" x="1873.7958" y="-636.3" font-family="Times,serif" font-size="14.00" fill="#000000">mf:</text>
</g>
<!-- B_:node1f0go8rutx4&#45;&gt;Rmf: -->
<g id="edge17" class="edge">
<title>B_:node1f0go8rutx4&#45;&gt;Rmf:</title>
<path fill="none" stroke="#000000" d="M1278.1946,-612.8228C1362.5665,-616.6727 1719.1718,-632.9445 1836.3278,-638.2903"/>
<polygon fill="#000000" stroke="#000000" points="1836.4353,-641.7988 1846.5844,-638.7583 1836.7544,-634.8061 1836.4353,-641.7988"/>
<text text-anchor="middle" x="1518.2958" y="-629.8" font-family="Times,serif" font-size="14.00" fill="#000000">dcterms:conformsTo</text>
</g>
<!-- Lxywh=0.5530314055917275,0.3586725350259047,0.07278820375335127,0.018716966679433122 -->
<g id="node18" class="node">
<title>Lxywh=0.5530314055917275,0.3586725350259047,0.07278820375335127,0.018716966679433122</title>
<polygon fill="none" stroke="#000000" points="1593.7958,-567 1593.7958,-603 2153.7958,-603 2153.7958,-567 1593.7958,-567"/>
<text text-anchor="middle" x="1873.7958" y="-581.3" font-family="Times,serif" font-size="14.00" fill="#000000">xywh=0.5530314055917275,0.3586725350259047,0.07278820375335127,0.018716966679433122</text>
</g>
<!-- B_:node1f0go8rutx4&#45;&gt;Lxywh=0.5530314055917275,0.3586725350259047,0.07278820375335127,0.018716966679433122 -->
<g id="edge18" class="edge">
<title>B_:node1f0go8rutx4&#45;&gt;Lxywh=0.5530314055917275,0.3586725350259047,0.07278820375335127,0.018716966679433122</title>
<path fill="none" stroke="#000000" d="M1278.1465,-611.1856C1313.2578,-609.5973 1393.3935,-605.9806 1460.7958,-603 1500.4558,-601.2462 1542.2586,-599.4099 1583.4267,-597.6087"/>
<polygon fill="#000000" stroke="#000000" points="1583.758,-601.0977 1593.5954,-597.164 1583.452,-594.1044 1583.758,-601.0977"/>
<text text-anchor="middle" x="1518.2958" y="-606.8" font-family="Times,serif" font-size="14.00" fill="#000000">rdf:value</text>
</g>
<!-- Rdcmitype:StillImage -->
<g id="node22" class="node">
<title>Rdcmitype:StillImage</title>
<ellipse fill="none" stroke="#0000ff" cx="1873.7958" cy="-530" rx="83.3857" ry="18"/>
<text text-anchor="middle" x="1873.7958" y="-526.3" font-family="Times,serif" font-size="14.00" fill="#000000">dcmitype:StillImage</text>
</g>
<!-- Rimg:MMNAT01_AF_NNM001001033_003.jpg&#45;&gt;Rdcmitype:StillImage -->
<g id="edge22" class="edge">
<title>Rimg:MMNAT01_AF_NNM001001033_003.jpg&#45;&gt;Rdcmitype:StillImage</title>
<path fill="none" stroke="#000000" d="M1353.5419,-464.4867C1387.3251,-470.0558 1425.7711,-476.3545 1460.7958,-482 1519.8767,-491.523 1534.4296,-495.4579 1593.7958,-503 1657.7617,-511.1265 1730.2264,-518.0524 1785.4085,-522.8546"/>
<polygon fill="#000000" stroke="#000000" points="1785.2411,-526.3531 1795.5051,-523.7264 1785.8433,-519.379 1785.2411,-526.3531"/>
<text text-anchor="middle" x="1518.2958" y="-504.8" font-family="Times,serif" font-size="14.00" fill="#000000">rdf:type</text>
</g>
<!-- Rdsw:Token -->
<g id="node23" class="node">
<title>Rdsw:Token</title>
<ellipse fill="none" stroke="#0000ff" cx="1873.7958" cy="-476" rx="50.0912" ry="18"/>
<text text-anchor="middle" x="1873.7958" y="-472.3" font-family="Times,serif" font-size="14.00" fill="#000000">dsw:Token</text>
</g>
<!-- Rimg:MMNAT01_AF_NNM001001033_003.jpg&#45;&gt;Rdsw:Token -->
<g id="edge23" class="edge">
<title>Rimg:MMNAT01_AF_NNM001001033_003.jpg&#45;&gt;Rdsw:Token</title>
<path fill="none" stroke="#000000" d="M1427.0296,-456.3422C1555.2193,-461.9826 1724.8898,-469.4481 1813.7167,-473.3565"/>
<polygon fill="#000000" stroke="#000000" points="1813.7357,-476.8606 1823.8799,-473.8037 1814.0434,-469.8674 1813.7357,-476.8606"/>
<text text-anchor="middle" x="1518.2958" y="-466.8" font-family="Times,serif" font-size="14.00" fill="#000000">rdf:type</text>
</g>
<!-- Rdwc:HumanObservation -->
<g id="node24" class="node">
<title>Rdwc:HumanObservation</title>
<ellipse fill="none" stroke="#0000ff" cx="1873.7958" cy="-422" rx="96.6831" ry="18"/>
<text text-anchor="middle" x="1873.7958" y="-418.3" font-family="Times,serif" font-size="14.00" fill="#000000">dwc:HumanObservation</text>
</g>
<!-- Rimg:MMNAT01_AF_NNM001001033_003.jpg&#45;&gt;Rdwc:HumanObservation -->
<g id="edge24" class="edge">
<title>Rimg:MMNAT01_AF_NNM001001033_003.jpg&#45;&gt;Rdwc:HumanObservation</title>
<path fill="none" stroke="#000000" d="M1426.5724,-441.5189C1438.1543,-441.0032 1449.6492,-440.4929 1460.7958,-440 1565.694,-435.3613 1685.5831,-430.1457 1769.0683,-426.5276"/>
<polygon fill="#000000" stroke="#000000" points="1769.2264,-430.0241 1779.0655,-426.0944 1768.9233,-423.0307 1769.2264,-430.0241"/>
<text text-anchor="middle" x="1518.2958" y="-443.8" font-family="Times,serif" font-size="14.00" fill="#000000">rdf:type</text>
</g>
<!-- Roa:Source -->
<g id="node25" class="node">
<title>Roa:Source</title>
<ellipse fill="none" stroke="#0000ff" cx="1873.7958" cy="-368" rx="46.2923" ry="18"/>
<text text-anchor="middle" x="1873.7958" y="-364.3" font-family="Times,serif" font-size="14.00" fill="#000000">oa:Source</text>
</g>
<!-- Rimg:MMNAT01_AF_NNM001001033_003.jpg&#45;&gt;Roa:Source -->
<g id="edge25" class="edge">
<title>Rimg:MMNAT01_AF_NNM001001033_003.jpg&#45;&gt;Roa:Source</title>
<path fill="none" stroke="#000000" d="M1348.0945,-433.1828C1415.2376,-421.4906 1510.1419,-405.7918 1593.7958,-395 1671.3111,-385.0001 1761.3371,-376.9511 1817.9373,-372.3219"/>
<polygon fill="#000000" stroke="#000000" points="1818.4218,-375.7942 1828.1063,-371.4976 1817.8562,-368.8171 1818.4218,-375.7942"/>
<text text-anchor="middle" x="1518.2958" y="-417.8" font-family="Times,serif" font-size="14.00" fill="#000000">rdf:type</text>
</g>
<!-- Rfoaf:Image -->
<g id="node26" class="node">
<title>Rfoaf:Image</title>
<ellipse fill="none" stroke="#0000ff" cx="1873.7958" cy="-314" rx="50.0912" ry="18"/>
<text text-anchor="middle" x="1873.7958" y="-310.3" font-family="Times,serif" font-size="14.00" fill="#000000">foaf:Image</text>
</g>
<!-- Rimg:MMNAT01_AF_NNM001001033_003.jpg&#45;&gt;Rfoaf:Image -->
<g id="edge26" class="edge">
<title>Rimg:MMNAT01_AF_NNM001001033_003.jpg&#45;&gt;Rfoaf:Image</title>
<path fill="none" stroke="#000000" d="M1307.7391,-431.5357C1348.2302,-416.881 1408.046,-395.7226 1460.7958,-379 1519.3981,-360.4221 1533.3936,-352.4422 1593.7958,-341 1668.7809,-326.7953 1756.5572,-319.8716 1813.5655,-316.6329"/>
<polygon fill="#000000" stroke="#000000" points="1814.0485,-320.1118 1823.8422,-316.0701 1813.6657,-313.1223 1814.0485,-320.1118"/>
<text text-anchor="middle" x="1518.2958" y="-382.8" font-family="Times,serif" font-size="14.00" fill="#000000">rdf:type</text>
</g>
</g>
</svg>
