<?xml version="1.0" encoding="UTF-8" standalone="no"?>
<!DOCTYPE svg PUBLIC "-//W3C//DTD SVG 1.1//EN"
 "http://www.w3.org/Graphics/SVG/1.1/DTD/svg11.dtd">
<!-- Generated by graphviz version 2.40.1 (20161225.0304)
 -->
<!-- Title: %3 Pages: 1 -->
<svg width="2158pt" height="1041pt"
 viewBox="0.00 0.00 2157.90 1041.00" xmlns="http://www.w3.org/2000/svg" xmlns:xlink="http://www.w3.org/1999/xlink">
<g id="graph0" class="graph" transform="scale(1 1) rotate(0) translate(4 1037)">
<title>%3</title>
<polygon fill="#ffffff" stroke="transparent" points="-4,4 -4,-1037 2153.8962,-1037 2153.8962,4 -4,4"/>
<text text-anchor="middle" x="1074.9481" y="-218.8" font-family="Times,serif" font-size="14.00" fill="#000000">Model:</text>
<text text-anchor="middle" x="1074.9481" y="-203.8" font-family="Times,serif" font-size="14.00" fill="#000000">(Unknown)</text>
<text text-anchor="middle" x="1074.9481" y="-172.8" font-family="Times,serif" font-size="14.00" fill="#000000">Namespaces:</text>
<text text-anchor="middle" x="1074.9481" y="-157.8" font-family="Times,serif" font-size="14.00" fill="#000000">dcmitype: http://purl.org/dc/dcmitype/</text>
<text text-anchor="middle" x="1074.9481" y="-142.8" font-family="Times,serif" font-size="14.00" fill="#000000">dcterms: http://purl.org/dc/terms/</text>
<text text-anchor="middle" x="1074.9481" y="-127.8" font-family="Times,serif" font-size="14.00" fill="#000000">dsw: http://purl.org/dsw/</text>
<text text-anchor="middle" x="1074.9481" y="-112.8" font-family="Times,serif" font-size="14.00" fill="#000000">dwc: http://rs.tdwg.org/dwc/terms/</text>
<text text-anchor="middle" x="1074.9481" y="-97.8" font-family="Times,serif" font-size="14.00" fill="#000000">foaf: http://xmlns.com/foaf/0.1/</text>
<text text-anchor="middle" x="1074.9481" y="-82.8" font-family="Times,serif" font-size="14.00" fill="#000000">img: http://localhost:8080/semanticAnnotator/files/</text>
<text text-anchor="middle" x="1074.9481" y="-67.8" font-family="Times,serif" font-size="14.00" fill="#000000">iso: http://iso639&#45;3.sil.org/code/</text>
<text text-anchor="middle" x="1074.9481" y="-52.8" font-family="Times,serif" font-size="14.00" fill="#000000">mf: http://www.w3.org/TR/media&#45;frags/</text>
<text text-anchor="middle" x="1074.9481" y="-37.8" font-family="Times,serif" font-size="14.00" fill="#000000">oa: http://www.w3.org/ns/oa#</text>
<text text-anchor="middle" x="1074.9481" y="-22.8" font-family="Times,serif" font-size="14.00" fill="#000000">orcid: http://orcid.org/</text>
<text text-anchor="middle" x="1074.9481" y="-7.8" font-family="Times,serif" font-size="14.00" fill="#000000">rdf: http://www.w3.org/1999/02/22&#45;rdf&#45;syntax&#45;ns#</text>
<!-- Rhttp://localhost:8080/rdf/nc/annotation/d6106fc7&#45;098a&#45;4ab4&#45;bc99&#45;8e4f4fe04fa5 -->
<g id="node1" class="node">
<title>Rhttp://localhost:8080/rdf/nc/annotation/d6106fc7&#45;098a&#45;4ab4&#45;bc99&#45;8e4f4fe04fa5</title>
<ellipse fill="none" stroke="#0000ff" cx="291.8241" cy="-865" rx="291.6483" ry="18"/>
<text text-anchor="middle" x="291.8241" y="-861.3" font-family="Times,serif" font-size="14.00" fill="#000000">http://localhost:8080/rdf/nc/annotation/d6106fc7&#45;098a&#45;4ab4&#45;bc99&#45;8e4f4fe04fa5</text>
</g>
<!-- Roa:Annotation -->
<g id="node2" class="node">
<title>Roa:Annotation</title>
<ellipse fill="none" stroke="#0000ff" cx="818.1384" cy="-998" rx="61.1893" ry="18"/>
<text text-anchor="middle" x="818.1384" y="-994.3" font-family="Times,serif" font-size="14.00" fill="#000000">oa:Annotation</text>
</g>
<!-- Rhttp://localhost:8080/rdf/nc/annotation/d6106fc7&#45;098a&#45;4ab4&#45;bc99&#45;8e4f4fe04fa5&#45;&gt;Roa:Annotation -->
<g id="edge1" class="edge">
<title>Rhttp://localhost:8080/rdf/nc/annotation/d6106fc7&#45;098a&#45;4ab4&#45;bc99&#45;8e4f4fe04fa5&#45;&gt;Roa:Annotation</title>
<path fill="none" stroke="#000000" d="M359.8378,-882.5584C442.1394,-903.7544 584.9492,-940.3702 707.6482,-971 724.945,-975.3179 743.7837,-979.9482 760.9254,-984.1337"/>
<polygon fill="#000000" stroke="#000000" points="760.2532,-987.5722 770.7977,-986.5409 761.9115,-980.7715 760.2532,-987.5722"/>
<text text-anchor="middle" x="645.6482" y="-968.8" font-family="Times,serif" font-size="14.00" fill="#000000">rdf:type</text>
</g>
<!-- Rorcid:0000&#45;0002&#45;2146&#45;4803 -->
<g id="node3" class="node">
<title>Rorcid:0000&#45;0002&#45;2146&#45;4803</title>
<ellipse fill="none" stroke="#0000ff" cx="818.1384" cy="-944" rx="110.4804" ry="18"/>
<text text-anchor="middle" x="818.1384" y="-940.3" font-family="Times,serif" font-size="14.00" fill="#000000">orcid:0000&#45;0002&#45;2146&#45;4803</text>
</g>
<!-- Rhttp://localhost:8080/rdf/nc/annotation/d6106fc7&#45;098a&#45;4ab4&#45;bc99&#45;8e4f4fe04fa5&#45;&gt;Rorcid:0000&#45;0002&#45;2146&#45;4803 -->
<g id="edge2" class="edge">
<title>Rhttp://localhost:8080/rdf/nc/annotation/d6106fc7&#45;098a&#45;4ab4&#45;bc99&#45;8e4f4fe04fa5&#45;&gt;Rorcid:0000&#45;0002&#45;2146&#45;4803</title>
<path fill="none" stroke="#000000" d="M402.7987,-881.6573C499.0183,-896.0999 636.5944,-916.7502 726.6257,-930.2639"/>
<polygon fill="#000000" stroke="#000000" points="726.1369,-933.7297 736.5457,-931.7529 727.1761,-926.8072 726.1369,-933.7297"/>
<text text-anchor="middle" x="645.6482" y="-925.8" font-family="Times,serif" font-size="14.00" fill="#000000">dcterms:creator</text>
</g>
<!-- L2021&#45;01&#45;12T14:23:11.646Z|Datatype: dcterms:W3CDTF -->
<g id="node4" class="node">
<title>L2021&#45;01&#45;12T14:23:11.646Z|Datatype: dcterms:W3CDTF</title>
<polygon fill="none" stroke="#000000" points="730.6384,-861 730.6384,-907 905.6384,-907 905.6384,-861 730.6384,-861"/>
<text text-anchor="middle" x="818.1384" y="-891.8" font-family="Times,serif" font-size="14.00" fill="#000000">2021&#45;01&#45;12T14:23:11.646Z</text>
<polyline fill="none" stroke="#000000" points="730.6384,-884 905.6384,-884 "/>
<text text-anchor="middle" x="818.1384" y="-868.8" font-family="Times,serif" font-size="14.00" fill="#000000">Datatype: dcterms:W3CDTF</text>
</g>
<!-- Rhttp://localhost:8080/rdf/nc/annotation/d6106fc7&#45;098a&#45;4ab4&#45;bc99&#45;8e4f4fe04fa5&#45;&gt;L2021&#45;01&#45;12T14:23:11.646Z|Datatype: dcterms:W3CDTF -->
<g id="edge3" class="edge">
<title>Rhttp://localhost:8080/rdf/nc/annotation/d6106fc7&#45;098a&#45;4ab4&#45;bc99&#45;8e4f4fe04fa5&#45;&gt;L2021&#45;01&#45;12T14:23:11.646Z|Datatype: dcterms:W3CDTF</title>
<path fill="none" stroke="#000000" d="M543.8052,-874.0965C606.5524,-876.3617 670.1484,-878.6575 720.2892,-880.4676"/>
<polygon fill="#000000" stroke="#000000" points="720.3362,-883.9715 730.456,-880.8347 720.5888,-876.9761 720.3362,-883.9715"/>
<text text-anchor="middle" x="645.6482" y="-881.8" font-family="Times,serif" font-size="14.00" fill="#000000">dcterms:date</text>
</g>
<!-- B_:node1euqlam8lx307 -->
<g id="node5" class="node">
<title>B_:node1euqlam8lx307</title>
<ellipse fill="none" stroke="#00ff00" cx="818.1384" cy="-824" rx="18" ry="18"/>
</g>
<!-- Rhttp://localhost:8080/rdf/nc/annotation/d6106fc7&#45;098a&#45;4ab4&#45;bc99&#45;8e4f4fe04fa5&#45;&gt;B_:node1euqlam8lx307 -->
<g id="edge4" class="edge">
<title>Rhttp://localhost:8080/rdf/nc/annotation/d6106fc7&#45;098a&#45;4ab4&#45;bc99&#45;8e4f4fe04fa5&#45;&gt;B_:node1euqlam8lx307</title>
<path fill="none" stroke="#000000" d="M473.32,-850.8614C590.2861,-841.7497 731.1431,-830.777 790.0755,-826.1861"/>
<polygon fill="#000000" stroke="#000000" points="790.4039,-829.6712 800.1018,-825.4051 789.8602,-822.6924 790.4039,-829.6712"/>
<text text-anchor="middle" x="645.6482" y="-843.8" font-family="Times,serif" font-size="14.00" fill="#000000">oa:hasBody</text>
</g>
<!-- B_:node1euqlam8lx306 -->
<g id="node11" class="node">
<title>B_:node1euqlam8lx306</title>
<ellipse fill="none" stroke="#00ff00" cx="818.1384" cy="-665" rx="18" ry="18"/>
</g>
<!-- Rhttp://localhost:8080/rdf/nc/annotation/d6106fc7&#45;098a&#45;4ab4&#45;bc99&#45;8e4f4fe04fa5&#45;&gt;B_:node1euqlam8lx306 -->
<g id="edge10" class="edge">
<title>Rhttp://localhost:8080/rdf/nc/annotation/d6106fc7&#45;098a&#45;4ab4&#45;bc99&#45;8e4f4fe04fa5&#45;&gt;B_:node1euqlam8lx306</title>
<path fill="none" stroke="#000000" d="M338.9942,-847.0753C446.5358,-806.2094 707.0748,-707.2043 791.3546,-675.1779"/>
<polygon fill="#000000" stroke="#000000" points="792.8519,-678.3531 800.9565,-671.5292 790.3654,-671.8097 792.8519,-678.3531"/>
<text text-anchor="middle" x="645.6482" y="-750.8" font-family="Times,serif" font-size="14.00" fill="#000000">oa:hasTarget</text>
</g>
<!-- Roa:describing -->
<g id="node19" class="node">
<title>Roa:describing</title>
<ellipse fill="none" stroke="#0000ff" cx="818.1384" cy="-611" rx="57.6901" ry="18"/>
<text text-anchor="middle" x="818.1384" y="-607.3" font-family="Times,serif" font-size="14.00" fill="#000000">oa:describing</text>
</g>
<!-- Rhttp://localhost:8080/rdf/nc/annotation/d6106fc7&#45;098a&#45;4ab4&#45;bc99&#45;8e4f4fe04fa5&#45;&gt;Roa:describing -->
<g id="edge18" class="edge">
<title>Rhttp://localhost:8080/rdf/nc/annotation/d6106fc7&#45;098a&#45;4ab4&#45;bc99&#45;8e4f4fe04fa5&#45;&gt;Roa:describing</title>
<path fill="none" stroke="#000000" d="M318.8455,-846.9732C383.3922,-804.6597 552.7309,-698.0298 707.6482,-638 723.6586,-631.796 741.54,-626.6916 758.1743,-622.6555"/>
<polygon fill="#000000" stroke="#000000" points="759.4008,-625.9633 768.3424,-620.2802 757.8084,-619.1468 759.4008,-625.9633"/>
<text text-anchor="middle" x="645.6482" y="-682.8" font-family="Times,serif" font-size="14.00" fill="#000000">oa:motivatedBy</text>
</g>
<!-- Rfoaf:Person -->
<g id="node20" class="node">
<title>Rfoaf:Person</title>
<ellipse fill="none" stroke="#0000ff" cx="1244.2624" cy="-1015" rx="51.1914" ry="18"/>
<text text-anchor="middle" x="1244.2624" y="-1011.3" font-family="Times,serif" font-size="14.00" fill="#000000">foaf:Person</text>
</g>
<!-- Rorcid:0000&#45;0002&#45;2146&#45;4803&#45;&gt;Rfoaf:Person -->
<g id="edge19" class="edge">
<title>Rorcid:0000&#45;0002&#45;2146&#45;4803&#45;&gt;Rfoaf:Person</title>
<path fill="none" stroke="#000000" d="M881.6809,-958.7837C902.3332,-963.3373 925.3983,-968.1582 946.6286,-972 1029.1893,-986.94 1125.3829,-1000.0678 1185.559,-1007.7712"/>
<polygon fill="#000000" stroke="#000000" points="1185.2697,-1011.2625 1195.6316,-1009.053 1186.1534,-1004.3185 1185.2697,-1011.2625"/>
<text text-anchor="middle" x="995.1286" y="-989.8" font-family="Times,serif" font-size="14.00" fill="#000000">rdf:type</text>
</g>
<!-- Rdwc:Event -->
<g id="node6" class="node">
<title>Rdwc:Event</title>
<ellipse fill="none" stroke="#0000ff" cx="1244.2624" cy="-961" rx="48.1917" ry="18"/>
<text text-anchor="middle" x="1244.2624" y="-957.3" font-family="Times,serif" font-size="14.00" fill="#000000">dwc:Event</text>
</g>
<!-- B_:node1euqlam8lx307&#45;&gt;Rdwc:Event -->
<g id="edge5" class="edge">
<title>B_:node1euqlam8lx307&#45;&gt;Rdwc:Event</title>
<path fill="none" stroke="#000000" d="M836.4155,-823.8793C860.3353,-824.6802 902.2999,-829.5045 928.6286,-852 944.069,-865.1924 931.7734,-880.152 946.6286,-894 986.2119,-930.8993 1009.0747,-921.0971 1061.6286,-934 1103.1333,-944.1901 1150.9484,-951.0899 1187.2408,-955.3624"/>
<polygon fill="#000000" stroke="#000000" points="1187.3012,-958.8921 1197.6343,-956.5515 1188.097,-951.9375 1187.3012,-958.8921"/>
<text text-anchor="middle" x="995.1286" y="-932.8" font-family="Times,serif" font-size="14.00" fill="#000000">rdf:type</text>
</g>
<!-- Roa:TextualBody -->
<g id="node7" class="node">
<title>Roa:TextualBody</title>
<ellipse fill="none" stroke="#0000ff" cx="1244.2624" cy="-907" rx="67.6881" ry="18"/>
<text text-anchor="middle" x="1244.2624" y="-903.3" font-family="Times,serif" font-size="14.00" fill="#000000">oa:TextualBody</text>
</g>
<!-- B_:node1euqlam8lx307&#45;&gt;Roa:TextualBody -->
<g id="edge6" class="edge">
<title>B_:node1euqlam8lx307&#45;&gt;Roa:TextualBody</title>
<path fill="none" stroke="#000000" d="M835.7757,-828.3382C857.6116,-833.7394 895.9235,-843.3148 928.6286,-852 936.6534,-854.1311 938.5523,-855.0734 946.6286,-857 1023.1132,-875.2452 1112.2042,-889.2814 1172.8389,-897.7735"/>
<polygon fill="#000000" stroke="#000000" points="1172.6827,-901.2852 1183.0686,-899.1914 1173.6438,-894.3515 1172.6827,-901.2852"/>
<text text-anchor="middle" x="995.1286" y="-878.8" font-family="Times,serif" font-size="14.00" fill="#000000">rdf:type</text>
</g>
<!-- Ltext/plain -->
<g id="node8" class="node">
<title>Ltext/plain</title>
<polygon fill="none" stroke="#000000" points="1210.2624,-834 1210.2624,-870 1278.2624,-870 1278.2624,-834 1210.2624,-834"/>
<text text-anchor="middle" x="1244.2624" y="-848.3" font-family="Times,serif" font-size="14.00" fill="#000000">text/plain</text>
</g>
<!-- B_:node1euqlam8lx307&#45;&gt;Ltext/plain -->
<g id="edge7" class="edge">
<title>B_:node1euqlam8lx307&#45;&gt;Ltext/plain</title>
<path fill="none" stroke="#000000" d="M836.1762,-825.1852C898.7907,-829.2995 1107.9438,-843.0427 1200.0607,-849.0956"/>
<polygon fill="#000000" stroke="#000000" points="1199.9666,-852.5968 1210.1746,-849.7601 1200.4256,-845.6119 1199.9666,-852.5968"/>
<text text-anchor="middle" x="995.1286" y="-841.8" font-family="Times,serif" font-size="14.00" fill="#000000">dcterms:format</text>
</g>
<!-- Riso:dut -->
<g id="node9" class="node">
<title>Riso:dut</title>
<ellipse fill="none" stroke="#0000ff" cx="1244.2624" cy="-797" rx="34.394" ry="18"/>
<text text-anchor="middle" x="1244.2624" y="-793.3" font-family="Times,serif" font-size="14.00" fill="#000000">iso:dut</text>
</g>
<!-- B_:node1euqlam8lx307&#45;&gt;Riso:dut -->
<g id="edge8" class="edge">
<title>B_:node1euqlam8lx307&#45;&gt;Riso:dut</title>
<path fill="none" stroke="#000000" d="M836.4337,-822.6635C861.3509,-820.8558 907.3551,-817.563 946.6286,-815 1036.3515,-809.1448 1141.334,-802.9489 1199.5678,-799.5699"/>
<polygon fill="#000000" stroke="#000000" points="1200.1022,-803.0449 1209.883,-798.9725 1199.6973,-796.0566 1200.1022,-803.0449"/>
<text text-anchor="middle" x="995.1286" y="-818.8" font-family="Times,serif" font-size="14.00" fill="#000000">dcterms:language</text>
</g>
<!-- L10 April 1821|Language: dut -->
<g id="node10" class="node">
<title>L10 April 1821|Language: dut</title>
<polygon fill="none" stroke="#000000" points="1825.3962,-788 1825.3962,-834 1920.3962,-834 1920.3962,-788 1825.3962,-788"/>
<text text-anchor="middle" x="1872.8962" y="-818.8" font-family="Times,serif" font-size="14.00" fill="#000000">10 April 1821</text>
<polyline fill="none" stroke="#000000" points="1825.3962,-811 1920.3962,-811 "/>
<text text-anchor="middle" x="1872.8962" y="-795.8" font-family="Times,serif" font-size="14.00" fill="#000000">Language: dut</text>
</g>
<!-- B_:node1euqlam8lx307&#45;&gt;L10 April 1821|Language: dut -->
<g id="edge9" class="edge">
<title>B_:node1euqlam8lx307&#45;&gt;L10 April 1821|Language: dut</title>
<path fill="none" stroke="#000000" d="M835.2057,-817.3866C874.4365,-802.5822 974.373,-767.1245 1061.6286,-755 1342.3781,-715.9888 1681.7448,-772.6104 1815.1099,-798.8577"/>
<polygon fill="#000000" stroke="#000000" points="1814.6186,-802.3284 1825.1091,-800.845 1815.9832,-795.4627 1814.6186,-802.3284"/>
<text text-anchor="middle" x="1244.2624" y="-758.8" font-family="Times,serif" font-size="14.00" fill="#000000">rdf:value</text>
</g>
<!-- Rdwc:Event&#45;&gt;L10 April 1821|Language: dut -->
<g id="edge25" class="edge">
<title>Rdwc:Event&#45;&gt;L10 April 1821|Language: dut</title>
<path fill="none" stroke="#000000" d="M1290.3233,-955.7738C1327.4187,-951.1855 1380.7949,-943.7267 1426.8962,-934 1568.2641,-904.1736 1731.1648,-855.5353 1815.543,-829.247"/>
<polygon fill="#000000" stroke="#000000" points="1816.6894,-832.5558 1825.1901,-826.2322 1814.6013,-825.8745 1816.6894,-832.5558"/>
<text text-anchor="middle" x="1511.3962" y="-931.8" font-family="Times,serif" font-size="14.00" fill="#000000">dwc:verbatimEventDate</text>
</g>
<!-- Roa:Target -->
<g id="node12" class="node">
<title>Roa:Target</title>
<ellipse fill="none" stroke="#0000ff" cx="1244.2624" cy="-692" rx="44.393" ry="18"/>
<text text-anchor="middle" x="1244.2624" y="-688.3" font-family="Times,serif" font-size="14.00" fill="#000000">oa:Target</text>
</g>
<!-- B_:node1euqlam8lx306&#45;&gt;Roa:Target -->
<g id="edge11" class="edge">
<title>B_:node1euqlam8lx306&#45;&gt;Roa:Target</title>
<path fill="none" stroke="#000000" d="M836.1762,-666.1429C896.7015,-669.9779 1094.1498,-682.4886 1190.4589,-688.5909"/>
<polygon fill="#000000" stroke="#000000" points="1190.3709,-692.0923 1200.5723,-689.2317 1190.8136,-685.1063 1190.3709,-692.0923"/>
<text text-anchor="middle" x="995.1286" y="-681.8" font-family="Times,serif" font-size="14.00" fill="#000000">rdf:type</text>
</g>
<!-- Limage/jpeg -->
<g id="node13" class="node">
<title>Limage/jpeg</title>
<polygon fill="none" stroke="#000000" points="1205.7624,-619 1205.7624,-655 1282.7624,-655 1282.7624,-619 1205.7624,-619"/>
<text text-anchor="middle" x="1244.2624" y="-633.3" font-family="Times,serif" font-size="14.00" fill="#000000">image/jpeg</text>
</g>
<!-- B_:node1euqlam8lx306&#45;&gt;Limage/jpeg -->
<g id="edge12" class="edge">
<title>B_:node1euqlam8lx306&#45;&gt;Limage/jpeg</title>
<path fill="none" stroke="#000000" d="M836.4246,-663.2703C861.3315,-660.9519 907.324,-656.8043 946.6286,-654 1034.2911,-647.7454 1136.6095,-642.3087 1195.5727,-639.3567"/>
<polygon fill="#000000" stroke="#000000" points="1195.8983,-642.8449 1205.7119,-638.8522 1195.5503,-635.8536 1195.8983,-642.8449"/>
<text text-anchor="middle" x="995.1286" y="-657.8" font-family="Times,serif" font-size="14.00" fill="#000000">dcterms:format</text>
</g>
<!-- B_:node1euqlam8lx309 -->
<g id="node14" class="node">
<title>B_:node1euqlam8lx309</title>
<ellipse fill="none" stroke="#00ff00" cx="1244.2624" cy="-582" rx="18" ry="18"/>
</g>
<!-- B_:node1euqlam8lx306&#45;&gt;B_:node1euqlam8lx309 -->
<g id="edge13" class="edge">
<title>B_:node1euqlam8lx306&#45;&gt;B_:node1euqlam8lx309</title>
<path fill="none" stroke="#000000" d="M836.1079,-661.8937C858.2787,-657.7708 896.9281,-649.6312 928.6286,-638 937.0255,-634.9191 938.1325,-631.7959 946.6286,-629 1042.1626,-597.5615 1162.0692,-586.8356 1215.8603,-583.4433"/>
<polygon fill="#000000" stroke="#000000" points="1216.2314,-586.9276 1226.0069,-582.8422 1215.8174,-579.9398 1216.2314,-586.9276"/>
<text text-anchor="middle" x="995.1286" y="-632.8" font-family="Times,serif" font-size="14.00" fill="#000000">oa:hasSelector</text>
</g>
<!-- Rimg:MMNAT01_AF_NNM001001033_004.jpg -->
<g id="node18" class="node">
<title>Rimg:MMNAT01_AF_NNM001001033_004.jpg</title>
<ellipse fill="none" stroke="#0000ff" cx="1244.2624" cy="-419" rx="182.7677" ry="18"/>
<text text-anchor="middle" x="1244.2624" y="-415.3" font-family="Times,serif" font-size="14.00" fill="#000000">img:MMNAT01_AF_NNM001001033_004.jpg</text>
</g>
<!-- B_:node1euqlam8lx306&#45;&gt;Rimg:MMNAT01_AF_NNM001001033_004.jpg -->
<g id="edge17" class="edge">
<title>B_:node1euqlam8lx306&#45;&gt;Rimg:MMNAT01_AF_NNM001001033_004.jpg</title>
<path fill="none" stroke="#000000" d="M836.2362,-665.5929C860.3438,-665.3859 902.9311,-661.3987 928.6286,-638 946.7119,-621.5343 930.9414,-604.7626 946.6286,-586 1008.6617,-511.8054 1112.5854,-464.3334 1179.7642,-439.6694"/>
<polygon fill="#000000" stroke="#000000" points="1181.1796,-442.8797 1189.3998,-436.1955 1178.8055,-436.2946 1181.1796,-442.8797"/>
<text text-anchor="middle" x="995.1286" y="-589.8" font-family="Times,serif" font-size="14.00" fill="#000000">oa:hasSource</text>
</g>
<!-- Roa:FragmentSelector -->
<g id="node15" class="node">
<title>Roa:FragmentSelector</title>
<ellipse fill="none" stroke="#0000ff" cx="1872.8962" cy="-664" rx="84.485" ry="18"/>
<text text-anchor="middle" x="1872.8962" y="-660.3" font-family="Times,serif" font-size="14.00" fill="#000000">oa:FragmentSelector</text>
</g>
<!-- B_:node1euqlam8lx309&#45;&gt;Roa:FragmentSelector -->
<g id="edge14" class="edge">
<title>B_:node1euqlam8lx309&#45;&gt;Roa:FragmentSelector</title>
<path fill="none" stroke="#000000" d="M1262.4201,-583.3289C1295.5594,-586.0517 1367.8713,-593.3719 1426.8962,-609 1435.1939,-611.197 1436.5891,-613.8386 1444.8962,-616 1557.3103,-645.2482 1690.9005,-656.6746 1778.5701,-661.1385"/>
<polygon fill="#000000" stroke="#000000" points="1778.6045,-664.6443 1788.7635,-661.6366 1778.9463,-657.6526 1778.6045,-664.6443"/>
<text text-anchor="middle" x="1511.3962" y="-644.8" font-family="Times,serif" font-size="14.00" fill="#000000">rdf:type</text>
</g>
<!-- Rmf: -->
<g id="node16" class="node">
<title>Rmf:</title>
<ellipse fill="none" stroke="#0000ff" cx="1872.8962" cy="-610" rx="27" ry="18"/>
<text text-anchor="middle" x="1872.8962" y="-606.3" font-family="Times,serif" font-size="14.00" fill="#000000">mf:</text>
</g>
<!-- B_:node1euqlam8lx309&#45;&gt;Rmf: -->
<g id="edge15" class="edge">
<title>B_:node1euqlam8lx309&#45;&gt;Rmf:</title>
<path fill="none" stroke="#000000" d="M1262.3982,-582.8078C1348.4776,-586.6419 1716.5826,-603.0376 1835.6104,-608.3393"/>
<polygon fill="#000000" stroke="#000000" points="1835.5464,-611.8398 1845.6923,-608.7883 1835.858,-604.8467 1835.5464,-611.8398"/>
<text text-anchor="middle" x="1511.3962" y="-600.8" font-family="Times,serif" font-size="14.00" fill="#000000">dcterms:conformsTo</text>
</g>
<!-- Lxywh=0.6712020824648357,0.177764417868435,0.07131751180401791,0.015538452292495508 -->
<g id="node17" class="node">
<title>Lxywh=0.6712020824648357,0.177764417868435,0.07131751180401791,0.015538452292495508</title>
<polygon fill="none" stroke="#000000" points="1595.8962,-537 1595.8962,-573 2149.8962,-573 2149.8962,-537 1595.8962,-537"/>
<text text-anchor="middle" x="1872.8962" y="-551.3" font-family="Times,serif" font-size="14.00" fill="#000000">xywh=0.6712020824648357,0.177764417868435,0.07131751180401791,0.015538452292495508</text>
</g>
<!-- B_:node1euqlam8lx309&#45;&gt;Lxywh=0.6712020824648357,0.177764417868435,0.07131751180401791,0.015538452292495508 -->
<g id="edge16" class="edge">
<title>B_:node1euqlam8lx309&#45;&gt;Lxywh=0.6712020824648357,0.177764417868435,0.07131751180401791,0.015538452292495508</title>
<path fill="none" stroke="#000000" d="M1262.2464,-581.1764C1297.357,-579.5722 1377.4916,-575.9292 1444.8962,-573 1490.4183,-571.0218 1538.6656,-568.9594 1585.7262,-566.9666"/>
<polygon fill="#000000" stroke="#000000" points="1585.906,-570.4622 1595.749,-566.5424 1585.6099,-563.4684 1585.906,-570.4622"/>
<text text-anchor="middle" x="1511.3962" y="-576.8" font-family="Times,serif" font-size="14.00" fill="#000000">rdf:value</text>
</g>
<!-- Rdcmitype:StillImage -->
<g id="node21" class="node">
<title>Rdcmitype:StillImage</title>
<ellipse fill="none" stroke="#0000ff" cx="1872.8962" cy="-500" rx="83.3857" ry="18"/>
<text text-anchor="middle" x="1872.8962" y="-496.3" font-family="Times,serif" font-size="14.00" fill="#000000">dcmitype:StillImage</text>
</g>
<!-- Rimg:MMNAT01_AF_NNM001001033_004.jpg&#45;&gt;Rdcmitype:StillImage -->
<g id="edge20" class="edge">
<title>Rimg:MMNAT01_AF_NNM001001033_004.jpg&#45;&gt;Rdcmitype:StillImage</title>
<path fill="none" stroke="#000000" d="M1333.0422,-434.7553C1367.873,-440.7504 1408.2162,-447.4648 1444.8962,-453 1511.8355,-463.1016 1528.6417,-465.2706 1595.8962,-473 1659.3876,-480.2969 1731.2154,-487.2612 1785.8163,-492.2887"/>
<polygon fill="#000000" stroke="#000000" points="1785.5273,-495.7768 1795.8052,-493.2046 1786.1665,-488.806 1785.5273,-495.7768"/>
<text text-anchor="middle" x="1511.3962" y="-474.8" font-family="Times,serif" font-size="14.00" fill="#000000">rdf:type</text>
</g>
<!-- Rdsw:Token -->
<g id="node22" class="node">
<title>Rdsw:Token</title>
<ellipse fill="none" stroke="#0000ff" cx="1872.8962" cy="-446" rx="50.0912" ry="18"/>
<text text-anchor="middle" x="1872.8962" y="-442.3" font-family="Times,serif" font-size="14.00" fill="#000000">dsw:Token</text>
</g>
<!-- Rimg:MMNAT01_AF_NNM001001033_004.jpg&#45;&gt;Rdsw:Token -->
<g id="edge21" class="edge">
<title>Rimg:MMNAT01_AF_NNM001001033_004.jpg&#45;&gt;Rdsw:Token</title>
<path fill="none" stroke="#000000" d="M1411.8989,-426.2C1544.2823,-431.8859 1721.415,-439.4938 1812.7731,-443.4177"/>
<polygon fill="#000000" stroke="#000000" points="1812.8052,-446.9222 1822.9462,-443.8546 1813.1056,-439.9287 1812.8052,-446.9222"/>
<text text-anchor="middle" x="1511.3962" y="-437.8" font-family="Times,serif" font-size="14.00" fill="#000000">rdf:type</text>
</g>
<!-- Rdwc:HumanObservation -->
<g id="node23" class="node">
<title>Rdwc:HumanObservation</title>
<ellipse fill="none" stroke="#0000ff" cx="1872.8962" cy="-392" rx="96.6831" ry="18"/>
<text text-anchor="middle" x="1872.8962" y="-388.3" font-family="Times,serif" font-size="14.00" fill="#000000">dwc:HumanObservation</text>
</g>
<!-- Rimg:MMNAT01_AF_NNM001001033_004.jpg&#45;&gt;Rdwc:HumanObservation -->
<g id="edge22" class="edge">
<title>Rimg:MMNAT01_AF_NNM001001033_004.jpg&#45;&gt;Rdwc:HumanObservation</title>
<path fill="none" stroke="#000000" d="M1406.8639,-410.7563C1419.7315,-410.1464 1432.5278,-409.5539 1444.8962,-409 1554.9451,-404.072 1680.9445,-399.155 1767.5864,-395.8863"/>
<polygon fill="#000000" stroke="#000000" points="1767.8281,-399.3798 1777.6893,-395.5059 1767.5647,-392.3847 1767.8281,-399.3798"/>
<text text-anchor="middle" x="1511.3962" y="-412.8" font-family="Times,serif" font-size="14.00" fill="#000000">rdf:type</text>
</g>
<!-- Roa:Source -->
<g id="node24" class="node">
<title>Roa:Source</title>
<ellipse fill="none" stroke="#0000ff" cx="1872.8962" cy="-338" rx="46.2923" ry="18"/>
<text text-anchor="middle" x="1872.8962" y="-334.3" font-family="Times,serif" font-size="14.00" fill="#000000">oa:Source</text>
</g>
<!-- Rimg:MMNAT01_AF_NNM001001033_004.jpg&#45;&gt;Roa:Source -->
<g id="edge23" class="edge">
<title>Rimg:MMNAT01_AF_NNM001001033_004.jpg&#45;&gt;Roa:Source</title>
<path fill="none" stroke="#000000" d="M1333.0422,-403.2447C1367.873,-397.2496 1408.2162,-390.5352 1444.8962,-385 1511.8355,-374.8984 1528.6417,-372.7294 1595.8962,-365 1672.7185,-356.171 1761.7454,-347.829 1817.6941,-342.8155"/>
<polygon fill="#000000" stroke="#000000" points="1818.0963,-346.2936 1827.7456,-341.9187 1817.4742,-339.3213 1818.0963,-346.2936"/>
<text text-anchor="middle" x="1511.3962" y="-388.8" font-family="Times,serif" font-size="14.00" fill="#000000">rdf:type</text>
</g>
<!-- Rfoaf:Image -->
<g id="node25" class="node">
<title>Rfoaf:Image</title>
<ellipse fill="none" stroke="#0000ff" cx="1872.8962" cy="-284" rx="50.0912" ry="18"/>
<text text-anchor="middle" x="1872.8962" y="-280.3" font-family="Times,serif" font-size="14.00" fill="#000000">foaf:Image</text>
</g>
<!-- Rimg:MMNAT01_AF_NNM001001033_004.jpg&#45;&gt;Rfoaf:Image -->
<g id="edge24" class="edge">
<title>Rimg:MMNAT01_AF_NNM001001033_004.jpg&#45;&gt;Rfoaf:Image</title>
<path fill="none" stroke="#000000" d="M1290.4998,-401.5494C1330.92,-386.6121 1391.3573,-365.0416 1444.8962,-349 1511.188,-329.1373 1527.712,-322.8343 1595.8962,-311 1670.1804,-298.107 1756.8195,-290.9002 1813.1542,-287.2378"/>
<polygon fill="#000000" stroke="#000000" points="1813.5519,-290.7197 1823.3107,-286.5946 1813.1094,-283.7337 1813.5519,-290.7197"/>
<text text-anchor="middle" x="1511.3962" y="-352.8" font-family="Times,serif" font-size="14.00" fill="#000000">rdf:type</text>
</g>
</g>
</svg>
