<?xml version="1.0" encoding="UTF-8" standalone="no"?>
<!DOCTYPE svg PUBLIC "-//W3C//DTD SVG 1.1//EN"
 "http://www.w3.org/Graphics/SVG/1.1/DTD/svg11.dtd">
<!-- Generated by graphviz version 2.40.1 (20161225.0304)
 -->
<!-- Title: %3 Pages: 1 -->
<svg width="2171pt" height="883pt"
 viewBox="0.00 0.00 2170.90 882.73" xmlns="http://www.w3.org/2000/svg" xmlns:xlink="http://www.w3.org/1999/xlink">
<g id="graph0" class="graph" transform="scale(1 1) rotate(0) translate(4 878.7292)">
<title>%3</title>
<polygon fill="#ffffff" stroke="transparent" points="-4,4 -4,-878.7292 2166.895,-878.7292 2166.895,4 -4,4"/>
<text text-anchor="middle" x="1081.4475" y="-278.8" font-family="Times,serif" font-size="14.00" fill="#000000">Model:</text>
<text text-anchor="middle" x="1081.4475" y="-263.8" font-family="Times,serif" font-size="14.00" fill="#000000">(Unknown)</text>
<text text-anchor="middle" x="1081.4475" y="-232.8" font-family="Times,serif" font-size="14.00" fill="#000000">Namespaces:</text>
<text text-anchor="middle" x="1081.4475" y="-217.8" font-family="Times,serif" font-size="14.00" fill="#000000">dcmitype: http://purl.org/dc/dcmitype/</text>
<text text-anchor="middle" x="1081.4475" y="-202.8" font-family="Times,serif" font-size="14.00" fill="#000000">dcterms: http://purl.org/dc/terms/</text>
<text text-anchor="middle" x="1081.4475" y="-187.8" font-family="Times,serif" font-size="14.00" fill="#000000">dsw: http://purl.org/dsw/</text>
<text text-anchor="middle" x="1081.4475" y="-172.8" font-family="Times,serif" font-size="14.00" fill="#000000">dwc: http://rs.tdwg.org/dwc/terms/</text>
<text text-anchor="middle" x="1081.4475" y="-157.8" font-family="Times,serif" font-size="14.00" fill="#000000">dwciri: http://rs.tdwg.org/dwc/iri/</text>
<text text-anchor="middle" x="1081.4475" y="-142.8" font-family="Times,serif" font-size="14.00" fill="#000000">foaf: http://xmlns.com/foaf/0.1/</text>
<text text-anchor="middle" x="1081.4475" y="-127.8" font-family="Times,serif" font-size="14.00" fill="#000000">gbif: http://www.gbif.org/species/</text>
<text text-anchor="middle" x="1081.4475" y="-112.8" font-family="Times,serif" font-size="14.00" fill="#000000">img: http://localhost:8080/semanticAnnotator/files/</text>
<text text-anchor="middle" x="1081.4475" y="-97.8" font-family="Times,serif" font-size="14.00" fill="#000000">iso: http://iso639&#45;3.sil.org/code/</text>
<text text-anchor="middle" x="1081.4475" y="-82.8" font-family="Times,serif" font-size="14.00" fill="#000000">mf: http://www.w3.org/TR/media&#45;frags/</text>
<text text-anchor="middle" x="1081.4475" y="-67.8" font-family="Times,serif" font-size="14.00" fill="#000000">oa: http://www.w3.org/ns/oa#</text>
<text text-anchor="middle" x="1081.4475" y="-52.8" font-family="Times,serif" font-size="14.00" fill="#000000">obo: http://purl.obolibrary.org/obo/</text>
<text text-anchor="middle" x="1081.4475" y="-37.8" font-family="Times,serif" font-size="14.00" fill="#000000">orcid: http://orcid.org/</text>
<text text-anchor="middle" x="1081.4475" y="-22.8" font-family="Times,serif" font-size="14.00" fill="#000000">owl: http://www.w3.org/2002/07/owl#</text>
<text text-anchor="middle" x="1081.4475" y="-7.8" font-family="Times,serif" font-size="14.00" fill="#000000">rdf: http://www.w3.org/1999/02/22&#45;rdf&#45;syntax&#45;ns#</text>
<!-- Rhttp://localhost:8080/rdf/nc/annotation/b4ee54d1&#45;d601&#45;497e&#45;ac88&#45;6846021769b2 -->
<g id="node1" class="node">
<title>Rhttp://localhost:8080/rdf/nc/annotation/b4ee54d1&#45;d601&#45;497e&#45;ac88&#45;6846021769b2</title>
<ellipse fill="none" stroke="#0000ff" cx="298.3235" cy="-672.7292" rx="298.1472" ry="18"/>
<text text-anchor="middle" x="298.3235" y="-669.0292" font-family="Times,serif" font-size="14.00" fill="#000000">http://localhost:8080/rdf/nc/annotation/b4ee54d1&#45;d601&#45;497e&#45;ac88&#45;6846021769b2</text>
</g>
<!-- Roa:Annotation -->
<g id="node2" class="node">
<title>Roa:Annotation</title>
<ellipse fill="none" stroke="#0000ff" cx="831.1373" cy="-595.7292" rx="61.1893" ry="18"/>
<text text-anchor="middle" x="831.1373" y="-592.0292" font-family="Times,serif" font-size="14.00" fill="#000000">oa:Annotation</text>
</g>
<!-- Rhttp://localhost:8080/rdf/nc/annotation/b4ee54d1&#45;d601&#45;497e&#45;ac88&#45;6846021769b2&#45;&gt;Roa:Annotation -->
<g id="edge1" class="edge">
<title>Rhttp://localhost:8080/rdf/nc/annotation/b4ee54d1&#45;d601&#45;497e&#45;ac88&#45;6846021769b2&#45;&gt;Roa:Annotation</title>
<path fill="none" stroke="#000000" d="M413.2802,-656.1162C521.1308,-640.53 678.5696,-617.7776 766.1747,-605.1173"/>
<polygon fill="#000000" stroke="#000000" points="766.8482,-608.5564 776.2447,-603.662 765.8469,-601.6284 766.8482,-608.5564"/>
<text text-anchor="middle" x="658.6471" y="-628.5292" font-family="Times,serif" font-size="14.00" fill="#000000">rdf:type</text>
</g>
<!-- Rorcid:0000&#45;0002&#45;2146&#45;4803 -->
<g id="node3" class="node">
<title>Rorcid:0000&#45;0002&#45;2146&#45;4803</title>
<ellipse fill="none" stroke="#0000ff" cx="831.1373" cy="-845.7292" rx="110.4804" ry="18"/>
<text text-anchor="middle" x="831.1373" y="-842.0292" font-family="Times,serif" font-size="14.00" fill="#000000">orcid:0000&#45;0002&#45;2146&#45;4803</text>
</g>
<!-- Rhttp://localhost:8080/rdf/nc/annotation/b4ee54d1&#45;d601&#45;497e&#45;ac88&#45;6846021769b2&#45;&gt;Rorcid:0000&#45;0002&#45;2146&#45;4803 -->
<g id="edge2" class="edge">
<title>Rhttp://localhost:8080/rdf/nc/annotation/b4ee54d1&#45;d601&#45;497e&#45;ac88&#45;6846021769b2&#45;&gt;Rorcid:0000&#45;0002&#45;2146&#45;4803</title>
<path fill="none" stroke="#000000" d="M352.84,-690.4302C453.4315,-723.0914 667.4451,-792.5798 771.6491,-826.4139"/>
<polygon fill="#000000" stroke="#000000" points="770.791,-829.8151 781.3831,-829.5745 772.9527,-823.1573 770.791,-829.8151"/>
<text text-anchor="middle" x="658.6471" y="-807.5292" font-family="Times,serif" font-size="14.00" fill="#000000">dcterms:creator</text>
</g>
<!-- L2021&#45;01&#45;12T14:23:11.646Z|Datatype: dcterms:W3CDTF -->
<g id="node4" class="node">
<title>L2021&#45;01&#45;12T14:23:11.646Z|Datatype: dcterms:W3CDTF</title>
<polygon fill="none" stroke="#000000" points="743.6373,-740.7292 743.6373,-786.7292 918.6373,-786.7292 918.6373,-740.7292 743.6373,-740.7292"/>
<text text-anchor="middle" x="831.1373" y="-771.5292" font-family="Times,serif" font-size="14.00" fill="#000000">2021&#45;01&#45;12T14:23:11.646Z</text>
<polyline fill="none" stroke="#000000" points="743.6373,-763.7292 918.6373,-763.7292 "/>
<text text-anchor="middle" x="831.1373" y="-748.5292" font-family="Times,serif" font-size="14.00" fill="#000000">Datatype: dcterms:W3CDTF</text>
</g>
<!-- Rhttp://localhost:8080/rdf/nc/annotation/b4ee54d1&#45;d601&#45;497e&#45;ac88&#45;6846021769b2&#45;&gt;L2021&#45;01&#45;12T14:23:11.646Z|Datatype: dcterms:W3CDTF -->
<g id="edge3" class="edge">
<title>Rhttp://localhost:8080/rdf/nc/annotation/b4ee54d1&#45;d601&#45;497e&#45;ac88&#45;6846021769b2&#45;&gt;L2021&#45;01&#45;12T14:23:11.646Z|Datatype: dcterms:W3CDTF</title>
<path fill="none" stroke="#000000" d="M397.9167,-689.7389C493.9161,-706.1347 638.2724,-730.7896 733.5806,-747.0674"/>
<polygon fill="#000000" stroke="#000000" points="733.0641,-750.5298 743.5107,-748.7633 734.2427,-743.6297 733.0641,-750.5298"/>
<text text-anchor="middle" x="658.6471" y="-745.5292" font-family="Times,serif" font-size="14.00" fill="#000000">dcterms:date</text>
</g>
<!-- B_:node1evfpueffx3 -->
<g id="node5" class="node">
<title>B_:node1evfpueffx3</title>
<ellipse fill="none" stroke="#00ff00" cx="831.1373" cy="-519.7292" rx="18" ry="18"/>
</g>
<!-- Rhttp://localhost:8080/rdf/nc/annotation/b4ee54d1&#45;d601&#45;497e&#45;ac88&#45;6846021769b2&#45;&gt;B_:node1evfpueffx3 -->
<g id="edge4" class="edge">
<title>Rhttp://localhost:8080/rdf/nc/annotation/b4ee54d1&#45;d601&#45;497e&#45;ac88&#45;6846021769b2&#45;&gt;B_:node1evfpueffx3</title>
<path fill="none" stroke="#000000" d="M359.7041,-655.1035C475.4295,-621.8724 721.6242,-551.1764 803.7961,-527.5803"/>
<polygon fill="#000000" stroke="#000000" points="804.7709,-530.942 813.4164,-524.8178 802.8388,-524.2139 804.7709,-530.942"/>
<text text-anchor="middle" x="658.6471" y="-581.5292" font-family="Times,serif" font-size="14.00" fill="#000000">oa:hasBody</text>
</g>
<!-- B_:node1evfpueffx2 -->
<g id="node12" class="node">
<title>B_:node1evfpueffx2</title>
<ellipse fill="none" stroke="#00ff00" cx="831.1373" cy="-703.7292" rx="18" ry="18"/>
</g>
<!-- Rhttp://localhost:8080/rdf/nc/annotation/b4ee54d1&#45;d601&#45;497e&#45;ac88&#45;6846021769b2&#45;&gt;B_:node1evfpueffx2 -->
<g id="edge12" class="edge">
<title>Rhttp://localhost:8080/rdf/nc/annotation/b4ee54d1&#45;d601&#45;497e&#45;ac88&#45;6846021769b2&#45;&gt;B_:node1evfpueffx2</title>
<path fill="none" stroke="#000000" d="M513.1197,-685.2264C624.5114,-691.7074 748.4207,-698.9166 802.8701,-702.0846"/>
<polygon fill="#000000" stroke="#000000" points="802.9214,-705.5934 813.1079,-702.6802 803.3281,-698.6052 802.9214,-705.5934"/>
<text text-anchor="middle" x="658.6471" y="-699.5292" font-family="Times,serif" font-size="14.00" fill="#000000">oa:hasTarget</text>
</g>
<!-- Roa:describing -->
<g id="node19" class="node">
<title>Roa:describing</title>
<ellipse fill="none" stroke="#0000ff" cx="831.1373" cy="-649.7292" rx="57.6901" ry="18"/>
<text text-anchor="middle" x="831.1373" y="-646.0292" font-family="Times,serif" font-size="14.00" fill="#000000">oa:describing</text>
</g>
<!-- Rhttp://localhost:8080/rdf/nc/annotation/b4ee54d1&#45;d601&#45;497e&#45;ac88&#45;6846021769b2&#45;&gt;Roa:describing -->
<g id="edge20" class="edge">
<title>Rhttp://localhost:8080/rdf/nc/annotation/b4ee54d1&#45;d601&#45;497e&#45;ac88&#45;6846021769b2&#45;&gt;Roa:describing</title>
<path fill="none" stroke="#000000" d="M538.3932,-662.0364C564.1331,-660.9102 589.9328,-659.7898 614.6471,-658.7292 664.5759,-656.5865 720.9856,-654.244 763.7038,-652.486"/>
<polygon fill="#000000" stroke="#000000" points="763.8556,-655.9828 773.7034,-652.0749 763.568,-648.9887 763.8556,-655.9828"/>
<text text-anchor="middle" x="658.6471" y="-662.5292" font-family="Times,serif" font-size="14.00" fill="#000000">oa:motivatedBy</text>
</g>
<!-- Rfoaf:Person -->
<g id="node20" class="node">
<title>Rfoaf:Person</title>
<ellipse fill="none" stroke="#0000ff" cx="1269.2612" cy="-856.7292" rx="51.1914" ry="18"/>
<text text-anchor="middle" x="1269.2612" y="-853.0292" font-family="Times,serif" font-size="14.00" fill="#000000">foaf:Person</text>
</g>
<!-- Rorcid:0000&#45;0002&#45;2146&#45;4803&#45;&gt;Rfoaf:Person -->
<g id="edge21" class="edge">
<title>Rorcid:0000&#45;0002&#45;2146&#45;4803&#45;&gt;Rfoaf:Person</title>
<path fill="none" stroke="#000000" d="M940.5643,-848.4766C1024.9422,-850.5951 1138.5589,-853.4477 1207.7182,-855.184"/>
<polygon fill="#000000" stroke="#000000" points="1207.9228,-858.6902 1218.0075,-855.4424 1208.0986,-851.6924 1207.9228,-858.6902"/>
<text text-anchor="middle" x="1014.1275" y="-854.5292" font-family="Times,serif" font-size="14.00" fill="#000000">rdf:type</text>
</g>
<!-- Rdwc:Taxon -->
<g id="node6" class="node">
<title>Rdwc:Taxon</title>
<ellipse fill="none" stroke="#0000ff" cx="1269.2612" cy="-405.7292" rx="50.0912" ry="18"/>
<text text-anchor="middle" x="1269.2612" y="-402.0292" font-family="Times,serif" font-size="14.00" fill="#000000">dwc:Taxon</text>
</g>
<!-- B_:node1evfpueffx3&#45;&gt;Rdwc:Taxon -->
<g id="edge5" class="edge">
<title>B_:node1evfpueffx3&#45;&gt;Rdwc:Taxon</title>
<path fill="none" stroke="#000000" d="M849.3118,-520.4054C873.5063,-520.2929 916.1918,-516.4123 941.6275,-492.7292 960.7607,-474.9142 939.2959,-453.1635 959.6275,-436.7292 1032.4611,-377.8565 1148.6339,-384.5008 1216.0546,-394.9273"/>
<polygon fill="#000000" stroke="#000000" points="1215.607,-398.4005 1226.0398,-396.5546 1216.733,-391.4916 1215.607,-398.4005"/>
<text text-anchor="middle" x="1014.1275" y="-440.5292" font-family="Times,serif" font-size="14.00" fill="#000000">rdf:type</text>
</g>
<!-- Roa:TextualBody -->
<g id="node7" class="node">
<title>Roa:TextualBody</title>
<ellipse fill="none" stroke="#0000ff" cx="1269.2612" cy="-351.7292" rx="67.6881" ry="18"/>
<text text-anchor="middle" x="1269.2612" y="-348.0292" font-family="Times,serif" font-size="14.00" fill="#000000">oa:TextualBody</text>
</g>
<!-- B_:node1evfpueffx3&#45;&gt;Roa:TextualBody -->
<g id="edge6" class="edge">
<title>B_:node1evfpueffx3&#45;&gt;Roa:TextualBody</title>
<path fill="none" stroke="#000000" d="M849.4669,-520.9679C874.2429,-521.5482 918.0276,-518.5105 941.6275,-492.7292 977.4482,-453.5974 920.6944,-410.7658 959.6275,-374.7292 1027.1187,-312.2589 1142.1745,-322.839 1211.4207,-336.8476"/>
<polygon fill="#000000" stroke="#000000" points="1210.7867,-340.2908 1221.2939,-338.9311 1212.232,-333.4417 1210.7867,-340.2908"/>
<text text-anchor="middle" x="1014.1275" y="-378.5292" font-family="Times,serif" font-size="14.00" fill="#000000">rdf:type</text>
</g>
<!-- Ltext/plain -->
<g id="node8" class="node">
<title>Ltext/plain</title>
<polygon fill="none" stroke="#000000" points="1235.2612,-561.7292 1235.2612,-597.7292 1303.2612,-597.7292 1303.2612,-561.7292 1235.2612,-561.7292"/>
<text text-anchor="middle" x="1269.2612" y="-576.0292" font-family="Times,serif" font-size="14.00" fill="#000000">text/plain</text>
</g>
<!-- B_:node1evfpueffx3&#45;&gt;Ltext/plain -->
<g id="edge7" class="edge">
<title>B_:node1evfpueffx3&#45;&gt;Ltext/plain</title>
<path fill="none" stroke="#000000" d="M849.0012,-522.4581C873.808,-526.2277 920.1004,-533.1901 959.6275,-538.7292 1053.8527,-551.9334 1164.3739,-566.2983 1224.5865,-574.0296"/>
<polygon fill="#000000" stroke="#000000" points="1224.5098,-577.5483 1234.8737,-575.3488 1225.4002,-570.6052 1224.5098,-577.5483"/>
<text text-anchor="middle" x="1014.1275" y="-555.5292" font-family="Times,serif" font-size="14.00" fill="#000000">dcterms:format</text>
</g>
<!-- Riso:lat -->
<g id="node9" class="node">
<title>Riso:lat</title>
<ellipse fill="none" stroke="#0000ff" cx="1269.2612" cy="-459.7292" rx="32.4942" ry="18"/>
<text text-anchor="middle" x="1269.2612" y="-456.0292" font-family="Times,serif" font-size="14.00" fill="#000000">iso:lat</text>
</g>
<!-- B_:node1evfpueffx3&#45;&gt;Riso:lat -->
<g id="edge8" class="edge">
<title>B_:node1evfpueffx3&#45;&gt;Riso:lat</title>
<path fill="none" stroke="#000000" d="M849.142,-517.6912C871.6837,-514.6196 911.0496,-507.5134 941.6275,-492.7292 950.7518,-488.3176 950.1464,-482.3105 959.6275,-478.7292 1050.119,-444.5475 1166.0475,-448.9769 1227.1762,-454.6641"/>
<polygon fill="#000000" stroke="#000000" points="1226.9239,-458.1561 1237.2196,-455.6565 1227.6123,-451.19 1226.9239,-458.1561"/>
<text text-anchor="middle" x="1014.1275" y="-482.5292" font-family="Times,serif" font-size="14.00" fill="#000000">dcterms:language</text>
</g>
<!-- Rimg:MMNAT01_AF_NNM001001033_003.jpg -->
<g id="node10" class="node">
<title>Rimg:MMNAT01_AF_NNM001001033_003.jpg</title>
<ellipse fill="none" stroke="#0000ff" cx="1269.2612" cy="-634.7292" rx="182.7677" ry="18"/>
<text text-anchor="middle" x="1269.2612" y="-631.0292" font-family="Times,serif" font-size="14.00" fill="#000000">img:MMNAT01_AF_NNM001001033_003.jpg</text>
</g>
<!-- B_:node1evfpueffx3&#45;&gt;Rimg:MMNAT01_AF_NNM001001033_003.jpg -->
<g id="edge9" class="edge">
<title>B_:node1evfpueffx3&#45;&gt;Rimg:MMNAT01_AF_NNM001001033_003.jpg</title>
<path fill="none" stroke="#000000" d="M847.9896,-527.0098C872.3644,-537.4042 918.9943,-556.781 959.6275,-570.7292 1015.2336,-589.8173 1029.1916,-595.1787 1086.6275,-607.7292 1105.7804,-611.9144 1126.207,-615.641 1146.2053,-618.8893"/>
<polygon fill="#000000" stroke="#000000" points="1145.8708,-622.38 1156.2965,-620.4946 1146.9705,-615.4669 1145.8708,-622.38"/>
<text text-anchor="middle" x="1014.1275" y="-606.5292" font-family="Times,serif" font-size="14.00" fill="#000000">dsw:derivedFrom</text>
</g>
<!-- LPteropus minimus|Language: lat -->
<g id="node11" class="node">
<title>LPteropus minimus|Language: lat</title>
<polygon fill="none" stroke="#000000" points="1211.2612,-496.7292 1211.2612,-542.7292 1327.2612,-542.7292 1327.2612,-496.7292 1211.2612,-496.7292"/>
<text text-anchor="middle" x="1269.2612" y="-527.5292" font-family="Times,serif" font-size="14.00" fill="#000000">Pteropus minimus</text>
<polyline fill="none" stroke="#000000" points="1211.2612,-519.7292 1327.2612,-519.7292 "/>
<text text-anchor="middle" x="1269.2612" y="-504.5292" font-family="Times,serif" font-size="14.00" fill="#000000">Language: lat</text>
</g>
<!-- B_:node1evfpueffx3&#45;&gt;LPteropus minimus|Language: lat -->
<g id="edge10" class="edge">
<title>B_:node1evfpueffx3&#45;&gt;LPteropus minimus|Language: lat</title>
<path fill="none" stroke="#000000" d="M848.9215,-516.2541C873.636,-511.6186 919.8216,-503.6564 959.6275,-500.7292 1042.561,-494.6306 1138.0918,-502.8005 1200.8544,-510.2455"/>
<polygon fill="#000000" stroke="#000000" points="1200.675,-513.7494 1211.0239,-511.4796 1201.5184,-506.8003 1200.675,-513.7494"/>
<text text-anchor="middle" x="1014.1275" y="-504.5292" font-family="Times,serif" font-size="14.00" fill="#000000">dwc:scientificName</text>
</g>
<!-- B_:node1evfpueffx3&#45;&gt;LPteropus minimus|Language: lat -->
<g id="edge11" class="edge">
<title>B_:node1evfpueffx3&#45;&gt;LPteropus minimus|Language: lat</title>
<path fill="none" stroke="#000000" d="M849.4051,-519.7292C908.6678,-519.7292 1097.6871,-519.7292 1200.7136,-519.7292"/>
<polygon fill="#000000" stroke="#000000" points="1201.0155,-523.2293 1211.0155,-519.7292 1201.0154,-516.2293 1201.0155,-523.2293"/>
<text text-anchor="middle" x="1014.1275" y="-523.5292" font-family="Times,serif" font-size="14.00" fill="#000000">rdf:value</text>
</g>
<!-- Rdcmitype:StillImage -->
<g id="node21" class="node">
<title>Rdcmitype:StillImage</title>
<ellipse fill="none" stroke="#0000ff" cx="1882.895" cy="-636.7292" rx="83.3857" ry="18"/>
<text text-anchor="middle" x="1882.895" y="-633.0292" font-family="Times,serif" font-size="14.00" fill="#000000">dcmitype:StillImage</text>
</g>
<!-- Rimg:MMNAT01_AF_NNM001001033_003.jpg&#45;&gt;Rdcmitype:StillImage -->
<g id="edge22" class="edge">
<title>Rimg:MMNAT01_AF_NNM001001033_003.jpg&#45;&gt;Rdcmitype:StillImage</title>
<path fill="none" stroke="#000000" d="M1452.1252,-635.3252C1563.1727,-635.6871 1700.2619,-636.134 1789.5432,-636.4249"/>
<polygon fill="#000000" stroke="#000000" points="1789.6372,-639.9252 1799.6486,-636.4579 1789.6601,-632.9252 1789.6372,-639.9252"/>
<text text-anchor="middle" x="1527.395" y="-639.5292" font-family="Times,serif" font-size="14.00" fill="#000000">rdf:type</text>
</g>
<!-- Rdsw:Token -->
<g id="node22" class="node">
<title>Rdsw:Token</title>
<ellipse fill="none" stroke="#0000ff" cx="1882.895" cy="-582.7292" rx="50.0912" ry="18"/>
<text text-anchor="middle" x="1882.895" y="-579.0292" font-family="Times,serif" font-size="14.00" fill="#000000">dsw:Token</text>
</g>
<!-- Rimg:MMNAT01_AF_NNM001001033_003.jpg&#45;&gt;Rdsw:Token -->
<g id="edge23" class="edge">
<title>Rimg:MMNAT01_AF_NNM001001033_003.jpg&#45;&gt;Rdsw:Token</title>
<path fill="none" stroke="#000000" d="M1399.5557,-622.1099C1422.9681,-619.9223 1447.1518,-617.7146 1469.895,-615.7292 1595.5649,-604.7586 1742.8766,-593.3319 1823.1999,-587.2226"/>
<polygon fill="#000000" stroke="#000000" points="1823.8996,-590.6796 1833.6059,-586.4323 1823.3695,-583.6997 1823.8996,-590.6796"/>
<text text-anchor="middle" x="1527.395" y="-619.5292" font-family="Times,serif" font-size="14.00" fill="#000000">rdf:type</text>
</g>
<!-- Rdwc:HumanObservation -->
<g id="node23" class="node">
<title>Rdwc:HumanObservation</title>
<ellipse fill="none" stroke="#0000ff" cx="1882.895" cy="-528.7292" rx="96.6831" ry="18"/>
<text text-anchor="middle" x="1882.895" y="-525.0292" font-family="Times,serif" font-size="14.00" fill="#000000">dwc:HumanObservation</text>
</g>
<!-- Rimg:MMNAT01_AF_NNM001001033_003.jpg&#45;&gt;Rdwc:HumanObservation -->
<g id="edge24" class="edge">
<title>Rimg:MMNAT01_AF_NNM001001033_003.jpg&#45;&gt;Rdwc:HumanObservation</title>
<path fill="none" stroke="#000000" d="M1413.11,-623.5936C1426.6647,-619.5763 1439.8296,-614.3908 1451.895,-607.7292 1462.6565,-601.7876 1459.3869,-593.1081 1469.895,-586.7292 1565.1009,-528.9351 1695.0044,-519.6538 1783.5352,-521.4518"/>
<polygon fill="#000000" stroke="#000000" points="1783.4966,-524.9518 1793.5823,-521.7069 1783.6743,-517.9541 1783.4966,-524.9518"/>
<text text-anchor="middle" x="1527.395" y="-590.5292" font-family="Times,serif" font-size="14.00" fill="#000000">rdf:type</text>
</g>
<!-- Roa:Source -->
<g id="node24" class="node">
<title>Roa:Source</title>
<ellipse fill="none" stroke="#0000ff" cx="1882.895" cy="-474.7292" rx="46.2923" ry="18"/>
<text text-anchor="middle" x="1882.895" y="-471.0292" font-family="Times,serif" font-size="14.00" fill="#000000">oa:Source</text>
</g>
<!-- Rimg:MMNAT01_AF_NNM001001033_003.jpg&#45;&gt;Roa:Source -->
<g id="edge25" class="edge">
<title>Rimg:MMNAT01_AF_NNM001001033_003.jpg&#45;&gt;Roa:Source</title>
<path fill="none" stroke="#000000" d="M1426.0481,-625.4707C1435.448,-620.8143 1444.1965,-614.9824 1451.895,-607.7292 1480.3177,-580.9507 1441.5057,-548.543 1469.895,-521.7292 1569.0836,-428.0454 1747.0271,-447.1035 1833.2988,-463.4743"/>
<polygon fill="#000000" stroke="#000000" points="1832.8667,-466.9563 1843.3538,-465.4497 1834.2161,-460.0876 1832.8667,-466.9563"/>
<text text-anchor="middle" x="1527.395" y="-525.5292" font-family="Times,serif" font-size="14.00" fill="#000000">rdf:type</text>
</g>
<!-- Rfoaf:Image -->
<g id="node25" class="node">
<title>Rfoaf:Image</title>
<ellipse fill="none" stroke="#0000ff" cx="1882.895" cy="-690.7292" rx="50.0912" ry="18"/>
<text text-anchor="middle" x="1882.895" y="-687.0292" font-family="Times,serif" font-size="14.00" fill="#000000">foaf:Image</text>
</g>
<!-- Rimg:MMNAT01_AF_NNM001001033_003.jpg&#45;&gt;Rfoaf:Image -->
<g id="edge26" class="edge">
<title>Rimg:MMNAT01_AF_NNM001001033_003.jpg&#45;&gt;Rfoaf:Image</title>
<path fill="none" stroke="#000000" d="M1396.6024,-647.6632C1420.9294,-650.0661 1446.1949,-652.5151 1469.895,-654.7292 1595.7431,-666.4862 1743.2828,-679.054 1823.5303,-685.7874"/>
<polygon fill="#000000" stroke="#000000" points="1823.6668,-689.311 1833.9241,-686.6585 1824.2514,-682.3355 1823.6668,-689.311"/>
<text text-anchor="middle" x="1527.395" y="-668.5292" font-family="Times,serif" font-size="14.00" fill="#000000">rdf:type</text>
</g>
<!-- B_:node1evfpueffx2&#45;&gt;Rimg:MMNAT01_AF_NNM001001033_003.jpg -->
<g id="edge19" class="edge">
<title>B_:node1evfpueffx2&#45;&gt;Rimg:MMNAT01_AF_NNM001001033_003.jpg</title>
<path fill="none" stroke="#000000" d="M848.9612,-699.9627C873.7217,-694.7987 919.9604,-685.4021 959.6275,-678.7292 1021.6295,-668.299 1090.8932,-658.3021 1148.1631,-650.4804"/>
<polygon fill="#000000" stroke="#000000" points="1148.9079,-653.9114 1158.3449,-649.0955 1147.9644,-646.9753 1148.9079,-653.9114"/>
<text text-anchor="middle" x="1014.1275" y="-682.5292" font-family="Times,serif" font-size="14.00" fill="#000000">oa:hasSource</text>
</g>
<!-- Roa:Target -->
<g id="node13" class="node">
<title>Roa:Target</title>
<ellipse fill="none" stroke="#0000ff" cx="1269.2612" cy="-692.7292" rx="44.393" ry="18"/>
<text text-anchor="middle" x="1269.2612" y="-689.0292" font-family="Times,serif" font-size="14.00" fill="#000000">oa:Target</text>
</g>
<!-- B_:node1evfpueffx2&#45;&gt;Roa:Target -->
<g id="edge13" class="edge">
<title>B_:node1evfpueffx2&#45;&gt;Roa:Target</title>
<path fill="none" stroke="#000000" d="M849.4051,-703.2706C911.5016,-701.7115 1116.0608,-696.5756 1214.8796,-694.0946"/>
<polygon fill="#000000" stroke="#000000" points="1215.0537,-697.5914 1224.9627,-693.8414 1214.878,-690.5936 1215.0537,-697.5914"/>
<text text-anchor="middle" x="1014.1275" y="-703.5292" font-family="Times,serif" font-size="14.00" fill="#000000">rdf:type</text>
</g>
<!-- Limage/jpeg -->
<g id="node14" class="node">
<title>Limage/jpeg</title>
<polygon fill="none" stroke="#000000" points="1230.7612,-783.7292 1230.7612,-819.7292 1307.7612,-819.7292 1307.7612,-783.7292 1230.7612,-783.7292"/>
<text text-anchor="middle" x="1269.2612" y="-798.0292" font-family="Times,serif" font-size="14.00" fill="#000000">image/jpeg</text>
</g>
<!-- B_:node1evfpueffx2&#45;&gt;Limage/jpeg -->
<g id="edge14" class="edge">
<title>B_:node1evfpueffx2&#45;&gt;Limage/jpeg</title>
<path fill="none" stroke="#000000" d="M849.1415,-705.9672C871.6827,-709.2812 911.048,-716.7831 941.6275,-731.7292 950.7329,-736.1796 950.4537,-741.4213 959.6275,-745.7292 1045.5787,-786.0907 1157.5613,-797.4596 1220.5981,-800.5995"/>
<polygon fill="#000000" stroke="#000000" points="1220.511,-804.0991 1230.6579,-801.051 1220.8249,-797.1061 1220.511,-804.0991"/>
<text text-anchor="middle" x="1014.1275" y="-783.5292" font-family="Times,serif" font-size="14.00" fill="#000000">dcterms:format</text>
</g>
<!-- B_:node1evfpueffx5 -->
<g id="node15" class="node">
<title>B_:node1evfpueffx5</title>
<ellipse fill="none" stroke="#00ff00" cx="1269.2612" cy="-746.7292" rx="18" ry="18"/>
</g>
<!-- B_:node1evfpueffx2&#45;&gt;B_:node1evfpueffx5 -->
<g id="edge15" class="edge">
<title>B_:node1evfpueffx2&#45;&gt;B_:node1evfpueffx5</title>
<path fill="none" stroke="#000000" d="M849.4338,-705.605C874.3525,-708.1541 920.3582,-712.8403 959.6275,-716.7292 1063.2056,-726.9867 1186.3143,-738.8023 1240.8454,-744.0167"/>
<polygon fill="#000000" stroke="#000000" points="1240.8229,-747.5304 1251.1106,-744.9978 1241.489,-740.5622 1240.8229,-747.5304"/>
<text text-anchor="middle" x="1014.1275" y="-730.5292" font-family="Times,serif" font-size="14.00" fill="#000000">oa:hasSelector</text>
</g>
<!-- Roa:FragmentSelector -->
<g id="node16" class="node">
<title>Roa:FragmentSelector</title>
<ellipse fill="none" stroke="#0000ff" cx="1882.895" cy="-854.7292" rx="84.485" ry="18"/>
<text text-anchor="middle" x="1882.895" y="-851.0292" font-family="Times,serif" font-size="14.00" fill="#000000">oa:FragmentSelector</text>
</g>
<!-- B_:node1evfpueffx5&#45;&gt;Roa:FragmentSelector -->
<g id="edge16" class="edge">
<title>B_:node1evfpueffx5&#45;&gt;Roa:FragmentSelector</title>
<path fill="none" stroke="#000000" d="M1287.4955,-745.887C1321.6908,-745.0667 1396.9496,-746.9042 1451.895,-774.7292 1461.9883,-779.8405 1460.0844,-787.0943 1469.895,-792.7292 1522.8979,-823.1725 1542.7234,-816.9831 1602.895,-827.7292 1665.1261,-838.8431 1736.012,-845.6209 1790.8896,-849.606"/>
<polygon fill="#000000" stroke="#000000" points="1790.7222,-853.1029 1800.9445,-850.3181 1791.2167,-846.1203 1790.7222,-853.1029"/>
<text text-anchor="middle" x="1527.395" y="-827.5292" font-family="Times,serif" font-size="14.00" fill="#000000">rdf:type</text>
</g>
<!-- Rmf: -->
<g id="node17" class="node">
<title>Rmf:</title>
<ellipse fill="none" stroke="#0000ff" cx="1882.895" cy="-800.7292" rx="27" ry="18"/>
<text text-anchor="middle" x="1882.895" y="-797.0292" font-family="Times,serif" font-size="14.00" fill="#000000">mf:</text>
</g>
<!-- B_:node1evfpueffx5&#45;&gt;Rmf: -->
<g id="edge17" class="edge">
<title>B_:node1evfpueffx5&#45;&gt;Rmf:</title>
<path fill="none" stroke="#000000" d="M1287.2447,-748.358C1322.3542,-751.5344 1402.487,-758.7676 1469.895,-764.7292 1608.6106,-776.9974 1773.5626,-791.2853 1845.8535,-797.532"/>
<polygon fill="#000000" stroke="#000000" points="1845.5687,-801.0204 1855.8329,-798.3941 1846.1713,-794.0463 1845.5687,-801.0204"/>
<text text-anchor="middle" x="1527.395" y="-777.5292" font-family="Times,serif" font-size="14.00" fill="#000000">dcterms:conformsTo</text>
</g>
<!-- Lxywh=0.5530314055917275,0.3586725350259047,0.07278820375335127,0.018716966679433122 -->
<g id="node18" class="node">
<title>Lxywh=0.5530314055917275,0.3586725350259047,0.07278820375335127,0.018716966679433122</title>
<polygon fill="none" stroke="#000000" points="1602.895,-727.7292 1602.895,-763.7292 2162.895,-763.7292 2162.895,-727.7292 1602.895,-727.7292"/>
<text text-anchor="middle" x="1882.895" y="-742.0292" font-family="Times,serif" font-size="14.00" fill="#000000">xywh=0.5530314055917275,0.3586725350259047,0.07278820375335127,0.018716966679433122</text>
</g>
<!-- B_:node1evfpueffx5&#45;&gt;Lxywh=0.5530314055917275,0.3586725350259047,0.07278820375335127,0.018716966679433122 -->
<g id="edge18" class="edge">
<title>B_:node1evfpueffx5&#45;&gt;Lxywh=0.5530314055917275,0.3586725350259047,0.07278820375335127,0.018716966679433122</title>
<path fill="none" stroke="#000000" d="M1287.2938,-746.6998C1334.1792,-746.6234 1465.1308,-746.41 1592.3432,-746.2027"/>
<polygon fill="#000000" stroke="#000000" points="1592.6742,-749.7023 1602.6685,-746.1859 1592.6628,-742.7023 1592.6742,-749.7023"/>
<text text-anchor="middle" x="1527.395" y="-749.5292" font-family="Times,serif" font-size="14.00" fill="#000000">rdf:value</text>
</g>
<!-- Rgbif:9180402 -->
<g id="node26" class="node">
<title>Rgbif:9180402</title>
<ellipse fill="none" stroke="#0000ff" cx="298.3235" cy="-412.7292" rx="57.6901" ry="18"/>
<text text-anchor="middle" x="298.3235" y="-409.0292" font-family="Times,serif" font-size="14.00" fill="#000000">gbif:9180402</text>
</g>
<!-- Rgbif:9180402&#45;&gt;B_:node1evfpueffx3 -->
<g id="edge28" class="edge">
<title>Rgbif:9180402&#45;&gt;B_:node1evfpueffx3</title>
<path fill="none" stroke="#000000" d="M348.3768,-403.6967C430.4351,-391.7788 595.1775,-380.2988 702.6471,-455.7292 717.6153,-466.2351 706.4142,-481.2468 720.6471,-492.7292 744.0756,-511.6302 778.7806,-517.595 803.0249,-519.3279"/>
<polygon fill="#000000" stroke="#000000" points="802.8623,-522.824 813.0304,-519.8473 803.2254,-515.8334 802.8623,-522.824"/>
<text text-anchor="middle" x="658.6471" y="-459.5292" font-family="Times,serif" font-size="14.00" fill="#000000">owl:sameAs</text>
</g>
<!-- Robo:TAXRANK_0000006 -->
<g id="node27" class="node">
<title>Robo:TAXRANK_0000006</title>
<ellipse fill="none" stroke="#0000ff" cx="831.1373" cy="-393.7292" rx="104.7816" ry="18"/>
<text text-anchor="middle" x="831.1373" y="-390.0292" font-family="Times,serif" font-size="14.00" fill="#000000">obo:TAXRANK_0000006</text>
</g>
<!-- Rgbif:9180402&#45;&gt;Robo:TAXRANK_0000006 -->
<g id="edge27" class="edge">
<title>Rgbif:9180402&#45;&gt;Robo:TAXRANK_0000006</title>
<path fill="none" stroke="#000000" d="M354.8544,-408.6198C418.1079,-404.2298 523.6549,-397.5263 614.6471,-394.7292 647.6715,-393.714 683.5427,-393.2781 716.4116,-393.1434"/>
<polygon fill="#000000" stroke="#000000" points="716.5208,-396.6431 726.5094,-393.1109 716.4982,-389.6432 716.5208,-396.6431"/>
<text text-anchor="middle" x="658.6471" y="-398.5292" font-family="Times,serif" font-size="14.00" fill="#000000">dwc:taxonRank</text>
</g>
<!-- B_:node1evfpueffx1 -->
<g id="node28" class="node">
<title>B_:node1evfpueffx1</title>
<ellipse fill="none" stroke="#00ff00" cx="298.3235" cy="-500.7292" rx="18" ry="18"/>
</g>
<!-- B_:node1evfpueffx1&#45;&gt;B_:node1evfpueffx3 -->
<g id="edge30" class="edge">
<title>B_:node1evfpueffx1&#45;&gt;B_:node1evfpueffx3</title>
<path fill="none" stroke="#000000" d="M316.3565,-501.3723C394.8602,-504.1717 707.1691,-515.3085 803.0172,-518.7265"/>
<polygon fill="#000000" stroke="#000000" points="802.9904,-522.2276 813.1088,-519.0863 803.2399,-515.2321 802.9904,-522.2276"/>
<text text-anchor="middle" x="658.6471" y="-518.5292" font-family="Times,serif" font-size="14.00" fill="#000000">dwciri:toTaxon</text>
</g>
<!-- Rdwc:Identification -->
<g id="node29" class="node">
<title>Rdwc:Identification</title>
<ellipse fill="none" stroke="#0000ff" cx="831.1373" cy="-465.7292" rx="75.2868" ry="18"/>
<text text-anchor="middle" x="831.1373" y="-462.0292" font-family="Times,serif" font-size="14.00" fill="#000000">dwc:Identification</text>
</g>
<!-- B_:node1evfpueffx1&#45;&gt;Rdwc:Identification -->
<g id="edge29" class="edge">
<title>B_:node1evfpueffx1&#45;&gt;Rdwc:Identification</title>
<path fill="none" stroke="#000000" d="M316.3565,-499.5446C383.3468,-495.1441 620.5911,-479.5598 748.2983,-471.1708"/>
<polygon fill="#000000" stroke="#000000" points="748.6781,-474.6535 758.4272,-470.5055 748.2192,-467.6686 748.6781,-474.6535"/>
<text text-anchor="middle" x="658.6471" y="-483.5292" font-family="Times,serif" font-size="14.00" fill="#000000">rdf:type</text>
</g>
</g>
</svg>
