<?xml version="1.0" encoding="UTF-8" standalone="no"?>
<!DOCTYPE svg PUBLIC "-//W3C//DTD SVG 1.1//EN"
 "http://www.w3.org/Graphics/SVG/1.1/DTD/svg11.dtd">
<!-- Generated by graphviz version 2.40.1 (20161225.0304)
 -->
<!-- Title: %3 Pages: 1 -->
<svg width="2170pt" height="849pt"
 viewBox="0.00 0.00 2170.10 848.50" xmlns="http://www.w3.org/2000/svg" xmlns:xlink="http://www.w3.org/1999/xlink">
<g id="graph0" class="graph" transform="scale(1 1) rotate(0) translate(4 844.5036)">
<title>%3</title>
<polygon fill="#ffffff" stroke="transparent" points="-4,4 -4,-844.5036 2166.0957,-844.5036 2166.0957,4 -4,4"/>
<text text-anchor="middle" x="1081.0479" y="-248.8" font-family="Times,serif" font-size="14.00" fill="#000000">Model:</text>
<text text-anchor="middle" x="1081.0479" y="-233.8" font-family="Times,serif" font-size="14.00" fill="#000000">(Unknown)</text>
<text text-anchor="middle" x="1081.0479" y="-202.8" font-family="Times,serif" font-size="14.00" fill="#000000">Namespaces:</text>
<text text-anchor="middle" x="1081.0479" y="-187.8" font-family="Times,serif" font-size="14.00" fill="#000000">dcmitype: http://purl.org/dc/dcmitype/</text>
<text text-anchor="middle" x="1081.0479" y="-172.8" font-family="Times,serif" font-size="14.00" fill="#000000">dcterms: http://purl.org/dc/terms/</text>
<text text-anchor="middle" x="1081.0479" y="-157.8" font-family="Times,serif" font-size="14.00" fill="#000000">dsw: http://purl.org/dsw/</text>
<text text-anchor="middle" x="1081.0479" y="-142.8" font-family="Times,serif" font-size="14.00" fill="#000000">dwc: http://rs.tdwg.org/dwc/terms/</text>
<text text-anchor="middle" x="1081.0479" y="-127.8" font-family="Times,serif" font-size="14.00" fill="#000000">dwciri: http://rs.tdwg.org/dwc/iri/</text>
<text text-anchor="middle" x="1081.0479" y="-112.8" font-family="Times,serif" font-size="14.00" fill="#000000">foaf: http://xmlns.com/foaf/0.1/</text>
<text text-anchor="middle" x="1081.0479" y="-97.8" font-family="Times,serif" font-size="14.00" fill="#000000">img: http://localhost:8080/semanticAnnotator/files/</text>
<text text-anchor="middle" x="1081.0479" y="-82.8" font-family="Times,serif" font-size="14.00" fill="#000000">iso: http://iso639&#45;3.sil.org/code/</text>
<text text-anchor="middle" x="1081.0479" y="-67.8" font-family="Times,serif" font-size="14.00" fill="#000000">mf: http://www.w3.org/TR/media&#45;frags/</text>
<text text-anchor="middle" x="1081.0479" y="-52.8" font-family="Times,serif" font-size="14.00" fill="#000000">oa: http://www.w3.org/ns/oa#</text>
<text text-anchor="middle" x="1081.0479" y="-37.8" font-family="Times,serif" font-size="14.00" fill="#000000">obo: http://purl.obolibrary.org/obo/</text>
<text text-anchor="middle" x="1081.0479" y="-22.8" font-family="Times,serif" font-size="14.00" fill="#000000">orcid: http://orcid.org/</text>
<text text-anchor="middle" x="1081.0479" y="-7.8" font-family="Times,serif" font-size="14.00" fill="#000000">rdf: http://www.w3.org/1999/02/22&#45;rdf&#45;syntax&#45;ns#</text>
<!-- Rhttp://localhost:8080/rdf/nc/annotation/1592a889&#45;0f56&#45;42dd&#45;b580&#45;0bff5b139bfd -->
<g id="node1" class="node">
<title>Rhttp://localhost:8080/rdf/nc/annotation/1592a889&#45;0f56&#45;42dd&#45;b580&#45;0bff5b139bfd</title>
<ellipse fill="none" stroke="#0000ff" cx="294.4239" cy="-639.5036" rx="294.3478" ry="18"/>
<text text-anchor="middle" x="294.4239" y="-635.8036" font-family="Times,serif" font-size="14.00" fill="#000000">http://localhost:8080/rdf/nc/annotation/1592a889&#45;0f56&#45;42dd&#45;b580&#45;0bff5b139bfd</text>
</g>
<!-- Roa:Annotation -->
<g id="node2" class="node">
<title>Roa:Annotation</title>
<ellipse fill="none" stroke="#0000ff" cx="823.3379" cy="-562.5036" rx="61.1893" ry="18"/>
<text text-anchor="middle" x="823.3379" y="-558.8036" font-family="Times,serif" font-size="14.00" fill="#000000">oa:Annotation</text>
</g>
<!-- Rhttp://localhost:8080/rdf/nc/annotation/1592a889&#45;0f56&#45;42dd&#45;b580&#45;0bff5b139bfd&#45;&gt;Roa:Annotation -->
<g id="edge1" class="edge">
<title>Rhttp://localhost:8080/rdf/nc/annotation/1592a889&#45;0f56&#45;42dd&#45;b580&#45;0bff5b139bfd&#45;&gt;Roa:Annotation</title>
<path fill="none" stroke="#000000" d="M408.5392,-622.8905C515.4543,-607.3257 671.4606,-584.6141 758.4945,-571.9436"/>
<polygon fill="#000000" stroke="#000000" points="759.1094,-575.3911 768.5008,-570.4869 758.1009,-568.4641 759.1094,-575.3911"/>
<text text-anchor="middle" x="650.8478" y="-595.3036" font-family="Times,serif" font-size="14.00" fill="#000000">rdf:type</text>
</g>
<!-- Rorcid:0000&#45;0002&#45;2146&#45;4803 -->
<g id="node3" class="node">
<title>Rorcid:0000&#45;0002&#45;2146&#45;4803</title>
<ellipse fill="none" stroke="#0000ff" cx="823.3379" cy="-812.5036" rx="110.4804" ry="18"/>
<text text-anchor="middle" x="823.3379" y="-808.8036" font-family="Times,serif" font-size="14.00" fill="#000000">orcid:0000&#45;0002&#45;2146&#45;4803</text>
</g>
<!-- Rhttp://localhost:8080/rdf/nc/annotation/1592a889&#45;0f56&#45;42dd&#45;b580&#45;0bff5b139bfd&#45;&gt;Rorcid:0000&#45;0002&#45;2146&#45;4803 -->
<g id="edge2" class="edge">
<title>Rhttp://localhost:8080/rdf/nc/annotation/1592a889&#45;0f56&#45;42dd&#45;b580&#45;0bff5b139bfd&#45;&gt;Rorcid:0000&#45;0002&#45;2146&#45;4803</title>
<path fill="none" stroke="#000000" d="M348.5413,-657.2046C448.3966,-689.8658 660.8438,-759.3542 764.2852,-793.1883"/>
<polygon fill="#000000" stroke="#000000" points="763.3553,-796.5666 773.9479,-796.3488 765.5315,-789.9134 763.3553,-796.5666"/>
<text text-anchor="middle" x="650.8478" y="-769.3036" font-family="Times,serif" font-size="14.00" fill="#000000">dcterms:creator</text>
</g>
<!-- L2021&#45;01&#45;12T14:23:11.646Z|Datatype: dcterms:W3CDTF -->
<g id="node4" class="node">
<title>L2021&#45;01&#45;12T14:23:11.646Z|Datatype: dcterms:W3CDTF</title>
<polygon fill="none" stroke="#000000" points="735.8379,-707.5036 735.8379,-753.5036 910.8379,-753.5036 910.8379,-707.5036 735.8379,-707.5036"/>
<text text-anchor="middle" x="823.3379" y="-738.3036" font-family="Times,serif" font-size="14.00" fill="#000000">2021&#45;01&#45;12T14:23:11.646Z</text>
<polyline fill="none" stroke="#000000" points="735.8379,-730.5036 910.8379,-730.5036 "/>
<text text-anchor="middle" x="823.3379" y="-715.3036" font-family="Times,serif" font-size="14.00" fill="#000000">Datatype: dcterms:W3CDTF</text>
</g>
<!-- Rhttp://localhost:8080/rdf/nc/annotation/1592a889&#45;0f56&#45;42dd&#45;b580&#45;0bff5b139bfd&#45;&gt;L2021&#45;01&#45;12T14:23:11.646Z|Datatype: dcterms:W3CDTF -->
<g id="edge3" class="edge">
<title>Rhttp://localhost:8080/rdf/nc/annotation/1592a889&#45;0f56&#45;42dd&#45;b580&#45;0bff5b139bfd&#45;&gt;L2021&#45;01&#45;12T14:23:11.646Z|Datatype: dcterms:W3CDTF</title>
<path fill="none" stroke="#000000" d="M393.2881,-656.5133C488.2961,-672.8594 631.0166,-697.4146 725.6339,-713.6936"/>
<polygon fill="#000000" stroke="#000000" points="725.0455,-717.1437 735.4942,-715.39 726.2325,-710.245 725.0455,-717.1437"/>
<text text-anchor="middle" x="650.8478" y="-709.3036" font-family="Times,serif" font-size="14.00" fill="#000000">dcterms:date</text>
</g>
<!-- B_:node1euqlam8lx215 -->
<g id="node5" class="node">
<title>B_:node1euqlam8lx215</title>
<ellipse fill="none" stroke="#00ff00" cx="823.3379" cy="-459.5036" rx="18" ry="18"/>
</g>
<!-- Rhttp://localhost:8080/rdf/nc/annotation/1592a889&#45;0f56&#45;42dd&#45;b580&#45;0bff5b139bfd&#45;&gt;B_:node1euqlam8lx215 -->
<g id="edge4" class="edge">
<title>Rhttp://localhost:8080/rdf/nc/annotation/1592a889&#45;0f56&#45;42dd&#45;b580&#45;0bff5b139bfd&#45;&gt;B_:node1euqlam8lx215</title>
<path fill="none" stroke="#000000" d="M346.5857,-621.7519C457.4173,-584.0337 713.0401,-497.0402 796.4688,-468.6477"/>
<polygon fill="#000000" stroke="#000000" points="797.6471,-471.9439 805.9863,-465.4087 795.3918,-465.3171 797.6471,-471.9439"/>
<text text-anchor="middle" x="650.8478" y="-531.3036" font-family="Times,serif" font-size="14.00" fill="#000000">oa:hasBody</text>
</g>
<!-- B_:node1euqlam8lx214 -->
<g id="node12" class="node">
<title>B_:node1euqlam8lx214</title>
<ellipse fill="none" stroke="#00ff00" cx="823.3379" cy="-670.5036" rx="18" ry="18"/>
</g>
<!-- Rhttp://localhost:8080/rdf/nc/annotation/1592a889&#45;0f56&#45;42dd&#45;b580&#45;0bff5b139bfd&#45;&gt;B_:node1euqlam8lx214 -->
<g id="edge12" class="edge">
<title>Rhttp://localhost:8080/rdf/nc/annotation/1592a889&#45;0f56&#45;42dd&#45;b580&#45;0bff5b139bfd&#45;&gt;B_:node1euqlam8lx214</title>
<path fill="none" stroke="#000000" d="M507.2672,-651.9785C617.642,-658.4476 740.4969,-665.6482 794.8362,-668.8331"/>
<polygon fill="#000000" stroke="#000000" points="794.8773,-672.3414 805.065,-669.4326 795.287,-665.3534 794.8773,-672.3414"/>
<text text-anchor="middle" x="650.8478" y="-665.3036" font-family="Times,serif" font-size="14.00" fill="#000000">oa:hasTarget</text>
</g>
<!-- Roa:describing -->
<g id="node19" class="node">
<title>Roa:describing</title>
<ellipse fill="none" stroke="#0000ff" cx="823.3379" cy="-616.5036" rx="57.6901" ry="18"/>
<text text-anchor="middle" x="823.3379" y="-612.8036" font-family="Times,serif" font-size="14.00" fill="#000000">oa:describing</text>
</g>
<!-- Rhttp://localhost:8080/rdf/nc/annotation/1592a889&#45;0f56&#45;42dd&#45;b580&#45;0bff5b139bfd&#45;&gt;Roa:describing -->
<g id="edge20" class="edge">
<title>Rhttp://localhost:8080/rdf/nc/annotation/1592a889&#45;0f56&#45;42dd&#45;b580&#45;0bff5b139bfd&#45;&gt;Roa:describing</title>
<path fill="none" stroke="#000000" d="M531.5333,-628.7979C556.956,-627.6741 582.4379,-626.5579 606.8478,-625.5036 656.776,-623.3471 713.1857,-621.0051 755.9041,-619.2509"/>
<polygon fill="#000000" stroke="#000000" points="756.0556,-622.7477 765.9037,-618.8407 755.7686,-615.7536 756.0556,-622.7477"/>
<text text-anchor="middle" x="650.8478" y="-629.3036" font-family="Times,serif" font-size="14.00" fill="#000000">oa:motivatedBy</text>
</g>
<!-- Rfoaf:Person -->
<g id="node20" class="node">
<title>Rfoaf:Person</title>
<ellipse fill="none" stroke="#0000ff" cx="1261.4619" cy="-822.5036" rx="51.1914" ry="18"/>
<text text-anchor="middle" x="1261.4619" y="-818.8036" font-family="Times,serif" font-size="14.00" fill="#000000">foaf:Person</text>
</g>
<!-- Rorcid:0000&#45;0002&#45;2146&#45;4803&#45;&gt;Rfoaf:Person -->
<g id="edge21" class="edge">
<title>Rorcid:0000&#45;0002&#45;2146&#45;4803&#45;&gt;Rfoaf:Person</title>
<path fill="none" stroke="#000000" d="M932.765,-815.0012C1017.1429,-816.9271 1130.7596,-819.5204 1199.9189,-821.0989"/>
<polygon fill="#000000" stroke="#000000" points="1200.1309,-824.6046 1210.2082,-821.3338 1200.2907,-817.6064 1200.1309,-824.6046"/>
<text text-anchor="middle" x="1006.3281" y="-821.3036" font-family="Times,serif" font-size="14.00" fill="#000000">rdf:type</text>
</g>
<!-- Rdwc:Taxon -->
<g id="node6" class="node">
<title>Rdwc:Taxon</title>
<ellipse fill="none" stroke="#0000ff" cx="1261.4619" cy="-319.5036" rx="50.0912" ry="18"/>
<text text-anchor="middle" x="1261.4619" y="-315.8036" font-family="Times,serif" font-size="14.00" fill="#000000">dwc:Taxon</text>
</g>
<!-- B_:node1euqlam8lx215&#45;&gt;Rdwc:Taxon -->
<g id="edge5" class="edge">
<title>B_:node1euqlam8lx215&#45;&gt;Rdwc:Taxon</title>
<path fill="none" stroke="#000000" d="M841.4842,-460.5702C866.0474,-460.9507 909.5864,-457.6822 933.8281,-432.5036 961.5164,-403.7453 921.9421,-370.9706 951.8281,-344.5036 1022.9696,-281.501 1142.8686,-293.3838 1210.702,-306.9127"/>
<polygon fill="#000000" stroke="#000000" points="1210.2198,-310.3873 1220.7233,-308.9993 1211.6468,-303.5343 1210.2198,-310.3873"/>
<text text-anchor="middle" x="1006.3281" y="-348.3036" font-family="Times,serif" font-size="14.00" fill="#000000">rdf:type</text>
</g>
<!-- Roa:TextualBody -->
<g id="node7" class="node">
<title>Roa:TextualBody</title>
<ellipse fill="none" stroke="#0000ff" cx="1261.4619" cy="-548.5036" rx="67.6881" ry="18"/>
<text text-anchor="middle" x="1261.4619" y="-544.8036" font-family="Times,serif" font-size="14.00" fill="#000000">oa:TextualBody</text>
</g>
<!-- B_:node1euqlam8lx215&#45;&gt;Roa:TextualBody -->
<g id="edge6" class="edge">
<title>B_:node1euqlam8lx215&#45;&gt;Roa:TextualBody</title>
<path fill="none" stroke="#000000" d="M840.6689,-465.009C865.2347,-472.6947 911.6663,-486.7872 951.8281,-496.5036 1032.5027,-516.0213 1126.7546,-530.718 1189.8886,-539.4235"/>
<polygon fill="#000000" stroke="#000000" points="1189.7542,-542.9375 1200.1356,-540.8215 1190.7005,-536.0017 1189.7542,-542.9375"/>
<text text-anchor="middle" x="1006.3281" y="-521.3036" font-family="Times,serif" font-size="14.00" fill="#000000">rdf:type</text>
</g>
<!-- Ltext/plain -->
<g id="node8" class="node">
<title>Ltext/plain</title>
<polygon fill="none" stroke="#000000" points="1227.4619,-475.5036 1227.4619,-511.5036 1295.4619,-511.5036 1295.4619,-475.5036 1227.4619,-475.5036"/>
<text text-anchor="middle" x="1261.4619" y="-489.8036" font-family="Times,serif" font-size="14.00" fill="#000000">text/plain</text>
</g>
<!-- B_:node1euqlam8lx215&#45;&gt;Ltext/plain -->
<g id="edge7" class="edge">
<title>B_:node1euqlam8lx215&#45;&gt;Ltext/plain</title>
<path fill="none" stroke="#000000" d="M841.6316,-461.1349C866.547,-463.3418 912.549,-467.3635 951.8281,-470.5036 1046.1099,-478.0408 1156.6101,-486.0509 1216.8039,-490.3448"/>
<polygon fill="#000000" stroke="#000000" points="1216.8645,-493.8579 1227.0879,-491.0772 1217.3618,-486.8756 1216.8645,-493.8579"/>
<text text-anchor="middle" x="1006.3281" y="-481.3036" font-family="Times,serif" font-size="14.00" fill="#000000">dcterms:format</text>
</g>
<!-- Riso:lat -->
<g id="node9" class="node">
<title>Riso:lat</title>
<ellipse fill="none" stroke="#0000ff" cx="1261.4619" cy="-373.5036" rx="32.4942" ry="18"/>
<text text-anchor="middle" x="1261.4619" y="-369.8036" font-family="Times,serif" font-size="14.00" fill="#000000">iso:lat</text>
</g>
<!-- B_:node1euqlam8lx215&#45;&gt;Riso:lat -->
<g id="edge8" class="edge">
<title>B_:node1euqlam8lx215&#45;&gt;Riso:lat</title>
<path fill="none" stroke="#000000" d="M841.3717,-460.0254C865.4066,-459.7379 907.9118,-455.6597 933.8281,-432.5036 951.1289,-417.0454 933.0203,-397.088 951.8281,-383.5036 993.4179,-353.4644 1144.9774,-362.6434 1219.5058,-369.2705"/>
<polygon fill="#000000" stroke="#000000" points="1219.214,-372.7583 1229.4914,-370.1843 1219.852,-365.7875 1219.214,-372.7583"/>
<text text-anchor="middle" x="1006.3281" y="-387.3036" font-family="Times,serif" font-size="14.00" fill="#000000">dcterms:language</text>
</g>
<!-- Rimg:MMNAT01_AF_NNM001001033_003.jpg -->
<g id="node10" class="node">
<title>Rimg:MMNAT01_AF_NNM001001033_003.jpg</title>
<ellipse fill="none" stroke="#0000ff" cx="1261.4619" cy="-602.5036" rx="182.7677" ry="18"/>
<text text-anchor="middle" x="1261.4619" y="-598.8036" font-family="Times,serif" font-size="14.00" fill="#000000">img:MMNAT01_AF_NNM001001033_003.jpg</text>
</g>
<!-- B_:node1euqlam8lx215&#45;&gt;Rimg:MMNAT01_AF_NNM001001033_003.jpg -->
<g id="edge9" class="edge">
<title>B_:node1euqlam8lx215&#45;&gt;Rimg:MMNAT01_AF_NNM001001033_003.jpg</title>
<path fill="none" stroke="#000000" d="M838.1178,-469.9939C861.3744,-486.116 908.352,-517.145 951.8281,-536.5036 1008.1948,-561.6019 1074.6673,-577.3798 1131.5435,-587.1852"/>
<polygon fill="#000000" stroke="#000000" points="1131.2386,-590.6829 1141.6802,-588.8875 1132.398,-583.7796 1131.2386,-590.6829"/>
<text text-anchor="middle" x="1006.3281" y="-575.3036" font-family="Times,serif" font-size="14.00" fill="#000000">dsw:derivedFrom</text>
</g>
<!-- LPteropus minimus|Language: lat -->
<g id="node11" class="node">
<title>LPteropus minimus|Language: lat</title>
<polygon fill="none" stroke="#000000" points="1203.4619,-410.5036 1203.4619,-456.5036 1319.4619,-456.5036 1319.4619,-410.5036 1203.4619,-410.5036"/>
<text text-anchor="middle" x="1261.4619" y="-441.3036" font-family="Times,serif" font-size="14.00" fill="#000000">Pteropus minimus</text>
<polyline fill="none" stroke="#000000" points="1203.4619,-433.5036 1319.4619,-433.5036 "/>
<text text-anchor="middle" x="1261.4619" y="-418.3036" font-family="Times,serif" font-size="14.00" fill="#000000">Language: lat</text>
</g>
<!-- B_:node1euqlam8lx215&#45;&gt;LPteropus minimus|Language: lat -->
<g id="edge10" class="edge">
<title>B_:node1euqlam8lx215&#45;&gt;LPteropus minimus|Language: lat</title>
<path fill="none" stroke="#000000" d="M841.3427,-457.4656C863.8844,-454.394 903.2502,-447.2878 933.8281,-432.5036 942.9525,-428.092 942.2418,-421.7927 951.8281,-418.5036 1031.4367,-391.1893 1129.3288,-402.8437 1193.4593,-416.0497"/>
<polygon fill="#000000" stroke="#000000" points="1192.9444,-419.5184 1203.454,-418.1767 1194.4016,-412.6718 1192.9444,-419.5184"/>
<text text-anchor="middle" x="1006.3281" y="-422.3036" font-family="Times,serif" font-size="14.00" fill="#000000">dwc:scientificName</text>
</g>
<!-- B_:node1euqlam8lx215&#45;&gt;LPteropus minimus|Language: lat -->
<g id="edge11" class="edge">
<title>B_:node1euqlam8lx215&#45;&gt;LPteropus minimus|Language: lat</title>
<path fill="none" stroke="#000000" d="M841.3297,-458.4359C900.3126,-454.9356 1089.9417,-443.6823 1193.0894,-437.5611"/>
<polygon fill="#000000" stroke="#000000" points="1193.323,-441.0535 1203.098,-436.9671 1192.9082,-434.0658 1193.323,-441.0535"/>
<text text-anchor="middle" x="1006.3281" y="-455.3036" font-family="Times,serif" font-size="14.00" fill="#000000">rdf:value</text>
</g>
<!-- Rdcmitype:StillImage -->
<g id="node21" class="node">
<title>Rdcmitype:StillImage</title>
<ellipse fill="none" stroke="#0000ff" cx="1878.5957" cy="-495.5036" rx="83.3857" ry="18"/>
<text text-anchor="middle" x="1878.5957" y="-491.8036" font-family="Times,serif" font-size="14.00" fill="#000000">dcmitype:StillImage</text>
</g>
<!-- Rimg:MMNAT01_AF_NNM001001033_003.jpg&#45;&gt;Rdcmitype:StillImage -->
<g id="edge22" class="edge">
<title>Rimg:MMNAT01_AF_NNM001001033_003.jpg&#45;&gt;Rdcmitype:StillImage</title>
<path fill="none" stroke="#000000" d="M1405.3107,-591.368C1418.8653,-587.3507 1432.0303,-582.1652 1444.0957,-575.5036 1454.8572,-569.562 1451.6104,-560.9199 1462.0957,-554.5036 1513.9548,-522.7698 1535.1288,-532.5218 1595.0957,-522.5036 1659.1378,-511.8047 1732.0799,-504.9773 1787.9374,-500.8649"/>
<polygon fill="#000000" stroke="#000000" points="1788.4398,-504.3379 1798.1624,-500.1283 1787.9367,-497.356 1788.4398,-504.3379"/>
<text text-anchor="middle" x="1519.5957" y="-558.3036" font-family="Times,serif" font-size="14.00" fill="#000000">rdf:type</text>
</g>
<!-- Rdsw:Token -->
<g id="node22" class="node">
<title>Rdsw:Token</title>
<ellipse fill="none" stroke="#0000ff" cx="1878.5957" cy="-441.5036" rx="50.0912" ry="18"/>
<text text-anchor="middle" x="1878.5957" y="-437.8036" font-family="Times,serif" font-size="14.00" fill="#000000">dsw:Token</text>
</g>
<!-- Rimg:MMNAT01_AF_NNM001001033_003.jpg&#45;&gt;Rdsw:Token -->
<g id="edge23" class="edge">
<title>Rimg:MMNAT01_AF_NNM001001033_003.jpg&#45;&gt;Rdsw:Token</title>
<path fill="none" stroke="#000000" d="M1417.4472,-593.05C1427.0966,-588.4536 1436.1156,-582.6875 1444.0957,-575.5036 1467.97,-554.0113 1439.6054,-528.4402 1462.0957,-505.5036 1557.6513,-408.0522 1735.1281,-418.6474 1824.3786,-431.5653"/>
<polygon fill="#000000" stroke="#000000" points="1823.8841,-435.0303 1834.2947,-433.0632 1824.9297,-428.1088 1823.8841,-435.0303"/>
<text text-anchor="middle" x="1519.5957" y="-509.3036" font-family="Times,serif" font-size="14.00" fill="#000000">rdf:type</text>
</g>
<!-- Rdwc:HumanObservation -->
<g id="node23" class="node">
<title>Rdwc:HumanObservation</title>
<ellipse fill="none" stroke="#0000ff" cx="1878.5957" cy="-657.5036" rx="96.6831" ry="18"/>
<text text-anchor="middle" x="1878.5957" y="-653.8036" font-family="Times,serif" font-size="14.00" fill="#000000">dwc:HumanObservation</text>
</g>
<!-- Rimg:MMNAT01_AF_NNM001001033_003.jpg&#45;&gt;Rdwc:HumanObservation -->
<g id="edge24" class="edge">
<title>Rimg:MMNAT01_AF_NNM001001033_003.jpg&#45;&gt;Rdwc:HumanObservation</title>
<path fill="none" stroke="#000000" d="M1392.5749,-615.076C1415.7342,-617.2522 1439.6204,-619.4681 1462.0957,-621.5036 1570.7995,-631.3484 1695.5198,-642.05 1779.9257,-649.2044"/>
<polygon fill="#000000" stroke="#000000" points="1779.7557,-652.7024 1790.0155,-650.059 1780.3466,-645.7274 1779.7557,-652.7024"/>
<text text-anchor="middle" x="1519.5957" y="-635.3036" font-family="Times,serif" font-size="14.00" fill="#000000">rdf:type</text>
</g>
<!-- Roa:Source -->
<g id="node24" class="node">
<title>Roa:Source</title>
<ellipse fill="none" stroke="#0000ff" cx="1878.5957" cy="-603.5036" rx="46.2923" ry="18"/>
<text text-anchor="middle" x="1878.5957" y="-599.8036" font-family="Times,serif" font-size="14.00" fill="#000000">oa:Source</text>
</g>
<!-- Rimg:MMNAT01_AF_NNM001001033_003.jpg&#45;&gt;Roa:Source -->
<g id="edge25" class="edge">
<title>Rimg:MMNAT01_AF_NNM001001033_003.jpg&#45;&gt;Roa:Source</title>
<path fill="none" stroke="#000000" d="M1444.1176,-602.7996C1572.9185,-603.0083 1737.0482,-603.2742 1821.9727,-603.4118"/>
<polygon fill="#000000" stroke="#000000" points="1822.1716,-606.9121 1832.1773,-603.4284 1822.183,-599.9121 1822.1716,-606.9121"/>
<text text-anchor="middle" x="1519.5957" y="-606.3036" font-family="Times,serif" font-size="14.00" fill="#000000">rdf:type</text>
</g>
<!-- Rfoaf:Image -->
<g id="node25" class="node">
<title>Rfoaf:Image</title>
<ellipse fill="none" stroke="#0000ff" cx="1878.5957" cy="-549.5036" rx="50.0912" ry="18"/>
<text text-anchor="middle" x="1878.5957" y="-545.8036" font-family="Times,serif" font-size="14.00" fill="#000000">foaf:Image</text>
</g>
<!-- Rimg:MMNAT01_AF_NNM001001033_003.jpg&#45;&gt;Rfoaf:Image -->
<g id="edge26" class="edge">
<title>Rimg:MMNAT01_AF_NNM001001033_003.jpg&#45;&gt;Rfoaf:Image</title>
<path fill="none" stroke="#000000" d="M1392.0283,-589.8917C1415.3566,-587.7088 1439.4413,-585.5009 1462.0957,-583.5036 1589.4438,-572.2763 1738.8149,-560.3959 1819.5528,-554.0811"/>
<polygon fill="#000000" stroke="#000000" points="1819.8315,-557.5701 1829.5285,-553.3019 1819.2863,-550.5914 1819.8315,-557.5701"/>
<text text-anchor="middle" x="1519.5957" y="-587.3036" font-family="Times,serif" font-size="14.00" fill="#000000">rdf:type</text>
</g>
<!-- B_:node1euqlam8lx214&#45;&gt;Rimg:MMNAT01_AF_NNM001001033_003.jpg -->
<g id="edge19" class="edge">
<title>B_:node1euqlam8lx214&#45;&gt;Rimg:MMNAT01_AF_NNM001001033_003.jpg</title>
<path fill="none" stroke="#000000" d="M841.1461,-666.5195C865.8883,-661.0714 912.106,-651.2093 951.8281,-644.5036 1012.0035,-634.3451 1079.0839,-625.0043 1135.3807,-617.7241"/>
<polygon fill="#000000" stroke="#000000" points="1135.9289,-621.1825 1145.4006,-616.4353 1135.0358,-614.2397 1135.9289,-621.1825"/>
<text text-anchor="middle" x="1006.3281" y="-648.3036" font-family="Times,serif" font-size="14.00" fill="#000000">oa:hasSource</text>
</g>
<!-- Roa:Target -->
<g id="node13" class="node">
<title>Roa:Target</title>
<ellipse fill="none" stroke="#0000ff" cx="1261.4619" cy="-658.5036" rx="44.393" ry="18"/>
<text text-anchor="middle" x="1261.4619" y="-654.8036" font-family="Times,serif" font-size="14.00" fill="#000000">oa:Target</text>
</g>
<!-- B_:node1euqlam8lx214&#45;&gt;Roa:Target -->
<g id="edge13" class="edge">
<title>B_:node1euqlam8lx214&#45;&gt;Roa:Target</title>
<path fill="none" stroke="#000000" d="M841.6058,-670.0033C903.7023,-668.3025 1108.2614,-662.6997 1207.0803,-659.9931"/>
<polygon fill="#000000" stroke="#000000" points="1207.263,-663.4895 1217.1634,-659.7169 1207.0713,-656.4921 1207.263,-663.4895"/>
<text text-anchor="middle" x="1006.3281" y="-670.3036" font-family="Times,serif" font-size="14.00" fill="#000000">rdf:type</text>
</g>
<!-- Limage/jpeg -->
<g id="node14" class="node">
<title>Limage/jpeg</title>
<polygon fill="none" stroke="#000000" points="1222.9619,-749.5036 1222.9619,-785.5036 1299.9619,-785.5036 1299.9619,-749.5036 1222.9619,-749.5036"/>
<text text-anchor="middle" x="1261.4619" y="-763.8036" font-family="Times,serif" font-size="14.00" fill="#000000">image/jpeg</text>
</g>
<!-- B_:node1euqlam8lx214&#45;&gt;Limage/jpeg -->
<g id="edge14" class="edge">
<title>B_:node1euqlam8lx214&#45;&gt;Limage/jpeg</title>
<path fill="none" stroke="#000000" d="M841.2579,-672.918C863.7122,-676.4139 902.9878,-684.1035 933.8281,-698.5036 942.7697,-702.6786 942.8225,-707.4685 951.8281,-711.5036 1038.2472,-750.2249 1149.6052,-762.1837 1212.5019,-765.8696"/>
<polygon fill="#000000" stroke="#000000" points="1212.369,-769.3674 1222.5431,-766.4114 1212.7463,-762.3776 1212.369,-769.3674"/>
<text text-anchor="middle" x="1006.3281" y="-748.3036" font-family="Times,serif" font-size="14.00" fill="#000000">dcterms:format</text>
</g>
<!-- B_:node1euqlam8lx217 -->
<g id="node15" class="node">
<title>B_:node1euqlam8lx217</title>
<ellipse fill="none" stroke="#00ff00" cx="1261.4619" cy="-712.5036" rx="18" ry="18"/>
</g>
<!-- B_:node1euqlam8lx214&#45;&gt;B_:node1euqlam8lx217 -->
<g id="edge15" class="edge">
<title>B_:node1euqlam8lx214&#45;&gt;B_:node1euqlam8lx217</title>
<path fill="none" stroke="#000000" d="M841.3297,-672.2284C909.2045,-678.735 1150.0852,-701.8267 1233.0987,-709.7846"/>
<polygon fill="#000000" stroke="#000000" points="1232.7887,-713.2708 1243.0771,-710.7412 1233.4567,-706.3028 1232.7887,-713.2708"/>
<text text-anchor="middle" x="1006.3281" y="-696.3036" font-family="Times,serif" font-size="14.00" fill="#000000">oa:hasSelector</text>
</g>
<!-- Roa:FragmentSelector -->
<g id="node16" class="node">
<title>Roa:FragmentSelector</title>
<ellipse fill="none" stroke="#0000ff" cx="1878.5957" cy="-765.5036" rx="84.485" ry="18"/>
<text text-anchor="middle" x="1878.5957" y="-761.8036" font-family="Times,serif" font-size="14.00" fill="#000000">oa:FragmentSelector</text>
</g>
<!-- B_:node1euqlam8lx217&#45;&gt;Roa:FragmentSelector -->
<g id="edge16" class="edge">
<title>B_:node1euqlam8lx217&#45;&gt;Roa:FragmentSelector</title>
<path fill="none" stroke="#000000" d="M1279.4437,-714.1511C1314.5504,-717.36 1394.6785,-724.6468 1462.0957,-730.5036 1574.9808,-740.3104 1705.1173,-751.1757 1789.4591,-758.1595"/>
<polygon fill="#000000" stroke="#000000" points="1789.2588,-761.6548 1799.5134,-758.9916 1789.8362,-754.6786 1789.2588,-761.6548"/>
<text text-anchor="middle" x="1519.5957" y="-743.3036" font-family="Times,serif" font-size="14.00" fill="#000000">rdf:type</text>
</g>
<!-- Rmf: -->
<g id="node17" class="node">
<title>Rmf:</title>
<ellipse fill="none" stroke="#0000ff" cx="1878.5957" cy="-711.5036" rx="27" ry="18"/>
<text text-anchor="middle" x="1878.5957" y="-707.8036" font-family="Times,serif" font-size="14.00" fill="#000000">mf:</text>
</g>
<!-- B_:node1euqlam8lx217&#45;&gt;Rmf: -->
<g id="edge17" class="edge">
<title>B_:node1euqlam8lx217&#45;&gt;Rmf:</title>
<path fill="none" stroke="#000000" d="M1279.5974,-712.4742C1364.547,-712.3366 1723.9061,-711.7543 1841.3152,-711.564"/>
<polygon fill="#000000" stroke="#000000" points="1841.5938,-715.0637 1851.5881,-711.5474 1841.5824,-708.0637 1841.5938,-715.0637"/>
<text text-anchor="middle" x="1519.5957" y="-715.3036" font-family="Times,serif" font-size="14.00" fill="#000000">dcterms:conformsTo</text>
</g>
<!-- Lxywh=0.5564975105323632,0.15035962809369469,0.07070854078896982,0.017330524703178862 -->
<g id="node18" class="node">
<title>Lxywh=0.5564975105323632,0.15035962809369469,0.07070854078896982,0.017330524703178862</title>
<polygon fill="none" stroke="#000000" points="1595.0957,-802.5036 1595.0957,-838.5036 2162.0957,-838.5036 2162.0957,-802.5036 1595.0957,-802.5036"/>
<text text-anchor="middle" x="1878.5957" y="-816.8036" font-family="Times,serif" font-size="14.00" fill="#000000">xywh=0.5564975105323632,0.15035962809369469,0.07070854078896982,0.017330524703178862</text>
</g>
<!-- B_:node1euqlam8lx217&#45;&gt;Lxywh=0.5564975105323632,0.15035962809369469,0.07070854078896982,0.017330524703178862 -->
<g id="edge18" class="edge">
<title>B_:node1euqlam8lx217&#45;&gt;Lxywh=0.5564975105323632,0.15035962809369469,0.07070854078896982,0.017330524703178862</title>
<path fill="none" stroke="#000000" d="M1279.6962,-711.6614C1313.8915,-710.8411 1389.1503,-712.6786 1444.0957,-740.5036 1454.189,-745.6149 1452.2654,-752.9033 1462.0957,-758.5036 1515.1086,-788.7048 1535.0088,-781.9192 1595.0957,-792.5036 1613.3461,-795.7184 1632.3273,-798.592 1651.4344,-801.1554"/>
<polygon fill="#000000" stroke="#000000" points="1651.064,-804.6367 1661.4344,-802.4677 1651.9749,-797.6962 1651.064,-804.6367"/>
<text text-anchor="middle" x="1519.5957" y="-792.3036" font-family="Times,serif" font-size="14.00" fill="#000000">rdf:value</text>
</g>
<!-- Rhttp://identifiers.org/taxonomy/9397 -->
<g id="node26" class="node">
<title>Rhttp://identifiers.org/taxonomy/9397</title>
<ellipse fill="none" stroke="#0000ff" cx="294.4239" cy="-405.5036" rx="139.9756" ry="18"/>
<text text-anchor="middle" x="294.4239" y="-401.8036" font-family="Times,serif" font-size="14.00" fill="#000000">http://identifiers.org/taxonomy/9397</text>
</g>
<!-- Rhttp://identifiers.org/taxonomy/9397&#45;&gt;B_:node1euqlam8lx215 -->
<g id="edge28" class="edge">
<title>Rhttp://identifiers.org/taxonomy/9397&#45;&gt;B_:node1euqlam8lx215</title>
<path fill="none" stroke="#000000" d="M404.0152,-416.6924C528.3482,-429.3863 723.195,-449.2794 795.2922,-456.6402"/>
<polygon fill="#000000" stroke="#000000" points="795.0951,-460.1382 805.3989,-457.6721 795.8061,-453.1744 795.0951,-460.1382"/>
<text text-anchor="middle" x="650.8478" y="-448.3036" font-family="Times,serif" font-size="14.00" fill="#000000">dwciri:toTaxon</text>
</g>
<!-- Rdwc:Identification -->
<g id="node27" class="node">
<title>Rdwc:Identification</title>
<ellipse fill="none" stroke="#0000ff" cx="823.3379" cy="-405.5036" rx="75.2868" ry="18"/>
<text text-anchor="middle" x="823.3379" y="-401.8036" font-family="Times,serif" font-size="14.00" fill="#000000">dwc:Identification</text>
</g>
<!-- Rhttp://identifiers.org/taxonomy/9397&#45;&gt;Rdwc:Identification -->
<g id="edge27" class="edge">
<title>Rhttp://identifiers.org/taxonomy/9397&#45;&gt;Rdwc:Identification</title>
<path fill="none" stroke="#000000" d="M434.428,-405.5036C530.7932,-405.5036 655.7175,-405.5036 737.6299,-405.5036"/>
<polygon fill="#000000" stroke="#000000" points="737.6498,-409.0037 747.6497,-405.5036 737.6497,-402.0037 737.6498,-409.0037"/>
<text text-anchor="middle" x="650.8478" y="-409.3036" font-family="Times,serif" font-size="14.00" fill="#000000">rdf:type</text>
</g>
<!-- Robo:TAXRANK_0000003 -->
<g id="node28" class="node">
<title>Robo:TAXRANK_0000003</title>
<ellipse fill="none" stroke="#0000ff" cx="823.3379" cy="-351.5036" rx="104.7816" ry="18"/>
<text text-anchor="middle" x="823.3379" y="-347.8036" font-family="Times,serif" font-size="14.00" fill="#000000">obo:TAXRANK_0000003</text>
</g>
<!-- Rhttp://identifiers.org/taxonomy/9397&#45;&gt;Robo:TAXRANK_0000003 -->
<g id="edge29" class="edge">
<title>Rhttp://identifiers.org/taxonomy/9397&#45;&gt;Robo:TAXRANK_0000003</title>
<path fill="none" stroke="#000000" d="M404.0152,-394.3148C497.9263,-384.7268 632.0659,-371.0317 723.1541,-361.732"/>
<polygon fill="#000000" stroke="#000000" points="723.6195,-365.2027 733.2122,-360.7051 722.9084,-358.2389 723.6195,-365.2027"/>
<text text-anchor="middle" x="650.8478" y="-376.3036" font-family="Times,serif" font-size="14.00" fill="#000000">dwc:taxonRank</text>
</g>
</g>
</svg>
