<?xml version="1.0" encoding="UTF-8" standalone="no"?>
<!DOCTYPE svg PUBLIC "-//W3C//DTD SVG 1.1//EN"
 "http://www.w3.org/Graphics/SVG/1.1/DTD/svg11.dtd">
<!-- Generated by graphviz version 2.40.1 (20161225.0304)
 -->
<!-- Title: %3 Pages: 1 -->
<svg width="2153pt" height="868pt"
 viewBox="0.00 0.00 2152.90 868.00" xmlns="http://www.w3.org/2000/svg" xmlns:xlink="http://www.w3.org/1999/xlink">
<g id="graph0" class="graph" transform="scale(1 1) rotate(0) translate(4 864)">
<title>%3</title>
<polygon fill="#ffffff" stroke="transparent" points="-4,4 -4,-864 2148.8962,-864 2148.8962,4 -4,4"/>
<text text-anchor="middle" x="1072.4481" y="-218.8" font-family="Times,serif" font-size="14.00" fill="#000000">Model:</text>
<text text-anchor="middle" x="1072.4481" y="-203.8" font-family="Times,serif" font-size="14.00" fill="#000000">(Unknown)</text>
<text text-anchor="middle" x="1072.4481" y="-172.8" font-family="Times,serif" font-size="14.00" fill="#000000">Namespaces:</text>
<text text-anchor="middle" x="1072.4481" y="-157.8" font-family="Times,serif" font-size="14.00" fill="#000000">dcmitype: http://purl.org/dc/dcmitype/</text>
<text text-anchor="middle" x="1072.4481" y="-142.8" font-family="Times,serif" font-size="14.00" fill="#000000">dcterms: http://purl.org/dc/terms/</text>
<text text-anchor="middle" x="1072.4481" y="-127.8" font-family="Times,serif" font-size="14.00" fill="#000000">dsw: http://purl.org/dsw/</text>
<text text-anchor="middle" x="1072.4481" y="-112.8" font-family="Times,serif" font-size="14.00" fill="#000000">dwc: http://rs.tdwg.org/dwc/terms/</text>
<text text-anchor="middle" x="1072.4481" y="-97.8" font-family="Times,serif" font-size="14.00" fill="#000000">foaf: http://xmlns.com/foaf/0.1/</text>
<text text-anchor="middle" x="1072.4481" y="-82.8" font-family="Times,serif" font-size="14.00" fill="#000000">img: http://localhost:8080/semanticAnnotator/files/</text>
<text text-anchor="middle" x="1072.4481" y="-67.8" font-family="Times,serif" font-size="14.00" fill="#000000">iso: http://iso639&#45;3.sil.org/code/</text>
<text text-anchor="middle" x="1072.4481" y="-52.8" font-family="Times,serif" font-size="14.00" fill="#000000">mf: http://www.w3.org/TR/media&#45;frags/</text>
<text text-anchor="middle" x="1072.4481" y="-37.8" font-family="Times,serif" font-size="14.00" fill="#000000">oa: http://www.w3.org/ns/oa#</text>
<text text-anchor="middle" x="1072.4481" y="-22.8" font-family="Times,serif" font-size="14.00" fill="#000000">orcid: http://orcid.org/</text>
<text text-anchor="middle" x="1072.4481" y="-7.8" font-family="Times,serif" font-size="14.00" fill="#000000">rdf: http://www.w3.org/1999/02/22&#45;rdf&#45;syntax&#45;ns#</text>
<!-- Rhttp://localhost:8080/rdf/nc/annotation/f9153729&#45;d711&#45;4b13&#45;9ce4&#45;934fbf3ff7c7 -->
<g id="node1" class="node">
<title>Rhttp://localhost:8080/rdf/nc/annotation/f9153729&#45;d711&#45;4b13&#45;9ce4&#45;934fbf3ff7c7</title>
<ellipse fill="none" stroke="#0000ff" cx="291.8241" cy="-658" rx="291.6483" ry="18"/>
<text text-anchor="middle" x="291.8241" y="-654.3" font-family="Times,serif" font-size="14.00" fill="#000000">http://localhost:8080/rdf/nc/annotation/f9153729&#45;d711&#45;4b13&#45;9ce4&#45;934fbf3ff7c7</text>
</g>
<!-- Roa:Annotation -->
<g id="node2" class="node">
<title>Roa:Annotation</title>
<ellipse fill="none" stroke="#0000ff" cx="818.1384" cy="-791" rx="61.1893" ry="18"/>
<text text-anchor="middle" x="818.1384" y="-787.3" font-family="Times,serif" font-size="14.00" fill="#000000">oa:Annotation</text>
</g>
<!-- Rhttp://localhost:8080/rdf/nc/annotation/f9153729&#45;d711&#45;4b13&#45;9ce4&#45;934fbf3ff7c7&#45;&gt;Roa:Annotation -->
<g id="edge1" class="edge">
<title>Rhttp://localhost:8080/rdf/nc/annotation/f9153729&#45;d711&#45;4b13&#45;9ce4&#45;934fbf3ff7c7&#45;&gt;Roa:Annotation</title>
<path fill="none" stroke="#000000" d="M359.8378,-675.5584C442.1394,-696.7544 584.9492,-733.3702 707.6482,-764 724.945,-768.3179 743.7837,-772.9482 760.9254,-777.1337"/>
<polygon fill="#000000" stroke="#000000" points="760.2532,-780.5722 770.7977,-779.5409 761.9115,-773.7715 760.2532,-780.5722"/>
<text text-anchor="middle" x="645.6482" y="-761.8" font-family="Times,serif" font-size="14.00" fill="#000000">rdf:type</text>
</g>
<!-- Rorcid:0000&#45;0002&#45;2146&#45;4803 -->
<g id="node3" class="node">
<title>Rorcid:0000&#45;0002&#45;2146&#45;4803</title>
<ellipse fill="none" stroke="#0000ff" cx="818.1384" cy="-737" rx="110.4804" ry="18"/>
<text text-anchor="middle" x="818.1384" y="-733.3" font-family="Times,serif" font-size="14.00" fill="#000000">orcid:0000&#45;0002&#45;2146&#45;4803</text>
</g>
<!-- Rhttp://localhost:8080/rdf/nc/annotation/f9153729&#45;d711&#45;4b13&#45;9ce4&#45;934fbf3ff7c7&#45;&gt;Rorcid:0000&#45;0002&#45;2146&#45;4803 -->
<g id="edge2" class="edge">
<title>Rhttp://localhost:8080/rdf/nc/annotation/f9153729&#45;d711&#45;4b13&#45;9ce4&#45;934fbf3ff7c7&#45;&gt;Rorcid:0000&#45;0002&#45;2146&#45;4803</title>
<path fill="none" stroke="#000000" d="M402.7987,-674.6573C499.0183,-689.0999 636.5944,-709.7502 726.6257,-723.2639"/>
<polygon fill="#000000" stroke="#000000" points="726.1369,-726.7297 736.5457,-724.7529 727.1761,-719.8072 726.1369,-726.7297"/>
<text text-anchor="middle" x="645.6482" y="-718.8" font-family="Times,serif" font-size="14.00" fill="#000000">dcterms:creator</text>
</g>
<!-- L2021&#45;01&#45;12T14:23:11.646Z|Datatype: dcterms:W3CDTF -->
<g id="node4" class="node">
<title>L2021&#45;01&#45;12T14:23:11.646Z|Datatype: dcterms:W3CDTF</title>
<polygon fill="none" stroke="#000000" points="730.6384,-654 730.6384,-700 905.6384,-700 905.6384,-654 730.6384,-654"/>
<text text-anchor="middle" x="818.1384" y="-684.8" font-family="Times,serif" font-size="14.00" fill="#000000">2021&#45;01&#45;12T14:23:11.646Z</text>
<polyline fill="none" stroke="#000000" points="730.6384,-677 905.6384,-677 "/>
<text text-anchor="middle" x="818.1384" y="-661.8" font-family="Times,serif" font-size="14.00" fill="#000000">Datatype: dcterms:W3CDTF</text>
</g>
<!-- Rhttp://localhost:8080/rdf/nc/annotation/f9153729&#45;d711&#45;4b13&#45;9ce4&#45;934fbf3ff7c7&#45;&gt;L2021&#45;01&#45;12T14:23:11.646Z|Datatype: dcterms:W3CDTF -->
<g id="edge3" class="edge">
<title>Rhttp://localhost:8080/rdf/nc/annotation/f9153729&#45;d711&#45;4b13&#45;9ce4&#45;934fbf3ff7c7&#45;&gt;L2021&#45;01&#45;12T14:23:11.646Z|Datatype: dcterms:W3CDTF</title>
<path fill="none" stroke="#000000" d="M543.8052,-667.0965C606.5524,-669.3617 670.1484,-671.6575 720.2892,-673.4676"/>
<polygon fill="#000000" stroke="#000000" points="720.3362,-676.9715 730.456,-673.8347 720.5888,-669.9761 720.3362,-676.9715"/>
<text text-anchor="middle" x="645.6482" y="-674.8" font-family="Times,serif" font-size="14.00" fill="#000000">dcterms:date</text>
</g>
<!-- B_:node1euqlam8lx293 -->
<g id="node5" class="node">
<title>B_:node1euqlam8lx293</title>
<ellipse fill="none" stroke="#00ff00" cx="818.1384" cy="-617" rx="18" ry="18"/>
</g>
<!-- Rhttp://localhost:8080/rdf/nc/annotation/f9153729&#45;d711&#45;4b13&#45;9ce4&#45;934fbf3ff7c7&#45;&gt;B_:node1euqlam8lx293 -->
<g id="edge4" class="edge">
<title>Rhttp://localhost:8080/rdf/nc/annotation/f9153729&#45;d711&#45;4b13&#45;9ce4&#45;934fbf3ff7c7&#45;&gt;B_:node1euqlam8lx293</title>
<path fill="none" stroke="#000000" d="M473.32,-643.8614C590.2861,-634.7497 731.1431,-623.777 790.0755,-619.1861"/>
<polygon fill="#000000" stroke="#000000" points="790.4039,-622.6712 800.1018,-618.4051 789.8602,-615.6924 790.4039,-622.6712"/>
<text text-anchor="middle" x="645.6482" y="-637.8" font-family="Times,serif" font-size="14.00" fill="#000000">oa:hasBody</text>
</g>
<!-- B_:node1euqlam8lx292 -->
<g id="node12" class="node">
<title>B_:node1euqlam8lx292</title>
<ellipse fill="none" stroke="#00ff00" cx="818.1384" cy="-467" rx="18" ry="18"/>
</g>
<!-- Rhttp://localhost:8080/rdf/nc/annotation/f9153729&#45;d711&#45;4b13&#45;9ce4&#45;934fbf3ff7c7&#45;&gt;B_:node1euqlam8lx292 -->
<g id="edge11" class="edge">
<title>Rhttp://localhost:8080/rdf/nc/annotation/f9153729&#45;d711&#45;4b13&#45;9ce4&#45;934fbf3ff7c7&#45;&gt;B_:node1euqlam8lx292</title>
<path fill="none" stroke="#000000" d="M340.8659,-640.2027C449.6339,-600.7307 708.0603,-506.9475 791.5978,-476.6316"/>
<polygon fill="#000000" stroke="#000000" points="792.9082,-479.8795 801.1144,-473.178 790.5202,-473.2994 792.9082,-479.8795"/>
<text text-anchor="middle" x="645.6482" y="-549.8" font-family="Times,serif" font-size="14.00" fill="#000000">oa:hasTarget</text>
</g>
<!-- Roa:describing -->
<g id="node19" class="node">
<title>Roa:describing</title>
<ellipse fill="none" stroke="#0000ff" cx="818.1384" cy="-413" rx="57.6901" ry="18"/>
<text text-anchor="middle" x="818.1384" y="-409.3" font-family="Times,serif" font-size="14.00" fill="#000000">oa:describing</text>
</g>
<!-- Rhttp://localhost:8080/rdf/nc/annotation/f9153729&#45;d711&#45;4b13&#45;9ce4&#45;934fbf3ff7c7&#45;&gt;Roa:describing -->
<g id="edge19" class="edge">
<title>Rhttp://localhost:8080/rdf/nc/annotation/f9153729&#45;d711&#45;4b13&#45;9ce4&#45;934fbf3ff7c7&#45;&gt;Roa:describing</title>
<path fill="none" stroke="#000000" d="M320.4257,-639.8493C386.2908,-598.7697 554.768,-497.7659 707.6482,-440 723.7868,-433.902 741.7787,-428.8216 758.4794,-424.7743"/>
<polygon fill="#000000" stroke="#000000" points="759.7427,-428.0734 768.6829,-422.388 758.1486,-421.2573 759.7427,-428.0734"/>
<text text-anchor="middle" x="645.6482" y="-483.8" font-family="Times,serif" font-size="14.00" fill="#000000">oa:motivatedBy</text>
</g>
<!-- Rfoaf:Person -->
<g id="node20" class="node">
<title>Rfoaf:Person</title>
<ellipse fill="none" stroke="#0000ff" cx="1244.2624" cy="-841" rx="51.1914" ry="18"/>
<text text-anchor="middle" x="1244.2624" y="-837.3" font-family="Times,serif" font-size="14.00" fill="#000000">foaf:Person</text>
</g>
<!-- Rorcid:0000&#45;0002&#45;2146&#45;4803&#45;&gt;Rfoaf:Person -->
<g id="edge20" class="edge">
<title>Rorcid:0000&#45;0002&#45;2146&#45;4803&#45;&gt;Rfoaf:Person</title>
<path fill="none" stroke="#000000" d="M902.4373,-748.69C911.9363,-752.5034 920.9441,-757.4907 928.6286,-764 944.1251,-777.1265 930.357,-793.8476 946.6286,-806 1016.6657,-858.3071 1122.9708,-857.0317 1187.7721,-849.9758"/>
<polygon fill="#000000" stroke="#000000" points="1188.279,-853.4404 1197.804,-848.801 1187.4648,-846.4879 1188.279,-853.4404"/>
<text text-anchor="middle" x="995.1286" y="-848.8" font-family="Times,serif" font-size="14.00" fill="#000000">rdf:type</text>
</g>
<!-- Rdwc:MeasurementOrFact -->
<g id="node6" class="node">
<title>Rdwc:MeasurementOrFact</title>
<ellipse fill="none" stroke="#0000ff" cx="1244.2624" cy="-557" rx="100.9827" ry="18"/>
<text text-anchor="middle" x="1244.2624" y="-553.3" font-family="Times,serif" font-size="14.00" fill="#000000">dwc:MeasurementOrFact</text>
</g>
<!-- B_:node1euqlam8lx293&#45;&gt;Rdwc:MeasurementOrFact -->
<g id="edge5" class="edge">
<title>B_:node1euqlam8lx293&#45;&gt;Rdwc:MeasurementOrFact</title>
<path fill="none" stroke="#000000" d="M836.0065,-614.3007C860.8182,-610.5654 907.1162,-603.6427 946.6286,-598 1016.0647,-588.0839 1094.6762,-577.2727 1153.6654,-569.2427"/>
<polygon fill="#000000" stroke="#000000" points="1154.2636,-572.6936 1163.7006,-567.8777 1153.3201,-565.7575 1154.2636,-572.6936"/>
<text text-anchor="middle" x="995.1286" y="-601.8" font-family="Times,serif" font-size="14.00" fill="#000000">rdf:type</text>
</g>
<!-- Roa:TextualBody -->
<g id="node7" class="node">
<title>Roa:TextualBody</title>
<ellipse fill="none" stroke="#0000ff" cx="1244.2624" cy="-787" rx="67.6881" ry="18"/>
<text text-anchor="middle" x="1244.2624" y="-783.3" font-family="Times,serif" font-size="14.00" fill="#000000">oa:TextualBody</text>
</g>
<!-- B_:node1euqlam8lx293&#45;&gt;Roa:TextualBody -->
<g id="edge6" class="edge">
<title>B_:node1euqlam8lx293&#45;&gt;Roa:TextualBody</title>
<path fill="none" stroke="#000000" d="M836.1574,-616.2552C860.5729,-616.2797 903.9414,-620.1533 928.6286,-645 952.1812,-668.7048 924.3147,-693.1257 946.6286,-718 982.9634,-758.504 1008.8865,-746.6186 1061.6286,-760 1096.9631,-768.9648 1136.9494,-775.2932 1170.4799,-779.5583"/>
<polygon fill="#000000" stroke="#000000" points="1170.3127,-783.0642 1180.6663,-780.8163 1171.1707,-776.1169 1170.3127,-783.0642"/>
<text text-anchor="middle" x="995.1286" y="-758.8" font-family="Times,serif" font-size="14.00" fill="#000000">rdf:type</text>
</g>
<!-- Ltext/plain -->
<g id="node8" class="node">
<title>Ltext/plain</title>
<polygon fill="none" stroke="#000000" points="1210.2624,-714 1210.2624,-750 1278.2624,-750 1278.2624,-714 1210.2624,-714"/>
<text text-anchor="middle" x="1244.2624" y="-728.3" font-family="Times,serif" font-size="14.00" fill="#000000">text/plain</text>
</g>
<!-- B_:node1euqlam8lx293&#45;&gt;Ltext/plain -->
<g id="edge7" class="edge">
<title>B_:node1euqlam8lx293&#45;&gt;Ltext/plain</title>
<path fill="none" stroke="#000000" d="M836.4053,-618.0278C859.5707,-620.0944 899.9454,-626.3112 928.6286,-645 939.5043,-652.0861 935.9526,-660.6165 946.6286,-668 990.6773,-698.464 1009.4547,-691.9074 1061.6286,-704 1108.3305,-714.8243 1162.7473,-722.5531 1199.955,-727.1115"/>
<polygon fill="#000000" stroke="#000000" points="1199.6267,-730.5971 1209.9724,-728.3131 1200.4604,-723.647 1199.6267,-730.5971"/>
<text text-anchor="middle" x="995.1286" y="-702.8" font-family="Times,serif" font-size="14.00" fill="#000000">dcterms:format</text>
</g>
<!-- Riso:lat -->
<g id="node9" class="node">
<title>Riso:lat</title>
<ellipse fill="none" stroke="#0000ff" cx="1244.2624" cy="-677" rx="32.4942" ry="18"/>
<text text-anchor="middle" x="1244.2624" y="-673.3" font-family="Times,serif" font-size="14.00" fill="#000000">iso:lat</text>
</g>
<!-- B_:node1euqlam8lx293&#45;&gt;Riso:lat -->
<g id="edge8" class="edge">
<title>B_:node1euqlam8lx293&#45;&gt;Riso:lat</title>
<path fill="none" stroke="#000000" d="M836.0065,-619.6993C860.8182,-623.4346 907.1162,-630.3573 946.6286,-636 1037.7743,-649.0164 1144.7297,-663.5752 1202.3606,-671.3612"/>
<polygon fill="#000000" stroke="#000000" points="1202.1543,-674.865 1212.5327,-672.7343 1203.0908,-667.9279 1202.1543,-674.865"/>
<text text-anchor="middle" x="995.1286" y="-652.8" font-family="Times,serif" font-size="14.00" fill="#000000">dcterms:language</text>
</g>
<!-- Rimg:MMNAT01_AF_NNM001001033_003.jpg -->
<g id="node10" class="node">
<title>Rimg:MMNAT01_AF_NNM001001033_003.jpg</title>
<ellipse fill="none" stroke="#0000ff" cx="1244.2624" cy="-503" rx="182.7677" ry="18"/>
<text text-anchor="middle" x="1244.2624" y="-499.3" font-family="Times,serif" font-size="14.00" fill="#000000">img:MMNAT01_AF_NNM001001033_003.jpg</text>
</g>
<!-- B_:node1euqlam8lx293&#45;&gt;Rimg:MMNAT01_AF_NNM001001033_003.jpg -->
<g id="edge9" class="edge">
<title>B_:node1euqlam8lx293&#45;&gt;Rimg:MMNAT01_AF_NNM001001033_003.jpg</title>
<path fill="none" stroke="#000000" d="M835.0602,-610.0419C859.5196,-600.07 906.2516,-581.337 946.6286,-567 997.225,-549.0343 1009.3392,-542.1895 1061.6286,-530 1080.1027,-525.6934 1099.7961,-521.9349 1119.1577,-518.7014"/>
<polygon fill="#000000" stroke="#000000" points="1119.937,-522.1207 1129.2441,-517.0582 1118.8114,-515.2118 1119.937,-522.1207"/>
<text text-anchor="middle" x="995.1286" y="-570.8" font-family="Times,serif" font-size="14.00" fill="#000000">dsw:derivedFrom</text>
</g>
<!-- LDentibus|Language: lat -->
<g id="node11" class="node">
<title>LDentibus|Language: lat</title>
<polygon fill="none" stroke="#000000" points="1198.7624,-594 1198.7624,-640 1289.7624,-640 1289.7624,-594 1198.7624,-594"/>
<text text-anchor="middle" x="1244.2624" y="-624.8" font-family="Times,serif" font-size="14.00" fill="#000000">Dentibus</text>
<polyline fill="none" stroke="#000000" points="1198.7624,-617 1289.7624,-617 "/>
<text text-anchor="middle" x="1244.2624" y="-601.8" font-family="Times,serif" font-size="14.00" fill="#000000">Language: lat</text>
</g>
<!-- B_:node1euqlam8lx293&#45;&gt;LDentibus|Language: lat -->
<g id="edge10" class="edge">
<title>B_:node1euqlam8lx293&#45;&gt;LDentibus|Language: lat</title>
<path fill="none" stroke="#000000" d="M836.1762,-617C896.243,-617 1091.166,-617 1188.2527,-617"/>
<polygon fill="#000000" stroke="#000000" points="1188.4646,-620.5001 1198.4645,-617 1188.4645,-613.5001 1188.4646,-620.5001"/>
<text text-anchor="middle" x="995.1286" y="-620.8" font-family="Times,serif" font-size="14.00" fill="#000000">rdf:value</text>
</g>
<!-- Rdcmitype:StillImage -->
<g id="node21" class="node">
<title>Rdcmitype:StillImage</title>
<ellipse fill="none" stroke="#0000ff" cx="1861.3962" cy="-502" rx="83.3857" ry="18"/>
<text text-anchor="middle" x="1861.3962" y="-498.3" font-family="Times,serif" font-size="14.00" fill="#000000">dcmitype:StillImage</text>
</g>
<!-- Rimg:MMNAT01_AF_NNM001001033_003.jpg&#45;&gt;Rdcmitype:StillImage -->
<g id="edge21" class="edge">
<title>Rimg:MMNAT01_AF_NNM001001033_003.jpg&#45;&gt;Rdcmitype:StillImage</title>
<path fill="none" stroke="#000000" d="M1426.918,-502.704C1539.0002,-502.5224 1677.835,-502.2974 1767.9498,-502.1514"/>
<polygon fill="#000000" stroke="#000000" points="1768.1531,-505.6512 1778.1474,-502.1349 1768.1417,-498.6512 1768.1531,-505.6512"/>
<text text-anchor="middle" x="1502.3962" y="-506.8" font-family="Times,serif" font-size="14.00" fill="#000000">rdf:type</text>
</g>
<!-- Rdsw:Token -->
<g id="node22" class="node">
<title>Rdsw:Token</title>
<ellipse fill="none" stroke="#0000ff" cx="1861.3962" cy="-448" rx="50.0912" ry="18"/>
<text text-anchor="middle" x="1861.3962" y="-444.3" font-family="Times,serif" font-size="14.00" fill="#000000">dsw:Token</text>
</g>
<!-- Rimg:MMNAT01_AF_NNM001001033_003.jpg&#45;&gt;Rdsw:Token -->
<g id="edge22" class="edge">
<title>Rimg:MMNAT01_AF_NNM001001033_003.jpg&#45;&gt;Rdsw:Token</title>
<path fill="none" stroke="#000000" d="M1375.3753,-490.4276C1398.5347,-488.2514 1422.4209,-486.0355 1444.8962,-484 1572.1817,-472.4723 1721.4275,-459.7699 1802.1957,-452.9633"/>
<polygon fill="#000000" stroke="#000000" points="1802.9814,-456.4096 1812.6524,-452.0828 1802.394,-449.4343 1802.9814,-456.4096"/>
<text text-anchor="middle" x="1502.3962" y="-487.8" font-family="Times,serif" font-size="14.00" fill="#000000">rdf:type</text>
</g>
<!-- Rdwc:HumanObservation -->
<g id="node23" class="node">
<title>Rdwc:HumanObservation</title>
<ellipse fill="none" stroke="#0000ff" cx="1861.3962" cy="-664" rx="96.6831" ry="18"/>
<text text-anchor="middle" x="1861.3962" y="-660.3" font-family="Times,serif" font-size="14.00" fill="#000000">dwc:HumanObservation</text>
</g>
<!-- Rimg:MMNAT01_AF_NNM001001033_003.jpg&#45;&gt;Rdwc:HumanObservation -->
<g id="edge23" class="edge">
<title>Rimg:MMNAT01_AF_NNM001001033_003.jpg&#45;&gt;Rdwc:HumanObservation</title>
<path fill="none" stroke="#000000" d="M1400.2476,-512.4536C1409.897,-517.05 1418.9161,-522.8161 1426.8962,-530 1450.7705,-551.4923 1422.4058,-577.0634 1444.8962,-600 1531.503,-688.3251 1685.4059,-687.8931 1779.9228,-677.4196"/>
<polygon fill="#000000" stroke="#000000" points="1780.4867,-680.8776 1790.0119,-676.2385 1779.6728,-673.925 1780.4867,-680.8776"/>
<text text-anchor="middle" x="1502.3962" y="-667.8" font-family="Times,serif" font-size="14.00" fill="#000000">rdf:type</text>
</g>
<!-- Roa:Source -->
<g id="node24" class="node">
<title>Roa:Source</title>
<ellipse fill="none" stroke="#0000ff" cx="1861.3962" cy="-610" rx="46.2923" ry="18"/>
<text text-anchor="middle" x="1861.3962" y="-606.3" font-family="Times,serif" font-size="14.00" fill="#000000">oa:Source</text>
</g>
<!-- Rimg:MMNAT01_AF_NNM001001033_003.jpg&#45;&gt;Roa:Source -->
<g id="edge24" class="edge">
<title>Rimg:MMNAT01_AF_NNM001001033_003.jpg&#45;&gt;Roa:Source</title>
<path fill="none" stroke="#000000" d="M1388.1111,-514.1356C1401.6658,-518.1529 1414.8308,-523.3384 1426.8962,-530 1437.6576,-535.9416 1434.4108,-544.5837 1444.8962,-551 1496.7552,-582.7338 1517.9293,-572.9818 1577.8962,-583 1656.1698,-596.0765 1747.7386,-603.3695 1805.16,-606.9908"/>
<polygon fill="#000000" stroke="#000000" points="1805.2775,-610.5045 1815.4735,-607.6248 1805.7071,-603.5177 1805.2775,-610.5045"/>
<text text-anchor="middle" x="1502.3962" y="-584.8" font-family="Times,serif" font-size="14.00" fill="#000000">rdf:type</text>
</g>
<!-- Rfoaf:Image -->
<g id="node25" class="node">
<title>Rfoaf:Image</title>
<ellipse fill="none" stroke="#0000ff" cx="1861.3962" cy="-556" rx="50.0912" ry="18"/>
<text text-anchor="middle" x="1861.3962" y="-552.3" font-family="Times,serif" font-size="14.00" fill="#000000">foaf:Image</text>
</g>
<!-- Rimg:MMNAT01_AF_NNM001001033_003.jpg&#45;&gt;Rfoaf:Image -->
<g id="edge25" class="edge">
<title>Rimg:MMNAT01_AF_NNM001001033_003.jpg&#45;&gt;Rfoaf:Image</title>
<path fill="none" stroke="#000000" d="M1374.8288,-515.6119C1398.1571,-517.7948 1422.2418,-520.0027 1444.8962,-522 1572.2443,-533.2273 1721.6154,-545.1077 1802.3533,-551.4225"/>
<polygon fill="#000000" stroke="#000000" points="1802.0868,-554.9122 1812.329,-552.2017 1802.6319,-547.9335 1802.0868,-554.9122"/>
<text text-anchor="middle" x="1502.3962" y="-535.8" font-family="Times,serif" font-size="14.00" fill="#000000">rdf:type</text>
</g>
<!-- B_:node1euqlam8lx292&#45;&gt;Rimg:MMNAT01_AF_NNM001001033_003.jpg -->
<g id="edge18" class="edge">
<title>B_:node1euqlam8lx292&#45;&gt;Rimg:MMNAT01_AF_NNM001001033_003.jpg</title>
<path fill="none" stroke="#000000" d="M836.1762,-468.5239C880.4369,-472.2631 997.9189,-482.1883 1095.526,-490.4344"/>
<polygon fill="#000000" stroke="#000000" points="1095.2492,-493.9234 1105.5084,-491.2777 1095.8386,-486.9482 1095.2492,-493.9234"/>
<text text-anchor="middle" x="995.1286" y="-488.8" font-family="Times,serif" font-size="14.00" fill="#000000">oa:hasSource</text>
</g>
<!-- Roa:Target -->
<g id="node13" class="node">
<title>Roa:Target</title>
<ellipse fill="none" stroke="#0000ff" cx="1244.2624" cy="-339" rx="44.393" ry="18"/>
<text text-anchor="middle" x="1244.2624" y="-335.3" font-family="Times,serif" font-size="14.00" fill="#000000">oa:Target</text>
</g>
<!-- B_:node1euqlam8lx292&#45;&gt;Roa:Target -->
<g id="edge12" class="edge">
<title>B_:node1euqlam8lx292&#45;&gt;Roa:Target</title>
<path fill="none" stroke="#000000" d="M836.3129,-467.6762C860.5074,-467.5636 903.193,-463.6831 928.6286,-440 947.7619,-422.185 926.7607,-400.9919 946.6286,-384 1015.4293,-325.1587 1127.4056,-325.346 1192.6202,-331.6179"/>
<polygon fill="#000000" stroke="#000000" points="1192.3617,-335.1099 1202.6714,-332.6686 1193.0895,-328.1478 1192.3617,-335.1099"/>
<text text-anchor="middle" x="995.1286" y="-387.8" font-family="Times,serif" font-size="14.00" fill="#000000">rdf:type</text>
</g>
<!-- Limage/jpeg -->
<g id="node14" class="node">
<title>Limage/jpeg</title>
<polygon fill="none" stroke="#000000" points="1205.7624,-430 1205.7624,-466 1282.7624,-466 1282.7624,-430 1205.7624,-430"/>
<text text-anchor="middle" x="1244.2624" y="-444.3" font-family="Times,serif" font-size="14.00" fill="#000000">image/jpeg</text>
</g>
<!-- B_:node1euqlam8lx292&#45;&gt;Limage/jpeg -->
<g id="edge13" class="edge">
<title>B_:node1euqlam8lx292&#45;&gt;Limage/jpeg</title>
<path fill="none" stroke="#000000" d="M835.9334,-463.7266C860.6603,-459.3571 906.8603,-451.8391 946.6286,-449 1034.1487,-442.7517 1136.5136,-444.3525 1195.5242,-446.1387"/>
<polygon fill="#000000" stroke="#000000" points="1195.566,-449.6417 1205.672,-446.4608 1195.7881,-442.6452 1195.566,-449.6417"/>
<text text-anchor="middle" x="995.1286" y="-452.8" font-family="Times,serif" font-size="14.00" fill="#000000">dcterms:format</text>
</g>
<!-- B_:node1euqlam8lx295 -->
<g id="node15" class="node">
<title>B_:node1euqlam8lx295</title>
<ellipse fill="none" stroke="#00ff00" cx="1244.2624" cy="-393" rx="18" ry="18"/>
</g>
<!-- B_:node1euqlam8lx292&#45;&gt;B_:node1euqlam8lx295 -->
<g id="edge14" class="edge">
<title>B_:node1euqlam8lx292&#45;&gt;B_:node1euqlam8lx295</title>
<path fill="none" stroke="#000000" d="M836.0598,-464.7857C858.5155,-461.5321 897.7927,-454.2383 928.6286,-440 937.5879,-435.8631 937.4268,-430.565 946.6286,-427 1040.092,-390.7906 1161.5143,-389.8305 1215.8296,-391.5681"/>
<polygon fill="#000000" stroke="#000000" points="1215.9439,-395.0748 1226.0689,-391.955 1216.2082,-388.0798 1215.9439,-395.0748"/>
<text text-anchor="middle" x="995.1286" y="-430.8" font-family="Times,serif" font-size="14.00" fill="#000000">oa:hasSelector</text>
</g>
<!-- Roa:FragmentSelector -->
<g id="node16" class="node">
<title>Roa:FragmentSelector</title>
<ellipse fill="none" stroke="#0000ff" cx="1861.3962" cy="-284" rx="84.485" ry="18"/>
<text text-anchor="middle" x="1861.3962" y="-280.3" font-family="Times,serif" font-size="14.00" fill="#000000">oa:FragmentSelector</text>
</g>
<!-- B_:node1euqlam8lx295&#45;&gt;Roa:FragmentSelector -->
<g id="edge15" class="edge">
<title>B_:node1euqlam8lx295&#45;&gt;Roa:FragmentSelector</title>
<path fill="none" stroke="#000000" d="M1262.3629,-394.2241C1296.656,-395.7362 1372.5256,-395.1669 1426.8962,-366 1437.4344,-360.3468 1434.6864,-352.2267 1444.8962,-346 1497.0804,-314.1739 1517.7183,-321.7106 1577.8962,-311 1641.1338,-299.7448 1713.1987,-292.9598 1768.8458,-289.0064"/>
<polygon fill="#000000" stroke="#000000" points="1769.3051,-292.4831 1779.0395,-288.3007 1768.8216,-285.4998 1769.3051,-292.4831"/>
<text text-anchor="middle" x="1502.3962" y="-349.8" font-family="Times,serif" font-size="14.00" fill="#000000">rdf:type</text>
</g>
<!-- Rmf: -->
<g id="node17" class="node">
<title>Rmf:</title>
<ellipse fill="none" stroke="#0000ff" cx="1861.3962" cy="-394" rx="27" ry="18"/>
<text text-anchor="middle" x="1861.3962" y="-390.3" font-family="Times,serif" font-size="14.00" fill="#000000">mf:</text>
</g>
<!-- B_:node1euqlam8lx295&#45;&gt;Rmf: -->
<g id="edge16" class="edge">
<title>B_:node1euqlam8lx295&#45;&gt;Rmf:</title>
<path fill="none" stroke="#000000" d="M1262.3978,-393.0294C1347.3475,-393.167 1706.7065,-393.7493 1824.1156,-393.9396"/>
<polygon fill="#000000" stroke="#000000" points="1824.3828,-397.4399 1834.3885,-393.9562 1824.3942,-390.4399 1824.3828,-397.4399"/>
<text text-anchor="middle" x="1502.3962" y="-397.8" font-family="Times,serif" font-size="14.00" fill="#000000">dcterms:conformsTo</text>
</g>
<!-- Lxywh=0.5387114644113724,0.4611607439462596,0.042861499334355235,0.030406020895311747 -->
<g id="node18" class="node">
<title>Lxywh=0.5387114644113724,0.4611607439462596,0.042861499334355235,0.030406020895311747</title>
<polygon fill="none" stroke="#000000" points="1577.8962,-321 1577.8962,-357 2144.8962,-357 2144.8962,-321 1577.8962,-321"/>
<text text-anchor="middle" x="1861.3962" y="-335.3" font-family="Times,serif" font-size="14.00" fill="#000000">xywh=0.5387114644113724,0.4611607439462596,0.042861499334355235,0.030406020895311747</text>
</g>
<!-- B_:node1euqlam8lx295&#45;&gt;Lxywh=0.5387114644113724,0.4611607439462596,0.042861499334355235,0.030406020895311747 -->
<g id="edge17" class="edge">
<title>B_:node1euqlam8lx295&#45;&gt;Lxywh=0.5387114644113724,0.4611607439462596,0.042861499334355235,0.030406020895311747</title>
<path fill="none" stroke="#000000" d="M1262.2454,-391.3669C1297.3543,-388.1828 1377.486,-380.9371 1444.8962,-375 1508.6338,-369.3863 1577.8658,-363.3697 1641.2493,-357.8935"/>
<polygon fill="#000000" stroke="#000000" points="1641.7083,-361.367 1651.37,-357.0194 1641.1059,-354.3929 1641.7083,-361.367"/>
<text text-anchor="middle" x="1502.3962" y="-378.8" font-family="Times,serif" font-size="14.00" fill="#000000">rdf:value</text>
</g>
</g>
</svg>
