<?xml version="1.0" encoding="UTF-8" standalone="no"?>
<!DOCTYPE svg PUBLIC "-//W3C//DTD SVG 1.1//EN"
 "http://www.w3.org/Graphics/SVG/1.1/DTD/svg11.dtd">
<!-- Generated by graphviz version 2.40.1 (20161225.0304)
 -->
<!-- Title: %3 Pages: 1 -->
<svg width="2148pt" height="1052pt"
 viewBox="0.00 0.00 2147.70 1051.50" xmlns="http://www.w3.org/2000/svg" xmlns:xlink="http://www.w3.org/1999/xlink">
<g id="graph0" class="graph" transform="scale(1 1) rotate(0) translate(4 1047.5)">
<title>%3</title>
<polygon fill="#ffffff" stroke="transparent" points="-4,4 -4,-1047.5 2143.6955,-1047.5 2143.6955,4 -4,4"/>
<text text-anchor="middle" x="1069.8478" y="-218.8" font-family="Times,serif" font-size="14.00" fill="#000000">Model:</text>
<text text-anchor="middle" x="1069.8478" y="-203.8" font-family="Times,serif" font-size="14.00" fill="#000000">(Unknown)</text>
<text text-anchor="middle" x="1069.8478" y="-172.8" font-family="Times,serif" font-size="14.00" fill="#000000">Namespaces:</text>
<text text-anchor="middle" x="1069.8478" y="-157.8" font-family="Times,serif" font-size="14.00" fill="#000000">dcmitype: http://purl.org/dc/dcmitype/</text>
<text text-anchor="middle" x="1069.8478" y="-142.8" font-family="Times,serif" font-size="14.00" fill="#000000">dcterms: http://purl.org/dc/terms/</text>
<text text-anchor="middle" x="1069.8478" y="-127.8" font-family="Times,serif" font-size="14.00" fill="#000000">dsw: http://purl.org/dsw/</text>
<text text-anchor="middle" x="1069.8478" y="-112.8" font-family="Times,serif" font-size="14.00" fill="#000000">dwc: http://rs.tdwg.org/dwc/terms/</text>
<text text-anchor="middle" x="1069.8478" y="-97.8" font-family="Times,serif" font-size="14.00" fill="#000000">foaf: http://xmlns.com/foaf/0.1/</text>
<text text-anchor="middle" x="1069.8478" y="-82.8" font-family="Times,serif" font-size="14.00" fill="#000000">img: http://localhost:8080/semanticAnnotator/files/</text>
<text text-anchor="middle" x="1069.8478" y="-67.8" font-family="Times,serif" font-size="14.00" fill="#000000">iso: http://iso639&#45;3.sil.org/code/</text>
<text text-anchor="middle" x="1069.8478" y="-52.8" font-family="Times,serif" font-size="14.00" fill="#000000">mf: http://www.w3.org/TR/media&#45;frags/</text>
<text text-anchor="middle" x="1069.8478" y="-37.8" font-family="Times,serif" font-size="14.00" fill="#000000">oa: http://www.w3.org/ns/oa#</text>
<text text-anchor="middle" x="1069.8478" y="-22.8" font-family="Times,serif" font-size="14.00" fill="#000000">orcid: http://orcid.org/</text>
<text text-anchor="middle" x="1069.8478" y="-7.8" font-family="Times,serif" font-size="14.00" fill="#000000">rdf: http://www.w3.org/1999/02/22&#45;rdf&#45;syntax&#45;ns#</text>
<!-- Rhttp://localhost:8080/rdf/nc/annotation/5b3c6798&#45;8d2a&#45;4454&#45;860f&#45;349ab306cfe9 -->
<g id="node1" class="node">
<title>Rhttp://localhost:8080/rdf/nc/annotation/5b3c6798&#45;8d2a&#45;4454&#45;860f&#45;349ab306cfe9</title>
<ellipse fill="none" stroke="#0000ff" cx="295.7238" cy="-751.5" rx="295.9477" ry="18"/>
<text text-anchor="middle" x="295.7238" y="-747.8" font-family="Times,serif" font-size="14.00" fill="#000000">http://localhost:8080/rdf/nc/annotation/5b3c6798&#45;8d2a&#45;4454&#45;860f&#45;349ab306cfe9</text>
</g>
<!-- Roa:Annotation -->
<g id="node2" class="node">
<title>Roa:Annotation</title>
<ellipse fill="none" stroke="#0000ff" cx="825.9377" cy="-884.5" rx="61.1893" ry="18"/>
<text text-anchor="middle" x="825.9377" y="-880.8" font-family="Times,serif" font-size="14.00" fill="#000000">oa:Annotation</text>
</g>
<!-- Rhttp://localhost:8080/rdf/nc/annotation/5b3c6798&#45;8d2a&#45;4454&#45;860f&#45;349ab306cfe9&#45;&gt;Roa:Annotation -->
<g id="edge1" class="edge">
<title>Rhttp://localhost:8080/rdf/nc/annotation/5b3c6798&#45;8d2a&#45;4454&#45;860f&#45;349ab306cfe9&#45;&gt;Roa:Annotation</title>
<path fill="none" stroke="#000000" d="M364.3875,-769.0135C447.4727,-790.1654 591.6334,-826.7381 715.4475,-857.5 732.7491,-861.7986 751.5892,-866.4233 768.7308,-870.6095"/>
<polygon fill="#000000" stroke="#000000" points="768.0581,-874.048 778.6028,-873.0178 769.7172,-867.2474 768.0581,-874.048"/>
<text text-anchor="middle" x="653.4475" y="-855.3" font-family="Times,serif" font-size="14.00" fill="#000000">rdf:type</text>
</g>
<!-- Rorcid:0000&#45;0002&#45;2146&#45;4803 -->
<g id="node3" class="node">
<title>Rorcid:0000&#45;0002&#45;2146&#45;4803</title>
<ellipse fill="none" stroke="#0000ff" cx="825.9377" cy="-830.5" rx="110.4804" ry="18"/>
<text text-anchor="middle" x="825.9377" y="-826.8" font-family="Times,serif" font-size="14.00" fill="#000000">orcid:0000&#45;0002&#45;2146&#45;4803</text>
</g>
<!-- Rhttp://localhost:8080/rdf/nc/annotation/5b3c6798&#45;8d2a&#45;4454&#45;860f&#45;349ab306cfe9&#45;&gt;Rorcid:0000&#45;0002&#45;2146&#45;4803 -->
<g id="edge2" class="edge">
<title>Rhttp://localhost:8080/rdf/nc/annotation/5b3c6798&#45;8d2a&#45;4454&#45;860f&#45;349ab306cfe9&#45;&gt;Rorcid:0000&#45;0002&#45;2146&#45;4803</title>
<path fill="none" stroke="#000000" d="M407.8444,-768.2056C504.9488,-782.6738 643.6841,-803.3449 734.2713,-816.842"/>
<polygon fill="#000000" stroke="#000000" points="733.8446,-820.317 744.2512,-818.329 734.8762,-813.3934 733.8446,-820.317"/>
<text text-anchor="middle" x="653.4475" y="-812.3" font-family="Times,serif" font-size="14.00" fill="#000000">dcterms:creator</text>
</g>
<!-- L2021&#45;01&#45;12T14:23:11.646Z|Datatype: dcterms:W3CDTF -->
<g id="node4" class="node">
<title>L2021&#45;01&#45;12T14:23:11.646Z|Datatype: dcterms:W3CDTF</title>
<polygon fill="none" stroke="#000000" points="738.4377,-747.5 738.4377,-793.5 913.4377,-793.5 913.4377,-747.5 738.4377,-747.5"/>
<text text-anchor="middle" x="825.9377" y="-778.3" font-family="Times,serif" font-size="14.00" fill="#000000">2021&#45;01&#45;12T14:23:11.646Z</text>
<polyline fill="none" stroke="#000000" points="738.4377,-770.5 913.4377,-770.5 "/>
<text text-anchor="middle" x="825.9377" y="-755.3" font-family="Times,serif" font-size="14.00" fill="#000000">Datatype: dcterms:W3CDTF</text>
</g>
<!-- Rhttp://localhost:8080/rdf/nc/annotation/5b3c6798&#45;8d2a&#45;4454&#45;860f&#45;349ab306cfe9&#45;&gt;L2021&#45;01&#45;12T14:23:11.646Z|Datatype: dcterms:W3CDTF -->
<g id="edge3" class="edge">
<title>Rhttp://localhost:8080/rdf/nc/annotation/5b3c6798&#45;8d2a&#45;4454&#45;860f&#45;349ab306cfe9&#45;&gt;L2021&#45;01&#45;12T14:23:11.646Z|Datatype: dcterms:W3CDTF</title>
<path fill="none" stroke="#000000" d="M550.7361,-760.6383C613.9021,-762.9018 677.8334,-765.1927 728.1583,-766.9961"/>
<polygon fill="#000000" stroke="#000000" points="728.2421,-770.5013 738.361,-767.3617 728.4928,-763.5058 728.2421,-770.5013"/>
<text text-anchor="middle" x="653.4475" y="-769.3" font-family="Times,serif" font-size="14.00" fill="#000000">dcterms:date</text>
</g>
<!-- B_:node1f0gq2gelx19 -->
<g id="node5" class="node">
<title>B_:node1f0gq2gelx19</title>
<ellipse fill="none" stroke="#00ff00" cx="825.9377" cy="-710.5" rx="18" ry="18"/>
</g>
<!-- Rhttp://localhost:8080/rdf/nc/annotation/5b3c6798&#45;8d2a&#45;4454&#45;860f&#45;349ab306cfe9&#45;&gt;B_:node1f0gq2gelx19 -->
<g id="edge4" class="edge">
<title>Rhttp://localhost:8080/rdf/nc/annotation/5b3c6798&#45;8d2a&#45;4454&#45;860f&#45;349ab306cfe9&#45;&gt;B_:node1f0gq2gelx19</title>
<path fill="none" stroke="#000000" d="M478.9358,-737.3327C596.7238,-728.2245 738.4291,-717.2668 797.7101,-712.6828"/>
<polygon fill="#000000" stroke="#000000" points="798.0953,-716.1635 807.7957,-711.9029 797.5556,-709.1844 798.0953,-716.1635"/>
<text text-anchor="middle" x="653.4475" y="-730.3" font-family="Times,serif" font-size="14.00" fill="#000000">oa:hasBody</text>
</g>
<!-- B_:node1f0gq2gelx18 -->
<g id="node13" class="node">
<title>B_:node1f0gq2gelx18</title>
<ellipse fill="none" stroke="#00ff00" cx="825.9377" cy="-520.5" rx="18" ry="18"/>
</g>
<!-- Rhttp://localhost:8080/rdf/nc/annotation/5b3c6798&#45;8d2a&#45;4454&#45;860f&#45;349ab306cfe9&#45;&gt;B_:node1f0gq2gelx18 -->
<g id="edge12" class="edge">
<title>Rhttp://localhost:8080/rdf/nc/annotation/5b3c6798&#45;8d2a&#45;4454&#45;860f&#45;349ab306cfe9&#45;&gt;B_:node1f0gq2gelx18</title>
<path fill="none" stroke="#000000" d="M336.8876,-733.566C441.272,-688.0885 714.0902,-569.229 799.7861,-531.8936"/>
<polygon fill="#000000" stroke="#000000" points="801.2933,-535.0547 809.0631,-527.8518 798.4974,-528.6373 801.2933,-535.0547"/>
<text text-anchor="middle" x="653.4475" y="-613.3" font-family="Times,serif" font-size="14.00" fill="#000000">oa:hasTarget</text>
</g>
<!-- Roa:describing -->
<g id="node20" class="node">
<title>Roa:describing</title>
<ellipse fill="none" stroke="#0000ff" cx="825.9377" cy="-466.5" rx="57.6901" ry="18"/>
<text text-anchor="middle" x="825.9377" y="-462.8" font-family="Times,serif" font-size="14.00" fill="#000000">oa:describing</text>
</g>
<!-- Rhttp://localhost:8080/rdf/nc/annotation/5b3c6798&#45;8d2a&#45;4454&#45;860f&#45;349ab306cfe9&#45;&gt;Roa:describing -->
<g id="edge20" class="edge">
<title>Rhttp://localhost:8080/rdf/nc/annotation/5b3c6798&#45;8d2a&#45;4454&#45;860f&#45;349ab306cfe9&#45;&gt;Roa:describing</title>
<path fill="none" stroke="#000000" d="M319.3423,-733.2458C380.9878,-686.4626 553.2371,-561.2055 715.4475,-493.5 731.1421,-486.9492 748.7821,-481.7502 765.2822,-477.7348"/>
<polygon fill="#000000" stroke="#000000" points="766.4338,-481.0605 775.381,-475.3862 764.8481,-474.2425 766.4338,-481.0605"/>
<text text-anchor="middle" x="653.4475" y="-544.3" font-family="Times,serif" font-size="14.00" fill="#000000">oa:motivatedBy</text>
</g>
<!-- Rfoaf:Person -->
<g id="node21" class="node">
<title>Rfoaf:Person</title>
<ellipse fill="none" stroke="#0000ff" cx="1252.0617" cy="-1018.5" rx="51.1914" ry="18"/>
<text text-anchor="middle" x="1252.0617" y="-1014.8" font-family="Times,serif" font-size="14.00" fill="#000000">foaf:Person</text>
</g>
<!-- Rorcid:0000&#45;0002&#45;2146&#45;4803&#45;&gt;Rfoaf:Person -->
<g id="edge21" class="edge">
<title>Rorcid:0000&#45;0002&#45;2146&#45;4803&#45;&gt;Rfoaf:Person</title>
<path fill="none" stroke="#000000" d="M914.1572,-841.356C922.5245,-845.3635 930.1938,-850.6245 936.4279,-857.5 974.4255,-899.4069 913.9342,-943.9999 954.4279,-983.5 1018.7248,-1046.2193 1131.6572,-1040.264 1198.3886,-1029.7349"/>
<polygon fill="#000000" stroke="#000000" points="1198.9985,-1033.1816 1208.2874,-1028.0859 1197.8482,-1026.2768 1198.9985,-1033.1816"/>
<text text-anchor="middle" x="1002.9279" y="-1032.3" font-family="Times,serif" font-size="14.00" fill="#000000">rdf:type</text>
</g>
<!-- Rdsw:Token -->
<g id="node6" class="node">
<title>Rdsw:Token</title>
<ellipse fill="none" stroke="#0000ff" cx="1862.6955" cy="-663.5" rx="50.0912" ry="18"/>
<text text-anchor="middle" x="1862.6955" y="-659.8" font-family="Times,serif" font-size="14.00" fill="#000000">dsw:Token</text>
</g>
<!-- B_:node1f0gq2gelx19&#45;&gt;Rdsw:Token -->
<g id="edge5" class="edge">
<title>B_:node1f0gq2gelx19&#45;&gt;Rdsw:Token</title>
<path fill="none" stroke="#000000" d="M843.8538,-706.7992C884.0093,-698.7041 984.3676,-679.5831 1069.4279,-672.5 1342.3772,-649.7711 1669.9545,-656.9235 1802.5795,-661.2483"/>
<polygon fill="#000000" stroke="#000000" points="1802.8095,-664.7578 1812.9205,-661.5928 1803.0427,-657.7617 1802.8095,-664.7578"/>
<text text-anchor="middle" x="1252.0617" y="-676.3" font-family="Times,serif" font-size="14.00" fill="#000000">rdf:type</text>
</g>
<!-- Rdwc:MeasurementOrFact -->
<g id="node7" class="node">
<title>Rdwc:MeasurementOrFact</title>
<ellipse fill="none" stroke="#0000ff" cx="1252.0617" cy="-609.5" rx="100.9827" ry="18"/>
<text text-anchor="middle" x="1252.0617" y="-605.8" font-family="Times,serif" font-size="14.00" fill="#000000">dwc:MeasurementOrFact</text>
</g>
<!-- B_:node1f0gq2gelx19&#45;&gt;Rdwc:MeasurementOrFact -->
<g id="edge6" class="edge">
<title>B_:node1f0gq2gelx19&#45;&gt;Rdwc:MeasurementOrFact</title>
<path fill="none" stroke="#000000" d="M840.3012,-699.003C863.0008,-681.5611 909.245,-648.9219 954.4279,-634.5 1014.6598,-615.2746 1085.0342,-608.6916 1142.2262,-607.0694"/>
<polygon fill="#000000" stroke="#000000" points="1142.4658,-610.5648 1152.3802,-606.8292 1142.3002,-603.5668 1142.4658,-610.5648"/>
<text text-anchor="middle" x="1002.9279" y="-638.3" font-family="Times,serif" font-size="14.00" fill="#000000">rdf:type</text>
</g>
<!-- Roa:TextualBody -->
<g id="node8" class="node">
<title>Roa:TextualBody</title>
<ellipse fill="none" stroke="#0000ff" cx="1252.0617" cy="-964.5" rx="67.6881" ry="18"/>
<text text-anchor="middle" x="1252.0617" y="-960.8" font-family="Times,serif" font-size="14.00" fill="#000000">oa:TextualBody</text>
</g>
<!-- B_:node1f0gq2gelx19&#45;&gt;Roa:TextualBody -->
<g id="edge7" class="edge">
<title>B_:node1f0gq2gelx19&#45;&gt;Roa:TextualBody</title>
<path fill="none" stroke="#000000" d="M843.9875,-709.1474C868.8503,-708.3759 913.1908,-711.1276 936.4279,-737.5 983.152,-790.5285 910.7034,-839.9723 954.4279,-895.5 1006.4262,-961.535 1108.0851,-972.258 1178.0055,-970.8425"/>
<polygon fill="#000000" stroke="#000000" points="1178.1871,-974.3388 1188.0816,-970.5507 1177.9844,-967.3418 1178.1871,-974.3388"/>
<text text-anchor="middle" x="1002.9279" y="-958.3" font-family="Times,serif" font-size="14.00" fill="#000000">rdf:type</text>
</g>
<!-- Ltext/plain -->
<g id="node9" class="node">
<title>Ltext/plain</title>
<polygon fill="none" stroke="#000000" points="1218.0617,-891.5 1218.0617,-927.5 1286.0617,-927.5 1286.0617,-891.5 1218.0617,-891.5"/>
<text text-anchor="middle" x="1252.0617" y="-905.8" font-family="Times,serif" font-size="14.00" fill="#000000">text/plain</text>
</g>
<!-- B_:node1f0gq2gelx19&#45;&gt;Ltext/plain -->
<g id="edge8" class="edge">
<title>B_:node1f0gq2gelx19&#45;&gt;Ltext/plain</title>
<path fill="none" stroke="#000000" d="M844.1759,-709.3461C868.8457,-708.8642 912.5078,-712.0156 936.4279,-737.5 967.6328,-770.7455 925.2402,-803.4701 954.4279,-838.5 989.3582,-880.422 1016.6249,-867.7371 1069.4279,-881.5 1115.9598,-893.6283 1170.6202,-901.1537 1207.934,-905.3081"/>
<polygon fill="#000000" stroke="#000000" points="1207.6595,-908.7987 1217.9772,-906.3915 1208.4103,-901.8391 1207.6595,-908.7987"/>
<text text-anchor="middle" x="1002.9279" y="-880.3" font-family="Times,serif" font-size="14.00" fill="#000000">dcterms:format</text>
</g>
<!-- Riso:lat -->
<g id="node10" class="node">
<title>Riso:lat</title>
<ellipse fill="none" stroke="#0000ff" cx="1252.0617" cy="-854.5" rx="32.4942" ry="18"/>
<text text-anchor="middle" x="1252.0617" y="-850.8" font-family="Times,serif" font-size="14.00" fill="#000000">iso:lat</text>
</g>
<!-- B_:node1f0gq2gelx19&#45;&gt;Riso:lat -->
<g id="edge9" class="edge">
<title>B_:node1f0gq2gelx19&#45;&gt;Riso:lat</title>
<path fill="none" stroke="#000000" d="M844.1044,-712.2166C866.8131,-714.9568 906.3513,-721.721 936.4279,-737.5 945.9063,-742.4727 945.9018,-747.029 954.4279,-753.5 1002.8417,-790.2441 1012.53,-806.1305 1069.4279,-827.5 1115.2307,-844.7024 1171.3467,-850.9898 1209.1914,-853.2626"/>
<polygon fill="#000000" stroke="#000000" points="1209.1856,-856.7671 1219.3573,-853.8029 1209.5572,-849.777 1209.1856,-856.7671"/>
<text text-anchor="middle" x="1002.9279" y="-823.3" font-family="Times,serif" font-size="14.00" fill="#000000">dcterms:language</text>
</g>
<!-- Rimg:MMNAT01_AF_NNM001001033_003.jpg -->
<g id="node11" class="node">
<title>Rimg:MMNAT01_AF_NNM001001033_003.jpg</title>
<ellipse fill="none" stroke="#0000ff" cx="1252.0617" cy="-555.5" rx="182.7677" ry="18"/>
<text text-anchor="middle" x="1252.0617" y="-551.8" font-family="Times,serif" font-size="14.00" fill="#000000">img:MMNAT01_AF_NNM001001033_003.jpg</text>
</g>
<!-- B_:node1f0gq2gelx19&#45;&gt;Rimg:MMNAT01_AF_NNM001001033_003.jpg -->
<g id="edge10" class="edge">
<title>B_:node1f0gq2gelx19&#45;&gt;Rimg:MMNAT01_AF_NNM001001033_003.jpg</title>
<path fill="none" stroke="#000000" d="M837.1748,-695.858C857.4952,-670.5772 903.0407,-619.1807 954.4279,-595.5 989.7859,-579.206 1029.84,-569.0143 1068.8424,-562.7512"/>
<polygon fill="#000000" stroke="#000000" points="1069.3745,-566.2106 1078.7321,-561.2422 1068.3185,-559.2907 1069.3745,-566.2106"/>
<text text-anchor="middle" x="1002.9279" y="-599.3" font-family="Times,serif" font-size="14.00" fill="#000000">dsw:derivedFrom</text>
</g>
<!-- L&#45; Longitud. tota &#45;&#45;&#45; 1,0,3\n&#45; corporis &#45;&#45;&#45; 0,2,9\n&#45; tota &#45;&#45;&#45; 0,2,9\n&#45; capitis &#45;&#45;&#45; 0,1,1\n&#45; caudae &#45;&#45;&#45; 0,0,1\n&#45; digit. medii &#45;&#45;&#45; 0,3,0|Language: lat -->
<g id="node12" class="node">
<title>L&#45; Longitud. tota &#45;&#45;&#45; 1,0,3\n&#45; corporis &#45;&#45;&#45; 0,2,9\n&#45; tota &#45;&#45;&#45; 0,2,9\n&#45; capitis &#45;&#45;&#45; 0,1,1\n&#45; caudae &#45;&#45;&#45; 0,0,1\n&#45; digit. medii &#45;&#45;&#45; 0,3,0|Language: lat</title>
<polygon fill="none" stroke="#000000" points="1176.5617,-697 1176.5617,-818 1327.5617,-818 1327.5617,-697 1176.5617,-697"/>
<text text-anchor="middle" x="1252.0617" y="-802.8" font-family="Times,serif" font-size="14.00" fill="#000000">&#45; Longitud. tota &#45;&#45;&#45; 1,0,3</text>
<text text-anchor="middle" x="1252.0617" y="-787.8" font-family="Times,serif" font-size="14.00" fill="#000000">&#45; corporis &#45;&#45;&#45; 0,2,9</text>
<text text-anchor="middle" x="1252.0617" y="-772.8" font-family="Times,serif" font-size="14.00" fill="#000000">&#45; tota &#45;&#45;&#45; 0,2,9</text>
<text text-anchor="middle" x="1252.0617" y="-757.8" font-family="Times,serif" font-size="14.00" fill="#000000">&#45; capitis &#45;&#45;&#45; 0,1,1</text>
<text text-anchor="middle" x="1252.0617" y="-742.8" font-family="Times,serif" font-size="14.00" fill="#000000">&#45; caudae &#45;&#45;&#45; 0,0,1</text>
<text text-anchor="middle" x="1252.0617" y="-727.8" font-family="Times,serif" font-size="14.00" fill="#000000">&#45; digit. medii &#45;&#45;&#45; 0,3,0</text>
<polyline fill="none" stroke="#000000" points="1176.5617,-720 1327.5617,-720 "/>
<text text-anchor="middle" x="1252.0617" y="-704.8" font-family="Times,serif" font-size="14.00" fill="#000000">Language: lat</text>
</g>
<!-- B_:node1f0gq2gelx19&#45;&gt;L&#45; Longitud. tota &#45;&#45;&#45; 1,0,3\n&#45; corporis &#45;&#45;&#45; 0,2,9\n&#45; tota &#45;&#45;&#45; 0,2,9\n&#45; capitis &#45;&#45;&#45; 0,1,1\n&#45; caudae &#45;&#45;&#45; 0,0,1\n&#45; digit. medii &#45;&#45;&#45; 0,3,0|Language: lat -->
<g id="edge11" class="edge">
<title>B_:node1f0gq2gelx19&#45;&gt;L&#45; Longitud. tota &#45;&#45;&#45; 1,0,3\n&#45; corporis &#45;&#45;&#45; 0,2,9\n&#45; tota &#45;&#45;&#45; 0,2,9\n&#45; capitis &#45;&#45;&#45; 0,1,1\n&#45; caudae &#45;&#45;&#45; 0,0,1\n&#45; digit. medii &#45;&#45;&#45; 0,3,0|Language: lat</title>
<path fill="none" stroke="#000000" d="M843.9756,-712.4895C898.3991,-718.4922 1063.5299,-736.7056 1166.2907,-748.0398"/>
<polygon fill="#000000" stroke="#000000" points="1166.0191,-751.5309 1176.3425,-749.1484 1166.7865,-744.5731 1166.0191,-751.5309"/>
<text text-anchor="middle" x="1002.9279" y="-738.3" font-family="Times,serif" font-size="14.00" fill="#000000">rdf:value</text>
</g>
<!-- Rimg:MMNAT01_AF_NNM001001033_003.jpg&#45;&gt;Rdsw:Token -->
<g id="edge23" class="edge">
<title>Rimg:MMNAT01_AF_NNM001001033_003.jpg&#45;&gt;Rdsw:Token</title>
<path fill="none" stroke="#000000" d="M1395.2708,-566.8021C1409.025,-570.7784 1422.4092,-575.909 1434.6955,-582.5 1445.2337,-588.1532 1442.4638,-596.3093 1452.6955,-602.5 1504.8961,-634.0843 1525.6018,-625.9541 1585.6955,-636.5 1659.9555,-649.532 1746.5998,-656.7084 1802.9424,-660.3258"/>
<polygon fill="#000000" stroke="#000000" points="1802.9015,-663.83 1813.1004,-660.9604 1803.3381,-656.8436 1802.9015,-663.83"/>
<text text-anchor="middle" x="1510.1955" y="-637.3" font-family="Times,serif" font-size="14.00" fill="#000000">rdf:type</text>
</g>
<!-- Rdcmitype:StillImage -->
<g id="node22" class="node">
<title>Rdcmitype:StillImage</title>
<ellipse fill="none" stroke="#0000ff" cx="1862.6955" cy="-609.5" rx="83.3857" ry="18"/>
<text text-anchor="middle" x="1862.6955" y="-605.8" font-family="Times,serif" font-size="14.00" fill="#000000">dcmitype:StillImage</text>
</g>
<!-- Rimg:MMNAT01_AF_NNM001001033_003.jpg&#45;&gt;Rdcmitype:StillImage -->
<g id="edge22" class="edge">
<title>Rimg:MMNAT01_AF_NNM001001033_003.jpg&#45;&gt;Rdcmitype:StillImage</title>
<path fill="none" stroke="#000000" d="M1386.9618,-567.638C1408.9317,-569.6046 1431.446,-571.6139 1452.6955,-573.5 1563.8942,-583.37 1692.0714,-594.6012 1775.0875,-601.856"/>
<polygon fill="#000000" stroke="#000000" points="1774.9682,-605.3588 1785.2349,-602.7426 1775.5776,-598.3854 1774.9682,-605.3588"/>
<text text-anchor="middle" x="1510.1955" y="-587.3" font-family="Times,serif" font-size="14.00" fill="#000000">rdf:type</text>
</g>
<!-- Rdwc:HumanObservation -->
<g id="node23" class="node">
<title>Rdwc:HumanObservation</title>
<ellipse fill="none" stroke="#0000ff" cx="1862.6955" cy="-555.5" rx="96.6831" ry="18"/>
<text text-anchor="middle" x="1862.6955" y="-551.8" font-family="Times,serif" font-size="14.00" fill="#000000">dwc:HumanObservation</text>
</g>
<!-- Rimg:MMNAT01_AF_NNM001001033_003.jpg&#45;&gt;Rdwc:HumanObservation -->
<g id="edge24" class="edge">
<title>Rimg:MMNAT01_AF_NNM001001033_003.jpg&#45;&gt;Rdwc:HumanObservation</title>
<path fill="none" stroke="#000000" d="M1434.8583,-555.5C1539.4016,-555.5 1666.9212,-555.5 1755.4089,-555.5"/>
<polygon fill="#000000" stroke="#000000" points="1755.4622,-559.0001 1765.4622,-555.5 1755.4622,-552.0001 1755.4622,-559.0001"/>
<text text-anchor="middle" x="1510.1955" y="-559.3" font-family="Times,serif" font-size="14.00" fill="#000000">rdf:type</text>
</g>
<!-- Roa:Source -->
<g id="node24" class="node">
<title>Roa:Source</title>
<ellipse fill="none" stroke="#0000ff" cx="1862.6955" cy="-501.5" rx="46.2923" ry="18"/>
<text text-anchor="middle" x="1862.6955" y="-497.8" font-family="Times,serif" font-size="14.00" fill="#000000">oa:Source</text>
</g>
<!-- Rimg:MMNAT01_AF_NNM001001033_003.jpg&#45;&gt;Roa:Source -->
<g id="edge25" class="edge">
<title>Rimg:MMNAT01_AF_NNM001001033_003.jpg&#45;&gt;Roa:Source</title>
<path fill="none" stroke="#000000" d="M1382.9036,-542.9329C1406.1472,-540.7507 1430.132,-538.5314 1452.6955,-536.5 1579.5213,-525.0818 1728.5042,-512.596 1807.3037,-506.0648"/>
<polygon fill="#000000" stroke="#000000" points="1807.8077,-509.5352 1817.4848,-505.2218 1807.23,-502.559 1807.8077,-509.5352"/>
<text text-anchor="middle" x="1510.1955" y="-540.3" font-family="Times,serif" font-size="14.00" fill="#000000">rdf:type</text>
</g>
<!-- Rfoaf:Image -->
<g id="node25" class="node">
<title>Rfoaf:Image</title>
<ellipse fill="none" stroke="#0000ff" cx="1862.6955" cy="-447.5" rx="50.0912" ry="18"/>
<text text-anchor="middle" x="1862.6955" y="-443.8" font-family="Times,serif" font-size="14.00" fill="#000000">foaf:Image</text>
</g>
<!-- Rimg:MMNAT01_AF_NNM001001033_003.jpg&#45;&gt;Rfoaf:Image -->
<g id="edge26" class="edge">
<title>Rimg:MMNAT01_AF_NNM001001033_003.jpg&#45;&gt;Rfoaf:Image</title>
<path fill="none" stroke="#000000" d="M1395.2708,-544.1979C1409.025,-540.2216 1422.4092,-535.091 1434.6955,-528.5 1445.2337,-522.8468 1442.4638,-514.6907 1452.6955,-508.5 1504.8961,-476.9157 1525.6018,-485.0459 1585.6955,-474.5 1659.9555,-461.468 1746.5998,-454.2916 1802.9424,-450.6742"/>
<polygon fill="#000000" stroke="#000000" points="1803.3381,-454.1564 1813.1004,-450.0396 1802.9015,-447.17 1803.3381,-454.1564"/>
<text text-anchor="middle" x="1510.1955" y="-512.3" font-family="Times,serif" font-size="14.00" fill="#000000">rdf:type</text>
</g>
<!-- B_:node1f0gq2gelx18&#45;&gt;Rimg:MMNAT01_AF_NNM001001033_003.jpg -->
<g id="edge19" class="edge">
<title>B_:node1f0gq2gelx18&#45;&gt;Rimg:MMNAT01_AF_NNM001001033_003.jpg</title>
<path fill="none" stroke="#000000" d="M843.9756,-521.9816C887.962,-525.5944 1004.2654,-535.1471 1101.509,-543.1342"/>
<polygon fill="#000000" stroke="#000000" points="1101.5045,-546.6456 1111.7574,-543.976 1102.0775,-539.6691 1101.5045,-546.6456"/>
<text text-anchor="middle" x="1002.9279" y="-542.3" font-family="Times,serif" font-size="14.00" fill="#000000">oa:hasSource</text>
</g>
<!-- Roa:Target -->
<g id="node14" class="node">
<title>Roa:Target</title>
<ellipse fill="none" stroke="#0000ff" cx="1252.0617" cy="-501.5" rx="44.393" ry="18"/>
<text text-anchor="middle" x="1252.0617" y="-497.8" font-family="Times,serif" font-size="14.00" fill="#000000">oa:Target</text>
</g>
<!-- B_:node1f0gq2gelx18&#45;&gt;Roa:Target -->
<g id="edge13" class="edge">
<title>B_:node1f0gq2gelx18&#45;&gt;Roa:Target</title>
<path fill="none" stroke="#000000" d="M843.7327,-517.2266C868.4596,-512.8571 914.6596,-505.3391 954.4279,-502.5 1039.0307,-496.46 1137.5051,-497.7545 1197.2801,-499.461"/>
<polygon fill="#000000" stroke="#000000" points="1197.5166,-502.9696 1207.6172,-499.7713 1197.7267,-495.9727 1197.5166,-502.9696"/>
<text text-anchor="middle" x="1002.9279" y="-506.3" font-family="Times,serif" font-size="14.00" fill="#000000">rdf:type</text>
</g>
<!-- Limage/jpeg -->
<g id="node15" class="node">
<title>Limage/jpeg</title>
<polygon fill="none" stroke="#000000" points="1213.5617,-428.5 1213.5617,-464.5 1290.5617,-464.5 1290.5617,-428.5 1213.5617,-428.5"/>
<text text-anchor="middle" x="1252.0617" y="-442.8" font-family="Times,serif" font-size="14.00" fill="#000000">image/jpeg</text>
</g>
<!-- B_:node1f0gq2gelx18&#45;&gt;Limage/jpeg -->
<g id="edge14" class="edge">
<title>B_:node1f0gq2gelx18&#45;&gt;Limage/jpeg</title>
<path fill="none" stroke="#000000" d="M843.8591,-518.2857C866.3148,-515.0321 905.592,-507.7383 936.4279,-493.5 945.3872,-489.3631 945.2261,-484.065 954.4279,-480.5 1037.6351,-448.264 1143.0017,-443.9657 1203.4494,-444.6366"/>
<polygon fill="#000000" stroke="#000000" points="1203.4211,-448.1365 1213.4763,-444.7984 1203.5342,-441.1374 1203.4211,-448.1365"/>
<text text-anchor="middle" x="1002.9279" y="-484.3" font-family="Times,serif" font-size="14.00" fill="#000000">dcterms:format</text>
</g>
<!-- B_:node1f0gq2gelx21 -->
<g id="node16" class="node">
<title>B_:node1f0gq2gelx21</title>
<ellipse fill="none" stroke="#00ff00" cx="1252.0617" cy="-365.5" rx="18" ry="18"/>
</g>
<!-- B_:node1f0gq2gelx18&#45;&gt;B_:node1f0gq2gelx21 -->
<g id="edge15" class="edge">
<title>B_:node1f0gq2gelx18&#45;&gt;B_:node1f0gq2gelx21</title>
<path fill="none" stroke="#000000" d="M844.1123,-521.1762C868.3068,-521.0636 910.9923,-517.1831 936.4279,-493.5 955.5612,-475.685 935.274,-455.2928 954.4279,-437.5 1030.9054,-366.4574 1165.1536,-362.0366 1223.5672,-363.8339"/>
<polygon fill="#000000" stroke="#000000" points="1223.7497,-367.3438 1233.8805,-364.2427 1224.027,-360.3493 1223.7497,-367.3438"/>
<text text-anchor="middle" x="1002.9279" y="-441.3" font-family="Times,serif" font-size="14.00" fill="#000000">oa:hasSelector</text>
</g>
<!-- Roa:FragmentSelector -->
<g id="node17" class="node">
<title>Roa:FragmentSelector</title>
<ellipse fill="none" stroke="#0000ff" cx="1862.6955" cy="-393.5" rx="84.485" ry="18"/>
<text text-anchor="middle" x="1862.6955" y="-389.8" font-family="Times,serif" font-size="14.00" fill="#000000">oa:FragmentSelector</text>
</g>
<!-- B_:node1f0gq2gelx21&#45;&gt;Roa:FragmentSelector -->
<g id="edge16" class="edge">
<title>B_:node1f0gq2gelx21&#45;&gt;Roa:FragmentSelector</title>
<path fill="none" stroke="#000000" d="M1270.3368,-366.338C1343.9771,-369.7147 1622.0499,-382.4654 1769.5278,-389.2279"/>
<polygon fill="#000000" stroke="#000000" points="1769.7661,-392.7424 1779.9159,-389.7042 1770.0868,-385.7497 1769.7661,-392.7424"/>
<text text-anchor="middle" x="1510.1955" y="-383.3" font-family="Times,serif" font-size="14.00" fill="#000000">rdf:type</text>
</g>
<!-- Rmf: -->
<g id="node18" class="node">
<title>Rmf:</title>
<ellipse fill="none" stroke="#0000ff" cx="1862.6955" cy="-339.5" rx="27" ry="18"/>
<text text-anchor="middle" x="1862.6955" y="-335.8" font-family="Times,serif" font-size="14.00" fill="#000000">mf:</text>
</g>
<!-- B_:node1f0gq2gelx21&#45;&gt;Rmf: -->
<g id="edge17" class="edge">
<title>B_:node1f0gq2gelx21&#45;&gt;Rmf:</title>
<path fill="none" stroke="#000000" d="M1270.0456,-364.6728C1305.1559,-363.0624 1385.2901,-359.4093 1452.6955,-356.5 1589.7882,-350.583 1752.6844,-343.9462 1824.9481,-341.0223"/>
<polygon fill="#000000" stroke="#000000" points="1825.4943,-344.5032 1835.3447,-340.602 1825.2115,-337.5089 1825.4943,-344.5032"/>
<text text-anchor="middle" x="1510.1955" y="-360.3" font-family="Times,serif" font-size="14.00" fill="#000000">dcterms:conformsTo</text>
</g>
<!-- Lxywh=0.5614033197022136,0.11586327570674965,0.14027982326951394,0.0625920471281296 -->
<g id="node19" class="node">
<title>Lxywh=0.5614033197022136,0.11586327570674965,0.14027982326951394,0.0625920471281296</title>
<polygon fill="none" stroke="#000000" points="1585.6955,-266.5 1585.6955,-302.5 2139.6955,-302.5 2139.6955,-266.5 1585.6955,-266.5"/>
<text text-anchor="middle" x="1862.6955" y="-280.8" font-family="Times,serif" font-size="14.00" fill="#000000">xywh=0.5614033197022136,0.11586327570674965,0.14027982326951394,0.0625920471281296</text>
</g>
<!-- B_:node1f0gq2gelx21&#45;&gt;Lxywh=0.5614033197022136,0.11586327570674965,0.14027982326951394,0.0625920471281296 -->
<g id="edge18" class="edge">
<title>B_:node1f0gq2gelx21&#45;&gt;Lxywh=0.5614033197022136,0.11586327570674965,0.14027982326951394,0.0625920471281296</title>
<path fill="none" stroke="#000000" d="M1270.045,-362.6221C1305.1543,-357.0057 1385.2867,-344.1974 1452.6955,-333.5 1511.7993,-324.1205 1526.3468,-320.1789 1585.6955,-312.5 1609.9227,-309.3653 1635.3804,-306.377 1660.6384,-303.5995"/>
<polygon fill="#000000" stroke="#000000" points="1661.1211,-307.0677 1670.683,-302.5047 1660.3626,-300.1089 1661.1211,-307.0677"/>
<text text-anchor="middle" x="1510.1955" y="-337.3" font-family="Times,serif" font-size="14.00" fill="#000000">rdf:value</text>
</g>
</g>
</svg>
