<?xml version="1.0" encoding="UTF-8" standalone="no"?>
<!DOCTYPE svg PUBLIC "-//W3C//DTD SVG 1.1//EN"
 "http://www.w3.org/Graphics/SVG/1.1/DTD/svg11.dtd">
<!-- Generated by graphviz version 2.40.1 (20161225.0304)
 -->
<!-- Title: %3 Pages: 1 -->
<svg width="2168pt" height="1019pt"
 viewBox="0.00 0.00 2167.70 1019.00" xmlns="http://www.w3.org/2000/svg" xmlns:xlink="http://www.w3.org/1999/xlink">
<g id="graph0" class="graph" transform="scale(1 1) rotate(0) translate(4 1015)">
<title>%3</title>
<polygon fill="#ffffff" stroke="transparent" points="-4,4 -4,-1015 2163.6955,-1015 2163.6955,4 -4,4"/>
<text text-anchor="middle" x="1079.8478" y="-218.8" font-family="Times,serif" font-size="14.00" fill="#000000">Model:</text>
<text text-anchor="middle" x="1079.8478" y="-203.8" font-family="Times,serif" font-size="14.00" fill="#000000">(Unknown)</text>
<text text-anchor="middle" x="1079.8478" y="-172.8" font-family="Times,serif" font-size="14.00" fill="#000000">Namespaces:</text>
<text text-anchor="middle" x="1079.8478" y="-157.8" font-family="Times,serif" font-size="14.00" fill="#000000">dcmitype: http://purl.org/dc/dcmitype/</text>
<text text-anchor="middle" x="1079.8478" y="-142.8" font-family="Times,serif" font-size="14.00" fill="#000000">dcterms: http://purl.org/dc/terms/</text>
<text text-anchor="middle" x="1079.8478" y="-127.8" font-family="Times,serif" font-size="14.00" fill="#000000">dsw: http://purl.org/dsw/</text>
<text text-anchor="middle" x="1079.8478" y="-112.8" font-family="Times,serif" font-size="14.00" fill="#000000">dwc: http://rs.tdwg.org/dwc/terms/</text>
<text text-anchor="middle" x="1079.8478" y="-97.8" font-family="Times,serif" font-size="14.00" fill="#000000">foaf: http://xmlns.com/foaf/0.1/</text>
<text text-anchor="middle" x="1079.8478" y="-82.8" font-family="Times,serif" font-size="14.00" fill="#000000">img: http://localhost:8080/semanticAnnotator/files/</text>
<text text-anchor="middle" x="1079.8478" y="-67.8" font-family="Times,serif" font-size="14.00" fill="#000000">iso: http://iso639&#45;3.sil.org/code/</text>
<text text-anchor="middle" x="1079.8478" y="-52.8" font-family="Times,serif" font-size="14.00" fill="#000000">mf: http://www.w3.org/TR/media&#45;frags/</text>
<text text-anchor="middle" x="1079.8478" y="-37.8" font-family="Times,serif" font-size="14.00" fill="#000000">oa: http://www.w3.org/ns/oa#</text>
<text text-anchor="middle" x="1079.8478" y="-22.8" font-family="Times,serif" font-size="14.00" fill="#000000">orcid: http://orcid.org/</text>
<text text-anchor="middle" x="1079.8478" y="-7.8" font-family="Times,serif" font-size="14.00" fill="#000000">rdf: http://www.w3.org/1999/02/22&#45;rdf&#45;syntax&#45;ns#</text>
<!-- Rhttp://localhost:8080/rdf/nc/annotation/db210716&#45;1a05&#45;4bfa&#45;b58f&#45;177a971c1d0e -->
<g id="node1" class="node">
<title>Rhttp://localhost:8080/rdf/nc/annotation/db210716&#45;1a05&#45;4bfa&#45;b58f&#45;177a971c1d0e</title>
<ellipse fill="none" stroke="#0000ff" cx="295.7238" cy="-860" rx="295.9477" ry="18"/>
<text text-anchor="middle" x="295.7238" y="-856.3" font-family="Times,serif" font-size="14.00" fill="#000000">http://localhost:8080/rdf/nc/annotation/db210716&#45;1a05&#45;4bfa&#45;b58f&#45;177a971c1d0e</text>
</g>
<!-- Roa:Annotation -->
<g id="node2" class="node">
<title>Roa:Annotation</title>
<ellipse fill="none" stroke="#0000ff" cx="825.9377" cy="-993" rx="61.1893" ry="18"/>
<text text-anchor="middle" x="825.9377" y="-989.3" font-family="Times,serif" font-size="14.00" fill="#000000">oa:Annotation</text>
</g>
<!-- Rhttp://localhost:8080/rdf/nc/annotation/db210716&#45;1a05&#45;4bfa&#45;b58f&#45;177a971c1d0e&#45;&gt;Roa:Annotation -->
<g id="edge1" class="edge">
<title>Rhttp://localhost:8080/rdf/nc/annotation/db210716&#45;1a05&#45;4bfa&#45;b58f&#45;177a971c1d0e&#45;&gt;Roa:Annotation</title>
<path fill="none" stroke="#000000" d="M364.3875,-877.5135C447.4727,-898.6654 591.6334,-935.2381 715.4475,-966 732.7491,-970.2986 751.5892,-974.9233 768.7308,-979.1095"/>
<polygon fill="#000000" stroke="#000000" points="768.0581,-982.548 778.6028,-981.5178 769.7172,-975.7474 768.0581,-982.548"/>
<text text-anchor="middle" x="653.4475" y="-963.8" font-family="Times,serif" font-size="14.00" fill="#000000">rdf:type</text>
</g>
<!-- Rorcid:0000&#45;0002&#45;2146&#45;4803 -->
<g id="node3" class="node">
<title>Rorcid:0000&#45;0002&#45;2146&#45;4803</title>
<ellipse fill="none" stroke="#0000ff" cx="825.9377" cy="-939" rx="110.4804" ry="18"/>
<text text-anchor="middle" x="825.9377" y="-935.3" font-family="Times,serif" font-size="14.00" fill="#000000">orcid:0000&#45;0002&#45;2146&#45;4803</text>
</g>
<!-- Rhttp://localhost:8080/rdf/nc/annotation/db210716&#45;1a05&#45;4bfa&#45;b58f&#45;177a971c1d0e&#45;&gt;Rorcid:0000&#45;0002&#45;2146&#45;4803 -->
<g id="edge2" class="edge">
<title>Rhttp://localhost:8080/rdf/nc/annotation/db210716&#45;1a05&#45;4bfa&#45;b58f&#45;177a971c1d0e&#45;&gt;Rorcid:0000&#45;0002&#45;2146&#45;4803</title>
<path fill="none" stroke="#000000" d="M407.8444,-876.7056C504.9488,-891.1738 643.6841,-911.8449 734.2713,-925.342"/>
<polygon fill="#000000" stroke="#000000" points="733.8446,-928.817 744.2512,-926.829 734.8762,-921.8934 733.8446,-928.817"/>
<text text-anchor="middle" x="653.4475" y="-920.8" font-family="Times,serif" font-size="14.00" fill="#000000">dcterms:creator</text>
</g>
<!-- L2021&#45;01&#45;12T14:23:11.646Z|Datatype: dcterms:W3CDTF -->
<g id="node4" class="node">
<title>L2021&#45;01&#45;12T14:23:11.646Z|Datatype: dcterms:W3CDTF</title>
<polygon fill="none" stroke="#000000" points="738.4377,-856 738.4377,-902 913.4377,-902 913.4377,-856 738.4377,-856"/>
<text text-anchor="middle" x="825.9377" y="-886.8" font-family="Times,serif" font-size="14.00" fill="#000000">2021&#45;01&#45;12T14:23:11.646Z</text>
<polyline fill="none" stroke="#000000" points="738.4377,-879 913.4377,-879 "/>
<text text-anchor="middle" x="825.9377" y="-863.8" font-family="Times,serif" font-size="14.00" fill="#000000">Datatype: dcterms:W3CDTF</text>
</g>
<!-- Rhttp://localhost:8080/rdf/nc/annotation/db210716&#45;1a05&#45;4bfa&#45;b58f&#45;177a971c1d0e&#45;&gt;L2021&#45;01&#45;12T14:23:11.646Z|Datatype: dcterms:W3CDTF -->
<g id="edge3" class="edge">
<title>Rhttp://localhost:8080/rdf/nc/annotation/db210716&#45;1a05&#45;4bfa&#45;b58f&#45;177a971c1d0e&#45;&gt;L2021&#45;01&#45;12T14:23:11.646Z|Datatype: dcterms:W3CDTF</title>
<path fill="none" stroke="#000000" d="M550.7361,-869.1383C613.9021,-871.4018 677.8334,-873.6927 728.1583,-875.4961"/>
<polygon fill="#000000" stroke="#000000" points="728.2421,-879.0013 738.361,-875.8617 728.4928,-872.0058 728.2421,-879.0013"/>
<text text-anchor="middle" x="653.4475" y="-876.8" font-family="Times,serif" font-size="14.00" fill="#000000">dcterms:date</text>
</g>
<!-- B_:node1euqlam8lx226 -->
<g id="node5" class="node">
<title>B_:node1euqlam8lx226</title>
<ellipse fill="none" stroke="#00ff00" cx="825.9377" cy="-819" rx="18" ry="18"/>
</g>
<!-- Rhttp://localhost:8080/rdf/nc/annotation/db210716&#45;1a05&#45;4bfa&#45;b58f&#45;177a971c1d0e&#45;&gt;B_:node1euqlam8lx226 -->
<g id="edge4" class="edge">
<title>Rhttp://localhost:8080/rdf/nc/annotation/db210716&#45;1a05&#45;4bfa&#45;b58f&#45;177a971c1d0e&#45;&gt;B_:node1euqlam8lx226</title>
<path fill="none" stroke="#000000" d="M478.9358,-845.8327C596.7238,-836.7245 738.4291,-825.7668 797.7101,-821.1828"/>
<polygon fill="#000000" stroke="#000000" points="798.0953,-824.6635 807.7957,-820.4029 797.5556,-817.6844 798.0953,-824.6635"/>
<text text-anchor="middle" x="653.4475" y="-837.8" font-family="Times,serif" font-size="14.00" fill="#000000">oa:hasBody</text>
</g>
<!-- B_:node1euqlam8lx225 -->
<g id="node11" class="node">
<title>B_:node1euqlam8lx225</title>
<ellipse fill="none" stroke="#00ff00" cx="825.9377" cy="-665" rx="18" ry="18"/>
</g>
<!-- Rhttp://localhost:8080/rdf/nc/annotation/db210716&#45;1a05&#45;4bfa&#45;b58f&#45;177a971c1d0e&#45;&gt;B_:node1euqlam8lx225 -->
<g id="edge11" class="edge">
<title>Rhttp://localhost:8080/rdf/nc/annotation/db210716&#45;1a05&#45;4bfa&#45;b58f&#45;177a971c1d0e&#45;&gt;B_:node1euqlam8lx225</title>
<path fill="none" stroke="#000000" d="M344.1823,-842.1781C453.1433,-802.1048 714.5481,-705.9664 799.0781,-674.8783"/>
<polygon fill="#000000" stroke="#000000" points="800.5308,-678.0733 808.7081,-671.3366 798.1146,-671.5035 800.5308,-678.0733"/>
<text text-anchor="middle" x="653.4475" y="-742.8" font-family="Times,serif" font-size="14.00" fill="#000000">oa:hasTarget</text>
</g>
<!-- Roa:describing -->
<g id="node19" class="node">
<title>Roa:describing</title>
<ellipse fill="none" stroke="#0000ff" cx="825.9377" cy="-611" rx="57.6901" ry="18"/>
<text text-anchor="middle" x="825.9377" y="-607.3" font-family="Times,serif" font-size="14.00" fill="#000000">oa:describing</text>
</g>
<!-- Rhttp://localhost:8080/rdf/nc/annotation/db210716&#45;1a05&#45;4bfa&#45;b58f&#45;177a971c1d0e&#45;&gt;Roa:describing -->
<g id="edge19" class="edge">
<title>Rhttp://localhost:8080/rdf/nc/annotation/db210716&#45;1a05&#45;4bfa&#45;b58f&#45;177a971c1d0e&#45;&gt;Roa:describing</title>
<path fill="none" stroke="#000000" d="M324.0718,-841.8108C390.1464,-800.1427 560.5584,-696.848 715.4475,-638 731.5749,-631.8726 749.5633,-626.7828 766.2641,-622.736"/>
<polygon fill="#000000" stroke="#000000" points="767.5272,-626.0352 776.4682,-620.3512 765.9341,-619.2189 767.5272,-626.0352"/>
<text text-anchor="middle" x="653.4475" y="-681.8" font-family="Times,serif" font-size="14.00" fill="#000000">oa:motivatedBy</text>
</g>
<!-- Rfoaf:Person -->
<g id="node7" class="node">
<title>Rfoaf:Person</title>
<ellipse fill="none" stroke="#0000ff" cx="1252.0617" cy="-978" rx="51.1914" ry="18"/>
<text text-anchor="middle" x="1252.0617" y="-974.3" font-family="Times,serif" font-size="14.00" fill="#000000">foaf:Person</text>
</g>
<!-- Rorcid:0000&#45;0002&#45;2146&#45;4803&#45;&gt;Rfoaf:Person -->
<g id="edge20" class="edge">
<title>Rorcid:0000&#45;0002&#45;2146&#45;4803&#45;&gt;Rfoaf:Person</title>
<path fill="none" stroke="#000000" d="M907.057,-951.2255C922.7502,-953.3466 939.0829,-955.3858 954.4279,-957 1036.1212,-965.5939 1130.8098,-971.5988 1191.0481,-974.9246"/>
<polygon fill="#000000" stroke="#000000" points="1190.9719,-978.4256 1201.1476,-975.4749 1191.3528,-971.4359 1190.9719,-978.4256"/>
<text text-anchor="middle" x="1002.9279" y="-968.8" font-family="Times,serif" font-size="14.00" fill="#000000">rdf:type</text>
</g>
<!-- Roa:TextualBody -->
<g id="node6" class="node">
<title>Roa:TextualBody</title>
<ellipse fill="none" stroke="#0000ff" cx="1252.0617" cy="-922" rx="67.6881" ry="18"/>
<text text-anchor="middle" x="1252.0617" y="-918.3" font-family="Times,serif" font-size="14.00" fill="#000000">oa:TextualBody</text>
</g>
<!-- B_:node1euqlam8lx226&#45;&gt;Roa:TextualBody -->
<g id="edge5" class="edge">
<title>B_:node1euqlam8lx226&#45;&gt;Roa:TextualBody</title>
<path fill="none" stroke="#000000" d="M844.1844,-820.7707C866.9757,-823.6024 906.5991,-830.607 936.4279,-847 946.0715,-852.2998 944.8247,-858.6275 954.4279,-864 1022.4288,-902.0432 1111.2897,-915.4839 1174.1586,-920.0537"/>
<polygon fill="#000000" stroke="#000000" points="1174.1979,-923.564 1184.4086,-920.7372 1174.6636,-916.5795 1174.1979,-923.564"/>
<text text-anchor="middle" x="1002.9279" y="-902.8" font-family="Times,serif" font-size="14.00" fill="#000000">rdf:type</text>
</g>
<!-- B_:node1euqlam8lx226&#45;&gt;Rfoaf:Person -->
<g id="edge6" class="edge">
<title>B_:node1euqlam8lx226&#45;&gt;Rfoaf:Person</title>
<path fill="none" stroke="#000000" d="M843.9336,-818.2783C868.3222,-818.3296 911.6596,-822.2341 936.4279,-847 959.4481,-870.0179 930.8973,-895.5041 954.4279,-918 986.245,-948.418 1010.4841,-921.8388 1051.4279,-938 1060.1487,-941.4422 1060.6305,-945.7586 1069.4279,-949 1108.3619,-963.345 1154.533,-970.5972 1190.7105,-974.262"/>
<polygon fill="#000000" stroke="#000000" points="1190.8302,-977.7889 1201.1153,-975.2458 1191.4892,-970.8199 1190.8302,-977.7889"/>
<text text-anchor="middle" x="1002.9279" y="-941.8" font-family="Times,serif" font-size="14.00" fill="#000000">rdf:type</text>
</g>
<!-- Ltext/plain -->
<g id="node8" class="node">
<title>Ltext/plain</title>
<polygon fill="none" stroke="#000000" points="1218.0617,-849 1218.0617,-885 1286.0617,-885 1286.0617,-849 1218.0617,-849"/>
<text text-anchor="middle" x="1252.0617" y="-863.3" font-family="Times,serif" font-size="14.00" fill="#000000">text/plain</text>
</g>
<!-- B_:node1euqlam8lx226&#45;&gt;Ltext/plain -->
<g id="edge7" class="edge">
<title>B_:node1euqlam8lx226&#45;&gt;Ltext/plain</title>
<path fill="none" stroke="#000000" d="M843.8026,-821.3207C868.6105,-824.5214 914.9041,-830.4148 954.4279,-835 1044.2796,-845.4237 1149.5323,-856.4653 1207.7113,-862.4664"/>
<polygon fill="#000000" stroke="#000000" points="1207.3622,-865.9488 1217.6681,-863.4916 1208.0792,-858.9856 1207.3622,-865.9488"/>
<text text-anchor="middle" x="1002.9279" y="-848.8" font-family="Times,serif" font-size="14.00" fill="#000000">dcterms:format</text>
</g>
<!-- Riso:und -->
<g id="node9" class="node">
<title>Riso:und</title>
<ellipse fill="none" stroke="#0000ff" cx="1252.0617" cy="-812" rx="36.2938" ry="18"/>
<text text-anchor="middle" x="1252.0617" y="-808.3" font-family="Times,serif" font-size="14.00" fill="#000000">iso:und</text>
</g>
<!-- B_:node1euqlam8lx226&#45;&gt;Riso:und -->
<g id="edge8" class="edge">
<title>B_:node1euqlam8lx226&#45;&gt;Riso:und</title>
<path fill="none" stroke="#000000" d="M843.9756,-818.7037C906.0428,-817.6841 1112.0984,-814.2992 1205.4181,-812.7662"/>
<polygon fill="#000000" stroke="#000000" points="1205.4831,-816.2657 1215.4242,-812.6018 1205.3681,-809.2667 1205.4831,-816.2657"/>
<text text-anchor="middle" x="1002.9279" y="-819.8" font-family="Times,serif" font-size="14.00" fill="#000000">dcterms:language</text>
</g>
<!-- LGeoff|Language: und -->
<g id="node10" class="node">
<title>LGeoff|Language: und</title>
<polygon fill="none" stroke="#000000" points="1203.0617,-729 1203.0617,-775 1301.0617,-775 1301.0617,-729 1203.0617,-729"/>
<text text-anchor="middle" x="1252.0617" y="-759.8" font-family="Times,serif" font-size="14.00" fill="#000000">Geoff</text>
<polyline fill="none" stroke="#000000" points="1203.0617,-752 1301.0617,-752 "/>
<text text-anchor="middle" x="1252.0617" y="-736.8" font-family="Times,serif" font-size="14.00" fill="#000000">Language: und</text>
</g>
<!-- B_:node1euqlam8lx226&#45;&gt;LGeoff|Language: und -->
<g id="edge9" class="edge">
<title>B_:node1euqlam8lx226&#45;&gt;LGeoff|Language: und</title>
<path fill="none" stroke="#000000" d="M843.7846,-815.6287C868.5717,-810.9867 914.8412,-802.4676 954.4279,-796 1037.0277,-782.5049 1132.8274,-768.666 1192.9448,-760.2003"/>
<polygon fill="#000000" stroke="#000000" points="1193.5949,-763.6434 1203.0107,-758.7861 1192.621,-756.7115 1193.5949,-763.6434"/>
<text text-anchor="middle" x="1002.9279" y="-799.8" font-family="Times,serif" font-size="14.00" fill="#000000">rdf:value</text>
</g>
<!-- B_:node1euqlam8lx226&#45;&gt;LGeoff|Language: und -->
<g id="edge10" class="edge">
<title>B_:node1euqlam8lx226&#45;&gt;LGeoff|Language: und</title>
<path fill="none" stroke="#000000" d="M841.4754,-809.7333C864.9708,-796.2823 911.3759,-771.8788 954.4279,-762 1035.4095,-743.4177 1132.0066,-744.2247 1192.7019,-747.4005"/>
<polygon fill="#000000" stroke="#000000" points="1192.6846,-750.905 1202.8654,-747.9722 1193.0777,-743.916 1192.6846,-750.905"/>
<text text-anchor="middle" x="1002.9279" y="-765.8" font-family="Times,serif" font-size="14.00" fill="#000000">foaf:name</text>
</g>
<!-- Roa:Target -->
<g id="node12" class="node">
<title>Roa:Target</title>
<ellipse fill="none" stroke="#0000ff" cx="1252.0617" cy="-692" rx="44.393" ry="18"/>
<text text-anchor="middle" x="1252.0617" y="-688.3" font-family="Times,serif" font-size="14.00" fill="#000000">oa:Target</text>
</g>
<!-- B_:node1euqlam8lx225&#45;&gt;Roa:Target -->
<g id="edge12" class="edge">
<title>B_:node1euqlam8lx225&#45;&gt;Roa:Target</title>
<path fill="none" stroke="#000000" d="M843.9756,-666.1429C904.5009,-669.9779 1101.9491,-682.4886 1198.2582,-688.5909"/>
<polygon fill="#000000" stroke="#000000" points="1198.1702,-692.0923 1208.3716,-689.2317 1198.6129,-685.1063 1198.1702,-692.0923"/>
<text text-anchor="middle" x="1002.9279" y="-681.8" font-family="Times,serif" font-size="14.00" fill="#000000">rdf:type</text>
</g>
<!-- Limage/jpeg -->
<g id="node13" class="node">
<title>Limage/jpeg</title>
<polygon fill="none" stroke="#000000" points="1213.5617,-619 1213.5617,-655 1290.5617,-655 1290.5617,-619 1213.5617,-619"/>
<text text-anchor="middle" x="1252.0617" y="-633.3" font-family="Times,serif" font-size="14.00" fill="#000000">image/jpeg</text>
</g>
<!-- B_:node1euqlam8lx225&#45;&gt;Limage/jpeg -->
<g id="edge13" class="edge">
<title>B_:node1euqlam8lx225&#45;&gt;Limage/jpeg</title>
<path fill="none" stroke="#000000" d="M844.2239,-663.2703C869.1309,-660.9519 915.1233,-656.8043 954.4279,-654 1042.0905,-647.7454 1144.4088,-642.3087 1203.372,-639.3567"/>
<polygon fill="#000000" stroke="#000000" points="1203.6976,-642.8449 1213.5112,-638.8522 1203.3496,-635.8536 1203.6976,-642.8449"/>
<text text-anchor="middle" x="1002.9279" y="-657.8" font-family="Times,serif" font-size="14.00" fill="#000000">dcterms:format</text>
</g>
<!-- B_:node1euqlam8lx228 -->
<g id="node14" class="node">
<title>B_:node1euqlam8lx228</title>
<ellipse fill="none" stroke="#00ff00" cx="1252.0617" cy="-582" rx="18" ry="18"/>
</g>
<!-- B_:node1euqlam8lx225&#45;&gt;B_:node1euqlam8lx228 -->
<g id="edge14" class="edge">
<title>B_:node1euqlam8lx225&#45;&gt;B_:node1euqlam8lx228</title>
<path fill="none" stroke="#000000" d="M843.9072,-661.8937C866.078,-657.7708 904.7274,-649.6312 936.4279,-638 944.8248,-634.9191 945.9319,-631.7959 954.4279,-629 1049.9619,-597.5615 1169.8685,-586.8356 1223.6596,-583.4433"/>
<polygon fill="#000000" stroke="#000000" points="1224.0307,-586.9276 1233.8062,-582.8422 1223.6167,-579.9398 1224.0307,-586.9276"/>
<text text-anchor="middle" x="1002.9279" y="-632.8" font-family="Times,serif" font-size="14.00" fill="#000000">oa:hasSelector</text>
</g>
<!-- Rimg:MMNAT01_AF_NNM001001033_003.jpg -->
<g id="node18" class="node">
<title>Rimg:MMNAT01_AF_NNM001001033_003.jpg</title>
<ellipse fill="none" stroke="#0000ff" cx="1252.0617" cy="-419" rx="182.7677" ry="18"/>
<text text-anchor="middle" x="1252.0617" y="-415.3" font-family="Times,serif" font-size="14.00" fill="#000000">img:MMNAT01_AF_NNM001001033_003.jpg</text>
</g>
<!-- B_:node1euqlam8lx225&#45;&gt;Rimg:MMNAT01_AF_NNM001001033_003.jpg -->
<g id="edge18" class="edge">
<title>B_:node1euqlam8lx225&#45;&gt;Rimg:MMNAT01_AF_NNM001001033_003.jpg</title>
<path fill="none" stroke="#000000" d="M844.0355,-665.5929C868.1431,-665.3859 910.7304,-661.3987 936.4279,-638 954.5112,-621.5343 938.7407,-604.7626 954.4279,-586 1016.461,-511.8054 1120.3847,-464.3334 1187.5635,-439.6694"/>
<polygon fill="#000000" stroke="#000000" points="1188.9789,-442.8797 1197.1991,-436.1955 1186.6048,-436.2946 1188.9789,-442.8797"/>
<text text-anchor="middle" x="1002.9279" y="-589.8" font-family="Times,serif" font-size="14.00" fill="#000000">oa:hasSource</text>
</g>
<!-- Roa:FragmentSelector -->
<g id="node15" class="node">
<title>Roa:FragmentSelector</title>
<ellipse fill="none" stroke="#0000ff" cx="1872.6955" cy="-664" rx="84.485" ry="18"/>
<text text-anchor="middle" x="1872.6955" y="-660.3" font-family="Times,serif" font-size="14.00" fill="#000000">oa:FragmentSelector</text>
</g>
<!-- B_:node1euqlam8lx228&#45;&gt;Roa:FragmentSelector -->
<g id="edge15" class="edge">
<title>B_:node1euqlam8lx228&#45;&gt;Roa:FragmentSelector</title>
<path fill="none" stroke="#000000" d="M1270.1475,-583.6146C1303.1714,-586.7961 1375.3044,-594.8267 1434.6955,-609 1442.8979,-610.9575 1444.5102,-612.9723 1452.6955,-615 1563.0503,-642.3381 1693.593,-654.5321 1779.5117,-659.9001"/>
<polygon fill="#000000" stroke="#000000" points="1779.3098,-663.3942 1789.5034,-660.5061 1779.7336,-656.407 1779.3098,-663.3942"/>
<text text-anchor="middle" x="1510.1955" y="-640.8" font-family="Times,serif" font-size="14.00" fill="#000000">rdf:type</text>
</g>
<!-- Rmf: -->
<g id="node16" class="node">
<title>Rmf:</title>
<ellipse fill="none" stroke="#0000ff" cx="1872.6955" cy="-610" rx="27" ry="18"/>
<text text-anchor="middle" x="1872.6955" y="-606.3" font-family="Times,serif" font-size="14.00" fill="#000000">mf:</text>
</g>
<!-- B_:node1euqlam8lx228&#45;&gt;Rmf: -->
<g id="edge16" class="edge">
<title>B_:node1euqlam8lx228&#45;&gt;Rmf:</title>
<path fill="none" stroke="#000000" d="M1270.3,-582.8228C1355.7315,-586.6771 1717.1285,-602.9816 1835.2035,-608.3085"/>
<polygon fill="#000000" stroke="#000000" points="1835.387,-611.8203 1845.5347,-608.7746 1835.7026,-604.8274 1835.387,-611.8203"/>
<text text-anchor="middle" x="1510.1955" y="-599.8" font-family="Times,serif" font-size="14.00" fill="#000000">dcterms:conformsTo</text>
</g>
<!-- Lxywh=0.6285924932975873,0.31825775988026184,0.025649176560704756,0.017330524703178862 -->
<g id="node17" class="node">
<title>Lxywh=0.6285924932975873,0.31825775988026184,0.025649176560704756,0.017330524703178862</title>
<polygon fill="none" stroke="#000000" points="1585.6955,-537 1585.6955,-573 2159.6955,-573 2159.6955,-537 1585.6955,-537"/>
<text text-anchor="middle" x="1872.6955" y="-551.3" font-family="Times,serif" font-size="14.00" fill="#000000">xywh=0.6285924932975873,0.31825775988026184,0.025649176560704756,0.017330524703178862</text>
</g>
<!-- B_:node1euqlam8lx228&#45;&gt;Lxywh=0.6285924932975873,0.31825775988026184,0.025649176560704756,0.017330524703178862 -->
<g id="edge17" class="edge">
<title>B_:node1euqlam8lx228&#45;&gt;Lxywh=0.6285924932975873,0.31825775988026184,0.025649176560704756,0.017330524703178862</title>
<path fill="none" stroke="#000000" d="M1270.0459,-581.1812C1305.1569,-579.5853 1385.2921,-575.9561 1452.6955,-573 1492.3534,-571.2607 1534.1187,-569.448 1575.3055,-567.6715"/>
<polygon fill="#000000" stroke="#000000" points="1575.6402,-571.1604 1585.4801,-567.2328 1575.3386,-564.1669 1575.6402,-571.1604"/>
<text text-anchor="middle" x="1510.1955" y="-576.8" font-family="Times,serif" font-size="14.00" fill="#000000">rdf:value</text>
</g>
<!-- Rdcmitype:StillImage -->
<g id="node20" class="node">
<title>Rdcmitype:StillImage</title>
<ellipse fill="none" stroke="#0000ff" cx="1872.6955" cy="-500" rx="83.3857" ry="18"/>
<text text-anchor="middle" x="1872.6955" y="-496.3" font-family="Times,serif" font-size="14.00" fill="#000000">dcmitype:StillImage</text>
</g>
<!-- Rimg:MMNAT01_AF_NNM001001033_003.jpg&#45;&gt;Rdcmitype:StillImage -->
<g id="edge21" class="edge">
<title>Rimg:MMNAT01_AF_NNM001001033_003.jpg&#45;&gt;Rdcmitype:StillImage</title>
<path fill="none" stroke="#000000" d="M1345.4416,-434.4867C1379.2248,-440.0558 1417.6708,-446.3545 1452.6955,-452 1511.7764,-461.523 1526.3205,-465.5271 1585.6955,-473 1652.0943,-481.3569 1727.4338,-488.3503 1784.257,-493.1244"/>
<polygon fill="#000000" stroke="#000000" points="1784.0298,-496.6175 1794.286,-493.9602 1784.6112,-489.6417 1784.0298,-496.6175"/>
<text text-anchor="middle" x="1510.1955" y="-474.8" font-family="Times,serif" font-size="14.00" fill="#000000">rdf:type</text>
</g>
<!-- Rdsw:Token -->
<g id="node21" class="node">
<title>Rdsw:Token</title>
<ellipse fill="none" stroke="#0000ff" cx="1872.6955" cy="-446" rx="50.0912" ry="18"/>
<text text-anchor="middle" x="1872.6955" y="-442.3" font-family="Times,serif" font-size="14.00" fill="#000000">dsw:Token</text>
</g>
<!-- Rimg:MMNAT01_AF_NNM001001033_003.jpg&#45;&gt;Rdsw:Token -->
<g id="edge22" class="edge">
<title>Rimg:MMNAT01_AF_NNM001001033_003.jpg&#45;&gt;Rdsw:Token</title>
<path fill="none" stroke="#000000" d="M1419.1966,-426.271C1549.5273,-431.9409 1723.0157,-439.4883 1812.9484,-443.4008"/>
<polygon fill="#000000" stroke="#000000" points="1812.8241,-446.8986 1822.9668,-443.8366 1813.1284,-439.9052 1812.8241,-446.8986"/>
<text text-anchor="middle" x="1510.1955" y="-436.8" font-family="Times,serif" font-size="14.00" fill="#000000">rdf:type</text>
</g>
<!-- Rdwc:HumanObservation -->
<g id="node22" class="node">
<title>Rdwc:HumanObservation</title>
<ellipse fill="none" stroke="#0000ff" cx="1872.6955" cy="-392" rx="96.6831" ry="18"/>
<text text-anchor="middle" x="1872.6955" y="-388.3" font-family="Times,serif" font-size="14.00" fill="#000000">dwc:HumanObservation</text>
</g>
<!-- Rimg:MMNAT01_AF_NNM001001033_003.jpg&#45;&gt;Rdwc:HumanObservation -->
<g id="edge23" class="edge">
<title>Rimg:MMNAT01_AF_NNM001001033_003.jpg&#45;&gt;Rdwc:HumanObservation</title>
<path fill="none" stroke="#000000" d="M1414.6637,-410.7666C1427.5312,-410.1544 1440.3273,-409.5585 1452.6955,-409 1559.8786,-404.1598 1682.4786,-399.272 1767.4348,-395.9877"/>
<polygon fill="#000000" stroke="#000000" points="1767.7476,-399.4784 1777.6052,-395.5953 1767.4776,-392.4836 1767.7476,-399.4784"/>
<text text-anchor="middle" x="1510.1955" y="-412.8" font-family="Times,serif" font-size="14.00" fill="#000000">rdf:type</text>
</g>
<!-- Roa:Source -->
<g id="node23" class="node">
<title>Roa:Source</title>
<ellipse fill="none" stroke="#0000ff" cx="1872.6955" cy="-338" rx="46.2923" ry="18"/>
<text text-anchor="middle" x="1872.6955" y="-334.3" font-family="Times,serif" font-size="14.00" fill="#000000">oa:Source</text>
</g>
<!-- Rimg:MMNAT01_AF_NNM001001033_003.jpg&#45;&gt;Roa:Source -->
<g id="edge24" class="edge">
<title>Rimg:MMNAT01_AF_NNM001001033_003.jpg&#45;&gt;Roa:Source</title>
<path fill="none" stroke="#000000" d="M1345.4416,-403.5133C1379.2248,-397.9442 1417.6708,-391.6455 1452.6955,-386 1511.7764,-376.477 1526.3205,-372.4729 1585.6955,-365 1666.0299,-354.8892 1759.4516,-346.7743 1817.3338,-342.1708"/>
<polygon fill="#000000" stroke="#000000" points="1817.671,-345.6552 1827.3649,-341.3799 1817.1207,-338.6768 1817.671,-345.6552"/>
<text text-anchor="middle" x="1510.1955" y="-389.8" font-family="Times,serif" font-size="14.00" fill="#000000">rdf:type</text>
</g>
<!-- Rfoaf:Image -->
<g id="node24" class="node">
<title>Rfoaf:Image</title>
<ellipse fill="none" stroke="#0000ff" cx="1872.6955" cy="-284" rx="50.0912" ry="18"/>
<text text-anchor="middle" x="1872.6955" y="-280.3" font-family="Times,serif" font-size="14.00" fill="#000000">foaf:Image</text>
</g>
<!-- Rimg:MMNAT01_AF_NNM001001033_003.jpg&#45;&gt;Rfoaf:Image -->
<g id="edge25" class="edge">
<title>Rimg:MMNAT01_AF_NNM001001033_003.jpg&#45;&gt;Rfoaf:Image</title>
<path fill="none" stroke="#000000" d="M1299.6388,-401.5357C1340.1299,-386.881 1399.9456,-365.7226 1452.6955,-349 1511.2977,-330.4221 1525.2799,-322.3718 1585.6955,-311 1663.2945,-296.3938 1754.2581,-289.5358 1812.637,-286.4235"/>
<polygon fill="#000000" stroke="#000000" points="1812.9827,-289.9105 1822.7901,-285.9025 1812.6239,-282.9197 1812.9827,-289.9105"/>
<text text-anchor="middle" x="1510.1955" y="-352.8" font-family="Times,serif" font-size="14.00" fill="#000000">rdf:type</text>
</g>
</g>
</svg>
