<?xml version="1.0" encoding="UTF-8" standalone="no"?>
<!DOCTYPE svg PUBLIC "-//W3C//DTD SVG 1.1//EN"
 "http://www.w3.org/Graphics/SVG/1.1/DTD/svg11.dtd">
<!-- Generated by graphviz version 2.40.1 (20161225.0304)
 -->
<!-- Title: %3 Pages: 1 -->
<svg width="2193pt" height="1016pt"
 viewBox="0.00 0.00 2192.80 1015.50" xmlns="http://www.w3.org/2000/svg" xmlns:xlink="http://www.w3.org/1999/xlink">
<g id="graph0" class="graph" transform="scale(1 1) rotate(0) translate(4 1011.5)">
<title>%3</title>
<polygon fill="#ffffff" stroke="transparent" points="-4,4 -4,-1011.5 2188.7958,-1011.5 2188.7958,4 -4,4"/>
<text text-anchor="middle" x="1092.3979" y="-248.8" font-family="Times,serif" font-size="14.00" fill="#000000">Model:</text>
<text text-anchor="middle" x="1092.3979" y="-233.8" font-family="Times,serif" font-size="14.00" fill="#000000">(Unknown)</text>
<text text-anchor="middle" x="1092.3979" y="-202.8" font-family="Times,serif" font-size="14.00" fill="#000000">Namespaces:</text>
<text text-anchor="middle" x="1092.3979" y="-187.8" font-family="Times,serif" font-size="14.00" fill="#000000">dcmitype: http://purl.org/dc/dcmitype/</text>
<text text-anchor="middle" x="1092.3979" y="-172.8" font-family="Times,serif" font-size="14.00" fill="#000000">dcterms: http://purl.org/dc/terms/</text>
<text text-anchor="middle" x="1092.3979" y="-157.8" font-family="Times,serif" font-size="14.00" fill="#000000">dsw: http://purl.org/dsw/</text>
<text text-anchor="middle" x="1092.3979" y="-142.8" font-family="Times,serif" font-size="14.00" fill="#000000">dwc: http://rs.tdwg.org/dwc/terms/</text>
<text text-anchor="middle" x="1092.3979" y="-127.8" font-family="Times,serif" font-size="14.00" fill="#000000">dwciri: http://rs.tdwg.org/dwc/iri/</text>
<text text-anchor="middle" x="1092.3979" y="-112.8" font-family="Times,serif" font-size="14.00" fill="#000000">foaf: http://xmlns.com/foaf/0.1/</text>
<text text-anchor="middle" x="1092.3979" y="-97.8" font-family="Times,serif" font-size="14.00" fill="#000000">img: http://localhost:8080/semanticAnnotator/files/</text>
<text text-anchor="middle" x="1092.3979" y="-82.8" font-family="Times,serif" font-size="14.00" fill="#000000">iso: http://iso639&#45;3.sil.org/code/</text>
<text text-anchor="middle" x="1092.3979" y="-67.8" font-family="Times,serif" font-size="14.00" fill="#000000">mf: http://www.w3.org/TR/media&#45;frags/</text>
<text text-anchor="middle" x="1092.3979" y="-52.8" font-family="Times,serif" font-size="14.00" fill="#000000">oa: http://www.w3.org/ns/oa#</text>
<text text-anchor="middle" x="1092.3979" y="-37.8" font-family="Times,serif" font-size="14.00" fill="#000000">obo: http://purl.obolibrary.org/obo/</text>
<text text-anchor="middle" x="1092.3979" y="-22.8" font-family="Times,serif" font-size="14.00" fill="#000000">orcid: http://orcid.org/</text>
<text text-anchor="middle" x="1092.3979" y="-7.8" font-family="Times,serif" font-size="14.00" fill="#000000">rdf: http://www.w3.org/1999/02/22&#45;rdf&#45;syntax&#45;ns#</text>
<!-- Rhttp://localhost:8080/rdf/nc/annotation/f9ca3e65&#45;3983&#45;43b0&#45;a671&#45;2566f9e88fcd -->
<g id="node1" class="node">
<title>Rhttp://localhost:8080/rdf/nc/annotation/f9ca3e65&#45;3983&#45;43b0&#45;a671&#45;2566f9e88fcd</title>
<ellipse fill="none" stroke="#0000ff" cx="293.7739" cy="-762.5" rx="293.548" ry="18"/>
<text text-anchor="middle" x="293.7739" y="-758.8" font-family="Times,serif" font-size="14.00" fill="#000000">http://localhost:8080/rdf/nc/annotation/f9ca3e65&#45;3983&#45;43b0&#45;a671&#45;2566f9e88fcd</text>
</g>
<!-- Roa:Annotation -->
<g id="node2" class="node">
<title>Roa:Annotation</title>
<ellipse fill="none" stroke="#0000ff" cx="822.0381" cy="-895.5" rx="61.1893" ry="18"/>
<text text-anchor="middle" x="822.0381" y="-891.8" font-family="Times,serif" font-size="14.00" fill="#000000">oa:Annotation</text>
</g>
<!-- Rhttp://localhost:8080/rdf/nc/annotation/f9ca3e65&#45;3983&#45;43b0&#45;a671&#45;2566f9e88fcd&#45;&gt;Roa:Annotation -->
<g id="edge1" class="edge">
<title>Rhttp://localhost:8080/rdf/nc/annotation/f9ca3e65&#45;3983&#45;43b0&#45;a671&#45;2566f9e88fcd&#45;&gt;Roa:Annotation</title>
<path fill="none" stroke="#000000" d="M362.1127,-780.0359C444.8061,-801.2099 588.2914,-837.8041 711.5479,-868.5 728.8471,-872.8082 747.6864,-877.4357 764.8281,-881.6215"/>
<polygon fill="#000000" stroke="#000000" points="764.1557,-885.06 774.7002,-884.0293 765.8144,-878.2594 764.1557,-885.06"/>
<text text-anchor="middle" x="649.5479" y="-866.3" font-family="Times,serif" font-size="14.00" fill="#000000">rdf:type</text>
</g>
<!-- Rorcid:0000&#45;0002&#45;2146&#45;4803 -->
<g id="node3" class="node">
<title>Rorcid:0000&#45;0002&#45;2146&#45;4803</title>
<ellipse fill="none" stroke="#0000ff" cx="822.0381" cy="-841.5" rx="110.4804" ry="18"/>
<text text-anchor="middle" x="822.0381" y="-837.8" font-family="Times,serif" font-size="14.00" fill="#000000">orcid:0000&#45;0002&#45;2146&#45;4803</text>
</g>
<!-- Rhttp://localhost:8080/rdf/nc/annotation/f9ca3e65&#45;3983&#45;43b0&#45;a671&#45;2566f9e88fcd&#45;&gt;Rorcid:0000&#45;0002&#45;2146&#45;4803 -->
<g id="edge2" class="edge">
<title>Rhttp://localhost:8080/rdf/nc/annotation/f9ca3e65&#45;3983&#45;43b0&#45;a671&#45;2566f9e88fcd&#45;&gt;Rorcid:0000&#45;0002&#45;2146&#45;4803</title>
<path fill="none" stroke="#000000" d="M405.1597,-779.1573C501.8816,-793.6218 640.2387,-814.3126 730.5955,-827.8251"/>
<polygon fill="#000000" stroke="#000000" points="730.1425,-831.2962 740.5502,-829.3138 731.1778,-824.3732 730.1425,-831.2962"/>
<text text-anchor="middle" x="649.5479" y="-823.3" font-family="Times,serif" font-size="14.00" fill="#000000">dcterms:creator</text>
</g>
<!-- L2021&#45;01&#45;12T14:23:11.646Z|Datatype: dcterms:W3CDTF -->
<g id="node4" class="node">
<title>L2021&#45;01&#45;12T14:23:11.646Z|Datatype: dcterms:W3CDTF</title>
<polygon fill="none" stroke="#000000" points="734.5381,-758.5 734.5381,-804.5 909.5381,-804.5 909.5381,-758.5 734.5381,-758.5"/>
<text text-anchor="middle" x="822.0381" y="-789.3" font-family="Times,serif" font-size="14.00" fill="#000000">2021&#45;01&#45;12T14:23:11.646Z</text>
<polyline fill="none" stroke="#000000" points="734.5381,-781.5 909.5381,-781.5 "/>
<text text-anchor="middle" x="822.0381" y="-766.3" font-family="Times,serif" font-size="14.00" fill="#000000">Datatype: dcterms:W3CDTF</text>
</g>
<!-- Rhttp://localhost:8080/rdf/nc/annotation/f9ca3e65&#45;3983&#45;43b0&#45;a671&#45;2566f9e88fcd&#45;&gt;L2021&#45;01&#45;12T14:23:11.646Z|Datatype: dcterms:W3CDTF -->
<g id="edge3" class="edge">
<title>Rhttp://localhost:8080/rdf/nc/annotation/f9ca3e65&#45;3983&#45;43b0&#45;a671&#45;2566f9e88fcd&#45;&gt;L2021&#45;01&#45;12T14:23:11.646Z|Datatype: dcterms:W3CDTF</title>
<path fill="none" stroke="#000000" d="M547.4618,-771.6244C610.3286,-773.8855 673.9855,-776.175 724.1572,-777.9795"/>
<polygon fill="#000000" stroke="#000000" points="724.2107,-781.4836 734.3301,-778.3454 724.4624,-774.4882 724.2107,-781.4836"/>
<text text-anchor="middle" x="649.5479" y="-780.3" font-family="Times,serif" font-size="14.00" fill="#000000">dcterms:date</text>
</g>
<!-- B_:node1f0gq2gelx32 -->
<g id="node5" class="node">
<title>B_:node1f0gq2gelx32</title>
<ellipse fill="none" stroke="#00ff00" cx="822.0381" cy="-721.5" rx="18" ry="18"/>
</g>
<!-- Rhttp://localhost:8080/rdf/nc/annotation/f9ca3e65&#45;3983&#45;43b0&#45;a671&#45;2566f9e88fcd&#45;&gt;B_:node1f0gq2gelx32 -->
<g id="edge4" class="edge">
<title>Rhttp://localhost:8080/rdf/nc/annotation/f9ca3e65&#45;3983&#45;43b0&#45;a671&#45;2566f9e88fcd&#45;&gt;B_:node1f0gq2gelx32</title>
<path fill="none" stroke="#000000" d="M475.9423,-748.3614C593.3416,-739.2497 734.7205,-728.277 793.8712,-723.6861"/>
<polygon fill="#000000" stroke="#000000" points="794.2355,-727.1684 803.9347,-722.9051 793.6938,-720.1894 794.2355,-727.1684"/>
<text text-anchor="middle" x="649.5479" y="-741.3" font-family="Times,serif" font-size="14.00" fill="#000000">oa:hasBody</text>
</g>
<!-- B_:node1f0gq2gelx31 -->
<g id="node14" class="node">
<title>B_:node1f0gq2gelx31</title>
<ellipse fill="none" stroke="#00ff00" cx="822.0381" cy="-496.5" rx="18" ry="18"/>
</g>
<!-- Rhttp://localhost:8080/rdf/nc/annotation/f9ca3e65&#45;3983&#45;43b0&#45;a671&#45;2566f9e88fcd&#45;&gt;B_:node1f0gq2gelx31 -->
<g id="edge14" class="edge">
<title>Rhttp://localhost:8080/rdf/nc/annotation/f9ca3e65&#45;3983&#45;43b0&#45;a671&#45;2566f9e88fcd&#45;&gt;B_:node1f0gq2gelx31</title>
<path fill="none" stroke="#000000" d="M329.6684,-744.4259C429.8435,-693.9841 710.7291,-552.5481 796.7075,-509.2548"/>
<polygon fill="#000000" stroke="#000000" points="798.4007,-512.321 805.7582,-504.6975 795.2525,-506.0689 798.4007,-512.321"/>
<text text-anchor="middle" x="649.5479" y="-602.3" font-family="Times,serif" font-size="14.00" fill="#000000">oa:hasTarget</text>
</g>
<!-- Roa:describing -->
<g id="node21" class="node">
<title>Roa:describing</title>
<ellipse fill="none" stroke="#0000ff" cx="822.0381" cy="-442.5" rx="57.6901" ry="18"/>
<text text-anchor="middle" x="822.0381" y="-438.8" font-family="Times,serif" font-size="14.00" fill="#000000">oa:describing</text>
</g>
<!-- Rhttp://localhost:8080/rdf/nc/annotation/f9ca3e65&#45;3983&#45;43b0&#45;a671&#45;2566f9e88fcd&#45;&gt;Roa:describing -->
<g id="edge22" class="edge">
<title>Rhttp://localhost:8080/rdf/nc/annotation/f9ca3e65&#45;3983&#45;43b0&#45;a671&#45;2566f9e88fcd&#45;&gt;Roa:describing</title>
<path fill="none" stroke="#000000" d="M313.7965,-744.229C371.1738,-692.8621 542.9155,-545.9513 711.5479,-469.5 726.8883,-462.5452 744.2724,-457.2276 760.6352,-453.2281"/>
<polygon fill="#000000" stroke="#000000" points="761.7116,-456.5716 770.664,-450.9054 760.1321,-449.7521 761.7116,-456.5716"/>
<text text-anchor="middle" x="649.5479" y="-525.3" font-family="Times,serif" font-size="14.00" fill="#000000">oa:motivatedBy</text>
</g>
<!-- Rfoaf:Person -->
<g id="node22" class="node">
<title>Rfoaf:Person</title>
<ellipse fill="none" stroke="#0000ff" cx="1291.1621" cy="-975.5" rx="51.1914" ry="18"/>
<text text-anchor="middle" x="1291.1621" y="-971.8" font-family="Times,serif" font-size="14.00" fill="#000000">foaf:Person</text>
</g>
<!-- Rorcid:0000&#45;0002&#45;2146&#45;4803&#45;&gt;Rfoaf:Person -->
<g id="edge23" class="edge">
<title>Rorcid:0000&#45;0002&#45;2146&#45;4803&#45;&gt;Rfoaf:Person</title>
<path fill="none" stroke="#000000" d="M909.0228,-852.77C917.7238,-856.6885 925.8082,-861.8155 932.5283,-868.5 955.9139,-891.7618 925.6023,-918.8969 950.5283,-940.5 1030.4416,-1009.7601 1163.7651,-999.6674 1237.6897,-987.059"/>
<polygon fill="#000000" stroke="#000000" points="1238.4846,-990.4725 1247.7148,-985.2712 1237.2556,-983.5813 1238.4846,-990.4725"/>
<text text-anchor="middle" x="1020.5283" y="-996.3" font-family="Times,serif" font-size="14.00" fill="#000000">rdf:type</text>
</g>
<!-- Rdsw:Token -->
<g id="node6" class="node">
<title>Rdsw:Token</title>
<ellipse fill="none" stroke="#0000ff" cx="1904.7958" cy="-694.5" rx="50.0912" ry="18"/>
<text text-anchor="middle" x="1904.7958" y="-690.8" font-family="Times,serif" font-size="14.00" fill="#000000">dsw:Token</text>
</g>
<!-- B_:node1f0gq2gelx32&#45;&gt;Rdsw:Token -->
<g id="edge5" class="edge">
<title>B_:node1f0gq2gelx32&#45;&gt;Rdsw:Token</title>
<path fill="none" stroke="#000000" d="M840.1263,-720.2254C885.3447,-717.0966 1006.9664,-709.036 1108.5283,-705.5 1382.9638,-695.9452 1710.8749,-694.5953 1844.0817,-694.4701"/>
<polygon fill="#000000" stroke="#000000" points="1844.4732,-697.9699 1854.4706,-694.4625 1844.468,-690.9699 1844.4732,-697.9699"/>
<text text-anchor="middle" x="1291.1621" y="-709.3" font-family="Times,serif" font-size="14.00" fill="#000000">rdf:type</text>
</g>
<!-- Rdwc:MeasurementOrFact -->
<g id="node7" class="node">
<title>Rdwc:MeasurementOrFact</title>
<ellipse fill="none" stroke="#0000ff" cx="1291.1621" cy="-747.5" rx="100.9827" ry="18"/>
<text text-anchor="middle" x="1291.1621" y="-743.8" font-family="Times,serif" font-size="14.00" fill="#000000">dwc:MeasurementOrFact</text>
</g>
<!-- B_:node1f0gq2gelx32&#45;&gt;Rdwc:MeasurementOrFact -->
<g id="edge6" class="edge">
<title>B_:node1f0gq2gelx32&#45;&gt;Rdwc:MeasurementOrFact</title>
<path fill="none" stroke="#000000" d="M840.1408,-722.5033C896.1646,-725.6083 1069.8292,-735.2332 1184.5866,-741.5933"/>
<polygon fill="#000000" stroke="#000000" points="1184.6328,-745.1012 1194.8112,-742.16 1185.0203,-738.1119 1184.6328,-745.1012"/>
<text text-anchor="middle" x="1020.5283" y="-740.3" font-family="Times,serif" font-size="14.00" fill="#000000">rdf:type</text>
</g>
<!-- Roa:TextualBody -->
<g id="node8" class="node">
<title>Roa:TextualBody</title>
<ellipse fill="none" stroke="#0000ff" cx="1291.1621" cy="-642.5" rx="67.6881" ry="18"/>
<text text-anchor="middle" x="1291.1621" y="-638.8" font-family="Times,serif" font-size="14.00" fill="#000000">oa:TextualBody</text>
</g>
<!-- B_:node1f0gq2gelx32&#45;&gt;Roa:TextualBody -->
<g id="edge7" class="edge">
<title>B_:node1f0gq2gelx32&#45;&gt;Roa:TextualBody</title>
<path fill="none" stroke="#000000" d="M838.0894,-712.7357C861.858,-700.2323 908.176,-677.6651 950.5283,-667.5 1039.0083,-646.2636 1143.8076,-641.5037 1213.5698,-641.0979"/>
<polygon fill="#000000" stroke="#000000" points="1213.6127,-644.5979 1223.6023,-641.0682 1213.5919,-637.5979 1213.6127,-644.5979"/>
<text text-anchor="middle" x="1020.5283" y="-671.3" font-family="Times,serif" font-size="14.00" fill="#000000">rdf:type</text>
</g>
<!-- Ltext/plain -->
<g id="node9" class="node">
<title>Ltext/plain</title>
<polygon fill="none" stroke="#000000" points="1257.1621,-569.5 1257.1621,-605.5 1325.1621,-605.5 1325.1621,-569.5 1257.1621,-569.5"/>
<text text-anchor="middle" x="1291.1621" y="-583.8" font-family="Times,serif" font-size="14.00" fill="#000000">text/plain</text>
</g>
<!-- B_:node1f0gq2gelx32&#45;&gt;Ltext/plain -->
<g id="edge8" class="edge">
<title>B_:node1f0gq2gelx32&#45;&gt;Ltext/plain</title>
<path fill="none" stroke="#000000" d="M834.872,-708.4745C856.5306,-687.3999 902.6772,-646.2939 950.5283,-627.5 1051.01,-588.035 1180.0151,-584.4064 1246.7455,-585.6491"/>
<polygon fill="#000000" stroke="#000000" points="1246.8279,-589.1519 1256.9067,-585.8856 1246.9909,-582.1538 1246.8279,-589.1519"/>
<text text-anchor="middle" x="1020.5283" y="-631.3" font-family="Times,serif" font-size="14.00" fill="#000000">dcterms:format</text>
</g>
<!-- Robo:UBERON_0001062 -->
<g id="node10" class="node">
<title>Robo:UBERON_0001062</title>
<ellipse fill="none" stroke="#0000ff" cx="1291.1621" cy="-921.5" rx="97.4827" ry="18"/>
<text text-anchor="middle" x="1291.1621" y="-917.8" font-family="Times,serif" font-size="14.00" fill="#000000">obo:UBERON_0001062</text>
</g>
<!-- B_:node1f0gq2gelx32&#45;&gt;Robo:UBERON_0001062 -->
<g id="edge9" class="edge">
<title>B_:node1f0gq2gelx32&#45;&gt;Robo:UBERON_0001062</title>
<path fill="none" stroke="#000000" d="M840.0687,-720.1642C864.9088,-719.4128 909.2225,-722.1882 932.5283,-748.5 977.3414,-799.0934 901.4613,-853.0206 950.5283,-899.5 967.2881,-915.376 1089.8473,-920.076 1183.2004,-921.3233"/>
<polygon fill="#000000" stroke="#000000" points="1183.2402,-924.8239 1193.2822,-921.4463 1183.3256,-917.8245 1183.2402,-924.8239"/>
<text text-anchor="middle" x="1020.5283" y="-922.3" font-family="Times,serif" font-size="14.00" fill="#000000">dcterms:identifier</text>
</g>
<!-- B_:node1f0gq2gelx32&#45;&gt;Robo:UBERON_0001062 -->
<g id="edge12" class="edge">
<title>B_:node1f0gq2gelx32&#45;&gt;Robo:UBERON_0001062</title>
<path fill="none" stroke="#000000" d="M840.3117,-720.313C865.0225,-719.7928 908.732,-722.8999 932.5283,-748.5 965.3605,-783.8211 916.6006,-821.2298 950.5283,-855.5 994.997,-900.4177 1032.7862,-854.7918 1090.5283,-880.5 1099.787,-884.6222 1099.2089,-890.5168 1108.5283,-894.5 1132.8329,-904.888 1160.4304,-911.3852 1186.6773,-915.4202"/>
<polygon fill="#000000" stroke="#000000" points="1186.2659,-918.8969 1196.6609,-916.8492 1187.2577,-911.9676 1186.2659,-918.8969"/>
<text text-anchor="middle" x="1020.5283" y="-884.3" font-family="Times,serif" font-size="14.00" fill="#000000">dwciri:measurementType</text>
</g>
<!-- Riso:lat -->
<g id="node11" class="node">
<title>Riso:lat</title>
<ellipse fill="none" stroke="#0000ff" cx="1291.1621" cy="-867.5" rx="32.4942" ry="18"/>
<text text-anchor="middle" x="1291.1621" y="-863.8" font-family="Times,serif" font-size="14.00" fill="#000000">iso:lat</text>
</g>
<!-- B_:node1f0gq2gelx32&#45;&gt;Riso:lat -->
<g id="edge10" class="edge">
<title>B_:node1f0gq2gelx32&#45;&gt;Riso:lat</title>
<path fill="none" stroke="#000000" d="M840.1943,-720.8435C864.368,-720.9784 907.0301,-724.8842 932.5283,-748.5 951.3984,-765.9771 931.5741,-786.1141 950.5283,-803.5 972.4197,-823.5802 1163.2231,-850.7631 1249.3227,-862.1427"/>
<polygon fill="#000000" stroke="#000000" points="1248.9147,-865.6191 1259.2852,-863.4506 1249.8259,-858.6787 1248.9147,-865.6191"/>
<text text-anchor="middle" x="1020.5283" y="-840.3" font-family="Times,serif" font-size="14.00" fill="#000000">dcterms:language</text>
</g>
<!-- Rimg:MMNAT01_AF_NNM001001033_003.jpg -->
<g id="node12" class="node">
<title>Rimg:MMNAT01_AF_NNM001001033_003.jpg</title>
<ellipse fill="none" stroke="#0000ff" cx="1291.1621" cy="-532.5" rx="182.7677" ry="18"/>
<text text-anchor="middle" x="1291.1621" y="-528.8" font-family="Times,serif" font-size="14.00" fill="#000000">img:MMNAT01_AF_NNM001001033_003.jpg</text>
</g>
<!-- B_:node1f0gq2gelx32&#45;&gt;Rimg:MMNAT01_AF_NNM001001033_003.jpg -->
<g id="edge11" class="edge">
<title>B_:node1f0gq2gelx32&#45;&gt;Rimg:MMNAT01_AF_NNM001001033_003.jpg</title>
<path fill="none" stroke="#000000" d="M830.8126,-705.3548C848.7038,-674.2027 892.6493,-606.1742 950.5283,-575.5 995.4605,-551.6872 1048.275,-538.9702 1098.7281,-532.5983"/>
<polygon fill="#000000" stroke="#000000" points="1099.2654,-536.0592 1108.7842,-531.4071 1098.4419,-529.1078 1099.2654,-536.0592"/>
<text text-anchor="middle" x="1020.5283" y="-579.3" font-family="Times,serif" font-size="14.00" fill="#000000">dsw:derivedFrom</text>
</g>
<!-- LDentibus|Language: lat -->
<g id="node13" class="node">
<title>LDentibus|Language: lat</title>
<polygon fill="none" stroke="#000000" points="1245.6621,-784.5 1245.6621,-830.5 1336.6621,-830.5 1336.6621,-784.5 1245.6621,-784.5"/>
<text text-anchor="middle" x="1291.1621" y="-815.3" font-family="Times,serif" font-size="14.00" fill="#000000">Dentibus</text>
<polyline fill="none" stroke="#000000" points="1245.6621,-807.5 1336.6621,-807.5 "/>
<text text-anchor="middle" x="1291.1621" y="-792.3" font-family="Times,serif" font-size="14.00" fill="#000000">Language: lat</text>
</g>
<!-- B_:node1f0gq2gelx32&#45;&gt;LDentibus|Language: lat -->
<g id="edge13" class="edge">
<title>B_:node1f0gq2gelx32&#45;&gt;LDentibus|Language: lat</title>
<path fill="none" stroke="#000000" d="M839.8405,-725.0965C861.8429,-729.7135 900.3226,-738.351 932.5283,-748.5 940.715,-751.0799 942.2357,-753.2834 950.5283,-755.5 1049.0655,-781.8385 1167.4429,-796.1592 1235.5255,-802.787"/>
<polygon fill="#000000" stroke="#000000" points="1235.3164,-806.2829 1245.6034,-803.7475 1235.9806,-799.3145 1235.3164,-806.2829"/>
<text text-anchor="middle" x="1020.5283" y="-788.3" font-family="Times,serif" font-size="14.00" fill="#000000">rdf:value</text>
</g>
<!-- Rimg:MMNAT01_AF_NNM001001033_003.jpg&#45;&gt;Rdsw:Token -->
<g id="edge25" class="edge">
<title>Rimg:MMNAT01_AF_NNM001001033_003.jpg&#45;&gt;Rdsw:Token</title>
<path fill="none" stroke="#000000" d="M1447.1473,-541.9536C1456.7967,-546.55 1465.8157,-552.3161 1473.7958,-559.5 1497.6702,-580.9923 1469.3055,-606.5634 1491.7958,-629.5 1534.7528,-673.3092 1564.4926,-655.1835 1624.7958,-666.5 1699.9442,-680.6023 1787.8607,-687.9267 1844.8457,-691.4899"/>
<polygon fill="#000000" stroke="#000000" points="1844.9226,-695.0009 1855.116,-692.1122 1845.3461,-688.0137 1844.9226,-695.0009"/>
<text text-anchor="middle" x="1549.2958" y="-668.3" font-family="Times,serif" font-size="14.00" fill="#000000">rdf:type</text>
</g>
<!-- Rdcmitype:StillImage -->
<g id="node23" class="node">
<title>Rdcmitype:StillImage</title>
<ellipse fill="none" stroke="#0000ff" cx="1904.7958" cy="-639.5" rx="83.3857" ry="18"/>
<text text-anchor="middle" x="1904.7958" y="-635.8" font-family="Times,serif" font-size="14.00" fill="#000000">dcmitype:StillImage</text>
</g>
<!-- Rimg:MMNAT01_AF_NNM001001033_003.jpg&#45;&gt;Rdcmitype:StillImage -->
<g id="edge24" class="edge">
<title>Rimg:MMNAT01_AF_NNM001001033_003.jpg&#45;&gt;Rdcmitype:StillImage</title>
<path fill="none" stroke="#000000" d="M1435.0108,-543.6356C1448.5655,-547.6529 1461.7304,-552.8384 1473.7958,-559.5 1484.5573,-565.4416 1481.3105,-574.0837 1491.7958,-580.5 1543.6549,-612.2338 1564.8348,-602.4465 1624.7958,-612.5 1687.7081,-623.0483 1759.3154,-629.8616 1814.3661,-634.0051"/>
<polygon fill="#000000" stroke="#000000" points="1814.2166,-637.5035 1824.4468,-634.7481 1814.7311,-630.5225 1814.2166,-637.5035"/>
<text text-anchor="middle" x="1549.2958" y="-614.3" font-family="Times,serif" font-size="14.00" fill="#000000">rdf:type</text>
</g>
<!-- Rdwc:HumanObservation -->
<g id="node24" class="node">
<title>Rdwc:HumanObservation</title>
<ellipse fill="none" stroke="#0000ff" cx="1904.7958" cy="-585.5" rx="96.6831" ry="18"/>
<text text-anchor="middle" x="1904.7958" y="-581.8" font-family="Times,serif" font-size="14.00" fill="#000000">dwc:HumanObservation</text>
</g>
<!-- Rimg:MMNAT01_AF_NNM001001033_003.jpg&#45;&gt;Rdwc:HumanObservation -->
<g id="edge26" class="edge">
<title>Rimg:MMNAT01_AF_NNM001001033_003.jpg&#45;&gt;Rdwc:HumanObservation</title>
<path fill="none" stroke="#000000" d="M1421.7296,-545.0989C1445.0577,-547.2832 1469.1421,-549.4949 1491.7958,-551.5 1598.88,-560.9779 1721.6641,-570.9752 1805.3367,-577.6564"/>
<polygon fill="#000000" stroke="#000000" points="1805.0965,-581.1483 1815.3431,-578.4545 1805.6531,-574.1704 1805.0965,-581.1483"/>
<text text-anchor="middle" x="1549.2958" y="-565.3" font-family="Times,serif" font-size="14.00" fill="#000000">rdf:type</text>
</g>
<!-- Roa:Source -->
<g id="node25" class="node">
<title>Roa:Source</title>
<ellipse fill="none" stroke="#0000ff" cx="1904.7958" cy="-531.5" rx="46.2923" ry="18"/>
<text text-anchor="middle" x="1904.7958" y="-527.8" font-family="Times,serif" font-size="14.00" fill="#000000">oa:Source</text>
</g>
<!-- Rimg:MMNAT01_AF_NNM001001033_003.jpg&#45;&gt;Roa:Source -->
<g id="edge27" class="edge">
<title>Rimg:MMNAT01_AF_NNM001001033_003.jpg&#45;&gt;Roa:Source</title>
<path fill="none" stroke="#000000" d="M1474.026,-532.202C1601.8592,-531.9937 1764.2018,-531.7291 1848.3986,-531.5919"/>
<polygon fill="#000000" stroke="#000000" points="1848.5237,-535.0918 1858.5179,-531.5754 1848.5122,-528.0918 1848.5237,-535.0918"/>
<text text-anchor="middle" x="1549.2958" y="-536.3" font-family="Times,serif" font-size="14.00" fill="#000000">rdf:type</text>
</g>
<!-- Rfoaf:Image -->
<g id="node26" class="node">
<title>Rfoaf:Image</title>
<ellipse fill="none" stroke="#0000ff" cx="1904.7958" cy="-477.5" rx="50.0912" ry="18"/>
<text text-anchor="middle" x="1904.7958" y="-473.8" font-family="Times,serif" font-size="14.00" fill="#000000">foaf:Image</text>
</g>
<!-- Rimg:MMNAT01_AF_NNM001001033_003.jpg&#45;&gt;Rfoaf:Image -->
<g id="edge28" class="edge">
<title>Rimg:MMNAT01_AF_NNM001001033_003.jpg&#45;&gt;Rfoaf:Image</title>
<path fill="none" stroke="#000000" d="M1422.2762,-519.9414C1445.4354,-517.7636 1469.3213,-515.5437 1491.7958,-513.5 1617.6725,-502.0538 1765.2016,-489.3704 1845.4396,-482.5337"/>
<polygon fill="#000000" stroke="#000000" points="1846.1652,-485.9847 1855.8322,-481.6489 1845.5712,-479.0099 1846.1652,-485.9847"/>
<text text-anchor="middle" x="1549.2958" y="-517.3" font-family="Times,serif" font-size="14.00" fill="#000000">rdf:type</text>
</g>
<!-- B_:node1f0gq2gelx31&#45;&gt;Rimg:MMNAT01_AF_NNM001001033_003.jpg -->
<g id="edge21" class="edge">
<title>B_:node1f0gq2gelx31&#45;&gt;Rimg:MMNAT01_AF_NNM001001033_003.jpg</title>
<path fill="none" stroke="#000000" d="M840.2712,-497.8252C883.6459,-500.9848 996.3889,-509.2401 1090.5283,-516.5 1106.3244,-517.7182 1122.8186,-519.0067 1139.2682,-520.3025"/>
<polygon fill="#000000" stroke="#000000" points="1139.2537,-523.8122 1149.498,-521.1097 1139.8043,-516.8339 1139.2537,-523.8122"/>
<text text-anchor="middle" x="1020.5283" y="-520.3" font-family="Times,serif" font-size="14.00" fill="#000000">oa:hasSource</text>
</g>
<!-- Roa:Target -->
<g id="node15" class="node">
<title>Roa:Target</title>
<ellipse fill="none" stroke="#0000ff" cx="1291.1621" cy="-368.5" rx="44.393" ry="18"/>
<text text-anchor="middle" x="1291.1621" y="-364.8" font-family="Times,serif" font-size="14.00" fill="#000000">oa:Target</text>
</g>
<!-- B_:node1f0gq2gelx31&#45;&gt;Roa:Target -->
<g id="edge15" class="edge">
<title>B_:node1f0gq2gelx31&#45;&gt;Roa:Target</title>
<path fill="none" stroke="#000000" d="M840.3416,-497.3122C864.6824,-497.3539 907.533,-493.6475 932.5283,-469.5 953.7792,-448.9699 927.9747,-424.5898 950.5283,-405.5 1032.753,-335.9032 1169.1036,-346.2564 1241.8568,-358.2737"/>
<polygon fill="#000000" stroke="#000000" points="1241.665,-361.7925 1252.1154,-360.0495 1242.859,-354.8951 1241.665,-361.7925"/>
<text text-anchor="middle" x="1020.5283" y="-409.3" font-family="Times,serif" font-size="14.00" fill="#000000">rdf:type</text>
</g>
<!-- Limage/jpeg -->
<g id="node16" class="node">
<title>Limage/jpeg</title>
<polygon fill="none" stroke="#000000" points="1252.6621,-459.5 1252.6621,-495.5 1329.6621,-495.5 1329.6621,-459.5 1252.6621,-459.5"/>
<text text-anchor="middle" x="1291.1621" y="-473.8" font-family="Times,serif" font-size="14.00" fill="#000000">image/jpeg</text>
</g>
<!-- B_:node1f0gq2gelx31&#45;&gt;Limage/jpeg -->
<g id="edge16" class="edge">
<title>B_:node1f0gq2gelx31&#45;&gt;Limage/jpeg</title>
<path fill="none" stroke="#000000" d="M839.8329,-493.2242C864.5596,-488.8518 910.7594,-481.3307 950.5283,-478.5 1054.2558,-471.1168 1176.2006,-473.4046 1242.3963,-475.5612"/>
<polygon fill="#000000" stroke="#000000" points="1242.4175,-479.0638 1252.5303,-475.9046 1242.6547,-472.0678 1242.4175,-479.0638"/>
<text text-anchor="middle" x="1020.5283" y="-482.3" font-family="Times,serif" font-size="14.00" fill="#000000">dcterms:format</text>
</g>
<!-- B_:node1f0gq2gelx34 -->
<g id="node17" class="node">
<title>B_:node1f0gq2gelx34</title>
<ellipse fill="none" stroke="#00ff00" cx="1291.1621" cy="-422.5" rx="18" ry="18"/>
</g>
<!-- B_:node1f0gq2gelx31&#45;&gt;B_:node1f0gq2gelx34 -->
<g id="edge17" class="edge">
<title>B_:node1f0gq2gelx31&#45;&gt;B_:node1f0gq2gelx34</title>
<path fill="none" stroke="#000000" d="M840.0428,-494.462C862.5845,-491.3904 901.9504,-484.2842 932.5283,-469.5 941.6526,-465.0884 941.1119,-459.248 950.5283,-455.5 1059.4012,-412.1649 1202.697,-416.0148 1262.7571,-420.0669"/>
<polygon fill="#000000" stroke="#000000" points="1262.7471,-423.5754 1272.9759,-420.8145 1263.258,-416.5941 1262.7471,-423.5754"/>
<text text-anchor="middle" x="1020.5283" y="-459.3" font-family="Times,serif" font-size="14.00" fill="#000000">oa:hasSelector</text>
</g>
<!-- Roa:FragmentSelector -->
<g id="node18" class="node">
<title>Roa:FragmentSelector</title>
<ellipse fill="none" stroke="#0000ff" cx="1904.7958" cy="-423.5" rx="84.485" ry="18"/>
<text text-anchor="middle" x="1904.7958" y="-419.8" font-family="Times,serif" font-size="14.00" fill="#000000">oa:FragmentSelector</text>
</g>
<!-- B_:node1f0gq2gelx34&#45;&gt;Roa:FragmentSelector -->
<g id="edge18" class="edge">
<title>B_:node1f0gq2gelx34&#45;&gt;Roa:FragmentSelector</title>
<path fill="none" stroke="#000000" d="M1309.1946,-422.5294C1382.5384,-422.6489 1661.5998,-423.1037 1810.2575,-423.3459"/>
<polygon fill="#000000" stroke="#000000" points="1810.2883,-426.8459 1820.294,-423.3623 1810.2998,-419.8459 1810.2883,-426.8459"/>
<text text-anchor="middle" x="1549.2958" y="-427.3" font-family="Times,serif" font-size="14.00" fill="#000000">rdf:type</text>
</g>
<!-- Rmf: -->
<g id="node19" class="node">
<title>Rmf:</title>
<ellipse fill="none" stroke="#0000ff" cx="1904.7958" cy="-369.5" rx="27" ry="18"/>
<text text-anchor="middle" x="1904.7958" y="-365.8" font-family="Times,serif" font-size="14.00" fill="#000000">mf:</text>
</g>
<!-- B_:node1f0gq2gelx34&#45;&gt;Rmf: -->
<g id="edge19" class="edge">
<title>B_:node1f0gq2gelx34&#45;&gt;Rmf:</title>
<path fill="none" stroke="#000000" d="M1309.1442,-420.8568C1344.2515,-417.6552 1424.3807,-410.3806 1491.7958,-404.5 1630.4974,-392.401 1795.4566,-378.5977 1867.7518,-372.5777"/>
<polygon fill="#000000" stroke="#000000" points="1868.0566,-376.0645 1877.7318,-371.7471 1867.476,-369.0886 1868.0566,-376.0645"/>
<text text-anchor="middle" x="1549.2958" y="-408.3" font-family="Times,serif" font-size="14.00" fill="#000000">dcterms:conformsTo</text>
</g>
<!-- Lxywh=0.5366845889070635,0.2939686187699841,0.04048369061255663,0.028409607447408114 -->
<g id="node20" class="node">
<title>Lxywh=0.5366845889070635,0.2939686187699841,0.04048369061255663,0.028409607447408114</title>
<polygon fill="none" stroke="#000000" points="1624.7958,-296.5 1624.7958,-332.5 2184.7958,-332.5 2184.7958,-296.5 1624.7958,-296.5"/>
<text text-anchor="middle" x="1904.7958" y="-310.8" font-family="Times,serif" font-size="14.00" fill="#000000">xywh=0.5366845889070635,0.2939686187699841,0.04048369061255663,0.028409607447408114</text>
</g>
<!-- B_:node1f0gq2gelx34&#45;&gt;Lxywh=0.5366845889070635,0.2939686187699841,0.04048369061255663,0.028409607447408114 -->
<g id="edge20" class="edge">
<title>B_:node1f0gq2gelx34&#45;&gt;Lxywh=0.5366845889070635,0.2939686187699841,0.04048369061255663,0.028409607447408114</title>
<path fill="none" stroke="#000000" d="M1309.1945,-423.5954C1343.3729,-424.8903 1419.0569,-423.9696 1473.7958,-395.5 1484.1157,-390.1326 1481.7674,-382.394 1491.7958,-376.5 1544.3958,-345.5854 1564.7154,-353.1211 1624.7958,-342.5 1643.026,-339.2772 1661.9943,-336.3951 1681.0829,-333.8232"/>
<polygon fill="#000000" stroke="#000000" points="1681.6158,-337.2834 1691.0726,-332.5065 1680.701,-330.3434 1681.6158,-337.2834"/>
<text text-anchor="middle" x="1549.2958" y="-380.3" font-family="Times,serif" font-size="14.00" fill="#000000">rdf:value</text>
</g>
</g>
</svg>
