<?xml version="1.0" encoding="UTF-8" standalone="no"?>
<!DOCTYPE svg PUBLIC "-//W3C//DTD SVG 1.1//EN"
 "http://www.w3.org/Graphics/SVG/1.1/DTD/svg11.dtd">
<!-- Generated by graphviz version 2.40.1 (20161225.0304)
 -->
<!-- Title: %3 Pages: 1 -->
<svg width="1940pt" height="1073pt"
 viewBox="0.00 0.00 1940.22 1073.00" xmlns="http://www.w3.org/2000/svg" xmlns:xlink="http://www.w3.org/1999/xlink">
<g id="graph0" class="graph" transform="scale(1 1) rotate(0) translate(4 1069)">
<title>%3</title>
<polygon fill="#ffffff" stroke="transparent" points="-4,4 -4,-1069 1936.2157,-1069 1936.2157,4 -4,4"/>
<text text-anchor="middle" x="966.1078" y="-233.8" font-family="Times,serif" font-size="14.00" fill="#000000">Model:</text>
<text text-anchor="middle" x="966.1078" y="-218.8" font-family="Times,serif" font-size="14.00" fill="#000000">(Unknown)</text>
<text text-anchor="middle" x="966.1078" y="-187.8" font-family="Times,serif" font-size="14.00" fill="#000000">Namespaces:</text>
<text text-anchor="middle" x="966.1078" y="-172.8" font-family="Times,serif" font-size="14.00" fill="#000000">dcmitype: http://purl.org/dc/dcmitype/</text>
<text text-anchor="middle" x="966.1078" y="-157.8" font-family="Times,serif" font-size="14.00" fill="#000000">dcterms: http://purl.org/dc/terms/</text>
<text text-anchor="middle" x="966.1078" y="-142.8" font-family="Times,serif" font-size="14.00" fill="#000000">dsw: http://purl.org/dsw/</text>
<text text-anchor="middle" x="966.1078" y="-127.8" font-family="Times,serif" font-size="14.00" fill="#000000">dwc: http://rs.tdwg.org/dwc/terms/</text>
<text text-anchor="middle" x="966.1078" y="-112.8" font-family="Times,serif" font-size="14.00" fill="#000000">foaf: http://xmlns.com/foaf/0.1/</text>
<text text-anchor="middle" x="966.1078" y="-97.8" font-family="Times,serif" font-size="14.00" fill="#000000">img: http://localhost:8182/iiif/2/900c341c1c10fff7:MMNAT01_PM_NNM001001033_003/full/max/0/</text>
<text text-anchor="middle" x="966.1078" y="-82.8" font-family="Times,serif" font-size="14.00" fill="#000000">iso: http://iso639&#45;3.sil.org/code/</text>
<text text-anchor="middle" x="966.1078" y="-67.8" font-family="Times,serif" font-size="14.00" fill="#000000">mf: http://www.w3.org/TR/media&#45;frags/</text>
<text text-anchor="middle" x="966.1078" y="-52.8" font-family="Times,serif" font-size="14.00" fill="#000000">oa: http://www.w3.org/ns/oa#</text>
<text text-anchor="middle" x="966.1078" y="-37.8" font-family="Times,serif" font-size="14.00" fill="#000000">orcid: http://orcid.org/</text>
<text text-anchor="middle" x="966.1078" y="-22.8" font-family="Times,serif" font-size="14.00" fill="#000000">rdf: http://www.w3.org/1999/02/22&#45;rdf&#45;syntax&#45;ns#</text>
<text text-anchor="middle" x="966.1078" y="-7.8" font-family="Times,serif" font-size="14.00" fill="#000000">viaf: http://viaf.org/viaf/</text>
<!-- Rhttp://localhost:8080/rdf/nc/annotation/bb45ec3b&#45;0610&#45;4138&#45;94fd&#45;ab19a497496a -->
<g id="node1" class="node">
<title>Rhttp://localhost:8080/rdf/nc/annotation/bb45ec3b&#45;0610&#45;4138&#45;94fd&#45;ab19a497496a</title>
<ellipse fill="none" stroke="#0000ff" cx="297.0236" cy="-903" rx="297.0473" ry="18"/>
<text text-anchor="middle" x="297.0236" y="-899.3" font-family="Times,serif" font-size="14.00" fill="#000000">http://localhost:8080/rdf/nc/annotation/bb45ec3b&#45;0610&#45;4138&#45;94fd&#45;ab19a497496a</text>
</g>
<!-- Roa:Annotation -->
<g id="node2" class="node">
<title>Roa:Annotation</title>
<ellipse fill="none" stroke="#0000ff" cx="828.5375" cy="-1036" rx="61.1893" ry="18"/>
<text text-anchor="middle" x="828.5375" y="-1032.3" font-family="Times,serif" font-size="14.00" fill="#000000">oa:Annotation</text>
</g>
<!-- Rhttp://localhost:8080/rdf/nc/annotation/bb45ec3b&#45;0610&#45;4138&#45;94fd&#45;ab19a497496a&#45;&gt;Roa:Annotation -->
<g id="edge1" class="edge">
<title>Rhttp://localhost:8080/rdf/nc/annotation/bb45ec3b&#45;0610&#45;4138&#45;94fd&#45;ab19a497496a&#45;&gt;Roa:Annotation</title>
<path fill="none" stroke="#000000" d="M366.2726,-920.5919C449.6763,-941.7434 594.0443,-978.2394 718.0473,-1009 735.3505,-1013.2923 754.191,-1017.9151 771.3325,-1022.1015"/>
<polygon fill="#000000" stroke="#000000" points="770.6597,-1025.54 781.2044,-1024.5102 772.3191,-1018.7395 770.6597,-1025.54"/>
<text text-anchor="middle" x="656.0473" y="-1006.8" font-family="Times,serif" font-size="14.00" fill="#000000">rdf:type</text>
</g>
<!-- Rorcid:0000&#45;0002&#45;2146&#45;4803 -->
<g id="node3" class="node">
<title>Rorcid:0000&#45;0002&#45;2146&#45;4803</title>
<ellipse fill="none" stroke="#0000ff" cx="828.5375" cy="-982" rx="110.4804" ry="18"/>
<text text-anchor="middle" x="828.5375" y="-978.3" font-family="Times,serif" font-size="14.00" fill="#000000">orcid:0000&#45;0002&#45;2146&#45;4803</text>
</g>
<!-- Rhttp://localhost:8080/rdf/nc/annotation/bb45ec3b&#45;0610&#45;4138&#45;94fd&#45;ab19a497496a&#45;&gt;Rorcid:0000&#45;0002&#45;2146&#45;4803 -->
<g id="edge2" class="edge">
<title>Rhttp://localhost:8080/rdf/nc/annotation/bb45ec3b&#45;0610&#45;4138&#45;94fd&#45;ab19a497496a&#45;&gt;Rorcid:0000&#45;0002&#45;2146&#45;4803</title>
<path fill="none" stroke="#000000" d="M409.4192,-919.7056C506.7616,-934.1738 645.8371,-954.8449 736.6464,-968.342"/>
<polygon fill="#000000" stroke="#000000" points="736.2448,-971.8207 746.6507,-969.829 737.274,-964.8968 736.2448,-971.8207"/>
<text text-anchor="middle" x="656.0473" y="-963.8" font-family="Times,serif" font-size="14.00" fill="#000000">dcterms:creator</text>
</g>
<!-- L2021&#45;01&#45;12T14:23:11.646Z|Datatype: dcterms:W3CDTF -->
<g id="node4" class="node">
<title>L2021&#45;01&#45;12T14:23:11.646Z|Datatype: dcterms:W3CDTF</title>
<polygon fill="none" stroke="#000000" points="741.0375,-899 741.0375,-945 916.0375,-945 916.0375,-899 741.0375,-899"/>
<text text-anchor="middle" x="828.5375" y="-929.8" font-family="Times,serif" font-size="14.00" fill="#000000">2021&#45;01&#45;12T14:23:11.646Z</text>
<polyline fill="none" stroke="#000000" points="741.0375,-922 916.0375,-922 "/>
<text text-anchor="middle" x="828.5375" y="-906.8" font-family="Times,serif" font-size="14.00" fill="#000000">Datatype: dcterms:W3CDTF</text>
</g>
<!-- Rhttp://localhost:8080/rdf/nc/annotation/bb45ec3b&#45;0610&#45;4138&#45;94fd&#45;ab19a497496a&#45;&gt;L2021&#45;01&#45;12T14:23:11.646Z|Datatype: dcterms:W3CDTF -->
<g id="edge3" class="edge">
<title>Rhttp://localhost:8080/rdf/nc/annotation/bb45ec3b&#45;0610&#45;4138&#45;94fd&#45;ab19a497496a&#45;&gt;L2021&#45;01&#45;12T14:23:11.646Z|Datatype: dcterms:W3CDTF</title>
<path fill="none" stroke="#000000" d="M553.0502,-912.1522C616.3139,-914.4137 680.3138,-916.7015 730.6841,-918.502"/>
<polygon fill="#000000" stroke="#000000" points="730.7772,-922.0075 740.8959,-918.8671 731.0274,-915.012 730.7772,-922.0075"/>
<text text-anchor="middle" x="656.0473" y="-919.8" font-family="Times,serif" font-size="14.00" fill="#000000">dcterms:date</text>
</g>
<!-- B_:node1f0gq2gelx50 -->
<g id="node5" class="node">
<title>B_:node1f0gq2gelx50</title>
<ellipse fill="none" stroke="#00ff00" cx="828.5375" cy="-862" rx="18" ry="18"/>
</g>
<!-- Rhttp://localhost:8080/rdf/nc/annotation/bb45ec3b&#45;0610&#45;4138&#45;94fd&#45;ab19a497496a&#45;&gt;B_:node1f0gq2gelx50 -->
<g id="edge4" class="edge">
<title>Rhttp://localhost:8080/rdf/nc/annotation/bb45ec3b&#45;0610&#45;4138&#45;94fd&#45;ab19a497496a&#45;&gt;B_:node1f0gq2gelx50</title>
<path fill="none" stroke="#000000" d="M480.6848,-888.8327C598.7616,-879.7245 740.8143,-868.7668 800.2407,-864.1828"/>
<polygon fill="#000000" stroke="#000000" points="800.6498,-867.6617 810.351,-863.4029 800.1114,-860.6824 800.6498,-867.6617"/>
<text text-anchor="middle" x="656.0473" y="-880.8" font-family="Times,serif" font-size="14.00" fill="#000000">oa:hasBody</text>
</g>
<!-- B_:node1f0gq2gelx49 -->
<g id="node12" class="node">
<title>B_:node1f0gq2gelx49</title>
<ellipse fill="none" stroke="#00ff00" cx="828.5375" cy="-680" rx="18" ry="18"/>
</g>
<!-- Rhttp://localhost:8080/rdf/nc/annotation/bb45ec3b&#45;0610&#45;4138&#45;94fd&#45;ab19a497496a&#45;&gt;B_:node1f0gq2gelx49 -->
<g id="edge12" class="edge">
<title>Rhttp://localhost:8080/rdf/nc/annotation/bb45ec3b&#45;0610&#45;4138&#45;94fd&#45;ab19a497496a&#45;&gt;B_:node1f0gq2gelx49</title>
<path fill="none" stroke="#000000" d="M339.6212,-885.1279C445.3045,-840.7878 717.1509,-726.733 802.4976,-690.9252"/>
<polygon fill="#000000" stroke="#000000" points="803.8691,-694.1454 811.7363,-687.0491 801.1609,-687.6905 803.8691,-694.1454"/>
<text text-anchor="middle" x="656.0473" y="-767.8" font-family="Times,serif" font-size="14.00" fill="#000000">oa:hasTarget</text>
</g>
<!-- Roa:describing -->
<g id="node20" class="node">
<title>Roa:describing</title>
<ellipse fill="none" stroke="#0000ff" cx="828.5375" cy="-626" rx="57.6901" ry="18"/>
<text text-anchor="middle" x="828.5375" y="-622.3" font-family="Times,serif" font-size="14.00" fill="#000000">oa:describing</text>
</g>
<!-- Rhttp://localhost:8080/rdf/nc/annotation/bb45ec3b&#45;0610&#45;4138&#45;94fd&#45;ab19a497496a&#45;&gt;Roa:describing -->
<g id="edge20" class="edge">
<title>Rhttp://localhost:8080/rdf/nc/annotation/bb45ec3b&#45;0610&#45;4138&#45;94fd&#45;ab19a497496a&#45;&gt;Roa:describing</title>
<path fill="none" stroke="#000000" d="M321.286,-885.0327C383.7851,-839.5669 556.7158,-718.8931 718.0473,-653 733.8673,-646.5386 751.6177,-641.3603 768.1855,-637.3359"/>
<polygon fill="#000000" stroke="#000000" points="769.3738,-640.653 778.3207,-634.9782 767.7877,-633.8351 769.3738,-640.653"/>
<text text-anchor="middle" x="656.0473" y="-701.8" font-family="Times,serif" font-size="14.00" fill="#000000">oa:motivatedBy</text>
</g>
<!-- Rfoaf:Person -->
<g id="node7" class="node">
<title>Rfoaf:Person</title>
<ellipse fill="none" stroke="#0000ff" cx="1139.6217" cy="-1047" rx="51.1914" ry="18"/>
<text text-anchor="middle" x="1139.6217" y="-1043.3" font-family="Times,serif" font-size="14.00" fill="#000000">foaf:Person</text>
</g>
<!-- Rorcid:0000&#45;0002&#45;2146&#45;4803&#45;&gt;Rfoaf:Person -->
<g id="edge21" class="edge">
<title>Rorcid:0000&#45;0002&#45;2146&#45;4803&#45;&gt;Rfoaf:Person</title>
<path fill="none" stroke="#000000" d="M904.7793,-995.1116C916.6348,-998.6974 928.4467,-1003.2436 939.0277,-1009 948.6937,-1014.2587 947.0517,-1021.3561 957.0277,-1026 994.8405,-1043.6019 1041.6422,-1048.7039 1078.3957,-1049.4817"/>
<polygon fill="#000000" stroke="#000000" points="1078.4417,-1052.9823 1088.4798,-1049.5932 1078.5191,-1045.9828 1078.4417,-1052.9823"/>
<text text-anchor="middle" x="1005.5277" y="-1051.8" font-family="Times,serif" font-size="14.00" fill="#000000">rdf:type</text>
</g>
<!-- Roa:TextualBody -->
<g id="node6" class="node">
<title>Roa:TextualBody</title>
<ellipse fill="none" stroke="#0000ff" cx="1139.6217" cy="-991" rx="67.6881" ry="18"/>
<text text-anchor="middle" x="1139.6217" y="-987.3" font-family="Times,serif" font-size="14.00" fill="#000000">oa:TextualBody</text>
</g>
<!-- B_:node1f0gq2gelx50&#45;&gt;Roa:TextualBody -->
<g id="edge5" class="edge">
<title>B_:node1f0gq2gelx50&#45;&gt;Roa:TextualBody</title>
<path fill="none" stroke="#000000" d="M846.8975,-861.7834C870.9092,-862.4781 912.9752,-867.1852 939.0277,-890 955.2329,-904.1913 941.1779,-920.4129 957.0277,-935 974.7002,-951.2646 1030.8452,-967.0545 1076.2601,-977.6984"/>
<polygon fill="#000000" stroke="#000000" points="1075.5339,-981.1227 1086.0644,-979.9564 1077.105,-974.3012 1075.5339,-981.1227"/>
<text text-anchor="middle" x="1005.5277" y="-974.8" font-family="Times,serif" font-size="14.00" fill="#000000">rdf:type</text>
</g>
<!-- B_:node1f0gq2gelx50&#45;&gt;Rfoaf:Person -->
<g id="edge6" class="edge">
<title>B_:node1f0gq2gelx50&#45;&gt;Rfoaf:Person</title>
<path fill="none" stroke="#000000" d="M846.773,-861.0465C871.4397,-860.8288 915.0982,-864.4227 939.0277,-890 969.2823,-922.3379 925.899,-956.5025 957.0277,-988 987.9077,-1019.2459 1013.0859,-991.0736 1054.0277,-1007 1062.7654,-1010.399 1063.6983,-1013.6962 1072.0277,-1018 1079.6924,-1021.9603 1088.0195,-1025.8502 1096.1254,-1029.4309"/>
<polygon fill="#000000" stroke="#000000" points="1094.9187,-1032.7222 1105.4866,-1033.478 1097.6966,-1026.297 1094.9187,-1032.7222"/>
<text text-anchor="middle" x="1005.5277" y="-1010.8" font-family="Times,serif" font-size="14.00" fill="#000000">rdf:type</text>
</g>
<!-- Ltext/plain -->
<g id="node8" class="node">
<title>Ltext/plain</title>
<polygon fill="none" stroke="#000000" points="1105.6217,-918 1105.6217,-954 1173.6217,-954 1173.6217,-918 1105.6217,-918"/>
<text text-anchor="middle" x="1139.6217" y="-932.3" font-family="Times,serif" font-size="14.00" fill="#000000">text/plain</text>
</g>
<!-- B_:node1f0gq2gelx50&#45;&gt;Ltext/plain -->
<g id="edge7" class="edge">
<title>B_:node1f0gq2gelx50&#45;&gt;Ltext/plain</title>
<path fill="none" stroke="#000000" d="M846.3889,-866.5536C871.1813,-872.8531 917.4568,-884.5223 957.0277,-894 1004.3036,-905.3232 1058.6107,-917.7396 1095.6275,-926.1138"/>
<polygon fill="#000000" stroke="#000000" points="1095.064,-929.5746 1105.5895,-928.3643 1096.6066,-922.7467 1095.064,-929.5746"/>
<text text-anchor="middle" x="1005.5277" y="-919.8" font-family="Times,serif" font-size="14.00" fill="#000000">dcterms:format</text>
</g>
<!-- Rviaf:39377694 -->
<g id="node9" class="node">
<title>Rviaf:39377694</title>
<ellipse fill="none" stroke="#0000ff" cx="1139.6217" cy="-881" rx="61.99" ry="18"/>
<text text-anchor="middle" x="1139.6217" y="-877.3" font-family="Times,serif" font-size="14.00" fill="#000000">viaf:39377694</text>
</g>
<!-- B_:node1f0gq2gelx50&#45;&gt;Rviaf:39377694 -->
<g id="edge8" class="edge">
<title>B_:node1f0gq2gelx50&#45;&gt;Rviaf:39377694</title>
<path fill="none" stroke="#000000" d="M846.6073,-863.1036C888.9387,-865.6891 996.406,-872.2529 1068.7409,-876.6708"/>
<polygon fill="#000000" stroke="#000000" points="1068.9516,-880.1901 1079.1464,-877.3064 1069.3784,-873.2032 1068.9516,-880.1901"/>
<text text-anchor="middle" x="1005.5277" y="-878.8" font-family="Times,serif" font-size="14.00" fill="#000000">dcterms:identifier</text>
</g>
<!-- Riso:und -->
<g id="node10" class="node">
<title>Riso:und</title>
<ellipse fill="none" stroke="#0000ff" cx="1139.6217" cy="-827" rx="36.2938" ry="18"/>
<text text-anchor="middle" x="1139.6217" y="-823.3" font-family="Times,serif" font-size="14.00" fill="#000000">iso:und</text>
</g>
<!-- B_:node1f0gq2gelx50&#45;&gt;Riso:und -->
<g id="edge9" class="edge">
<title>B_:node1f0gq2gelx50&#45;&gt;Riso:und</title>
<path fill="none" stroke="#000000" d="M846.6073,-859.967C894.1557,-854.6173 1023.8841,-840.0216 1093.6963,-832.1671"/>
<polygon fill="#000000" stroke="#000000" points="1094.4088,-835.6091 1103.9547,-831.0129 1093.6261,-828.653 1094.4088,-835.6091"/>
<text text-anchor="middle" x="1005.5277" y="-849.8" font-family="Times,serif" font-size="14.00" fill="#000000">dcterms:language</text>
</g>
<!-- LGeoff|Language: und -->
<g id="node11" class="node">
<title>LGeoff|Language: und</title>
<polygon fill="none" stroke="#000000" points="1090.6217,-744 1090.6217,-790 1188.6217,-790 1188.6217,-744 1090.6217,-744"/>
<text text-anchor="middle" x="1139.6217" y="-774.8" font-family="Times,serif" font-size="14.00" fill="#000000">Geoff</text>
<polyline fill="none" stroke="#000000" points="1090.6217,-767 1188.6217,-767 "/>
<text text-anchor="middle" x="1139.6217" y="-751.8" font-family="Times,serif" font-size="14.00" fill="#000000">Language: und</text>
</g>
<!-- B_:node1f0gq2gelx50&#45;&gt;LGeoff|Language: und -->
<g id="edge10" class="edge">
<title>B_:node1f0gq2gelx50&#45;&gt;LGeoff|Language: und</title>
<path fill="none" stroke="#000000" d="M845.4783,-855.8504C869.9608,-847.0429 916.7207,-830.519 957.0277,-818 998.1133,-805.2392 1044.8457,-792.2136 1080.7475,-782.5205"/>
<polygon fill="#000000" stroke="#000000" points="1081.825,-785.8551 1090.5727,-779.8779 1080.0068,-779.0954 1081.825,-785.8551"/>
<text text-anchor="middle" x="1005.5277" y="-821.8" font-family="Times,serif" font-size="14.00" fill="#000000">rdf:value</text>
</g>
<!-- B_:node1f0gq2gelx50&#45;&gt;LGeoff|Language: und -->
<g id="edge11" class="edge">
<title>B_:node1f0gq2gelx50&#45;&gt;LGeoff|Language: und</title>
<path fill="none" stroke="#000000" d="M841.2758,-848.8865C862.7969,-827.7601 908.7503,-786.9485 957.0277,-771 996.6569,-757.9085 1043.8052,-757.2218 1080.2642,-759.6447"/>
<polygon fill="#000000" stroke="#000000" points="1080.0126,-763.1356 1090.249,-760.4028 1080.5427,-756.1556 1080.0126,-763.1356"/>
<text text-anchor="middle" x="1005.5277" y="-774.8" font-family="Times,serif" font-size="14.00" fill="#000000">foaf:name</text>
</g>
<!-- Roa:Target -->
<g id="node13" class="node">
<title>Roa:Target</title>
<ellipse fill="none" stroke="#0000ff" cx="1139.6217" cy="-707" rx="44.393" ry="18"/>
<text text-anchor="middle" x="1139.6217" y="-703.3" font-family="Times,serif" font-size="14.00" fill="#000000">oa:Target</text>
</g>
<!-- B_:node1f0gq2gelx49&#45;&gt;Roa:Target -->
<g id="edge13" class="edge">
<title>B_:node1f0gq2gelx49&#45;&gt;Roa:Target</title>
<path fill="none" stroke="#000000" d="M846.6073,-681.5683C892.4612,-685.5481 1014.7421,-696.1613 1086.0107,-702.3469"/>
<polygon fill="#000000" stroke="#000000" points="1085.8752,-705.8482 1096.1404,-703.2261 1086.4805,-698.8745 1085.8752,-705.8482"/>
<text text-anchor="middle" x="1005.5277" y="-702.8" font-family="Times,serif" font-size="14.00" fill="#000000">rdf:type</text>
</g>
<!-- Limage/jpeg -->
<g id="node14" class="node">
<title>Limage/jpeg</title>
<polygon fill="none" stroke="#000000" points="1101.1217,-634 1101.1217,-670 1178.1217,-670 1178.1217,-634 1101.1217,-634"/>
<text text-anchor="middle" x="1139.6217" y="-648.3" font-family="Times,serif" font-size="14.00" fill="#000000">image/jpeg</text>
</g>
<!-- B_:node1f0gq2gelx49&#45;&gt;Limage/jpeg -->
<g id="edge14" class="edge">
<title>B_:node1f0gq2gelx49&#45;&gt;Limage/jpeg</title>
<path fill="none" stroke="#000000" d="M846.6073,-678.3736C893.4773,-674.1549 1020.1991,-662.749 1090.672,-656.4058"/>
<polygon fill="#000000" stroke="#000000" points="1091.4161,-659.8531 1101.0621,-655.4707 1090.7885,-652.8813 1091.4161,-659.8531"/>
<text text-anchor="middle" x="1005.5277" y="-670.8" font-family="Times,serif" font-size="14.00" fill="#000000">dcterms:format</text>
</g>
<!-- B_:node1f0gq2gelx52 -->
<g id="node15" class="node">
<title>B_:node1f0gq2gelx52</title>
<ellipse fill="none" stroke="#00ff00" cx="1139.6217" cy="-597" rx="18" ry="18"/>
</g>
<!-- B_:node1f0gq2gelx49&#45;&gt;B_:node1f0gq2gelx52 -->
<g id="edge15" class="edge">
<title>B_:node1f0gq2gelx49&#45;&gt;B_:node1f0gq2gelx52</title>
<path fill="none" stroke="#000000" d="M846.7663,-677.5377C869.1984,-674.0639 908.1112,-666.5785 939.0277,-653 947.8309,-649.1337 948.2183,-644.8522 957.0277,-641 1009.1003,-618.2292 1074.9068,-606.0691 1111.6082,-600.6265"/>
<polygon fill="#000000" stroke="#000000" points="1112.1774,-604.0809 1121.5848,-599.2074 1111.1915,-597.1506 1112.1774,-604.0809"/>
<text text-anchor="middle" x="1005.5277" y="-644.8" font-family="Times,serif" font-size="14.00" fill="#000000">oa:hasSelector</text>
</g>
<!-- Rimg:default.jpg -->
<g id="node19" class="node">
<title>Rimg:default.jpg</title>
<ellipse fill="none" stroke="#0000ff" cx="1139.6217" cy="-434" rx="65.7887" ry="18"/>
<text text-anchor="middle" x="1139.6217" y="-430.3" font-family="Times,serif" font-size="14.00" fill="#000000">img:default.jpg</text>
</g>
<!-- B_:node1f0gq2gelx49&#45;&gt;Rimg:default.jpg -->
<g id="edge19" class="edge">
<title>B_:node1f0gq2gelx49&#45;&gt;Rimg:default.jpg</title>
<path fill="none" stroke="#000000" d="M846.7639,-680.7315C871.0171,-680.6815 913.769,-676.8717 939.0277,-653 958.9526,-634.1691 942.1485,-617.0264 957.0277,-594 995.7894,-534.0139 1063.2355,-483.3392 1104.4112,-455.9303"/>
<polygon fill="#000000" stroke="#000000" points="1106.3384,-458.8521 1112.7791,-450.4397 1102.4982,-452.9994 1106.3384,-458.8521"/>
<text text-anchor="middle" x="1005.5277" y="-597.8" font-family="Times,serif" font-size="14.00" fill="#000000">oa:hasSource</text>
</g>
<!-- Roa:FragmentSelector -->
<g id="node16" class="node">
<title>Roa:FragmentSelector</title>
<ellipse fill="none" stroke="#0000ff" cx="1645.2157" cy="-679" rx="84.485" ry="18"/>
<text text-anchor="middle" x="1645.2157" y="-675.3" font-family="Times,serif" font-size="14.00" fill="#000000">oa:FragmentSelector</text>
</g>
<!-- B_:node1f0gq2gelx52&#45;&gt;Roa:FragmentSelector -->
<g id="edge16" class="edge">
<title>B_:node1f0gq2gelx52&#45;&gt;Roa:FragmentSelector</title>
<path fill="none" stroke="#000000" d="M1156.368,-604.3254C1173.4051,-611.523 1200.7151,-622.364 1225.2157,-629 1334.8123,-658.6843 1465.2431,-670.7507 1551.3553,-675.6524"/>
<polygon fill="#000000" stroke="#000000" points="1551.1947,-679.1488 1561.3713,-676.2016 1551.578,-672.1593 1551.1947,-679.1488"/>
<text text-anchor="middle" x="1282.7157" y="-656.8" font-family="Times,serif" font-size="14.00" fill="#000000">rdf:type</text>
</g>
<!-- Rmf: -->
<g id="node17" class="node">
<title>Rmf:</title>
<ellipse fill="none" stroke="#0000ff" cx="1645.2157" cy="-625" rx="27" ry="18"/>
<text text-anchor="middle" x="1645.2157" y="-621.3" font-family="Times,serif" font-size="14.00" fill="#000000">mf:</text>
</g>
<!-- B_:node1f0gq2gelx52&#45;&gt;Rmf: -->
<g id="edge17" class="edge">
<title>B_:node1f0gq2gelx52&#45;&gt;Rmf:</title>
<path fill="none" stroke="#000000" d="M1157.6499,-598.3566C1174.9676,-599.6377 1201.8719,-601.5705 1225.2157,-603 1366.5746,-611.6561 1534.83,-619.8245 1608.0781,-623.2752"/>
<polygon fill="#000000" stroke="#000000" points="1608.0282,-626.7766 1618.1814,-623.7496 1608.3566,-619.7843 1608.0282,-626.7766"/>
<text text-anchor="middle" x="1282.7157" y="-613.8" font-family="Times,serif" font-size="14.00" fill="#000000">dcterms:conformsTo</text>
</g>
<!-- Lxywh=0.6222427138577663,0.025690113172811516,0.024116347569955843,0.01804123711340206 -->
<g id="node18" class="node">
<title>Lxywh=0.6222427138577663,0.025690113172811516,0.024116347569955843,0.01804123711340206</title>
<polygon fill="none" stroke="#000000" points="1358.2157,-552 1358.2157,-588 1932.2157,-588 1932.2157,-552 1358.2157,-552"/>
<text text-anchor="middle" x="1645.2157" y="-566.3" font-family="Times,serif" font-size="14.00" fill="#000000">xywh=0.6222427138577663,0.025690113172811516,0.024116347569955843,0.01804123711340206</text>
</g>
<!-- B_:node1f0gq2gelx52&#45;&gt;Lxywh=0.6222427138577663,0.025690113172811516,0.024116347569955843,0.01804123711340206 -->
<g id="edge18" class="edge">
<title>B_:node1f0gq2gelx52&#45;&gt;Lxywh=0.6222427138577663,0.025690113172811516,0.024116347569955843,0.01804123711340206</title>
<path fill="none" stroke="#000000" d="M1157.6269,-594.7791C1174.928,-592.7228 1201.8206,-589.7296 1225.2157,-588 1264.8878,-585.067 1306.7059,-582.567 1347.9578,-580.4485"/>
<polygon fill="#000000" stroke="#000000" points="1348.3386,-583.9338 1358.1487,-579.9322 1347.9844,-576.9428 1348.3386,-583.9338"/>
<text text-anchor="middle" x="1282.7157" y="-591.8" font-family="Times,serif" font-size="14.00" fill="#000000">rdf:value</text>
</g>
<!-- Rdcmitype:StillImage -->
<g id="node21" class="node">
<title>Rdcmitype:StillImage</title>
<ellipse fill="none" stroke="#0000ff" cx="1645.2157" cy="-515" rx="83.3857" ry="18"/>
<text text-anchor="middle" x="1645.2157" y="-511.3" font-family="Times,serif" font-size="14.00" fill="#000000">dcmitype:StillImage</text>
</g>
<!-- Rimg:default.jpg&#45;&gt;Rdcmitype:StillImage -->
<g id="edge22" class="edge">
<title>Rimg:default.jpg&#45;&gt;Rdcmitype:StillImage</title>
<path fill="none" stroke="#000000" d="M1177.567,-448.7532C1192.2853,-454.0904 1209.3807,-459.8245 1225.2157,-464 1335.7224,-493.1395 1467.0458,-505.6974 1553.0625,-511.0656"/>
<polygon fill="#000000" stroke="#000000" points="1552.8696,-514.5602 1563.0626,-511.67 1553.292,-507.573 1552.8696,-514.5602"/>
<text text-anchor="middle" x="1282.7157" y="-491.8" font-family="Times,serif" font-size="14.00" fill="#000000">rdf:type</text>
</g>
<!-- Rdsw:Token -->
<g id="node22" class="node">
<title>Rdsw:Token</title>
<ellipse fill="none" stroke="#0000ff" cx="1645.2157" cy="-461" rx="50.0912" ry="18"/>
<text text-anchor="middle" x="1645.2157" y="-457.3" font-family="Times,serif" font-size="14.00" fill="#000000">dsw:Token</text>
</g>
<!-- Rimg:default.jpg&#45;&gt;Rdsw:Token -->
<g id="edge23" class="edge">
<title>Rimg:default.jpg&#45;&gt;Rdsw:Token</title>
<path fill="none" stroke="#000000" d="M1204.1691,-437.447C1302.8016,-442.7142 1489.6382,-452.6918 1585.3759,-457.8044"/>
<polygon fill="#000000" stroke="#000000" points="1585.2972,-461.3051 1595.4696,-458.3434 1585.6705,-454.3151 1585.2972,-461.3051"/>
<text text-anchor="middle" x="1282.7157" y="-448.8" font-family="Times,serif" font-size="14.00" fill="#000000">rdf:type</text>
</g>
<!-- Rdwc:HumanObservation -->
<g id="node23" class="node">
<title>Rdwc:HumanObservation</title>
<ellipse fill="none" stroke="#0000ff" cx="1645.2157" cy="-407" rx="96.6831" ry="18"/>
<text text-anchor="middle" x="1645.2157" y="-403.3" font-family="Times,serif" font-size="14.00" fill="#000000">dwc:HumanObservation</text>
</g>
<!-- Rimg:default.jpg&#45;&gt;Rdwc:HumanObservation -->
<g id="edge24" class="edge">
<title>Rimg:default.jpg&#45;&gt;Rdwc:HumanObservation</title>
<path fill="none" stroke="#000000" d="M1195.6774,-424.523C1205.4979,-423.1385 1215.6369,-421.884 1225.2157,-421 1331.3278,-411.2074 1453.0787,-408.0318 1538.0794,-407.1103"/>
<polygon fill="#000000" stroke="#000000" points="1538.2951,-410.6084 1548.2597,-407.0088 1538.2253,-403.6087 1538.2951,-410.6084"/>
<text text-anchor="middle" x="1282.7157" y="-424.8" font-family="Times,serif" font-size="14.00" fill="#000000">rdf:type</text>
</g>
<!-- Roa:Source -->
<g id="node24" class="node">
<title>Roa:Source</title>
<ellipse fill="none" stroke="#0000ff" cx="1645.2157" cy="-353" rx="46.2923" ry="18"/>
<text text-anchor="middle" x="1645.2157" y="-349.3" font-family="Times,serif" font-size="14.00" fill="#000000">oa:Source</text>
</g>
<!-- Rimg:default.jpg&#45;&gt;Roa:Source -->
<g id="edge25" class="edge">
<title>Rimg:default.jpg&#45;&gt;Roa:Source</title>
<path fill="none" stroke="#000000" d="M1169.2497,-417.6949C1185.3416,-409.5683 1205.8572,-400.356 1225.2157,-395 1351.8712,-359.9579 1507.1791,-353.4005 1588.8457,-352.6158"/>
<polygon fill="#000000" stroke="#000000" points="1588.937,-356.1153 1598.9122,-352.545 1588.8878,-349.1155 1588.937,-356.1153"/>
<text text-anchor="middle" x="1282.7157" y="-398.8" font-family="Times,serif" font-size="14.00" fill="#000000">rdf:type</text>
</g>
<!-- Rfoaf:Image -->
<g id="node25" class="node">
<title>Rfoaf:Image</title>
<ellipse fill="none" stroke="#0000ff" cx="1645.2157" cy="-299" rx="50.0912" ry="18"/>
<text text-anchor="middle" x="1645.2157" y="-295.3" font-family="Times,serif" font-size="14.00" fill="#000000">foaf:Image</text>
</g>
<!-- Rimg:default.jpg&#45;&gt;Rfoaf:Image -->
<g id="edge26" class="edge">
<title>Rimg:default.jpg&#45;&gt;Rfoaf:Image</title>
<path fill="none" stroke="#000000" d="M1153.3031,-416.1277C1168.6865,-397.3586 1195.4398,-368.466 1225.2157,-353 1342.1751,-292.2497 1501.2919,-290.1029 1586.1652,-294.2731"/>
<polygon fill="#000000" stroke="#000000" points="1586.2154,-297.7808 1596.3893,-294.8241 1586.5921,-290.791 1586.2154,-297.7808"/>
<text text-anchor="middle" x="1282.7157" y="-356.8" font-family="Times,serif" font-size="14.00" fill="#000000">rdf:type</text>
</g>
</g>
</svg>
