<?xml version="1.0" encoding="UTF-8" standalone="no"?>
<!DOCTYPE svg PUBLIC "-//W3C//DTD SVG 1.1//EN"
 "http://www.w3.org/Graphics/SVG/1.1/DTD/svg11.dtd">
<!-- Generated by graphviz version 2.40.1 (20161225.0304)
 -->
<!-- Title: %3 Pages: 1 -->
<svg width="2200pt" height="1208pt"
 viewBox="0.00 0.00 2199.80 1208.00" xmlns="http://www.w3.org/2000/svg" xmlns:xlink="http://www.w3.org/1999/xlink">
<g id="graph0" class="graph" transform="scale(1 1) rotate(0) translate(4 1204)">
<title>%3</title>
<polygon fill="#ffffff" stroke="transparent" points="-4,4 -4,-1204 2195.7958,-1204 2195.7958,4 -4,4"/>
<text text-anchor="middle" x="1095.8979" y="-248.8" font-family="Times,serif" font-size="14.00" fill="#000000">Model:</text>
<text text-anchor="middle" x="1095.8979" y="-233.8" font-family="Times,serif" font-size="14.00" fill="#000000">(Unknown)</text>
<text text-anchor="middle" x="1095.8979" y="-202.8" font-family="Times,serif" font-size="14.00" fill="#000000">Namespaces:</text>
<text text-anchor="middle" x="1095.8979" y="-187.8" font-family="Times,serif" font-size="14.00" fill="#000000">dcmitype: http://purl.org/dc/dcmitype/</text>
<text text-anchor="middle" x="1095.8979" y="-172.8" font-family="Times,serif" font-size="14.00" fill="#000000">dcterms: http://purl.org/dc/terms/</text>
<text text-anchor="middle" x="1095.8979" y="-157.8" font-family="Times,serif" font-size="14.00" fill="#000000">dsw: http://purl.org/dsw/</text>
<text text-anchor="middle" x="1095.8979" y="-142.8" font-family="Times,serif" font-size="14.00" fill="#000000">dwc: http://rs.tdwg.org/dwc/terms/</text>
<text text-anchor="middle" x="1095.8979" y="-127.8" font-family="Times,serif" font-size="14.00" fill="#000000">dwciri: http://rs.tdwg.org/dwc/iri/</text>
<text text-anchor="middle" x="1095.8979" y="-112.8" font-family="Times,serif" font-size="14.00" fill="#000000">foaf: http://xmlns.com/foaf/0.1/</text>
<text text-anchor="middle" x="1095.8979" y="-97.8" font-family="Times,serif" font-size="14.00" fill="#000000">gn: http://sws.geonames.org/</text>
<text text-anchor="middle" x="1095.8979" y="-82.8" font-family="Times,serif" font-size="14.00" fill="#000000">img: http://localhost:8080/semanticAnnotator/files/</text>
<text text-anchor="middle" x="1095.8979" y="-67.8" font-family="Times,serif" font-size="14.00" fill="#000000">iso: http://iso639&#45;3.sil.org/code/</text>
<text text-anchor="middle" x="1095.8979" y="-52.8" font-family="Times,serif" font-size="14.00" fill="#000000">mf: http://www.w3.org/TR/media&#45;frags/</text>
<text text-anchor="middle" x="1095.8979" y="-37.8" font-family="Times,serif" font-size="14.00" fill="#000000">oa: http://www.w3.org/ns/oa#</text>
<text text-anchor="middle" x="1095.8979" y="-22.8" font-family="Times,serif" font-size="14.00" fill="#000000">orcid: http://orcid.org/</text>
<text text-anchor="middle" x="1095.8979" y="-7.8" font-family="Times,serif" font-size="14.00" fill="#000000">rdf: http://www.w3.org/1999/02/22&#45;rdf&#45;syntax&#45;ns#</text>
<!-- Rhttp://localhost:8080/rdf/nc/annotation/f9fb6311&#45;87c2&#45;4f75&#45;8356&#45;28b92219f46e -->
<g id="node1" class="node">
<title>Rhttp://localhost:8080/rdf/nc/annotation/f9fb6311&#45;87c2&#45;4f75&#45;8356&#45;28b92219f46e</title>
<ellipse fill="none" stroke="#0000ff" cx="293.7739" cy="-940" rx="293.548" ry="18"/>
<text text-anchor="middle" x="293.7739" y="-936.3" font-family="Times,serif" font-size="14.00" fill="#000000">http://localhost:8080/rdf/nc/annotation/f9fb6311&#45;87c2&#45;4f75&#45;8356&#45;28b92219f46e</text>
</g>
<!-- Roa:Annotation -->
<g id="node2" class="node">
<title>Roa:Annotation</title>
<ellipse fill="none" stroke="#0000ff" cx="822.0381" cy="-1073" rx="61.1893" ry="18"/>
<text text-anchor="middle" x="822.0381" y="-1069.3" font-family="Times,serif" font-size="14.00" fill="#000000">oa:Annotation</text>
</g>
<!-- Rhttp://localhost:8080/rdf/nc/annotation/f9fb6311&#45;87c2&#45;4f75&#45;8356&#45;28b92219f46e&#45;&gt;Roa:Annotation -->
<g id="edge1" class="edge">
<title>Rhttp://localhost:8080/rdf/nc/annotation/f9fb6311&#45;87c2&#45;4f75&#45;8356&#45;28b92219f46e&#45;&gt;Roa:Annotation</title>
<path fill="none" stroke="#000000" d="M362.1127,-957.5359C444.8061,-978.7099 588.2914,-1015.3041 711.5479,-1046 728.8471,-1050.3082 747.6864,-1054.9357 764.8281,-1059.1215"/>
<polygon fill="#000000" stroke="#000000" points="764.1557,-1062.56 774.7002,-1061.5293 765.8144,-1055.7594 764.1557,-1062.56"/>
<text text-anchor="middle" x="649.5479" y="-1043.8" font-family="Times,serif" font-size="14.00" fill="#000000">rdf:type</text>
</g>
<!-- Rorcid:0000&#45;0002&#45;2146&#45;4803 -->
<g id="node3" class="node">
<title>Rorcid:0000&#45;0002&#45;2146&#45;4803</title>
<ellipse fill="none" stroke="#0000ff" cx="822.0381" cy="-1019" rx="110.4804" ry="18"/>
<text text-anchor="middle" x="822.0381" y="-1015.3" font-family="Times,serif" font-size="14.00" fill="#000000">orcid:0000&#45;0002&#45;2146&#45;4803</text>
</g>
<!-- Rhttp://localhost:8080/rdf/nc/annotation/f9fb6311&#45;87c2&#45;4f75&#45;8356&#45;28b92219f46e&#45;&gt;Rorcid:0000&#45;0002&#45;2146&#45;4803 -->
<g id="edge2" class="edge">
<title>Rhttp://localhost:8080/rdf/nc/annotation/f9fb6311&#45;87c2&#45;4f75&#45;8356&#45;28b92219f46e&#45;&gt;Rorcid:0000&#45;0002&#45;2146&#45;4803</title>
<path fill="none" stroke="#000000" d="M405.1597,-956.6573C501.8816,-971.1218 640.2387,-991.8126 730.5955,-1005.3251"/>
<polygon fill="#000000" stroke="#000000" points="730.1425,-1008.7962 740.5502,-1006.8138 731.1778,-1001.8732 730.1425,-1008.7962"/>
<text text-anchor="middle" x="649.5479" y="-1000.8" font-family="Times,serif" font-size="14.00" fill="#000000">dcterms:creator</text>
</g>
<!-- L2021&#45;01&#45;12T14:23:11.646Z|Datatype: dcterms:W3CDTF -->
<g id="node4" class="node">
<title>L2021&#45;01&#45;12T14:23:11.646Z|Datatype: dcterms:W3CDTF</title>
<polygon fill="none" stroke="#000000" points="734.5381,-936 734.5381,-982 909.5381,-982 909.5381,-936 734.5381,-936"/>
<text text-anchor="middle" x="822.0381" y="-966.8" font-family="Times,serif" font-size="14.00" fill="#000000">2021&#45;01&#45;12T14:23:11.646Z</text>
<polyline fill="none" stroke="#000000" points="734.5381,-959 909.5381,-959 "/>
<text text-anchor="middle" x="822.0381" y="-943.8" font-family="Times,serif" font-size="14.00" fill="#000000">Datatype: dcterms:W3CDTF</text>
</g>
<!-- Rhttp://localhost:8080/rdf/nc/annotation/f9fb6311&#45;87c2&#45;4f75&#45;8356&#45;28b92219f46e&#45;&gt;L2021&#45;01&#45;12T14:23:11.646Z|Datatype: dcterms:W3CDTF -->
<g id="edge3" class="edge">
<title>Rhttp://localhost:8080/rdf/nc/annotation/f9fb6311&#45;87c2&#45;4f75&#45;8356&#45;28b92219f46e&#45;&gt;L2021&#45;01&#45;12T14:23:11.646Z|Datatype: dcterms:W3CDTF</title>
<path fill="none" stroke="#000000" d="M547.4618,-949.1244C610.3286,-951.3855 673.9855,-953.675 724.1572,-955.4795"/>
<polygon fill="#000000" stroke="#000000" points="724.2107,-958.9836 734.3301,-955.8454 724.4624,-951.9882 724.2107,-958.9836"/>
<text text-anchor="middle" x="649.5479" y="-956.8" font-family="Times,serif" font-size="14.00" fill="#000000">dcterms:date</text>
</g>
<!-- B_:node1euqlam8lx247 -->
<g id="node5" class="node">
<title>B_:node1euqlam8lx247</title>
<ellipse fill="none" stroke="#00ff00" cx="822.0381" cy="-899" rx="18" ry="18"/>
</g>
<!-- Rhttp://localhost:8080/rdf/nc/annotation/f9fb6311&#45;87c2&#45;4f75&#45;8356&#45;28b92219f46e&#45;&gt;B_:node1euqlam8lx247 -->
<g id="edge4" class="edge">
<title>Rhttp://localhost:8080/rdf/nc/annotation/f9fb6311&#45;87c2&#45;4f75&#45;8356&#45;28b92219f46e&#45;&gt;B_:node1euqlam8lx247</title>
<path fill="none" stroke="#000000" d="M475.9423,-925.8614C593.3416,-916.7497 734.7205,-905.777 793.8712,-901.1861"/>
<polygon fill="#000000" stroke="#000000" points="794.2355,-904.6684 803.9347,-900.4051 793.6938,-897.6894 794.2355,-904.6684"/>
<text text-anchor="middle" x="649.5479" y="-917.8" font-family="Times,serif" font-size="14.00" fill="#000000">oa:hasBody</text>
</g>
<!-- B_:node1euqlam8lx246 -->
<g id="node13" class="node">
<title>B_:node1euqlam8lx246</title>
<ellipse fill="none" stroke="#00ff00" cx="822.0381" cy="-695" rx="18" ry="18"/>
</g>
<!-- Rhttp://localhost:8080/rdf/nc/annotation/f9fb6311&#45;87c2&#45;4f75&#45;8356&#45;28b92219f46e&#45;&gt;B_:node1euqlam8lx246 -->
<g id="edge14" class="edge">
<title>Rhttp://localhost:8080/rdf/nc/annotation/f9fb6311&#45;87c2&#45;4f75&#45;8356&#45;28b92219f46e&#45;&gt;B_:node1euqlam8lx246</title>
<path fill="none" stroke="#000000" d="M332.6185,-921.9846C435.0703,-874.4691 710.6116,-746.6777 796.2678,-706.9518"/>
<polygon fill="#000000" stroke="#000000" points="797.9274,-710.0403 805.5266,-702.6577 794.9822,-703.69 797.9274,-710.0403"/>
<text text-anchor="middle" x="649.5479" y="-791.8" font-family="Times,serif" font-size="14.00" fill="#000000">oa:hasTarget</text>
</g>
<!-- Roa:describing -->
<g id="node21" class="node">
<title>Roa:describing</title>
<ellipse fill="none" stroke="#0000ff" cx="822.0381" cy="-641" rx="57.6901" ry="18"/>
<text text-anchor="middle" x="822.0381" y="-637.3" font-family="Times,serif" font-size="14.00" fill="#000000">oa:describing</text>
</g>
<!-- Rhttp://localhost:8080/rdf/nc/annotation/f9fb6311&#45;87c2&#45;4f75&#45;8356&#45;28b92219f46e&#45;&gt;Roa:describing -->
<g id="edge22" class="edge">
<title>Rhttp://localhost:8080/rdf/nc/annotation/f9fb6311&#45;87c2&#45;4f75&#45;8356&#45;28b92219f46e&#45;&gt;Roa:describing</title>
<path fill="none" stroke="#000000" d="M315.7605,-921.7395C375.4551,-873.0769 547.1273,-739.1493 711.5479,-668 727.081,-661.2784 744.5985,-656.031 761.0304,-652.0243"/>
<polygon fill="#000000" stroke="#000000" points="762.1445,-655.3588 771.0938,-649.6877 760.5613,-648.5402 762.1445,-655.3588"/>
<text text-anchor="middle" x="649.5479" y="-719.8" font-family="Times,serif" font-size="14.00" fill="#000000">oa:motivatedBy</text>
</g>
<!-- Rfoaf:Person -->
<g id="node22" class="node">
<title>Rfoaf:Person</title>
<ellipse fill="none" stroke="#0000ff" cx="1284.1621" cy="-1168" rx="51.1914" ry="18"/>
<text text-anchor="middle" x="1284.1621" y="-1164.3" font-family="Times,serif" font-size="14.00" fill="#000000">foaf:Person</text>
</g>
<!-- Rorcid:0000&#45;0002&#45;2146&#45;4803&#45;&gt;Rfoaf:Person -->
<g id="edge23" class="edge">
<title>Rorcid:0000&#45;0002&#45;2146&#45;4803&#45;&gt;Rfoaf:Person</title>
<path fill="none" stroke="#000000" d="M909.5669,-1030.1246C918.115,-1034.076 926.0151,-1039.2504 932.5283,-1046 959.9467,-1074.4138 921.2539,-1106.5024 950.5283,-1133 1027.2335,-1202.4295 1158.1384,-1192.355 1231.0861,-1179.6835"/>
<polygon fill="#000000" stroke="#000000" points="1231.7693,-1183.1168 1240.983,-1177.8863 1230.5186,-1176.2294 1231.7693,-1183.1168"/>
<text text-anchor="middle" x="1017.0283" y="-1188.8" font-family="Times,serif" font-size="14.00" fill="#000000">rdf:type</text>
</g>
<!-- Rdcterms:Location -->
<g id="node6" class="node">
<title>Rdcterms:Location</title>
<ellipse fill="none" stroke="#0000ff" cx="1284.1621" cy="-1114" rx="72.5877" ry="18"/>
<text text-anchor="middle" x="1284.1621" y="-1110.3" font-family="Times,serif" font-size="14.00" fill="#000000">dcterms:Location</text>
</g>
<!-- B_:node1euqlam8lx247&#45;&gt;Rdcterms:Location -->
<g id="edge5" class="edge">
<title>B_:node1euqlam8lx247&#45;&gt;Rdcterms:Location</title>
<path fill="none" stroke="#000000" d="M840.0805,-897.8481C864.9345,-897.346 909.2648,-900.5514 932.5283,-927 976.5825,-977.086 903.2012,-1028.9943 950.5283,-1076 984.7452,-1109.9845 1114.0883,-1115.9137 1201.3082,-1115.8562"/>
<polygon fill="#000000" stroke="#000000" points="1201.4734,-1119.3557 1211.4617,-1115.8226 1201.4502,-1112.3558 1201.4734,-1119.3557"/>
<text text-anchor="middle" x="1017.0283" y="-1114.8" font-family="Times,serif" font-size="14.00" fill="#000000">rdf:type</text>
</g>
<!-- Rdwc:Location -->
<g id="node7" class="node">
<title>Rdwc:Location</title>
<ellipse fill="none" stroke="#0000ff" cx="1284.1621" cy="-1060" rx="59.2899" ry="18"/>
<text text-anchor="middle" x="1284.1621" y="-1056.3" font-family="Times,serif" font-size="14.00" fill="#000000">dwc:Location</text>
</g>
<!-- B_:node1euqlam8lx247&#45;&gt;Rdwc:Location -->
<g id="edge6" class="edge">
<title>B_:node1euqlam8lx247&#45;&gt;Rdwc:Location</title>
<path fill="none" stroke="#000000" d="M840.4114,-898.3174C864.8312,-898.4553 907.7712,-902.5034 932.5283,-927 954.7513,-948.9891 928.2871,-973.0293 950.5283,-995 1021.0973,-1064.7109 1142.8373,-1070.8996 1218.1234,-1066.93"/>
<polygon fill="#000000" stroke="#000000" points="1218.6572,-1070.4043 1228.4281,-1066.308 1218.2354,-1063.417 1218.6572,-1070.4043"/>
<text text-anchor="middle" x="1017.0283" y="-1060.8" font-family="Times,serif" font-size="14.00" fill="#000000">rdf:type</text>
</g>
<!-- Roa:TextualBody -->
<g id="node8" class="node">
<title>Roa:TextualBody</title>
<ellipse fill="none" stroke="#0000ff" cx="1284.1621" cy="-1006" rx="67.6881" ry="18"/>
<text text-anchor="middle" x="1284.1621" y="-1002.3" font-family="Times,serif" font-size="14.00" fill="#000000">oa:TextualBody</text>
</g>
<!-- B_:node1euqlam8lx247&#45;&gt;Roa:TextualBody -->
<g id="edge7" class="edge">
<title>B_:node1euqlam8lx247&#45;&gt;Roa:TextualBody</title>
<path fill="none" stroke="#000000" d="M840.3049,-900.0278C863.4703,-902.0944 903.8451,-908.3112 932.5283,-927 943.4039,-934.0861 939.4502,-943.2347 950.5283,-950 1008.8503,-985.617 1034.1557,-967.5558 1101.5283,-979 1138.4697,-985.275 1179.7585,-991.4496 1213.72,-996.3067"/>
<polygon fill="#000000" stroke="#000000" points="1213.6185,-999.8274 1224.0117,-997.7705 1214.6042,-992.8972 1213.6185,-999.8274"/>
<text text-anchor="middle" x="1017.0283" y="-979.8" font-family="Times,serif" font-size="14.00" fill="#000000">rdf:type</text>
</g>
<!-- Ltext/plain -->
<g id="node9" class="node">
<title>Ltext/plain</title>
<polygon fill="none" stroke="#000000" points="1250.1621,-933 1250.1621,-969 1318.1621,-969 1318.1621,-933 1250.1621,-933"/>
<text text-anchor="middle" x="1284.1621" y="-947.3" font-family="Times,serif" font-size="14.00" fill="#000000">text/plain</text>
</g>
<!-- B_:node1euqlam8lx247&#45;&gt;Ltext/plain -->
<g id="edge8" class="edge">
<title>B_:node1euqlam8lx247&#45;&gt;Ltext/plain</title>
<path fill="none" stroke="#000000" d="M839.8866,-901.7167C864.6756,-905.4404 910.9472,-912.2125 950.5283,-917 1054.0117,-929.5168 1175.9295,-941.1554 1239.8851,-947.0223"/>
<polygon fill="#000000" stroke="#000000" points="1239.7373,-950.5233 1250.0143,-947.9476 1240.3742,-943.5523 1239.7373,-950.5233"/>
<text text-anchor="middle" x="1017.0283" y="-934.8" font-family="Times,serif" font-size="14.00" fill="#000000">dcterms:format</text>
</g>
<!-- Rgn:1648473 -->
<g id="node10" class="node">
<title>Rgn:1648473</title>
<ellipse fill="none" stroke="#0000ff" cx="1284.1621" cy="-896" rx="52.7911" ry="18"/>
<text text-anchor="middle" x="1284.1621" y="-892.3" font-family="Times,serif" font-size="14.00" fill="#000000">gn:1648473</text>
</g>
<!-- B_:node1euqlam8lx247&#45;&gt;Rgn:1648473 -->
<g id="edge9" class="edge">
<title>B_:node1euqlam8lx247&#45;&gt;Rgn:1648473</title>
<path fill="none" stroke="#000000" d="M840.1539,-898.8824C903.1205,-898.4736 1114.4294,-897.1019 1221.2346,-896.4085"/>
<polygon fill="#000000" stroke="#000000" points="1221.2589,-899.9085 1231.2359,-896.3436 1221.2134,-892.9087 1221.2589,-899.9085"/>
<text text-anchor="middle" x="1017.0283" y="-901.8" font-family="Times,serif" font-size="14.00" fill="#000000">dcterms:identifier</text>
</g>
<!-- B_:node1euqlam8lx247&#45;&gt;Rgn:1648473 -->
<g id="edge11" class="edge">
<title>B_:node1euqlam8lx247&#45;&gt;Rgn:1648473</title>
<path fill="none" stroke="#000000" d="M839.8021,-895.1596C864.4931,-890.0368 910.6516,-881.2372 950.5283,-878 1046.4321,-870.2146 1158.1274,-880.0755 1224.8854,-887.9834"/>
<polygon fill="#000000" stroke="#000000" points="1224.8563,-891.5054 1235.2045,-889.2328 1225.6977,-884.5561 1224.8563,-891.5054"/>
<text text-anchor="middle" x="1017.0283" y="-881.8" font-family="Times,serif" font-size="14.00" fill="#000000">dwciri:inDescribedPlace</text>
</g>
<!-- Riso:dut -->
<g id="node11" class="node">
<title>Riso:dut</title>
<ellipse fill="none" stroke="#0000ff" cx="1284.1621" cy="-842" rx="34.394" ry="18"/>
<text text-anchor="middle" x="1284.1621" y="-838.3" font-family="Times,serif" font-size="14.00" fill="#000000">iso:dut</text>
</g>
<!-- B_:node1euqlam8lx247&#45;&gt;Riso:dut -->
<g id="edge10" class="edge">
<title>B_:node1euqlam8lx247&#45;&gt;Riso:dut</title>
<path fill="none" stroke="#000000" d="M838.6801,-891.743C862.799,-881.6186 909.1203,-863.6394 950.5283,-856 1052.5976,-837.1692 1175.0792,-837.8297 1239.5016,-839.9291"/>
<polygon fill="#000000" stroke="#000000" points="1239.59,-843.4343 1249.7075,-840.2899 1239.8375,-836.4387 1239.59,-843.4343"/>
<text text-anchor="middle" x="1017.0283" y="-859.8" font-family="Times,serif" font-size="14.00" fill="#000000">dcterms:language</text>
</g>
<!-- LBuitenzorg|Language: dut -->
<g id="node12" class="node">
<title>LBuitenzorg|Language: dut</title>
<polygon fill="none" stroke="#000000" points="1236.6621,-759 1236.6621,-805 1331.6621,-805 1331.6621,-759 1236.6621,-759"/>
<text text-anchor="middle" x="1284.1621" y="-789.8" font-family="Times,serif" font-size="14.00" fill="#000000">Buitenzorg</text>
<polyline fill="none" stroke="#000000" points="1236.6621,-782 1331.6621,-782 "/>
<text text-anchor="middle" x="1284.1621" y="-766.8" font-family="Times,serif" font-size="14.00" fill="#000000">Language: dut</text>
</g>
<!-- B_:node1euqlam8lx247&#45;&gt;LBuitenzorg|Language: dut -->
<g id="edge12" class="edge">
<title>B_:node1euqlam8lx247&#45;&gt;LBuitenzorg|Language: dut</title>
<path fill="none" stroke="#000000" d="M836.439,-887.5449C859.1887,-870.132 905.4987,-837.4037 950.5283,-822 1043.588,-790.1662 1158.7781,-782.9134 1226.5876,-781.6718"/>
<polygon fill="#000000" stroke="#000000" points="1226.6985,-785.1706 1236.6465,-781.5256 1226.5967,-778.1714 1226.6985,-785.1706"/>
<text text-anchor="middle" x="1017.0283" y="-825.8" font-family="Times,serif" font-size="14.00" fill="#000000">dwc:verbatimLocality</text>
</g>
<!-- B_:node1euqlam8lx247&#45;&gt;LBuitenzorg|Language: dut -->
<g id="edge13" class="edge">
<title>B_:node1euqlam8lx247&#45;&gt;LBuitenzorg|Language: dut</title>
<path fill="none" stroke="#000000" d="M831.7344,-883.6849C850.5718,-855.5556 895.1668,-796.4863 950.5283,-774 1041.2858,-737.1369 1157.6864,-752.4544 1226.2731,-767.1075"/>
<polygon fill="#000000" stroke="#000000" points="1225.9286,-770.6156 1236.4478,-769.3518 1227.4365,-763.7799 1225.9286,-770.6156"/>
<text text-anchor="middle" x="1017.0283" y="-777.8" font-family="Times,serif" font-size="14.00" fill="#000000">rdf:value</text>
</g>
<!-- Roa:Target -->
<g id="node14" class="node">
<title>Roa:Target</title>
<ellipse fill="none" stroke="#0000ff" cx="1284.1621" cy="-722" rx="44.393" ry="18"/>
<text text-anchor="middle" x="1284.1621" y="-718.3" font-family="Times,serif" font-size="14.00" fill="#000000">oa:Target</text>
</g>
<!-- B_:node1euqlam8lx246&#45;&gt;Roa:Target -->
<g id="edge15" class="edge">
<title>B_:node1euqlam8lx246&#45;&gt;Roa:Target</title>
<path fill="none" stroke="#000000" d="M840.1539,-696.0584C904.9296,-699.843 1126.6939,-712.7998 1230.1756,-718.8458"/>
<polygon fill="#000000" stroke="#000000" points="1230.2205,-722.3543 1240.4076,-719.4436 1230.6288,-715.3662 1230.2205,-722.3543"/>
<text text-anchor="middle" x="1017.0283" y="-713.8" font-family="Times,serif" font-size="14.00" fill="#000000">rdf:type</text>
</g>
<!-- Limage/jpeg -->
<g id="node15" class="node">
<title>Limage/jpeg</title>
<polygon fill="none" stroke="#000000" points="1245.6621,-649 1245.6621,-685 1322.6621,-685 1322.6621,-649 1245.6621,-649"/>
<text text-anchor="middle" x="1284.1621" y="-663.3" font-family="Times,serif" font-size="14.00" fill="#000000">image/jpeg</text>
</g>
<!-- B_:node1euqlam8lx246&#45;&gt;Limage/jpeg -->
<g id="edge16" class="edge">
<title>B_:node1euqlam8lx246&#45;&gt;Limage/jpeg</title>
<path fill="none" stroke="#000000" d="M840.3157,-693.0308C865.213,-690.4084 911.1945,-685.7785 950.5283,-683 1051.6242,-675.8588 1170.1829,-671.0109 1235.2424,-668.6534"/>
<polygon fill="#000000" stroke="#000000" points="1235.7299,-672.1383 1245.5983,-668.2829 1235.4796,-665.1428 1235.7299,-672.1383"/>
<text text-anchor="middle" x="1017.0283" y="-686.8" font-family="Times,serif" font-size="14.00" fill="#000000">dcterms:format</text>
</g>
<!-- B_:node1euqlam8lx249 -->
<g id="node16" class="node">
<title>B_:node1euqlam8lx249</title>
<ellipse fill="none" stroke="#00ff00" cx="1284.1621" cy="-612" rx="18" ry="18"/>
</g>
<!-- B_:node1euqlam8lx246&#45;&gt;B_:node1euqlam8lx249 -->
<g id="edge17" class="edge">
<title>B_:node1euqlam8lx246&#45;&gt;B_:node1euqlam8lx249</title>
<path fill="none" stroke="#000000" d="M840.2669,-692.5377C862.699,-689.0639 901.6117,-681.5785 932.5283,-668 941.3314,-664.1337 941.5283,-659.3831 950.5283,-656 1057.9056,-615.6364 1196.8319,-611.3055 1255.7477,-611.4789"/>
<polygon fill="#000000" stroke="#000000" points="1256.0849,-614.9815 1266.1121,-611.5601 1256.1398,-607.9817 1256.0849,-614.9815"/>
<text text-anchor="middle" x="1017.0283" y="-659.8" font-family="Times,serif" font-size="14.00" fill="#000000">oa:hasSelector</text>
</g>
<!-- Rimg:MMNAT01_AF_NNM001001033_003.jpg -->
<g id="node20" class="node">
<title>Rimg:MMNAT01_AF_NNM001001033_003.jpg</title>
<ellipse fill="none" stroke="#0000ff" cx="1284.1621" cy="-449" rx="182.7677" ry="18"/>
<text text-anchor="middle" x="1284.1621" y="-445.3" font-family="Times,serif" font-size="14.00" fill="#000000">img:MMNAT01_AF_NNM001001033_003.jpg</text>
</g>
<!-- B_:node1euqlam8lx246&#45;&gt;Rimg:MMNAT01_AF_NNM001001033_003.jpg -->
<g id="edge21" class="edge">
<title>B_:node1euqlam8lx246&#45;&gt;Rimg:MMNAT01_AF_NNM001001033_003.jpg</title>
<path fill="none" stroke="#000000" d="M840.312,-695.7815C864.6192,-695.7882 907.432,-692.0424 932.5283,-668 953.2479,-648.1504 931.8956,-627.8204 950.5283,-606 1014.5799,-530.9902 1122.3915,-489.3993 1198.0829,-468.1721"/>
<polygon fill="#000000" stroke="#000000" points="1199.3567,-471.4522 1208.0769,-465.4349 1197.5075,-464.7008 1199.3567,-471.4522"/>
<text text-anchor="middle" x="1017.0283" y="-609.8" font-family="Times,serif" font-size="14.00" fill="#000000">oa:hasSource</text>
</g>
<!-- Roa:FragmentSelector -->
<g id="node17" class="node">
<title>Roa:FragmentSelector</title>
<ellipse fill="none" stroke="#0000ff" cx="1904.7958" cy="-694" rx="84.485" ry="18"/>
<text text-anchor="middle" x="1904.7958" y="-690.3" font-family="Times,serif" font-size="14.00" fill="#000000">oa:FragmentSelector</text>
</g>
<!-- B_:node1euqlam8lx249&#45;&gt;Roa:FragmentSelector -->
<g id="edge18" class="edge">
<title>B_:node1euqlam8lx249&#45;&gt;Roa:FragmentSelector</title>
<path fill="none" stroke="#000000" d="M1302.2479,-613.6146C1335.2717,-616.7961 1407.4048,-624.8267 1466.7958,-639 1474.9983,-640.9575 1476.6105,-642.9723 1484.7958,-645 1595.1507,-672.3381 1725.6934,-684.5321 1811.612,-689.9001"/>
<polygon fill="#000000" stroke="#000000" points="1811.4101,-693.3942 1821.6037,-690.5061 1811.834,-686.407 1811.4101,-693.3942"/>
<text text-anchor="middle" x="1542.2958" y="-670.8" font-family="Times,serif" font-size="14.00" fill="#000000">rdf:type</text>
</g>
<!-- Rmf: -->
<g id="node18" class="node">
<title>Rmf:</title>
<ellipse fill="none" stroke="#0000ff" cx="1904.7958" cy="-640" rx="27" ry="18"/>
<text text-anchor="middle" x="1904.7958" y="-636.3" font-family="Times,serif" font-size="14.00" fill="#000000">mf:</text>
</g>
<!-- B_:node1euqlam8lx249&#45;&gt;Rmf: -->
<g id="edge19" class="edge">
<title>B_:node1euqlam8lx249&#45;&gt;Rmf:</title>
<path fill="none" stroke="#000000" d="M1302.4003,-612.8228C1387.8318,-616.6771 1749.2289,-632.9816 1867.3038,-638.3085"/>
<polygon fill="#000000" stroke="#000000" points="1867.4874,-641.8203 1877.635,-638.7746 1867.8029,-634.8274 1867.4874,-641.8203"/>
<text text-anchor="middle" x="1542.2958" y="-629.8" font-family="Times,serif" font-size="14.00" fill="#000000">dcterms:conformsTo</text>
</g>
<!-- Lxywh=0.783509282340829,0.018142248666184174,0.050441826215022134,0.017488954344624445 -->
<g id="node19" class="node">
<title>Lxywh=0.783509282340829,0.018142248666184174,0.050441826215022134,0.017488954344624445</title>
<polygon fill="none" stroke="#000000" points="1617.7958,-567 1617.7958,-603 2191.7958,-603 2191.7958,-567 1617.7958,-567"/>
<text text-anchor="middle" x="1904.7958" y="-581.3" font-family="Times,serif" font-size="14.00" fill="#000000">xywh=0.783509282340829,0.018142248666184174,0.050441826215022134,0.017488954344624445</text>
</g>
<!-- B_:node1euqlam8lx249&#45;&gt;Lxywh=0.783509282340829,0.018142248666184174,0.050441826215022134,0.017488954344624445 -->
<g id="edge20" class="edge">
<title>B_:node1euqlam8lx249&#45;&gt;Lxywh=0.783509282340829,0.018142248666184174,0.050441826215022134,0.017488954344624445</title>
<path fill="none" stroke="#000000" d="M1302.1463,-611.1812C1337.2573,-609.5853 1417.3924,-605.9561 1484.7958,-603 1524.4538,-601.2607 1566.219,-599.448 1607.4059,-597.6715"/>
<polygon fill="#000000" stroke="#000000" points="1607.7405,-601.1604 1617.5805,-597.2328 1607.439,-594.1669 1607.7405,-601.1604"/>
<text text-anchor="middle" x="1542.2958" y="-606.8" font-family="Times,serif" font-size="14.00" fill="#000000">rdf:value</text>
</g>
<!-- Rdcmitype:StillImage -->
<g id="node23" class="node">
<title>Rdcmitype:StillImage</title>
<ellipse fill="none" stroke="#0000ff" cx="1904.7958" cy="-530" rx="83.3857" ry="18"/>
<text text-anchor="middle" x="1904.7958" y="-526.3" font-family="Times,serif" font-size="14.00" fill="#000000">dcmitype:StillImage</text>
</g>
<!-- Rimg:MMNAT01_AF_NNM001001033_003.jpg&#45;&gt;Rdcmitype:StillImage -->
<g id="edge24" class="edge">
<title>Rimg:MMNAT01_AF_NNM001001033_003.jpg&#45;&gt;Rdcmitype:StillImage</title>
<path fill="none" stroke="#000000" d="M1377.5419,-464.4867C1411.3251,-470.0558 1449.7711,-476.3545 1484.7958,-482 1543.8767,-491.523 1558.4209,-495.5271 1617.7958,-503 1684.1947,-511.3569 1759.5342,-518.3503 1816.3573,-523.1244"/>
<polygon fill="#000000" stroke="#000000" points="1816.1302,-526.6175 1826.3863,-523.9602 1816.7116,-519.6417 1816.1302,-526.6175"/>
<text text-anchor="middle" x="1542.2958" y="-504.8" font-family="Times,serif" font-size="14.00" fill="#000000">rdf:type</text>
</g>
<!-- Rdsw:Token -->
<g id="node24" class="node">
<title>Rdsw:Token</title>
<ellipse fill="none" stroke="#0000ff" cx="1904.7958" cy="-476" rx="50.0912" ry="18"/>
<text text-anchor="middle" x="1904.7958" y="-472.3" font-family="Times,serif" font-size="14.00" fill="#000000">dsw:Token</text>
</g>
<!-- Rimg:MMNAT01_AF_NNM001001033_003.jpg&#45;&gt;Rdsw:Token -->
<g id="edge25" class="edge">
<title>Rimg:MMNAT01_AF_NNM001001033_003.jpg&#45;&gt;Rdsw:Token</title>
<path fill="none" stroke="#000000" d="M1451.2969,-456.271C1581.6277,-461.9409 1755.116,-469.4883 1845.0488,-473.4008"/>
<polygon fill="#000000" stroke="#000000" points="1844.9244,-476.8986 1855.0671,-473.8366 1845.2287,-469.9052 1844.9244,-476.8986"/>
<text text-anchor="middle" x="1542.2958" y="-466.8" font-family="Times,serif" font-size="14.00" fill="#000000">rdf:type</text>
</g>
<!-- Rdwc:HumanObservation -->
<g id="node25" class="node">
<title>Rdwc:HumanObservation</title>
<ellipse fill="none" stroke="#0000ff" cx="1904.7958" cy="-422" rx="96.6831" ry="18"/>
<text text-anchor="middle" x="1904.7958" y="-418.3" font-family="Times,serif" font-size="14.00" fill="#000000">dwc:HumanObservation</text>
</g>
<!-- Rimg:MMNAT01_AF_NNM001001033_003.jpg&#45;&gt;Rdwc:HumanObservation -->
<g id="edge26" class="edge">
<title>Rimg:MMNAT01_AF_NNM001001033_003.jpg&#45;&gt;Rdwc:HumanObservation</title>
<path fill="none" stroke="#000000" d="M1446.764,-440.7666C1459.6315,-440.1544 1472.4277,-439.5585 1484.7958,-439 1591.979,-434.1598 1714.5789,-429.272 1799.5352,-425.9877"/>
<polygon fill="#000000" stroke="#000000" points="1799.8479,-429.4784 1809.7055,-425.5953 1799.578,-422.4836 1799.8479,-429.4784"/>
<text text-anchor="middle" x="1542.2958" y="-442.8" font-family="Times,serif" font-size="14.00" fill="#000000">rdf:type</text>
</g>
<!-- Roa:Source -->
<g id="node26" class="node">
<title>Roa:Source</title>
<ellipse fill="none" stroke="#0000ff" cx="1904.7958" cy="-368" rx="46.2923" ry="18"/>
<text text-anchor="middle" x="1904.7958" y="-364.3" font-family="Times,serif" font-size="14.00" fill="#000000">oa:Source</text>
</g>
<!-- Rimg:MMNAT01_AF_NNM001001033_003.jpg&#45;&gt;Roa:Source -->
<g id="edge27" class="edge">
<title>Rimg:MMNAT01_AF_NNM001001033_003.jpg&#45;&gt;Roa:Source</title>
<path fill="none" stroke="#000000" d="M1377.5419,-433.5133C1411.3251,-427.9442 1449.7711,-421.6455 1484.7958,-416 1543.8767,-406.477 1558.4209,-402.4729 1617.7958,-395 1698.1302,-384.8892 1791.552,-376.7743 1849.4342,-372.1708"/>
<polygon fill="#000000" stroke="#000000" points="1849.7713,-375.6552 1859.4652,-371.3799 1849.2211,-368.6768 1849.7713,-375.6552"/>
<text text-anchor="middle" x="1542.2958" y="-419.8" font-family="Times,serif" font-size="14.00" fill="#000000">rdf:type</text>
</g>
<!-- Rfoaf:Image -->
<g id="node27" class="node">
<title>Rfoaf:Image</title>
<ellipse fill="none" stroke="#0000ff" cx="1904.7958" cy="-314" rx="50.0912" ry="18"/>
<text text-anchor="middle" x="1904.7958" y="-310.3" font-family="Times,serif" font-size="14.00" fill="#000000">foaf:Image</text>
</g>
<!-- Rimg:MMNAT01_AF_NNM001001033_003.jpg&#45;&gt;Rfoaf:Image -->
<g id="edge28" class="edge">
<title>Rimg:MMNAT01_AF_NNM001001033_003.jpg&#45;&gt;Rfoaf:Image</title>
<path fill="none" stroke="#000000" d="M1331.7391,-431.5357C1372.2302,-416.881 1432.046,-395.7226 1484.7958,-379 1543.3981,-360.4221 1557.3803,-352.3718 1617.7958,-341 1695.3948,-326.3938 1786.3584,-319.5358 1844.7374,-316.4235"/>
<polygon fill="#000000" stroke="#000000" points="1845.083,-319.9105 1854.8905,-315.9025 1844.7242,-312.9197 1845.083,-319.9105"/>
<text text-anchor="middle" x="1542.2958" y="-382.8" font-family="Times,serif" font-size="14.00" fill="#000000">rdf:type</text>
</g>
</g>
</svg>
