<?xml version="1.0" encoding="UTF-8" standalone="no"?>
<!DOCTYPE svg PUBLIC "-//W3C//DTD SVG 1.1//EN"
 "http://www.w3.org/Graphics/SVG/1.1/DTD/svg11.dtd">
<!-- Generated by graphviz version 2.40.1 (20161225.0304)
 -->
<!-- Title: %3 Pages: 1 -->
<svg width="2172pt" height="1146pt"
 viewBox="0.00 0.00 2172.19 1146.00" xmlns="http://www.w3.org/2000/svg" xmlns:xlink="http://www.w3.org/1999/xlink">
<g id="graph0" class="graph" transform="scale(1 1) rotate(0) translate(4 1142)">
<title>%3</title>
<polygon fill="#ffffff" stroke="transparent" points="-4,4 -4,-1142 2168.1949,-1142 2168.1949,4 -4,4"/>
<text text-anchor="middle" x="1082.0975" y="-248.8" font-family="Times,serif" font-size="14.00" fill="#000000">Model:</text>
<text text-anchor="middle" x="1082.0975" y="-233.8" font-family="Times,serif" font-size="14.00" fill="#000000">(Unknown)</text>
<text text-anchor="middle" x="1082.0975" y="-202.8" font-family="Times,serif" font-size="14.00" fill="#000000">Namespaces:</text>
<text text-anchor="middle" x="1082.0975" y="-187.8" font-family="Times,serif" font-size="14.00" fill="#000000">dcmitype: http://purl.org/dc/dcmitype/</text>
<text text-anchor="middle" x="1082.0975" y="-172.8" font-family="Times,serif" font-size="14.00" fill="#000000">dcterms: http://purl.org/dc/terms/</text>
<text text-anchor="middle" x="1082.0975" y="-157.8" font-family="Times,serif" font-size="14.00" fill="#000000">dsw: http://purl.org/dsw/</text>
<text text-anchor="middle" x="1082.0975" y="-142.8" font-family="Times,serif" font-size="14.00" fill="#000000">dwc: http://rs.tdwg.org/dwc/terms/</text>
<text text-anchor="middle" x="1082.0975" y="-127.8" font-family="Times,serif" font-size="14.00" fill="#000000">foaf: http://xmlns.com/foaf/0.1/</text>
<text text-anchor="middle" x="1082.0975" y="-112.8" font-family="Times,serif" font-size="14.00" fill="#000000">gbif: http://www.gbif.org/species/</text>
<text text-anchor="middle" x="1082.0975" y="-97.8" font-family="Times,serif" font-size="14.00" fill="#000000">img: http://localhost:8080/semanticAnnotator/files/</text>
<text text-anchor="middle" x="1082.0975" y="-82.8" font-family="Times,serif" font-size="14.00" fill="#000000">iso: http://iso639&#45;3.sil.org/code/</text>
<text text-anchor="middle" x="1082.0975" y="-67.8" font-family="Times,serif" font-size="14.00" fill="#000000">mf: http://www.w3.org/TR/media&#45;frags/</text>
<text text-anchor="middle" x="1082.0975" y="-52.8" font-family="Times,serif" font-size="14.00" fill="#000000">oa: http://www.w3.org/ns/oa#</text>
<text text-anchor="middle" x="1082.0975" y="-37.8" font-family="Times,serif" font-size="14.00" fill="#000000">obo: http://purl.obolibrary.org/obo/</text>
<text text-anchor="middle" x="1082.0975" y="-22.8" font-family="Times,serif" font-size="14.00" fill="#000000">orcid: http://orcid.org/</text>
<text text-anchor="middle" x="1082.0975" y="-7.8" font-family="Times,serif" font-size="14.00" fill="#000000">rdf: http://www.w3.org/1999/02/22&#45;rdf&#45;syntax&#45;ns#</text>
<!-- Rhttp://localhost:8080/rdf/nc/annotation/81ad3dc6&#45;e3e7&#45;4892&#45;9d15&#45;19896d53796d -->
<g id="node1" class="node">
<title>Rhttp://localhost:8080/rdf/nc/annotation/81ad3dc6&#45;e3e7&#45;4892&#45;9d15&#45;19896d53796d</title>
<ellipse fill="none" stroke="#0000ff" cx="298.9735" cy="-918" rx="298.9469" ry="18"/>
<text text-anchor="middle" x="298.9735" y="-914.3" font-family="Times,serif" font-size="14.00" fill="#000000">http://localhost:8080/rdf/nc/annotation/81ad3dc6&#45;e3e7&#45;4892&#45;9d15&#45;19896d53796d</text>
</g>
<!-- Roa:Annotation -->
<g id="node2" class="node">
<title>Roa:Annotation</title>
<ellipse fill="none" stroke="#0000ff" cx="832.4371" cy="-1051" rx="61.1893" ry="18"/>
<text text-anchor="middle" x="832.4371" y="-1047.3" font-family="Times,serif" font-size="14.00" fill="#000000">oa:Annotation</text>
</g>
<!-- Rhttp://localhost:8080/rdf/nc/annotation/81ad3dc6&#45;e3e7&#45;4892&#45;9d15&#45;19896d53796d&#45;&gt;Roa:Annotation -->
<g id="edge1" class="edge">
<title>Rhttp://localhost:8080/rdf/nc/annotation/81ad3dc6&#45;e3e7&#45;4892&#45;9d15&#45;19896d53796d&#45;&gt;Roa:Annotation</title>
<path fill="none" stroke="#000000" d="M368.5491,-935.5693C452.3448,-956.6988 597.387,-993.1734 721.9469,-1024 739.2525,-1028.2828 758.0937,-1032.9029 775.2351,-1037.0896"/>
<polygon fill="#000000" stroke="#000000" points="774.5622,-1040.5281 785.1069,-1039.4988 776.2218,-1033.7276 774.5622,-1040.5281"/>
<text text-anchor="middle" x="659.9469" y="-1021.8" font-family="Times,serif" font-size="14.00" fill="#000000">rdf:type</text>
</g>
<!-- Rorcid:0000&#45;0002&#45;2146&#45;4803 -->
<g id="node3" class="node">
<title>Rorcid:0000&#45;0002&#45;2146&#45;4803</title>
<ellipse fill="none" stroke="#0000ff" cx="832.4371" cy="-997" rx="110.4804" ry="18"/>
<text text-anchor="middle" x="832.4371" y="-993.3" font-family="Times,serif" font-size="14.00" fill="#000000">orcid:0000&#45;0002&#45;2146&#45;4803</text>
</g>
<!-- Rhttp://localhost:8080/rdf/nc/annotation/81ad3dc6&#45;e3e7&#45;4892&#45;9d15&#45;19896d53796d&#45;&gt;Rorcid:0000&#45;0002&#45;2146&#45;4803 -->
<g id="edge2" class="edge">
<title>Rhttp://localhost:8080/rdf/nc/annotation/81ad3dc6&#45;e3e7&#45;4892&#45;9d15&#45;19896d53796d&#45;&gt;Rorcid:0000&#45;0002&#45;2146&#45;4803</title>
<path fill="none" stroke="#000000" d="M411.7813,-934.7056C509.6282,-949.1956 649.4877,-969.9072 740.621,-983.4031"/>
<polygon fill="#000000" stroke="#000000" points="740.255,-986.8869 750.6598,-984.8897 741.2805,-979.9625 740.255,-986.8869"/>
<text text-anchor="middle" x="659.9469" y="-980.8" font-family="Times,serif" font-size="14.00" fill="#000000">dcterms:creator</text>
</g>
<!-- L2021&#45;01&#45;12T14:23:11.646Z|Datatype: dcterms:W3CDTF -->
<g id="node4" class="node">
<title>L2021&#45;01&#45;12T14:23:11.646Z|Datatype: dcterms:W3CDTF</title>
<polygon fill="none" stroke="#000000" points="744.9371,-914 744.9371,-960 919.9371,-960 919.9371,-914 744.9371,-914"/>
<text text-anchor="middle" x="832.4371" y="-944.8" font-family="Times,serif" font-size="14.00" fill="#000000">2021&#45;01&#45;12T14:23:11.646Z</text>
<polyline fill="none" stroke="#000000" points="744.9371,-937 919.9371,-937 "/>
<text text-anchor="middle" x="832.4371" y="-921.8" font-family="Times,serif" font-size="14.00" fill="#000000">Datatype: dcterms:W3CDTF</text>
</g>
<!-- Rhttp://localhost:8080/rdf/nc/annotation/81ad3dc6&#45;e3e7&#45;4892&#45;9d15&#45;19896d53796d&#45;&gt;L2021&#45;01&#45;12T14:23:11.646Z|Datatype: dcterms:W3CDTF -->
<g id="edge3" class="edge">
<title>Rhttp://localhost:8080/rdf/nc/annotation/81ad3dc6&#45;e3e7&#45;4892&#45;9d15&#45;19896d53796d&#45;&gt;L2021&#45;01&#45;12T14:23:11.646Z|Datatype: dcterms:W3CDTF</title>
<path fill="none" stroke="#000000" d="M556.3297,-927.1661C619.8926,-929.4299 684.1662,-931.7191 734.6884,-933.5186"/>
<polygon fill="#000000" stroke="#000000" points="734.8116,-937.0251 744.9298,-933.8833 735.0608,-930.0295 734.8116,-937.0251"/>
<text text-anchor="middle" x="659.9469" y="-935.8" font-family="Times,serif" font-size="14.00" fill="#000000">dcterms:date</text>
</g>
<!-- B_:node1f22neqo5x146 -->
<g id="node5" class="node">
<title>B_:node1f22neqo5x146</title>
<ellipse fill="none" stroke="#00ff00" cx="832.4371" cy="-877" rx="18" ry="18"/>
</g>
<!-- Rhttp://localhost:8080/rdf/nc/annotation/81ad3dc6&#45;e3e7&#45;4892&#45;9d15&#45;19896d53796d&#45;&gt;B_:node1f22neqo5x146 -->
<g id="edge4" class="edge">
<title>Rhttp://localhost:8080/rdf/nc/annotation/81ad3dc6&#45;e3e7&#45;4892&#45;9d15&#45;19896d53796d&#45;&gt;B_:node1f22neqo5x146</title>
<path fill="none" stroke="#000000" d="M483.6821,-903.804C602.1467,-894.6992 744.5242,-883.7567 804.0801,-879.1794"/>
<polygon fill="#000000" stroke="#000000" points="804.5098,-882.6568 814.2122,-878.4007 803.9734,-875.6774 804.5098,-882.6568"/>
<text text-anchor="middle" x="659.9469" y="-895.8" font-family="Times,serif" font-size="14.00" fill="#000000">oa:hasBody</text>
</g>
<!-- B_:node1f22neqo5x145 -->
<g id="node12" class="node">
<title>B_:node1f22neqo5x145</title>
<ellipse fill="none" stroke="#00ff00" cx="832.4371" cy="-695" rx="18" ry="18"/>
</g>
<!-- Rhttp://localhost:8080/rdf/nc/annotation/81ad3dc6&#45;e3e7&#45;4892&#45;9d15&#45;19896d53796d&#45;&gt;B_:node1f22neqo5x145 -->
<g id="edge12" class="edge">
<title>Rhttp://localhost:8080/rdf/nc/annotation/81ad3dc6&#45;e3e7&#45;4892&#45;9d15&#45;19896d53796d&#45;&gt;B_:node1f22neqo5x145</title>
<path fill="none" stroke="#000000" d="M341.7273,-900.1279C447.7983,-855.7878 720.6419,-741.733 806.3018,-705.9252"/>
<polygon fill="#000000" stroke="#000000" points="807.6979,-709.1351 815.5743,-702.0491 804.9981,-702.6767 807.6979,-709.1351"/>
<text text-anchor="middle" x="659.9469" y="-782.8" font-family="Times,serif" font-size="14.00" fill="#000000">oa:hasTarget</text>
</g>
<!-- Roa:describing -->
<g id="node20" class="node">
<title>Roa:describing</title>
<ellipse fill="none" stroke="#0000ff" cx="832.4371" cy="-641" rx="57.6901" ry="18"/>
<text text-anchor="middle" x="832.4371" y="-637.3" font-family="Times,serif" font-size="14.00" fill="#000000">oa:describing</text>
</g>
<!-- Rhttp://localhost:8080/rdf/nc/annotation/81ad3dc6&#45;e3e7&#45;4892&#45;9d15&#45;19896d53796d&#45;&gt;Roa:describing -->
<g id="edge20" class="edge">
<title>Rhttp://localhost:8080/rdf/nc/annotation/81ad3dc6&#45;e3e7&#45;4892&#45;9d15&#45;19896d53796d&#45;&gt;Roa:describing</title>
<path fill="none" stroke="#000000" d="M323.318,-899.9279C386.0359,-854.216 559.6152,-733.0122 721.9469,-668 737.8107,-661.6467 755.5752,-656.5034 772.1427,-652.4781"/>
<polygon fill="#000000" stroke="#000000" points="773.3319,-655.7948 782.2759,-650.1154 771.7423,-648.9776 773.3319,-655.7948"/>
<text text-anchor="middle" x="659.9469" y="-715.8" font-family="Times,serif" font-size="14.00" fill="#000000">oa:motivatedBy</text>
</g>
<!-- Rfoaf:Person -->
<g id="node21" class="node">
<title>Rfoaf:Person</title>
<ellipse fill="none" stroke="#0000ff" cx="1270.5611" cy="-1114" rx="51.1914" ry="18"/>
<text text-anchor="middle" x="1270.5611" y="-1110.3" font-family="Times,serif" font-size="14.00" fill="#000000">foaf:Person</text>
</g>
<!-- Rorcid:0000&#45;0002&#45;2146&#45;4803&#45;&gt;Rfoaf:Person -->
<g id="edge21" class="edge">
<title>Rorcid:0000&#45;0002&#45;2146&#45;4803&#45;&gt;Rfoaf:Person</title>
<path fill="none" stroke="#000000" d="M918.1333,-1008.3969C927.2269,-1012.2752 935.756,-1017.3581 942.9273,-1024 961.7975,-1041.4771 940.9853,-1062.7567 960.9273,-1079 1032.9409,-1137.6568 1147.6272,-1133.3792 1215.3596,-1124.199"/>
<polygon fill="#000000" stroke="#000000" points="1216.0073,-1127.6419 1225.4074,-1122.7543 1215.011,-1120.7132 1216.0073,-1127.6419"/>
<text text-anchor="middle" x="1015.4273" y="-1126.8" font-family="Times,serif" font-size="14.00" fill="#000000">rdf:type</text>
</g>
<!-- Rdwc:Taxon -->
<g id="node6" class="node">
<title>Rdwc:Taxon</title>
<ellipse fill="none" stroke="#0000ff" cx="1270.5611" cy="-1060" rx="50.0912" ry="18"/>
<text text-anchor="middle" x="1270.5611" y="-1056.3" font-family="Times,serif" font-size="14.00" fill="#000000">dwc:Taxon</text>
</g>
<!-- B_:node1f22neqo5x146&#45;&gt;Rdwc:Taxon -->
<g id="edge5" class="edge">
<title>B_:node1f22neqo5x146&#45;&gt;Rdwc:Taxon</title>
<path fill="none" stroke="#000000" d="M850.6075,-876.108C875.1986,-875.9617 918.7698,-879.638 942.9273,-905 970.7613,-934.2217 933.8288,-964.0949 960.9273,-994 1000.5754,-1037.7544 1030.3351,-1019.9785 1087.9273,-1033 1129.0434,-1042.2963 1176.1159,-1049.1669 1212.1729,-1053.6506"/>
<polygon fill="#000000" stroke="#000000" points="1212.1629,-1057.1751 1222.5125,-1054.9087 1213.0085,-1050.2264 1212.1629,-1057.1751"/>
<text text-anchor="middle" x="1015.4273" y="-1032.8" font-family="Times,serif" font-size="14.00" fill="#000000">rdf:type</text>
</g>
<!-- Roa:TextualBody -->
<g id="node7" class="node">
<title>Roa:TextualBody</title>
<ellipse fill="none" stroke="#0000ff" cx="1270.5611" cy="-1006" rx="67.6881" ry="18"/>
<text text-anchor="middle" x="1270.5611" y="-1002.3" font-family="Times,serif" font-size="14.00" fill="#000000">oa:TextualBody</text>
</g>
<!-- B_:node1f22neqo5x146&#45;&gt;Roa:TextualBody -->
<g id="edge6" class="edge">
<title>B_:node1f22neqo5x146&#45;&gt;Roa:TextualBody</title>
<path fill="none" stroke="#000000" d="M850.5547,-877.0706C874.298,-878.0831 916.0676,-883.1413 942.9273,-905 957.1112,-916.5429 946.9495,-930.2085 960.9273,-942 1005.8647,-979.9082 1030.4915,-966.4494 1087.9273,-979 1123.8248,-986.8441 1164.1965,-993.0773 1197.8363,-997.5694"/>
<polygon fill="#000000" stroke="#000000" points="1197.6777,-1001.0784 1208.0477,-998.9074 1198.5872,-994.1378 1197.6777,-1001.0784"/>
<text text-anchor="middle" x="1015.4273" y="-978.8" font-family="Times,serif" font-size="14.00" fill="#000000">rdf:type</text>
</g>
<!-- Ltext/plain -->
<g id="node8" class="node">
<title>Ltext/plain</title>
<polygon fill="none" stroke="#000000" points="1236.5611,-933 1236.5611,-969 1304.5611,-969 1304.5611,-933 1236.5611,-933"/>
<text text-anchor="middle" x="1270.5611" y="-947.3" font-family="Times,serif" font-size="14.00" fill="#000000">text/plain</text>
</g>
<!-- B_:node1f22neqo5x146&#45;&gt;Ltext/plain -->
<g id="edge7" class="edge">
<title>B_:node1f22neqo5x146&#45;&gt;Ltext/plain</title>
<path fill="none" stroke="#000000" d="M850.223,-881.4744C874.9394,-887.5868 921.1272,-898.628 960.9273,-906 1054.8987,-923.406 1165.9508,-938.1416 1226.222,-945.6561"/>
<polygon fill="#000000" stroke="#000000" points="1226.1601,-949.1751 1236.5145,-946.9306 1227.0204,-942.2281 1226.1601,-949.1751"/>
<text text-anchor="middle" x="1015.4273" y="-926.8" font-family="Times,serif" font-size="14.00" fill="#000000">dcterms:format</text>
</g>
<!-- Rgbif:9180402 -->
<g id="node9" class="node">
<title>Rgbif:9180402</title>
<ellipse fill="none" stroke="#0000ff" cx="1270.5611" cy="-896" rx="57.6901" ry="18"/>
<text text-anchor="middle" x="1270.5611" y="-892.3" font-family="Times,serif" font-size="14.00" fill="#000000">gbif:9180402</text>
</g>
<!-- B_:node1f22neqo5x146&#45;&gt;Rgbif:9180402 -->
<g id="edge8" class="edge">
<title>B_:node1f22neqo5x146&#45;&gt;Rgbif:9180402</title>
<path fill="none" stroke="#000000" d="M850.4289,-877.7802C909.508,-880.3423 1099.6596,-888.5886 1202.6924,-893.0568"/>
<polygon fill="#000000" stroke="#000000" points="1202.8485,-896.5667 1212.9908,-893.5034 1203.1518,-889.5733 1202.8485,-896.5667"/>
<text text-anchor="middle" x="1015.4273" y="-890.8" font-family="Times,serif" font-size="14.00" fill="#000000">dcterms:identifier</text>
</g>
<!-- Riso:lat -->
<g id="node10" class="node">
<title>Riso:lat</title>
<ellipse fill="none" stroke="#0000ff" cx="1270.5611" cy="-842" rx="32.4942" ry="18"/>
<text text-anchor="middle" x="1270.5611" y="-838.3" font-family="Times,serif" font-size="14.00" fill="#000000">iso:lat</text>
</g>
<!-- B_:node1f22neqo5x146&#45;&gt;Riso:lat -->
<g id="edge9" class="edge">
<title>B_:node1f22neqo5x146&#45;&gt;Riso:lat</title>
<path fill="none" stroke="#000000" d="M850.7129,-874.7712C875.6081,-871.7896 921.5873,-866.4758 960.9273,-863 1056.1124,-854.5901 1168.0197,-847.7538 1227.7961,-844.3471"/>
<polygon fill="#000000" stroke="#000000" points="1228.1982,-847.83 1237.9846,-843.7709 1227.8029,-840.8412 1228.1982,-847.83"/>
<text text-anchor="middle" x="1015.4273" y="-866.8" font-family="Times,serif" font-size="14.00" fill="#000000">dcterms:language</text>
</g>
<!-- LPteropus minimus|Language: lat -->
<g id="node11" class="node">
<title>LPteropus minimus|Language: lat</title>
<polygon fill="none" stroke="#000000" points="1212.5611,-759 1212.5611,-805 1328.5611,-805 1328.5611,-759 1212.5611,-759"/>
<text text-anchor="middle" x="1270.5611" y="-789.8" font-family="Times,serif" font-size="14.00" fill="#000000">Pteropus minimus</text>
<polyline fill="none" stroke="#000000" points="1212.5611,-782 1328.5611,-782 "/>
<text text-anchor="middle" x="1270.5611" y="-766.8" font-family="Times,serif" font-size="14.00" fill="#000000">Language: lat</text>
</g>
<!-- B_:node1f22neqo5x146&#45;&gt;LPteropus minimus|Language: lat -->
<g id="edge10" class="edge">
<title>B_:node1f22neqo5x146&#45;&gt;LPteropus minimus|Language: lat</title>
<path fill="none" stroke="#000000" d="M849.66,-870.4751C874.0974,-861.4237 920.3774,-845.0405 960.9273,-835 1042.9181,-814.6984 1139.0321,-799.5626 1202.1705,-790.7728"/>
<polygon fill="#000000" stroke="#000000" points="1202.9716,-794.1956 1212.4006,-789.364 1202.0165,-787.261 1202.9716,-794.1956"/>
<text text-anchor="middle" x="1015.4273" y="-838.8" font-family="Times,serif" font-size="14.00" fill="#000000">dwc:scientificName</text>
</g>
<!-- B_:node1f22neqo5x146&#45;&gt;LPteropus minimus|Language: lat -->
<g id="edge11" class="edge">
<title>B_:node1f22neqo5x146&#45;&gt;LPteropus minimus|Language: lat</title>
<path fill="none" stroke="#000000" d="M845.7951,-864.8051C867.841,-845.5582 914.0817,-808.8065 960.9273,-794 1040.8579,-768.7363 1138.2035,-769.7822 1202.1485,-774.4691"/>
<polygon fill="#000000" stroke="#000000" points="1202.2656,-777.9889 1212.5087,-775.2818 1202.8131,-771.0104 1202.2656,-777.9889"/>
<text text-anchor="middle" x="1015.4273" y="-797.8" font-family="Times,serif" font-size="14.00" fill="#000000">rdf:value</text>
</g>
<!-- Robo:TAXRANK_0000006 -->
<g id="node27" class="node">
<title>Robo:TAXRANK_0000006</title>
<ellipse fill="none" stroke="#0000ff" cx="1884.1949" cy="-896" rx="104.7816" ry="18"/>
<text text-anchor="middle" x="1884.1949" y="-892.3" font-family="Times,serif" font-size="14.00" fill="#000000">obo:TAXRANK_0000006</text>
</g>
<!-- Rgbif:9180402&#45;&gt;Robo:TAXRANK_0000006 -->
<g id="edge27" class="edge">
<title>Rgbif:9180402&#45;&gt;Robo:TAXRANK_0000006</title>
<path fill="none" stroke="#000000" d="M1328.5666,-896C1429.3128,-896 1638.3742,-896 1769.3709,-896"/>
<polygon fill="#000000" stroke="#000000" points="1769.4469,-899.5001 1779.4469,-896 1769.4469,-892.5001 1769.4469,-899.5001"/>
<text text-anchor="middle" x="1528.6949" y="-899.8" font-family="Times,serif" font-size="14.00" fill="#000000">dwc:taxonRank</text>
</g>
<!-- Roa:Target -->
<g id="node13" class="node">
<title>Roa:Target</title>
<ellipse fill="none" stroke="#0000ff" cx="1270.5611" cy="-722" rx="44.393" ry="18"/>
<text text-anchor="middle" x="1270.5611" y="-718.3" font-family="Times,serif" font-size="14.00" fill="#000000">oa:Target</text>
</g>
<!-- B_:node1f22neqo5x145&#45;&gt;Roa:Target -->
<g id="edge13" class="edge">
<title>B_:node1f22neqo5x145&#45;&gt;Roa:Target</title>
<path fill="none" stroke="#000000" d="M850.4289,-696.1088C912.2477,-699.9184 1117.5772,-712.5722 1216.4423,-718.6649"/>
<polygon fill="#000000" stroke="#000000" points="1216.3312,-722.1646 1226.5276,-719.2864 1216.7618,-715.1778 1216.3312,-722.1646"/>
<text text-anchor="middle" x="1015.4273" y="-712.8" font-family="Times,serif" font-size="14.00" fill="#000000">rdf:type</text>
</g>
<!-- Limage/jpeg -->
<g id="node14" class="node">
<title>Limage/jpeg</title>
<polygon fill="none" stroke="#000000" points="1232.0611,-649 1232.0611,-685 1309.0611,-685 1309.0611,-649 1232.0611,-649"/>
<text text-anchor="middle" x="1270.5611" y="-663.3" font-family="Times,serif" font-size="14.00" fill="#000000">image/jpeg</text>
</g>
<!-- B_:node1f22neqo5x145&#45;&gt;Limage/jpeg -->
<g id="edge14" class="edge">
<title>B_:node1f22neqo5x145&#45;&gt;Limage/jpeg</title>
<path fill="none" stroke="#000000" d="M850.7163,-693.0522C875.6153,-690.454 921.5988,-685.8514 960.9273,-683 1053.0398,-676.3217 1160.7651,-671.4082 1221.7999,-668.8937"/>
<polygon fill="#000000" stroke="#000000" points="1222.0628,-672.386 1231.9119,-668.4815 1221.7776,-665.3918 1222.0628,-672.386"/>
<text text-anchor="middle" x="1015.4273" y="-686.8" font-family="Times,serif" font-size="14.00" fill="#000000">dcterms:format</text>
</g>
<!-- B_:node1f22neqo5x148 -->
<g id="node15" class="node">
<title>B_:node1f22neqo5x148</title>
<ellipse fill="none" stroke="#00ff00" cx="1270.5611" cy="-612" rx="18" ry="18"/>
</g>
<!-- B_:node1f22neqo5x145&#45;&gt;B_:node1f22neqo5x148 -->
<g id="edge15" class="edge">
<title>B_:node1f22neqo5x145&#45;&gt;B_:node1f22neqo5x148</title>
<path fill="none" stroke="#000000" d="M850.5794,-692.3351C872.9242,-688.6572 911.749,-680.966 942.9273,-668 951.5842,-664.3999 952.1088,-660.1835 960.9273,-657 1060.0804,-621.2063 1186.8372,-613.8206 1242.3691,-612.3421"/>
<polygon fill="#000000" stroke="#000000" points="1242.5762,-615.8385 1252.4965,-612.1185 1242.4216,-608.8402 1242.5762,-615.8385"/>
<text text-anchor="middle" x="1015.4273" y="-660.8" font-family="Times,serif" font-size="14.00" fill="#000000">oa:hasSelector</text>
</g>
<!-- Rimg:MMNAT01_AF_NNM001001033_003.jpg -->
<g id="node19" class="node">
<title>Rimg:MMNAT01_AF_NNM001001033_003.jpg</title>
<ellipse fill="none" stroke="#0000ff" cx="1270.5611" cy="-449" rx="182.7677" ry="18"/>
<text text-anchor="middle" x="1270.5611" y="-445.3" font-family="Times,serif" font-size="14.00" fill="#000000">img:MMNAT01_AF_NNM001001033_003.jpg</text>
</g>
<!-- B_:node1f22neqo5x145&#45;&gt;Rimg:MMNAT01_AF_NNM001001033_003.jpg -->
<g id="edge19" class="edge">
<title>B_:node1f22neqo5x145&#45;&gt;Rimg:MMNAT01_AF_NNM001001033_003.jpg</title>
<path fill="none" stroke="#000000" d="M850.6295,-695.6952C874.8441,-695.6043 917.5524,-691.7481 942.9273,-668 962.3242,-649.8467 943.8672,-631.3649 960.9273,-611 1023.0669,-536.8228 1127.9687,-492.1914 1198.2264,-469.0834"/>
<polygon fill="#000000" stroke="#000000" points="1199.458,-472.3638 1207.9021,-465.9647 1197.3105,-465.7013 1199.458,-472.3638"/>
<text text-anchor="middle" x="1015.4273" y="-614.8" font-family="Times,serif" font-size="14.00" fill="#000000">oa:hasSource</text>
</g>
<!-- Roa:FragmentSelector -->
<g id="node16" class="node">
<title>Roa:FragmentSelector</title>
<ellipse fill="none" stroke="#0000ff" cx="1884.1949" cy="-694" rx="84.485" ry="18"/>
<text text-anchor="middle" x="1884.1949" y="-690.3" font-family="Times,serif" font-size="14.00" fill="#000000">oa:FragmentSelector</text>
</g>
<!-- B_:node1f22neqo5x148&#45;&gt;Roa:FragmentSelector -->
<g id="edge16" class="edge">
<title>B_:node1f22neqo5x148&#45;&gt;Roa:FragmentSelector</title>
<path fill="none" stroke="#000000" d="M1288.6469,-613.6146C1321.6708,-616.7961 1393.8039,-624.8267 1453.1949,-639 1461.3973,-640.9575 1463.0096,-642.9723 1471.1949,-645 1579.1201,-671.7362 1706.6425,-684.0372 1791.1349,-689.5952"/>
<polygon fill="#000000" stroke="#000000" points="1791.0184,-693.0948 1801.2213,-690.2401 1791.4651,-686.1091 1791.0184,-693.0948"/>
<text text-anchor="middle" x="1528.6949" y="-670.8" font-family="Times,serif" font-size="14.00" fill="#000000">rdf:type</text>
</g>
<!-- Rmf: -->
<g id="node17" class="node">
<title>Rmf:</title>
<ellipse fill="none" stroke="#0000ff" cx="1884.1949" cy="-640" rx="27" ry="18"/>
<text text-anchor="middle" x="1884.1949" y="-636.3" font-family="Times,serif" font-size="14.00" fill="#000000">mf:</text>
</g>
<!-- B_:node1f22neqo5x148&#45;&gt;Rmf: -->
<g id="edge17" class="edge">
<title>B_:node1f22neqo5x148&#45;&gt;Rmf:</title>
<path fill="none" stroke="#000000" d="M1288.5937,-612.8228C1372.9656,-616.6727 1729.5708,-632.9445 1846.7269,-638.2903"/>
<polygon fill="#000000" stroke="#000000" points="1846.8343,-641.7988 1856.9835,-638.7583 1847.1535,-634.8061 1846.8343,-641.7988"/>
<text text-anchor="middle" x="1528.6949" y="-629.8" font-family="Times,serif" font-size="14.00" fill="#000000">dcterms:conformsTo</text>
</g>
<!-- Lxywh=0.5517841601392516,0.02345802837896442,0.06701479547432543,0.01914708442123586 -->
<g id="node18" class="node">
<title>Lxywh=0.5517841601392516,0.02345802837896442,0.06701479547432543,0.01914708442123586</title>
<polygon fill="none" stroke="#000000" points="1604.1949,-567 1604.1949,-603 2164.1949,-603 2164.1949,-567 1604.1949,-567"/>
<text text-anchor="middle" x="1884.1949" y="-581.3" font-family="Times,serif" font-size="14.00" fill="#000000">xywh=0.5517841601392516,0.02345802837896442,0.06701479547432543,0.01914708442123586</text>
</g>
<!-- B_:node1f22neqo5x148&#45;&gt;Lxywh=0.5517841601392516,0.02345802837896442,0.06701479547432543,0.01914708442123586 -->
<g id="edge18" class="edge">
<title>B_:node1f22neqo5x148&#45;&gt;Lxywh=0.5517841601392516,0.02345802837896442,0.06701479547432543,0.01914708442123586</title>
<path fill="none" stroke="#000000" d="M1288.5456,-611.1856C1323.6569,-609.5973 1403.7926,-605.9806 1471.1949,-603 1510.8549,-601.2462 1552.6577,-599.4099 1593.8258,-597.6087"/>
<polygon fill="#000000" stroke="#000000" points="1594.157,-601.0977 1603.9945,-597.164 1593.8511,-594.1044 1594.157,-601.0977"/>
<text text-anchor="middle" x="1528.6949" y="-606.8" font-family="Times,serif" font-size="14.00" fill="#000000">rdf:value</text>
</g>
<!-- Rdcmitype:StillImage -->
<g id="node22" class="node">
<title>Rdcmitype:StillImage</title>
<ellipse fill="none" stroke="#0000ff" cx="1884.1949" cy="-530" rx="83.3857" ry="18"/>
<text text-anchor="middle" x="1884.1949" y="-526.3" font-family="Times,serif" font-size="14.00" fill="#000000">dcmitype:StillImage</text>
</g>
<!-- Rimg:MMNAT01_AF_NNM001001033_003.jpg&#45;&gt;Rdcmitype:StillImage -->
<g id="edge22" class="edge">
<title>Rimg:MMNAT01_AF_NNM001001033_003.jpg&#45;&gt;Rdcmitype:StillImage</title>
<path fill="none" stroke="#000000" d="M1363.941,-464.4867C1397.7242,-470.0558 1436.1702,-476.3545 1471.1949,-482 1530.2758,-491.523 1544.8287,-495.4579 1604.1949,-503 1668.1608,-511.1265 1740.6255,-518.0524 1795.8076,-522.8546"/>
<polygon fill="#000000" stroke="#000000" points="1795.6402,-526.3531 1805.9042,-523.7264 1796.2424,-519.379 1795.6402,-526.3531"/>
<text text-anchor="middle" x="1528.6949" y="-504.8" font-family="Times,serif" font-size="14.00" fill="#000000">rdf:type</text>
</g>
<!-- Rdsw:Token -->
<g id="node23" class="node">
<title>Rdsw:Token</title>
<ellipse fill="none" stroke="#0000ff" cx="1884.1949" cy="-476" rx="50.0912" ry="18"/>
<text text-anchor="middle" x="1884.1949" y="-472.3" font-family="Times,serif" font-size="14.00" fill="#000000">dsw:Token</text>
</g>
<!-- Rimg:MMNAT01_AF_NNM001001033_003.jpg&#45;&gt;Rdsw:Token -->
<g id="edge23" class="edge">
<title>Rimg:MMNAT01_AF_NNM001001033_003.jpg&#45;&gt;Rdsw:Token</title>
<path fill="none" stroke="#000000" d="M1437.4287,-456.3422C1565.6183,-461.9826 1735.2889,-469.4481 1824.1158,-473.3565"/>
<polygon fill="#000000" stroke="#000000" points="1824.1347,-476.8606 1834.279,-473.8037 1824.4425,-469.8674 1824.1347,-476.8606"/>
<text text-anchor="middle" x="1528.6949" y="-466.8" font-family="Times,serif" font-size="14.00" fill="#000000">rdf:type</text>
</g>
<!-- Rdwc:HumanObservation -->
<g id="node24" class="node">
<title>Rdwc:HumanObservation</title>
<ellipse fill="none" stroke="#0000ff" cx="1884.1949" cy="-422" rx="96.6831" ry="18"/>
<text text-anchor="middle" x="1884.1949" y="-418.3" font-family="Times,serif" font-size="14.00" fill="#000000">dwc:HumanObservation</text>
</g>
<!-- Rimg:MMNAT01_AF_NNM001001033_003.jpg&#45;&gt;Rdwc:HumanObservation -->
<g id="edge24" class="edge">
<title>Rimg:MMNAT01_AF_NNM001001033_003.jpg&#45;&gt;Rdwc:HumanObservation</title>
<path fill="none" stroke="#000000" d="M1436.9715,-441.5189C1448.5534,-441.0032 1460.0483,-440.4929 1471.1949,-440 1576.0931,-435.3613 1695.9822,-430.1457 1779.4673,-426.5276"/>
<polygon fill="#000000" stroke="#000000" points="1779.6255,-430.0241 1789.4645,-426.0944 1779.3224,-423.0307 1779.6255,-430.0241"/>
<text text-anchor="middle" x="1528.6949" y="-443.8" font-family="Times,serif" font-size="14.00" fill="#000000">rdf:type</text>
</g>
<!-- Roa:Source -->
<g id="node25" class="node">
<title>Roa:Source</title>
<ellipse fill="none" stroke="#0000ff" cx="1884.1949" cy="-368" rx="46.2923" ry="18"/>
<text text-anchor="middle" x="1884.1949" y="-364.3" font-family="Times,serif" font-size="14.00" fill="#000000">oa:Source</text>
</g>
<!-- Rimg:MMNAT01_AF_NNM001001033_003.jpg&#45;&gt;Roa:Source -->
<g id="edge25" class="edge">
<title>Rimg:MMNAT01_AF_NNM001001033_003.jpg&#45;&gt;Roa:Source</title>
<path fill="none" stroke="#000000" d="M1358.4936,-433.1828C1425.6367,-421.4906 1520.5409,-405.7918 1604.1949,-395 1681.7102,-385.0001 1771.7361,-376.9511 1828.3364,-372.3219"/>
<polygon fill="#000000" stroke="#000000" points="1828.8209,-375.7942 1838.5054,-371.4976 1828.2553,-368.8171 1828.8209,-375.7942"/>
<text text-anchor="middle" x="1528.6949" y="-417.8" font-family="Times,serif" font-size="14.00" fill="#000000">rdf:type</text>
</g>
<!-- Rfoaf:Image -->
<g id="node26" class="node">
<title>Rfoaf:Image</title>
<ellipse fill="none" stroke="#0000ff" cx="1884.1949" cy="-314" rx="50.0912" ry="18"/>
<text text-anchor="middle" x="1884.1949" y="-310.3" font-family="Times,serif" font-size="14.00" fill="#000000">foaf:Image</text>
</g>
<!-- Rimg:MMNAT01_AF_NNM001001033_003.jpg&#45;&gt;Rfoaf:Image -->
<g id="edge26" class="edge">
<title>Rimg:MMNAT01_AF_NNM001001033_003.jpg&#45;&gt;Rfoaf:Image</title>
<path fill="none" stroke="#000000" d="M1318.1382,-431.5357C1358.6293,-416.881 1418.445,-395.7226 1471.1949,-379 1529.7971,-360.4221 1543.7927,-352.4422 1604.1949,-341 1679.18,-326.7953 1766.9562,-319.8716 1823.9646,-316.6329"/>
<polygon fill="#000000" stroke="#000000" points="1824.4476,-320.1118 1834.2412,-316.0701 1824.0648,-313.1223 1824.4476,-320.1118"/>
<text text-anchor="middle" x="1528.6949" y="-382.8" font-family="Times,serif" font-size="14.00" fill="#000000">rdf:type</text>
</g>
</g>
</svg>
