<?xml version="1.0" encoding="UTF-8" standalone="no"?>
<!DOCTYPE svg PUBLIC "-//W3C//DTD SVG 1.1//EN"
 "http://www.w3.org/Graphics/SVG/1.1/DTD/svg11.dtd">
<!-- Generated by graphviz version 2.40.1 (20161225.0304)
 -->
<!-- Title: %3 Pages: 1 -->
<svg width="2197pt" height="1190pt"
 viewBox="0.00 0.00 2197.49 1190.00" xmlns="http://www.w3.org/2000/svg" xmlns:xlink="http://www.w3.org/1999/xlink">
<g id="graph0" class="graph" transform="scale(1 1) rotate(0) translate(4 1186)">
<title>%3</title>
<polygon fill="#ffffff" stroke="transparent" points="-4,4 -4,-1186 2193.4948,-1186 2193.4948,4 -4,4"/>
<text text-anchor="middle" x="1094.7474" y="-218.8" font-family="Times,serif" font-size="14.00" fill="#000000">Model:</text>
<text text-anchor="middle" x="1094.7474" y="-203.8" font-family="Times,serif" font-size="14.00" fill="#000000">(Unknown)</text>
<text text-anchor="middle" x="1094.7474" y="-172.8" font-family="Times,serif" font-size="14.00" fill="#000000">Namespaces:</text>
<text text-anchor="middle" x="1094.7474" y="-157.8" font-family="Times,serif" font-size="14.00" fill="#000000">dcmitype: http://purl.org/dc/dcmitype/</text>
<text text-anchor="middle" x="1094.7474" y="-142.8" font-family="Times,serif" font-size="14.00" fill="#000000">dcterms: http://purl.org/dc/terms/</text>
<text text-anchor="middle" x="1094.7474" y="-127.8" font-family="Times,serif" font-size="14.00" fill="#000000">dsw: http://purl.org/dsw/</text>
<text text-anchor="middle" x="1094.7474" y="-112.8" font-family="Times,serif" font-size="14.00" fill="#000000">dwc: http://rs.tdwg.org/dwc/terms/</text>
<text text-anchor="middle" x="1094.7474" y="-97.8" font-family="Times,serif" font-size="14.00" fill="#000000">foaf: http://xmlns.com/foaf/0.1/</text>
<text text-anchor="middle" x="1094.7474" y="-82.8" font-family="Times,serif" font-size="14.00" fill="#000000">img: http://localhost:8080/semanticAnnotator/files/</text>
<text text-anchor="middle" x="1094.7474" y="-67.8" font-family="Times,serif" font-size="14.00" fill="#000000">iso: http://iso639&#45;3.sil.org/code/</text>
<text text-anchor="middle" x="1094.7474" y="-52.8" font-family="Times,serif" font-size="14.00" fill="#000000">mf: http://www.w3.org/TR/media&#45;frags/</text>
<text text-anchor="middle" x="1094.7474" y="-37.8" font-family="Times,serif" font-size="14.00" fill="#000000">oa: http://www.w3.org/ns/oa#</text>
<text text-anchor="middle" x="1094.7474" y="-22.8" font-family="Times,serif" font-size="14.00" fill="#000000">orcid: http://orcid.org/</text>
<text text-anchor="middle" x="1094.7474" y="-7.8" font-family="Times,serif" font-size="14.00" fill="#000000">rdf: http://www.w3.org/1999/02/22&#45;rdf&#45;syntax&#45;ns#</text>
<!-- Rhttp://localhost:8080/rdf/nc/annotation/7d59567b&#45;bb14&#45;4b41&#45;8780&#45;13ed36a099bb -->
<g id="node1" class="node">
<title>Rhttp://localhost:8080/rdf/nc/annotation/7d59567b&#45;bb14&#45;4b41&#45;8780&#45;13ed36a099bb</title>
<ellipse fill="none" stroke="#0000ff" cx="299.6234" cy="-918" rx="299.7469" ry="18"/>
<text text-anchor="middle" x="299.6234" y="-914.3" font-family="Times,serif" font-size="14.00" fill="#000000">http://localhost:8080/rdf/nc/annotation/7d59567b&#45;bb14&#45;4b41&#45;8780&#45;13ed36a099bb</text>
</g>
<!-- Roa:Annotation -->
<g id="node2" class="node">
<title>Roa:Annotation</title>
<ellipse fill="none" stroke="#0000ff" cx="833.737" cy="-1051" rx="61.1893" ry="18"/>
<text text-anchor="middle" x="833.737" y="-1047.3" font-family="Times,serif" font-size="14.00" fill="#000000">oa:Annotation</text>
</g>
<!-- Rhttp://localhost:8080/rdf/nc/annotation/7d59567b&#45;bb14&#45;4b41&#45;8780&#45;13ed36a099bb&#45;&gt;Roa:Annotation -->
<g id="edge1" class="edge">
<title>Rhttp://localhost:8080/rdf/nc/annotation/7d59567b&#45;bb14&#45;4b41&#45;8780&#45;13ed36a099bb&#45;&gt;Roa:Annotation</title>
<path fill="none" stroke="#000000" d="M369.3079,-935.5618C453.2343,-956.6839 598.5012,-993.1514 723.2468,-1024 740.5531,-1028.2797 759.3946,-1032.8988 776.536,-1037.0857"/>
<polygon fill="#000000" stroke="#000000" points="775.8629,-1040.5241 786.4077,-1039.4951 777.5228,-1033.7237 775.8629,-1040.5241"/>
<text text-anchor="middle" x="661.2468" y="-1021.8" font-family="Times,serif" font-size="14.00" fill="#000000">rdf:type</text>
</g>
<!-- Rorcid:0000&#45;0002&#45;2146&#45;4803 -->
<g id="node3" class="node">
<title>Rorcid:0000&#45;0002&#45;2146&#45;4803</title>
<ellipse fill="none" stroke="#0000ff" cx="833.737" cy="-997" rx="110.4804" ry="18"/>
<text text-anchor="middle" x="833.737" y="-993.3" font-family="Times,serif" font-size="14.00" fill="#000000">orcid:0000&#45;0002&#45;2146&#45;4803</text>
</g>
<!-- Rhttp://localhost:8080/rdf/nc/annotation/7d59567b&#45;bb14&#45;4b41&#45;8780&#45;13ed36a099bb&#45;&gt;Rorcid:0000&#45;0002&#45;2146&#45;4803 -->
<g id="edge2" class="edge">
<title>Rhttp://localhost:8080/rdf/nc/annotation/7d59567b&#45;bb14&#45;4b41&#45;8780&#45;13ed36a099bb&#45;&gt;Rorcid:0000&#45;0002&#45;2146&#45;4803</title>
<path fill="none" stroke="#000000" d="M412.5687,-934.7056C510.5348,-949.1956 650.5647,-969.9072 741.809,-983.4031"/>
<polygon fill="#000000" stroke="#000000" points="741.4556,-986.8888 751.8601,-984.8897 742.4798,-979.9641 741.4556,-986.8888"/>
<text text-anchor="middle" x="661.2468" y="-980.8" font-family="Times,serif" font-size="14.00" fill="#000000">dcterms:creator</text>
</g>
<!-- L2021&#45;01&#45;12T14:23:11.646Z|Datatype: dcterms:W3CDTF -->
<g id="node4" class="node">
<title>L2021&#45;01&#45;12T14:23:11.646Z|Datatype: dcterms:W3CDTF</title>
<polygon fill="none" stroke="#000000" points="746.237,-914 746.237,-960 921.237,-960 921.237,-914 746.237,-914"/>
<text text-anchor="middle" x="833.737" y="-944.8" font-family="Times,serif" font-size="14.00" fill="#000000">2021&#45;01&#45;12T14:23:11.646Z</text>
<polyline fill="none" stroke="#000000" points="746.237,-937 921.237,-937 "/>
<text text-anchor="middle" x="833.737" y="-921.8" font-family="Times,serif" font-size="14.00" fill="#000000">Datatype: dcterms:W3CDTF</text>
</g>
<!-- Rhttp://localhost:8080/rdf/nc/annotation/7d59567b&#45;bb14&#45;4b41&#45;8780&#45;13ed36a099bb&#45;&gt;L2021&#45;01&#45;12T14:23:11.646Z|Datatype: dcterms:W3CDTF -->
<g id="edge3" class="edge">
<title>Rhttp://localhost:8080/rdf/nc/annotation/7d59567b&#45;bb14&#45;4b41&#45;8780&#45;13ed36a099bb&#45;&gt;L2021&#45;01&#45;12T14:23:11.646Z|Datatype: dcterms:W3CDTF</title>
<path fill="none" stroke="#000000" d="M557.6842,-927.18C621.142,-929.4374 685.2777,-931.7189 735.7379,-933.5139"/>
<polygon fill="#000000" stroke="#000000" points="735.8495,-937.02 745.9676,-933.8778 736.0984,-930.0244 735.8495,-937.02"/>
<text text-anchor="middle" x="661.2468" y="-935.8" font-family="Times,serif" font-size="14.00" fill="#000000">dcterms:date</text>
</g>
<!-- B_:node1f26ai8ibx38 -->
<g id="node5" class="node">
<title>B_:node1f26ai8ibx38</title>
<ellipse fill="none" stroke="#00ff00" cx="833.737" cy="-877" rx="18" ry="18"/>
</g>
<!-- Rhttp://localhost:8080/rdf/nc/annotation/7d59567b&#45;bb14&#45;4b41&#45;8780&#45;13ed36a099bb&#45;&gt;B_:node1f26ai8ibx38 -->
<g id="edge4" class="edge">
<title>Rhttp://localhost:8080/rdf/nc/annotation/7d59567b&#45;bb14&#45;4b41&#45;8780&#45;13ed36a099bb&#45;&gt;B_:node1f26ai8ibx38</title>
<path fill="none" stroke="#000000" d="M484.5571,-903.804C603.1661,-894.6992 745.717,-883.7567 805.3454,-879.1794"/>
<polygon fill="#000000" stroke="#000000" points="805.7871,-882.6559 815.4899,-878.4007 805.2513,-875.6764 805.7871,-882.6559"/>
<text text-anchor="middle" x="661.2468" y="-895.8" font-family="Times,serif" font-size="14.00" fill="#000000">oa:hasBody</text>
</g>
<!-- B_:node1f26ai8ibx37 -->
<g id="node13" class="node">
<title>B_:node1f26ai8ibx37</title>
<ellipse fill="none" stroke="#00ff00" cx="833.737" cy="-665" rx="18" ry="18"/>
</g>
<!-- Rhttp://localhost:8080/rdf/nc/annotation/7d59567b&#45;bb14&#45;4b41&#45;8780&#45;13ed36a099bb&#45;&gt;B_:node1f26ai8ibx37 -->
<g id="edge13" class="edge">
<title>Rhttp://localhost:8080/rdf/nc/annotation/7d59567b&#45;bb14&#45;4b41&#45;8780&#45;13ed36a099bb&#45;&gt;B_:node1f26ai8ibx37</title>
<path fill="none" stroke="#000000" d="M337.6074,-900.0077C440.4154,-851.3094 722.1663,-717.849 808.352,-677.0244"/>
<polygon fill="#000000" stroke="#000000" points="809.8847,-680.1713 817.4238,-672.7273 806.8881,-673.8451 809.8847,-680.1713"/>
<text text-anchor="middle" x="661.2468" y="-764.8" font-family="Times,serif" font-size="14.00" fill="#000000">oa:hasTarget</text>
</g>
<!-- Roa:describing -->
<g id="node21" class="node">
<title>Roa:describing</title>
<ellipse fill="none" stroke="#0000ff" cx="833.737" cy="-611" rx="57.6901" ry="18"/>
<text text-anchor="middle" x="833.737" y="-607.3" font-family="Times,serif" font-size="14.00" fill="#000000">oa:describing</text>
</g>
<!-- Rhttp://localhost:8080/rdf/nc/annotation/7d59567b&#45;bb14&#45;4b41&#45;8780&#45;13ed36a099bb&#45;&gt;Roa:describing -->
<g id="edge21" class="edge">
<title>Rhttp://localhost:8080/rdf/nc/annotation/7d59567b&#45;bb14&#45;4b41&#45;8780&#45;13ed36a099bb&#45;&gt;Roa:describing</title>
<path fill="none" stroke="#000000" d="M320.9679,-899.84C380.4792,-850.1499 554.9535,-710.8163 723.2468,-638 738.7803,-631.2791 756.2979,-626.032 772.7297,-622.0252"/>
<polygon fill="#000000" stroke="#000000" points="773.8439,-625.3597 782.7931,-619.6886 772.2606,-618.5411 773.8439,-625.3597"/>
<text text-anchor="middle" x="661.2468" y="-690.8" font-family="Times,serif" font-size="14.00" fill="#000000">oa:motivatedBy</text>
</g>
<!-- Rfoaf:Person -->
<g id="node22" class="node">
<title>Rfoaf:Person</title>
<ellipse fill="none" stroke="#0000ff" cx="1295.861" cy="-1149" rx="51.1914" ry="18"/>
<text text-anchor="middle" x="1295.861" y="-1145.3" font-family="Times,serif" font-size="14.00" fill="#000000">foaf:Person</text>
</g>
<!-- Rorcid:0000&#45;0002&#45;2146&#45;4803&#45;&gt;Rfoaf:Person -->
<g id="edge22" class="edge">
<title>Rorcid:0000&#45;0002&#45;2146&#45;4803&#45;&gt;Rfoaf:Person</title>
<path fill="none" stroke="#000000" d="M921.3104,-1008.0817C929.8504,-1012.0409 937.7364,-1017.2288 944.2272,-1024 972.4556,-1053.4476 932.075,-1086.5256 962.2272,-1114 1038.805,-1183.7767 1170.0486,-1173.4827 1243.0145,-1160.7033"/>
<polygon fill="#000000" stroke="#000000" points="1243.7054,-1164.1351 1252.9118,-1158.8917 1242.445,-1157.2495 1243.7054,-1164.1351"/>
<text text-anchor="middle" x="1028.7272" y="-1170.8" font-family="Times,serif" font-size="14.00" fill="#000000">rdf:type</text>
</g>
<!-- Rdcmitype:Event -->
<g id="node6" class="node">
<title>Rdcmitype:Event</title>
<ellipse fill="none" stroke="#0000ff" cx="1295.861" cy="-1095" rx="66.8882" ry="18"/>
<text text-anchor="middle" x="1295.861" y="-1091.3" font-family="Times,serif" font-size="14.00" fill="#000000">dcmitype:Event</text>
</g>
<!-- B_:node1f26ai8ibx38&#45;&gt;Rdcmitype:Event -->
<g id="edge5" class="edge">
<title>B_:node1f26ai8ibx38&#45;&gt;Rdcmitype:Event</title>
<path fill="none" stroke="#000000" d="M852.1107,-875.9196C876.9377,-875.5547 920.7814,-878.9786 944.2272,-905 981.5044,-946.3721 925.0446,-987.543 962.2272,-1029 995.7883,-1066.4191 1132.282,-1083.2586 1219.948,-1090.3411"/>
<polygon fill="#000000" stroke="#000000" points="1219.8795,-1093.8463 1230.122,-1091.1371 1220.4256,-1086.8676 1219.8795,-1093.8463"/>
<text text-anchor="middle" x="1028.7272" y="-1078.8" font-family="Times,serif" font-size="14.00" fill="#000000">rdf:type</text>
</g>
<!-- Rdwc:Event -->
<g id="node7" class="node">
<title>Rdwc:Event</title>
<ellipse fill="none" stroke="#0000ff" cx="1295.861" cy="-1041" rx="48.1917" ry="18"/>
<text text-anchor="middle" x="1295.861" y="-1037.3" font-family="Times,serif" font-size="14.00" fill="#000000">dwc:Event</text>
</g>
<!-- B_:node1f26ai8ibx38&#45;&gt;Rdwc:Event -->
<g id="edge6" class="edge">
<title>B_:node1f26ai8ibx38&#45;&gt;Rdwc:Event</title>
<path fill="none" stroke="#000000" d="M851.7329,-876.2783C876.1215,-876.3296 919.4589,-880.2341 944.2272,-905 967.2474,-928.0179 939.188,-953.0011 962.2272,-976 1011.2044,-1024.8914 1045.3575,-1000.4783 1113.2272,-1014 1155.2838,-1022.3789 1203.2652,-1029.3745 1239.4911,-1034.1441"/>
<polygon fill="#000000" stroke="#000000" points="1239.4907,-1037.6734 1249.8582,-1035.4907 1240.3924,-1030.7317 1239.4907,-1037.6734"/>
<text text-anchor="middle" x="1028.7272" y="-1013.8" font-family="Times,serif" font-size="14.00" fill="#000000">rdf:type</text>
</g>
<!-- Roa:TextualBody -->
<g id="node8" class="node">
<title>Roa:TextualBody</title>
<ellipse fill="none" stroke="#0000ff" cx="1295.861" cy="-987" rx="67.6881" ry="18"/>
<text text-anchor="middle" x="1295.861" y="-983.3" font-family="Times,serif" font-size="14.00" fill="#000000">oa:TextualBody</text>
</g>
<!-- B_:node1f26ai8ibx38&#45;&gt;Roa:TextualBody -->
<g id="edge7" class="edge">
<title>B_:node1f26ai8ibx38&#45;&gt;Roa:TextualBody</title>
<path fill="none" stroke="#000000" d="M851.7214,-877.8158C874.9468,-879.6556 915.7601,-885.6297 944.2272,-905 955.5467,-912.7023 950.7111,-922.595 962.2272,-930 1019.7789,-967.0065 1045.8076,-948.3265 1113.2272,-960 1150.0054,-966.3681 1191.1155,-972.5296 1225.0058,-977.3548"/>
<polygon fill="#000000" stroke="#000000" points="1224.8873,-980.8728 1235.279,-978.8081 1225.8678,-973.9418 1224.8873,-980.8728"/>
<text text-anchor="middle" x="1028.7272" y="-960.8" font-family="Times,serif" font-size="14.00" fill="#000000">rdf:type</text>
</g>
<!-- Ltext/plain -->
<g id="node9" class="node">
<title>Ltext/plain</title>
<polygon fill="none" stroke="#000000" points="1261.861,-914 1261.861,-950 1329.861,-950 1329.861,-914 1261.861,-914"/>
<text text-anchor="middle" x="1295.861" y="-928.3" font-family="Times,serif" font-size="14.00" fill="#000000">text/plain</text>
</g>
<!-- B_:node1f26ai8ibx38&#45;&gt;Ltext/plain -->
<g id="edge8" class="edge">
<title>B_:node1f26ai8ibx38&#45;&gt;Ltext/plain</title>
<path fill="none" stroke="#000000" d="M851.5826,-879.8655C876.3683,-883.7935 922.6361,-890.9388 962.2272,-896 1065.6878,-909.2261 1187.6147,-921.56 1251.5779,-927.781"/>
<polygon fill="#000000" stroke="#000000" points="1251.4174,-931.2817 1261.7083,-928.7622 1252.0923,-924.3143 1251.4174,-931.2817"/>
<text text-anchor="middle" x="1028.7272" y="-914.8" font-family="Times,serif" font-size="14.00" fill="#000000">dcterms:format</text>
</g>
<!-- Riso:ger -->
<g id="node10" class="node">
<title>Riso:ger</title>
<ellipse fill="none" stroke="#0000ff" cx="1295.861" cy="-877" rx="34.394" ry="18"/>
<text text-anchor="middle" x="1295.861" y="-873.3" font-family="Times,serif" font-size="14.00" fill="#000000">iso:ger</text>
</g>
<!-- B_:node1f26ai8ibx38&#45;&gt;Riso:ger -->
<g id="edge9" class="edge">
<title>B_:node1f26ai8ibx38&#45;&gt;Riso:ger</title>
<path fill="none" stroke="#000000" d="M851.8528,-877C918.5908,-877 1151.9727,-877 1250.9455,-877"/>
<polygon fill="#000000" stroke="#000000" points="1251.2145,-880.5001 1261.2145,-877 1251.2145,-873.5001 1251.2145,-880.5001"/>
<text text-anchor="middle" x="1028.7272" y="-880.8" font-family="Times,serif" font-size="14.00" fill="#000000">dcterms:language</text>
</g>
<!-- L1821&#45;04&#45;10|Datatype: dcterms:W3CDTF -->
<g id="node11" class="node">
<title>L1821&#45;04&#45;10|Datatype: dcterms:W3CDTF</title>
<polygon fill="none" stroke="#000000" points="1208.361,-794 1208.361,-840 1383.361,-840 1383.361,-794 1208.361,-794"/>
<text text-anchor="middle" x="1295.861" y="-824.8" font-family="Times,serif" font-size="14.00" fill="#000000">1821&#45;04&#45;10</text>
<polyline fill="none" stroke="#000000" points="1208.361,-817 1383.361,-817 "/>
<text text-anchor="middle" x="1295.861" y="-801.8" font-family="Times,serif" font-size="14.00" fill="#000000">Datatype: dcterms:W3CDTF</text>
</g>
<!-- B_:node1f26ai8ibx38&#45;&gt;L1821&#45;04&#45;10|Datatype: dcterms:W3CDTF -->
<g id="edge10" class="edge">
<title>B_:node1f26ai8ibx38&#45;&gt;L1821&#45;04&#45;10|Datatype: dcterms:W3CDTF</title>
<path fill="none" stroke="#000000" d="M851.5936,-874.2181C876.3921,-870.3871 922.6746,-863.3538 962.2272,-858 1041.575,-847.2595 1131.7062,-836.2545 1198.2687,-828.3538"/>
<polygon fill="#000000" stroke="#000000" points="1198.8099,-831.8143 1208.3287,-827.1621 1197.9863,-824.8629 1198.8099,-831.8143"/>
<text text-anchor="middle" x="1028.7272" y="-861.8" font-family="Times,serif" font-size="14.00" fill="#000000">dwc:eventDate</text>
</g>
<!-- L10 April 1821|Language: ger -->
<g id="node12" class="node">
<title>L10 April 1821|Language: ger</title>
<polygon fill="none" stroke="#000000" points="1248.361,-729 1248.361,-775 1343.361,-775 1343.361,-729 1248.361,-729"/>
<text text-anchor="middle" x="1295.861" y="-759.8" font-family="Times,serif" font-size="14.00" fill="#000000">10 April 1821</text>
<polyline fill="none" stroke="#000000" points="1248.361,-752 1343.361,-752 "/>
<text text-anchor="middle" x="1295.861" y="-736.8" font-family="Times,serif" font-size="14.00" fill="#000000">Language: ger</text>
</g>
<!-- B_:node1f26ai8ibx38&#45;&gt;L10 April 1821|Language: ger -->
<g id="edge11" class="edge">
<title>B_:node1f26ai8ibx38&#45;&gt;L10 April 1821|Language: ger</title>
<path fill="none" stroke="#000000" d="M850.033,-868.9947C874.1063,-857.4073 920.8001,-835.8377 962.2272,-822 1056.601,-790.4767 1170.9098,-770.1677 1238.2689,-759.9391"/>
<polygon fill="#000000" stroke="#000000" points="1238.8906,-763.3852 1248.2623,-758.4434 1237.8544,-756.4623 1238.8906,-763.3852"/>
<text text-anchor="middle" x="1028.7272" y="-825.8" font-family="Times,serif" font-size="14.00" fill="#000000">dwc:verbatimEventDate</text>
</g>
<!-- B_:node1f26ai8ibx38&#45;&gt;L10 April 1821|Language: ger -->
<g id="edge12" class="edge">
<title>B_:node1f26ai8ibx38&#45;&gt;L10 April 1821|Language: ger</title>
<path fill="none" stroke="#000000" d="M844.9651,-862.6785C865.2716,-838.0305 910.7962,-788.2872 962.2272,-768 1053.4309,-732.0243 1169.6883,-736.5889 1238.1264,-743.8371"/>
<polygon fill="#000000" stroke="#000000" points="1237.9519,-747.3393 1248.2783,-744.9695 1238.7279,-740.3824 1237.9519,-747.3393"/>
<text text-anchor="middle" x="1028.7272" y="-771.8" font-family="Times,serif" font-size="14.00" fill="#000000">rdf:value</text>
</g>
<!-- Roa:Target -->
<g id="node14" class="node">
<title>Roa:Target</title>
<ellipse fill="none" stroke="#0000ff" cx="1295.861" cy="-692" rx="44.393" ry="18"/>
<text text-anchor="middle" x="1295.861" y="-688.3" font-family="Times,serif" font-size="14.00" fill="#000000">oa:Target</text>
</g>
<!-- B_:node1f26ai8ibx37&#45;&gt;Roa:Target -->
<g id="edge14" class="edge">
<title>B_:node1f26ai8ibx37&#45;&gt;Roa:Target</title>
<path fill="none" stroke="#000000" d="M851.8528,-666.0584C916.6286,-669.843 1138.3929,-682.7998 1241.8745,-688.8458"/>
<polygon fill="#000000" stroke="#000000" points="1241.9194,-692.3543 1252.1066,-689.4436 1242.3278,-685.3662 1241.9194,-692.3543"/>
<text text-anchor="middle" x="1028.7272" y="-683.8" font-family="Times,serif" font-size="14.00" fill="#000000">rdf:type</text>
</g>
<!-- Limage/jpeg -->
<g id="node15" class="node">
<title>Limage/jpeg</title>
<polygon fill="none" stroke="#000000" points="1257.361,-619 1257.361,-655 1334.361,-655 1334.361,-619 1257.361,-619"/>
<text text-anchor="middle" x="1295.861" y="-633.3" font-family="Times,serif" font-size="14.00" fill="#000000">image/jpeg</text>
</g>
<!-- B_:node1f26ai8ibx37&#45;&gt;Limage/jpeg -->
<g id="edge15" class="edge">
<title>B_:node1f26ai8ibx37&#45;&gt;Limage/jpeg</title>
<path fill="none" stroke="#000000" d="M852.0147,-663.0308C876.9119,-660.4084 922.8935,-655.7785 962.2272,-653 1063.3232,-645.8588 1181.8818,-641.0109 1246.9413,-638.6534"/>
<polygon fill="#000000" stroke="#000000" points="1247.4289,-642.1383 1257.2973,-638.2829 1247.1785,-635.1428 1247.4289,-642.1383"/>
<text text-anchor="middle" x="1028.7272" y="-656.8" font-family="Times,serif" font-size="14.00" fill="#000000">dcterms:format</text>
</g>
<!-- B_:node1f26ai8ibx40 -->
<g id="node16" class="node">
<title>B_:node1f26ai8ibx40</title>
<ellipse fill="none" stroke="#00ff00" cx="1295.861" cy="-582" rx="18" ry="18"/>
</g>
<!-- B_:node1f26ai8ibx37&#45;&gt;B_:node1f26ai8ibx40 -->
<g id="edge16" class="edge">
<title>B_:node1f26ai8ibx37&#45;&gt;B_:node1f26ai8ibx40</title>
<path fill="none" stroke="#000000" d="M851.9658,-662.5377C874.398,-659.0639 913.3107,-651.5785 944.2272,-638 953.0304,-634.1337 953.2273,-629.3831 962.2272,-626 1069.6045,-585.6364 1208.5308,-581.3055 1267.4467,-581.4789"/>
<polygon fill="#000000" stroke="#000000" points="1267.7839,-584.9815 1277.811,-581.5601 1267.8388,-577.9817 1267.7839,-584.9815"/>
<text text-anchor="middle" x="1028.7272" y="-629.8" font-family="Times,serif" font-size="14.00" fill="#000000">oa:hasSelector</text>
</g>
<!-- Rimg:MMNAT01_AF_NNM001001033_004.jpg -->
<g id="node20" class="node">
<title>Rimg:MMNAT01_AF_NNM001001033_004.jpg</title>
<ellipse fill="none" stroke="#0000ff" cx="1295.861" cy="-419" rx="182.7677" ry="18"/>
<text text-anchor="middle" x="1295.861" y="-415.3" font-family="Times,serif" font-size="14.00" fill="#000000">img:MMNAT01_AF_NNM001001033_004.jpg</text>
</g>
<!-- B_:node1f26ai8ibx37&#45;&gt;Rimg:MMNAT01_AF_NNM001001033_004.jpg -->
<g id="edge20" class="edge">
<title>B_:node1f26ai8ibx37&#45;&gt;Rimg:MMNAT01_AF_NNM001001033_004.jpg</title>
<path fill="none" stroke="#000000" d="M852.011,-665.7815C876.3182,-665.7882 919.131,-662.0424 944.2272,-638 964.9469,-618.1504 943.5945,-597.8204 962.2272,-576 1026.2788,-500.9902 1134.0905,-459.3993 1209.7818,-438.1721"/>
<polygon fill="#000000" stroke="#000000" points="1211.0556,-441.4522 1219.7759,-435.4349 1209.2065,-434.7008 1211.0556,-441.4522"/>
<text text-anchor="middle" x="1028.7272" y="-579.8" font-family="Times,serif" font-size="14.00" fill="#000000">oa:hasSource</text>
</g>
<!-- Roa:FragmentSelector -->
<g id="node17" class="node">
<title>Roa:FragmentSelector</title>
<ellipse fill="none" stroke="#0000ff" cx="1909.4948" cy="-664" rx="84.485" ry="18"/>
<text text-anchor="middle" x="1909.4948" y="-660.3" font-family="Times,serif" font-size="14.00" fill="#000000">oa:FragmentSelector</text>
</g>
<!-- B_:node1f26ai8ibx40&#45;&gt;Roa:FragmentSelector -->
<g id="edge17" class="edge">
<title>B_:node1f26ai8ibx40&#45;&gt;Roa:FragmentSelector</title>
<path fill="none" stroke="#000000" d="M1313.9468,-583.6146C1346.9707,-586.7961 1419.1038,-594.8267 1478.4948,-609 1486.6972,-610.9575 1488.3095,-612.9723 1496.4948,-615 1604.42,-641.7362 1731.9424,-654.0372 1816.4348,-659.5952"/>
<polygon fill="#000000" stroke="#000000" points="1816.3182,-663.0948 1826.5212,-660.2401 1816.765,-656.1091 1816.3182,-663.0948"/>
<text text-anchor="middle" x="1553.9948" y="-640.8" font-family="Times,serif" font-size="14.00" fill="#000000">rdf:type</text>
</g>
<!-- Rmf: -->
<g id="node18" class="node">
<title>Rmf:</title>
<ellipse fill="none" stroke="#0000ff" cx="1909.4948" cy="-610" rx="27" ry="18"/>
<text text-anchor="middle" x="1909.4948" y="-606.3" font-family="Times,serif" font-size="14.00" fill="#000000">mf:</text>
</g>
<!-- B_:node1f26ai8ibx40&#45;&gt;Rmf: -->
<g id="edge18" class="edge">
<title>B_:node1f26ai8ibx40&#45;&gt;Rmf:</title>
<path fill="none" stroke="#000000" d="M1313.8936,-582.8228C1398.2655,-586.6727 1754.8707,-602.9445 1872.0267,-608.2903"/>
<polygon fill="#000000" stroke="#000000" points="1872.1342,-611.7988 1882.2834,-608.7583 1872.4534,-604.8061 1872.1342,-611.7988"/>
<text text-anchor="middle" x="1553.9948" y="-599.8" font-family="Times,serif" font-size="14.00" fill="#000000">dcterms:conformsTo</text>
</g>
<!-- Lxywh=0.672574339819018,0.030544471154748218,0.06203976435935199,0.01601620029455081 -->
<g id="node19" class="node">
<title>Lxywh=0.672574339819018,0.030544471154748218,0.06203976435935199,0.01601620029455081</title>
<polygon fill="none" stroke="#000000" points="1629.4948,-537 1629.4948,-573 2189.4948,-573 2189.4948,-537 1629.4948,-537"/>
<text text-anchor="middle" x="1909.4948" y="-551.3" font-family="Times,serif" font-size="14.00" fill="#000000">xywh=0.672574339819018,0.030544471154748218,0.06203976435935199,0.01601620029455081</text>
</g>
<!-- B_:node1f26ai8ibx40&#45;&gt;Lxywh=0.672574339819018,0.030544471154748218,0.06203976435935199,0.01601620029455081 -->
<g id="edge19" class="edge">
<title>B_:node1f26ai8ibx40&#45;&gt;Lxywh=0.672574339819018,0.030544471154748218,0.06203976435935199,0.01601620029455081</title>
<path fill="none" stroke="#000000" d="M1313.8454,-581.1856C1348.9567,-579.5973 1429.0925,-575.9806 1496.4948,-573 1536.1548,-571.2462 1577.9576,-569.4099 1619.1257,-567.6087"/>
<polygon fill="#000000" stroke="#000000" points="1619.4569,-571.0977 1629.2944,-567.164 1619.151,-564.1044 1619.4569,-571.0977"/>
<text text-anchor="middle" x="1553.9948" y="-576.8" font-family="Times,serif" font-size="14.00" fill="#000000">rdf:value</text>
</g>
<!-- Rdcmitype:StillImage -->
<g id="node23" class="node">
<title>Rdcmitype:StillImage</title>
<ellipse fill="none" stroke="#0000ff" cx="1909.4948" cy="-500" rx="83.3857" ry="18"/>
<text text-anchor="middle" x="1909.4948" y="-496.3" font-family="Times,serif" font-size="14.00" fill="#000000">dcmitype:StillImage</text>
</g>
<!-- Rimg:MMNAT01_AF_NNM001001033_004.jpg&#45;&gt;Rdcmitype:StillImage -->
<g id="edge23" class="edge">
<title>Rimg:MMNAT01_AF_NNM001001033_004.jpg&#45;&gt;Rdcmitype:StillImage</title>
<path fill="none" stroke="#000000" d="M1389.2409,-434.4867C1423.0241,-440.0558 1461.4701,-446.3545 1496.4948,-452 1555.5757,-461.523 1570.1286,-465.4579 1629.4948,-473 1693.4607,-481.1265 1765.9254,-488.0524 1821.1075,-492.8546"/>
<polygon fill="#000000" stroke="#000000" points="1820.9401,-496.3531 1831.2041,-493.7264 1821.5423,-489.379 1820.9401,-496.3531"/>
<text text-anchor="middle" x="1553.9948" y="-474.8" font-family="Times,serif" font-size="14.00" fill="#000000">rdf:type</text>
</g>
<!-- Rdsw:Token -->
<g id="node24" class="node">
<title>Rdsw:Token</title>
<ellipse fill="none" stroke="#0000ff" cx="1909.4948" cy="-446" rx="50.0912" ry="18"/>
<text text-anchor="middle" x="1909.4948" y="-442.3" font-family="Times,serif" font-size="14.00" fill="#000000">dsw:Token</text>
</g>
<!-- Rimg:MMNAT01_AF_NNM001001033_004.jpg&#45;&gt;Rdsw:Token -->
<g id="edge24" class="edge">
<title>Rimg:MMNAT01_AF_NNM001001033_004.jpg&#45;&gt;Rdsw:Token</title>
<path fill="none" stroke="#000000" d="M1462.7286,-426.3422C1590.9182,-431.9826 1760.5887,-439.4481 1849.4156,-443.3565"/>
<polygon fill="#000000" stroke="#000000" points="1849.4346,-446.8606 1859.5789,-443.8037 1849.7424,-439.8674 1849.4346,-446.8606"/>
<text text-anchor="middle" x="1553.9948" y="-436.8" font-family="Times,serif" font-size="14.00" fill="#000000">rdf:type</text>
</g>
<!-- Rdwc:HumanObservation -->
<g id="node25" class="node">
<title>Rdwc:HumanObservation</title>
<ellipse fill="none" stroke="#0000ff" cx="1909.4948" cy="-392" rx="96.6831" ry="18"/>
<text text-anchor="middle" x="1909.4948" y="-388.3" font-family="Times,serif" font-size="14.00" fill="#000000">dwc:HumanObservation</text>
</g>
<!-- Rimg:MMNAT01_AF_NNM001001033_004.jpg&#45;&gt;Rdwc:HumanObservation -->
<g id="edge25" class="edge">
<title>Rimg:MMNAT01_AF_NNM001001033_004.jpg&#45;&gt;Rdwc:HumanObservation</title>
<path fill="none" stroke="#000000" d="M1462.2714,-411.5189C1473.8533,-411.0032 1485.3482,-410.4929 1496.4948,-410 1601.393,-405.3613 1721.2821,-400.1457 1804.7672,-396.5276"/>
<polygon fill="#000000" stroke="#000000" points="1804.9253,-400.0241 1814.7644,-396.0944 1804.6223,-393.0307 1804.9253,-400.0241"/>
<text text-anchor="middle" x="1553.9948" y="-413.8" font-family="Times,serif" font-size="14.00" fill="#000000">rdf:type</text>
</g>
<!-- Roa:Source -->
<g id="node26" class="node">
<title>Roa:Source</title>
<ellipse fill="none" stroke="#0000ff" cx="1909.4948" cy="-338" rx="46.2923" ry="18"/>
<text text-anchor="middle" x="1909.4948" y="-334.3" font-family="Times,serif" font-size="14.00" fill="#000000">oa:Source</text>
</g>
<!-- Rimg:MMNAT01_AF_NNM001001033_004.jpg&#45;&gt;Roa:Source -->
<g id="edge26" class="edge">
<title>Rimg:MMNAT01_AF_NNM001001033_004.jpg&#45;&gt;Roa:Source</title>
<path fill="none" stroke="#000000" d="M1383.7935,-403.1828C1450.9366,-391.4906 1545.8408,-375.7918 1629.4948,-365 1707.0101,-355.0001 1797.036,-346.9511 1853.6363,-342.3219"/>
<polygon fill="#000000" stroke="#000000" points="1854.1208,-345.7942 1863.8053,-341.4976 1853.5551,-338.8171 1854.1208,-345.7942"/>
<text text-anchor="middle" x="1553.9948" y="-387.8" font-family="Times,serif" font-size="14.00" fill="#000000">rdf:type</text>
</g>
<!-- Rfoaf:Image -->
<g id="node27" class="node">
<title>Rfoaf:Image</title>
<ellipse fill="none" stroke="#0000ff" cx="1909.4948" cy="-284" rx="50.0912" ry="18"/>
<text text-anchor="middle" x="1909.4948" y="-280.3" font-family="Times,serif" font-size="14.00" fill="#000000">foaf:Image</text>
</g>
<!-- Rimg:MMNAT01_AF_NNM001001033_004.jpg&#45;&gt;Rfoaf:Image -->
<g id="edge27" class="edge">
<title>Rimg:MMNAT01_AF_NNM001001033_004.jpg&#45;&gt;Rfoaf:Image</title>
<path fill="none" stroke="#000000" d="M1343.4381,-401.5357C1383.9292,-386.881 1443.7449,-365.7226 1496.4948,-349 1555.097,-330.4221 1569.0925,-322.4422 1629.4948,-311 1704.4799,-296.7953 1792.2561,-289.8716 1849.2645,-286.6329"/>
<polygon fill="#000000" stroke="#000000" points="1849.7475,-290.1118 1859.5411,-286.0701 1849.3647,-283.1223 1849.7475,-290.1118"/>
<text text-anchor="middle" x="1553.9948" y="-352.8" font-family="Times,serif" font-size="14.00" fill="#000000">rdf:type</text>
</g>
</g>
</svg>
