<?xml version="1.0" encoding="UTF-8" standalone="no"?>
<!DOCTYPE svg PUBLIC "-//W3C//DTD SVG 1.1//EN"
 "http://www.w3.org/Graphics/SVG/1.1/DTD/svg11.dtd">
<!-- Generated by graphviz version 2.40.1 (20161225.0304)
 -->
<!-- Title: %3 Pages: 1 -->
<svg width="2180pt" height="1060pt"
 viewBox="0.00 0.00 2180.00 1060.00" xmlns="http://www.w3.org/2000/svg" xmlns:xlink="http://www.w3.org/1999/xlink">
<g id="graph0" class="graph" transform="scale(1 1) rotate(0) translate(4 1056)">
<title>%3</title>
<polygon fill="#ffffff" stroke="transparent" points="-4,4 -4,-1056 2175.9954,-1056 2175.9954,4 -4,4"/>
<text text-anchor="middle" x="1085.9977" y="-248.8" font-family="Times,serif" font-size="14.00" fill="#000000">Model:</text>
<text text-anchor="middle" x="1085.9977" y="-233.8" font-family="Times,serif" font-size="14.00" fill="#000000">(Unknown)</text>
<text text-anchor="middle" x="1085.9977" y="-202.8" font-family="Times,serif" font-size="14.00" fill="#000000">Namespaces:</text>
<text text-anchor="middle" x="1085.9977" y="-187.8" font-family="Times,serif" font-size="14.00" fill="#000000">dcmitype: http://purl.org/dc/dcmitype/</text>
<text text-anchor="middle" x="1085.9977" y="-172.8" font-family="Times,serif" font-size="14.00" fill="#000000">dcterms: http://purl.org/dc/terms/</text>
<text text-anchor="middle" x="1085.9977" y="-157.8" font-family="Times,serif" font-size="14.00" fill="#000000">dsw: http://purl.org/dsw/</text>
<text text-anchor="middle" x="1085.9977" y="-142.8" font-family="Times,serif" font-size="14.00" fill="#000000">dwc: http://rs.tdwg.org/dwc/terms/</text>
<text text-anchor="middle" x="1085.9977" y="-127.8" font-family="Times,serif" font-size="14.00" fill="#000000">dwciri: http://rs.tdwg.org/dwc/iri/</text>
<text text-anchor="middle" x="1085.9977" y="-112.8" font-family="Times,serif" font-size="14.00" fill="#000000">foaf: http://xmlns.com/foaf/0.1/</text>
<text text-anchor="middle" x="1085.9977" y="-97.8" font-family="Times,serif" font-size="14.00" fill="#000000">img: http://localhost:8080/semanticAnnotator/files/</text>
<text text-anchor="middle" x="1085.9977" y="-82.8" font-family="Times,serif" font-size="14.00" fill="#000000">iso: http://iso639&#45;3.sil.org/code/</text>
<text text-anchor="middle" x="1085.9977" y="-67.8" font-family="Times,serif" font-size="14.00" fill="#000000">mf: http://www.w3.org/TR/media&#45;frags/</text>
<text text-anchor="middle" x="1085.9977" y="-52.8" font-family="Times,serif" font-size="14.00" fill="#000000">oa: http://www.w3.org/ns/oa#</text>
<text text-anchor="middle" x="1085.9977" y="-37.8" font-family="Times,serif" font-size="14.00" fill="#000000">obo: http://purl.obolibrary.org/obo/</text>
<text text-anchor="middle" x="1085.9977" y="-22.8" font-family="Times,serif" font-size="14.00" fill="#000000">orcid: http://orcid.org/</text>
<text text-anchor="middle" x="1085.9977" y="-7.8" font-family="Times,serif" font-size="14.00" fill="#000000">rdf: http://www.w3.org/1999/02/22&#45;rdf&#45;syntax&#45;ns#</text>
<!-- Rhttp://localhost:8080/rdf/nc/annotation/320454ac&#45;e8eb&#45;4e06&#45;a927&#45;3bc74a0b4cd3 -->
<g id="node1" class="node">
<title>Rhttp://localhost:8080/rdf/nc/annotation/320454ac&#45;e8eb&#45;4e06&#45;a927&#45;3bc74a0b4cd3</title>
<ellipse fill="none" stroke="#0000ff" cx="296.3737" cy="-817" rx="296.2475" ry="18"/>
<text text-anchor="middle" x="296.3737" y="-813.3" font-family="Times,serif" font-size="14.00" fill="#000000">http://localhost:8080/rdf/nc/annotation/320454ac&#45;e8eb&#45;4e06&#45;a927&#45;3bc74a0b4cd3</text>
</g>
<!-- Roa:Annotation -->
<g id="node2" class="node">
<title>Roa:Annotation</title>
<ellipse fill="none" stroke="#0000ff" cx="827.2376" cy="-950" rx="61.1893" ry="18"/>
<text text-anchor="middle" x="827.2376" y="-946.3" font-family="Times,serif" font-size="14.00" fill="#000000">oa:Annotation</text>
</g>
<!-- Rhttp://localhost:8080/rdf/nc/annotation/320454ac&#45;e8eb&#45;4e06&#45;a927&#45;3bc74a0b4cd3&#45;&gt;Roa:Annotation -->
<g id="edge1" class="edge">
<title>Rhttp://localhost:8080/rdf/nc/annotation/320454ac&#45;e8eb&#45;4e06&#45;a927&#45;3bc74a0b4cd3&#45;&gt;Roa:Annotation</title>
<path fill="none" stroke="#000000" d="M365.5138,-834.5995C448.7868,-855.7582 592.9301,-892.2614 716.7474,-923 734.0498,-927.2955 752.8901,-931.9192 770.0317,-936.1055"/>
<polygon fill="#000000" stroke="#000000" points="769.3589,-939.544 779.9036,-938.514 771.0181,-932.7434 769.3589,-939.544"/>
<text text-anchor="middle" x="654.7474" y="-920.8" font-family="Times,serif" font-size="14.00" fill="#000000">rdf:type</text>
</g>
<!-- Rorcid:0000&#45;0002&#45;2146&#45;4803 -->
<g id="node3" class="node">
<title>Rorcid:0000&#45;0002&#45;2146&#45;4803</title>
<ellipse fill="none" stroke="#0000ff" cx="827.2376" cy="-896" rx="110.4804" ry="18"/>
<text text-anchor="middle" x="827.2376" y="-892.3" font-family="Times,serif" font-size="14.00" fill="#000000">orcid:0000&#45;0002&#45;2146&#45;4803</text>
</g>
<!-- Rhttp://localhost:8080/rdf/nc/annotation/320454ac&#45;e8eb&#45;4e06&#45;a927&#45;3bc74a0b4cd3&#45;&gt;Rorcid:0000&#45;0002&#45;2146&#45;4803 -->
<g id="edge2" class="edge">
<title>Rhttp://localhost:8080/rdf/nc/annotation/320454ac&#45;e8eb&#45;4e06&#45;a927&#45;3bc74a0b4cd3&#45;&gt;Rorcid:0000&#45;0002&#45;2146&#45;4803</title>
<path fill="none" stroke="#000000" d="M408.6318,-833.7056C505.8552,-848.1738 644.7606,-868.8449 735.4588,-882.342"/>
<polygon fill="#000000" stroke="#000000" points="735.0447,-885.8189 745.451,-883.829 736.0751,-878.8951 735.0447,-885.8189"/>
<text text-anchor="middle" x="654.7474" y="-877.8" font-family="Times,serif" font-size="14.00" fill="#000000">dcterms:creator</text>
</g>
<!-- L2021&#45;01&#45;12T14:23:11.646Z|Datatype: dcterms:W3CDTF -->
<g id="node4" class="node">
<title>L2021&#45;01&#45;12T14:23:11.646Z|Datatype: dcterms:W3CDTF</title>
<polygon fill="none" stroke="#000000" points="739.7376,-813 739.7376,-859 914.7376,-859 914.7376,-813 739.7376,-813"/>
<text text-anchor="middle" x="827.2376" y="-843.8" font-family="Times,serif" font-size="14.00" fill="#000000">2021&#45;01&#45;12T14:23:11.646Z</text>
<polyline fill="none" stroke="#000000" points="739.7376,-836 914.7376,-836 "/>
<text text-anchor="middle" x="827.2376" y="-820.8" font-family="Times,serif" font-size="14.00" fill="#000000">Datatype: dcterms:W3CDTF</text>
</g>
<!-- Rhttp://localhost:8080/rdf/nc/annotation/320454ac&#45;e8eb&#45;4e06&#45;a927&#45;3bc74a0b4cd3&#45;&gt;L2021&#45;01&#45;12T14:23:11.646Z|Datatype: dcterms:W3CDTF -->
<g id="edge3" class="edge">
<title>Rhttp://localhost:8080/rdf/nc/annotation/320454ac&#45;e8eb&#45;4e06&#45;a927&#45;3bc74a0b4cd3&#45;&gt;L2021&#45;01&#45;12T14:23:11.646Z|Datatype: dcterms:W3CDTF</title>
<path fill="none" stroke="#000000" d="M552.0872,-826.1522C615.2735,-828.4137 679.1952,-830.7015 729.5039,-832.502"/>
<polygon fill="#000000" stroke="#000000" points="729.5844,-836.0071 739.7032,-832.8671 729.8348,-829.0115 729.5844,-836.0071"/>
<text text-anchor="middle" x="654.7474" y="-834.8" font-family="Times,serif" font-size="14.00" fill="#000000">dcterms:date</text>
</g>
<!-- B_:node1euqlam8lx287 -->
<g id="node5" class="node">
<title>B_:node1euqlam8lx287</title>
<ellipse fill="none" stroke="#00ff00" cx="827.2376" cy="-776" rx="18" ry="18"/>
</g>
<!-- Rhttp://localhost:8080/rdf/nc/annotation/320454ac&#45;e8eb&#45;4e06&#45;a927&#45;3bc74a0b4cd3&#45;&gt;B_:node1euqlam8lx287 -->
<g id="edge4" class="edge">
<title>Rhttp://localhost:8080/rdf/nc/annotation/320454ac&#45;e8eb&#45;4e06&#45;a927&#45;3bc74a0b4cd3&#45;&gt;B_:node1euqlam8lx287</title>
<path fill="none" stroke="#000000" d="M479.8103,-802.8327C597.7427,-793.7245 739.6217,-782.7668 798.9754,-778.1828"/>
<polygon fill="#000000" stroke="#000000" points="799.3725,-781.6626 809.0733,-777.4029 798.8335,-774.6834 799.3725,-781.6626"/>
<text text-anchor="middle" x="654.7474" y="-795.8" font-family="Times,serif" font-size="14.00" fill="#000000">oa:hasBody</text>
</g>
<!-- B_:node1euqlam8lx286 -->
<g id="node13" class="node">
<title>B_:node1euqlam8lx286</title>
<ellipse fill="none" stroke="#00ff00" cx="827.2376" cy="-609" rx="18" ry="18"/>
</g>
<!-- Rhttp://localhost:8080/rdf/nc/annotation/320454ac&#45;e8eb&#45;4e06&#45;a927&#45;3bc74a0b4cd3&#45;&gt;B_:node1euqlam8lx286 -->
<g id="edge12" class="edge">
<title>Rhttp://localhost:8080/rdf/nc/annotation/320454ac&#45;e8eb&#45;4e06&#45;a927&#45;3bc74a0b4cd3&#45;&gt;B_:node1euqlam8lx286</title>
<path fill="none" stroke="#000000" d="M342.0943,-799.086C449.6403,-756.948 715.9515,-652.6035 800.8119,-619.354"/>
<polygon fill="#000000" stroke="#000000" points="802.2044,-622.5675 810.2383,-615.6606 799.6507,-616.0499 802.2044,-622.5675"/>
<text text-anchor="middle" x="654.7474" y="-692.8" font-family="Times,serif" font-size="14.00" fill="#000000">oa:hasTarget</text>
</g>
<!-- Roa:describing -->
<g id="node20" class="node">
<title>Roa:describing</title>
<ellipse fill="none" stroke="#0000ff" cx="827.2376" cy="-555" rx="57.6901" ry="18"/>
<text text-anchor="middle" x="827.2376" y="-551.3" font-family="Times,serif" font-size="14.00" fill="#000000">oa:describing</text>
</g>
<!-- Rhttp://localhost:8080/rdf/nc/annotation/320454ac&#45;e8eb&#45;4e06&#45;a927&#45;3bc74a0b4cd3&#45;&gt;Roa:describing -->
<g id="edge20" class="edge">
<title>Rhttp://localhost:8080/rdf/nc/annotation/320454ac&#45;e8eb&#45;4e06&#45;a927&#45;3bc74a0b4cd3&#45;&gt;Roa:describing</title>
<path fill="none" stroke="#000000" d="M322.6566,-798.941C387.0139,-755.4901 558.7935,-644.1215 716.7474,-582 732.7264,-575.7156 750.5978,-570.5854 767.2324,-566.5503"/>
<polygon fill="#000000" stroke="#000000" points="768.4582,-569.8584 777.402,-564.1788 766.8685,-563.0413 768.4582,-569.8584"/>
<text text-anchor="middle" x="654.7474" y="-628.8" font-family="Times,serif" font-size="14.00" fill="#000000">oa:motivatedBy</text>
</g>
<!-- Rfoaf:Person -->
<g id="node21" class="node">
<title>Rfoaf:Person</title>
<ellipse fill="none" stroke="#0000ff" cx="1253.3616" cy="-1029" rx="51.1914" ry="18"/>
<text text-anchor="middle" x="1253.3616" y="-1025.3" font-family="Times,serif" font-size="14.00" fill="#000000">foaf:Person</text>
</g>
<!-- Rorcid:0000&#45;0002&#45;2146&#45;4803&#45;&gt;Rfoaf:Person -->
<g id="edge21" class="edge">
<title>Rorcid:0000&#45;0002&#45;2146&#45;4803&#45;&gt;Rfoaf:Person</title>
<path fill="none" stroke="#000000" d="M913.9282,-907.1701C922.7366,-911.1001 930.9266,-916.2572 937.7278,-923 960.8459,-945.9196 931.2489,-972.5398 955.7278,-994 1022.4801,-1052.5205 1132.4651,-1048.5815 1198.4022,-1039.445"/>
<polygon fill="#000000" stroke="#000000" points="1199.2104,-1042.8638 1208.5931,-1037.9428 1198.1895,-1035.9386 1199.2104,-1042.8638"/>
<text text-anchor="middle" x="1004.2278" y="-1040.8" font-family="Times,serif" font-size="14.00" fill="#000000">rdf:type</text>
</g>
<!-- Rdwc:MeasurementOrFact -->
<g id="node6" class="node">
<title>Rdwc:MeasurementOrFact</title>
<ellipse fill="none" stroke="#0000ff" cx="1253.3616" cy="-694" rx="100.9827" ry="18"/>
<text text-anchor="middle" x="1253.3616" y="-690.3" font-family="Times,serif" font-size="14.00" fill="#000000">dwc:MeasurementOrFact</text>
</g>
<!-- B_:node1euqlam8lx287&#45;&gt;Rdwc:MeasurementOrFact -->
<g id="edge5" class="edge">
<title>B_:node1euqlam8lx287&#45;&gt;Rdwc:MeasurementOrFact</title>
<path fill="none" stroke="#000000" d="M842.8427,-767.0108C866.4239,-753.9137 912.9374,-729.9565 955.7278,-719 1016.2668,-703.499 1085.767,-697.0521 1142.375,-694.57"/>
<polygon fill="#000000" stroke="#000000" points="1142.5764,-698.0648 1152.4273,-694.1646 1142.2944,-691.0705 1142.5764,-698.0648"/>
<text text-anchor="middle" x="1004.2278" y="-722.8" font-family="Times,serif" font-size="14.00" fill="#000000">rdf:type</text>
</g>
<!-- Roa:TextualBody -->
<g id="node7" class="node">
<title>Roa:TextualBody</title>
<ellipse fill="none" stroke="#0000ff" cx="1253.3616" cy="-975" rx="67.6881" ry="18"/>
<text text-anchor="middle" x="1253.3616" y="-971.3" font-family="Times,serif" font-size="14.00" fill="#000000">oa:TextualBody</text>
</g>
<!-- B_:node1euqlam8lx287&#45;&gt;Roa:TextualBody -->
<g id="edge6" class="edge">
<title>B_:node1euqlam8lx287&#45;&gt;Roa:TextualBody</title>
<path fill="none" stroke="#000000" d="M845.488,-774.8346C870.172,-774.3395 913.8505,-777.4755 937.7278,-803 969.4749,-836.9371 925.9032,-870.3616 955.7278,-906 990.6492,-947.7287 1017.9857,-934.6186 1070.7278,-948 1106.0623,-956.9648 1146.0486,-963.2932 1179.5791,-967.5583"/>
<polygon fill="#000000" stroke="#000000" points="1179.4119,-971.0642 1189.7655,-968.8163 1180.2699,-964.1169 1179.4119,-971.0642"/>
<text text-anchor="middle" x="1004.2278" y="-946.8" font-family="Times,serif" font-size="14.00" fill="#000000">rdf:type</text>
</g>
<!-- Ltext/plain -->
<g id="node8" class="node">
<title>Ltext/plain</title>
<polygon fill="none" stroke="#000000" points="1219.3616,-902 1219.3616,-938 1287.3616,-938 1287.3616,-902 1219.3616,-902"/>
<text text-anchor="middle" x="1253.3616" y="-916.3" font-family="Times,serif" font-size="14.00" fill="#000000">text/plain</text>
</g>
<!-- B_:node1euqlam8lx287&#45;&gt;Ltext/plain -->
<g id="edge7" class="edge">
<title>B_:node1euqlam8lx287&#45;&gt;Ltext/plain</title>
<path fill="none" stroke="#000000" d="M845.3147,-775.4299C869.3988,-775.6627 911.9597,-779.6791 937.7278,-803 955.5497,-819.1294 938.5607,-837.1754 955.7278,-854 994.1724,-891.6775 1018.3861,-879.4331 1070.7278,-892 1117.343,-903.192 1171.7743,-910.8591 1209.0091,-915.3026"/>
<polygon fill="#000000" stroke="#000000" points="1208.6965,-918.7898 1219.0344,-916.4706 1209.5067,-911.8368 1208.6965,-918.7898"/>
<text text-anchor="middle" x="1004.2278" y="-890.8" font-family="Times,serif" font-size="14.00" fill="#000000">dcterms:format</text>
</g>
<!-- Robo:UBERON_0001062 -->
<g id="node9" class="node">
<title>Robo:UBERON_0001062</title>
<ellipse fill="none" stroke="#0000ff" cx="1891.9954" cy="-748" rx="97.4827" ry="18"/>
<text text-anchor="middle" x="1891.9954" y="-744.3" font-family="Times,serif" font-size="14.00" fill="#000000">obo:UBERON_0001062</text>
</g>
<!-- B_:node1euqlam8lx287&#45;&gt;Robo:UBERON_0001062 -->
<g id="edge8" class="edge">
<title>B_:node1euqlam8lx287&#45;&gt;Robo:UBERON_0001062</title>
<path fill="none" stroke="#000000" d="M845.2345,-774.1809C885.5535,-770.1967 986.221,-760.7559 1070.7278,-757 1326.506,-745.6318 1627.509,-745.7832 1784.4637,-746.8873"/>
<polygon fill="#000000" stroke="#000000" points="1784.5663,-750.388 1794.5917,-746.9613 1784.6176,-743.3882 1784.5663,-750.388"/>
<text text-anchor="middle" x="1253.3616" y="-760.8" font-family="Times,serif" font-size="14.00" fill="#000000">dcterms:identifier</text>
</g>
<!-- Riso:lat -->
<g id="node10" class="node">
<title>Riso:lat</title>
<ellipse fill="none" stroke="#0000ff" cx="1253.3616" cy="-865" rx="32.4942" ry="18"/>
<text text-anchor="middle" x="1253.3616" y="-861.3" font-family="Times,serif" font-size="14.00" fill="#000000">iso:lat</text>
</g>
<!-- B_:node1euqlam8lx287&#45;&gt;Riso:lat -->
<g id="edge9" class="edge">
<title>B_:node1euqlam8lx287&#45;&gt;Riso:lat</title>
<path fill="none" stroke="#000000" d="M845.0401,-779.5965C867.0425,-784.2135 905.5221,-792.851 937.7278,-803 945.9146,-805.5799 947.5294,-807.4572 955.7278,-810 1044.5017,-837.5338 1152.6898,-853.276 1211.084,-860.3767"/>
<polygon fill="#000000" stroke="#000000" points="1210.7051,-863.8562 1221.0488,-861.5629 1211.5326,-856.9053 1210.7051,-863.8562"/>
<text text-anchor="middle" x="1004.2278" y="-838.8" font-family="Times,serif" font-size="14.00" fill="#000000">dcterms:language</text>
</g>
<!-- Rimg:MMNAT01_AF_NNM001001033_003.jpg -->
<g id="node11" class="node">
<title>Rimg:MMNAT01_AF_NNM001001033_003.jpg</title>
<ellipse fill="none" stroke="#0000ff" cx="1253.3616" cy="-640" rx="182.7677" ry="18"/>
<text text-anchor="middle" x="1253.3616" y="-636.3" font-family="Times,serif" font-size="14.00" fill="#000000">img:MMNAT01_AF_NNM001001033_003.jpg</text>
</g>
<!-- B_:node1euqlam8lx287&#45;&gt;Rimg:MMNAT01_AF_NNM001001033_003.jpg -->
<g id="edge10" class="edge">
<title>B_:node1euqlam8lx287&#45;&gt;Rimg:MMNAT01_AF_NNM001001033_003.jpg</title>
<path fill="none" stroke="#000000" d="M840.1569,-763.257C861.9385,-742.6136 908.2577,-702.2358 955.7278,-683 995.6804,-666.8104 1040.823,-656.591 1083.6515,-650.1748"/>
<polygon fill="#000000" stroke="#000000" points="1084.2135,-653.6301 1093.6142,-648.7436 1083.2181,-646.7012 1084.2135,-653.6301"/>
<text text-anchor="middle" x="1004.2278" y="-686.8" font-family="Times,serif" font-size="14.00" fill="#000000">dsw:derivedFrom</text>
</g>
<!-- LDentibus|Language: lat -->
<g id="node12" class="node">
<title>LDentibus|Language: lat</title>
<polygon fill="none" stroke="#000000" points="1207.8616,-782 1207.8616,-828 1298.8616,-828 1298.8616,-782 1207.8616,-782"/>
<text text-anchor="middle" x="1253.3616" y="-812.8" font-family="Times,serif" font-size="14.00" fill="#000000">Dentibus</text>
<polyline fill="none" stroke="#000000" points="1207.8616,-805 1298.8616,-805 "/>
<text text-anchor="middle" x="1253.3616" y="-789.8" font-family="Times,serif" font-size="14.00" fill="#000000">Language: lat</text>
</g>
<!-- B_:node1euqlam8lx287&#45;&gt;LDentibus|Language: lat -->
<g id="edge11" class="edge">
<title>B_:node1euqlam8lx287&#45;&gt;LDentibus|Language: lat</title>
<path fill="none" stroke="#000000" d="M845.2754,-777.2276C905.3422,-781.3154 1100.2652,-794.581 1197.3519,-801.1882"/>
<polygon fill="#000000" stroke="#000000" points="1197.3491,-804.6961 1207.5637,-801.8832 1197.8245,-797.7122 1197.3491,-804.6961"/>
<text text-anchor="middle" x="1004.2278" y="-794.8" font-family="Times,serif" font-size="14.00" fill="#000000">rdf:value</text>
</g>
<!-- Rdwc:MeasurementOrFact&#45;&gt;Robo:UBERON_0001062 -->
<g id="edge27" class="edge">
<title>Rdwc:MeasurementOrFact&#45;&gt;Robo:UBERON_0001062</title>
<path fill="none" stroke="#000000" d="M1348.5132,-700.0272C1416.87,-704.5904 1511.1829,-711.3631 1593.9954,-719 1602.0106,-719.7392 1603.9891,-720.1692 1611.9954,-721 1672.5754,-727.286 1740.5817,-733.8552 1794.4018,-738.9398"/>
<polygon fill="#000000" stroke="#000000" points="1794.3407,-742.4495 1804.6252,-739.904 1794.998,-735.4804 1794.3407,-742.4495"/>
<text text-anchor="middle" x="1523.9954" y="-722.8" font-family="Times,serif" font-size="14.00" fill="#000000">dwciri:measurementType</text>
</g>
<!-- Rdcmitype:StillImage -->
<g id="node22" class="node">
<title>Rdcmitype:StillImage</title>
<ellipse fill="none" stroke="#0000ff" cx="1891.9954" cy="-694" rx="83.3857" ry="18"/>
<text text-anchor="middle" x="1891.9954" y="-690.3" font-family="Times,serif" font-size="14.00" fill="#000000">dcmitype:StillImage</text>
</g>
<!-- Rimg:MMNAT01_AF_NNM001001033_003.jpg&#45;&gt;Rdcmitype:StillImage -->
<g id="edge22" class="edge">
<title>Rimg:MMNAT01_AF_NNM001001033_003.jpg&#45;&gt;Rdcmitype:StillImage</title>
<path fill="none" stroke="#000000" d="M1387.7125,-652.193C1409.8545,-654.1624 1432.5665,-656.1581 1453.9954,-658 1575.1361,-668.4124 1715.1825,-679.8114 1803.6554,-686.934"/>
<polygon fill="#000000" stroke="#000000" points="1803.4021,-690.4248 1813.6506,-687.7381 1803.9635,-683.4473 1803.4021,-690.4248"/>
<text text-anchor="middle" x="1523.9954" y="-673.8" font-family="Times,serif" font-size="14.00" fill="#000000">rdf:type</text>
</g>
<!-- Rdsw:Token -->
<g id="node23" class="node">
<title>Rdsw:Token</title>
<ellipse fill="none" stroke="#0000ff" cx="1891.9954" cy="-640" rx="50.0912" ry="18"/>
<text text-anchor="middle" x="1891.9954" y="-636.3" font-family="Times,serif" font-size="14.00" fill="#000000">dsw:Token</text>
</g>
<!-- Rimg:MMNAT01_AF_NNM001001033_003.jpg&#45;&gt;Rdsw:Token -->
<g id="edge23" class="edge">
<title>Rimg:MMNAT01_AF_NNM001001033_003.jpg&#45;&gt;Rdsw:Token</title>
<path fill="none" stroke="#000000" d="M1436.3684,-640C1569.5005,-640 1741.5498,-640 1831.3493,-640"/>
<polygon fill="#000000" stroke="#000000" points="1831.6215,-643.5001 1841.6215,-640 1831.6214,-636.5001 1831.6215,-643.5001"/>
<text text-anchor="middle" x="1523.9954" y="-643.8" font-family="Times,serif" font-size="14.00" fill="#000000">rdf:type</text>
</g>
<!-- Rdwc:HumanObservation -->
<g id="node24" class="node">
<title>Rdwc:HumanObservation</title>
<ellipse fill="none" stroke="#0000ff" cx="1891.9954" cy="-586" rx="96.6831" ry="18"/>
<text text-anchor="middle" x="1891.9954" y="-582.3" font-family="Times,serif" font-size="14.00" fill="#000000">dwc:HumanObservation</text>
</g>
<!-- Rimg:MMNAT01_AF_NNM001001033_003.jpg&#45;&gt;Rdwc:HumanObservation -->
<g id="edge24" class="edge">
<title>Rimg:MMNAT01_AF_NNM001001033_003.jpg&#45;&gt;Rdwc:HumanObservation</title>
<path fill="none" stroke="#000000" d="M1383.656,-627.3808C1407.0684,-625.1932 1431.2522,-622.9855 1453.9954,-621 1569.9776,-610.8748 1703.3414,-600.3827 1792.1407,-593.5599"/>
<polygon fill="#000000" stroke="#000000" points="1792.5026,-597.0425 1802.2055,-592.7876 1791.967,-590.063 1792.5026,-597.0425"/>
<text text-anchor="middle" x="1523.9954" y="-624.8" font-family="Times,serif" font-size="14.00" fill="#000000">rdf:type</text>
</g>
<!-- Roa:Source -->
<g id="node25" class="node">
<title>Roa:Source</title>
<ellipse fill="none" stroke="#0000ff" cx="1891.9954" cy="-532" rx="46.2923" ry="18"/>
<text text-anchor="middle" x="1891.9954" y="-528.3" font-family="Times,serif" font-size="14.00" fill="#000000">oa:Source</text>
</g>
<!-- Rimg:MMNAT01_AF_NNM001001033_003.jpg&#45;&gt;Roa:Source -->
<g id="edge25" class="edge">
<title>Rimg:MMNAT01_AF_NNM001001033_003.jpg&#45;&gt;Roa:Source</title>
<path fill="none" stroke="#000000" d="M1398.3131,-628.8642C1411.5026,-624.83 1424.2858,-619.6412 1435.9954,-613 1446.9845,-606.7675 1443.1755,-597.5218 1453.9954,-591 1575.5188,-517.7503 1750.0308,-519.5404 1837.5622,-526.1801"/>
<polygon fill="#000000" stroke="#000000" points="1837.2919,-529.6696 1847.5416,-526.9872 1837.8563,-522.6924 1837.2919,-529.6696"/>
<text text-anchor="middle" x="1523.9954" y="-594.8" font-family="Times,serif" font-size="14.00" fill="#000000">rdf:type</text>
</g>
<!-- Rfoaf:Image -->
<g id="node26" class="node">
<title>Rfoaf:Image</title>
<ellipse fill="none" stroke="#0000ff" cx="1891.9954" cy="-478" rx="50.0912" ry="18"/>
<text text-anchor="middle" x="1891.9954" y="-474.3" font-family="Times,serif" font-size="14.00" fill="#000000">foaf:Image</text>
</g>
<!-- Rimg:MMNAT01_AF_NNM001001033_003.jpg&#45;&gt;Rfoaf:Image -->
<g id="edge26" class="edge">
<title>Rimg:MMNAT01_AF_NNM001001033_003.jpg&#45;&gt;Rfoaf:Image</title>
<path fill="none" stroke="#000000" d="M1410.6657,-630.6245C1419.8823,-625.9809 1428.4531,-620.185 1435.9954,-613 1465.8464,-584.5629 1423.5873,-549.8406 1453.9954,-522 1507.7962,-472.7418 1724.9039,-472.4795 1831.8551,-475.5321"/>
<polygon fill="#000000" stroke="#000000" points="1832.0608,-479.0399 1842.1628,-475.8464 1832.2742,-472.0432 1832.0608,-479.0399"/>
<text text-anchor="middle" x="1523.9954" y="-525.8" font-family="Times,serif" font-size="14.00" fill="#000000">rdf:type</text>
</g>
<!-- B_:node1euqlam8lx286&#45;&gt;Rimg:MMNAT01_AF_NNM001001033_003.jpg -->
<g id="edge19" class="edge">
<title>B_:node1euqlam8lx286&#45;&gt;Rimg:MMNAT01_AF_NNM001001033_003.jpg</title>
<path fill="none" stroke="#000000" d="M845.2754,-610.3122C888.2674,-613.4398 1000.3433,-621.5932 1096.185,-628.5656"/>
<polygon fill="#000000" stroke="#000000" points="1096.0679,-632.0662 1106.2956,-629.3011 1096.5759,-625.0847 1096.0679,-632.0662"/>
<text text-anchor="middle" x="1004.2278" y="-628.8" font-family="Times,serif" font-size="14.00" fill="#000000">oa:hasSource</text>
</g>
<!-- Roa:Target -->
<g id="node14" class="node">
<title>Roa:Target</title>
<ellipse fill="none" stroke="#0000ff" cx="1253.3616" cy="-586" rx="44.393" ry="18"/>
<text text-anchor="middle" x="1253.3616" y="-582.3" font-family="Times,serif" font-size="14.00" fill="#000000">oa:Target</text>
</g>
<!-- B_:node1euqlam8lx286&#45;&gt;Roa:Target -->
<g id="edge13" class="edge">
<title>B_:node1euqlam8lx286&#45;&gt;Roa:Target</title>
<path fill="none" stroke="#000000" d="M845.4963,-606.555C870.3722,-603.3283 916.3296,-597.7378 955.7278,-595 1040.3801,-589.1174 1138.8404,-587.0784 1198.5991,-586.3726"/>
<polygon fill="#000000" stroke="#000000" points="1198.9722,-589.8688 1208.9332,-586.2593 1198.8954,-582.8692 1198.9722,-589.8688"/>
<text text-anchor="middle" x="1004.2278" y="-598.8" font-family="Times,serif" font-size="14.00" fill="#000000">rdf:type</text>
</g>
<!-- Limage/jpeg -->
<g id="node15" class="node">
<title>Limage/jpeg</title>
<polygon fill="none" stroke="#000000" points="1214.8616,-513 1214.8616,-549 1291.8616,-549 1291.8616,-513 1214.8616,-513"/>
<text text-anchor="middle" x="1253.3616" y="-527.3" font-family="Times,serif" font-size="14.00" fill="#000000">image/jpeg</text>
</g>
<!-- B_:node1euqlam8lx286&#45;&gt;Limage/jpeg -->
<g id="edge14" class="edge">
<title>B_:node1euqlam8lx286&#45;&gt;Limage/jpeg</title>
<path fill="none" stroke="#000000" d="M845.2932,-606.1205C867.5507,-602.2262 906.2874,-594.3171 937.7278,-582 946.2489,-578.6618 947.0465,-574.8961 955.7278,-572 1040.2135,-543.8151 1144.4058,-534.9884 1204.4316,-532.2352"/>
<polygon fill="#000000" stroke="#000000" points="1204.9078,-535.7184 1214.7522,-531.8021 1204.6143,-528.7246 1204.9078,-535.7184"/>
<text text-anchor="middle" x="1004.2278" y="-575.8" font-family="Times,serif" font-size="14.00" fill="#000000">dcterms:format</text>
</g>
<!-- B_:node1euqlam8lx289 -->
<g id="node16" class="node">
<title>B_:node1euqlam8lx289</title>
<ellipse fill="none" stroke="#00ff00" cx="1253.3616" cy="-396" rx="18" ry="18"/>
</g>
<!-- B_:node1euqlam8lx286&#45;&gt;B_:node1euqlam8lx289 -->
<g id="edge15" class="edge">
<title>B_:node1euqlam8lx286&#45;&gt;B_:node1euqlam8lx289</title>
<path fill="none" stroke="#000000" d="M845.3354,-609.5929C869.443,-609.3859 912.0303,-605.3987 937.7278,-582 955.8111,-565.5343 939.228,-548.0521 955.7278,-530 1031.1299,-447.5043 1167.0055,-412.5865 1225.4227,-400.9013"/>
<polygon fill="#000000" stroke="#000000" points="1226.2377,-404.3088 1235.397,-398.9836 1224.916,-397.4347 1226.2377,-404.3088"/>
<text text-anchor="middle" x="1004.2278" y="-533.8" font-family="Times,serif" font-size="14.00" fill="#000000">oa:hasSelector</text>
</g>
<!-- Roa:FragmentSelector -->
<g id="node17" class="node">
<title>Roa:FragmentSelector</title>
<ellipse fill="none" stroke="#0000ff" cx="1891.9954" cy="-368" rx="84.485" ry="18"/>
<text text-anchor="middle" x="1891.9954" y="-364.3" font-family="Times,serif" font-size="14.00" fill="#000000">oa:FragmentSelector</text>
</g>
<!-- B_:node1euqlam8lx289&#45;&gt;Roa:FragmentSelector -->
<g id="edge16" class="edge">
<title>B_:node1euqlam8lx289&#45;&gt;Roa:FragmentSelector</title>
<path fill="none" stroke="#000000" d="M1271.3439,-395.051C1306.4514,-393.2099 1386.581,-389.0652 1453.9954,-386 1572.9551,-380.5911 1710.1231,-375.0698 1798.8005,-371.5941"/>
<polygon fill="#000000" stroke="#000000" points="1798.9779,-375.0899 1808.8333,-371.2015 1798.7041,-368.0953 1798.9779,-375.0899"/>
<text text-anchor="middle" x="1523.9954" y="-389.8" font-family="Times,serif" font-size="14.00" fill="#000000">rdf:type</text>
</g>
<!-- Rmf: -->
<g id="node18" class="node">
<title>Rmf:</title>
<ellipse fill="none" stroke="#0000ff" cx="1891.9954" cy="-314" rx="27" ry="18"/>
<text text-anchor="middle" x="1891.9954" y="-310.3" font-family="Times,serif" font-size="14.00" fill="#000000">mf:</text>
</g>
<!-- B_:node1euqlam8lx289&#45;&gt;Rmf: -->
<g id="edge17" class="edge">
<title>B_:node1euqlam8lx289&#45;&gt;Rmf:</title>
<path fill="none" stroke="#000000" d="M1271.3118,-392.7366C1306.3639,-386.4133 1386.4017,-372.216 1453.9954,-362 1524.0397,-351.4137 1541.6165,-349.0677 1611.9954,-341 1698.8745,-331.0408 1801.2057,-321.8041 1854.8672,-317.1517"/>
<polygon fill="#000000" stroke="#000000" points="1855.2694,-320.6301 1864.9316,-316.2835 1854.6677,-313.656 1855.2694,-320.6301"/>
<text text-anchor="middle" x="1523.9954" y="-365.8" font-family="Times,serif" font-size="14.00" fill="#000000">dcterms:conformsTo</text>
</g>
<!-- Lxywh=0.5366845889070635,0.2939686187699841,0.04048369061255663,0.028409607447408114 -->
<g id="node19" class="node">
<title>Lxywh=0.5366845889070635,0.2939686187699841,0.04048369061255663,0.028409607447408114</title>
<polygon fill="none" stroke="#000000" points="1611.9954,-405 1611.9954,-441 2171.9954,-441 2171.9954,-405 1611.9954,-405"/>
<text text-anchor="middle" x="1891.9954" y="-419.3" font-family="Times,serif" font-size="14.00" fill="#000000">xywh=0.5366845889070635,0.2939686187699841,0.04048369061255663,0.028409607447408114</text>
</g>
<!-- B_:node1euqlam8lx289&#45;&gt;Lxywh=0.5366845889070635,0.2939686187699841,0.04048369061255663,0.028409607447408114 -->
<g id="edge18" class="edge">
<title>B_:node1euqlam8lx289&#45;&gt;Lxywh=0.5366845889070635,0.2939686187699841,0.04048369061255663,0.028409607447408114</title>
<path fill="none" stroke="#000000" d="M1271.4459,-396.7646C1321.1023,-398.8639 1464.9688,-404.9463 1601.6846,-410.7263"/>
<polygon fill="#000000" stroke="#000000" points="1601.7945,-414.234 1611.9335,-411.1596 1602.0903,-407.2402 1601.7945,-414.234"/>
<text text-anchor="middle" x="1523.9954" y="-414.8" font-family="Times,serif" font-size="14.00" fill="#000000">rdf:value</text>
</g>
</g>
</svg>
