<?xml version="1.0" encoding="UTF-8" standalone="no"?>
<!DOCTYPE svg PUBLIC "-//W3C//DTD SVG 1.1//EN"
 "http://www.w3.org/Graphics/SVG/1.1/DTD/svg11.dtd">
<!-- Generated by graphviz version 2.40.1 (20161225.0304)
 -->
<!-- Title: %3 Pages: 1 -->
<svg width="2197pt" height="1016pt"
 viewBox="0.00 0.00 2196.70 1015.50" xmlns="http://www.w3.org/2000/svg" xmlns:xlink="http://www.w3.org/1999/xlink">
<g id="graph0" class="graph" transform="scale(1 1) rotate(0) translate(4 1011.5)">
<title>%3</title>
<polygon fill="#ffffff" stroke="transparent" points="-4,4 -4,-1011.5 2192.6955,-1011.5 2192.6955,4 -4,4"/>
<text text-anchor="middle" x="1094.3478" y="-248.8" font-family="Times,serif" font-size="14.00" fill="#000000">Model:</text>
<text text-anchor="middle" x="1094.3478" y="-233.8" font-family="Times,serif" font-size="14.00" fill="#000000">(Unknown)</text>
<text text-anchor="middle" x="1094.3478" y="-202.8" font-family="Times,serif" font-size="14.00" fill="#000000">Namespaces:</text>
<text text-anchor="middle" x="1094.3478" y="-187.8" font-family="Times,serif" font-size="14.00" fill="#000000">dcmitype: http://purl.org/dc/dcmitype/</text>
<text text-anchor="middle" x="1094.3478" y="-172.8" font-family="Times,serif" font-size="14.00" fill="#000000">dcterms: http://purl.org/dc/terms/</text>
<text text-anchor="middle" x="1094.3478" y="-157.8" font-family="Times,serif" font-size="14.00" fill="#000000">dsw: http://purl.org/dsw/</text>
<text text-anchor="middle" x="1094.3478" y="-142.8" font-family="Times,serif" font-size="14.00" fill="#000000">dwc: http://rs.tdwg.org/dwc/terms/</text>
<text text-anchor="middle" x="1094.3478" y="-127.8" font-family="Times,serif" font-size="14.00" fill="#000000">dwciri: http://rs.tdwg.org/dwc/iri/</text>
<text text-anchor="middle" x="1094.3478" y="-112.8" font-family="Times,serif" font-size="14.00" fill="#000000">foaf: http://xmlns.com/foaf/0.1/</text>
<text text-anchor="middle" x="1094.3478" y="-97.8" font-family="Times,serif" font-size="14.00" fill="#000000">img: http://localhost:8080/semanticAnnotator/files/</text>
<text text-anchor="middle" x="1094.3478" y="-82.8" font-family="Times,serif" font-size="14.00" fill="#000000">iso: http://iso639&#45;3.sil.org/code/</text>
<text text-anchor="middle" x="1094.3478" y="-67.8" font-family="Times,serif" font-size="14.00" fill="#000000">mf: http://www.w3.org/TR/media&#45;frags/</text>
<text text-anchor="middle" x="1094.3478" y="-52.8" font-family="Times,serif" font-size="14.00" fill="#000000">oa: http://www.w3.org/ns/oa#</text>
<text text-anchor="middle" x="1094.3478" y="-37.8" font-family="Times,serif" font-size="14.00" fill="#000000">obo: http://purl.obolibrary.org/obo/</text>
<text text-anchor="middle" x="1094.3478" y="-22.8" font-family="Times,serif" font-size="14.00" fill="#000000">orcid: http://orcid.org/</text>
<text text-anchor="middle" x="1094.3478" y="-7.8" font-family="Times,serif" font-size="14.00" fill="#000000">rdf: http://www.w3.org/1999/02/22&#45;rdf&#45;syntax&#45;ns#</text>
<!-- Rhttp://localhost:8080/rdf/nc/annotation/314b41bf&#45;7143&#45;4fb4&#45;9894&#45;7beac92a5b8e -->
<g id="node1" class="node">
<title>Rhttp://localhost:8080/rdf/nc/annotation/314b41bf&#45;7143&#45;4fb4&#45;9894&#45;7beac92a5b8e</title>
<ellipse fill="none" stroke="#0000ff" cx="295.7238" cy="-762.5" rx="295.9477" ry="18"/>
<text text-anchor="middle" x="295.7238" y="-758.8" font-family="Times,serif" font-size="14.00" fill="#000000">http://localhost:8080/rdf/nc/annotation/314b41bf&#45;7143&#45;4fb4&#45;9894&#45;7beac92a5b8e</text>
</g>
<!-- Roa:Annotation -->
<g id="node2" class="node">
<title>Roa:Annotation</title>
<ellipse fill="none" stroke="#0000ff" cx="825.9377" cy="-895.5" rx="61.1893" ry="18"/>
<text text-anchor="middle" x="825.9377" y="-891.8" font-family="Times,serif" font-size="14.00" fill="#000000">oa:Annotation</text>
</g>
<!-- Rhttp://localhost:8080/rdf/nc/annotation/314b41bf&#45;7143&#45;4fb4&#45;9894&#45;7beac92a5b8e&#45;&gt;Roa:Annotation -->
<g id="edge1" class="edge">
<title>Rhttp://localhost:8080/rdf/nc/annotation/314b41bf&#45;7143&#45;4fb4&#45;9894&#45;7beac92a5b8e&#45;&gt;Roa:Annotation</title>
<path fill="none" stroke="#000000" d="M364.3875,-780.0135C447.4727,-801.1654 591.6334,-837.7381 715.4475,-868.5 732.7491,-872.7986 751.5892,-877.4233 768.7308,-881.6095"/>
<polygon fill="#000000" stroke="#000000" points="768.0581,-885.048 778.6028,-884.0178 769.7172,-878.2474 768.0581,-885.048"/>
<text text-anchor="middle" x="653.4475" y="-866.3" font-family="Times,serif" font-size="14.00" fill="#000000">rdf:type</text>
</g>
<!-- Rorcid:0000&#45;0002&#45;2146&#45;4803 -->
<g id="node3" class="node">
<title>Rorcid:0000&#45;0002&#45;2146&#45;4803</title>
<ellipse fill="none" stroke="#0000ff" cx="825.9377" cy="-841.5" rx="110.4804" ry="18"/>
<text text-anchor="middle" x="825.9377" y="-837.8" font-family="Times,serif" font-size="14.00" fill="#000000">orcid:0000&#45;0002&#45;2146&#45;4803</text>
</g>
<!-- Rhttp://localhost:8080/rdf/nc/annotation/314b41bf&#45;7143&#45;4fb4&#45;9894&#45;7beac92a5b8e&#45;&gt;Rorcid:0000&#45;0002&#45;2146&#45;4803 -->
<g id="edge2" class="edge">
<title>Rhttp://localhost:8080/rdf/nc/annotation/314b41bf&#45;7143&#45;4fb4&#45;9894&#45;7beac92a5b8e&#45;&gt;Rorcid:0000&#45;0002&#45;2146&#45;4803</title>
<path fill="none" stroke="#000000" d="M407.8444,-779.2056C504.9488,-793.6738 643.6841,-814.3449 734.2713,-827.842"/>
<polygon fill="#000000" stroke="#000000" points="733.8446,-831.317 744.2512,-829.329 734.8762,-824.3934 733.8446,-831.317"/>
<text text-anchor="middle" x="653.4475" y="-823.3" font-family="Times,serif" font-size="14.00" fill="#000000">dcterms:creator</text>
</g>
<!-- L2021&#45;01&#45;12T14:23:11.646Z|Datatype: dcterms:W3CDTF -->
<g id="node4" class="node">
<title>L2021&#45;01&#45;12T14:23:11.646Z|Datatype: dcterms:W3CDTF</title>
<polygon fill="none" stroke="#000000" points="738.4377,-758.5 738.4377,-804.5 913.4377,-804.5 913.4377,-758.5 738.4377,-758.5"/>
<text text-anchor="middle" x="825.9377" y="-789.3" font-family="Times,serif" font-size="14.00" fill="#000000">2021&#45;01&#45;12T14:23:11.646Z</text>
<polyline fill="none" stroke="#000000" points="738.4377,-781.5 913.4377,-781.5 "/>
<text text-anchor="middle" x="825.9377" y="-766.3" font-family="Times,serif" font-size="14.00" fill="#000000">Datatype: dcterms:W3CDTF</text>
</g>
<!-- Rhttp://localhost:8080/rdf/nc/annotation/314b41bf&#45;7143&#45;4fb4&#45;9894&#45;7beac92a5b8e&#45;&gt;L2021&#45;01&#45;12T14:23:11.646Z|Datatype: dcterms:W3CDTF -->
<g id="edge3" class="edge">
<title>Rhttp://localhost:8080/rdf/nc/annotation/314b41bf&#45;7143&#45;4fb4&#45;9894&#45;7beac92a5b8e&#45;&gt;L2021&#45;01&#45;12T14:23:11.646Z|Datatype: dcterms:W3CDTF</title>
<path fill="none" stroke="#000000" d="M550.7361,-771.6383C613.9021,-773.9018 677.8334,-776.1927 728.1583,-777.9961"/>
<polygon fill="#000000" stroke="#000000" points="728.2421,-781.5013 738.361,-778.3617 728.4928,-774.5058 728.2421,-781.5013"/>
<text text-anchor="middle" x="653.4475" y="-780.3" font-family="Times,serif" font-size="14.00" fill="#000000">dcterms:date</text>
</g>
<!-- B_:node1f0go8rutx32 -->
<g id="node5" class="node">
<title>B_:node1f0go8rutx32</title>
<ellipse fill="none" stroke="#00ff00" cx="825.9377" cy="-721.5" rx="18" ry="18"/>
</g>
<!-- Rhttp://localhost:8080/rdf/nc/annotation/314b41bf&#45;7143&#45;4fb4&#45;9894&#45;7beac92a5b8e&#45;&gt;B_:node1f0go8rutx32 -->
<g id="edge4" class="edge">
<title>Rhttp://localhost:8080/rdf/nc/annotation/314b41bf&#45;7143&#45;4fb4&#45;9894&#45;7beac92a5b8e&#45;&gt;B_:node1f0go8rutx32</title>
<path fill="none" stroke="#000000" d="M478.9358,-748.3327C596.7238,-739.2245 738.4291,-728.2668 797.7101,-723.6828"/>
<polygon fill="#000000" stroke="#000000" points="798.0953,-727.1635 807.7957,-722.9029 797.5556,-720.1844 798.0953,-727.1635"/>
<text text-anchor="middle" x="653.4475" y="-741.3" font-family="Times,serif" font-size="14.00" fill="#000000">oa:hasBody</text>
</g>
<!-- B_:node1f0go8rutx31 -->
<g id="node14" class="node">
<title>B_:node1f0go8rutx31</title>
<ellipse fill="none" stroke="#00ff00" cx="825.9377" cy="-496.5" rx="18" ry="18"/>
</g>
<!-- Rhttp://localhost:8080/rdf/nc/annotation/314b41bf&#45;7143&#45;4fb4&#45;9894&#45;7beac92a5b8e&#45;&gt;B_:node1f0go8rutx31 -->
<g id="edge14" class="edge">
<title>Rhttp://localhost:8080/rdf/nc/annotation/314b41bf&#45;7143&#45;4fb4&#45;9894&#45;7beac92a5b8e&#45;&gt;B_:node1f0go8rutx31</title>
<path fill="none" stroke="#000000" d="M331.7507,-744.4259C432.2956,-693.9841 714.2179,-552.5481 800.5137,-509.2548"/>
<polygon fill="#000000" stroke="#000000" points="802.229,-512.3101 809.5978,-504.6975 799.0901,-506.0533 802.229,-512.3101"/>
<text text-anchor="middle" x="653.4475" y="-602.3" font-family="Times,serif" font-size="14.00" fill="#000000">oa:hasTarget</text>
</g>
<!-- Roa:describing -->
<g id="node21" class="node">
<title>Roa:describing</title>
<ellipse fill="none" stroke="#0000ff" cx="825.9377" cy="-442.5" rx="57.6901" ry="18"/>
<text text-anchor="middle" x="825.9377" y="-438.8" font-family="Times,serif" font-size="14.00" fill="#000000">oa:describing</text>
</g>
<!-- Rhttp://localhost:8080/rdf/nc/annotation/314b41bf&#45;7143&#45;4fb4&#45;9894&#45;7beac92a5b8e&#45;&gt;Roa:describing -->
<g id="edge22" class="edge">
<title>Rhttp://localhost:8080/rdf/nc/annotation/314b41bf&#45;7143&#45;4fb4&#45;9894&#45;7beac92a5b8e&#45;&gt;Roa:describing</title>
<path fill="none" stroke="#000000" d="M315.8575,-744.2345C373.5493,-692.882 546.2035,-546.0056 715.4475,-469.5 730.7956,-462.562 748.1822,-457.2499 764.545,-453.2505"/>
<polygon fill="#000000" stroke="#000000" points="765.6215,-456.5939 774.5735,-450.9271 764.0415,-449.7745 765.6215,-456.5939"/>
<text text-anchor="middle" x="653.4475" y="-525.3" font-family="Times,serif" font-size="14.00" fill="#000000">oa:motivatedBy</text>
</g>
<!-- Rfoaf:Person -->
<g id="node22" class="node">
<title>Rfoaf:Person</title>
<ellipse fill="none" stroke="#0000ff" cx="1295.0617" cy="-975.5" rx="51.1914" ry="18"/>
<text text-anchor="middle" x="1295.0617" y="-971.8" font-family="Times,serif" font-size="14.00" fill="#000000">foaf:Person</text>
</g>
<!-- Rorcid:0000&#45;0002&#45;2146&#45;4803&#45;&gt;Rfoaf:Person -->
<g id="edge23" class="edge">
<title>Rorcid:0000&#45;0002&#45;2146&#45;4803&#45;&gt;Rfoaf:Person</title>
<path fill="none" stroke="#000000" d="M912.9225,-852.77C921.6234,-856.6885 929.7079,-861.8155 936.4279,-868.5 959.8136,-891.7618 929.5019,-918.8969 954.4279,-940.5 1034.3412,-1009.7601 1167.6647,-999.6674 1241.5893,-987.059"/>
<polygon fill="#000000" stroke="#000000" points="1242.3843,-990.4725 1251.6145,-985.2712 1241.1553,-983.5813 1242.3843,-990.4725"/>
<text text-anchor="middle" x="1024.4279" y="-996.3" font-family="Times,serif" font-size="14.00" fill="#000000">rdf:type</text>
</g>
<!-- Rdsw:Token -->
<g id="node6" class="node">
<title>Rdsw:Token</title>
<ellipse fill="none" stroke="#0000ff" cx="1908.6955" cy="-694.5" rx="50.0912" ry="18"/>
<text text-anchor="middle" x="1908.6955" y="-690.8" font-family="Times,serif" font-size="14.00" fill="#000000">dsw:Token</text>
</g>
<!-- B_:node1f0go8rutx32&#45;&gt;Rdsw:Token -->
<g id="edge5" class="edge">
<title>B_:node1f0go8rutx32&#45;&gt;Rdsw:Token</title>
<path fill="none" stroke="#000000" d="M844.0259,-720.2254C889.2443,-717.0966 1010.8661,-709.036 1112.4279,-705.5 1386.8634,-695.9452 1714.7746,-694.5953 1847.9814,-694.4701"/>
<polygon fill="#000000" stroke="#000000" points="1848.3729,-697.9699 1858.3703,-694.4625 1848.3677,-690.9699 1848.3729,-697.9699"/>
<text text-anchor="middle" x="1295.0617" y="-709.3" font-family="Times,serif" font-size="14.00" fill="#000000">rdf:type</text>
</g>
<!-- Rdwc:MeasurementOrFact -->
<g id="node7" class="node">
<title>Rdwc:MeasurementOrFact</title>
<ellipse fill="none" stroke="#0000ff" cx="1295.0617" cy="-747.5" rx="100.9827" ry="18"/>
<text text-anchor="middle" x="1295.0617" y="-743.8" font-family="Times,serif" font-size="14.00" fill="#000000">dwc:MeasurementOrFact</text>
</g>
<!-- B_:node1f0go8rutx32&#45;&gt;Rdwc:MeasurementOrFact -->
<g id="edge6" class="edge">
<title>B_:node1f0go8rutx32&#45;&gt;Rdwc:MeasurementOrFact</title>
<path fill="none" stroke="#000000" d="M844.0405,-722.5033C900.0643,-725.6083 1073.7289,-735.2332 1188.4862,-741.5933"/>
<polygon fill="#000000" stroke="#000000" points="1188.5325,-745.1012 1198.7109,-742.16 1188.9199,-738.1119 1188.5325,-745.1012"/>
<text text-anchor="middle" x="1024.4279" y="-740.3" font-family="Times,serif" font-size="14.00" fill="#000000">rdf:type</text>
</g>
<!-- Roa:TextualBody -->
<g id="node8" class="node">
<title>Roa:TextualBody</title>
<ellipse fill="none" stroke="#0000ff" cx="1295.0617" cy="-642.5" rx="67.6881" ry="18"/>
<text text-anchor="middle" x="1295.0617" y="-638.8" font-family="Times,serif" font-size="14.00" fill="#000000">oa:TextualBody</text>
</g>
<!-- B_:node1f0go8rutx32&#45;&gt;Roa:TextualBody -->
<g id="edge7" class="edge">
<title>B_:node1f0go8rutx32&#45;&gt;Roa:TextualBody</title>
<path fill="none" stroke="#000000" d="M841.9891,-712.7357C865.7577,-700.2323 912.0756,-677.6651 954.4279,-667.5 1042.908,-646.2636 1147.7073,-641.5037 1217.4695,-641.0979"/>
<polygon fill="#000000" stroke="#000000" points="1217.5124,-644.5979 1227.5019,-641.0682 1217.4916,-637.5979 1217.5124,-644.5979"/>
<text text-anchor="middle" x="1024.4279" y="-671.3" font-family="Times,serif" font-size="14.00" fill="#000000">rdf:type</text>
</g>
<!-- Ltext/plain -->
<g id="node9" class="node">
<title>Ltext/plain</title>
<polygon fill="none" stroke="#000000" points="1261.0617,-569.5 1261.0617,-605.5 1329.0617,-605.5 1329.0617,-569.5 1261.0617,-569.5"/>
<text text-anchor="middle" x="1295.0617" y="-583.8" font-family="Times,serif" font-size="14.00" fill="#000000">text/plain</text>
</g>
<!-- B_:node1f0go8rutx32&#45;&gt;Ltext/plain -->
<g id="edge8" class="edge">
<title>B_:node1f0go8rutx32&#45;&gt;Ltext/plain</title>
<path fill="none" stroke="#000000" d="M838.7716,-708.4745C860.4303,-687.3999 906.5769,-646.2939 954.4279,-627.5 1054.9096,-588.035 1183.9147,-584.4064 1250.6451,-585.6491"/>
<polygon fill="#000000" stroke="#000000" points="1250.7276,-589.1519 1260.8063,-585.8856 1250.8905,-582.1538 1250.7276,-589.1519"/>
<text text-anchor="middle" x="1024.4279" y="-631.3" font-family="Times,serif" font-size="14.00" fill="#000000">dcterms:format</text>
</g>
<!-- Robo:UBERON_0001062 -->
<g id="node10" class="node">
<title>Robo:UBERON_0001062</title>
<ellipse fill="none" stroke="#0000ff" cx="1295.0617" cy="-921.5" rx="97.4827" ry="18"/>
<text text-anchor="middle" x="1295.0617" y="-917.8" font-family="Times,serif" font-size="14.00" fill="#000000">obo:UBERON_0001062</text>
</g>
<!-- B_:node1f0go8rutx32&#45;&gt;Robo:UBERON_0001062 -->
<g id="edge9" class="edge">
<title>B_:node1f0go8rutx32&#45;&gt;Robo:UBERON_0001062</title>
<path fill="none" stroke="#000000" d="M843.9684,-720.1642C868.8085,-719.4128 913.1222,-722.1882 936.4279,-748.5 981.241,-799.0934 905.361,-853.0206 954.4279,-899.5 971.1877,-915.376 1093.747,-920.076 1187.1001,-921.3233"/>
<polygon fill="#000000" stroke="#000000" points="1187.1399,-924.8239 1197.1818,-921.4463 1187.2253,-917.8245 1187.1399,-924.8239"/>
<text text-anchor="middle" x="1024.4279" y="-922.3" font-family="Times,serif" font-size="14.00" fill="#000000">dcterms:identifier</text>
</g>
<!-- B_:node1f0go8rutx32&#45;&gt;Robo:UBERON_0001062 -->
<g id="edge12" class="edge">
<title>B_:node1f0go8rutx32&#45;&gt;Robo:UBERON_0001062</title>
<path fill="none" stroke="#000000" d="M844.2113,-720.313C868.9222,-719.7928 912.6317,-722.8999 936.4279,-748.5 969.2601,-783.8211 920.5003,-821.2298 954.4279,-855.5 998.8966,-900.4177 1036.6858,-854.7918 1094.4279,-880.5 1103.6866,-884.6222 1103.1086,-890.5168 1112.4279,-894.5 1136.7325,-904.888 1164.3301,-911.3852 1190.577,-915.4202"/>
<polygon fill="#000000" stroke="#000000" points="1190.1655,-918.8969 1200.5606,-916.8492 1191.1574,-911.9676 1190.1655,-918.8969"/>
<text text-anchor="middle" x="1024.4279" y="-884.3" font-family="Times,serif" font-size="14.00" fill="#000000">dwciri:measurementType</text>
</g>
<!-- Riso:lat -->
<g id="node11" class="node">
<title>Riso:lat</title>
<ellipse fill="none" stroke="#0000ff" cx="1295.0617" cy="-867.5" rx="32.4942" ry="18"/>
<text text-anchor="middle" x="1295.0617" y="-863.8" font-family="Times,serif" font-size="14.00" fill="#000000">iso:lat</text>
</g>
<!-- B_:node1f0go8rutx32&#45;&gt;Riso:lat -->
<g id="edge10" class="edge">
<title>B_:node1f0go8rutx32&#45;&gt;Riso:lat</title>
<path fill="none" stroke="#000000" d="M844.0939,-720.8435C868.2677,-720.9784 910.9297,-724.8842 936.4279,-748.5 955.2981,-765.9771 935.4738,-786.1141 954.4279,-803.5 976.3194,-823.5802 1167.1227,-850.7631 1253.2224,-862.1427"/>
<polygon fill="#000000" stroke="#000000" points="1252.8144,-865.6191 1263.1849,-863.4506 1253.7256,-858.6787 1252.8144,-865.6191"/>
<text text-anchor="middle" x="1024.4279" y="-840.3" font-family="Times,serif" font-size="14.00" fill="#000000">dcterms:language</text>
</g>
<!-- Rimg:MMNAT01_AF_NNM001001033_003.jpg -->
<g id="node12" class="node">
<title>Rimg:MMNAT01_AF_NNM001001033_003.jpg</title>
<ellipse fill="none" stroke="#0000ff" cx="1295.0617" cy="-532.5" rx="182.7677" ry="18"/>
<text text-anchor="middle" x="1295.0617" y="-528.8" font-family="Times,serif" font-size="14.00" fill="#000000">img:MMNAT01_AF_NNM001001033_003.jpg</text>
</g>
<!-- B_:node1f0go8rutx32&#45;&gt;Rimg:MMNAT01_AF_NNM001001033_003.jpg -->
<g id="edge11" class="edge">
<title>B_:node1f0go8rutx32&#45;&gt;Rimg:MMNAT01_AF_NNM001001033_003.jpg</title>
<path fill="none" stroke="#000000" d="M834.7123,-705.3548C852.6035,-674.2027 896.549,-606.1742 954.4279,-575.5 999.3602,-551.6872 1052.1746,-538.9702 1102.6277,-532.5983"/>
<polygon fill="#000000" stroke="#000000" points="1103.165,-536.0592 1112.6838,-531.4071 1102.3415,-529.1078 1103.165,-536.0592"/>
<text text-anchor="middle" x="1024.4279" y="-579.3" font-family="Times,serif" font-size="14.00" fill="#000000">dsw:derivedFrom</text>
</g>
<!-- LDentibus|Language: lat -->
<g id="node13" class="node">
<title>LDentibus|Language: lat</title>
<polygon fill="none" stroke="#000000" points="1249.5617,-784.5 1249.5617,-830.5 1340.5617,-830.5 1340.5617,-784.5 1249.5617,-784.5"/>
<text text-anchor="middle" x="1295.0617" y="-815.3" font-family="Times,serif" font-size="14.00" fill="#000000">Dentibus</text>
<polyline fill="none" stroke="#000000" points="1249.5617,-807.5 1340.5617,-807.5 "/>
<text text-anchor="middle" x="1295.0617" y="-792.3" font-family="Times,serif" font-size="14.00" fill="#000000">Language: lat</text>
</g>
<!-- B_:node1f0go8rutx32&#45;&gt;LDentibus|Language: lat -->
<g id="edge13" class="edge">
<title>B_:node1f0go8rutx32&#45;&gt;LDentibus|Language: lat</title>
<path fill="none" stroke="#000000" d="M843.7402,-725.0965C865.7426,-729.7135 904.2223,-738.351 936.4279,-748.5 944.6147,-751.0799 946.1354,-753.2834 954.4279,-755.5 1052.9652,-781.8385 1171.3425,-796.1592 1239.4251,-802.787"/>
<polygon fill="#000000" stroke="#000000" points="1239.216,-806.2829 1249.503,-803.7475 1239.8802,-799.3145 1239.216,-806.2829"/>
<text text-anchor="middle" x="1024.4279" y="-788.3" font-family="Times,serif" font-size="14.00" fill="#000000">rdf:value</text>
</g>
<!-- Rimg:MMNAT01_AF_NNM001001033_003.jpg&#45;&gt;Rdsw:Token -->
<g id="edge25" class="edge">
<title>Rimg:MMNAT01_AF_NNM001001033_003.jpg&#45;&gt;Rdsw:Token</title>
<path fill="none" stroke="#000000" d="M1451.0469,-541.9536C1460.6963,-546.55 1469.7154,-552.3161 1477.6955,-559.5 1501.5698,-580.9923 1473.2052,-606.5634 1495.6955,-629.5 1538.6524,-673.3092 1568.3923,-655.1835 1628.6955,-666.5 1703.8439,-680.6023 1791.7604,-687.9267 1848.7454,-691.4899"/>
<polygon fill="#000000" stroke="#000000" points="1848.8223,-695.0009 1859.0157,-692.1122 1849.2457,-688.0137 1848.8223,-695.0009"/>
<text text-anchor="middle" x="1553.1955" y="-668.3" font-family="Times,serif" font-size="14.00" fill="#000000">rdf:type</text>
</g>
<!-- Rdcmitype:StillImage -->
<g id="node23" class="node">
<title>Rdcmitype:StillImage</title>
<ellipse fill="none" stroke="#0000ff" cx="1908.6955" cy="-639.5" rx="83.3857" ry="18"/>
<text text-anchor="middle" x="1908.6955" y="-635.8" font-family="Times,serif" font-size="14.00" fill="#000000">dcmitype:StillImage</text>
</g>
<!-- Rimg:MMNAT01_AF_NNM001001033_003.jpg&#45;&gt;Rdcmitype:StillImage -->
<g id="edge24" class="edge">
<title>Rimg:MMNAT01_AF_NNM001001033_003.jpg&#45;&gt;Rdcmitype:StillImage</title>
<path fill="none" stroke="#000000" d="M1438.9104,-543.6356C1452.4651,-547.6529 1465.6301,-552.8384 1477.6955,-559.5 1488.4569,-565.4416 1485.2101,-574.0837 1495.6955,-580.5 1547.5545,-612.2338 1568.7345,-602.4465 1628.6955,-612.5 1691.6077,-623.0483 1763.215,-629.8616 1818.2658,-634.0051"/>
<polygon fill="#000000" stroke="#000000" points="1818.1162,-637.5035 1828.3465,-634.7481 1818.6308,-630.5225 1818.1162,-637.5035"/>
<text text-anchor="middle" x="1553.1955" y="-614.3" font-family="Times,serif" font-size="14.00" fill="#000000">rdf:type</text>
</g>
<!-- Rdwc:HumanObservation -->
<g id="node24" class="node">
<title>Rdwc:HumanObservation</title>
<ellipse fill="none" stroke="#0000ff" cx="1908.6955" cy="-585.5" rx="96.6831" ry="18"/>
<text text-anchor="middle" x="1908.6955" y="-581.8" font-family="Times,serif" font-size="14.00" fill="#000000">dwc:HumanObservation</text>
</g>
<!-- Rimg:MMNAT01_AF_NNM001001033_003.jpg&#45;&gt;Rdwc:HumanObservation -->
<g id="edge26" class="edge">
<title>Rimg:MMNAT01_AF_NNM001001033_003.jpg&#45;&gt;Rdwc:HumanObservation</title>
<path fill="none" stroke="#000000" d="M1425.6293,-545.0989C1448.9574,-547.2832 1473.0418,-549.4949 1495.6955,-551.5 1602.7797,-560.9779 1725.5638,-570.9752 1809.2363,-577.6564"/>
<polygon fill="#000000" stroke="#000000" points="1808.9961,-581.1483 1819.2428,-578.4545 1809.5527,-574.1704 1808.9961,-581.1483"/>
<text text-anchor="middle" x="1553.1955" y="-565.3" font-family="Times,serif" font-size="14.00" fill="#000000">rdf:type</text>
</g>
<!-- Roa:Source -->
<g id="node25" class="node">
<title>Roa:Source</title>
<ellipse fill="none" stroke="#0000ff" cx="1908.6955" cy="-531.5" rx="46.2923" ry="18"/>
<text text-anchor="middle" x="1908.6955" y="-527.8" font-family="Times,serif" font-size="14.00" fill="#000000">oa:Source</text>
</g>
<!-- Rimg:MMNAT01_AF_NNM001001033_003.jpg&#45;&gt;Roa:Source -->
<g id="edge27" class="edge">
<title>Rimg:MMNAT01_AF_NNM001001033_003.jpg&#45;&gt;Roa:Source</title>
<path fill="none" stroke="#000000" d="M1477.9257,-532.202C1605.7589,-531.9937 1768.1015,-531.7291 1852.2983,-531.5919"/>
<polygon fill="#000000" stroke="#000000" points="1852.4233,-535.0918 1862.4176,-531.5754 1852.4118,-528.0918 1852.4233,-535.0918"/>
<text text-anchor="middle" x="1553.1955" y="-536.3" font-family="Times,serif" font-size="14.00" fill="#000000">rdf:type</text>
</g>
<!-- Rfoaf:Image -->
<g id="node26" class="node">
<title>Rfoaf:Image</title>
<ellipse fill="none" stroke="#0000ff" cx="1908.6955" cy="-477.5" rx="50.0912" ry="18"/>
<text text-anchor="middle" x="1908.6955" y="-473.8" font-family="Times,serif" font-size="14.00" fill="#000000">foaf:Image</text>
</g>
<!-- Rimg:MMNAT01_AF_NNM001001033_003.jpg&#45;&gt;Rfoaf:Image -->
<g id="edge28" class="edge">
<title>Rimg:MMNAT01_AF_NNM001001033_003.jpg&#45;&gt;Rfoaf:Image</title>
<path fill="none" stroke="#000000" d="M1426.1759,-519.9414C1449.3351,-517.7636 1473.2209,-515.5437 1495.6955,-513.5 1621.5722,-502.0538 1769.1013,-489.3704 1849.3392,-482.5337"/>
<polygon fill="#000000" stroke="#000000" points="1850.0648,-485.9847 1859.7318,-481.6489 1849.4709,-479.0099 1850.0648,-485.9847"/>
<text text-anchor="middle" x="1553.1955" y="-517.3" font-family="Times,serif" font-size="14.00" fill="#000000">rdf:type</text>
</g>
<!-- B_:node1f0go8rutx31&#45;&gt;Rimg:MMNAT01_AF_NNM001001033_003.jpg -->
<g id="edge21" class="edge">
<title>B_:node1f0go8rutx31&#45;&gt;Rimg:MMNAT01_AF_NNM001001033_003.jpg</title>
<path fill="none" stroke="#000000" d="M844.1709,-497.8252C887.5456,-500.9848 1000.2885,-509.2401 1094.4279,-516.5 1110.224,-517.7182 1126.7183,-519.0067 1143.1679,-520.3025"/>
<polygon fill="#000000" stroke="#000000" points="1143.1533,-523.8122 1153.3977,-521.1097 1143.704,-516.8339 1143.1533,-523.8122"/>
<text text-anchor="middle" x="1024.4279" y="-520.3" font-family="Times,serif" font-size="14.00" fill="#000000">oa:hasSource</text>
</g>
<!-- Roa:Target -->
<g id="node15" class="node">
<title>Roa:Target</title>
<ellipse fill="none" stroke="#0000ff" cx="1295.0617" cy="-368.5" rx="44.393" ry="18"/>
<text text-anchor="middle" x="1295.0617" y="-364.8" font-family="Times,serif" font-size="14.00" fill="#000000">oa:Target</text>
</g>
<!-- B_:node1f0go8rutx31&#45;&gt;Roa:Target -->
<g id="edge15" class="edge">
<title>B_:node1f0go8rutx31&#45;&gt;Roa:Target</title>
<path fill="none" stroke="#000000" d="M844.2413,-497.3122C868.582,-497.3539 911.4327,-493.6475 936.4279,-469.5 957.6788,-448.9699 931.8743,-424.5898 954.4279,-405.5 1036.6527,-335.9032 1173.0032,-346.2564 1245.7565,-358.2737"/>
<polygon fill="#000000" stroke="#000000" points="1245.5646,-361.7925 1256.0151,-360.0495 1246.7586,-354.8951 1245.5646,-361.7925"/>
<text text-anchor="middle" x="1024.4279" y="-409.3" font-family="Times,serif" font-size="14.00" fill="#000000">rdf:type</text>
</g>
<!-- Limage/jpeg -->
<g id="node16" class="node">
<title>Limage/jpeg</title>
<polygon fill="none" stroke="#000000" points="1256.5617,-459.5 1256.5617,-495.5 1333.5617,-495.5 1333.5617,-459.5 1256.5617,-459.5"/>
<text text-anchor="middle" x="1295.0617" y="-473.8" font-family="Times,serif" font-size="14.00" fill="#000000">image/jpeg</text>
</g>
<!-- B_:node1f0go8rutx31&#45;&gt;Limage/jpeg -->
<g id="edge16" class="edge">
<title>B_:node1f0go8rutx31&#45;&gt;Limage/jpeg</title>
<path fill="none" stroke="#000000" d="M843.7325,-493.2242C868.4593,-488.8518 914.659,-481.3307 954.4279,-478.5 1058.1555,-471.1168 1180.1002,-473.4046 1246.296,-475.5612"/>
<polygon fill="#000000" stroke="#000000" points="1246.3171,-479.0638 1256.43,-475.9046 1246.5543,-472.0678 1246.3171,-479.0638"/>
<text text-anchor="middle" x="1024.4279" y="-482.3" font-family="Times,serif" font-size="14.00" fill="#000000">dcterms:format</text>
</g>
<!-- B_:node1f0go8rutx34 -->
<g id="node17" class="node">
<title>B_:node1f0go8rutx34</title>
<ellipse fill="none" stroke="#00ff00" cx="1295.0617" cy="-422.5" rx="18" ry="18"/>
</g>
<!-- B_:node1f0go8rutx31&#45;&gt;B_:node1f0go8rutx34 -->
<g id="edge17" class="edge">
<title>B_:node1f0go8rutx31&#45;&gt;B_:node1f0go8rutx34</title>
<path fill="none" stroke="#000000" d="M843.9425,-494.462C866.4841,-491.3904 905.85,-484.2842 936.4279,-469.5 945.5523,-465.0884 945.0115,-459.248 954.4279,-455.5 1063.3008,-412.1649 1206.5967,-416.0148 1266.6567,-420.0669"/>
<polygon fill="#000000" stroke="#000000" points="1266.6468,-423.5754 1276.8755,-420.8145 1267.1576,-416.5941 1266.6468,-423.5754"/>
<text text-anchor="middle" x="1024.4279" y="-459.3" font-family="Times,serif" font-size="14.00" fill="#000000">oa:hasSelector</text>
</g>
<!-- Roa:FragmentSelector -->
<g id="node18" class="node">
<title>Roa:FragmentSelector</title>
<ellipse fill="none" stroke="#0000ff" cx="1908.6955" cy="-423.5" rx="84.485" ry="18"/>
<text text-anchor="middle" x="1908.6955" y="-419.8" font-family="Times,serif" font-size="14.00" fill="#000000">oa:FragmentSelector</text>
</g>
<!-- B_:node1f0go8rutx34&#45;&gt;Roa:FragmentSelector -->
<g id="edge18" class="edge">
<title>B_:node1f0go8rutx34&#45;&gt;Roa:FragmentSelector</title>
<path fill="none" stroke="#000000" d="M1313.0943,-422.5294C1386.438,-422.6489 1665.4994,-423.1037 1814.1572,-423.3459"/>
<polygon fill="#000000" stroke="#000000" points="1814.188,-426.8459 1824.1937,-423.3623 1814.1995,-419.8459 1814.188,-426.8459"/>
<text text-anchor="middle" x="1553.1955" y="-427.3" font-family="Times,serif" font-size="14.00" fill="#000000">rdf:type</text>
</g>
<!-- Rmf: -->
<g id="node19" class="node">
<title>Rmf:</title>
<ellipse fill="none" stroke="#0000ff" cx="1908.6955" cy="-369.5" rx="27" ry="18"/>
<text text-anchor="middle" x="1908.6955" y="-365.8" font-family="Times,serif" font-size="14.00" fill="#000000">mf:</text>
</g>
<!-- B_:node1f0go8rutx34&#45;&gt;Rmf: -->
<g id="edge19" class="edge">
<title>B_:node1f0go8rutx34&#45;&gt;Rmf:</title>
<path fill="none" stroke="#000000" d="M1313.0439,-420.8568C1348.1512,-417.6552 1428.2804,-410.3806 1495.6955,-404.5 1634.3971,-392.401 1799.3563,-378.5977 1871.6515,-372.5777"/>
<polygon fill="#000000" stroke="#000000" points="1871.9563,-376.0645 1881.6315,-371.7471 1871.3756,-369.0886 1871.9563,-376.0645"/>
<text text-anchor="middle" x="1553.1955" y="-408.3" font-family="Times,serif" font-size="14.00" fill="#000000">dcterms:conformsTo</text>
</g>
<!-- Lxywh=0.5366845889070635,0.2939686187699841,0.04048369061255663,0.028409607447408114 -->
<g id="node20" class="node">
<title>Lxywh=0.5366845889070635,0.2939686187699841,0.04048369061255663,0.028409607447408114</title>
<polygon fill="none" stroke="#000000" points="1628.6955,-296.5 1628.6955,-332.5 2188.6955,-332.5 2188.6955,-296.5 1628.6955,-296.5"/>
<text text-anchor="middle" x="1908.6955" y="-310.8" font-family="Times,serif" font-size="14.00" fill="#000000">xywh=0.5366845889070635,0.2939686187699841,0.04048369061255663,0.028409607447408114</text>
</g>
<!-- B_:node1f0go8rutx34&#45;&gt;Lxywh=0.5366845889070635,0.2939686187699841,0.04048369061255663,0.028409607447408114 -->
<g id="edge20" class="edge">
<title>B_:node1f0go8rutx34&#45;&gt;Lxywh=0.5366845889070635,0.2939686187699841,0.04048369061255663,0.028409607447408114</title>
<path fill="none" stroke="#000000" d="M1313.0942,-423.5954C1347.2726,-424.8903 1422.9565,-423.9696 1477.6955,-395.5 1488.0154,-390.1326 1485.6671,-382.394 1495.6955,-376.5 1548.2955,-345.5854 1568.615,-353.1211 1628.6955,-342.5 1646.9257,-339.2772 1665.894,-336.3951 1684.9825,-333.8232"/>
<polygon fill="#000000" stroke="#000000" points="1685.5154,-337.2834 1694.9723,-332.5065 1684.6006,-330.3434 1685.5154,-337.2834"/>
<text text-anchor="middle" x="1553.1955" y="-380.3" font-family="Times,serif" font-size="14.00" fill="#000000">rdf:value</text>
</g>
</g>
</svg>
