<?xml version="1.0" encoding="UTF-8" standalone="no"?>
<!DOCTYPE svg PUBLIC "-//W3C//DTD SVG 1.1//EN"
 "http://www.w3.org/Graphics/SVG/1.1/DTD/svg11.dtd">
<!-- Generated by graphviz version 2.40.1 (20161225.0304)
 -->
<!-- Title: %3 Pages: 1 -->
<svg width="2037pt" height="1010pt"
 viewBox="0.00 0.00 2036.81 1009.50" xmlns="http://www.w3.org/2000/svg" xmlns:xlink="http://www.w3.org/1999/xlink">
<g id="graph0" class="graph" transform="scale(1 1) rotate(0) translate(4 1005.5)">
<title>%3</title>
<polygon fill="#ffffff" stroke="transparent" points="-4,4 -4,-1005.5 2032.8097,-1005.5 2032.8097,4 -4,4"/>
<text text-anchor="middle" x="1014.4048" y="-248.8" font-family="Times,serif" font-size="14.00" fill="#000000">Model:</text>
<text text-anchor="middle" x="1014.4048" y="-233.8" font-family="Times,serif" font-size="14.00" fill="#000000">(Unknown)</text>
<text text-anchor="middle" x="1014.4048" y="-202.8" font-family="Times,serif" font-size="14.00" fill="#000000">Namespaces:</text>
<text text-anchor="middle" x="1014.4048" y="-187.8" font-family="Times,serif" font-size="14.00" fill="#000000">dcmitype: http://purl.org/dc/dcmitype/</text>
<text text-anchor="middle" x="1014.4048" y="-172.8" font-family="Times,serif" font-size="14.00" fill="#000000">dcterms: http://purl.org/dc/terms/</text>
<text text-anchor="middle" x="1014.4048" y="-157.8" font-family="Times,serif" font-size="14.00" fill="#000000">dsw: http://purl.org/dsw/</text>
<text text-anchor="middle" x="1014.4048" y="-142.8" font-family="Times,serif" font-size="14.00" fill="#000000">dwc: http://rs.tdwg.org/dwc/terms/</text>
<text text-anchor="middle" x="1014.4048" y="-127.8" font-family="Times,serif" font-size="14.00" fill="#000000">dwciri: http://rs.tdwg.org/dwc/iri/</text>
<text text-anchor="middle" x="1014.4048" y="-112.8" font-family="Times,serif" font-size="14.00" fill="#000000">foaf: http://xmlns.com/foaf/0.1/</text>
<text text-anchor="middle" x="1014.4048" y="-97.8" font-family="Times,serif" font-size="14.00" fill="#000000">img: http://localhost:8182/iiif/2/900c341c1c10fff7:MMNAT01_PM_NNM001001033_003/full/max/0/</text>
<text text-anchor="middle" x="1014.4048" y="-82.8" font-family="Times,serif" font-size="14.00" fill="#000000">iso: http://iso639&#45;3.sil.org/code/</text>
<text text-anchor="middle" x="1014.4048" y="-67.8" font-family="Times,serif" font-size="14.00" fill="#000000">mf: http://www.w3.org/TR/media&#45;frags/</text>
<text text-anchor="middle" x="1014.4048" y="-52.8" font-family="Times,serif" font-size="14.00" fill="#000000">oa: http://www.w3.org/ns/oa#</text>
<text text-anchor="middle" x="1014.4048" y="-37.8" font-family="Times,serif" font-size="14.00" fill="#000000">obo: http://purl.obolibrary.org/obo/</text>
<text text-anchor="middle" x="1014.4048" y="-22.8" font-family="Times,serif" font-size="14.00" fill="#000000">orcid: http://orcid.org/</text>
<text text-anchor="middle" x="1014.4048" y="-7.8" font-family="Times,serif" font-size="14.00" fill="#000000">rdf: http://www.w3.org/1999/02/22&#45;rdf&#45;syntax&#45;ns#</text>
<!-- Rhttp://localhost:8080/rdf/nc/annotation/52b10c75&#45;d7cd&#45;44d5&#45;9286&#45;ae8b2f5b403d -->
<g id="node1" class="node">
<title>Rhttp://localhost:8080/rdf/nc/annotation/52b10c75&#45;d7cd&#45;44d5&#45;9286&#45;ae8b2f5b403d</title>
<ellipse fill="none" stroke="#0000ff" cx="297.6736" cy="-762.5" rx="297.8473" ry="18"/>
<text text-anchor="middle" x="297.6736" y="-758.8" font-family="Times,serif" font-size="14.00" fill="#000000">http://localhost:8080/rdf/nc/annotation/52b10c75&#45;d7cd&#45;44d5&#45;9286&#45;ae8b2f5b403d</text>
</g>
<!-- Roa:Annotation -->
<g id="node2" class="node">
<title>Roa:Annotation</title>
<ellipse fill="none" stroke="#0000ff" cx="829.8374" cy="-895.5" rx="61.1893" ry="18"/>
<text text-anchor="middle" x="829.8374" y="-891.8" font-family="Times,serif" font-size="14.00" fill="#000000">oa:Annotation</text>
</g>
<!-- Rhttp://localhost:8080/rdf/nc/annotation/52b10c75&#45;d7cd&#45;44d5&#45;9286&#45;ae8b2f5b403d&#45;&gt;Roa:Annotation -->
<g id="edge1" class="edge">
<title>Rhttp://localhost:8080/rdf/nc/annotation/52b10c75&#45;d7cd&#45;44d5&#45;9286&#45;ae8b2f5b403d&#45;&gt;Roa:Annotation</title>
<path fill="none" stroke="#000000" d="M367.0314,-780.0844C450.5658,-801.2285 595.1586,-837.7174 719.3472,-868.5 736.6511,-872.7891 755.4919,-877.411 772.6334,-881.5975"/>
<polygon fill="#000000" stroke="#000000" points="771.9606,-885.036 782.5052,-884.0064 773.62,-878.2355 771.9606,-885.036"/>
<text text-anchor="middle" x="657.3472" y="-866.3" font-family="Times,serif" font-size="14.00" fill="#000000">rdf:type</text>
</g>
<!-- Rorcid:0000&#45;0002&#45;2146&#45;4803 -->
<g id="node3" class="node">
<title>Rorcid:0000&#45;0002&#45;2146&#45;4803</title>
<ellipse fill="none" stroke="#0000ff" cx="829.8374" cy="-841.5" rx="110.4804" ry="18"/>
<text text-anchor="middle" x="829.8374" y="-837.8" font-family="Times,serif" font-size="14.00" fill="#000000">orcid:0000&#45;0002&#45;2146&#45;4803</text>
</g>
<!-- Rhttp://localhost:8080/rdf/nc/annotation/52b10c75&#45;d7cd&#45;44d5&#45;9286&#45;ae8b2f5b403d&#45;&gt;Rorcid:0000&#45;0002&#45;2146&#45;4803 -->
<g id="edge2" class="edge">
<title>Rhttp://localhost:8080/rdf/nc/annotation/52b10c75&#45;d7cd&#45;44d5&#45;9286&#45;ae8b2f5b403d&#45;&gt;Rorcid:0000&#45;0002&#45;2146&#45;4803</title>
<path fill="none" stroke="#000000" d="M410.2066,-779.2056C507.668,-793.6738 646.9135,-814.3449 737.8339,-827.842"/>
<polygon fill="#000000" stroke="#000000" points="737.4449,-831.3226 747.8505,-829.329 738.4728,-824.3984 737.4449,-831.3226"/>
<text text-anchor="middle" x="657.3472" y="-825.3" font-family="Times,serif" font-size="14.00" fill="#000000">dcterms:creator</text>
</g>
<!-- L2021&#45;01&#45;12T14:23:11.646Z|Datatype: dcterms:W3CDTF -->
<g id="node4" class="node">
<title>L2021&#45;01&#45;12T14:23:11.646Z|Datatype: dcterms:W3CDTF</title>
<polygon fill="none" stroke="#000000" points="742.3374,-758.5 742.3374,-804.5 917.3374,-804.5 917.3374,-758.5 742.3374,-758.5"/>
<text text-anchor="middle" x="829.8374" y="-789.3" font-family="Times,serif" font-size="14.00" fill="#000000">2021&#45;01&#45;12T14:23:11.646Z</text>
<polyline fill="none" stroke="#000000" points="742.3374,-781.5 917.3374,-781.5 "/>
<text text-anchor="middle" x="829.8374" y="-766.3" font-family="Times,serif" font-size="14.00" fill="#000000">Datatype: dcterms:W3CDTF</text>
</g>
<!-- Rhttp://localhost:8080/rdf/nc/annotation/52b10c75&#45;d7cd&#45;44d5&#45;9286&#45;ae8b2f5b403d&#45;&gt;L2021&#45;01&#45;12T14:23:11.646Z|Datatype: dcterms:W3CDTF -->
<g id="edge3" class="edge">
<title>Rhttp://localhost:8080/rdf/nc/annotation/52b10c75&#45;d7cd&#45;44d5&#45;9286&#45;ae8b2f5b403d&#45;&gt;L2021&#45;01&#45;12T14:23:11.646Z|Datatype: dcterms:W3CDTF</title>
<path fill="none" stroke="#000000" d="M554.0132,-771.6522C617.3543,-773.9137 681.4324,-776.2015 731.8643,-778.002"/>
<polygon fill="#000000" stroke="#000000" points="731.9701,-781.508 742.0886,-778.3671 732.2199,-774.5124 731.9701,-781.508"/>
<text text-anchor="middle" x="657.3472" y="-781.3" font-family="Times,serif" font-size="14.00" fill="#000000">dcterms:date</text>
</g>
<!-- B_:node1f0gq2gelx69 -->
<g id="node5" class="node">
<title>B_:node1f0gq2gelx69</title>
<ellipse fill="none" stroke="#00ff00" cx="829.8374" cy="-721.5" rx="18" ry="18"/>
</g>
<!-- Rhttp://localhost:8080/rdf/nc/annotation/52b10c75&#45;d7cd&#45;44d5&#45;9286&#45;ae8b2f5b403d&#45;&gt;B_:node1f0gq2gelx69 -->
<g id="edge4" class="edge">
<title>Rhttp://localhost:8080/rdf/nc/annotation/52b10c75&#45;d7cd&#45;44d5&#45;9286&#45;ae8b2f5b403d&#45;&gt;B_:node1f0gq2gelx69</title>
<path fill="none" stroke="#000000" d="M481.5593,-748.3327C599.7805,-739.2245 742.0069,-728.2668 801.506,-723.6828"/>
<polygon fill="#000000" stroke="#000000" points="801.927,-727.1608 811.6286,-722.9029 801.3893,-720.1815 801.927,-727.1608"/>
<text text-anchor="middle" x="657.3472" y="-741.3" font-family="Times,serif" font-size="14.00" fill="#000000">oa:hasBody</text>
</g>
<!-- B_:node1f0gq2gelx68 -->
<g id="node14" class="node">
<title>B_:node1f0gq2gelx68</title>
<ellipse fill="none" stroke="#00ff00" cx="829.8374" cy="-496.5" rx="18" ry="18"/>
</g>
<!-- Rhttp://localhost:8080/rdf/nc/annotation/52b10c75&#45;d7cd&#45;44d5&#45;9286&#45;ae8b2f5b403d&#45;&gt;B_:node1f0gq2gelx68 -->
<g id="edge14" class="edge">
<title>Rhttp://localhost:8080/rdf/nc/annotation/52b10c75&#45;d7cd&#45;44d5&#45;9286&#45;ae8b2f5b403d&#45;&gt;B_:node1f0gq2gelx68</title>
<path fill="none" stroke="#000000" d="M333.833,-744.4259C434.7477,-693.9841 717.7067,-552.5481 804.3198,-509.2548"/>
<polygon fill="#000000" stroke="#000000" points="806.0574,-512.2993 813.4374,-504.6975 802.9277,-506.0379 806.0574,-512.2993"/>
<text text-anchor="middle" x="657.3472" y="-602.3" font-family="Times,serif" font-size="14.00" fill="#000000">oa:hasTarget</text>
</g>
<!-- Roa:describing -->
<g id="node21" class="node">
<title>Roa:describing</title>
<ellipse fill="none" stroke="#0000ff" cx="829.8374" cy="-442.5" rx="57.6901" ry="18"/>
<text text-anchor="middle" x="829.8374" y="-438.8" font-family="Times,serif" font-size="14.00" fill="#000000">oa:describing</text>
</g>
<!-- Rhttp://localhost:8080/rdf/nc/annotation/52b10c75&#45;d7cd&#45;44d5&#45;9286&#45;ae8b2f5b403d&#45;&gt;Roa:describing -->
<g id="edge22" class="edge">
<title>Rhttp://localhost:8080/rdf/nc/annotation/52b10c75&#45;d7cd&#45;44d5&#45;9286&#45;ae8b2f5b403d&#45;&gt;Roa:describing</title>
<path fill="none" stroke="#000000" d="M317.9023,-744.2041C375.866,-692.7719 549.3314,-545.7056 719.3472,-469.5 734.7172,-462.6108 752.1111,-457.3149 768.4739,-453.3155"/>
<polygon fill="#000000" stroke="#000000" points="769.5507,-456.6588 778.5015,-450.9902 767.9693,-449.8397 769.5507,-456.6588"/>
<text text-anchor="middle" x="657.3472" y="-525.3" font-family="Times,serif" font-size="14.00" fill="#000000">oa:motivatedBy</text>
</g>
<!-- Rfoaf:Person -->
<g id="node22" class="node">
<title>Rfoaf:Person</title>
<ellipse fill="none" stroke="#0000ff" cx="1217.0686" cy="-975.5" rx="51.1914" ry="18"/>
<text text-anchor="middle" x="1217.0686" y="-971.8" font-family="Times,serif" font-size="14.00" fill="#000000">foaf:Person</text>
</g>
<!-- Rorcid:0000&#45;0002&#45;2146&#45;4803&#45;&gt;Rfoaf:Person -->
<g id="edge23" class="edge">
<title>Rorcid:0000&#45;0002&#45;2146&#45;4803&#45;&gt;Rfoaf:Person</title>
<path fill="none" stroke="#000000" d="M916.8221,-852.77C925.5231,-856.6885 933.6075,-861.8155 940.3276,-868.5 963.7132,-891.7618 933.7511,-918.5001 958.3276,-940.5 1013.1289,-989.5561 1102.4052,-990.4872 1160.4395,-984.5913"/>
<polygon fill="#000000" stroke="#000000" points="1160.9906,-988.0516 1170.5408,-983.4644 1160.2144,-981.0948 1160.9906,-988.0516"/>
<text text-anchor="middle" x="1028.3276" y="-990.3" font-family="Times,serif" font-size="14.00" fill="#000000">rdf:type</text>
</g>
<!-- Rdsw:Token -->
<g id="node6" class="node">
<title>Rdsw:Token</title>
<ellipse fill="none" stroke="#0000ff" cx="1748.8097" cy="-694.5" rx="50.0912" ry="18"/>
<text text-anchor="middle" x="1748.8097" y="-690.8" font-family="Times,serif" font-size="14.00" fill="#000000">dsw:Token</text>
</g>
<!-- B_:node1f0gq2gelx69&#45;&gt;Rdsw:Token -->
<g id="edge5" class="edge">
<title>B_:node1f0gq2gelx69&#45;&gt;Rdsw:Token</title>
<path fill="none" stroke="#000000" d="M847.9264,-720.2479C893.1466,-717.1704 1014.7722,-709.2176 1116.3276,-705.5 1326.2539,-697.8153 1575.5765,-695.4733 1688.2252,-694.7802"/>
<polygon fill="#000000" stroke="#000000" points="1688.3914,-698.2794 1698.3704,-694.72 1688.3498,-691.2795 1688.3914,-698.2794"/>
<text text-anchor="middle" x="1217.0686" y="-709.3" font-family="Times,serif" font-size="14.00" fill="#000000">rdf:type</text>
</g>
<!-- Rdwc:MeasurementOrFact -->
<g id="node7" class="node">
<title>Rdwc:MeasurementOrFact</title>
<ellipse fill="none" stroke="#0000ff" cx="1217.0686" cy="-747.5" rx="100.9827" ry="18"/>
<text text-anchor="middle" x="1217.0686" y="-743.8" font-family="Times,serif" font-size="14.00" fill="#000000">dwc:MeasurementOrFact</text>
</g>
<!-- B_:node1f0gq2gelx69&#45;&gt;Rdwc:MeasurementOrFact -->
<g id="edge6" class="edge">
<title>B_:node1f0gq2gelx69&#45;&gt;Rdwc:MeasurementOrFact</title>
<path fill="none" stroke="#000000" d="M847.995,-722.7192C894.4745,-725.84 1020.5566,-734.3055 1112.4517,-740.4757"/>
<polygon fill="#000000" stroke="#000000" points="1112.4242,-743.9816 1122.6363,-741.1595 1112.8932,-736.9973 1112.4242,-743.9816"/>
<text text-anchor="middle" x="1028.3276" y="-743.3" font-family="Times,serif" font-size="14.00" fill="#000000">rdf:type</text>
</g>
<!-- Roa:TextualBody -->
<g id="node8" class="node">
<title>Roa:TextualBody</title>
<ellipse fill="none" stroke="#0000ff" cx="1217.0686" cy="-642.5" rx="67.6881" ry="18"/>
<text text-anchor="middle" x="1217.0686" y="-638.8" font-family="Times,serif" font-size="14.00" fill="#000000">oa:TextualBody</text>
</g>
<!-- B_:node1f0gq2gelx69&#45;&gt;Roa:TextualBody -->
<g id="edge7" class="edge">
<title>B_:node1f0gq2gelx69&#45;&gt;Roa:TextualBody</title>
<path fill="none" stroke="#000000" d="M845.9204,-712.8646C869.7286,-700.5219 916.0953,-678.1528 958.3276,-667.5 1017.9148,-652.4696 1087.3189,-646.3556 1139.2366,-643.9252"/>
<polygon fill="#000000" stroke="#000000" points="1139.5395,-647.4154 1149.3789,-643.4866 1139.237,-640.422 1139.5395,-647.4154"/>
<text text-anchor="middle" x="1028.3276" y="-671.3" font-family="Times,serif" font-size="14.00" fill="#000000">rdf:type</text>
</g>
<!-- Ltext/plain -->
<g id="node9" class="node">
<title>Ltext/plain</title>
<polygon fill="none" stroke="#000000" points="1183.0686,-569.5 1183.0686,-605.5 1251.0686,-605.5 1251.0686,-569.5 1183.0686,-569.5"/>
<text text-anchor="middle" x="1217.0686" y="-583.8" font-family="Times,serif" font-size="14.00" fill="#000000">text/plain</text>
</g>
<!-- B_:node1f0gq2gelx69&#45;&gt;Ltext/plain -->
<g id="edge8" class="edge">
<title>B_:node1f0gq2gelx69&#45;&gt;Ltext/plain</title>
<path fill="none" stroke="#000000" d="M842.75,-708.6696C864.5218,-687.8755 910.8274,-647.1637 958.3276,-627.5 1029.5922,-597.9985 1120.0627,-590.0323 1172.9675,-588.0141"/>
<polygon fill="#000000" stroke="#000000" points="1173.1504,-591.5101 1183.0307,-587.6852 1172.9217,-584.5139 1173.1504,-591.5101"/>
<text text-anchor="middle" x="1028.3276" y="-631.3" font-family="Times,serif" font-size="14.00" fill="#000000">dcterms:format</text>
</g>
<!-- Robo:PATO_0000014 -->
<g id="node10" class="node">
<title>Robo:PATO_0000014</title>
<ellipse fill="none" stroke="#0000ff" cx="1217.0686" cy="-921.5" rx="84.485" ry="18"/>
<text text-anchor="middle" x="1217.0686" y="-917.8" font-family="Times,serif" font-size="14.00" fill="#000000">obo:PATO_0000014</text>
</g>
<!-- B_:node1f0gq2gelx69&#45;&gt;Robo:PATO_0000014 -->
<g id="edge9" class="edge">
<title>B_:node1f0gq2gelx69&#45;&gt;Robo:PATO_0000014</title>
<path fill="none" stroke="#000000" d="M847.868,-720.1642C872.7081,-719.4128 917.0219,-722.1882 940.3276,-748.5 985.1407,-799.0934 909.7355,-852.5243 958.3276,-899.5 970.2408,-911.0169 1053.8072,-916.5616 1122.7976,-919.1952"/>
<polygon fill="#000000" stroke="#000000" points="1122.7392,-922.6953 1132.8604,-919.563 1122.995,-915.6999 1122.7392,-922.6953"/>
<text text-anchor="middle" x="1028.3276" y="-921.3" font-family="Times,serif" font-size="14.00" fill="#000000">dcterms:identifier</text>
</g>
<!-- B_:node1f0gq2gelx69&#45;&gt;Robo:PATO_0000014 -->
<g id="edge12" class="edge">
<title>B_:node1f0gq2gelx69&#45;&gt;Robo:PATO_0000014</title>
<path fill="none" stroke="#000000" d="M848.1428,-720.2835C872.8907,-719.7291 916.6429,-722.7966 940.3276,-748.5 974.7891,-785.8988 921.9549,-825.9571 958.3276,-861.5 980.7828,-883.4429 1069.3848,-868.3325 1098.3276,-880.5 1107.6704,-884.4277 1107.2527,-889.9875 1116.3276,-894.5 1125.5425,-899.0822 1135.6313,-902.9606 1145.7518,-906.2219"/>
<polygon fill="#000000" stroke="#000000" points="1144.8516,-909.6062 1155.4371,-909.1624 1146.8852,-902.9081 1144.8516,-909.6062"/>
<text text-anchor="middle" x="1028.3276" y="-884.3" font-family="Times,serif" font-size="14.00" fill="#000000">dwciri:measurementType</text>
</g>
<!-- Riso:lat -->
<g id="node11" class="node">
<title>Riso:lat</title>
<ellipse fill="none" stroke="#0000ff" cx="1217.0686" cy="-867.5" rx="32.4942" ry="18"/>
<text text-anchor="middle" x="1217.0686" y="-863.8" font-family="Times,serif" font-size="14.00" fill="#000000">iso:lat</text>
</g>
<!-- B_:node1f0gq2gelx69&#45;&gt;Riso:lat -->
<g id="edge10" class="edge">
<title>B_:node1f0gq2gelx69&#45;&gt;Riso:lat</title>
<path fill="none" stroke="#000000" d="M848.1263,-720.7029C872.4505,-720.6784 915.2825,-724.4042 940.3276,-748.5 961.3127,-768.6897 937.0765,-791.5904 958.3276,-811.5 966.3096,-818.9782 1105.5255,-846.3062 1176.3637,-859.8234"/>
<polygon fill="#000000" stroke="#000000" points="1175.8173,-863.2822 1186.2954,-861.7135 1177.1261,-856.4056 1175.8173,-863.2822"/>
<text text-anchor="middle" x="1028.3276" y="-846.3" font-family="Times,serif" font-size="14.00" fill="#000000">dcterms:language</text>
</g>
<!-- Rimg:default.jpg -->
<g id="node12" class="node">
<title>Rimg:default.jpg</title>
<ellipse fill="none" stroke="#0000ff" cx="1217.0686" cy="-532.5" rx="65.7887" ry="18"/>
<text text-anchor="middle" x="1217.0686" y="-528.8" font-family="Times,serif" font-size="14.00" fill="#000000">img:default.jpg</text>
</g>
<!-- B_:node1f0gq2gelx69&#45;&gt;Rimg:default.jpg -->
<g id="edge11" class="edge">
<title>B_:node1f0gq2gelx69&#45;&gt;Rimg:default.jpg</title>
<path fill="none" stroke="#000000" d="M838.7194,-705.5529C856.7991,-674.7481 901.0596,-607.3002 958.3276,-575.5 1014.4278,-544.3483 1087.1664,-534.4629 1141.2271,-531.8704"/>
<polygon fill="#000000" stroke="#000000" points="1141.5875,-535.3588 1151.4374,-531.4563 1141.3038,-528.3645 1141.5875,-535.3588"/>
<text text-anchor="middle" x="1028.3276" y="-579.3" font-family="Times,serif" font-size="14.00" fill="#000000">dsw:derivedFrom</text>
</g>
<!-- LColor|Language: lat -->
<g id="node13" class="node">
<title>LColor|Language: lat</title>
<polygon fill="none" stroke="#000000" points="1171.5686,-784.5 1171.5686,-830.5 1262.5686,-830.5 1262.5686,-784.5 1171.5686,-784.5"/>
<text text-anchor="middle" x="1217.0686" y="-815.3" font-family="Times,serif" font-size="14.00" fill="#000000">Color</text>
<polyline fill="none" stroke="#000000" points="1171.5686,-807.5 1262.5686,-807.5 "/>
<text text-anchor="middle" x="1217.0686" y="-792.3" font-family="Times,serif" font-size="14.00" fill="#000000">Language: lat</text>
</g>
<!-- B_:node1f0gq2gelx69&#45;&gt;LColor|Language: lat -->
<g id="edge13" class="edge">
<title>B_:node1f0gq2gelx69&#45;&gt;LColor|Language: lat</title>
<path fill="none" stroke="#000000" d="M847.8929,-724.3795C870.1504,-728.2738 908.8872,-736.1829 940.3276,-748.5 948.8487,-751.8382 949.7218,-755.3866 958.3276,-758.5 1025.9787,-782.9748 1108.223,-795.875 1161.5593,-802.1826"/>
<polygon fill="#000000" stroke="#000000" points="1161.1665,-805.6604 1171.4999,-803.3214 1161.9632,-798.7059 1161.1665,-805.6604"/>
<text text-anchor="middle" x="1028.3276" y="-796.3" font-family="Times,serif" font-size="14.00" fill="#000000">rdf:value</text>
</g>
<!-- Rimg:default.jpg&#45;&gt;Rdsw:Token -->
<g id="edge25" class="edge">
<title>Rimg:default.jpg&#45;&gt;Rdsw:Token</title>
<path fill="none" stroke="#000000" d="M1279.3491,-538.276C1293.5835,-542.3308 1307.5288,-548.9133 1317.8097,-559.5 1341.9927,-584.4022 1311.2208,-610.9985 1335.8097,-635.5 1360.4749,-660.0774 1581.1165,-681.0219 1689.3983,-689.9237"/>
<polygon fill="#000000" stroke="#000000" points="1689.2651,-693.4244 1699.5161,-690.7473 1689.8331,-686.4474 1689.2651,-693.4244"/>
<text text-anchor="middle" x="1393.3097" y="-668.3" font-family="Times,serif" font-size="14.00" fill="#000000">rdf:type</text>
</g>
<!-- Rdcmitype:StillImage -->
<g id="node23" class="node">
<title>Rdcmitype:StillImage</title>
<ellipse fill="none" stroke="#0000ff" cx="1748.8097" cy="-639.5" rx="83.3857" ry="18"/>
<text text-anchor="middle" x="1748.8097" y="-635.8" font-family="Times,serif" font-size="14.00" fill="#000000">dcmitype:StillImage</text>
</g>
<!-- Rimg:default.jpg&#45;&gt;Rdcmitype:StillImage -->
<g id="edge24" class="edge">
<title>Rimg:default.jpg&#45;&gt;Rdcmitype:StillImage</title>
<path fill="none" stroke="#000000" d="M1275.0628,-541.0775C1289.8517,-545.0749 1305.135,-550.9293 1317.8097,-559.5 1328.8548,-566.9688 1324.5915,-576.2938 1335.8097,-583.5 1387.3406,-616.6017 1551.3225,-630.4128 1656.4965,-635.9711"/>
<polygon fill="#000000" stroke="#000000" points="1656.3191,-639.4665 1666.4854,-636.4836 1656.6779,-632.4757 1656.3191,-639.4665"/>
<text text-anchor="middle" x="1393.3097" y="-620.3" font-family="Times,serif" font-size="14.00" fill="#000000">rdf:type</text>
</g>
<!-- Rdwc:HumanObservation -->
<g id="node24" class="node">
<title>Rdwc:HumanObservation</title>
<ellipse fill="none" stroke="#0000ff" cx="1748.8097" cy="-585.5" rx="96.6831" ry="18"/>
<text text-anchor="middle" x="1748.8097" y="-581.8" font-family="Times,serif" font-size="14.00" fill="#000000">dwc:HumanObservation</text>
</g>
<!-- Rimg:default.jpg&#45;&gt;Rdwc:HumanObservation -->
<g id="edge26" class="edge">
<title>Rimg:default.jpg&#45;&gt;Rdwc:HumanObservation</title>
<path fill="none" stroke="#000000" d="M1272.5205,-542.274C1292.4316,-545.5447 1315.0838,-548.9924 1335.8097,-551.5 1441.3331,-564.2671 1562.6155,-573.6223 1646.32,-579.2514"/>
<polygon fill="#000000" stroke="#000000" points="1646.1273,-582.7462 1656.338,-579.9193 1646.5931,-575.7617 1646.1273,-582.7462"/>
<text text-anchor="middle" x="1393.3097" y="-568.3" font-family="Times,serif" font-size="14.00" fill="#000000">rdf:type</text>
</g>
<!-- Roa:Source -->
<g id="node25" class="node">
<title>Roa:Source</title>
<ellipse fill="none" stroke="#0000ff" cx="1748.8097" cy="-531.5" rx="46.2923" ry="18"/>
<text text-anchor="middle" x="1748.8097" y="-527.8" font-family="Times,serif" font-size="14.00" fill="#000000">oa:Source</text>
</g>
<!-- Rimg:default.jpg&#45;&gt;Roa:Source -->
<g id="edge27" class="edge">
<title>Rimg:default.jpg&#45;&gt;Roa:Source</title>
<path fill="none" stroke="#000000" d="M1282.8038,-532.3764C1388.1388,-532.1783 1592.9542,-531.7931 1692.1958,-531.6065"/>
<polygon fill="#000000" stroke="#000000" points="1692.333,-535.1063 1702.3263,-531.5874 1692.3197,-528.1063 1692.333,-535.1063"/>
<text text-anchor="middle" x="1393.3097" y="-536.3" font-family="Times,serif" font-size="14.00" fill="#000000">rdf:type</text>
</g>
<!-- Rfoaf:Image -->
<g id="node26" class="node">
<title>Rfoaf:Image</title>
<ellipse fill="none" stroke="#0000ff" cx="1748.8097" cy="-477.5" rx="50.0912" ry="18"/>
<text text-anchor="middle" x="1748.8097" y="-473.8" font-family="Times,serif" font-size="14.00" fill="#000000">foaf:Image</text>
</g>
<!-- Rimg:default.jpg&#45;&gt;Rfoaf:Image -->
<g id="edge28" class="edge">
<title>Rimg:default.jpg&#45;&gt;Rfoaf:Image</title>
<path fill="none" stroke="#000000" d="M1272.5273,-522.7815C1292.439,-519.516 1315.0899,-516.0574 1335.8097,-513.5 1461.0829,-498.0377 1608.5414,-486.8655 1688.9966,-481.3621"/>
<polygon fill="#000000" stroke="#000000" points="1689.6799,-484.8239 1699.4201,-480.6552 1689.2062,-477.8399 1689.6799,-484.8239"/>
<text text-anchor="middle" x="1393.3097" y="-517.3" font-family="Times,serif" font-size="14.00" fill="#000000">rdf:type</text>
</g>
<!-- B_:node1f0gq2gelx68&#45;&gt;Rimg:default.jpg -->
<g id="edge21" class="edge">
<title>B_:node1f0gq2gelx68&#45;&gt;Rimg:default.jpg</title>
<path fill="none" stroke="#000000" d="M848.1015,-497.484C891.5432,-499.9066 1004.4203,-506.6843 1098.3276,-516.5 1114.7748,-518.2191 1132.4581,-520.4136 1149.0236,-522.6223"/>
<polygon fill="#000000" stroke="#000000" points="1148.7934,-526.123 1159.1724,-523.9953 1149.7319,-519.1861 1148.7934,-526.123"/>
<text text-anchor="middle" x="1028.3276" y="-520.3" font-family="Times,serif" font-size="14.00" fill="#000000">oa:hasSource</text>
</g>
<!-- Roa:Target -->
<g id="node15" class="node">
<title>Roa:Target</title>
<ellipse fill="none" stroke="#0000ff" cx="1217.0686" cy="-368.5" rx="44.393" ry="18"/>
<text text-anchor="middle" x="1217.0686" y="-364.8" font-family="Times,serif" font-size="14.00" fill="#000000">oa:Target</text>
</g>
<!-- B_:node1f0gq2gelx68&#45;&gt;Roa:Target -->
<g id="edge15" class="edge">
<title>B_:node1f0gq2gelx68&#45;&gt;Roa:Target</title>
<path fill="none" stroke="#000000" d="M848.1113,-497.2815C872.4185,-497.2882 915.2313,-493.5424 940.3276,-469.5 961.0472,-449.6504 936.7354,-426.3967 958.3276,-407.5 1015.408,-357.5453 1108.102,-356.1645 1165.6688,-361.2453"/>
<polygon fill="#000000" stroke="#000000" points="1165.3494,-364.7307 1175.6427,-362.2212 1166.0311,-357.7639 1165.3494,-364.7307"/>
<text text-anchor="middle" x="1028.3276" y="-411.3" font-family="Times,serif" font-size="14.00" fill="#000000">rdf:type</text>
</g>
<!-- Limage/jpeg -->
<g id="node16" class="node">
<title>Limage/jpeg</title>
<polygon fill="none" stroke="#000000" points="1178.5686,-459.5 1178.5686,-495.5 1255.5686,-495.5 1255.5686,-459.5 1178.5686,-459.5"/>
<text text-anchor="middle" x="1217.0686" y="-473.8" font-family="Times,serif" font-size="14.00" fill="#000000">image/jpeg</text>
</g>
<!-- B_:node1f0gq2gelx68&#45;&gt;Limage/jpeg -->
<g id="edge16" class="edge">
<title>B_:node1f0gq2gelx68&#45;&gt;Limage/jpeg</title>
<path fill="none" stroke="#000000" d="M847.6326,-493.2295C872.3597,-488.8633 918.56,-481.3492 958.3276,-478.5 1031.2648,-473.2743 1116.0635,-474.2901 1168.1471,-475.7227"/>
<polygon fill="#000000" stroke="#000000" points="1168.3335,-479.2295 1178.4314,-476.0228 1168.5378,-472.2325 1168.3335,-479.2295"/>
<text text-anchor="middle" x="1028.3276" y="-482.3" font-family="Times,serif" font-size="14.00" fill="#000000">dcterms:format</text>
</g>
<!-- B_:node1f0gq2gelx71 -->
<g id="node17" class="node">
<title>B_:node1f0gq2gelx71</title>
<ellipse fill="none" stroke="#00ff00" cx="1217.0686" cy="-422.5" rx="18" ry="18"/>
</g>
<!-- B_:node1f0gq2gelx68&#45;&gt;B_:node1f0gq2gelx71 -->
<g id="edge17" class="edge">
<title>B_:node1f0gq2gelx68&#45;&gt;B_:node1f0gq2gelx71</title>
<path fill="none" stroke="#000000" d="M847.7588,-494.2857C870.2145,-491.0321 909.4917,-483.7383 940.3276,-469.5 949.2869,-465.3631 949.1562,-460.1427 958.3276,-456.5 1037.5987,-425.0153 1140.2078,-421.4506 1188.959,-421.7685"/>
<polygon fill="#000000" stroke="#000000" points="1189.0189,-425.2695 1199.0626,-421.8969 1189.1079,-418.2701 1189.0189,-425.2695"/>
<text text-anchor="middle" x="1028.3276" y="-460.3" font-family="Times,serif" font-size="14.00" fill="#000000">oa:hasSelector</text>
</g>
<!-- Roa:FragmentSelector -->
<g id="node18" class="node">
<title>Roa:FragmentSelector</title>
<ellipse fill="none" stroke="#0000ff" cx="1748.8097" cy="-423.5" rx="84.485" ry="18"/>
<text text-anchor="middle" x="1748.8097" y="-419.8" font-family="Times,serif" font-size="14.00" fill="#000000">oa:FragmentSelector</text>
</g>
<!-- B_:node1f0gq2gelx71&#45;&gt;Roa:FragmentSelector -->
<g id="edge18" class="edge">
<title>B_:node1f0gq2gelx71&#45;&gt;Roa:FragmentSelector</title>
<path fill="none" stroke="#000000" d="M1235.3724,-422.5344C1300.5378,-422.657 1524.2636,-423.0777 1653.8806,-423.3215"/>
<polygon fill="#000000" stroke="#000000" points="1654.1925,-426.822 1664.1991,-423.3409 1654.2057,-419.822 1654.1925,-426.822"/>
<text text-anchor="middle" x="1393.3097" y="-427.3" font-family="Times,serif" font-size="14.00" fill="#000000">rdf:type</text>
</g>
<!-- Rmf: -->
<g id="node19" class="node">
<title>Rmf:</title>
<ellipse fill="none" stroke="#0000ff" cx="1748.8097" cy="-369.5" rx="27" ry="18"/>
<text text-anchor="middle" x="1748.8097" y="-365.8" font-family="Times,serif" font-size="14.00" fill="#000000">mf:</text>
</g>
<!-- B_:node1f0gq2gelx71&#45;&gt;Rmf: -->
<g id="edge19" class="edge">
<title>B_:node1f0gq2gelx71&#45;&gt;Rmf:</title>
<path fill="none" stroke="#000000" d="M1235.1237,-419.384C1258.3545,-415.4621 1299.9874,-408.7284 1335.8097,-404.5 1474.078,-388.1791 1639.2589,-376.5357 1711.6882,-371.8224"/>
<polygon fill="#000000" stroke="#000000" points="1711.9332,-375.3139 1721.6872,-371.1775 1711.4827,-368.3284 1711.9332,-375.3139"/>
<text text-anchor="middle" x="1393.3097" y="-408.3" font-family="Times,serif" font-size="14.00" fill="#000000">dcterms:conformsTo</text>
</g>
<!-- Lxywh=0.5575335827826557,0.16560174792980703,0.02356406480117823,0.02061855670103091 -->
<g id="node20" class="node">
<title>Lxywh=0.5575335827826557,0.16560174792980703,0.02356406480117823,0.02061855670103091</title>
<polygon fill="none" stroke="#000000" points="1468.8097,-296.5 1468.8097,-332.5 2028.8097,-332.5 2028.8097,-296.5 1468.8097,-296.5"/>
<text text-anchor="middle" x="1748.8097" y="-310.8" font-family="Times,serif" font-size="14.00" fill="#000000">xywh=0.5575335827826557,0.16560174792980703,0.02356406480117823,0.02061855670103091</text>
</g>
<!-- B_:node1f0gq2gelx71&#45;&gt;Lxywh=0.5575335827826557,0.16560174792980703,0.02356406480117823,0.02061855670103091 -->
<g id="edge20" class="edge">
<title>B_:node1f0gq2gelx71&#45;&gt;Lxywh=0.5575335827826557,0.16560174792980703,0.02356406480117823,0.02061855670103091</title>
<path fill="none" stroke="#000000" d="M1235.0936,-420.9146C1256.3063,-418.3504 1291.9157,-411.807 1317.8097,-395.5 1328.2116,-388.9493 1325.3243,-380.9163 1335.8097,-374.5 1373.0124,-351.7347 1415.5552,-336.3581 1458.8697,-326.1542"/>
<polygon fill="#000000" stroke="#000000" points="1459.7282,-329.5485 1468.7086,-323.9268 1458.1825,-322.7212 1459.7282,-329.5485"/>
<text text-anchor="middle" x="1393.3097" y="-378.3" font-family="Times,serif" font-size="14.00" fill="#000000">rdf:value</text>
</g>
</g>
</svg>
