<?xml version="1.0" encoding="UTF-8" standalone="no"?>
<!DOCTYPE svg PUBLIC "-//W3C//DTD SVG 1.1//EN"
 "http://www.w3.org/Graphics/SVG/1.1/DTD/svg11.dtd">
<!-- Generated by graphviz version 2.40.1 (20161225.0304)
 -->
<!-- Title: %3 Pages: 1 -->
<svg width="2166pt" height="925pt"
 viewBox="0.00 0.00 2165.70 925.00" xmlns="http://www.w3.org/2000/svg" xmlns:xlink="http://www.w3.org/1999/xlink">
<g id="graph0" class="graph" transform="scale(1 1) rotate(0) translate(4 921)">
<title>%3</title>
<polygon fill="#ffffff" stroke="transparent" points="-4,4 -4,-921 2161.6955,-921 2161.6955,4 -4,4"/>
<text text-anchor="middle" x="1078.8478" y="-278.8" font-family="Times,serif" font-size="14.00" fill="#000000">Model:</text>
<text text-anchor="middle" x="1078.8478" y="-263.8" font-family="Times,serif" font-size="14.00" fill="#000000">(Unknown)</text>
<text text-anchor="middle" x="1078.8478" y="-232.8" font-family="Times,serif" font-size="14.00" fill="#000000">Namespaces:</text>
<text text-anchor="middle" x="1078.8478" y="-217.8" font-family="Times,serif" font-size="14.00" fill="#000000">dcmitype: http://purl.org/dc/dcmitype/</text>
<text text-anchor="middle" x="1078.8478" y="-202.8" font-family="Times,serif" font-size="14.00" fill="#000000">dcterms: http://purl.org/dc/terms/</text>
<text text-anchor="middle" x="1078.8478" y="-187.8" font-family="Times,serif" font-size="14.00" fill="#000000">dsw: http://purl.org/dsw/</text>
<text text-anchor="middle" x="1078.8478" y="-172.8" font-family="Times,serif" font-size="14.00" fill="#000000">dwc: http://rs.tdwg.org/dwc/terms/</text>
<text text-anchor="middle" x="1078.8478" y="-157.8" font-family="Times,serif" font-size="14.00" fill="#000000">dwciri: http://rs.tdwg.org/dwc/iri/</text>
<text text-anchor="middle" x="1078.8478" y="-142.8" font-family="Times,serif" font-size="14.00" fill="#000000">foaf: http://xmlns.com/foaf/0.1/</text>
<text text-anchor="middle" x="1078.8478" y="-127.8" font-family="Times,serif" font-size="14.00" fill="#000000">gbif: http://www.gbif.org/species/</text>
<text text-anchor="middle" x="1078.8478" y="-112.8" font-family="Times,serif" font-size="14.00" fill="#000000">img: http://localhost:8080/semanticAnnotator/files/</text>
<text text-anchor="middle" x="1078.8478" y="-97.8" font-family="Times,serif" font-size="14.00" fill="#000000">iso: http://iso639&#45;3.sil.org/code/</text>
<text text-anchor="middle" x="1078.8478" y="-82.8" font-family="Times,serif" font-size="14.00" fill="#000000">mf: http://www.w3.org/TR/media&#45;frags/</text>
<text text-anchor="middle" x="1078.8478" y="-67.8" font-family="Times,serif" font-size="14.00" fill="#000000">oa: http://www.w3.org/ns/oa#</text>
<text text-anchor="middle" x="1078.8478" y="-52.8" font-family="Times,serif" font-size="14.00" fill="#000000">obo: http://purl.obolibrary.org/obo/</text>
<text text-anchor="middle" x="1078.8478" y="-37.8" font-family="Times,serif" font-size="14.00" fill="#000000">orcid: http://orcid.org/</text>
<text text-anchor="middle" x="1078.8478" y="-22.8" font-family="Times,serif" font-size="14.00" fill="#000000">owl: http://www.w3.org/2002/07/owl#</text>
<text text-anchor="middle" x="1078.8478" y="-7.8" font-family="Times,serif" font-size="14.00" fill="#000000">rdf: http://www.w3.org/1999/02/22&#45;rdf&#45;syntax&#45;ns#</text>
<!-- Rhttp://localhost:8080/rdf/nc/annotation/b52c7aa5&#45;a200&#45;4442&#45;b53f&#45;14daaa60100b -->
<g id="node1" class="node">
<title>Rhttp://localhost:8080/rdf/nc/annotation/b52c7aa5&#45;a200&#45;4442&#45;b53f&#45;14daaa60100b</title>
<ellipse fill="none" stroke="#0000ff" cx="295.7238" cy="-724" rx="295.9477" ry="18"/>
<text text-anchor="middle" x="295.7238" y="-720.3" font-family="Times,serif" font-size="14.00" fill="#000000">http://localhost:8080/rdf/nc/annotation/b52c7aa5&#45;a200&#45;4442&#45;b53f&#45;14daaa60100b</text>
</g>
<!-- Roa:Annotation -->
<g id="node2" class="node">
<title>Roa:Annotation</title>
<ellipse fill="none" stroke="#0000ff" cx="825.9377" cy="-647" rx="61.1893" ry="18"/>
<text text-anchor="middle" x="825.9377" y="-643.3" font-family="Times,serif" font-size="14.00" fill="#000000">oa:Annotation</text>
</g>
<!-- Rhttp://localhost:8080/rdf/nc/annotation/b52c7aa5&#45;a200&#45;4442&#45;b53f&#45;14daaa60100b&#45;&gt;Roa:Annotation -->
<g id="edge1" class="edge">
<title>Rhttp://localhost:8080/rdf/nc/annotation/b52c7aa5&#45;a200&#45;4442&#45;b53f&#45;14daaa60100b&#45;&gt;Roa:Annotation</title>
<path fill="none" stroke="#000000" d="M410.1195,-707.3869C517.2974,-691.8221 673.6871,-669.1105 760.9349,-656.44"/>
<polygon fill="#000000" stroke="#000000" points="761.5727,-659.8842 770.9658,-654.9833 760.5666,-652.9568 761.5727,-659.8842"/>
<text text-anchor="middle" x="653.4475" y="-680.8" font-family="Times,serif" font-size="14.00" fill="#000000">rdf:type</text>
</g>
<!-- Rorcid:0000&#45;0002&#45;2146&#45;4803 -->
<g id="node3" class="node">
<title>Rorcid:0000&#45;0002&#45;2146&#45;4803</title>
<ellipse fill="none" stroke="#0000ff" cx="825.9377" cy="-891" rx="110.4804" ry="18"/>
<text text-anchor="middle" x="825.9377" y="-887.3" font-family="Times,serif" font-size="14.00" fill="#000000">orcid:0000&#45;0002&#45;2146&#45;4803</text>
</g>
<!-- Rhttp://localhost:8080/rdf/nc/annotation/b52c7aa5&#45;a200&#45;4442&#45;b53f&#45;14daaa60100b&#45;&gt;Rorcid:0000&#45;0002&#45;2146&#45;4803 -->
<g id="edge2" class="edge">
<title>Rhttp://localhost:8080/rdf/nc/annotation/b52c7aa5&#45;a200&#45;4442&#45;b53f&#45;14daaa60100b&#45;&gt;Rorcid:0000&#45;0002&#45;2146&#45;4803</title>
<path fill="none" stroke="#000000" d="M351.964,-741.7138C452.3994,-773.3477 661.755,-839.2878 765.2864,-871.8968"/>
<polygon fill="#000000" stroke="#000000" points="764.3784,-875.2803 774.968,-874.9462 766.4814,-868.6036 764.3784,-875.2803"/>
<text text-anchor="middle" x="653.4475" y="-850.8" font-family="Times,serif" font-size="14.00" fill="#000000">dcterms:creator</text>
</g>
<!-- L2021&#45;01&#45;12T14:23:11.646Z|Datatype: dcterms:W3CDTF -->
<g id="node4" class="node">
<title>L2021&#45;01&#45;12T14:23:11.646Z|Datatype: dcterms:W3CDTF</title>
<polygon fill="none" stroke="#000000" points="738.4377,-792 738.4377,-838 913.4377,-838 913.4377,-792 738.4377,-792"/>
<text text-anchor="middle" x="825.9377" y="-822.8" font-family="Times,serif" font-size="14.00" fill="#000000">2021&#45;01&#45;12T14:23:11.646Z</text>
<polyline fill="none" stroke="#000000" points="738.4377,-815 913.4377,-815 "/>
<text text-anchor="middle" x="825.9377" y="-799.8" font-family="Times,serif" font-size="14.00" fill="#000000">Datatype: dcterms:W3CDTF</text>
</g>
<!-- Rhttp://localhost:8080/rdf/nc/annotation/b52c7aa5&#45;a200&#45;4442&#45;b53f&#45;14daaa60100b&#45;&gt;L2021&#45;01&#45;12T14:23:11.646Z|Datatype: dcterms:W3CDTF -->
<g id="edge3" class="edge">
<title>Rhttp://localhost:8080/rdf/nc/annotation/b52c7aa5&#45;a200&#45;4442&#45;b53f&#45;14daaa60100b&#45;&gt;L2021&#45;01&#45;12T14:23:11.646Z|Datatype: dcterms:W3CDTF</title>
<path fill="none" stroke="#000000" d="M394.831,-741.0097C490.2172,-757.3807 633.5787,-781.9857 728.4256,-798.2641"/>
<polygon fill="#000000" stroke="#000000" points="727.8608,-801.7183 738.3088,-799.9603 729.0449,-794.8191 727.8608,-801.7183"/>
<text text-anchor="middle" x="653.4475" y="-794.8" font-family="Times,serif" font-size="14.00" fill="#000000">dcterms:date</text>
</g>
<!-- B_:node1evgqka3hx9 -->
<g id="node5" class="node">
<title>B_:node1evgqka3hx9</title>
<ellipse fill="none" stroke="#00ff00" cx="825.9377" cy="-499" rx="18" ry="18"/>
</g>
<!-- Rhttp://localhost:8080/rdf/nc/annotation/b52c7aa5&#45;a200&#45;4442&#45;b53f&#45;14daaa60100b&#45;&gt;B_:node1evgqka3hx9 -->
<g id="edge4" class="edge">
<title>Rhttp://localhost:8080/rdf/nc/annotation/b52c7aa5&#45;a200&#45;4442&#45;b53f&#45;14daaa60100b&#45;&gt;B_:node1evgqka3hx9</title>
<path fill="none" stroke="#000000" d="M337.7719,-706.1566C442.8525,-661.5649 714.5793,-546.2557 799.9031,-510.048"/>
<polygon fill="#000000" stroke="#000000" points="801.3013,-513.2568 809.1395,-506.1285 798.5668,-506.813 801.3013,-513.2568"/>
<text text-anchor="middle" x="653.4475" y="-588.8" font-family="Times,serif" font-size="14.00" fill="#000000">oa:hasBody</text>
</g>
<!-- B_:node1evgqka3hx8 -->
<g id="node11" class="node">
<title>B_:node1evgqka3hx8</title>
<ellipse fill="none" stroke="#00ff00" cx="825.9377" cy="-755" rx="18" ry="18"/>
</g>
<!-- Rhttp://localhost:8080/rdf/nc/annotation/b52c7aa5&#45;a200&#45;4442&#45;b53f&#45;14daaa60100b&#45;&gt;B_:node1evgqka3hx8 -->
<g id="edge11" class="edge">
<title>Rhttp://localhost:8080/rdf/nc/annotation/b52c7aa5&#45;a200&#45;4442&#45;b53f&#45;14daaa60100b&#45;&gt;B_:node1evgqka3hx8</title>
<path fill="none" stroke="#000000" d="M509.0902,-736.4749C620.0054,-742.9598 743.4925,-750.1797 797.7623,-753.3527"/>
<polygon fill="#000000" stroke="#000000" points="797.7792,-756.8595 807.9665,-753.9493 798.1879,-749.8715 797.7792,-756.8595"/>
<text text-anchor="middle" x="653.4475" y="-750.8" font-family="Times,serif" font-size="14.00" fill="#000000">oa:hasTarget</text>
</g>
<!-- Roa:describing -->
<g id="node19" class="node">
<title>Roa:describing</title>
<ellipse fill="none" stroke="#0000ff" cx="825.9377" cy="-701" rx="57.6901" ry="18"/>
<text text-anchor="middle" x="825.9377" y="-697.3" font-family="Times,serif" font-size="14.00" fill="#000000">oa:describing</text>
</g>
<!-- Rhttp://localhost:8080/rdf/nc/annotation/b52c7aa5&#45;a200&#45;4442&#45;b53f&#45;14daaa60100b&#45;&gt;Roa:describing -->
<g id="edge19" class="edge">
<title>Rhttp://localhost:8080/rdf/nc/annotation/b52c7aa5&#45;a200&#45;4442&#45;b53f&#45;14daaa60100b&#45;&gt;Roa:describing</title>
<path fill="none" stroke="#000000" d="M533.8199,-713.2986C559.3484,-712.174 584.9362,-711.0564 609.4475,-710 659.376,-707.8481 715.7857,-705.506 758.504,-703.7505"/>
<polygon fill="#000000" stroke="#000000" points="758.6556,-707.2473 768.5036,-703.34 758.3684,-700.2532 758.6556,-707.2473"/>
<text text-anchor="middle" x="653.4475" y="-713.8" font-family="Times,serif" font-size="14.00" fill="#000000">oa:motivatedBy</text>
</g>
<!-- Rfoaf:Person -->
<g id="node20" class="node">
<title>Rfoaf:Person</title>
<ellipse fill="none" stroke="#0000ff" cx="1264.0617" cy="-899" rx="51.1914" ry="18"/>
<text text-anchor="middle" x="1264.0617" y="-895.3" font-family="Times,serif" font-size="14.00" fill="#000000">foaf:Person</text>
</g>
<!-- Rorcid:0000&#45;0002&#45;2146&#45;4803&#45;&gt;Rfoaf:Person -->
<g id="edge20" class="edge">
<title>Rorcid:0000&#45;0002&#45;2146&#45;4803&#45;&gt;Rfoaf:Person</title>
<path fill="none" stroke="#000000" d="M935.9294,-893.0084C1020.1943,-894.5471 1133.3667,-896.6136 1202.3844,-897.8738"/>
<polygon fill="#000000" stroke="#000000" points="1202.5921,-901.3781 1212.6544,-898.0613 1202.72,-894.3792 1202.5921,-901.3781"/>
<text text-anchor="middle" x="1008.9279" y="-899.8" font-family="Times,serif" font-size="14.00" fill="#000000">rdf:type</text>
</g>
<!-- Rdwc:Taxon -->
<g id="node6" class="node">
<title>Rdwc:Taxon</title>
<ellipse fill="none" stroke="#0000ff" cx="1264.0617" cy="-398" rx="50.0912" ry="18"/>
<text text-anchor="middle" x="1264.0617" y="-394.3" font-family="Times,serif" font-size="14.00" fill="#000000">dwc:Taxon</text>
</g>
<!-- B_:node1evgqka3hx9&#45;&gt;Rdwc:Taxon -->
<g id="edge5" class="edge">
<title>B_:node1evgqka3hx9&#45;&gt;Rdwc:Taxon</title>
<path fill="none" stroke="#000000" d="M844.0708,-497.9652C867.0949,-495.9262 907.3205,-489.8827 936.4279,-472 946.9019,-465.5651 943.8344,-457.2361 954.4279,-451 1032.0531,-405.3039 1138.3992,-396.5104 1204.0951,-396.0233"/>
<polygon fill="#000000" stroke="#000000" points="1204.2832,-399.5232 1214.2793,-396.0121 1204.2754,-392.5232 1204.2832,-399.5232"/>
<text text-anchor="middle" x="1008.9279" y="-454.8" font-family="Times,serif" font-size="14.00" fill="#000000">rdf:type</text>
</g>
<!-- Roa:TextualBody -->
<g id="node7" class="node">
<title>Roa:TextualBody</title>
<ellipse fill="none" stroke="#0000ff" cx="1264.0617" cy="-344" rx="67.6881" ry="18"/>
<text text-anchor="middle" x="1264.0617" y="-340.3" font-family="Times,serif" font-size="14.00" fill="#000000">oa:TextualBody</text>
</g>
<!-- B_:node1evgqka3hx9&#45;&gt;Roa:TextualBody -->
<g id="edge6" class="edge">
<title>B_:node1evgqka3hx9&#45;&gt;Roa:TextualBody</title>
<path fill="none" stroke="#000000" d="M844.0044,-499.989C868.4751,-500.2796 911.9074,-496.9072 936.4279,-472 961.6915,-446.338 928.3048,-417.7865 954.4279,-393 1018.2112,-332.4802 1124.8033,-328.8308 1194.7714,-334.3753"/>
<polygon fill="#000000" stroke="#000000" points="1194.5523,-337.8694 1204.8193,-335.2544 1195.1624,-330.896 1194.5523,-337.8694"/>
<text text-anchor="middle" x="1008.9279" y="-396.8" font-family="Times,serif" font-size="14.00" fill="#000000">rdf:type</text>
</g>
<!-- Ltext/plain -->
<g id="node8" class="node">
<title>Ltext/plain</title>
<polygon fill="none" stroke="#000000" points="1230.0617,-489 1230.0617,-525 1298.0617,-525 1298.0617,-489 1230.0617,-489"/>
<text text-anchor="middle" x="1264.0617" y="-503.3" font-family="Times,serif" font-size="14.00" fill="#000000">text/plain</text>
</g>
<!-- B_:node1evgqka3hx9&#45;&gt;Ltext/plain -->
<g id="edge7" class="edge">
<title>B_:node1evgqka3hx9&#45;&gt;Ltext/plain</title>
<path fill="none" stroke="#000000" d="M844.1146,-498.8866C883.8826,-498.6803 981.5994,-498.4006 1063.4279,-500 1117.2825,-501.0526 1179.2346,-503.3855 1219.8799,-505.0692"/>
<polygon fill="#000000" stroke="#000000" points="1219.8527,-508.571 1229.9905,-505.4928 1220.1459,-501.5772 1219.8527,-508.571"/>
<text text-anchor="middle" x="1008.9279" y="-503.8" font-family="Times,serif" font-size="14.00" fill="#000000">dcterms:format</text>
</g>
<!-- Riso:lat -->
<g id="node9" class="node">
<title>Riso:lat</title>
<ellipse fill="none" stroke="#0000ff" cx="1264.0617" cy="-452" rx="32.4942" ry="18"/>
<text text-anchor="middle" x="1264.0617" y="-448.3" font-family="Times,serif" font-size="14.00" fill="#000000">iso:lat</text>
</g>
<!-- B_:node1evgqka3hx9&#45;&gt;Riso:lat -->
<g id="edge8" class="edge">
<title>B_:node1evgqka3hx9&#45;&gt;Riso:lat</title>
<path fill="none" stroke="#000000" d="M843.7712,-496.0366C868.5429,-491.995 914.7945,-484.7185 954.4279,-480 1049.4825,-468.6834 1161.4401,-459.6082 1221.2597,-455.1001"/>
<polygon fill="#000000" stroke="#000000" points="1221.7446,-458.5738 1231.4559,-454.338 1221.2228,-451.5932 1221.7446,-458.5738"/>
<text text-anchor="middle" x="1008.9279" y="-483.8" font-family="Times,serif" font-size="14.00" fill="#000000">dcterms:language</text>
</g>
<!-- LPteropus minimus|Language: lat -->
<g id="node10" class="node">
<title>LPteropus minimus|Language: lat</title>
<polygon fill="none" stroke="#000000" points="1206.0617,-544 1206.0617,-590 1322.0617,-590 1322.0617,-544 1206.0617,-544"/>
<text text-anchor="middle" x="1264.0617" y="-574.8" font-family="Times,serif" font-size="14.00" fill="#000000">Pteropus minimus</text>
<polyline fill="none" stroke="#000000" points="1206.0617,-567 1322.0617,-567 "/>
<text text-anchor="middle" x="1264.0617" y="-551.8" font-family="Times,serif" font-size="14.00" fill="#000000">Language: lat</text>
</g>
<!-- B_:node1evgqka3hx9&#45;&gt;LPteropus minimus|Language: lat -->
<g id="edge9" class="edge">
<title>B_:node1evgqka3hx9&#45;&gt;LPteropus minimus|Language: lat</title>
<path fill="none" stroke="#000000" d="M841.9524,-507.9218C865.6754,-520.6213 911.9371,-543.4304 954.4279,-553 1035.8568,-571.339 1132.2849,-572.5941 1195.6403,-570.7352"/>
<polygon fill="#000000" stroke="#000000" points="1196.0257,-574.2245 1205.9055,-570.3982 1195.796,-567.2283 1196.0257,-574.2245"/>
<text text-anchor="middle" x="1008.9279" y="-571.8" font-family="Times,serif" font-size="14.00" fill="#000000">dwc:scientificName</text>
</g>
<!-- B_:node1evgqka3hx9&#45;&gt;LPteropus minimus|Language: lat -->
<g id="edge10" class="edge">
<title>B_:node1evgqka3hx9&#45;&gt;LPteropus minimus|Language: lat</title>
<path fill="none" stroke="#000000" d="M843.8284,-501.5325C883.4298,-507.1612 981.4822,-521.2234 1063.4279,-534 1107.4523,-540.8641 1156.8379,-548.9817 1195.5958,-555.4482"/>
<polygon fill="#000000" stroke="#000000" points="1195.2801,-558.9439 1205.7202,-557.1401 1196.4339,-552.0396 1195.2801,-558.9439"/>
<text text-anchor="middle" x="1008.9279" y="-537.8" font-family="Times,serif" font-size="14.00" fill="#000000">rdf:value</text>
</g>
<!-- Roa:Target -->
<g id="node12" class="node">
<title>Roa:Target</title>
<ellipse fill="none" stroke="#0000ff" cx="1264.0617" cy="-845" rx="44.393" ry="18"/>
<text text-anchor="middle" x="1264.0617" y="-841.3" font-family="Times,serif" font-size="14.00" fill="#000000">oa:Target</text>
</g>
<!-- B_:node1evgqka3hx8&#45;&gt;Roa:Target -->
<g id="edge12" class="edge">
<title>B_:node1evgqka3hx8&#45;&gt;Roa:Target</title>
<path fill="none" stroke="#000000" d="M843.9425,-757.038C866.4841,-760.1096 905.85,-767.2158 936.4279,-782 945.5523,-786.4116 945.1429,-791.9373 954.4279,-796 1038.3816,-832.7344 1145.8456,-842.3441 1209.5754,-844.6188"/>
<polygon fill="#000000" stroke="#000000" points="1209.6976,-848.1242 1219.8007,-844.934 1209.9133,-841.1275 1209.6976,-848.1242"/>
<text text-anchor="middle" x="1008.9279" y="-832.8" font-family="Times,serif" font-size="14.00" fill="#000000">rdf:type</text>
</g>
<!-- Limage/jpeg -->
<g id="node13" class="node">
<title>Limage/jpeg</title>
<polygon fill="none" stroke="#000000" points="1225.5617,-772 1225.5617,-808 1302.5617,-808 1302.5617,-772 1225.5617,-772"/>
<text text-anchor="middle" x="1264.0617" y="-786.3" font-family="Times,serif" font-size="14.00" fill="#000000">image/jpeg</text>
</g>
<!-- B_:node1evgqka3hx8&#45;&gt;Limage/jpeg -->
<g id="edge13" class="edge">
<title>B_:node1evgqka3hx8&#45;&gt;Limage/jpeg</title>
<path fill="none" stroke="#000000" d="M844.2206,-757.0235C869.1238,-759.7399 915.112,-764.6151 954.4279,-768 1046.5509,-775.9312 1154.2725,-783.1133 1215.3039,-786.9878"/>
<polygon fill="#000000" stroke="#000000" points="1215.2145,-790.4891 1225.4153,-787.6265 1215.6558,-783.503 1215.2145,-790.4891"/>
<text text-anchor="middle" x="1008.9279" y="-780.8" font-family="Times,serif" font-size="14.00" fill="#000000">dcterms:format</text>
</g>
<!-- B_:node1evgqka3hx11 -->
<g id="node14" class="node">
<title>B_:node1evgqka3hx11</title>
<ellipse fill="none" stroke="#00ff00" cx="1264.0617" cy="-735" rx="18" ry="18"/>
</g>
<!-- B_:node1evgqka3hx8&#45;&gt;B_:node1evgqka3hx11 -->
<g id="edge14" class="edge">
<title>B_:node1evgqka3hx8&#45;&gt;B_:node1evgqka3hx11</title>
<path fill="none" stroke="#000000" d="M843.9295,-754.1787C911.7351,-751.0834 1152.1941,-740.1067 1235.4441,-736.3064"/>
<polygon fill="#000000" stroke="#000000" points="1235.8469,-739.7917 1245.6768,-735.8393 1235.5276,-732.799 1235.8469,-739.7917"/>
<text text-anchor="middle" x="1008.9279" y="-753.8" font-family="Times,serif" font-size="14.00" fill="#000000">oa:hasSelector</text>
</g>
<!-- Rimg:MMNAT01_AF_NNM001001033_003.jpg -->
<g id="node18" class="node">
<title>Rimg:MMNAT01_AF_NNM001001033_003.jpg</title>
<ellipse fill="none" stroke="#0000ff" cx="1264.0617" cy="-627" rx="182.7677" ry="18"/>
<text text-anchor="middle" x="1264.0617" y="-623.3" font-family="Times,serif" font-size="14.00" fill="#000000">img:MMNAT01_AF_NNM001001033_003.jpg</text>
</g>
<!-- B_:node1evgqka3hx8&#45;&gt;Rimg:MMNAT01_AF_NNM001001033_003.jpg -->
<g id="edge18" class="edge">
<title>B_:node1evgqka3hx8&#45;&gt;Rimg:MMNAT01_AF_NNM001001033_003.jpg</title>
<path fill="none" stroke="#000000" d="M843.6265,-751.0186C865.5143,-746.0138 903.8784,-736.9855 936.4279,-728 1029.3412,-702.3507 1135.8063,-668.737 1201.5,-647.4982"/>
<polygon fill="#000000" stroke="#000000" points="1202.8526,-650.7392 1211.2875,-644.328 1200.6955,-644.0799 1202.8526,-650.7392"/>
<text text-anchor="middle" x="1008.9279" y="-724.8" font-family="Times,serif" font-size="14.00" fill="#000000">oa:hasSource</text>
</g>
<!-- Roa:FragmentSelector -->
<g id="node15" class="node">
<title>Roa:FragmentSelector</title>
<ellipse fill="none" stroke="#0000ff" cx="1877.6955" cy="-789" rx="84.485" ry="18"/>
<text text-anchor="middle" x="1877.6955" y="-785.3" font-family="Times,serif" font-size="14.00" fill="#000000">oa:FragmentSelector</text>
</g>
<!-- B_:node1evgqka3hx11&#45;&gt;Roa:FragmentSelector -->
<g id="edge15" class="edge">
<title>B_:node1evgqka3hx11&#45;&gt;Roa:FragmentSelector</title>
<path fill="none" stroke="#000000" d="M1282.041,-736.7627C1317.1434,-740.1908 1397.2644,-747.95 1464.6955,-754 1576.2663,-764.0102 1704.8643,-774.7883 1788.5248,-781.6989"/>
<polygon fill="#000000" stroke="#000000" points="1788.2464,-785.1877 1798.5004,-782.5222 1788.8222,-778.2115 1788.2464,-785.1877"/>
<text text-anchor="middle" x="1522.1955" y="-767.8" font-family="Times,serif" font-size="14.00" fill="#000000">rdf:type</text>
</g>
<!-- Rmf: -->
<g id="node16" class="node">
<title>Rmf:</title>
<ellipse fill="none" stroke="#0000ff" cx="1877.6955" cy="-735" rx="27" ry="18"/>
<text text-anchor="middle" x="1877.6955" y="-731.3" font-family="Times,serif" font-size="14.00" fill="#000000">mf:</text>
</g>
<!-- B_:node1evgqka3hx11&#45;&gt;Rmf: -->
<g id="edge16" class="edge">
<title>B_:node1evgqka3hx11&#45;&gt;Rmf:</title>
<path fill="none" stroke="#000000" d="M1282.0943,-735C1366.4662,-735 1723.0714,-735 1840.2274,-735"/>
<polygon fill="#000000" stroke="#000000" points="1840.4841,-738.5001 1850.4841,-735 1840.4841,-731.5001 1840.4841,-738.5001"/>
<text text-anchor="middle" x="1522.1955" y="-738.8" font-family="Times,serif" font-size="14.00" fill="#000000">dcterms:conformsTo</text>
</g>
<!-- Lxywh=0.5530314055917275,0.3586725350259047,0.07278820375335127,0.018716966679433122 -->
<g id="node17" class="node">
<title>Lxywh=0.5530314055917275,0.3586725350259047,0.07278820375335127,0.018716966679433122</title>
<polygon fill="none" stroke="#000000" points="1597.6955,-826 1597.6955,-862 2157.6955,-862 2157.6955,-826 1597.6955,-826"/>
<text text-anchor="middle" x="1877.6955" y="-840.3" font-family="Times,serif" font-size="14.00" fill="#000000">xywh=0.5530314055917275,0.3586725350259047,0.07278820375335127,0.018716966679433122</text>
</g>
<!-- B_:node1evgqka3hx11&#45;&gt;Lxywh=0.5530314055917275,0.3586725350259047,0.07278820375335127,0.018716966679433122 -->
<g id="edge17" class="edge">
<title>B_:node1evgqka3hx11&#45;&gt;Lxywh=0.5530314055917275,0.3586725350259047,0.07278820375335127,0.018716966679433122</title>
<path fill="none" stroke="#000000" d="M1282.228,-733.6549C1316.6323,-731.9386 1392.6816,-732.1777 1446.6955,-762 1457.4569,-767.9416 1454.233,-776.5466 1464.6955,-783 1516.5314,-814.973 1537.6848,-805.6099 1597.6955,-816 1616.2444,-819.2115 1635.5531,-822.0906 1654.9726,-824.6646"/>
<polygon fill="#000000" stroke="#000000" points="1654.7672,-828.1672 1665.1344,-825.983 1655.6679,-821.2254 1654.7672,-828.1672"/>
<text text-anchor="middle" x="1522.1955" y="-817.8" font-family="Times,serif" font-size="14.00" fill="#000000">rdf:value</text>
</g>
<!-- Rdcmitype:StillImage -->
<g id="node21" class="node">
<title>Rdcmitype:StillImage</title>
<ellipse fill="none" stroke="#0000ff" cx="1877.6955" cy="-627" rx="83.3857" ry="18"/>
<text text-anchor="middle" x="1877.6955" y="-623.3" font-family="Times,serif" font-size="14.00" fill="#000000">dcmitype:StillImage</text>
</g>
<!-- Rimg:MMNAT01_AF_NNM001001033_003.jpg&#45;&gt;Rdcmitype:StillImage -->
<g id="edge21" class="edge">
<title>Rimg:MMNAT01_AF_NNM001001033_003.jpg&#45;&gt;Rdcmitype:StillImage</title>
<path fill="none" stroke="#000000" d="M1446.9257,-627C1557.9732,-627 1695.0623,-627 1784.3437,-627"/>
<polygon fill="#000000" stroke="#000000" points="1784.4491,-630.5001 1794.449,-627 1784.449,-623.5001 1784.4491,-630.5001"/>
<text text-anchor="middle" x="1522.1955" y="-630.8" font-family="Times,serif" font-size="14.00" fill="#000000">rdf:type</text>
</g>
<!-- Rdsw:Token -->
<g id="node22" class="node">
<title>Rdsw:Token</title>
<ellipse fill="none" stroke="#0000ff" cx="1877.6955" cy="-573" rx="50.0912" ry="18"/>
<text text-anchor="middle" x="1877.6955" y="-569.3" font-family="Times,serif" font-size="14.00" fill="#000000">dsw:Token</text>
</g>
<!-- Rimg:MMNAT01_AF_NNM001001033_003.jpg&#45;&gt;Rdsw:Token -->
<g id="edge22" class="edge">
<title>Rimg:MMNAT01_AF_NNM001001033_003.jpg&#45;&gt;Rdsw:Token</title>
<path fill="none" stroke="#000000" d="M1394.9025,-614.4213C1418.1462,-612.2403 1442.1313,-610.0245 1464.6955,-608 1590.5598,-596.7074 1738.0935,-584.4374 1818.3356,-577.8453"/>
<polygon fill="#000000" stroke="#000000" points="1819.0485,-581.2986 1828.7287,-576.9923 1818.4759,-574.3221 1819.0485,-581.2986"/>
<text text-anchor="middle" x="1522.1955" y="-611.8" font-family="Times,serif" font-size="14.00" fill="#000000">rdf:type</text>
</g>
<!-- Rdwc:HumanObservation -->
<g id="node23" class="node">
<title>Rdwc:HumanObservation</title>
<ellipse fill="none" stroke="#0000ff" cx="1877.6955" cy="-519" rx="96.6831" ry="18"/>
<text text-anchor="middle" x="1877.6955" y="-515.3" font-family="Times,serif" font-size="14.00" fill="#000000">dwc:HumanObservation</text>
</g>
<!-- Rimg:MMNAT01_AF_NNM001001033_003.jpg&#45;&gt;Rdwc:HumanObservation -->
<g id="edge23" class="edge">
<title>Rimg:MMNAT01_AF_NNM001001033_003.jpg&#45;&gt;Rdwc:HumanObservation</title>
<path fill="none" stroke="#000000" d="M1404.257,-615.3351C1419.0408,-611.2467 1433.4807,-605.918 1446.6955,-599 1457.001,-593.605 1454.6671,-585.894 1464.6955,-580 1517.2955,-549.0854 1537.5964,-556.5148 1597.6955,-546 1655.9947,-535.8001 1721.8458,-529.2065 1775.0336,-525.0908"/>
<polygon fill="#000000" stroke="#000000" points="1775.4465,-528.5696 1785.1541,-524.3256 1774.9187,-521.5895 1775.4465,-528.5696"/>
<text text-anchor="middle" x="1522.1955" y="-583.8" font-family="Times,serif" font-size="14.00" fill="#000000">rdf:type</text>
</g>
<!-- Roa:Source -->
<g id="node24" class="node">
<title>Roa:Source</title>
<ellipse fill="none" stroke="#0000ff" cx="1877.6955" cy="-465" rx="46.2923" ry="18"/>
<text text-anchor="middle" x="1877.6955" y="-461.3" font-family="Times,serif" font-size="14.00" fill="#000000">oa:Source</text>
</g>
<!-- Rimg:MMNAT01_AF_NNM001001033_003.jpg&#45;&gt;Roa:Source -->
<g id="edge24" class="edge">
<title>Rimg:MMNAT01_AF_NNM001001033_003.jpg&#45;&gt;Roa:Source</title>
<path fill="none" stroke="#000000" d="M1418.7175,-617.2052C1428.8638,-612.4803 1438.3448,-606.5044 1446.6955,-599 1469.9486,-578.1032 1442.8836,-553.397 1464.6955,-531 1559.9636,-433.1765 1738.1285,-443.4579 1825.992,-455.8067"/>
<polygon fill="#000000" stroke="#000000" points="1825.5904,-459.2852 1835.9931,-457.2766 1826.6084,-452.3596 1825.5904,-459.2852"/>
<text text-anchor="middle" x="1522.1955" y="-534.8" font-family="Times,serif" font-size="14.00" fill="#000000">rdf:type</text>
</g>
<!-- Rfoaf:Image -->
<g id="node25" class="node">
<title>Rfoaf:Image</title>
<ellipse fill="none" stroke="#0000ff" cx="1877.6955" cy="-681" rx="50.0912" ry="18"/>
<text text-anchor="middle" x="1877.6955" y="-677.3" font-family="Times,serif" font-size="14.00" fill="#000000">foaf:Image</text>
</g>
<!-- Rimg:MMNAT01_AF_NNM001001033_003.jpg&#45;&gt;Rfoaf:Image -->
<g id="edge25" class="edge">
<title>Rimg:MMNAT01_AF_NNM001001033_003.jpg&#45;&gt;Rfoaf:Image</title>
<path fill="none" stroke="#000000" d="M1394.9025,-639.5787C1418.1462,-641.7597 1442.1313,-643.9755 1464.6955,-646 1590.5598,-657.2926 1738.0935,-669.5626 1818.3356,-676.1547"/>
<polygon fill="#000000" stroke="#000000" points="1818.4759,-679.6779 1828.7287,-677.0077 1819.0485,-672.7014 1818.4759,-679.6779"/>
<text text-anchor="middle" x="1522.1955" y="-659.8" font-family="Times,serif" font-size="14.00" fill="#000000">rdf:type</text>
</g>
<!-- Rgbif:9180402 -->
<g id="node26" class="node">
<title>Rgbif:9180402</title>
<ellipse fill="none" stroke="#0000ff" cx="295.7238" cy="-397" rx="57.6901" ry="18"/>
<text text-anchor="middle" x="295.7238" y="-393.3" font-family="Times,serif" font-size="14.00" fill="#000000">gbif:9180402</text>
</g>
<!-- Rgbif:9180402&#45;&gt;B_:node1evgqka3hx9 -->
<g id="edge27" class="edge">
<title>Rgbif:9180402&#45;&gt;B_:node1evgqka3hx9</title>
<path fill="none" stroke="#000000" d="M343.3654,-386.6626C424.3746,-371.9557 590.553,-354.5626 697.4475,-431 713.6356,-442.5757 700.2058,-459.204 715.4475,-472 738.5022,-491.3552 773.2786,-497.2333 797.6418,-498.8217"/>
<polygon fill="#000000" stroke="#000000" points="797.5546,-502.3212 807.702,-499.2747 797.8696,-495.3283 797.5546,-502.3212"/>
<text text-anchor="middle" x="653.4475" y="-434.8" font-family="Times,serif" font-size="14.00" fill="#000000">owl:sameAs</text>
</g>
<!-- Robo:TAXRANK_0000006 -->
<g id="node27" class="node">
<title>Robo:TAXRANK_0000006</title>
<ellipse fill="none" stroke="#0000ff" cx="825.9377" cy="-373" rx="104.7816" ry="18"/>
<text text-anchor="middle" x="825.9377" y="-369.3" font-family="Times,serif" font-size="14.00" fill="#000000">obo:TAXRANK_0000006</text>
</g>
<!-- Rgbif:9180402&#45;&gt;Robo:TAXRANK_0000006 -->
<g id="edge26" class="edge">
<title>Rgbif:9180402&#45;&gt;Robo:TAXRANK_0000006</title>
<path fill="none" stroke="#000000" d="M351.1964,-391.7779C413.8414,-386.1498 518.86,-377.5257 609.4475,-374 642.4625,-372.715 678.3308,-372.1946 711.1999,-372.0652"/>
<polygon fill="#000000" stroke="#000000" points="711.3077,-375.5651 721.2979,-372.0372 711.2882,-368.5651 711.3077,-375.5651"/>
<text text-anchor="middle" x="653.4475" y="-377.8" font-family="Times,serif" font-size="14.00" fill="#000000">dwc:taxonRank</text>
</g>
<!-- B_:node1evgqka3hx7 -->
<g id="node28" class="node">
<title>B_:node1evgqka3hx7</title>
<ellipse fill="none" stroke="#00ff00" cx="295.7238" cy="-462" rx="18" ry="18"/>
</g>
<!-- B_:node1evgqka3hx7&#45;&gt;B_:node1evgqka3hx9 -->
<g id="edge29" class="edge">
<title>B_:node1evgqka3hx7&#45;&gt;B_:node1evgqka3hx9</title>
<path fill="none" stroke="#000000" d="M313.9749,-463.2736C392.5263,-468.7552 702.1337,-490.3606 797.694,-497.0291"/>
<polygon fill="#000000" stroke="#000000" points="797.5439,-500.527 807.7633,-497.7317 798.0313,-493.544 797.5439,-500.527"/>
<text text-anchor="middle" x="653.4475" y="-493.8" font-family="Times,serif" font-size="14.00" fill="#000000">dwciri:toTaxon</text>
</g>
<!-- Rdwc:Identification -->
<g id="node29" class="node">
<title>Rdwc:Identification</title>
<ellipse fill="none" stroke="#0000ff" cx="825.9377" cy="-445" rx="75.2868" ry="18"/>
<text text-anchor="middle" x="825.9377" y="-441.3" font-family="Times,serif" font-size="14.00" fill="#000000">dwc:Identification</text>
</g>
<!-- B_:node1evgqka3hx7&#45;&gt;Rdwc:Identification -->
<g id="edge28" class="edge">
<title>B_:node1evgqka3hx7&#45;&gt;Rdwc:Identification</title>
<path fill="none" stroke="#000000" d="M313.9749,-461.4148C380.5488,-459.2803 613.0881,-451.8245 740.6292,-447.7352"/>
<polygon fill="#000000" stroke="#000000" points="740.872,-451.2293 750.7547,-447.4106 740.6476,-444.2329 740.872,-451.2293"/>
<text text-anchor="middle" x="653.4475" y="-455.8" font-family="Times,serif" font-size="14.00" fill="#000000">rdf:type</text>
</g>
</g>
</svg>
