<?xml version="1.0" encoding="UTF-8" standalone="no"?>
<!DOCTYPE svg PUBLIC "-//W3C//DTD SVG 1.1//EN"
 "http://www.w3.org/Graphics/SVG/1.1/DTD/svg11.dtd">
<!-- Generated by graphviz version 2.40.1 (20161225.0304)
 -->
<!-- Title: %3 Pages: 1 -->
<svg width="2168pt" height="1142pt"
 viewBox="0.00 0.00 2167.70 1142.00" xmlns="http://www.w3.org/2000/svg" xmlns:xlink="http://www.w3.org/1999/xlink">
<g id="graph0" class="graph" transform="scale(1 1) rotate(0) translate(4 1138)">
<title>%3</title>
<polygon fill="#ffffff" stroke="transparent" points="-4,4 -4,-1138 2163.6955,-1138 2163.6955,4 -4,4"/>
<text text-anchor="middle" x="1079.8478" y="-233.8" font-family="Times,serif" font-size="14.00" fill="#000000">Model:</text>
<text text-anchor="middle" x="1079.8478" y="-218.8" font-family="Times,serif" font-size="14.00" fill="#000000">(Unknown)</text>
<text text-anchor="middle" x="1079.8478" y="-187.8" font-family="Times,serif" font-size="14.00" fill="#000000">Namespaces:</text>
<text text-anchor="middle" x="1079.8478" y="-172.8" font-family="Times,serif" font-size="14.00" fill="#000000">dcmitype: http://purl.org/dc/dcmitype/</text>
<text text-anchor="middle" x="1079.8478" y="-157.8" font-family="Times,serif" font-size="14.00" fill="#000000">dcterms: http://purl.org/dc/terms/</text>
<text text-anchor="middle" x="1079.8478" y="-142.8" font-family="Times,serif" font-size="14.00" fill="#000000">dsw: http://purl.org/dsw/</text>
<text text-anchor="middle" x="1079.8478" y="-127.8" font-family="Times,serif" font-size="14.00" fill="#000000">dwc: http://rs.tdwg.org/dwc/terms/</text>
<text text-anchor="middle" x="1079.8478" y="-112.8" font-family="Times,serif" font-size="14.00" fill="#000000">foaf: http://xmlns.com/foaf/0.1/</text>
<text text-anchor="middle" x="1079.8478" y="-97.8" font-family="Times,serif" font-size="14.00" fill="#000000">img: http://localhost:8080/semanticAnnotator/files/</text>
<text text-anchor="middle" x="1079.8478" y="-82.8" font-family="Times,serif" font-size="14.00" fill="#000000">iso: http://iso639&#45;3.sil.org/code/</text>
<text text-anchor="middle" x="1079.8478" y="-67.8" font-family="Times,serif" font-size="14.00" fill="#000000">mf: http://www.w3.org/TR/media&#45;frags/</text>
<text text-anchor="middle" x="1079.8478" y="-52.8" font-family="Times,serif" font-size="14.00" fill="#000000">oa: http://www.w3.org/ns/oa#</text>
<text text-anchor="middle" x="1079.8478" y="-37.8" font-family="Times,serif" font-size="14.00" fill="#000000">orcid: http://orcid.org/</text>
<text text-anchor="middle" x="1079.8478" y="-22.8" font-family="Times,serif" font-size="14.00" fill="#000000">rdf: http://www.w3.org/1999/02/22&#45;rdf&#45;syntax&#45;ns#</text>
<text text-anchor="middle" x="1079.8478" y="-7.8" font-family="Times,serif" font-size="14.00" fill="#000000">viaf: http://viaf.org/viaf/</text>
<!-- Rhttp://localhost:8080/rdf/nc/annotation/afdad7e1&#45;0221&#45;4136&#45;8c1e&#45;236e274540c1 -->
<g id="node1" class="node">
<title>Rhttp://localhost:8080/rdf/nc/annotation/afdad7e1&#45;0221&#45;4136&#45;8c1e&#45;236e274540c1</title>
<ellipse fill="none" stroke="#0000ff" cx="295.7238" cy="-922" rx="295.9477" ry="18"/>
<text text-anchor="middle" x="295.7238" y="-918.3" font-family="Times,serif" font-size="14.00" fill="#000000">http://localhost:8080/rdf/nc/annotation/afdad7e1&#45;0221&#45;4136&#45;8c1e&#45;236e274540c1</text>
</g>
<!-- Roa:Annotation -->
<g id="node2" class="node">
<title>Roa:Annotation</title>
<ellipse fill="none" stroke="#0000ff" cx="825.9377" cy="-1055" rx="61.1893" ry="18"/>
<text text-anchor="middle" x="825.9377" y="-1051.3" font-family="Times,serif" font-size="14.00" fill="#000000">oa:Annotation</text>
</g>
<!-- Rhttp://localhost:8080/rdf/nc/annotation/afdad7e1&#45;0221&#45;4136&#45;8c1e&#45;236e274540c1&#45;&gt;Roa:Annotation -->
<g id="edge1" class="edge">
<title>Rhttp://localhost:8080/rdf/nc/annotation/afdad7e1&#45;0221&#45;4136&#45;8c1e&#45;236e274540c1&#45;&gt;Roa:Annotation</title>
<path fill="none" stroke="#000000" d="M364.3875,-939.5135C447.4727,-960.6654 591.6334,-997.2381 715.4475,-1028 732.7491,-1032.2986 751.5892,-1036.9233 768.7308,-1041.1095"/>
<polygon fill="#000000" stroke="#000000" points="768.0581,-1044.548 778.6028,-1043.5178 769.7172,-1037.7474 768.0581,-1044.548"/>
<text text-anchor="middle" x="653.4475" y="-1025.8" font-family="Times,serif" font-size="14.00" fill="#000000">rdf:type</text>
</g>
<!-- Rorcid:0000&#45;0002&#45;2146&#45;4803 -->
<g id="node3" class="node">
<title>Rorcid:0000&#45;0002&#45;2146&#45;4803</title>
<ellipse fill="none" stroke="#0000ff" cx="825.9377" cy="-1001" rx="110.4804" ry="18"/>
<text text-anchor="middle" x="825.9377" y="-997.3" font-family="Times,serif" font-size="14.00" fill="#000000">orcid:0000&#45;0002&#45;2146&#45;4803</text>
</g>
<!-- Rhttp://localhost:8080/rdf/nc/annotation/afdad7e1&#45;0221&#45;4136&#45;8c1e&#45;236e274540c1&#45;&gt;Rorcid:0000&#45;0002&#45;2146&#45;4803 -->
<g id="edge2" class="edge">
<title>Rhttp://localhost:8080/rdf/nc/annotation/afdad7e1&#45;0221&#45;4136&#45;8c1e&#45;236e274540c1&#45;&gt;Rorcid:0000&#45;0002&#45;2146&#45;4803</title>
<path fill="none" stroke="#000000" d="M407.8444,-938.7056C504.9488,-953.1738 643.6841,-973.8449 734.2713,-987.342"/>
<polygon fill="#000000" stroke="#000000" points="733.8446,-990.817 744.2512,-988.829 734.8762,-983.8934 733.8446,-990.817"/>
<text text-anchor="middle" x="653.4475" y="-982.8" font-family="Times,serif" font-size="14.00" fill="#000000">dcterms:creator</text>
</g>
<!-- L2021&#45;01&#45;12T14:23:11.646Z|Datatype: dcterms:W3CDTF -->
<g id="node4" class="node">
<title>L2021&#45;01&#45;12T14:23:11.646Z|Datatype: dcterms:W3CDTF</title>
<polygon fill="none" stroke="#000000" points="738.4377,-918 738.4377,-964 913.4377,-964 913.4377,-918 738.4377,-918"/>
<text text-anchor="middle" x="825.9377" y="-948.8" font-family="Times,serif" font-size="14.00" fill="#000000">2021&#45;01&#45;12T14:23:11.646Z</text>
<polyline fill="none" stroke="#000000" points="738.4377,-941 913.4377,-941 "/>
<text text-anchor="middle" x="825.9377" y="-925.8" font-family="Times,serif" font-size="14.00" fill="#000000">Datatype: dcterms:W3CDTF</text>
</g>
<!-- Rhttp://localhost:8080/rdf/nc/annotation/afdad7e1&#45;0221&#45;4136&#45;8c1e&#45;236e274540c1&#45;&gt;L2021&#45;01&#45;12T14:23:11.646Z|Datatype: dcterms:W3CDTF -->
<g id="edge3" class="edge">
<title>Rhttp://localhost:8080/rdf/nc/annotation/afdad7e1&#45;0221&#45;4136&#45;8c1e&#45;236e274540c1&#45;&gt;L2021&#45;01&#45;12T14:23:11.646Z|Datatype: dcterms:W3CDTF</title>
<path fill="none" stroke="#000000" d="M550.7361,-931.1383C613.9021,-933.4018 677.8334,-935.6927 728.1583,-937.4961"/>
<polygon fill="#000000" stroke="#000000" points="728.2421,-941.0013 738.361,-937.8617 728.4928,-934.0058 728.2421,-941.0013"/>
<text text-anchor="middle" x="653.4475" y="-938.8" font-family="Times,serif" font-size="14.00" fill="#000000">dcterms:date</text>
</g>
<!-- B_:node1f26ai8ibx50 -->
<g id="node5" class="node">
<title>B_:node1f26ai8ibx50</title>
<ellipse fill="none" stroke="#00ff00" cx="825.9377" cy="-881" rx="18" ry="18"/>
</g>
<!-- Rhttp://localhost:8080/rdf/nc/annotation/afdad7e1&#45;0221&#45;4136&#45;8c1e&#45;236e274540c1&#45;&gt;B_:node1f26ai8ibx50 -->
<g id="edge4" class="edge">
<title>Rhttp://localhost:8080/rdf/nc/annotation/afdad7e1&#45;0221&#45;4136&#45;8c1e&#45;236e274540c1&#45;&gt;B_:node1f26ai8ibx50</title>
<path fill="none" stroke="#000000" d="M478.9358,-907.8327C596.7238,-898.7245 738.4291,-887.7668 797.7101,-883.1828"/>
<polygon fill="#000000" stroke="#000000" points="798.0953,-886.6635 807.7957,-882.4029 797.5556,-879.6844 798.0953,-886.6635"/>
<text text-anchor="middle" x="653.4475" y="-899.8" font-family="Times,serif" font-size="14.00" fill="#000000">oa:hasBody</text>
</g>
<!-- B_:node1f26ai8ibx49 -->
<g id="node13" class="node">
<title>B_:node1f26ai8ibx49</title>
<ellipse fill="none" stroke="#00ff00" cx="825.9377" cy="-680" rx="18" ry="18"/>
</g>
<!-- Rhttp://localhost:8080/rdf/nc/annotation/afdad7e1&#45;0221&#45;4136&#45;8c1e&#45;236e274540c1&#45;&gt;B_:node1f26ai8ibx49 -->
<g id="edge13" class="edge">
<title>Rhttp://localhost:8080/rdf/nc/annotation/afdad7e1&#45;0221&#45;4136&#45;8c1e&#45;236e274540c1&#45;&gt;B_:node1f26ai8ibx49</title>
<path fill="none" stroke="#000000" d="M335.1428,-904.0084C438.3356,-856.9092 714.3433,-730.9339 800.1299,-691.7792"/>
<polygon fill="#000000" stroke="#000000" points="801.7587,-694.8832 809.4027,-687.5469 798.8521,-688.5151 801.7587,-694.8832"/>
<text text-anchor="middle" x="653.4475" y="-775.8" font-family="Times,serif" font-size="14.00" fill="#000000">oa:hasTarget</text>
</g>
<!-- Roa:describing -->
<g id="node21" class="node">
<title>Roa:describing</title>
<ellipse fill="none" stroke="#0000ff" cx="825.9377" cy="-626" rx="57.6901" ry="18"/>
<text text-anchor="middle" x="825.9377" y="-622.3" font-family="Times,serif" font-size="14.00" fill="#000000">oa:describing</text>
</g>
<!-- Rhttp://localhost:8080/rdf/nc/annotation/afdad7e1&#45;0221&#45;4136&#45;8c1e&#45;236e274540c1&#45;&gt;Roa:describing -->
<g id="edge21" class="edge">
<title>Rhttp://localhost:8080/rdf/nc/annotation/afdad7e1&#45;0221&#45;4136&#45;8c1e&#45;236e274540c1&#45;&gt;Roa:describing</title>
<path fill="none" stroke="#000000" d="M317.869,-903.9624C377.9813,-855.89 550.7694,-723.5602 715.4475,-653 731.0047,-646.3341 748.5301,-641.1053 764.9619,-637.0983"/>
<polygon fill="#000000" stroke="#000000" points="766.0764,-640.4327 775.0243,-634.7594 764.4915,-633.6144 766.0764,-640.4327"/>
<text text-anchor="middle" x="653.4475" y="-704.8" font-family="Times,serif" font-size="14.00" fill="#000000">oa:motivatedBy</text>
</g>
<!-- Rfoaf:Person -->
<g id="node8" class="node">
<title>Rfoaf:Person</title>
<ellipse fill="none" stroke="#0000ff" cx="1252.0617" cy="-1102" rx="51.1914" ry="18"/>
<text text-anchor="middle" x="1252.0617" y="-1098.3" font-family="Times,serif" font-size="14.00" fill="#000000">foaf:Person</text>
</g>
<!-- Rorcid:0000&#45;0002&#45;2146&#45;4803&#45;&gt;Rfoaf:Person -->
<g id="edge22" class="edge">
<title>Rorcid:0000&#45;0002&#45;2146&#45;4803&#45;&gt;Rfoaf:Person</title>
<path fill="none" stroke="#000000" d="M911.5621,-1012.4749C920.6681,-1016.3397 929.2198,-1021.398 936.4279,-1028 954.7731,-1044.8024 934.7284,-1065.8081 954.4279,-1081 1025.0013,-1135.4246 1135.1447,-1126.1814 1199.7969,-1114.2656"/>
<polygon fill="#000000" stroke="#000000" points="1200.6147,-1117.6725 1209.7695,-1112.3396 1199.2872,-1110.7995 1200.6147,-1117.6725"/>
<text text-anchor="middle" x="1002.9279" y="-1122.8" font-family="Times,serif" font-size="14.00" fill="#000000">rdf:type</text>
</g>
<!-- Rdcterms:Agent -->
<g id="node6" class="node">
<title>Rdcterms:Agent</title>
<ellipse fill="none" stroke="#0000ff" cx="1252.0617" cy="-1045" rx="63.0888" ry="18"/>
<text text-anchor="middle" x="1252.0617" y="-1041.3" font-family="Times,serif" font-size="14.00" fill="#000000">dcterms:Agent</text>
</g>
<!-- B_:node1f26ai8ibx50&#45;&gt;Rdcterms:Agent -->
<g id="edge5" class="edge">
<title>B_:node1f26ai8ibx50&#45;&gt;Rdcterms:Agent</title>
<path fill="none" stroke="#000000" d="M844.3365,-880.2918C868.7851,-880.4006 911.7577,-884.4159 936.4279,-909 959.1822,-931.6748 932.5841,-955.4469 954.4279,-979 991.1277,-1018.5716 1016.9646,-1005.3355 1069.4279,-1018 1106.2929,-1026.8991 1148.0947,-1033.3398 1182.3947,-1037.6935"/>
<polygon fill="#000000" stroke="#000000" points="1181.9667,-1041.1672 1192.321,-1038.9222 1182.8267,-1034.2202 1181.9667,-1041.1672"/>
<text text-anchor="middle" x="1002.9279" y="-1016.8" font-family="Times,serif" font-size="14.00" fill="#000000">rdf:type</text>
</g>
<!-- Roa:TextualBody -->
<g id="node7" class="node">
<title>Roa:TextualBody</title>
<ellipse fill="none" stroke="#0000ff" cx="1252.0617" cy="-991" rx="67.6881" ry="18"/>
<text text-anchor="middle" x="1252.0617" y="-987.3" font-family="Times,serif" font-size="14.00" fill="#000000">oa:TextualBody</text>
</g>
<!-- B_:node1f26ai8ibx50&#45;&gt;Roa:TextualBody -->
<g id="edge6" class="edge">
<title>B_:node1f26ai8ibx50&#45;&gt;Roa:TextualBody</title>
<path fill="none" stroke="#000000" d="M844.0755,-882.2308C867.1045,-884.512 907.3353,-890.9551 936.4279,-909 946.8743,-915.4795 944.1107,-923.3167 954.4279,-930 999.1606,-958.9772 1017.3811,-952.5187 1069.4279,-964 1105.3097,-971.9154 1145.6797,-978.156 1179.3226,-982.6346"/>
<polygon fill="#000000" stroke="#000000" points="1179.1661,-986.1438 1189.535,-983.9678 1180.0723,-979.2027 1179.1661,-986.1438"/>
<text text-anchor="middle" x="1002.9279" y="-963.8" font-family="Times,serif" font-size="14.00" fill="#000000">rdf:type</text>
</g>
<!-- B_:node1f26ai8ibx50&#45;&gt;Rfoaf:Person -->
<g id="edge7" class="edge">
<title>B_:node1f26ai8ibx50&#45;&gt;Rfoaf:Person</title>
<path fill="none" stroke="#000000" d="M844.3071,-879.9235C869.1291,-879.5631 912.967,-882.9922 936.4279,-909 973.4344,-950.024 918.4953,-990.0322 954.4279,-1032 983.7767,-1066.2782 1009.9264,-1044.2808 1051.4279,-1062 1059.8446,-1065.5935 1060.7848,-1068.9916 1069.4279,-1072 1108.7864,-1085.6995 1155.1419,-1093.2181 1191.3022,-1097.3023"/>
<polygon fill="#000000" stroke="#000000" points="1191.3805,-1100.8305 1201.6961,-1098.414 1192.1251,-1093.8702 1191.3805,-1100.8305"/>
<text text-anchor="middle" x="1002.9279" y="-1065.8" font-family="Times,serif" font-size="14.00" fill="#000000">rdf:type</text>
</g>
<!-- Ltext/plain -->
<g id="node9" class="node">
<title>Ltext/plain</title>
<polygon fill="none" stroke="#000000" points="1218.0617,-918 1218.0617,-954 1286.0617,-954 1286.0617,-918 1218.0617,-918"/>
<text text-anchor="middle" x="1252.0617" y="-932.3" font-family="Times,serif" font-size="14.00" fill="#000000">text/plain</text>
</g>
<!-- B_:node1f26ai8ibx50&#45;&gt;Ltext/plain -->
<g id="edge8" class="edge">
<title>B_:node1f26ai8ibx50&#45;&gt;Ltext/plain</title>
<path fill="none" stroke="#000000" d="M843.7929,-883.7926C868.5896,-887.6362 914.8702,-894.6839 954.4279,-900 1044.2122,-912.066 1149.4892,-924.3657 1207.6906,-931.004"/>
<polygon fill="#000000" stroke="#000000" points="1207.3198,-934.4843 1217.6514,-932.1372 1208.1111,-927.5291 1207.3198,-934.4843"/>
<text text-anchor="middle" x="1002.9279" y="-914.8" font-family="Times,serif" font-size="14.00" fill="#000000">dcterms:format</text>
</g>
<!-- Rviaf:39377694 -->
<g id="node10" class="node">
<title>Rviaf:39377694</title>
<ellipse fill="none" stroke="#0000ff" cx="1252.0617" cy="-881" rx="61.99" ry="18"/>
<text text-anchor="middle" x="1252.0617" y="-877.3" font-family="Times,serif" font-size="14.00" fill="#000000">viaf:39377694</text>
</g>
<!-- B_:node1f26ai8ibx50&#45;&gt;Rviaf:39377694 -->
<g id="edge9" class="edge">
<title>B_:node1f26ai8ibx50&#45;&gt;Rviaf:39377694</title>
<path fill="none" stroke="#000000" d="M843.9756,-881C900.8712,-881 1078.7597,-881 1179.8915,-881"/>
<polygon fill="#000000" stroke="#000000" points="1180.0315,-884.5001 1190.0315,-881 1180.0315,-877.5001 1180.0315,-884.5001"/>
<text text-anchor="middle" x="1002.9279" y="-884.8" font-family="Times,serif" font-size="14.00" fill="#000000">dcterms:identifier</text>
</g>
<!-- Riso:und -->
<g id="node11" class="node">
<title>Riso:und</title>
<ellipse fill="none" stroke="#0000ff" cx="1252.0617" cy="-827" rx="36.2938" ry="18"/>
<text text-anchor="middle" x="1252.0617" y="-823.3" font-family="Times,serif" font-size="14.00" fill="#000000">iso:und</text>
</g>
<!-- B_:node1f26ai8ibx50&#45;&gt;Riso:und -->
<g id="edge10" class="edge">
<title>B_:node1f26ai8ibx50&#45;&gt;Riso:und</title>
<path fill="none" stroke="#000000" d="M843.7904,-878.1886C868.5842,-874.3234 914.8615,-867.2506 954.4279,-862 1043.4668,-850.1843 1147.7683,-838.3881 1206.2568,-831.9584"/>
<polygon fill="#000000" stroke="#000000" points="1206.7242,-835.4282 1216.2833,-830.8595 1205.9615,-828.4699 1206.7242,-835.4282"/>
<text text-anchor="middle" x="1002.9279" y="-865.8" font-family="Times,serif" font-size="14.00" fill="#000000">dcterms:language</text>
</g>
<!-- LGeoff|Language: und -->
<g id="node12" class="node">
<title>LGeoff|Language: und</title>
<polygon fill="none" stroke="#000000" points="1203.0617,-744 1203.0617,-790 1301.0617,-790 1301.0617,-744 1203.0617,-744"/>
<text text-anchor="middle" x="1252.0617" y="-774.8" font-family="Times,serif" font-size="14.00" fill="#000000">Geoff</text>
<polyline fill="none" stroke="#000000" points="1203.0617,-767 1301.0617,-767 "/>
<text text-anchor="middle" x="1252.0617" y="-751.8" font-family="Times,serif" font-size="14.00" fill="#000000">Language: und</text>
</g>
<!-- B_:node1f26ai8ibx50&#45;&gt;LGeoff|Language: und -->
<g id="edge11" class="edge">
<title>B_:node1f26ai8ibx50&#45;&gt;LGeoff|Language: und</title>
<path fill="none" stroke="#000000" d="M842.7694,-873.778C867.119,-863.4849 913.7187,-844.3645 954.4279,-831 1035.2466,-804.468 1132.0812,-786.0013 1192.8528,-775.9452"/>
<polygon fill="#000000" stroke="#000000" points="1193.7222,-779.3497 1203.0277,-774.2844 1192.5945,-772.4411 1193.7222,-779.3497"/>
<text text-anchor="middle" x="1002.9279" y="-834.8" font-family="Times,serif" font-size="14.00" fill="#000000">rdf:value</text>
</g>
<!-- B_:node1f26ai8ibx50&#45;&gt;LGeoff|Language: und -->
<g id="edge12" class="edge">
<title>B_:node1f26ai8ibx50&#45;&gt;LGeoff|Language: und</title>
<path fill="none" stroke="#000000" d="M838.2527,-867.7396C859.5093,-845.8766 905.5316,-802.906 954.4279,-785 1033.0053,-756.2248 1131.0202,-756.6123 1192.5954,-760.8067"/>
<polygon fill="#000000" stroke="#000000" points="1192.6747,-764.322 1202.9053,-761.5679 1193.1902,-757.341 1192.6747,-764.322"/>
<text text-anchor="middle" x="1002.9279" y="-788.8" font-family="Times,serif" font-size="14.00" fill="#000000">foaf:name</text>
</g>
<!-- Roa:Target -->
<g id="node14" class="node">
<title>Roa:Target</title>
<ellipse fill="none" stroke="#0000ff" cx="1252.0617" cy="-707" rx="44.393" ry="18"/>
<text text-anchor="middle" x="1252.0617" y="-703.3" font-family="Times,serif" font-size="14.00" fill="#000000">oa:Target</text>
</g>
<!-- B_:node1f26ai8ibx49&#45;&gt;Roa:Target -->
<g id="edge14" class="edge">
<title>B_:node1f26ai8ibx49&#45;&gt;Roa:Target</title>
<path fill="none" stroke="#000000" d="M843.9756,-681.1429C904.5009,-684.9779 1101.9491,-697.4886 1198.2582,-703.5909"/>
<polygon fill="#000000" stroke="#000000" points="1198.1702,-707.0923 1208.3716,-704.2317 1198.6129,-700.1063 1198.1702,-707.0923"/>
<text text-anchor="middle" x="1002.9279" y="-696.8" font-family="Times,serif" font-size="14.00" fill="#000000">rdf:type</text>
</g>
<!-- Limage/jpeg -->
<g id="node15" class="node">
<title>Limage/jpeg</title>
<polygon fill="none" stroke="#000000" points="1213.5617,-634 1213.5617,-670 1290.5617,-670 1290.5617,-634 1213.5617,-634"/>
<text text-anchor="middle" x="1252.0617" y="-648.3" font-family="Times,serif" font-size="14.00" fill="#000000">image/jpeg</text>
</g>
<!-- B_:node1f26ai8ibx49&#45;&gt;Limage/jpeg -->
<g id="edge15" class="edge">
<title>B_:node1f26ai8ibx49&#45;&gt;Limage/jpeg</title>
<path fill="none" stroke="#000000" d="M844.2239,-678.2703C869.1309,-675.9519 915.1233,-671.8043 954.4279,-669 1042.0905,-662.7454 1144.4088,-657.3087 1203.372,-654.3567"/>
<polygon fill="#000000" stroke="#000000" points="1203.6976,-657.8449 1213.5112,-653.8522 1203.3496,-650.8536 1203.6976,-657.8449"/>
<text text-anchor="middle" x="1002.9279" y="-672.8" font-family="Times,serif" font-size="14.00" fill="#000000">dcterms:format</text>
</g>
<!-- B_:node1f26ai8ibx52 -->
<g id="node16" class="node">
<title>B_:node1f26ai8ibx52</title>
<ellipse fill="none" stroke="#00ff00" cx="1252.0617" cy="-597" rx="18" ry="18"/>
</g>
<!-- B_:node1f26ai8ibx49&#45;&gt;B_:node1f26ai8ibx52 -->
<g id="edge16" class="edge">
<title>B_:node1f26ai8ibx49&#45;&gt;B_:node1f26ai8ibx52</title>
<path fill="none" stroke="#000000" d="M843.9072,-676.8937C866.078,-672.7708 904.7274,-664.6312 936.4279,-653 944.8248,-649.9191 945.9319,-646.7959 954.4279,-644 1049.9619,-612.5615 1169.8685,-601.8356 1223.6596,-598.4433"/>
<polygon fill="#000000" stroke="#000000" points="1224.0307,-601.9276 1233.8062,-597.8422 1223.6167,-594.9398 1224.0307,-601.9276"/>
<text text-anchor="middle" x="1002.9279" y="-647.8" font-family="Times,serif" font-size="14.00" fill="#000000">oa:hasSelector</text>
</g>
<!-- Rimg:MMNAT01_AF_NNM001001033_003.jpg -->
<g id="node20" class="node">
<title>Rimg:MMNAT01_AF_NNM001001033_003.jpg</title>
<ellipse fill="none" stroke="#0000ff" cx="1252.0617" cy="-434" rx="182.7677" ry="18"/>
<text text-anchor="middle" x="1252.0617" y="-430.3" font-family="Times,serif" font-size="14.00" fill="#000000">img:MMNAT01_AF_NNM001001033_003.jpg</text>
</g>
<!-- B_:node1f26ai8ibx49&#45;&gt;Rimg:MMNAT01_AF_NNM001001033_003.jpg -->
<g id="edge20" class="edge">
<title>B_:node1f26ai8ibx49&#45;&gt;Rimg:MMNAT01_AF_NNM001001033_003.jpg</title>
<path fill="none" stroke="#000000" d="M844.0355,-680.5929C868.1431,-680.3859 910.7304,-676.3987 936.4279,-653 954.5112,-636.5343 938.7407,-619.7626 954.4279,-601 1016.461,-526.8054 1120.3847,-479.3334 1187.5635,-454.6694"/>
<polygon fill="#000000" stroke="#000000" points="1188.9789,-457.8797 1197.1991,-451.1955 1186.6048,-451.2946 1188.9789,-457.8797"/>
<text text-anchor="middle" x="1002.9279" y="-604.8" font-family="Times,serif" font-size="14.00" fill="#000000">oa:hasSource</text>
</g>
<!-- Roa:FragmentSelector -->
<g id="node17" class="node">
<title>Roa:FragmentSelector</title>
<ellipse fill="none" stroke="#0000ff" cx="1872.6955" cy="-679" rx="84.485" ry="18"/>
<text text-anchor="middle" x="1872.6955" y="-675.3" font-family="Times,serif" font-size="14.00" fill="#000000">oa:FragmentSelector</text>
</g>
<!-- B_:node1f26ai8ibx52&#45;&gt;Roa:FragmentSelector -->
<g id="edge17" class="edge">
<title>B_:node1f26ai8ibx52&#45;&gt;Roa:FragmentSelector</title>
<path fill="none" stroke="#000000" d="M1270.1475,-598.6146C1303.1714,-601.7961 1375.3044,-609.8267 1434.6955,-624 1442.8979,-625.9575 1444.5102,-627.9723 1452.6955,-630 1563.0503,-657.3381 1693.593,-669.5321 1779.5117,-674.9001"/>
<polygon fill="#000000" stroke="#000000" points="1779.3098,-678.3942 1789.5034,-675.5061 1779.7336,-671.407 1779.3098,-678.3942"/>
<text text-anchor="middle" x="1510.1955" y="-655.8" font-family="Times,serif" font-size="14.00" fill="#000000">rdf:type</text>
</g>
<!-- Rmf: -->
<g id="node18" class="node">
<title>Rmf:</title>
<ellipse fill="none" stroke="#0000ff" cx="1872.6955" cy="-625" rx="27" ry="18"/>
<text text-anchor="middle" x="1872.6955" y="-621.3" font-family="Times,serif" font-size="14.00" fill="#000000">mf:</text>
</g>
<!-- B_:node1f26ai8ibx52&#45;&gt;Rmf: -->
<g id="edge18" class="edge">
<title>B_:node1f26ai8ibx52&#45;&gt;Rmf:</title>
<path fill="none" stroke="#000000" d="M1270.3,-597.8228C1355.7315,-601.6771 1717.1285,-617.9816 1835.2035,-623.3085"/>
<polygon fill="#000000" stroke="#000000" points="1835.387,-626.8203 1845.5347,-623.7746 1835.7026,-619.8274 1835.387,-626.8203"/>
<text text-anchor="middle" x="1510.1955" y="-614.8" font-family="Times,serif" font-size="14.00" fill="#000000">dcterms:conformsTo</text>
</g>
<!-- Lxywh=0.6222427138577663,0.025690113172811516,0.024116347569955843,0.01804123711340206 -->
<g id="node19" class="node">
<title>Lxywh=0.6222427138577663,0.025690113172811516,0.024116347569955843,0.01804123711340206</title>
<polygon fill="none" stroke="#000000" points="1585.6955,-552 1585.6955,-588 2159.6955,-588 2159.6955,-552 1585.6955,-552"/>
<text text-anchor="middle" x="1872.6955" y="-566.3" font-family="Times,serif" font-size="14.00" fill="#000000">xywh=0.6222427138577663,0.025690113172811516,0.024116347569955843,0.01804123711340206</text>
</g>
<!-- B_:node1f26ai8ibx52&#45;&gt;Lxywh=0.6222427138577663,0.025690113172811516,0.024116347569955843,0.01804123711340206 -->
<g id="edge19" class="edge">
<title>B_:node1f26ai8ibx52&#45;&gt;Lxywh=0.6222427138577663,0.025690113172811516,0.024116347569955843,0.01804123711340206</title>
<path fill="none" stroke="#000000" d="M1270.0459,-596.1812C1305.1569,-594.5853 1385.2921,-590.9561 1452.6955,-588 1492.3534,-586.2607 1534.1187,-584.448 1575.3055,-582.6715"/>
<polygon fill="#000000" stroke="#000000" points="1575.6402,-586.1604 1585.4801,-582.2328 1575.3386,-579.1669 1575.6402,-586.1604"/>
<text text-anchor="middle" x="1510.1955" y="-591.8" font-family="Times,serif" font-size="14.00" fill="#000000">rdf:value</text>
</g>
<!-- Rdcmitype:StillImage -->
<g id="node22" class="node">
<title>Rdcmitype:StillImage</title>
<ellipse fill="none" stroke="#0000ff" cx="1872.6955" cy="-515" rx="83.3857" ry="18"/>
<text text-anchor="middle" x="1872.6955" y="-511.3" font-family="Times,serif" font-size="14.00" fill="#000000">dcmitype:StillImage</text>
</g>
<!-- Rimg:MMNAT01_AF_NNM001001033_003.jpg&#45;&gt;Rdcmitype:StillImage -->
<g id="edge23" class="edge">
<title>Rimg:MMNAT01_AF_NNM001001033_003.jpg&#45;&gt;Rdcmitype:StillImage</title>
<path fill="none" stroke="#000000" d="M1345.4416,-449.4867C1379.2248,-455.0558 1417.6708,-461.3545 1452.6955,-467 1511.7764,-476.523 1526.3205,-480.5271 1585.6955,-488 1652.0943,-496.3569 1727.4338,-503.3503 1784.257,-508.1244"/>
<polygon fill="#000000" stroke="#000000" points="1784.0298,-511.6175 1794.286,-508.9602 1784.6112,-504.6417 1784.0298,-511.6175"/>
<text text-anchor="middle" x="1510.1955" y="-489.8" font-family="Times,serif" font-size="14.00" fill="#000000">rdf:type</text>
</g>
<!-- Rdsw:Token -->
<g id="node23" class="node">
<title>Rdsw:Token</title>
<ellipse fill="none" stroke="#0000ff" cx="1872.6955" cy="-461" rx="50.0912" ry="18"/>
<text text-anchor="middle" x="1872.6955" y="-457.3" font-family="Times,serif" font-size="14.00" fill="#000000">dsw:Token</text>
</g>
<!-- Rimg:MMNAT01_AF_NNM001001033_003.jpg&#45;&gt;Rdsw:Token -->
<g id="edge24" class="edge">
<title>Rimg:MMNAT01_AF_NNM001001033_003.jpg&#45;&gt;Rdsw:Token</title>
<path fill="none" stroke="#000000" d="M1419.1966,-441.271C1549.5273,-446.9409 1723.0157,-454.4883 1812.9484,-458.4008"/>
<polygon fill="#000000" stroke="#000000" points="1812.8241,-461.8986 1822.9668,-458.8366 1813.1284,-454.9052 1812.8241,-461.8986"/>
<text text-anchor="middle" x="1510.1955" y="-451.8" font-family="Times,serif" font-size="14.00" fill="#000000">rdf:type</text>
</g>
<!-- Rdwc:HumanObservation -->
<g id="node24" class="node">
<title>Rdwc:HumanObservation</title>
<ellipse fill="none" stroke="#0000ff" cx="1872.6955" cy="-407" rx="96.6831" ry="18"/>
<text text-anchor="middle" x="1872.6955" y="-403.3" font-family="Times,serif" font-size="14.00" fill="#000000">dwc:HumanObservation</text>
</g>
<!-- Rimg:MMNAT01_AF_NNM001001033_003.jpg&#45;&gt;Rdwc:HumanObservation -->
<g id="edge25" class="edge">
<title>Rimg:MMNAT01_AF_NNM001001033_003.jpg&#45;&gt;Rdwc:HumanObservation</title>
<path fill="none" stroke="#000000" d="M1414.6637,-425.7666C1427.5312,-425.1544 1440.3273,-424.5585 1452.6955,-424 1559.8786,-419.1598 1682.4786,-414.272 1767.4348,-410.9877"/>
<polygon fill="#000000" stroke="#000000" points="1767.7476,-414.4784 1777.6052,-410.5953 1767.4776,-407.4836 1767.7476,-414.4784"/>
<text text-anchor="middle" x="1510.1955" y="-427.8" font-family="Times,serif" font-size="14.00" fill="#000000">rdf:type</text>
</g>
<!-- Roa:Source -->
<g id="node25" class="node">
<title>Roa:Source</title>
<ellipse fill="none" stroke="#0000ff" cx="1872.6955" cy="-353" rx="46.2923" ry="18"/>
<text text-anchor="middle" x="1872.6955" y="-349.3" font-family="Times,serif" font-size="14.00" fill="#000000">oa:Source</text>
</g>
<!-- Rimg:MMNAT01_AF_NNM001001033_003.jpg&#45;&gt;Roa:Source -->
<g id="edge26" class="edge">
<title>Rimg:MMNAT01_AF_NNM001001033_003.jpg&#45;&gt;Roa:Source</title>
<path fill="none" stroke="#000000" d="M1345.4416,-418.5133C1379.2248,-412.9442 1417.6708,-406.6455 1452.6955,-401 1511.7764,-391.477 1526.3205,-387.4729 1585.6955,-380 1666.0299,-369.8892 1759.4516,-361.7743 1817.3338,-357.1708"/>
<polygon fill="#000000" stroke="#000000" points="1817.671,-360.6552 1827.3649,-356.3799 1817.1207,-353.6768 1817.671,-360.6552"/>
<text text-anchor="middle" x="1510.1955" y="-404.8" font-family="Times,serif" font-size="14.00" fill="#000000">rdf:type</text>
</g>
<!-- Rfoaf:Image -->
<g id="node26" class="node">
<title>Rfoaf:Image</title>
<ellipse fill="none" stroke="#0000ff" cx="1872.6955" cy="-299" rx="50.0912" ry="18"/>
<text text-anchor="middle" x="1872.6955" y="-295.3" font-family="Times,serif" font-size="14.00" fill="#000000">foaf:Image</text>
</g>
<!-- Rimg:MMNAT01_AF_NNM001001033_003.jpg&#45;&gt;Rfoaf:Image -->
<g id="edge27" class="edge">
<title>Rimg:MMNAT01_AF_NNM001001033_003.jpg&#45;&gt;Rfoaf:Image</title>
<path fill="none" stroke="#000000" d="M1299.6388,-416.5357C1340.1299,-401.881 1399.9456,-380.7226 1452.6955,-364 1511.2977,-345.4221 1525.2799,-337.3718 1585.6955,-326 1663.2945,-311.3938 1754.2581,-304.5358 1812.637,-301.4235"/>
<polygon fill="#000000" stroke="#000000" points="1812.9827,-304.9105 1822.7901,-300.9025 1812.6239,-297.9197 1812.9827,-304.9105"/>
<text text-anchor="middle" x="1510.1955" y="-367.8" font-family="Times,serif" font-size="14.00" fill="#000000">rdf:type</text>
</g>
</g>
</svg>
