<?xml version="1.0" encoding="UTF-8" standalone="no"?>
<!DOCTYPE svg PUBLIC "-//W3C//DTD SVG 1.1//EN"
 "http://www.w3.org/Graphics/SVG/1.1/DTD/svg11.dtd">
<!-- Generated by graphviz version 2.40.1 (20161225.0304)
 -->
<!-- Title: %3 Pages: 1 -->
<svg width="2159pt" height="976pt"
 viewBox="0.00 0.00 2158.90 975.50" xmlns="http://www.w3.org/2000/svg" xmlns:xlink="http://www.w3.org/1999/xlink">
<g id="graph0" class="graph" transform="scale(1 1) rotate(0) translate(4 971.5)">
<title>%3</title>
<polygon fill="#ffffff" stroke="transparent" points="-4,4 -4,-971.5 2154.895,-971.5 2154.895,4 -4,4"/>
<text text-anchor="middle" x="1075.4475" y="-218.8" font-family="Times,serif" font-size="14.00" fill="#000000">Model:</text>
<text text-anchor="middle" x="1075.4475" y="-203.8" font-family="Times,serif" font-size="14.00" fill="#000000">(Unknown)</text>
<text text-anchor="middle" x="1075.4475" y="-172.8" font-family="Times,serif" font-size="14.00" fill="#000000">Namespaces:</text>
<text text-anchor="middle" x="1075.4475" y="-157.8" font-family="Times,serif" font-size="14.00" fill="#000000">dcmitype: http://purl.org/dc/dcmitype/</text>
<text text-anchor="middle" x="1075.4475" y="-142.8" font-family="Times,serif" font-size="14.00" fill="#000000">dcterms: http://purl.org/dc/terms/</text>
<text text-anchor="middle" x="1075.4475" y="-127.8" font-family="Times,serif" font-size="14.00" fill="#000000">dsw: http://purl.org/dsw/</text>
<text text-anchor="middle" x="1075.4475" y="-112.8" font-family="Times,serif" font-size="14.00" fill="#000000">dwc: http://rs.tdwg.org/dwc/terms/</text>
<text text-anchor="middle" x="1075.4475" y="-97.8" font-family="Times,serif" font-size="14.00" fill="#000000">foaf: http://xmlns.com/foaf/0.1/</text>
<text text-anchor="middle" x="1075.4475" y="-82.8" font-family="Times,serif" font-size="14.00" fill="#000000">img: http://localhost:8080/semanticAnnotator/files/</text>
<text text-anchor="middle" x="1075.4475" y="-67.8" font-family="Times,serif" font-size="14.00" fill="#000000">iso: http://iso639&#45;3.sil.org/code/</text>
<text text-anchor="middle" x="1075.4475" y="-52.8" font-family="Times,serif" font-size="14.00" fill="#000000">mf: http://www.w3.org/TR/media&#45;frags/</text>
<text text-anchor="middle" x="1075.4475" y="-37.8" font-family="Times,serif" font-size="14.00" fill="#000000">oa: http://www.w3.org/ns/oa#</text>
<text text-anchor="middle" x="1075.4475" y="-22.8" font-family="Times,serif" font-size="14.00" fill="#000000">orcid: http://orcid.org/</text>
<text text-anchor="middle" x="1075.4475" y="-7.8" font-family="Times,serif" font-size="14.00" fill="#000000">rdf: http://www.w3.org/1999/02/22&#45;rdf&#45;syntax&#45;ns#</text>
<!-- Rhttp://localhost:8080/rdf/nc/annotation/c30e96b6&#45;e015&#45;4830&#45;add3&#45;b3850cd2819d -->
<g id="node1" class="node">
<title>Rhttp://localhost:8080/rdf/nc/annotation/c30e96b6&#45;e015&#45;4830&#45;add3&#45;b3850cd2819d</title>
<ellipse fill="none" stroke="#0000ff" cx="298.3235" cy="-732.5" rx="298.1472" ry="18"/>
<text text-anchor="middle" x="298.3235" y="-728.8" font-family="Times,serif" font-size="14.00" fill="#000000">http://localhost:8080/rdf/nc/annotation/c30e96b6&#45;e015&#45;4830&#45;add3&#45;b3850cd2819d</text>
</g>
<!-- Roa:Annotation -->
<g id="node2" class="node">
<title>Roa:Annotation</title>
<ellipse fill="none" stroke="#0000ff" cx="831.1373" cy="-865.5" rx="61.1893" ry="18"/>
<text text-anchor="middle" x="831.1373" y="-861.8" font-family="Times,serif" font-size="14.00" fill="#000000">oa:Annotation</text>
</g>
<!-- Rhttp://localhost:8080/rdf/nc/annotation/c30e96b6&#45;e015&#45;4830&#45;add3&#45;b3850cd2819d&#45;&gt;Roa:Annotation -->
<g id="edge1" class="edge">
<title>Rhttp://localhost:8080/rdf/nc/annotation/c30e96b6&#45;e015&#45;4830&#45;add3&#45;b3850cd2819d&#45;&gt;Roa:Annotation</title>
<path fill="none" stroke="#000000" d="M367.7902,-750.0769C451.4553,-771.2136 596.2728,-807.6954 720.6471,-838.5 737.9518,-842.786 756.7928,-847.4069 773.9343,-851.5936"/>
<polygon fill="#000000" stroke="#000000" points="773.2614,-855.032 783.8061,-854.0026 774.9209,-848.2316 773.2614,-855.032"/>
<text text-anchor="middle" x="658.6471" y="-836.3" font-family="Times,serif" font-size="14.00" fill="#000000">rdf:type</text>
</g>
<!-- Rorcid:0000&#45;0002&#45;2146&#45;4803 -->
<g id="node3" class="node">
<title>Rorcid:0000&#45;0002&#45;2146&#45;4803</title>
<ellipse fill="none" stroke="#0000ff" cx="831.1373" cy="-811.5" rx="110.4804" ry="18"/>
<text text-anchor="middle" x="831.1373" y="-807.8" font-family="Times,serif" font-size="14.00" fill="#000000">orcid:0000&#45;0002&#45;2146&#45;4803</text>
</g>
<!-- Rhttp://localhost:8080/rdf/nc/annotation/c30e96b6&#45;e015&#45;4830&#45;add3&#45;b3850cd2819d&#45;&gt;Rorcid:0000&#45;0002&#45;2146&#45;4803 -->
<g id="edge2" class="edge">
<title>Rhttp://localhost:8080/rdf/nc/annotation/c30e96b6&#45;e015&#45;4830&#45;add3&#45;b3850cd2819d&#45;&gt;Rorcid:0000&#45;0002&#45;2146&#45;4803</title>
<path fill="none" stroke="#000000" d="M410.9939,-749.2056C508.5744,-763.6738 647.99,-784.3449 739.0214,-797.842"/>
<polygon fill="#000000" stroke="#000000" points="738.645,-801.3244 749.0502,-799.329 739.6717,-794.4001 738.645,-801.3244"/>
<text text-anchor="middle" x="658.6471" y="-795.3" font-family="Times,serif" font-size="14.00" fill="#000000">dcterms:creator</text>
</g>
<!-- L2021&#45;01&#45;12T14:23:11.646Z|Datatype: dcterms:W3CDTF -->
<g id="node4" class="node">
<title>L2021&#45;01&#45;12T14:23:11.646Z|Datatype: dcterms:W3CDTF</title>
<polygon fill="none" stroke="#000000" points="743.6373,-728.5 743.6373,-774.5 918.6373,-774.5 918.6373,-728.5 743.6373,-728.5"/>
<text text-anchor="middle" x="831.1373" y="-759.3" font-family="Times,serif" font-size="14.00" fill="#000000">2021&#45;01&#45;12T14:23:11.646Z</text>
<polyline fill="none" stroke="#000000" points="743.6373,-751.5 918.6373,-751.5 "/>
<text text-anchor="middle" x="831.1373" y="-736.3" font-family="Times,serif" font-size="14.00" fill="#000000">Datatype: dcterms:W3CDTF</text>
</g>
<!-- Rhttp://localhost:8080/rdf/nc/annotation/c30e96b6&#45;e015&#45;4830&#45;add3&#45;b3850cd2819d&#45;&gt;L2021&#45;01&#45;12T14:23:11.646Z|Datatype: dcterms:W3CDTF -->
<g id="edge3" class="edge">
<title>Rhttp://localhost:8080/rdf/nc/annotation/c30e96b6&#45;e015&#45;4830&#45;add3&#45;b3850cd2819d&#45;&gt;L2021&#45;01&#45;12T14:23:11.646Z|Datatype: dcterms:W3CDTF</title>
<path fill="none" stroke="#000000" d="M555.3662,-741.6661C618.7272,-743.9255 682.7952,-746.2102 733.2106,-748.008"/>
<polygon fill="#000000" stroke="#000000" points="733.313,-751.5137 743.4314,-748.3724 733.5625,-744.5182 733.313,-751.5137"/>
<text text-anchor="middle" x="658.6471" y="-751.3" font-family="Times,serif" font-size="14.00" fill="#000000">dcterms:date</text>
</g>
<!-- B_:node1evfesn2mx16 -->
<g id="node5" class="node">
<title>B_:node1evfesn2mx16</title>
<ellipse fill="none" stroke="#00ff00" cx="831.1373" cy="-691.5" rx="18" ry="18"/>
</g>
<!-- Rhttp://localhost:8080/rdf/nc/annotation/c30e96b6&#45;e015&#45;4830&#45;add3&#45;b3850cd2819d&#45;&gt;B_:node1evfesn2mx16 -->
<g id="edge4" class="edge">
<title>Rhttp://localhost:8080/rdf/nc/annotation/c30e96b6&#45;e015&#45;4830&#45;add3&#45;b3850cd2819d&#45;&gt;B_:node1evfesn2mx16</title>
<path fill="none" stroke="#000000" d="M482.4339,-718.3327C600.7994,-709.2245 743.1996,-698.2668 802.7713,-693.6828"/>
<polygon fill="#000000" stroke="#000000" points="803.2043,-697.1599 812.9062,-692.9029 802.6672,-690.1805 803.2043,-697.1599"/>
<text text-anchor="middle" x="658.6471" y="-711.3" font-family="Times,serif" font-size="14.00" fill="#000000">oa:hasBody</text>
</g>
<!-- B_:node1evfesn2mx15 -->
<g id="node13" class="node">
<title>B_:node1evfesn2mx15</title>
<ellipse fill="none" stroke="#00ff00" cx="831.1373" cy="-520.5" rx="18" ry="18"/>
</g>
<!-- Rhttp://localhost:8080/rdf/nc/annotation/c30e96b6&#45;e015&#45;4830&#45;add3&#45;b3850cd2819d&#45;&gt;B_:node1evfesn2mx15 -->
<g id="edge12" class="edge">
<title>Rhttp://localhost:8080/rdf/nc/annotation/c30e96b6&#45;e015&#45;4830&#45;add3&#45;b3850cd2819d&#45;&gt;B_:node1evfesn2mx15</title>
<path fill="none" stroke="#000000" d="M343.2917,-714.6077C450.5754,-671.9208 718.9474,-565.139 804.4942,-531.101"/>
<polygon fill="#000000" stroke="#000000" points="805.9997,-534.2689 813.9973,-527.3198 803.4118,-527.7648 805.9997,-534.2689"/>
<text text-anchor="middle" x="658.6471" y="-605.3" font-family="Times,serif" font-size="14.00" fill="#000000">oa:hasTarget</text>
</g>
<!-- Roa:describing -->
<g id="node20" class="node">
<title>Roa:describing</title>
<ellipse fill="none" stroke="#0000ff" cx="831.1373" cy="-466.5" rx="57.6901" ry="18"/>
<text text-anchor="middle" x="831.1373" y="-462.8" font-family="Times,serif" font-size="14.00" fill="#000000">oa:describing</text>
</g>
<!-- Rhttp://localhost:8080/rdf/nc/annotation/c30e96b6&#45;e015&#45;4830&#45;add3&#45;b3850cd2819d&#45;&gt;Roa:describing -->
<g id="edge20" class="edge">
<title>Rhttp://localhost:8080/rdf/nc/annotation/c30e96b6&#45;e015&#45;4830&#45;add3&#45;b3850cd2819d&#45;&gt;Roa:describing</title>
<path fill="none" stroke="#000000" d="M324.2141,-714.4375C388.4091,-670.4319 561.2654,-556.6652 720.6471,-493.5 736.5336,-487.2039 754.3055,-482.0792 770.8728,-478.0533"/>
<polygon fill="#000000" stroke="#000000" points="772.0624,-481.3698 781.0049,-475.688 770.471,-474.553 772.0624,-481.3698"/>
<text text-anchor="middle" x="658.6471" y="-541.3" font-family="Times,serif" font-size="14.00" fill="#000000">oa:motivatedBy</text>
</g>
<!-- Rfoaf:Person -->
<g id="node21" class="node">
<title>Rfoaf:Person</title>
<ellipse fill="none" stroke="#0000ff" cx="1257.2612" cy="-944.5" rx="51.1914" ry="18"/>
<text text-anchor="middle" x="1257.2612" y="-940.8" font-family="Times,serif" font-size="14.00" fill="#000000">foaf:Person</text>
</g>
<!-- Rorcid:0000&#45;0002&#45;2146&#45;4803&#45;&gt;Rfoaf:Person -->
<g id="edge21" class="edge">
<title>Rorcid:0000&#45;0002&#45;2146&#45;4803&#45;&gt;Rfoaf:Person</title>
<path fill="none" stroke="#000000" d="M917.8279,-822.6701C926.6363,-826.6001 934.8262,-831.7572 941.6275,-838.5 964.7455,-861.4196 935.1486,-888.0398 959.6275,-909.5 1026.3797,-968.0205 1136.3648,-964.0815 1202.3018,-954.945"/>
<polygon fill="#000000" stroke="#000000" points="1203.1101,-958.3638 1212.4927,-953.4428 1202.0892,-951.4386 1203.1101,-958.3638"/>
<text text-anchor="middle" x="1008.1275" y="-956.3" font-family="Times,serif" font-size="14.00" fill="#000000">rdf:type</text>
</g>
<!-- Rdsw:Token -->
<g id="node6" class="node">
<title>Rdsw:Token</title>
<ellipse fill="none" stroke="#0000ff" cx="1870.895" cy="-663.5" rx="50.0912" ry="18"/>
<text text-anchor="middle" x="1870.895" y="-659.8" font-family="Times,serif" font-size="14.00" fill="#000000">dsw:Token</text>
</g>
<!-- B_:node1evfesn2mx16&#45;&gt;Rdsw:Token -->
<g id="edge5" class="edge">
<title>B_:node1evfesn2mx16&#45;&gt;Rdsw:Token</title>
<path fill="none" stroke="#000000" d="M849.1343,-689.683C889.4534,-685.7031 990.1213,-676.2705 1074.6275,-672.5 1348.9477,-660.2605 1676.9225,-661.5957 1810.1636,-662.8091"/>
<polygon fill="#000000" stroke="#000000" points="1810.5226,-666.3125 1820.5552,-662.9071 1810.5887,-659.3128 1810.5226,-666.3125"/>
<text text-anchor="middle" x="1257.2612" y="-676.3" font-family="Times,serif" font-size="14.00" fill="#000000">rdf:type</text>
</g>
<!-- Rdwc:MeasurementOrFact -->
<g id="node7" class="node">
<title>Rdwc:MeasurementOrFact</title>
<ellipse fill="none" stroke="#0000ff" cx="1257.2612" cy="-609.5" rx="100.9827" ry="18"/>
<text text-anchor="middle" x="1257.2612" y="-605.8" font-family="Times,serif" font-size="14.00" fill="#000000">dwc:MeasurementOrFact</text>
</g>
<!-- B_:node1evfesn2mx16&#45;&gt;Rdwc:MeasurementOrFact -->
<g id="edge6" class="edge">
<title>B_:node1evfesn2mx16&#45;&gt;Rdwc:MeasurementOrFact</title>
<path fill="none" stroke="#000000" d="M846.7423,-682.5108C870.3236,-669.4137 916.8371,-645.4565 959.6275,-634.5 1020.1664,-618.999 1089.6666,-612.5521 1146.2746,-610.07"/>
<polygon fill="#000000" stroke="#000000" points="1146.4761,-613.5648 1156.3269,-609.6646 1146.194,-606.5705 1146.4761,-613.5648"/>
<text text-anchor="middle" x="1008.1275" y="-638.3" font-family="Times,serif" font-size="14.00" fill="#000000">rdf:type</text>
</g>
<!-- Roa:TextualBody -->
<g id="node8" class="node">
<title>Roa:TextualBody</title>
<ellipse fill="none" stroke="#0000ff" cx="1257.2612" cy="-890.5" rx="67.6881" ry="18"/>
<text text-anchor="middle" x="1257.2612" y="-886.8" font-family="Times,serif" font-size="14.00" fill="#000000">oa:TextualBody</text>
</g>
<!-- B_:node1evfesn2mx16&#45;&gt;Roa:TextualBody -->
<g id="edge7" class="edge">
<title>B_:node1evfesn2mx16&#45;&gt;Roa:TextualBody</title>
<path fill="none" stroke="#000000" d="M849.3877,-690.3346C874.0716,-689.8395 917.7501,-692.9755 941.6275,-718.5 973.3745,-752.4371 929.8028,-785.8616 959.6275,-821.5 994.5488,-863.2287 1021.8853,-850.1186 1074.6275,-863.5 1109.9619,-872.4648 1149.9483,-878.7932 1183.4787,-883.0583"/>
<polygon fill="#000000" stroke="#000000" points="1183.3115,-886.5642 1193.6652,-884.3163 1184.1696,-879.6169 1183.3115,-886.5642"/>
<text text-anchor="middle" x="1008.1275" y="-862.3" font-family="Times,serif" font-size="14.00" fill="#000000">rdf:type</text>
</g>
<!-- Ltext/plain -->
<g id="node9" class="node">
<title>Ltext/plain</title>
<polygon fill="none" stroke="#000000" points="1223.2612,-817.5 1223.2612,-853.5 1291.2612,-853.5 1291.2612,-817.5 1223.2612,-817.5"/>
<text text-anchor="middle" x="1257.2612" y="-831.8" font-family="Times,serif" font-size="14.00" fill="#000000">text/plain</text>
</g>
<!-- B_:node1evfesn2mx16&#45;&gt;Ltext/plain -->
<g id="edge8" class="edge">
<title>B_:node1evfesn2mx16&#45;&gt;Ltext/plain</title>
<path fill="none" stroke="#000000" d="M849.2144,-690.9299C873.2985,-691.1627 915.8593,-695.1791 941.6275,-718.5 959.4494,-734.6294 942.4603,-752.6754 959.6275,-769.5 998.072,-807.1775 1022.2858,-794.9331 1074.6275,-807.5 1121.2426,-818.692 1175.6739,-826.3591 1212.9087,-830.8026"/>
<polygon fill="#000000" stroke="#000000" points="1212.5962,-834.2898 1222.9341,-831.9706 1213.4063,-827.3368 1212.5962,-834.2898"/>
<text text-anchor="middle" x="1008.1275" y="-806.3" font-family="Times,serif" font-size="14.00" fill="#000000">dcterms:format</text>
</g>
<!-- Riso:lat -->
<g id="node10" class="node">
<title>Riso:lat</title>
<ellipse fill="none" stroke="#0000ff" cx="1257.2612" cy="-780.5" rx="32.4942" ry="18"/>
<text text-anchor="middle" x="1257.2612" y="-776.8" font-family="Times,serif" font-size="14.00" fill="#000000">iso:lat</text>
</g>
<!-- B_:node1evfesn2mx16&#45;&gt;Riso:lat -->
<g id="edge9" class="edge">
<title>B_:node1evfesn2mx16&#45;&gt;Riso:lat</title>
<path fill="none" stroke="#000000" d="M848.9397,-695.0965C870.9421,-699.7135 909.4218,-708.351 941.6275,-718.5 949.8142,-721.0799 951.4291,-722.9572 959.6275,-725.5 1048.4013,-753.0338 1156.5895,-768.776 1214.9837,-775.8767"/>
<polygon fill="#000000" stroke="#000000" points="1214.6048,-779.3562 1224.9484,-777.0629 1215.4323,-772.4053 1214.6048,-779.3562"/>
<text text-anchor="middle" x="1008.1275" y="-754.3" font-family="Times,serif" font-size="14.00" fill="#000000">dcterms:language</text>
</g>
<!-- Rimg:MMNAT01_AF_NNM001001033_003.jpg -->
<g id="node11" class="node">
<title>Rimg:MMNAT01_AF_NNM001001033_003.jpg</title>
<ellipse fill="none" stroke="#0000ff" cx="1257.2612" cy="-555.5" rx="182.7677" ry="18"/>
<text text-anchor="middle" x="1257.2612" y="-551.8" font-family="Times,serif" font-size="14.00" fill="#000000">img:MMNAT01_AF_NNM001001033_003.jpg</text>
</g>
<!-- B_:node1evfesn2mx16&#45;&gt;Rimg:MMNAT01_AF_NNM001001033_003.jpg -->
<g id="edge10" class="edge">
<title>B_:node1evfesn2mx16&#45;&gt;Rimg:MMNAT01_AF_NNM001001033_003.jpg</title>
<path fill="none" stroke="#000000" d="M844.0566,-678.757C865.8381,-658.1136 912.1573,-617.7358 959.6275,-598.5 999.58,-582.3104 1044.7226,-572.091 1087.5512,-565.6748"/>
<polygon fill="#000000" stroke="#000000" points="1088.1132,-569.1301 1097.5139,-564.2436 1087.1178,-562.2012 1088.1132,-569.1301"/>
<text text-anchor="middle" x="1008.1275" y="-602.3" font-family="Times,serif" font-size="14.00" fill="#000000">dsw:derivedFrom</text>
</g>
<!-- LDentibus|Language: lat -->
<g id="node12" class="node">
<title>LDentibus|Language: lat</title>
<polygon fill="none" stroke="#000000" points="1211.7612,-697.5 1211.7612,-743.5 1302.7612,-743.5 1302.7612,-697.5 1211.7612,-697.5"/>
<text text-anchor="middle" x="1257.2612" y="-728.3" font-family="Times,serif" font-size="14.00" fill="#000000">Dentibus</text>
<polyline fill="none" stroke="#000000" points="1211.7612,-720.5 1302.7612,-720.5 "/>
<text text-anchor="middle" x="1257.2612" y="-705.3" font-family="Times,serif" font-size="14.00" fill="#000000">Language: lat</text>
</g>
<!-- B_:node1evfesn2mx16&#45;&gt;LDentibus|Language: lat -->
<g id="edge11" class="edge">
<title>B_:node1evfesn2mx16&#45;&gt;LDentibus|Language: lat</title>
<path fill="none" stroke="#000000" d="M849.1751,-692.7276C909.2419,-696.8154 1104.1648,-710.081 1201.2516,-716.6882"/>
<polygon fill="#000000" stroke="#000000" points="1201.2488,-720.1961 1211.4634,-717.3832 1201.7241,-713.2122 1201.2488,-720.1961"/>
<text text-anchor="middle" x="1008.1275" y="-710.3" font-family="Times,serif" font-size="14.00" fill="#000000">rdf:value</text>
</g>
<!-- Rimg:MMNAT01_AF_NNM001001033_003.jpg&#45;&gt;Rdsw:Token -->
<g id="edge23" class="edge">
<title>Rimg:MMNAT01_AF_NNM001001033_003.jpg&#45;&gt;Rdsw:Token</title>
<path fill="none" stroke="#000000" d="M1400.4703,-566.8021C1414.2245,-570.7784 1427.6087,-575.909 1439.895,-582.5 1450.4333,-588.1532 1447.6634,-596.3093 1457.895,-602.5 1510.0956,-634.0843 1530.7959,-625.9852 1590.895,-636.5 1666.185,-649.6726 1754.07,-656.8304 1811.009,-660.4043"/>
<polygon fill="#000000" stroke="#000000" points="1811.076,-663.9148 1821.2707,-661.0306 1811.5025,-656.9278 1811.076,-663.9148"/>
<text text-anchor="middle" x="1515.395" y="-637.3" font-family="Times,serif" font-size="14.00" fill="#000000">rdf:type</text>
</g>
<!-- Rdcmitype:StillImage -->
<g id="node22" class="node">
<title>Rdcmitype:StillImage</title>
<ellipse fill="none" stroke="#0000ff" cx="1870.895" cy="-609.5" rx="83.3857" ry="18"/>
<text text-anchor="middle" x="1870.895" y="-605.8" font-family="Times,serif" font-size="14.00" fill="#000000">dcmitype:StillImage</text>
</g>
<!-- Rimg:MMNAT01_AF_NNM001001033_003.jpg&#45;&gt;Rdcmitype:StillImage -->
<g id="edge22" class="edge">
<title>Rimg:MMNAT01_AF_NNM001001033_003.jpg&#45;&gt;Rdcmitype:StillImage</title>
<path fill="none" stroke="#000000" d="M1392.1603,-567.6497C1414.1303,-569.6149 1436.645,-571.6206 1457.895,-573.5 1570.2484,-583.4367 1699.8136,-594.6984 1783.4141,-601.9391"/>
<polygon fill="#000000" stroke="#000000" points="1783.3656,-605.448 1793.6303,-602.8238 1783.9696,-598.4741 1783.3656,-605.448"/>
<text text-anchor="middle" x="1515.395" y="-587.3" font-family="Times,serif" font-size="14.00" fill="#000000">rdf:type</text>
</g>
<!-- Rdwc:HumanObservation -->
<g id="node23" class="node">
<title>Rdwc:HumanObservation</title>
<ellipse fill="none" stroke="#0000ff" cx="1870.895" cy="-555.5" rx="96.6831" ry="18"/>
<text text-anchor="middle" x="1870.895" y="-551.8" font-family="Times,serif" font-size="14.00" fill="#000000">dwc:HumanObservation</text>
</g>
<!-- Rimg:MMNAT01_AF_NNM001001033_003.jpg&#45;&gt;Rdwc:HumanObservation -->
<g id="edge24" class="edge">
<title>Rimg:MMNAT01_AF_NNM001001033_003.jpg&#45;&gt;Rdwc:HumanObservation</title>
<path fill="none" stroke="#000000" d="M1440.1252,-555.5C1545.5608,-555.5 1674.4725,-555.5 1763.6507,-555.5"/>
<polygon fill="#000000" stroke="#000000" points="1763.7807,-559.0001 1773.7807,-555.5 1763.7807,-552.0001 1763.7807,-559.0001"/>
<text text-anchor="middle" x="1515.395" y="-559.3" font-family="Times,serif" font-size="14.00" fill="#000000">rdf:type</text>
</g>
<!-- Roa:Source -->
<g id="node24" class="node">
<title>Roa:Source</title>
<ellipse fill="none" stroke="#0000ff" cx="1870.895" cy="-501.5" rx="46.2923" ry="18"/>
<text text-anchor="middle" x="1870.895" y="-497.8" font-family="Times,serif" font-size="14.00" fill="#000000">oa:Source</text>
</g>
<!-- Rimg:MMNAT01_AF_NNM001001033_003.jpg&#45;&gt;Roa:Source -->
<g id="edge25" class="edge">
<title>Rimg:MMNAT01_AF_NNM001001033_003.jpg&#45;&gt;Roa:Source</title>
<path fill="none" stroke="#000000" d="M1388.1021,-542.9213C1411.3458,-540.7403 1435.3309,-538.5245 1457.895,-536.5 1585.8171,-525.0228 1736.1228,-512.536 1815.4164,-506.0265"/>
<polygon fill="#000000" stroke="#000000" points="1815.9784,-509.4923 1825.6588,-505.1865 1815.4062,-502.5157 1815.9784,-509.4923"/>
<text text-anchor="middle" x="1515.395" y="-540.3" font-family="Times,serif" font-size="14.00" fill="#000000">rdf:type</text>
</g>
<!-- Rfoaf:Image -->
<g id="node25" class="node">
<title>Rfoaf:Image</title>
<ellipse fill="none" stroke="#0000ff" cx="1870.895" cy="-447.5" rx="50.0912" ry="18"/>
<text text-anchor="middle" x="1870.895" y="-443.8" font-family="Times,serif" font-size="14.00" fill="#000000">foaf:Image</text>
</g>
<!-- Rimg:MMNAT01_AF_NNM001001033_003.jpg&#45;&gt;Rfoaf:Image -->
<g id="edge26" class="edge">
<title>Rimg:MMNAT01_AF_NNM001001033_003.jpg&#45;&gt;Rfoaf:Image</title>
<path fill="none" stroke="#000000" d="M1400.4703,-544.1979C1414.2245,-540.2216 1427.6087,-535.091 1439.895,-528.5 1450.4333,-522.8468 1447.6634,-514.6907 1457.895,-508.5 1510.0956,-476.9157 1530.7959,-485.0148 1590.895,-474.5 1666.185,-461.3274 1754.07,-454.1696 1811.009,-450.5957"/>
<polygon fill="#000000" stroke="#000000" points="1811.5025,-454.0722 1821.2707,-449.9694 1811.076,-447.0852 1811.5025,-454.0722"/>
<text text-anchor="middle" x="1515.395" y="-512.3" font-family="Times,serif" font-size="14.00" fill="#000000">rdf:type</text>
</g>
<!-- B_:node1evfesn2mx15&#45;&gt;Rimg:MMNAT01_AF_NNM001001033_003.jpg -->
<g id="edge19" class="edge">
<title>B_:node1evfesn2mx15&#45;&gt;Rimg:MMNAT01_AF_NNM001001033_003.jpg</title>
<path fill="none" stroke="#000000" d="M849.1751,-521.9816C893.1615,-525.5944 1009.465,-535.1471 1106.7085,-543.1342"/>
<polygon fill="#000000" stroke="#000000" points="1106.704,-546.6456 1116.957,-543.976 1107.2771,-539.6691 1106.704,-546.6456"/>
<text text-anchor="middle" x="1008.1275" y="-542.3" font-family="Times,serif" font-size="14.00" fill="#000000">oa:hasSource</text>
</g>
<!-- Roa:Target -->
<g id="node14" class="node">
<title>Roa:Target</title>
<ellipse fill="none" stroke="#0000ff" cx="1257.2612" cy="-501.5" rx="44.393" ry="18"/>
<text text-anchor="middle" x="1257.2612" y="-497.8" font-family="Times,serif" font-size="14.00" fill="#000000">oa:Target</text>
</g>
<!-- B_:node1evfesn2mx15&#45;&gt;Roa:Target -->
<g id="edge13" class="edge">
<title>B_:node1evfesn2mx15&#45;&gt;Roa:Target</title>
<path fill="none" stroke="#000000" d="M848.9323,-517.2266C873.6592,-512.8571 919.8592,-505.3391 959.6275,-502.5 1044.2302,-496.46 1142.7046,-497.7545 1202.4797,-499.461"/>
<polygon fill="#000000" stroke="#000000" points="1202.7161,-502.9696 1212.8167,-499.7713 1202.9263,-495.9727 1202.7161,-502.9696"/>
<text text-anchor="middle" x="1008.1275" y="-506.3" font-family="Times,serif" font-size="14.00" fill="#000000">rdf:type</text>
</g>
<!-- Limage/jpeg -->
<g id="node15" class="node">
<title>Limage/jpeg</title>
<polygon fill="none" stroke="#000000" points="1218.7612,-428.5 1218.7612,-464.5 1295.7612,-464.5 1295.7612,-428.5 1218.7612,-428.5"/>
<text text-anchor="middle" x="1257.2612" y="-442.8" font-family="Times,serif" font-size="14.00" fill="#000000">image/jpeg</text>
</g>
<!-- B_:node1evfesn2mx15&#45;&gt;Limage/jpeg -->
<g id="edge14" class="edge">
<title>B_:node1evfesn2mx15&#45;&gt;Limage/jpeg</title>
<path fill="none" stroke="#000000" d="M849.0587,-518.2857C871.5143,-515.0321 910.7915,-507.7383 941.6275,-493.5 950.5867,-489.3631 950.4256,-484.065 959.6275,-480.5 1042.8346,-448.264 1148.2012,-443.9657 1208.6489,-444.6366"/>
<polygon fill="#000000" stroke="#000000" points="1208.6206,-448.1365 1218.6759,-444.7984 1208.7337,-441.1374 1208.6206,-448.1365"/>
<text text-anchor="middle" x="1008.1275" y="-484.3" font-family="Times,serif" font-size="14.00" fill="#000000">dcterms:format</text>
</g>
<!-- B_:node1evfesn2mx18 -->
<g id="node16" class="node">
<title>B_:node1evfesn2mx18</title>
<ellipse fill="none" stroke="#00ff00" cx="1257.2612" cy="-365.5" rx="18" ry="18"/>
</g>
<!-- B_:node1evfesn2mx15&#45;&gt;B_:node1evfesn2mx18 -->
<g id="edge15" class="edge">
<title>B_:node1evfesn2mx15&#45;&gt;B_:node1evfesn2mx18</title>
<path fill="none" stroke="#000000" d="M849.3118,-521.1762C873.5063,-521.0636 916.1918,-517.1831 941.6275,-493.5 960.7607,-475.685 940.4735,-455.2928 959.6275,-437.5 1036.1049,-366.4574 1170.3532,-362.0366 1228.7667,-363.8339"/>
<polygon fill="#000000" stroke="#000000" points="1228.9492,-367.3438 1239.08,-364.2427 1229.2266,-360.3493 1228.9492,-367.3438"/>
<text text-anchor="middle" x="1008.1275" y="-441.3" font-family="Times,serif" font-size="14.00" fill="#000000">oa:hasSelector</text>
</g>
<!-- Roa:FragmentSelector -->
<g id="node17" class="node">
<title>Roa:FragmentSelector</title>
<ellipse fill="none" stroke="#0000ff" cx="1870.895" cy="-393.5" rx="84.485" ry="18"/>
<text text-anchor="middle" x="1870.895" y="-389.8" font-family="Times,serif" font-size="14.00" fill="#000000">oa:FragmentSelector</text>
</g>
<!-- B_:node1evfesn2mx18&#45;&gt;Roa:FragmentSelector -->
<g id="edge16" class="edge">
<title>B_:node1evfesn2mx18&#45;&gt;Roa:FragmentSelector</title>
<path fill="none" stroke="#000000" d="M1275.2938,-366.3228C1348.9278,-369.6827 1629.9111,-382.5039 1778.1156,-389.2665"/>
<polygon fill="#000000" stroke="#000000" points="1777.9679,-392.7633 1788.1171,-389.7229 1778.2871,-385.7706 1777.9679,-392.7633"/>
<text text-anchor="middle" x="1515.395" y="-383.3" font-family="Times,serif" font-size="14.00" fill="#000000">rdf:type</text>
</g>
<!-- Rmf: -->
<g id="node18" class="node">
<title>Rmf:</title>
<ellipse fill="none" stroke="#0000ff" cx="1870.895" cy="-339.5" rx="27" ry="18"/>
<text text-anchor="middle" x="1870.895" y="-335.8" font-family="Times,serif" font-size="14.00" fill="#000000">mf:</text>
</g>
<!-- B_:node1evfesn2mx18&#45;&gt;Rmf: -->
<g id="edge17" class="edge">
<title>B_:node1evfesn2mx18&#45;&gt;Rmf:</title>
<path fill="none" stroke="#000000" d="M1275.245,-364.671C1310.3552,-363.0575 1390.4892,-359.3991 1457.895,-356.5 1596.331,-350.5459 1760.889,-343.9024 1833.4088,-340.9967"/>
<polygon fill="#000000" stroke="#000000" points="1833.9816,-344.4766 1843.8335,-340.5793 1833.7015,-337.4822 1833.9816,-344.4766"/>
<text text-anchor="middle" x="1515.395" y="-360.3" font-family="Times,serif" font-size="14.00" fill="#000000">dcterms:conformsTo</text>
</g>
<!-- Lxywh=0.5366845889070635,0.2939686187699841,0.04048369061255663,0.028409607447408114 -->
<g id="node19" class="node">
<title>Lxywh=0.5366845889070635,0.2939686187699841,0.04048369061255663,0.028409607447408114</title>
<polygon fill="none" stroke="#000000" points="1590.895,-266.5 1590.895,-302.5 2150.895,-302.5 2150.895,-266.5 1590.895,-266.5"/>
<text text-anchor="middle" x="1870.895" y="-280.8" font-family="Times,serif" font-size="14.00" fill="#000000">xywh=0.5366845889070635,0.2939686187699841,0.04048369061255663,0.028409607447408114</text>
</g>
<!-- B_:node1evfesn2mx18&#45;&gt;Lxywh=0.5366845889070635,0.2939686187699841,0.04048369061255663,0.028409607447408114 -->
<g id="edge18" class="edge">
<title>B_:node1evfesn2mx18&#45;&gt;Lxywh=0.5366845889070635,0.2939686187699841,0.04048369061255663,0.028409607447408114</title>
<path fill="none" stroke="#000000" d="M1275.2445,-362.6221C1310.3538,-357.0057 1390.4863,-344.1974 1457.895,-333.5 1516.9989,-324.1205 1531.5422,-320.1471 1590.895,-312.5 1615.2768,-309.3586 1640.8918,-306.3704 1666.3133,-303.5964"/>
<polygon fill="#000000" stroke="#000000" points="1666.8576,-307.0581 1676.4233,-302.5032 1666.105,-300.0986 1666.8576,-307.0581"/>
<text text-anchor="middle" x="1515.395" y="-337.3" font-family="Times,serif" font-size="14.00" fill="#000000">rdf:value</text>
</g>
</g>
</svg>
