<?xml version="1.0" encoding="UTF-8" standalone="no"?>
<!DOCTYPE svg PUBLIC "-//W3C//DTD SVG 1.1//EN"
 "http://www.w3.org/Graphics/SVG/1.1/DTD/svg11.dtd">
<!-- Generated by graphviz version 2.40.1 (20161225.0304)
 -->
<!-- Title: %3 Pages: 1 -->
<svg width="2168pt" height="1074pt"
 viewBox="0.00 0.00 2167.70 1074.00" xmlns="http://www.w3.org/2000/svg" xmlns:xlink="http://www.w3.org/1999/xlink">
<g id="graph0" class="graph" transform="scale(1 1) rotate(0) translate(4 1070)">
<title>%3</title>
<polygon fill="#ffffff" stroke="transparent" points="-4,4 -4,-1070 2163.6955,-1070 2163.6955,4 -4,4"/>
<text text-anchor="middle" x="1079.8478" y="-233.8" font-family="Times,serif" font-size="14.00" fill="#000000">Model:</text>
<text text-anchor="middle" x="1079.8478" y="-218.8" font-family="Times,serif" font-size="14.00" fill="#000000">(Unknown)</text>
<text text-anchor="middle" x="1079.8478" y="-187.8" font-family="Times,serif" font-size="14.00" fill="#000000">Namespaces:</text>
<text text-anchor="middle" x="1079.8478" y="-172.8" font-family="Times,serif" font-size="14.00" fill="#000000">dcmitype: http://purl.org/dc/dcmitype/</text>
<text text-anchor="middle" x="1079.8478" y="-157.8" font-family="Times,serif" font-size="14.00" fill="#000000">dcterms: http://purl.org/dc/terms/</text>
<text text-anchor="middle" x="1079.8478" y="-142.8" font-family="Times,serif" font-size="14.00" fill="#000000">dsw: http://purl.org/dsw/</text>
<text text-anchor="middle" x="1079.8478" y="-127.8" font-family="Times,serif" font-size="14.00" fill="#000000">dwc: http://rs.tdwg.org/dwc/terms/</text>
<text text-anchor="middle" x="1079.8478" y="-112.8" font-family="Times,serif" font-size="14.00" fill="#000000">foaf: http://xmlns.com/foaf/0.1/</text>
<text text-anchor="middle" x="1079.8478" y="-97.8" font-family="Times,serif" font-size="14.00" fill="#000000">img: http://localhost:8080/semanticAnnotator/files/</text>
<text text-anchor="middle" x="1079.8478" y="-82.8" font-family="Times,serif" font-size="14.00" fill="#000000">iso: http://iso639&#45;3.sil.org/code/</text>
<text text-anchor="middle" x="1079.8478" y="-67.8" font-family="Times,serif" font-size="14.00" fill="#000000">mf: http://www.w3.org/TR/media&#45;frags/</text>
<text text-anchor="middle" x="1079.8478" y="-52.8" font-family="Times,serif" font-size="14.00" fill="#000000">oa: http://www.w3.org/ns/oa#</text>
<text text-anchor="middle" x="1079.8478" y="-37.8" font-family="Times,serif" font-size="14.00" fill="#000000">orcid: http://orcid.org/</text>
<text text-anchor="middle" x="1079.8478" y="-22.8" font-family="Times,serif" font-size="14.00" fill="#000000">rdf: http://www.w3.org/1999/02/22&#45;rdf&#45;syntax&#45;ns#</text>
<text text-anchor="middle" x="1079.8478" y="-7.8" font-family="Times,serif" font-size="14.00" fill="#000000">viaf: http://viaf.org/viaf/</text>
<!-- Rhttp://localhost:8080/rdf/nc/annotation/073b27db&#45;e2c0&#45;42a0&#45;be95&#45;c6b7e85fecd4 -->
<g id="node1" class="node">
<title>Rhttp://localhost:8080/rdf/nc/annotation/073b27db&#45;e2c0&#45;42a0&#45;be95&#45;c6b7e85fecd4</title>
<ellipse fill="none" stroke="#0000ff" cx="295.7238" cy="-903" rx="295.9477" ry="18"/>
<text text-anchor="middle" x="295.7238" y="-899.3" font-family="Times,serif" font-size="14.00" fill="#000000">http://localhost:8080/rdf/nc/annotation/073b27db&#45;e2c0&#45;42a0&#45;be95&#45;c6b7e85fecd4</text>
</g>
<!-- Roa:Annotation -->
<g id="node2" class="node">
<title>Roa:Annotation</title>
<ellipse fill="none" stroke="#0000ff" cx="825.9377" cy="-1036" rx="61.1893" ry="18"/>
<text text-anchor="middle" x="825.9377" y="-1032.3" font-family="Times,serif" font-size="14.00" fill="#000000">oa:Annotation</text>
</g>
<!-- Rhttp://localhost:8080/rdf/nc/annotation/073b27db&#45;e2c0&#45;42a0&#45;be95&#45;c6b7e85fecd4&#45;&gt;Roa:Annotation -->
<g id="edge1" class="edge">
<title>Rhttp://localhost:8080/rdf/nc/annotation/073b27db&#45;e2c0&#45;42a0&#45;be95&#45;c6b7e85fecd4&#45;&gt;Roa:Annotation</title>
<path fill="none" stroke="#000000" d="M364.3875,-920.5135C447.4727,-941.6654 591.6334,-978.2381 715.4475,-1009 732.7491,-1013.2986 751.5892,-1017.9233 768.7308,-1022.1095"/>
<polygon fill="#000000" stroke="#000000" points="768.0581,-1025.548 778.6028,-1024.5178 769.7172,-1018.7474 768.0581,-1025.548"/>
<text text-anchor="middle" x="653.4475" y="-1006.8" font-family="Times,serif" font-size="14.00" fill="#000000">rdf:type</text>
</g>
<!-- Rorcid:0000&#45;0002&#45;2146&#45;4803 -->
<g id="node3" class="node">
<title>Rorcid:0000&#45;0002&#45;2146&#45;4803</title>
<ellipse fill="none" stroke="#0000ff" cx="825.9377" cy="-982" rx="110.4804" ry="18"/>
<text text-anchor="middle" x="825.9377" y="-978.3" font-family="Times,serif" font-size="14.00" fill="#000000">orcid:0000&#45;0002&#45;2146&#45;4803</text>
</g>
<!-- Rhttp://localhost:8080/rdf/nc/annotation/073b27db&#45;e2c0&#45;42a0&#45;be95&#45;c6b7e85fecd4&#45;&gt;Rorcid:0000&#45;0002&#45;2146&#45;4803 -->
<g id="edge2" class="edge">
<title>Rhttp://localhost:8080/rdf/nc/annotation/073b27db&#45;e2c0&#45;42a0&#45;be95&#45;c6b7e85fecd4&#45;&gt;Rorcid:0000&#45;0002&#45;2146&#45;4803</title>
<path fill="none" stroke="#000000" d="M407.8444,-919.7056C504.9488,-934.1738 643.6841,-954.8449 734.2713,-968.342"/>
<polygon fill="#000000" stroke="#000000" points="733.8446,-971.817 744.2512,-969.829 734.8762,-964.8934 733.8446,-971.817"/>
<text text-anchor="middle" x="653.4475" y="-963.8" font-family="Times,serif" font-size="14.00" fill="#000000">dcterms:creator</text>
</g>
<!-- L2021&#45;01&#45;12T14:23:11.646Z|Datatype: dcterms:W3CDTF -->
<g id="node4" class="node">
<title>L2021&#45;01&#45;12T14:23:11.646Z|Datatype: dcterms:W3CDTF</title>
<polygon fill="none" stroke="#000000" points="738.4377,-899 738.4377,-945 913.4377,-945 913.4377,-899 738.4377,-899"/>
<text text-anchor="middle" x="825.9377" y="-929.8" font-family="Times,serif" font-size="14.00" fill="#000000">2021&#45;01&#45;12T14:23:11.646Z</text>
<polyline fill="none" stroke="#000000" points="738.4377,-922 913.4377,-922 "/>
<text text-anchor="middle" x="825.9377" y="-906.8" font-family="Times,serif" font-size="14.00" fill="#000000">Datatype: dcterms:W3CDTF</text>
</g>
<!-- Rhttp://localhost:8080/rdf/nc/annotation/073b27db&#45;e2c0&#45;42a0&#45;be95&#45;c6b7e85fecd4&#45;&gt;L2021&#45;01&#45;12T14:23:11.646Z|Datatype: dcterms:W3CDTF -->
<g id="edge3" class="edge">
<title>Rhttp://localhost:8080/rdf/nc/annotation/073b27db&#45;e2c0&#45;42a0&#45;be95&#45;c6b7e85fecd4&#45;&gt;L2021&#45;01&#45;12T14:23:11.646Z|Datatype: dcterms:W3CDTF</title>
<path fill="none" stroke="#000000" d="M550.7361,-912.1383C613.9021,-914.4018 677.8334,-916.6927 728.1583,-918.4961"/>
<polygon fill="#000000" stroke="#000000" points="728.2421,-922.0013 738.361,-918.8617 728.4928,-915.0058 728.2421,-922.0013"/>
<text text-anchor="middle" x="653.4475" y="-919.8" font-family="Times,serif" font-size="14.00" fill="#000000">dcterms:date</text>
</g>
<!-- B_:node1euqlam8lx220 -->
<g id="node5" class="node">
<title>B_:node1euqlam8lx220</title>
<ellipse fill="none" stroke="#00ff00" cx="825.9377" cy="-862" rx="18" ry="18"/>
</g>
<!-- Rhttp://localhost:8080/rdf/nc/annotation/073b27db&#45;e2c0&#45;42a0&#45;be95&#45;c6b7e85fecd4&#45;&gt;B_:node1euqlam8lx220 -->
<g id="edge4" class="edge">
<title>Rhttp://localhost:8080/rdf/nc/annotation/073b27db&#45;e2c0&#45;42a0&#45;be95&#45;c6b7e85fecd4&#45;&gt;B_:node1euqlam8lx220</title>
<path fill="none" stroke="#000000" d="M478.9358,-888.8327C596.7238,-879.7245 738.4291,-868.7668 797.7101,-864.1828"/>
<polygon fill="#000000" stroke="#000000" points="798.0953,-867.6635 807.7957,-863.4029 797.5556,-860.6844 798.0953,-867.6635"/>
<text text-anchor="middle" x="653.4475" y="-880.8" font-family="Times,serif" font-size="14.00" fill="#000000">oa:hasBody</text>
</g>
<!-- B_:node1euqlam8lx219 -->
<g id="node12" class="node">
<title>B_:node1euqlam8lx219</title>
<ellipse fill="none" stroke="#00ff00" cx="825.9377" cy="-680" rx="18" ry="18"/>
</g>
<!-- Rhttp://localhost:8080/rdf/nc/annotation/073b27db&#45;e2c0&#45;42a0&#45;be95&#45;c6b7e85fecd4&#45;&gt;B_:node1euqlam8lx219 -->
<g id="edge12" class="edge">
<title>Rhttp://localhost:8080/rdf/nc/annotation/073b27db&#45;e2c0&#45;42a0&#45;be95&#45;c6b7e85fecd4&#45;&gt;B_:node1euqlam8lx219</title>
<path fill="none" stroke="#000000" d="M338.2171,-885.1279C443.535,-840.8328 714.2731,-726.9645 799.7017,-691.0345"/>
<polygon fill="#000000" stroke="#000000" points="801.3166,-694.1523 809.1776,-687.0491 798.6027,-687.6998 801.3166,-694.1523"/>
<text text-anchor="middle" x="653.4475" y="-767.8" font-family="Times,serif" font-size="14.00" fill="#000000">oa:hasTarget</text>
</g>
<!-- Roa:describing -->
<g id="node20" class="node">
<title>Roa:describing</title>
<ellipse fill="none" stroke="#0000ff" cx="825.9377" cy="-626" rx="57.6901" ry="18"/>
<text text-anchor="middle" x="825.9377" y="-622.3" font-family="Times,serif" font-size="14.00" fill="#000000">oa:describing</text>
</g>
<!-- Rhttp://localhost:8080/rdf/nc/annotation/073b27db&#45;e2c0&#45;42a0&#45;be95&#45;c6b7e85fecd4&#45;&gt;Roa:describing -->
<g id="edge20" class="edge">
<title>Rhttp://localhost:8080/rdf/nc/annotation/073b27db&#45;e2c0&#45;42a0&#45;be95&#45;c6b7e85fecd4&#45;&gt;Roa:describing</title>
<path fill="none" stroke="#000000" d="M319.901,-885.0279C382.1834,-839.5506 554.5289,-718.8521 715.4475,-653 731.2631,-646.5278 749.0121,-641.346 765.58,-637.3218"/>
<polygon fill="#000000" stroke="#000000" points="766.7682,-640.639 775.7154,-634.9646 765.1824,-633.8209 766.7682,-640.639"/>
<text text-anchor="middle" x="653.4475" y="-701.8" font-family="Times,serif" font-size="14.00" fill="#000000">oa:motivatedBy</text>
</g>
<!-- Rfoaf:Person -->
<g id="node7" class="node">
<title>Rfoaf:Person</title>
<ellipse fill="none" stroke="#0000ff" cx="1252.0617" cy="-1047" rx="51.1914" ry="18"/>
<text text-anchor="middle" x="1252.0617" y="-1043.3" font-family="Times,serif" font-size="14.00" fill="#000000">foaf:Person</text>
</g>
<!-- Rorcid:0000&#45;0002&#45;2146&#45;4803&#45;&gt;Rfoaf:Person -->
<g id="edge21" class="edge">
<title>Rorcid:0000&#45;0002&#45;2146&#45;4803&#45;&gt;Rfoaf:Person</title>
<path fill="none" stroke="#000000" d="M902.1795,-995.1116C914.035,-998.6974 925.8469,-1003.2436 936.4279,-1009 946.094,-1014.2587 944.352,-1021.5771 954.4279,-1026 1031.934,-1060.0222 1131.7585,-1059.1679 1193.8325,-1054.0987"/>
<polygon fill="#000000" stroke="#000000" points="1194.1835,-1057.5814 1203.8382,-1053.2182 1193.5698,-1050.6084 1194.1835,-1057.5814"/>
<text text-anchor="middle" x="1002.9279" y="-1054.8" font-family="Times,serif" font-size="14.00" fill="#000000">rdf:type</text>
</g>
<!-- Roa:TextualBody -->
<g id="node6" class="node">
<title>Roa:TextualBody</title>
<ellipse fill="none" stroke="#0000ff" cx="1252.0617" cy="-991" rx="67.6881" ry="18"/>
<text text-anchor="middle" x="1252.0617" y="-987.3" font-family="Times,serif" font-size="14.00" fill="#000000">oa:TextualBody</text>
</g>
<!-- B_:node1euqlam8lx220&#45;&gt;Roa:TextualBody -->
<g id="edge5" class="edge">
<title>B_:node1euqlam8lx220&#45;&gt;Roa:TextualBody</title>
<path fill="none" stroke="#000000" d="M843.9445,-862.2092C867.5651,-863.3751 909.1992,-868.6027 936.4279,-890 949.8717,-900.5646 941.4537,-912.8637 954.4279,-924 995.4905,-959.2457 1016.874,-951.0971 1069.4279,-964 1104.8305,-972.692 1144.8244,-978.9899 1178.3423,-983.3055"/>
<polygon fill="#000000" stroke="#000000" points="1178.1666,-986.8108 1188.5242,-984.5816 1179.0371,-979.8651 1178.1666,-986.8108"/>
<text text-anchor="middle" x="1002.9279" y="-962.8" font-family="Times,serif" font-size="14.00" fill="#000000">rdf:type</text>
</g>
<!-- B_:node1euqlam8lx220&#45;&gt;Rfoaf:Person -->
<g id="edge6" class="edge">
<title>B_:node1euqlam8lx220&#45;&gt;Rfoaf:Person</title>
<path fill="none" stroke="#000000" d="M844.1001,-861.1156C868.6819,-860.9782 912.2424,-864.6647 936.4279,-890 963.9934,-918.876 927.4796,-948.5472 954.4279,-978 984.8026,-1011.1975 1010.3334,-988.6715 1051.4279,-1007 1059.9904,-1010.819 1060.6305,-1014.7586 1069.4279,-1018 1108.3619,-1032.345 1154.533,-1039.5972 1190.7105,-1043.262"/>
<polygon fill="#000000" stroke="#000000" points="1190.8302,-1046.7889 1201.1153,-1044.2458 1191.4892,-1039.8199 1190.8302,-1046.7889"/>
<text text-anchor="middle" x="1002.9279" y="-1010.8" font-family="Times,serif" font-size="14.00" fill="#000000">rdf:type</text>
</g>
<!-- Ltext/plain -->
<g id="node8" class="node">
<title>Ltext/plain</title>
<polygon fill="none" stroke="#000000" points="1218.0617,-918 1218.0617,-954 1286.0617,-954 1286.0617,-918 1218.0617,-918"/>
<text text-anchor="middle" x="1252.0617" y="-932.3" font-family="Times,serif" font-size="14.00" fill="#000000">text/plain</text>
</g>
<!-- B_:node1euqlam8lx220&#45;&gt;Ltext/plain -->
<g id="edge7" class="edge">
<title>B_:node1euqlam8lx220&#45;&gt;Ltext/plain</title>
<path fill="none" stroke="#000000" d="M843.746,-866.231C868.4884,-872.0292 914.7062,-882.5701 954.4279,-890 1044.1227,-906.7773 1149.848,-922.058 1208.0616,-930.0855"/>
<polygon fill="#000000" stroke="#000000" points="1207.6367,-933.5599 1218.0196,-931.4517 1208.5882,-926.6248 1207.6367,-933.5599"/>
<text text-anchor="middle" x="1002.9279" y="-908.8" font-family="Times,serif" font-size="14.00" fill="#000000">dcterms:format</text>
</g>
<!-- Rviaf:39377694 -->
<g id="node9" class="node">
<title>Rviaf:39377694</title>
<ellipse fill="none" stroke="#0000ff" cx="1252.0617" cy="-881" rx="61.99" ry="18"/>
<text text-anchor="middle" x="1252.0617" y="-877.3" font-family="Times,serif" font-size="14.00" fill="#000000">viaf:39377694</text>
</g>
<!-- B_:node1euqlam8lx220&#45;&gt;Rviaf:39377694 -->
<g id="edge8" class="edge">
<title>B_:node1euqlam8lx220&#45;&gt;Rviaf:39377694</title>
<path fill="none" stroke="#000000" d="M843.9756,-862.8043C901.0243,-865.348 1079.7183,-873.3156 1180.7065,-877.8184"/>
<polygon fill="#000000" stroke="#000000" points="1180.6823,-881.3207 1190.8283,-878.2697 1180.9942,-874.3277 1180.6823,-881.3207"/>
<text text-anchor="middle" x="1002.9279" y="-874.8" font-family="Times,serif" font-size="14.00" fill="#000000">dcterms:identifier</text>
</g>
<!-- Riso:und -->
<g id="node10" class="node">
<title>Riso:und</title>
<ellipse fill="none" stroke="#0000ff" cx="1252.0617" cy="-827" rx="36.2938" ry="18"/>
<text text-anchor="middle" x="1252.0617" y="-823.3" font-family="Times,serif" font-size="14.00" fill="#000000">iso:und</text>
</g>
<!-- B_:node1euqlam8lx220&#45;&gt;Riso:und -->
<g id="edge9" class="edge">
<title>B_:node1euqlam8lx220&#45;&gt;Riso:und</title>
<path fill="none" stroke="#000000" d="M844.222,-859.9929C869.1268,-857.2951 915.1169,-852.4409 954.4279,-849 1043.2919,-841.2218 1147.2432,-833.9555 1205.7984,-830.0304"/>
<polygon fill="#000000" stroke="#000000" points="1206.0968,-833.5184 1215.8415,-829.3601 1205.6306,-826.5339 1206.0968,-833.5184"/>
<text text-anchor="middle" x="1002.9279" y="-852.8" font-family="Times,serif" font-size="14.00" fill="#000000">dcterms:language</text>
</g>
<!-- LGeoff|Language: und -->
<g id="node11" class="node">
<title>LGeoff|Language: und</title>
<polygon fill="none" stroke="#000000" points="1203.0617,-744 1203.0617,-790 1301.0617,-790 1301.0617,-744 1203.0617,-744"/>
<text text-anchor="middle" x="1252.0617" y="-774.8" font-family="Times,serif" font-size="14.00" fill="#000000">Geoff</text>
<polyline fill="none" stroke="#000000" points="1203.0617,-767 1301.0617,-767 "/>
<text text-anchor="middle" x="1252.0617" y="-751.8" font-family="Times,serif" font-size="14.00" fill="#000000">Language: und</text>
</g>
<!-- B_:node1euqlam8lx220&#45;&gt;LGeoff|Language: und -->
<g id="edge10" class="edge">
<title>B_:node1euqlam8lx220&#45;&gt;LGeoff|Language: und</title>
<path fill="none" stroke="#000000" d="M843.2189,-855.9366C867.7256,-847.4953 914.0873,-832.1036 954.4279,-822 1036.2226,-801.5139 1132.4182,-785.1002 1192.8233,-775.7027"/>
<polygon fill="#000000" stroke="#000000" points="1193.5882,-779.1262 1202.9378,-774.1428 1192.5211,-772.208 1193.5882,-779.1262"/>
<text text-anchor="middle" x="1002.9279" y="-825.8" font-family="Times,serif" font-size="14.00" fill="#000000">rdf:value</text>
</g>
<!-- B_:node1euqlam8lx220&#45;&gt;LGeoff|Language: und -->
<g id="edge11" class="edge">
<title>B_:node1euqlam8lx220&#45;&gt;LGeoff|Language: und</title>
<path fill="none" stroke="#000000" d="M839.797,-850.1741C862.1772,-831.8852 908.4325,-797.3531 954.4279,-783 1034.0453,-758.1549 1131.3878,-758.2522 1192.5769,-761.7331"/>
<polygon fill="#000000" stroke="#000000" points="1192.626,-765.2427 1202.8231,-762.367 1193.0584,-758.2561 1192.626,-765.2427"/>
<text text-anchor="middle" x="1002.9279" y="-786.8" font-family="Times,serif" font-size="14.00" fill="#000000">foaf:name</text>
</g>
<!-- Roa:Target -->
<g id="node13" class="node">
<title>Roa:Target</title>
<ellipse fill="none" stroke="#0000ff" cx="1252.0617" cy="-707" rx="44.393" ry="18"/>
<text text-anchor="middle" x="1252.0617" y="-703.3" font-family="Times,serif" font-size="14.00" fill="#000000">oa:Target</text>
</g>
<!-- B_:node1euqlam8lx219&#45;&gt;Roa:Target -->
<g id="edge13" class="edge">
<title>B_:node1euqlam8lx219&#45;&gt;Roa:Target</title>
<path fill="none" stroke="#000000" d="M843.9756,-681.1429C904.5009,-684.9779 1101.9491,-697.4886 1198.2582,-703.5909"/>
<polygon fill="#000000" stroke="#000000" points="1198.1702,-707.0923 1208.3716,-704.2317 1198.6129,-700.1063 1198.1702,-707.0923"/>
<text text-anchor="middle" x="1002.9279" y="-696.8" font-family="Times,serif" font-size="14.00" fill="#000000">rdf:type</text>
</g>
<!-- Limage/jpeg -->
<g id="node14" class="node">
<title>Limage/jpeg</title>
<polygon fill="none" stroke="#000000" points="1213.5617,-634 1213.5617,-670 1290.5617,-670 1290.5617,-634 1213.5617,-634"/>
<text text-anchor="middle" x="1252.0617" y="-648.3" font-family="Times,serif" font-size="14.00" fill="#000000">image/jpeg</text>
</g>
<!-- B_:node1euqlam8lx219&#45;&gt;Limage/jpeg -->
<g id="edge14" class="edge">
<title>B_:node1euqlam8lx219&#45;&gt;Limage/jpeg</title>
<path fill="none" stroke="#000000" d="M844.2239,-678.2703C869.1309,-675.9519 915.1233,-671.8043 954.4279,-669 1042.0905,-662.7454 1144.4088,-657.3087 1203.372,-654.3567"/>
<polygon fill="#000000" stroke="#000000" points="1203.6976,-657.8449 1213.5112,-653.8522 1203.3496,-650.8536 1203.6976,-657.8449"/>
<text text-anchor="middle" x="1002.9279" y="-672.8" font-family="Times,serif" font-size="14.00" fill="#000000">dcterms:format</text>
</g>
<!-- B_:node1euqlam8lx222 -->
<g id="node15" class="node">
<title>B_:node1euqlam8lx222</title>
<ellipse fill="none" stroke="#00ff00" cx="1252.0617" cy="-597" rx="18" ry="18"/>
</g>
<!-- B_:node1euqlam8lx219&#45;&gt;B_:node1euqlam8lx222 -->
<g id="edge15" class="edge">
<title>B_:node1euqlam8lx219&#45;&gt;B_:node1euqlam8lx222</title>
<path fill="none" stroke="#000000" d="M843.9072,-676.8937C866.078,-672.7708 904.7274,-664.6312 936.4279,-653 944.8248,-649.9191 945.9319,-646.7959 954.4279,-644 1049.9619,-612.5615 1169.8685,-601.8356 1223.6596,-598.4433"/>
<polygon fill="#000000" stroke="#000000" points="1224.0307,-601.9276 1233.8062,-597.8422 1223.6167,-594.9398 1224.0307,-601.9276"/>
<text text-anchor="middle" x="1002.9279" y="-647.8" font-family="Times,serif" font-size="14.00" fill="#000000">oa:hasSelector</text>
</g>
<!-- Rimg:MMNAT01_AF_NNM001001033_003.jpg -->
<g id="node19" class="node">
<title>Rimg:MMNAT01_AF_NNM001001033_003.jpg</title>
<ellipse fill="none" stroke="#0000ff" cx="1252.0617" cy="-434" rx="182.7677" ry="18"/>
<text text-anchor="middle" x="1252.0617" y="-430.3" font-family="Times,serif" font-size="14.00" fill="#000000">img:MMNAT01_AF_NNM001001033_003.jpg</text>
</g>
<!-- B_:node1euqlam8lx219&#45;&gt;Rimg:MMNAT01_AF_NNM001001033_003.jpg -->
<g id="edge19" class="edge">
<title>B_:node1euqlam8lx219&#45;&gt;Rimg:MMNAT01_AF_NNM001001033_003.jpg</title>
<path fill="none" stroke="#000000" d="M844.0355,-680.5929C868.1431,-680.3859 910.7304,-676.3987 936.4279,-653 954.5112,-636.5343 938.7407,-619.7626 954.4279,-601 1016.461,-526.8054 1120.3847,-479.3334 1187.5635,-454.6694"/>
<polygon fill="#000000" stroke="#000000" points="1188.9789,-457.8797 1197.1991,-451.1955 1186.6048,-451.2946 1188.9789,-457.8797"/>
<text text-anchor="middle" x="1002.9279" y="-604.8" font-family="Times,serif" font-size="14.00" fill="#000000">oa:hasSource</text>
</g>
<!-- Roa:FragmentSelector -->
<g id="node16" class="node">
<title>Roa:FragmentSelector</title>
<ellipse fill="none" stroke="#0000ff" cx="1872.6955" cy="-679" rx="84.485" ry="18"/>
<text text-anchor="middle" x="1872.6955" y="-675.3" font-family="Times,serif" font-size="14.00" fill="#000000">oa:FragmentSelector</text>
</g>
<!-- B_:node1euqlam8lx222&#45;&gt;Roa:FragmentSelector -->
<g id="edge16" class="edge">
<title>B_:node1euqlam8lx222&#45;&gt;Roa:FragmentSelector</title>
<path fill="none" stroke="#000000" d="M1270.1475,-598.6146C1303.1714,-601.7961 1375.3044,-609.8267 1434.6955,-624 1442.8979,-625.9575 1444.5102,-627.9723 1452.6955,-630 1563.0503,-657.3381 1693.593,-669.5321 1779.5117,-674.9001"/>
<polygon fill="#000000" stroke="#000000" points="1779.3098,-678.3942 1789.5034,-675.5061 1779.7336,-671.407 1779.3098,-678.3942"/>
<text text-anchor="middle" x="1510.1955" y="-655.8" font-family="Times,serif" font-size="14.00" fill="#000000">rdf:type</text>
</g>
<!-- Rmf: -->
<g id="node17" class="node">
<title>Rmf:</title>
<ellipse fill="none" stroke="#0000ff" cx="1872.6955" cy="-625" rx="27" ry="18"/>
<text text-anchor="middle" x="1872.6955" y="-621.3" font-family="Times,serif" font-size="14.00" fill="#000000">mf:</text>
</g>
<!-- B_:node1euqlam8lx222&#45;&gt;Rmf: -->
<g id="edge17" class="edge">
<title>B_:node1euqlam8lx222&#45;&gt;Rmf:</title>
<path fill="none" stroke="#000000" d="M1270.3,-597.8228C1355.7315,-601.6771 1717.1285,-617.9816 1835.2035,-623.3085"/>
<polygon fill="#000000" stroke="#000000" points="1835.387,-626.8203 1845.5347,-623.7746 1835.7026,-619.8274 1835.387,-626.8203"/>
<text text-anchor="middle" x="1510.1955" y="-614.8" font-family="Times,serif" font-size="14.00" fill="#000000">dcterms:conformsTo</text>
</g>
<!-- Lxywh=0.6222427138577663,0.025690113172811516,0.024116347569955843,0.01804123711340206 -->
<g id="node18" class="node">
<title>Lxywh=0.6222427138577663,0.025690113172811516,0.024116347569955843,0.01804123711340206</title>
<polygon fill="none" stroke="#000000" points="1585.6955,-552 1585.6955,-588 2159.6955,-588 2159.6955,-552 1585.6955,-552"/>
<text text-anchor="middle" x="1872.6955" y="-566.3" font-family="Times,serif" font-size="14.00" fill="#000000">xywh=0.6222427138577663,0.025690113172811516,0.024116347569955843,0.01804123711340206</text>
</g>
<!-- B_:node1euqlam8lx222&#45;&gt;Lxywh=0.6222427138577663,0.025690113172811516,0.024116347569955843,0.01804123711340206 -->
<g id="edge18" class="edge">
<title>B_:node1euqlam8lx222&#45;&gt;Lxywh=0.6222427138577663,0.025690113172811516,0.024116347569955843,0.01804123711340206</title>
<path fill="none" stroke="#000000" d="M1270.0459,-596.1812C1305.1569,-594.5853 1385.2921,-590.9561 1452.6955,-588 1492.3534,-586.2607 1534.1187,-584.448 1575.3055,-582.6715"/>
<polygon fill="#000000" stroke="#000000" points="1575.6402,-586.1604 1585.4801,-582.2328 1575.3386,-579.1669 1575.6402,-586.1604"/>
<text text-anchor="middle" x="1510.1955" y="-591.8" font-family="Times,serif" font-size="14.00" fill="#000000">rdf:value</text>
</g>
<!-- Rdcmitype:StillImage -->
<g id="node21" class="node">
<title>Rdcmitype:StillImage</title>
<ellipse fill="none" stroke="#0000ff" cx="1872.6955" cy="-515" rx="83.3857" ry="18"/>
<text text-anchor="middle" x="1872.6955" y="-511.3" font-family="Times,serif" font-size="14.00" fill="#000000">dcmitype:StillImage</text>
</g>
<!-- Rimg:MMNAT01_AF_NNM001001033_003.jpg&#45;&gt;Rdcmitype:StillImage -->
<g id="edge22" class="edge">
<title>Rimg:MMNAT01_AF_NNM001001033_003.jpg&#45;&gt;Rdcmitype:StillImage</title>
<path fill="none" stroke="#000000" d="M1345.4416,-449.4867C1379.2248,-455.0558 1417.6708,-461.3545 1452.6955,-467 1511.7764,-476.523 1526.3205,-480.5271 1585.6955,-488 1652.0943,-496.3569 1727.4338,-503.3503 1784.257,-508.1244"/>
<polygon fill="#000000" stroke="#000000" points="1784.0298,-511.6175 1794.286,-508.9602 1784.6112,-504.6417 1784.0298,-511.6175"/>
<text text-anchor="middle" x="1510.1955" y="-489.8" font-family="Times,serif" font-size="14.00" fill="#000000">rdf:type</text>
</g>
<!-- Rdsw:Token -->
<g id="node22" class="node">
<title>Rdsw:Token</title>
<ellipse fill="none" stroke="#0000ff" cx="1872.6955" cy="-461" rx="50.0912" ry="18"/>
<text text-anchor="middle" x="1872.6955" y="-457.3" font-family="Times,serif" font-size="14.00" fill="#000000">dsw:Token</text>
</g>
<!-- Rimg:MMNAT01_AF_NNM001001033_003.jpg&#45;&gt;Rdsw:Token -->
<g id="edge23" class="edge">
<title>Rimg:MMNAT01_AF_NNM001001033_003.jpg&#45;&gt;Rdsw:Token</title>
<path fill="none" stroke="#000000" d="M1419.1966,-441.271C1549.5273,-446.9409 1723.0157,-454.4883 1812.9484,-458.4008"/>
<polygon fill="#000000" stroke="#000000" points="1812.8241,-461.8986 1822.9668,-458.8366 1813.1284,-454.9052 1812.8241,-461.8986"/>
<text text-anchor="middle" x="1510.1955" y="-451.8" font-family="Times,serif" font-size="14.00" fill="#000000">rdf:type</text>
</g>
<!-- Rdwc:HumanObservation -->
<g id="node23" class="node">
<title>Rdwc:HumanObservation</title>
<ellipse fill="none" stroke="#0000ff" cx="1872.6955" cy="-407" rx="96.6831" ry="18"/>
<text text-anchor="middle" x="1872.6955" y="-403.3" font-family="Times,serif" font-size="14.00" fill="#000000">dwc:HumanObservation</text>
</g>
<!-- Rimg:MMNAT01_AF_NNM001001033_003.jpg&#45;&gt;Rdwc:HumanObservation -->
<g id="edge24" class="edge">
<title>Rimg:MMNAT01_AF_NNM001001033_003.jpg&#45;&gt;Rdwc:HumanObservation</title>
<path fill="none" stroke="#000000" d="M1414.6637,-425.7666C1427.5312,-425.1544 1440.3273,-424.5585 1452.6955,-424 1559.8786,-419.1598 1682.4786,-414.272 1767.4348,-410.9877"/>
<polygon fill="#000000" stroke="#000000" points="1767.7476,-414.4784 1777.6052,-410.5953 1767.4776,-407.4836 1767.7476,-414.4784"/>
<text text-anchor="middle" x="1510.1955" y="-427.8" font-family="Times,serif" font-size="14.00" fill="#000000">rdf:type</text>
</g>
<!-- Roa:Source -->
<g id="node24" class="node">
<title>Roa:Source</title>
<ellipse fill="none" stroke="#0000ff" cx="1872.6955" cy="-353" rx="46.2923" ry="18"/>
<text text-anchor="middle" x="1872.6955" y="-349.3" font-family="Times,serif" font-size="14.00" fill="#000000">oa:Source</text>
</g>
<!-- Rimg:MMNAT01_AF_NNM001001033_003.jpg&#45;&gt;Roa:Source -->
<g id="edge25" class="edge">
<title>Rimg:MMNAT01_AF_NNM001001033_003.jpg&#45;&gt;Roa:Source</title>
<path fill="none" stroke="#000000" d="M1345.4416,-418.5133C1379.2248,-412.9442 1417.6708,-406.6455 1452.6955,-401 1511.7764,-391.477 1526.3205,-387.4729 1585.6955,-380 1666.0299,-369.8892 1759.4516,-361.7743 1817.3338,-357.1708"/>
<polygon fill="#000000" stroke="#000000" points="1817.671,-360.6552 1827.3649,-356.3799 1817.1207,-353.6768 1817.671,-360.6552"/>
<text text-anchor="middle" x="1510.1955" y="-404.8" font-family="Times,serif" font-size="14.00" fill="#000000">rdf:type</text>
</g>
<!-- Rfoaf:Image -->
<g id="node25" class="node">
<title>Rfoaf:Image</title>
<ellipse fill="none" stroke="#0000ff" cx="1872.6955" cy="-299" rx="50.0912" ry="18"/>
<text text-anchor="middle" x="1872.6955" y="-295.3" font-family="Times,serif" font-size="14.00" fill="#000000">foaf:Image</text>
</g>
<!-- Rimg:MMNAT01_AF_NNM001001033_003.jpg&#45;&gt;Rfoaf:Image -->
<g id="edge26" class="edge">
<title>Rimg:MMNAT01_AF_NNM001001033_003.jpg&#45;&gt;Rfoaf:Image</title>
<path fill="none" stroke="#000000" d="M1299.6388,-416.5357C1340.1299,-401.881 1399.9456,-380.7226 1452.6955,-364 1511.2977,-345.4221 1525.2799,-337.3718 1585.6955,-326 1663.2945,-311.3938 1754.2581,-304.5358 1812.637,-301.4235"/>
<polygon fill="#000000" stroke="#000000" points="1812.9827,-304.9105 1822.7901,-300.9025 1812.6239,-297.9197 1812.9827,-304.9105"/>
<text text-anchor="middle" x="1510.1955" y="-367.8" font-family="Times,serif" font-size="14.00" fill="#000000">rdf:type</text>
</g>
</g>
</svg>
