<?xml version="1.0" encoding="UTF-8" standalone="no"?>
<!DOCTYPE svg PUBLIC "-//W3C//DTD SVG 1.1//EN"
 "http://www.w3.org/Graphics/SVG/1.1/DTD/svg11.dtd">
<!-- Generated by graphviz version 2.40.1 (20161225.0304)
 -->
<!-- Title: %3 Pages: 1 -->
<svg width="2204pt" height="1264pt"
 viewBox="0.00 0.00 2203.70 1264.00" xmlns="http://www.w3.org/2000/svg" xmlns:xlink="http://www.w3.org/1999/xlink">
<g id="graph0" class="graph" transform="scale(1 1) rotate(0) translate(4 1260)">
<title>%3</title>
<polygon fill="#ffffff" stroke="transparent" points="-4,4 -4,-1260 2199.6955,-1260 2199.6955,4 -4,4"/>
<text text-anchor="middle" x="1097.8478" y="-248.8" font-family="Times,serif" font-size="14.00" fill="#000000">Model:</text>
<text text-anchor="middle" x="1097.8478" y="-233.8" font-family="Times,serif" font-size="14.00" fill="#000000">(Unknown)</text>
<text text-anchor="middle" x="1097.8478" y="-202.8" font-family="Times,serif" font-size="14.00" fill="#000000">Namespaces:</text>
<text text-anchor="middle" x="1097.8478" y="-187.8" font-family="Times,serif" font-size="14.00" fill="#000000">dcmitype: http://purl.org/dc/dcmitype/</text>
<text text-anchor="middle" x="1097.8478" y="-172.8" font-family="Times,serif" font-size="14.00" fill="#000000">dcterms: http://purl.org/dc/terms/</text>
<text text-anchor="middle" x="1097.8478" y="-157.8" font-family="Times,serif" font-size="14.00" fill="#000000">dsw: http://purl.org/dsw/</text>
<text text-anchor="middle" x="1097.8478" y="-142.8" font-family="Times,serif" font-size="14.00" fill="#000000">dwc: http://rs.tdwg.org/dwc/terms/</text>
<text text-anchor="middle" x="1097.8478" y="-127.8" font-family="Times,serif" font-size="14.00" fill="#000000">dwciri: http://rs.tdwg.org/dwc/iri/</text>
<text text-anchor="middle" x="1097.8478" y="-112.8" font-family="Times,serif" font-size="14.00" fill="#000000">foaf: http://xmlns.com/foaf/0.1/</text>
<text text-anchor="middle" x="1097.8478" y="-97.8" font-family="Times,serif" font-size="14.00" fill="#000000">gn: http://sws.geonames.org/</text>
<text text-anchor="middle" x="1097.8478" y="-82.8" font-family="Times,serif" font-size="14.00" fill="#000000">img: http://localhost:8080/semanticAnnotator/files/</text>
<text text-anchor="middle" x="1097.8478" y="-67.8" font-family="Times,serif" font-size="14.00" fill="#000000">iso: http://iso639&#45;3.sil.org/code/</text>
<text text-anchor="middle" x="1097.8478" y="-52.8" font-family="Times,serif" font-size="14.00" fill="#000000">mf: http://www.w3.org/TR/media&#45;frags/</text>
<text text-anchor="middle" x="1097.8478" y="-37.8" font-family="Times,serif" font-size="14.00" fill="#000000">oa: http://www.w3.org/ns/oa#</text>
<text text-anchor="middle" x="1097.8478" y="-22.8" font-family="Times,serif" font-size="14.00" fill="#000000">orcid: http://orcid.org/</text>
<text text-anchor="middle" x="1097.8478" y="-7.8" font-family="Times,serif" font-size="14.00" fill="#000000">rdf: http://www.w3.org/1999/02/22&#45;rdf&#45;syntax&#45;ns#</text>
<!-- Rhttp://localhost:8080/rdf/nc/annotation/6aadfd49&#45;ea4d&#45;404e&#45;b8d4&#45;2cda66d1b0ed -->
<g id="node1" class="node">
<title>Rhttp://localhost:8080/rdf/nc/annotation/6aadfd49&#45;ea4d&#45;404e&#45;b8d4&#45;2cda66d1b0ed</title>
<ellipse fill="none" stroke="#0000ff" cx="295.7238" cy="-959" rx="295.9477" ry="18"/>
<text text-anchor="middle" x="295.7238" y="-955.3" font-family="Times,serif" font-size="14.00" fill="#000000">http://localhost:8080/rdf/nc/annotation/6aadfd49&#45;ea4d&#45;404e&#45;b8d4&#45;2cda66d1b0ed</text>
</g>
<!-- Roa:Annotation -->
<g id="node2" class="node">
<title>Roa:Annotation</title>
<ellipse fill="none" stroke="#0000ff" cx="825.9377" cy="-1092" rx="61.1893" ry="18"/>
<text text-anchor="middle" x="825.9377" y="-1088.3" font-family="Times,serif" font-size="14.00" fill="#000000">oa:Annotation</text>
</g>
<!-- Rhttp://localhost:8080/rdf/nc/annotation/6aadfd49&#45;ea4d&#45;404e&#45;b8d4&#45;2cda66d1b0ed&#45;&gt;Roa:Annotation -->
<g id="edge1" class="edge">
<title>Rhttp://localhost:8080/rdf/nc/annotation/6aadfd49&#45;ea4d&#45;404e&#45;b8d4&#45;2cda66d1b0ed&#45;&gt;Roa:Annotation</title>
<path fill="none" stroke="#000000" d="M364.3875,-976.5135C447.4727,-997.6654 591.6334,-1034.2381 715.4475,-1065 732.7491,-1069.2986 751.5892,-1073.9233 768.7308,-1078.1095"/>
<polygon fill="#000000" stroke="#000000" points="768.0581,-1081.548 778.6028,-1080.5178 769.7172,-1074.7474 768.0581,-1081.548"/>
<text text-anchor="middle" x="653.4475" y="-1062.8" font-family="Times,serif" font-size="14.00" fill="#000000">rdf:type</text>
</g>
<!-- Rorcid:0000&#45;0002&#45;2146&#45;4803 -->
<g id="node3" class="node">
<title>Rorcid:0000&#45;0002&#45;2146&#45;4803</title>
<ellipse fill="none" stroke="#0000ff" cx="825.9377" cy="-1038" rx="110.4804" ry="18"/>
<text text-anchor="middle" x="825.9377" y="-1034.3" font-family="Times,serif" font-size="14.00" fill="#000000">orcid:0000&#45;0002&#45;2146&#45;4803</text>
</g>
<!-- Rhttp://localhost:8080/rdf/nc/annotation/6aadfd49&#45;ea4d&#45;404e&#45;b8d4&#45;2cda66d1b0ed&#45;&gt;Rorcid:0000&#45;0002&#45;2146&#45;4803 -->
<g id="edge2" class="edge">
<title>Rhttp://localhost:8080/rdf/nc/annotation/6aadfd49&#45;ea4d&#45;404e&#45;b8d4&#45;2cda66d1b0ed&#45;&gt;Rorcid:0000&#45;0002&#45;2146&#45;4803</title>
<path fill="none" stroke="#000000" d="M407.8444,-975.7056C504.9488,-990.1738 643.6841,-1010.8449 734.2713,-1024.342"/>
<polygon fill="#000000" stroke="#000000" points="733.8446,-1027.817 744.2512,-1025.829 734.8762,-1020.8934 733.8446,-1027.817"/>
<text text-anchor="middle" x="653.4475" y="-1019.8" font-family="Times,serif" font-size="14.00" fill="#000000">dcterms:creator</text>
</g>
<!-- L2021&#45;01&#45;12T14:23:11.646Z|Datatype: dcterms:W3CDTF -->
<g id="node4" class="node">
<title>L2021&#45;01&#45;12T14:23:11.646Z|Datatype: dcterms:W3CDTF</title>
<polygon fill="none" stroke="#000000" points="738.4377,-955 738.4377,-1001 913.4377,-1001 913.4377,-955 738.4377,-955"/>
<text text-anchor="middle" x="825.9377" y="-985.8" font-family="Times,serif" font-size="14.00" fill="#000000">2021&#45;01&#45;12T14:23:11.646Z</text>
<polyline fill="none" stroke="#000000" points="738.4377,-978 913.4377,-978 "/>
<text text-anchor="middle" x="825.9377" y="-962.8" font-family="Times,serif" font-size="14.00" fill="#000000">Datatype: dcterms:W3CDTF</text>
</g>
<!-- Rhttp://localhost:8080/rdf/nc/annotation/6aadfd49&#45;ea4d&#45;404e&#45;b8d4&#45;2cda66d1b0ed&#45;&gt;L2021&#45;01&#45;12T14:23:11.646Z|Datatype: dcterms:W3CDTF -->
<g id="edge3" class="edge">
<title>Rhttp://localhost:8080/rdf/nc/annotation/6aadfd49&#45;ea4d&#45;404e&#45;b8d4&#45;2cda66d1b0ed&#45;&gt;L2021&#45;01&#45;12T14:23:11.646Z|Datatype: dcterms:W3CDTF</title>
<path fill="none" stroke="#000000" d="M550.7361,-968.1383C613.9021,-970.4018 677.8334,-972.6927 728.1583,-974.4961"/>
<polygon fill="#000000" stroke="#000000" points="728.2421,-978.0013 738.361,-974.8617 728.4928,-971.0058 728.2421,-978.0013"/>
<text text-anchor="middle" x="653.4475" y="-975.8" font-family="Times,serif" font-size="14.00" fill="#000000">dcterms:date</text>
</g>
<!-- B_:node1f26ai8ibx13 -->
<g id="node5" class="node">
<title>B_:node1f26ai8ibx13</title>
<ellipse fill="none" stroke="#00ff00" cx="825.9377" cy="-918" rx="18" ry="18"/>
</g>
<!-- Rhttp://localhost:8080/rdf/nc/annotation/6aadfd49&#45;ea4d&#45;404e&#45;b8d4&#45;2cda66d1b0ed&#45;&gt;B_:node1f26ai8ibx13 -->
<g id="edge4" class="edge">
<title>Rhttp://localhost:8080/rdf/nc/annotation/6aadfd49&#45;ea4d&#45;404e&#45;b8d4&#45;2cda66d1b0ed&#45;&gt;B_:node1f26ai8ibx13</title>
<path fill="none" stroke="#000000" d="M478.9358,-944.8327C596.7238,-935.7245 738.4291,-924.7668 797.7101,-920.1828"/>
<polygon fill="#000000" stroke="#000000" points="798.0953,-923.6635 807.7957,-919.4029 797.5556,-916.6844 798.0953,-923.6635"/>
<text text-anchor="middle" x="653.4475" y="-936.8" font-family="Times,serif" font-size="14.00" fill="#000000">oa:hasBody</text>
</g>
<!-- B_:node1f26ai8ibx12 -->
<g id="node14" class="node">
<title>B_:node1f26ai8ibx12</title>
<ellipse fill="none" stroke="#00ff00" cx="825.9377" cy="-695" rx="18" ry="18"/>
</g>
<!-- Rhttp://localhost:8080/rdf/nc/annotation/6aadfd49&#45;ea4d&#45;404e&#45;b8d4&#45;2cda66d1b0ed&#45;&gt;B_:node1f26ai8ibx12 -->
<g id="edge15" class="edge">
<title>Rhttp://localhost:8080/rdf/nc/annotation/6aadfd49&#45;ea4d&#45;404e&#45;b8d4&#45;2cda66d1b0ed&#45;&gt;B_:node1f26ai8ibx12</title>
<path fill="none" stroke="#000000" d="M331.7507,-941.0618C432.2956,-890.9992 714.2179,-750.6267 800.5137,-707.6589"/>
<polygon fill="#000000" stroke="#000000" points="802.2061,-710.7262 809.5978,-703.1358 799.086,-704.46 802.2061,-710.7262"/>
<text text-anchor="middle" x="653.4475" y="-798.8" font-family="Times,serif" font-size="14.00" fill="#000000">oa:hasTarget</text>
</g>
<!-- Roa:describing -->
<g id="node22" class="node">
<title>Roa:describing</title>
<ellipse fill="none" stroke="#0000ff" cx="825.9377" cy="-641" rx="57.6901" ry="18"/>
<text text-anchor="middle" x="825.9377" y="-637.3" font-family="Times,serif" font-size="14.00" fill="#000000">oa:describing</text>
</g>
<!-- Rhttp://localhost:8080/rdf/nc/annotation/6aadfd49&#45;ea4d&#45;404e&#45;b8d4&#45;2cda66d1b0ed&#45;&gt;Roa:describing -->
<g id="edge23" class="edge">
<title>Rhttp://localhost:8080/rdf/nc/annotation/6aadfd49&#45;ea4d&#45;404e&#45;b8d4&#45;2cda66d1b0ed&#45;&gt;Roa:describing</title>
<path fill="none" stroke="#000000" d="M315.8833,-940.8673C373.643,-889.8867 546.4588,-744.0637 715.4475,-668 730.8067,-661.0867 748.197,-655.7828 764.5598,-651.7834"/>
<polygon fill="#000000" stroke="#000000" points="765.6364,-655.1267 774.5878,-649.459 764.0558,-648.3075 765.6364,-655.1267"/>
<text text-anchor="middle" x="653.4475" y="-722.8" font-family="Times,serif" font-size="14.00" fill="#000000">oa:motivatedBy</text>
</g>
<!-- Rfoaf:Person -->
<g id="node23" class="node">
<title>Rfoaf:Person</title>
<ellipse fill="none" stroke="#0000ff" cx="1288.0617" cy="-1222" rx="51.1914" ry="18"/>
<text text-anchor="middle" x="1288.0617" y="-1218.3" font-family="Times,serif" font-size="14.00" fill="#000000">foaf:Person</text>
</g>
<!-- Rorcid:0000&#45;0002&#45;2146&#45;4803&#45;&gt;Rfoaf:Person -->
<g id="edge24" class="edge">
<title>Rorcid:0000&#45;0002&#45;2146&#45;4803&#45;&gt;Rfoaf:Person</title>
<path fill="none" stroke="#000000" d="M914.1257,-1048.8846C922.4988,-1052.8869 930.1781,-1058.1388 936.4279,-1065 973.3367,-1105.519 914.8674,-1149.0656 954.4279,-1187 1029.506,-1258.992 1162.2138,-1247.5681 1235.598,-1234.0793"/>
<polygon fill="#000000" stroke="#000000" points="1236.3854,-1237.4921 1245.5469,-1232.1707 1235.0665,-1230.6175 1236.3854,-1237.4921"/>
<text text-anchor="middle" x="1020.9279" y="-1244.8" font-family="Times,serif" font-size="14.00" fill="#000000">rdf:type</text>
</g>
<!-- Rdcmitype:Location -->
<g id="node6" class="node">
<title>Rdcmitype:Location</title>
<ellipse fill="none" stroke="#0000ff" cx="1288.0617" cy="-1168" rx="77.1866" ry="18"/>
<text text-anchor="middle" x="1288.0617" y="-1164.3" font-family="Times,serif" font-size="14.00" fill="#000000">dcmitype:Location</text>
</g>
<!-- B_:node1f26ai8ibx13&#45;&gt;Rdcmitype:Location -->
<g id="edge5" class="edge">
<title>B_:node1f26ai8ibx13&#45;&gt;Rdcmitype:Location</title>
<path fill="none" stroke="#000000" d="M844.0737,-916.7668C869.039,-916.1682 913.5005,-919.2595 936.4279,-946 963.8897,-978.0289 924.6494,-1105.1129 954.4279,-1135 971.554,-1152.1885 1107.9217,-1160.9861 1200.9256,-1165.0313"/>
<polygon fill="#000000" stroke="#000000" points="1201.0544,-1168.5398 1211.1936,-1165.4664 1201.3508,-1161.5461 1201.0544,-1168.5398"/>
<text text-anchor="middle" x="1020.9279" y="-1161.8" font-family="Times,serif" font-size="14.00" fill="#000000">rdf:type</text>
</g>
<!-- Rdcterms:Location -->
<g id="node7" class="node">
<title>Rdcterms:Location</title>
<ellipse fill="none" stroke="#0000ff" cx="1288.0617" cy="-1114" rx="72.5877" ry="18"/>
<text text-anchor="middle" x="1288.0617" y="-1110.3" font-family="Times,serif" font-size="14.00" fill="#000000">dcterms:Location</text>
</g>
<!-- B_:node1f26ai8ibx13&#45;&gt;Rdcterms:Location -->
<g id="edge6" class="edge">
<title>B_:node1f26ai8ibx13&#45;&gt;Rdcterms:Location</title>
<path fill="none" stroke="#000000" d="M843.9453,-916.8789C868.758,-916.4134 913.0393,-919.6619 936.4279,-946 977.4981,-992.2495 909.8249,-1041.1474 954.4279,-1084 989.2717,-1117.4763 1119.453,-1120.1335 1206.5229,-1117.8764"/>
<polygon fill="#000000" stroke="#000000" points="1206.758,-1121.3712 1216.6538,-1117.5868 1206.5579,-1114.3741 1206.758,-1121.3712"/>
<text text-anchor="middle" x="1020.9279" y="-1119.8" font-family="Times,serif" font-size="14.00" fill="#000000">rdf:type</text>
</g>
<!-- Rdwc:Location -->
<g id="node8" class="node">
<title>Rdwc:Location</title>
<ellipse fill="none" stroke="#0000ff" cx="1288.0617" cy="-1060" rx="59.2899" ry="18"/>
<text text-anchor="middle" x="1288.0617" y="-1056.3" font-family="Times,serif" font-size="14.00" fill="#000000">dwc:Location</text>
</g>
<!-- B_:node1f26ai8ibx13&#45;&gt;Rdwc:Location -->
<g id="edge7" class="edge">
<title>B_:node1f26ai8ibx13&#45;&gt;Rdwc:Location</title>
<path fill="none" stroke="#000000" d="M844.2413,-917.3886C868.5821,-917.6071 911.4328,-921.7463 936.4279,-946 957.3268,-966.279 932.6324,-989.6879 954.4279,-1009 1028.6712,-1074.7839 1150.6183,-1075.8665 1224.7122,-1069.0524"/>
<polygon fill="#000000" stroke="#000000" points="1225.2355,-1072.5178 1234.8396,-1068.0445 1224.5421,-1065.5522 1225.2355,-1072.5178"/>
<text text-anchor="middle" x="1020.9279" y="-1068.8" font-family="Times,serif" font-size="14.00" fill="#000000">rdf:type</text>
</g>
<!-- Roa:TextualBody -->
<g id="node9" class="node">
<title>Roa:TextualBody</title>
<ellipse fill="none" stroke="#0000ff" cx="1288.0617" cy="-1006" rx="67.6881" ry="18"/>
<text text-anchor="middle" x="1288.0617" y="-1002.3" font-family="Times,serif" font-size="14.00" fill="#000000">oa:TextualBody</text>
</g>
<!-- B_:node1f26ai8ibx13&#45;&gt;Roa:TextualBody -->
<g id="edge8" class="edge">
<title>B_:node1f26ai8ibx13&#45;&gt;Roa:TextualBody</title>
<path fill="none" stroke="#000000" d="M843.7723,-920.6019C866.1384,-924.2912 905.3232,-932.1804 936.4279,-946 945.2145,-949.9038 945.448,-954.564 954.4279,-958 1037.9953,-989.9757 1140.7555,-1000.8782 1209.971,-1004.4736"/>
<polygon fill="#000000" stroke="#000000" points="1210.202,-1007.9886 1220.3582,-1004.9714 1210.5372,-1000.9967 1210.202,-1007.9886"/>
<text text-anchor="middle" x="1020.9279" y="-993.8" font-family="Times,serif" font-size="14.00" fill="#000000">rdf:type</text>
</g>
<!-- Ltext/plain -->
<g id="node10" class="node">
<title>Ltext/plain</title>
<polygon fill="none" stroke="#000000" points="1254.0617,-933 1254.0617,-969 1322.0617,-969 1322.0617,-933 1254.0617,-933"/>
<text text-anchor="middle" x="1288.0617" y="-947.3" font-family="Times,serif" font-size="14.00" fill="#000000">text/plain</text>
</g>
<!-- B_:node1f26ai8ibx13&#45;&gt;Ltext/plain -->
<g id="edge9" class="edge">
<title>B_:node1f26ai8ibx13&#45;&gt;Ltext/plain</title>
<path fill="none" stroke="#000000" d="M844.2218,-919.8831C869.1263,-922.408 915.116,-926.9278 954.4279,-930 1058.0179,-938.0955 1179.8932,-945.1387 1243.8136,-948.642"/>
<polygon fill="#000000" stroke="#000000" points="1243.7613,-952.1443 1253.937,-949.1938 1244.1424,-945.1547 1243.7613,-952.1443"/>
<text text-anchor="middle" x="1020.9279" y="-942.8" font-family="Times,serif" font-size="14.00" fill="#000000">dcterms:format</text>
</g>
<!-- Rgn:1648473 -->
<g id="node11" class="node">
<title>Rgn:1648473</title>
<ellipse fill="none" stroke="#0000ff" cx="1288.0617" cy="-896" rx="52.7911" ry="18"/>
<text text-anchor="middle" x="1288.0617" y="-892.3" font-family="Times,serif" font-size="14.00" fill="#000000">gn:1648473</text>
</g>
<!-- B_:node1f26ai8ibx13&#45;&gt;Rgn:1648473 -->
<g id="edge10" class="edge">
<title>B_:node1f26ai8ibx13&#45;&gt;Rgn:1648473</title>
<path fill="none" stroke="#000000" d="M844.0535,-917.1376C907.0375,-914.1391 1118.445,-904.0748 1225.2222,-898.9916"/>
<polygon fill="#000000" stroke="#000000" points="1225.7095,-902.4724 1235.5317,-898.5008 1225.3766,-895.4803 1225.7095,-902.4724"/>
<text text-anchor="middle" x="1020.9279" y="-914.8" font-family="Times,serif" font-size="14.00" fill="#000000">dcterms:identifier</text>
</g>
<!-- B_:node1f26ai8ibx13&#45;&gt;Rgn:1648473 -->
<g id="edge12" class="edge">
<title>B_:node1f26ai8ibx13&#45;&gt;Rgn:1648473</title>
<path fill="none" stroke="#000000" d="M843.1423,-912.2855C867.558,-904.5063 913.8124,-890.9815 954.4279,-886 1049.7585,-874.3077 1161.4968,-881.9469 1228.438,-888.7871"/>
<polygon fill="#000000" stroke="#000000" points="1228.0739,-892.268 1238.3848,-889.8314 1228.805,-885.3063 1228.0739,-892.268"/>
<text text-anchor="middle" x="1020.9279" y="-889.8" font-family="Times,serif" font-size="14.00" fill="#000000">dwciri:inDescribedPlace</text>
</g>
<!-- Riso:dut -->
<g id="node12" class="node">
<title>Riso:dut</title>
<ellipse fill="none" stroke="#0000ff" cx="1288.0617" cy="-842" rx="34.394" ry="18"/>
<text text-anchor="middle" x="1288.0617" y="-838.3" font-family="Times,serif" font-size="14.00" fill="#000000">iso:dut</text>
</g>
<!-- B_:node1f26ai8ibx13&#45;&gt;Riso:dut -->
<g id="edge11" class="edge">
<title>B_:node1f26ai8ibx13&#45;&gt;Riso:dut</title>
<path fill="none" stroke="#000000" d="M841.4784,-908.6822C864.9775,-895.1374 911.3875,-870.4851 954.4279,-860 1055.5953,-835.3545 1178.9267,-836.4215 1243.5975,-839.2596"/>
<polygon fill="#000000" stroke="#000000" points="1243.684,-842.7676 1253.8388,-839.7459 1244.0161,-835.7755 1243.684,-842.7676"/>
<text text-anchor="middle" x="1020.9279" y="-863.8" font-family="Times,serif" font-size="14.00" fill="#000000">dcterms:language</text>
</g>
<!-- LBuitenzorg|Language: dut -->
<g id="node13" class="node">
<title>LBuitenzorg|Language: dut</title>
<polygon fill="none" stroke="#000000" points="1240.5617,-759 1240.5617,-805 1335.5617,-805 1335.5617,-759 1240.5617,-759"/>
<text text-anchor="middle" x="1288.0617" y="-789.8" font-family="Times,serif" font-size="14.00" fill="#000000">Buitenzorg</text>
<polyline fill="none" stroke="#000000" points="1240.5617,-782 1335.5617,-782 "/>
<text text-anchor="middle" x="1288.0617" y="-766.8" font-family="Times,serif" font-size="14.00" fill="#000000">Language: dut</text>
</g>
<!-- B_:node1f26ai8ibx13&#45;&gt;LBuitenzorg|Language: dut -->
<g id="edge13" class="edge">
<title>B_:node1f26ai8ibx13&#45;&gt;LBuitenzorg|Language: dut</title>
<path fill="none" stroke="#000000" d="M838.7182,-904.7066C860.3001,-883.1969 906.3387,-841.235 954.4279,-822 1045.8765,-785.4218 1161.8162,-779.6927 1230.1679,-780.032"/>
<polygon fill="#000000" stroke="#000000" points="1230.2753,-783.5331 1240.3083,-780.1289 1230.3423,-776.5334 1230.2753,-783.5331"/>
<text text-anchor="middle" x="1020.9279" y="-825.8" font-family="Times,serif" font-size="14.00" fill="#000000">dwc:verbatimLocality</text>
</g>
<!-- B_:node1f26ai8ibx13&#45;&gt;LBuitenzorg|Language: dut -->
<g id="edge14" class="edge">
<title>B_:node1f26ai8ibx13&#45;&gt;LBuitenzorg|Language: dut</title>
<path fill="none" stroke="#000000" d="M834.096,-901.5934C851.195,-869.3152 894.245,-798.328 954.4279,-771 1002.0444,-749.3782 1148.3352,-763.7088 1230.5105,-774.0466"/>
<polygon fill="#000000" stroke="#000000" points="1230.0834,-777.5204 1240.4465,-775.3164 1230.9709,-770.5768 1230.0834,-777.5204"/>
<text text-anchor="middle" x="1020.9279" y="-774.8" font-family="Times,serif" font-size="14.00" fill="#000000">rdf:value</text>
</g>
<!-- Roa:Target -->
<g id="node15" class="node">
<title>Roa:Target</title>
<ellipse fill="none" stroke="#0000ff" cx="1288.0617" cy="-722" rx="44.393" ry="18"/>
<text text-anchor="middle" x="1288.0617" y="-718.3" font-family="Times,serif" font-size="14.00" fill="#000000">oa:Target</text>
</g>
<!-- B_:node1f26ai8ibx12&#45;&gt;Roa:Target -->
<g id="edge16" class="edge">
<title>B_:node1f26ai8ibx12&#45;&gt;Roa:Target</title>
<path fill="none" stroke="#000000" d="M844.0535,-696.0584C908.8293,-699.843 1130.5936,-712.7998 1234.0752,-718.8458"/>
<polygon fill="#000000" stroke="#000000" points="1234.1201,-722.3543 1244.3073,-719.4436 1234.5285,-715.3662 1234.1201,-722.3543"/>
<text text-anchor="middle" x="1020.9279" y="-713.8" font-family="Times,serif" font-size="14.00" fill="#000000">rdf:type</text>
</g>
<!-- Limage/jpeg -->
<g id="node16" class="node">
<title>Limage/jpeg</title>
<polygon fill="none" stroke="#000000" points="1249.5617,-649 1249.5617,-685 1326.5617,-685 1326.5617,-649 1249.5617,-649"/>
<text text-anchor="middle" x="1288.0617" y="-663.3" font-family="Times,serif" font-size="14.00" fill="#000000">image/jpeg</text>
</g>
<!-- B_:node1f26ai8ibx12&#45;&gt;Limage/jpeg -->
<g id="edge17" class="edge">
<title>B_:node1f26ai8ibx12&#45;&gt;Limage/jpeg</title>
<path fill="none" stroke="#000000" d="M844.2154,-693.0308C869.1126,-690.4084 915.0942,-685.7785 954.4279,-683 1055.5239,-675.8588 1174.0825,-671.0109 1239.142,-668.6534"/>
<polygon fill="#000000" stroke="#000000" points="1239.6296,-672.1383 1249.498,-668.2829 1239.3792,-665.1428 1239.6296,-672.1383"/>
<text text-anchor="middle" x="1020.9279" y="-686.8" font-family="Times,serif" font-size="14.00" fill="#000000">dcterms:format</text>
</g>
<!-- B_:node1f26ai8ibx15 -->
<g id="node17" class="node">
<title>B_:node1f26ai8ibx15</title>
<ellipse fill="none" stroke="#00ff00" cx="1288.0617" cy="-612" rx="18" ry="18"/>
</g>
<!-- B_:node1f26ai8ibx12&#45;&gt;B_:node1f26ai8ibx15 -->
<g id="edge18" class="edge">
<title>B_:node1f26ai8ibx12&#45;&gt;B_:node1f26ai8ibx15</title>
<path fill="none" stroke="#000000" d="M844.1665,-692.5377C866.5986,-689.0639 905.5114,-681.5785 936.4279,-668 945.2311,-664.1337 945.428,-659.3831 954.4279,-656 1061.8052,-615.6364 1200.7315,-611.3055 1259.6474,-611.4789"/>
<polygon fill="#000000" stroke="#000000" points="1259.9846,-614.9815 1270.0117,-611.5601 1260.0395,-607.9817 1259.9846,-614.9815"/>
<text text-anchor="middle" x="1020.9279" y="-659.8" font-family="Times,serif" font-size="14.00" fill="#000000">oa:hasSelector</text>
</g>
<!-- Rimg:MMNAT01_AF_NNM001001033_003.jpg -->
<g id="node21" class="node">
<title>Rimg:MMNAT01_AF_NNM001001033_003.jpg</title>
<ellipse fill="none" stroke="#0000ff" cx="1288.0617" cy="-449" rx="182.7677" ry="18"/>
<text text-anchor="middle" x="1288.0617" y="-445.3" font-family="Times,serif" font-size="14.00" fill="#000000">img:MMNAT01_AF_NNM001001033_003.jpg</text>
</g>
<!-- B_:node1f26ai8ibx12&#45;&gt;Rimg:MMNAT01_AF_NNM001001033_003.jpg -->
<g id="edge22" class="edge">
<title>B_:node1f26ai8ibx12&#45;&gt;Rimg:MMNAT01_AF_NNM001001033_003.jpg</title>
<path fill="none" stroke="#000000" d="M844.2117,-695.7815C868.5189,-695.7882 911.3316,-692.0424 936.4279,-668 957.1475,-648.1504 935.7952,-627.8204 954.4279,-606 1018.4795,-530.9902 1126.2912,-489.3993 1201.9825,-468.1721"/>
<polygon fill="#000000" stroke="#000000" points="1203.2563,-471.4522 1211.9766,-465.4349 1201.4072,-464.7008 1203.2563,-471.4522"/>
<text text-anchor="middle" x="1020.9279" y="-609.8" font-family="Times,serif" font-size="14.00" fill="#000000">oa:hasSource</text>
</g>
<!-- Roa:FragmentSelector -->
<g id="node18" class="node">
<title>Roa:FragmentSelector</title>
<ellipse fill="none" stroke="#0000ff" cx="1908.6955" cy="-694" rx="84.485" ry="18"/>
<text text-anchor="middle" x="1908.6955" y="-690.3" font-family="Times,serif" font-size="14.00" fill="#000000">oa:FragmentSelector</text>
</g>
<!-- B_:node1f26ai8ibx15&#45;&gt;Roa:FragmentSelector -->
<g id="edge19" class="edge">
<title>B_:node1f26ai8ibx15&#45;&gt;Roa:FragmentSelector</title>
<path fill="none" stroke="#000000" d="M1306.1475,-613.6146C1339.1714,-616.7961 1411.3044,-624.8267 1470.6955,-639 1478.8979,-640.9575 1480.5102,-642.9723 1488.6955,-645 1599.0503,-672.3381 1729.593,-684.5321 1815.5117,-689.9001"/>
<polygon fill="#000000" stroke="#000000" points="1815.3098,-693.3942 1825.5034,-690.5061 1815.7336,-686.407 1815.3098,-693.3942"/>
<text text-anchor="middle" x="1546.1955" y="-670.8" font-family="Times,serif" font-size="14.00" fill="#000000">rdf:type</text>
</g>
<!-- Rmf: -->
<g id="node19" class="node">
<title>Rmf:</title>
<ellipse fill="none" stroke="#0000ff" cx="1908.6955" cy="-640" rx="27" ry="18"/>
<text text-anchor="middle" x="1908.6955" y="-636.3" font-family="Times,serif" font-size="14.00" fill="#000000">mf:</text>
</g>
<!-- B_:node1f26ai8ibx15&#45;&gt;Rmf: -->
<g id="edge20" class="edge">
<title>B_:node1f26ai8ibx15&#45;&gt;Rmf:</title>
<path fill="none" stroke="#000000" d="M1306.3,-612.8228C1391.7315,-616.6771 1753.1285,-632.9816 1871.2035,-638.3085"/>
<polygon fill="#000000" stroke="#000000" points="1871.387,-641.8203 1881.5347,-638.7746 1871.7026,-634.8274 1871.387,-641.8203"/>
<text text-anchor="middle" x="1546.1955" y="-629.8" font-family="Times,serif" font-size="14.00" fill="#000000">dcterms:conformsTo</text>
</g>
<!-- Lxywh=0.783509282340829,0.018142248666184174,0.050441826215022134,0.017488954344624445 -->
<g id="node20" class="node">
<title>Lxywh=0.783509282340829,0.018142248666184174,0.050441826215022134,0.017488954344624445</title>
<polygon fill="none" stroke="#000000" points="1621.6955,-567 1621.6955,-603 2195.6955,-603 2195.6955,-567 1621.6955,-567"/>
<text text-anchor="middle" x="1908.6955" y="-581.3" font-family="Times,serif" font-size="14.00" fill="#000000">xywh=0.783509282340829,0.018142248666184174,0.050441826215022134,0.017488954344624445</text>
</g>
<!-- B_:node1f26ai8ibx15&#45;&gt;Lxywh=0.783509282340829,0.018142248666184174,0.050441826215022134,0.017488954344624445 -->
<g id="edge21" class="edge">
<title>B_:node1f26ai8ibx15&#45;&gt;Lxywh=0.783509282340829,0.018142248666184174,0.050441826215022134,0.017488954344624445</title>
<path fill="none" stroke="#000000" d="M1306.0459,-611.1812C1341.1569,-609.5853 1421.2921,-605.9561 1488.6955,-603 1528.3534,-601.2607 1570.1187,-599.448 1611.3055,-597.6715"/>
<polygon fill="#000000" stroke="#000000" points="1611.6402,-601.1604 1621.4801,-597.2328 1611.3386,-594.1669 1611.6402,-601.1604"/>
<text text-anchor="middle" x="1546.1955" y="-606.8" font-family="Times,serif" font-size="14.00" fill="#000000">rdf:value</text>
</g>
<!-- Rdcmitype:StillImage -->
<g id="node24" class="node">
<title>Rdcmitype:StillImage</title>
<ellipse fill="none" stroke="#0000ff" cx="1908.6955" cy="-530" rx="83.3857" ry="18"/>
<text text-anchor="middle" x="1908.6955" y="-526.3" font-family="Times,serif" font-size="14.00" fill="#000000">dcmitype:StillImage</text>
</g>
<!-- Rimg:MMNAT01_AF_NNM001001033_003.jpg&#45;&gt;Rdcmitype:StillImage -->
<g id="edge25" class="edge">
<title>Rimg:MMNAT01_AF_NNM001001033_003.jpg&#45;&gt;Rdcmitype:StillImage</title>
<path fill="none" stroke="#000000" d="M1381.4416,-464.4867C1415.2248,-470.0558 1453.6708,-476.3545 1488.6955,-482 1547.7764,-491.523 1562.3205,-495.5271 1621.6955,-503 1688.0943,-511.3569 1763.4338,-518.3503 1820.257,-523.1244"/>
<polygon fill="#000000" stroke="#000000" points="1820.0298,-526.6175 1830.286,-523.9602 1820.6112,-519.6417 1820.0298,-526.6175"/>
<text text-anchor="middle" x="1546.1955" y="-504.8" font-family="Times,serif" font-size="14.00" fill="#000000">rdf:type</text>
</g>
<!-- Rdsw:Token -->
<g id="node25" class="node">
<title>Rdsw:Token</title>
<ellipse fill="none" stroke="#0000ff" cx="1908.6955" cy="-476" rx="50.0912" ry="18"/>
<text text-anchor="middle" x="1908.6955" y="-472.3" font-family="Times,serif" font-size="14.00" fill="#000000">dsw:Token</text>
</g>
<!-- Rimg:MMNAT01_AF_NNM001001033_003.jpg&#45;&gt;Rdsw:Token -->
<g id="edge26" class="edge">
<title>Rimg:MMNAT01_AF_NNM001001033_003.jpg&#45;&gt;Rdsw:Token</title>
<path fill="none" stroke="#000000" d="M1455.1966,-456.271C1585.5273,-461.9409 1759.0157,-469.4883 1848.9484,-473.4008"/>
<polygon fill="#000000" stroke="#000000" points="1848.8241,-476.8986 1858.9668,-473.8366 1849.1284,-469.9052 1848.8241,-476.8986"/>
<text text-anchor="middle" x="1546.1955" y="-466.8" font-family="Times,serif" font-size="14.00" fill="#000000">rdf:type</text>
</g>
<!-- Rdwc:HumanObservation -->
<g id="node26" class="node">
<title>Rdwc:HumanObservation</title>
<ellipse fill="none" stroke="#0000ff" cx="1908.6955" cy="-422" rx="96.6831" ry="18"/>
<text text-anchor="middle" x="1908.6955" y="-418.3" font-family="Times,serif" font-size="14.00" fill="#000000">dwc:HumanObservation</text>
</g>
<!-- Rimg:MMNAT01_AF_NNM001001033_003.jpg&#45;&gt;Rdwc:HumanObservation -->
<g id="edge27" class="edge">
<title>Rimg:MMNAT01_AF_NNM001001033_003.jpg&#45;&gt;Rdwc:HumanObservation</title>
<path fill="none" stroke="#000000" d="M1450.6637,-440.7666C1463.5312,-440.1544 1476.3273,-439.5585 1488.6955,-439 1595.8786,-434.1598 1718.4786,-429.272 1803.4348,-425.9877"/>
<polygon fill="#000000" stroke="#000000" points="1803.7476,-429.4784 1813.6052,-425.5953 1803.4776,-422.4836 1803.7476,-429.4784"/>
<text text-anchor="middle" x="1546.1955" y="-442.8" font-family="Times,serif" font-size="14.00" fill="#000000">rdf:type</text>
</g>
<!-- Roa:Source -->
<g id="node27" class="node">
<title>Roa:Source</title>
<ellipse fill="none" stroke="#0000ff" cx="1908.6955" cy="-368" rx="46.2923" ry="18"/>
<text text-anchor="middle" x="1908.6955" y="-364.3" font-family="Times,serif" font-size="14.00" fill="#000000">oa:Source</text>
</g>
<!-- Rimg:MMNAT01_AF_NNM001001033_003.jpg&#45;&gt;Roa:Source -->
<g id="edge28" class="edge">
<title>Rimg:MMNAT01_AF_NNM001001033_003.jpg&#45;&gt;Roa:Source</title>
<path fill="none" stroke="#000000" d="M1381.4416,-433.5133C1415.2248,-427.9442 1453.6708,-421.6455 1488.6955,-416 1547.7764,-406.477 1562.3205,-402.4729 1621.6955,-395 1702.0299,-384.8892 1795.4516,-376.7743 1853.3338,-372.1708"/>
<polygon fill="#000000" stroke="#000000" points="1853.671,-375.6552 1863.3649,-371.3799 1853.1207,-368.6768 1853.671,-375.6552"/>
<text text-anchor="middle" x="1546.1955" y="-419.8" font-family="Times,serif" font-size="14.00" fill="#000000">rdf:type</text>
</g>
<!-- Rfoaf:Image -->
<g id="node28" class="node">
<title>Rfoaf:Image</title>
<ellipse fill="none" stroke="#0000ff" cx="1908.6955" cy="-314" rx="50.0912" ry="18"/>
<text text-anchor="middle" x="1908.6955" y="-310.3" font-family="Times,serif" font-size="14.00" fill="#000000">foaf:Image</text>
</g>
<!-- Rimg:MMNAT01_AF_NNM001001033_003.jpg&#45;&gt;Rfoaf:Image -->
<g id="edge29" class="edge">
<title>Rimg:MMNAT01_AF_NNM001001033_003.jpg&#45;&gt;Rfoaf:Image</title>
<path fill="none" stroke="#000000" d="M1335.6388,-431.5357C1376.1299,-416.881 1435.9456,-395.7226 1488.6955,-379 1547.2977,-360.4221 1561.2799,-352.3718 1621.6955,-341 1699.2945,-326.3938 1790.2581,-319.5358 1848.637,-316.4235"/>
<polygon fill="#000000" stroke="#000000" points="1848.9827,-319.9105 1858.7901,-315.9025 1848.6239,-312.9197 1848.9827,-319.9105"/>
<text text-anchor="middle" x="1546.1955" y="-382.8" font-family="Times,serif" font-size="14.00" fill="#000000">rdf:type</text>
</g>
</g>
</svg>
