<?xml version="1.0" encoding="UTF-8" standalone="no"?>
<!DOCTYPE svg PUBLIC "-//W3C//DTD SVG 1.1//EN"
 "http://www.w3.org/Graphics/SVG/1.1/DTD/svg11.dtd">
<!-- Generated by graphviz version 2.40.1 (20161225.0304)
 -->
<!-- Title: %3 Pages: 1 -->
<svg width="2146pt" height="976pt"
 viewBox="0.00 0.00 2145.90 975.50" xmlns="http://www.w3.org/2000/svg" xmlns:xlink="http://www.w3.org/1999/xlink">
<g id="graph0" class="graph" transform="scale(1 1) rotate(0) translate(4 971.5)">
<title>%3</title>
<polygon fill="#ffffff" stroke="transparent" points="-4,4 -4,-971.5 2141.8962,-971.5 2141.8962,4 -4,4"/>
<text text-anchor="middle" x="1068.9481" y="-218.8" font-family="Times,serif" font-size="14.00" fill="#000000">Model:</text>
<text text-anchor="middle" x="1068.9481" y="-203.8" font-family="Times,serif" font-size="14.00" fill="#000000">(Unknown)</text>
<text text-anchor="middle" x="1068.9481" y="-172.8" font-family="Times,serif" font-size="14.00" fill="#000000">Namespaces:</text>
<text text-anchor="middle" x="1068.9481" y="-157.8" font-family="Times,serif" font-size="14.00" fill="#000000">dcmitype: http://purl.org/dc/dcmitype/</text>
<text text-anchor="middle" x="1068.9481" y="-142.8" font-family="Times,serif" font-size="14.00" fill="#000000">dcterms: http://purl.org/dc/terms/</text>
<text text-anchor="middle" x="1068.9481" y="-127.8" font-family="Times,serif" font-size="14.00" fill="#000000">dsw: http://purl.org/dsw/</text>
<text text-anchor="middle" x="1068.9481" y="-112.8" font-family="Times,serif" font-size="14.00" fill="#000000">dwc: http://rs.tdwg.org/dwc/terms/</text>
<text text-anchor="middle" x="1068.9481" y="-97.8" font-family="Times,serif" font-size="14.00" fill="#000000">foaf: http://xmlns.com/foaf/0.1/</text>
<text text-anchor="middle" x="1068.9481" y="-82.8" font-family="Times,serif" font-size="14.00" fill="#000000">img: http://localhost:8080/semanticAnnotator/files/</text>
<text text-anchor="middle" x="1068.9481" y="-67.8" font-family="Times,serif" font-size="14.00" fill="#000000">iso: http://iso639&#45;3.sil.org/code/</text>
<text text-anchor="middle" x="1068.9481" y="-52.8" font-family="Times,serif" font-size="14.00" fill="#000000">mf: http://www.w3.org/TR/media&#45;frags/</text>
<text text-anchor="middle" x="1068.9481" y="-37.8" font-family="Times,serif" font-size="14.00" fill="#000000">oa: http://www.w3.org/ns/oa#</text>
<text text-anchor="middle" x="1068.9481" y="-22.8" font-family="Times,serif" font-size="14.00" fill="#000000">orcid: http://orcid.org/</text>
<text text-anchor="middle" x="1068.9481" y="-7.8" font-family="Times,serif" font-size="14.00" fill="#000000">rdf: http://www.w3.org/1999/02/22&#45;rdf&#45;syntax&#45;ns#</text>
<!-- Rhttp://localhost:8080/rdf/nc/annotation/c1e419cf&#45;6a12&#45;44f9&#45;a1a1&#45;e91a6ba6fd48 -->
<g id="node1" class="node">
<title>Rhttp://localhost:8080/rdf/nc/annotation/c1e419cf&#45;6a12&#45;44f9&#45;a1a1&#45;e91a6ba6fd48</title>
<ellipse fill="none" stroke="#0000ff" cx="291.8241" cy="-732.5" rx="291.6483" ry="18"/>
<text text-anchor="middle" x="291.8241" y="-728.8" font-family="Times,serif" font-size="14.00" fill="#000000">http://localhost:8080/rdf/nc/annotation/c1e419cf&#45;6a12&#45;44f9&#45;a1a1&#45;e91a6ba6fd48</text>
</g>
<!-- Roa:Annotation -->
<g id="node2" class="node">
<title>Roa:Annotation</title>
<ellipse fill="none" stroke="#0000ff" cx="818.1384" cy="-865.5" rx="61.1893" ry="18"/>
<text text-anchor="middle" x="818.1384" y="-861.8" font-family="Times,serif" font-size="14.00" fill="#000000">oa:Annotation</text>
</g>
<!-- Rhttp://localhost:8080/rdf/nc/annotation/c1e419cf&#45;6a12&#45;44f9&#45;a1a1&#45;e91a6ba6fd48&#45;&gt;Roa:Annotation -->
<g id="edge1" class="edge">
<title>Rhttp://localhost:8080/rdf/nc/annotation/c1e419cf&#45;6a12&#45;44f9&#45;a1a1&#45;e91a6ba6fd48&#45;&gt;Roa:Annotation</title>
<path fill="none" stroke="#000000" d="M359.8378,-750.0584C442.1394,-771.2544 584.9492,-807.8702 707.6482,-838.5 724.945,-842.8179 743.7837,-847.4482 760.9254,-851.6337"/>
<polygon fill="#000000" stroke="#000000" points="760.2532,-855.0722 770.7977,-854.0409 761.9115,-848.2715 760.2532,-855.0722"/>
<text text-anchor="middle" x="645.6482" y="-836.3" font-family="Times,serif" font-size="14.00" fill="#000000">rdf:type</text>
</g>
<!-- Rorcid:0000&#45;0002&#45;2146&#45;4803 -->
<g id="node3" class="node">
<title>Rorcid:0000&#45;0002&#45;2146&#45;4803</title>
<ellipse fill="none" stroke="#0000ff" cx="818.1384" cy="-811.5" rx="110.4804" ry="18"/>
<text text-anchor="middle" x="818.1384" y="-807.8" font-family="Times,serif" font-size="14.00" fill="#000000">orcid:0000&#45;0002&#45;2146&#45;4803</text>
</g>
<!-- Rhttp://localhost:8080/rdf/nc/annotation/c1e419cf&#45;6a12&#45;44f9&#45;a1a1&#45;e91a6ba6fd48&#45;&gt;Rorcid:0000&#45;0002&#45;2146&#45;4803 -->
<g id="edge2" class="edge">
<title>Rhttp://localhost:8080/rdf/nc/annotation/c1e419cf&#45;6a12&#45;44f9&#45;a1a1&#45;e91a6ba6fd48&#45;&gt;Rorcid:0000&#45;0002&#45;2146&#45;4803</title>
<path fill="none" stroke="#000000" d="M402.7987,-749.1573C499.0183,-763.5999 636.5944,-784.2502 726.6257,-797.7639"/>
<polygon fill="#000000" stroke="#000000" points="726.1369,-801.2297 736.5457,-799.2529 727.1761,-794.3072 726.1369,-801.2297"/>
<text text-anchor="middle" x="645.6482" y="-793.3" font-family="Times,serif" font-size="14.00" fill="#000000">dcterms:creator</text>
</g>
<!-- L2021&#45;01&#45;12T14:23:11.646Z|Datatype: dcterms:W3CDTF -->
<g id="node4" class="node">
<title>L2021&#45;01&#45;12T14:23:11.646Z|Datatype: dcterms:W3CDTF</title>
<polygon fill="none" stroke="#000000" points="730.6384,-728.5 730.6384,-774.5 905.6384,-774.5 905.6384,-728.5 730.6384,-728.5"/>
<text text-anchor="middle" x="818.1384" y="-759.3" font-family="Times,serif" font-size="14.00" fill="#000000">2021&#45;01&#45;12T14:23:11.646Z</text>
<polyline fill="none" stroke="#000000" points="730.6384,-751.5 905.6384,-751.5 "/>
<text text-anchor="middle" x="818.1384" y="-736.3" font-family="Times,serif" font-size="14.00" fill="#000000">Datatype: dcterms:W3CDTF</text>
</g>
<!-- Rhttp://localhost:8080/rdf/nc/annotation/c1e419cf&#45;6a12&#45;44f9&#45;a1a1&#45;e91a6ba6fd48&#45;&gt;L2021&#45;01&#45;12T14:23:11.646Z|Datatype: dcterms:W3CDTF -->
<g id="edge3" class="edge">
<title>Rhttp://localhost:8080/rdf/nc/annotation/c1e419cf&#45;6a12&#45;44f9&#45;a1a1&#45;e91a6ba6fd48&#45;&gt;L2021&#45;01&#45;12T14:23:11.646Z|Datatype: dcterms:W3CDTF</title>
<path fill="none" stroke="#000000" d="M543.8052,-741.5965C606.5524,-743.8617 670.1484,-746.1575 720.2892,-747.9676"/>
<polygon fill="#000000" stroke="#000000" points="720.3362,-751.4715 730.456,-748.3347 720.5888,-744.4761 720.3362,-751.4715"/>
<text text-anchor="middle" x="645.6482" y="-750.3" font-family="Times,serif" font-size="14.00" fill="#000000">dcterms:date</text>
</g>
<!-- B_:node1evfesn2mx9 -->
<g id="node5" class="node">
<title>B_:node1evfesn2mx9</title>
<ellipse fill="none" stroke="#00ff00" cx="818.1384" cy="-691.5" rx="18" ry="18"/>
</g>
<!-- Rhttp://localhost:8080/rdf/nc/annotation/c1e419cf&#45;6a12&#45;44f9&#45;a1a1&#45;e91a6ba6fd48&#45;&gt;B_:node1evfesn2mx9 -->
<g id="edge4" class="edge">
<title>Rhttp://localhost:8080/rdf/nc/annotation/c1e419cf&#45;6a12&#45;44f9&#45;a1a1&#45;e91a6ba6fd48&#45;&gt;B_:node1evfesn2mx9</title>
<path fill="none" stroke="#000000" d="M473.32,-718.3614C590.2861,-709.2497 731.1431,-698.277 790.0755,-693.6861"/>
<polygon fill="#000000" stroke="#000000" points="790.4039,-697.1712 800.1018,-692.9051 789.8602,-690.1924 790.4039,-697.1712"/>
<text text-anchor="middle" x="645.6482" y="-712.3" font-family="Times,serif" font-size="14.00" fill="#000000">oa:hasBody</text>
</g>
<!-- B_:node1evfesn2mx8 -->
<g id="node13" class="node">
<title>B_:node1evfesn2mx8</title>
<ellipse fill="none" stroke="#00ff00" cx="818.1384" cy="-520.5" rx="18" ry="18"/>
</g>
<!-- Rhttp://localhost:8080/rdf/nc/annotation/c1e419cf&#45;6a12&#45;44f9&#45;a1a1&#45;e91a6ba6fd48&#45;&gt;B_:node1evfesn2mx8 -->
<g id="edge12" class="edge">
<title>Rhttp://localhost:8080/rdf/nc/annotation/c1e419cf&#45;6a12&#45;44f9&#45;a1a1&#45;e91a6ba6fd48&#45;&gt;B_:node1evfesn2mx8</title>
<path fill="none" stroke="#000000" d="M336.2438,-714.6077C442.2188,-671.9208 707.3171,-565.139 791.8203,-531.101"/>
<polygon fill="#000000" stroke="#000000" points="793.2394,-534.3027 801.2075,-527.3198 790.624,-527.8096 793.2394,-534.3027"/>
<text text-anchor="middle" x="645.6482" y="-612.3" font-family="Times,serif" font-size="14.00" fill="#000000">oa:hasTarget</text>
</g>
<!-- Roa:describing -->
<g id="node20" class="node">
<title>Roa:describing</title>
<ellipse fill="none" stroke="#0000ff" cx="818.1384" cy="-466.5" rx="57.6901" ry="18"/>
<text text-anchor="middle" x="818.1384" y="-462.8" font-family="Times,serif" font-size="14.00" fill="#000000">oa:describing</text>
</g>
<!-- Rhttp://localhost:8080/rdf/nc/annotation/c1e419cf&#45;6a12&#45;44f9&#45;a1a1&#45;e91a6ba6fd48&#45;&gt;Roa:describing -->
<g id="edge20" class="edge">
<title>Rhttp://localhost:8080/rdf/nc/annotation/c1e419cf&#45;6a12&#45;44f9&#45;a1a1&#45;e91a6ba6fd48&#45;&gt;Roa:describing</title>
<path fill="none" stroke="#000000" d="M317.2671,-714.411C380.3636,-670.346 550.3301,-556.4557 707.6482,-493.5 723.5136,-487.151 741.2787,-482.009 757.8462,-477.9837"/>
<polygon fill="#000000" stroke="#000000" points="759.0354,-481.3003 767.9793,-475.6208 757.4457,-474.4832 759.0354,-481.3003"/>
<text text-anchor="middle" x="645.6482" y="-541.3" font-family="Times,serif" font-size="14.00" fill="#000000">oa:motivatedBy</text>
</g>
<!-- Rfoaf:Person -->
<g id="node21" class="node">
<title>Rfoaf:Person</title>
<ellipse fill="none" stroke="#0000ff" cx="1244.2624" cy="-944.5" rx="51.1914" ry="18"/>
<text text-anchor="middle" x="1244.2624" y="-940.8" font-family="Times,serif" font-size="14.00" fill="#000000">foaf:Person</text>
</g>
<!-- Rorcid:0000&#45;0002&#45;2146&#45;4803&#45;&gt;Rfoaf:Person -->
<g id="edge21" class="edge">
<title>Rorcid:0000&#45;0002&#45;2146&#45;4803&#45;&gt;Rfoaf:Person</title>
<path fill="none" stroke="#000000" d="M904.829,-822.6701C913.6374,-826.6001 921.8274,-831.7572 928.6286,-838.5 951.7467,-861.4196 922.1497,-888.0398 946.6286,-909.5 1013.3809,-968.0205 1123.3659,-964.0815 1189.303,-954.945"/>
<polygon fill="#000000" stroke="#000000" points="1190.1112,-958.3638 1199.4939,-953.4428 1189.0903,-951.4386 1190.1112,-958.3638"/>
<text text-anchor="middle" x="995.1286" y="-956.3" font-family="Times,serif" font-size="14.00" fill="#000000">rdf:type</text>
</g>
<!-- Rdsw:Token -->
<g id="node6" class="node">
<title>Rdsw:Token</title>
<ellipse fill="none" stroke="#0000ff" cx="1857.8962" cy="-663.5" rx="50.0912" ry="18"/>
<text text-anchor="middle" x="1857.8962" y="-659.8" font-family="Times,serif" font-size="14.00" fill="#000000">dsw:Token</text>
</g>
<!-- B_:node1evfesn2mx9&#45;&gt;Rdsw:Token -->
<g id="edge5" class="edge">
<title>B_:node1evfesn2mx9&#45;&gt;Rdsw:Token</title>
<path fill="none" stroke="#000000" d="M836.1354,-689.683C876.4546,-685.7031 977.1225,-676.2705 1061.6286,-672.5 1335.9488,-660.2605 1663.9236,-661.5957 1797.1647,-662.8091"/>
<polygon fill="#000000" stroke="#000000" points="1797.5237,-666.3125 1807.5563,-662.9071 1797.5898,-659.3128 1797.5237,-666.3125"/>
<text text-anchor="middle" x="1244.2624" y="-676.3" font-family="Times,serif" font-size="14.00" fill="#000000">rdf:type</text>
</g>
<!-- Rdwc:MeasurementOrFact -->
<g id="node7" class="node">
<title>Rdwc:MeasurementOrFact</title>
<ellipse fill="none" stroke="#0000ff" cx="1244.2624" cy="-609.5" rx="100.9827" ry="18"/>
<text text-anchor="middle" x="1244.2624" y="-605.8" font-family="Times,serif" font-size="14.00" fill="#000000">dwc:MeasurementOrFact</text>
</g>
<!-- B_:node1evfesn2mx9&#45;&gt;Rdwc:MeasurementOrFact -->
<g id="edge6" class="edge">
<title>B_:node1evfesn2mx9&#45;&gt;Rdwc:MeasurementOrFact</title>
<path fill="none" stroke="#000000" d="M833.7435,-682.5108C857.3247,-669.4137 903.8382,-645.4565 946.6286,-634.5 1007.1676,-618.999 1076.6678,-612.5521 1133.2758,-610.07"/>
<polygon fill="#000000" stroke="#000000" points="1133.4772,-613.5648 1143.3281,-609.6646 1133.1952,-606.5705 1133.4772,-613.5648"/>
<text text-anchor="middle" x="995.1286" y="-638.3" font-family="Times,serif" font-size="14.00" fill="#000000">rdf:type</text>
</g>
<!-- Roa:TextualBody -->
<g id="node8" class="node">
<title>Roa:TextualBody</title>
<ellipse fill="none" stroke="#0000ff" cx="1244.2624" cy="-890.5" rx="67.6881" ry="18"/>
<text text-anchor="middle" x="1244.2624" y="-886.8" font-family="Times,serif" font-size="14.00" fill="#000000">oa:TextualBody</text>
</g>
<!-- B_:node1evfesn2mx9&#45;&gt;Roa:TextualBody -->
<g id="edge7" class="edge">
<title>B_:node1evfesn2mx9&#45;&gt;Roa:TextualBody</title>
<path fill="none" stroke="#000000" d="M836.3888,-690.3346C861.0728,-689.8395 904.7513,-692.9755 928.6286,-718.5 960.3757,-752.4371 916.804,-785.8616 946.6286,-821.5 981.55,-863.2287 1008.8865,-850.1186 1061.6286,-863.5 1096.9631,-872.4648 1136.9494,-878.7932 1170.4799,-883.0583"/>
<polygon fill="#000000" stroke="#000000" points="1170.3127,-886.5642 1180.6663,-884.3163 1171.1707,-879.6169 1170.3127,-886.5642"/>
<text text-anchor="middle" x="995.1286" y="-862.3" font-family="Times,serif" font-size="14.00" fill="#000000">rdf:type</text>
</g>
<!-- Ltext/plain -->
<g id="node9" class="node">
<title>Ltext/plain</title>
<polygon fill="none" stroke="#000000" points="1210.2624,-817.5 1210.2624,-853.5 1278.2624,-853.5 1278.2624,-817.5 1210.2624,-817.5"/>
<text text-anchor="middle" x="1244.2624" y="-831.8" font-family="Times,serif" font-size="14.00" fill="#000000">text/plain</text>
</g>
<!-- B_:node1evfesn2mx9&#45;&gt;Ltext/plain -->
<g id="edge8" class="edge">
<title>B_:node1evfesn2mx9&#45;&gt;Ltext/plain</title>
<path fill="none" stroke="#000000" d="M836.2155,-690.9299C860.2996,-691.1627 902.8605,-695.1791 928.6286,-718.5 946.4505,-734.6294 929.4615,-752.6754 946.6286,-769.5 985.0732,-807.1775 1009.2869,-794.9331 1061.6286,-807.5 1108.2438,-818.692 1162.6751,-826.3591 1199.9099,-830.8026"/>
<polygon fill="#000000" stroke="#000000" points="1199.5973,-834.2898 1209.9352,-831.9706 1200.4075,-827.3368 1199.5973,-834.2898"/>
<text text-anchor="middle" x="995.1286" y="-806.3" font-family="Times,serif" font-size="14.00" fill="#000000">dcterms:format</text>
</g>
<!-- Riso:lat -->
<g id="node10" class="node">
<title>Riso:lat</title>
<ellipse fill="none" stroke="#0000ff" cx="1244.2624" cy="-780.5" rx="32.4942" ry="18"/>
<text text-anchor="middle" x="1244.2624" y="-776.8" font-family="Times,serif" font-size="14.00" fill="#000000">iso:lat</text>
</g>
<!-- B_:node1evfesn2mx9&#45;&gt;Riso:lat -->
<g id="edge9" class="edge">
<title>B_:node1evfesn2mx9&#45;&gt;Riso:lat</title>
<path fill="none" stroke="#000000" d="M835.9409,-695.0965C857.9433,-699.7135 896.4229,-708.351 928.6286,-718.5 936.8154,-721.0799 938.4302,-722.9572 946.6286,-725.5 1035.4025,-753.0338 1143.5906,-768.776 1201.9848,-775.8767"/>
<polygon fill="#000000" stroke="#000000" points="1201.6059,-779.3562 1211.9496,-777.0629 1202.4334,-772.4053 1201.6059,-779.3562"/>
<text text-anchor="middle" x="995.1286" y="-754.3" font-family="Times,serif" font-size="14.00" fill="#000000">dcterms:language</text>
</g>
<!-- Rimg:MMNAT01_AF_NNM001001033_003.jpg -->
<g id="node11" class="node">
<title>Rimg:MMNAT01_AF_NNM001001033_003.jpg</title>
<ellipse fill="none" stroke="#0000ff" cx="1244.2624" cy="-555.5" rx="182.7677" ry="18"/>
<text text-anchor="middle" x="1244.2624" y="-551.8" font-family="Times,serif" font-size="14.00" fill="#000000">img:MMNAT01_AF_NNM001001033_003.jpg</text>
</g>
<!-- B_:node1evfesn2mx9&#45;&gt;Rimg:MMNAT01_AF_NNM001001033_003.jpg -->
<g id="edge10" class="edge">
<title>B_:node1evfesn2mx9&#45;&gt;Rimg:MMNAT01_AF_NNM001001033_003.jpg</title>
<path fill="none" stroke="#000000" d="M831.0577,-678.757C852.8393,-658.1136 899.1585,-617.7358 946.6286,-598.5 986.5812,-582.3104 1031.7238,-572.091 1074.5523,-565.6748"/>
<polygon fill="#000000" stroke="#000000" points="1075.1144,-569.1301 1084.515,-564.2436 1074.1189,-562.2012 1075.1144,-569.1301"/>
<text text-anchor="middle" x="995.1286" y="-602.3" font-family="Times,serif" font-size="14.00" fill="#000000">dsw:derivedFrom</text>
</g>
<!-- LColor|Language: lat -->
<g id="node12" class="node">
<title>LColor|Language: lat</title>
<polygon fill="none" stroke="#000000" points="1198.7624,-697.5 1198.7624,-743.5 1289.7624,-743.5 1289.7624,-697.5 1198.7624,-697.5"/>
<text text-anchor="middle" x="1244.2624" y="-728.3" font-family="Times,serif" font-size="14.00" fill="#000000">Color</text>
<polyline fill="none" stroke="#000000" points="1198.7624,-720.5 1289.7624,-720.5 "/>
<text text-anchor="middle" x="1244.2624" y="-705.3" font-family="Times,serif" font-size="14.00" fill="#000000">Language: lat</text>
</g>
<!-- B_:node1evfesn2mx9&#45;&gt;LColor|Language: lat -->
<g id="edge11" class="edge">
<title>B_:node1evfesn2mx9&#45;&gt;LColor|Language: lat</title>
<path fill="none" stroke="#000000" d="M836.1762,-692.7276C896.243,-696.8154 1091.166,-710.081 1188.2527,-716.6882"/>
<polygon fill="#000000" stroke="#000000" points="1188.2499,-720.1961 1198.4645,-717.3832 1188.7253,-713.2122 1188.2499,-720.1961"/>
<text text-anchor="middle" x="995.1286" y="-710.3" font-family="Times,serif" font-size="14.00" fill="#000000">rdf:value</text>
</g>
<!-- Rimg:MMNAT01_AF_NNM001001033_003.jpg&#45;&gt;Rdsw:Token -->
<g id="edge23" class="edge">
<title>Rimg:MMNAT01_AF_NNM001001033_003.jpg&#45;&gt;Rdsw:Token</title>
<path fill="none" stroke="#000000" d="M1387.4715,-566.8021C1401.2257,-570.7784 1414.6098,-575.909 1426.8962,-582.5 1437.4344,-588.1532 1434.6645,-596.3093 1444.8962,-602.5 1497.0968,-634.0843 1517.797,-625.9852 1577.8962,-636.5 1653.1861,-649.6726 1741.0711,-656.8304 1798.0102,-660.4043"/>
<polygon fill="#000000" stroke="#000000" points="1798.0772,-663.9148 1808.2718,-661.0306 1798.5037,-656.9278 1798.0772,-663.9148"/>
<text text-anchor="middle" x="1502.3962" y="-637.3" font-family="Times,serif" font-size="14.00" fill="#000000">rdf:type</text>
</g>
<!-- Rdcmitype:StillImage -->
<g id="node22" class="node">
<title>Rdcmitype:StillImage</title>
<ellipse fill="none" stroke="#0000ff" cx="1857.8962" cy="-609.5" rx="83.3857" ry="18"/>
<text text-anchor="middle" x="1857.8962" y="-605.8" font-family="Times,serif" font-size="14.00" fill="#000000">dcmitype:StillImage</text>
</g>
<!-- Rimg:MMNAT01_AF_NNM001001033_003.jpg&#45;&gt;Rdcmitype:StillImage -->
<g id="edge22" class="edge">
<title>Rimg:MMNAT01_AF_NNM001001033_003.jpg&#45;&gt;Rdcmitype:StillImage</title>
<path fill="none" stroke="#000000" d="M1379.1614,-567.6497C1401.1315,-569.6149 1423.6461,-571.6206 1444.8962,-573.5 1557.2496,-583.4367 1686.8147,-594.6984 1770.4152,-601.9391"/>
<polygon fill="#000000" stroke="#000000" points="1770.3668,-605.448 1780.6315,-602.8238 1770.9707,-598.4741 1770.3668,-605.448"/>
<text text-anchor="middle" x="1502.3962" y="-587.3" font-family="Times,serif" font-size="14.00" fill="#000000">rdf:type</text>
</g>
<!-- Rdwc:HumanObservation -->
<g id="node23" class="node">
<title>Rdwc:HumanObservation</title>
<ellipse fill="none" stroke="#0000ff" cx="1857.8962" cy="-555.5" rx="96.6831" ry="18"/>
<text text-anchor="middle" x="1857.8962" y="-551.8" font-family="Times,serif" font-size="14.00" fill="#000000">dwc:HumanObservation</text>
</g>
<!-- Rimg:MMNAT01_AF_NNM001001033_003.jpg&#45;&gt;Rdwc:HumanObservation -->
<g id="edge24" class="edge">
<title>Rimg:MMNAT01_AF_NNM001001033_003.jpg&#45;&gt;Rdwc:HumanObservation</title>
<path fill="none" stroke="#000000" d="M1427.1264,-555.5C1532.562,-555.5 1661.4737,-555.5 1750.6519,-555.5"/>
<polygon fill="#000000" stroke="#000000" points="1750.7819,-559.0001 1760.7819,-555.5 1750.7818,-552.0001 1750.7819,-559.0001"/>
<text text-anchor="middle" x="1502.3962" y="-559.3" font-family="Times,serif" font-size="14.00" fill="#000000">rdf:type</text>
</g>
<!-- Roa:Source -->
<g id="node24" class="node">
<title>Roa:Source</title>
<ellipse fill="none" stroke="#0000ff" cx="1857.8962" cy="-501.5" rx="46.2923" ry="18"/>
<text text-anchor="middle" x="1857.8962" y="-497.8" font-family="Times,serif" font-size="14.00" fill="#000000">oa:Source</text>
</g>
<!-- Rimg:MMNAT01_AF_NNM001001033_003.jpg&#45;&gt;Roa:Source -->
<g id="edge25" class="edge">
<title>Rimg:MMNAT01_AF_NNM001001033_003.jpg&#45;&gt;Roa:Source</title>
<path fill="none" stroke="#000000" d="M1375.1032,-542.9213C1398.3469,-540.7403 1422.332,-538.5245 1444.8962,-536.5 1572.8183,-525.0228 1723.124,-512.536 1802.4175,-506.0265"/>
<polygon fill="#000000" stroke="#000000" points="1802.9795,-509.4923 1812.66,-505.1865 1802.4073,-502.5157 1802.9795,-509.4923"/>
<text text-anchor="middle" x="1502.3962" y="-540.3" font-family="Times,serif" font-size="14.00" fill="#000000">rdf:type</text>
</g>
<!-- Rfoaf:Image -->
<g id="node25" class="node">
<title>Rfoaf:Image</title>
<ellipse fill="none" stroke="#0000ff" cx="1857.8962" cy="-447.5" rx="50.0912" ry="18"/>
<text text-anchor="middle" x="1857.8962" y="-443.8" font-family="Times,serif" font-size="14.00" fill="#000000">foaf:Image</text>
</g>
<!-- Rimg:MMNAT01_AF_NNM001001033_003.jpg&#45;&gt;Rfoaf:Image -->
<g id="edge26" class="edge">
<title>Rimg:MMNAT01_AF_NNM001001033_003.jpg&#45;&gt;Rfoaf:Image</title>
<path fill="none" stroke="#000000" d="M1387.4715,-544.1979C1401.2257,-540.2216 1414.6098,-535.091 1426.8962,-528.5 1437.4344,-522.8468 1434.6645,-514.6907 1444.8962,-508.5 1497.0968,-476.9157 1517.797,-485.0148 1577.8962,-474.5 1653.1861,-461.3274 1741.0711,-454.1696 1798.0102,-450.5957"/>
<polygon fill="#000000" stroke="#000000" points="1798.5037,-454.0722 1808.2718,-449.9694 1798.0772,-447.0852 1798.5037,-454.0722"/>
<text text-anchor="middle" x="1502.3962" y="-512.3" font-family="Times,serif" font-size="14.00" fill="#000000">rdf:type</text>
</g>
<!-- B_:node1evfesn2mx8&#45;&gt;Rimg:MMNAT01_AF_NNM001001033_003.jpg -->
<g id="edge19" class="edge">
<title>B_:node1evfesn2mx8&#45;&gt;Rimg:MMNAT01_AF_NNM001001033_003.jpg</title>
<path fill="none" stroke="#000000" d="M836.1762,-521.9816C880.1627,-525.5944 996.4661,-535.1471 1093.7097,-543.1342"/>
<polygon fill="#000000" stroke="#000000" points="1093.7052,-546.6456 1103.9581,-543.976 1094.2782,-539.6691 1093.7052,-546.6456"/>
<text text-anchor="middle" x="995.1286" y="-542.3" font-family="Times,serif" font-size="14.00" fill="#000000">oa:hasSource</text>
</g>
<!-- Roa:Target -->
<g id="node14" class="node">
<title>Roa:Target</title>
<ellipse fill="none" stroke="#0000ff" cx="1244.2624" cy="-501.5" rx="44.393" ry="18"/>
<text text-anchor="middle" x="1244.2624" y="-497.8" font-family="Times,serif" font-size="14.00" fill="#000000">oa:Target</text>
</g>
<!-- B_:node1evfesn2mx8&#45;&gt;Roa:Target -->
<g id="edge13" class="edge">
<title>B_:node1evfesn2mx8&#45;&gt;Roa:Target</title>
<path fill="none" stroke="#000000" d="M835.9334,-517.2266C860.6603,-512.8571 906.8603,-505.3391 946.6286,-502.5 1031.2314,-496.46 1129.7057,-497.7545 1189.4808,-499.461"/>
<polygon fill="#000000" stroke="#000000" points="1189.7173,-502.9696 1199.8178,-499.7713 1189.9274,-495.9727 1189.7173,-502.9696"/>
<text text-anchor="middle" x="995.1286" y="-506.3" font-family="Times,serif" font-size="14.00" fill="#000000">rdf:type</text>
</g>
<!-- Limage/jpeg -->
<g id="node15" class="node">
<title>Limage/jpeg</title>
<polygon fill="none" stroke="#000000" points="1205.7624,-428.5 1205.7624,-464.5 1282.7624,-464.5 1282.7624,-428.5 1205.7624,-428.5"/>
<text text-anchor="middle" x="1244.2624" y="-442.8" font-family="Times,serif" font-size="14.00" fill="#000000">image/jpeg</text>
</g>
<!-- B_:node1evfesn2mx8&#45;&gt;Limage/jpeg -->
<g id="edge14" class="edge">
<title>B_:node1evfesn2mx8&#45;&gt;Limage/jpeg</title>
<path fill="none" stroke="#000000" d="M836.0598,-518.2857C858.5155,-515.0321 897.7927,-507.7383 928.6286,-493.5 937.5879,-489.3631 937.4268,-484.065 946.6286,-480.5 1029.8358,-448.264 1135.2024,-443.9657 1195.6501,-444.6366"/>
<polygon fill="#000000" stroke="#000000" points="1195.6218,-448.1365 1205.677,-444.7984 1195.7348,-441.1374 1195.6218,-448.1365"/>
<text text-anchor="middle" x="995.1286" y="-484.3" font-family="Times,serif" font-size="14.00" fill="#000000">dcterms:format</text>
</g>
<!-- B_:node1evfesn2mx11 -->
<g id="node16" class="node">
<title>B_:node1evfesn2mx11</title>
<ellipse fill="none" stroke="#00ff00" cx="1244.2624" cy="-365.5" rx="18" ry="18"/>
</g>
<!-- B_:node1evfesn2mx8&#45;&gt;B_:node1evfesn2mx11 -->
<g id="edge15" class="edge">
<title>B_:node1evfesn2mx8&#45;&gt;B_:node1evfesn2mx11</title>
<path fill="none" stroke="#000000" d="M836.3129,-521.1762C860.5074,-521.0636 903.193,-517.1831 928.6286,-493.5 947.7619,-475.685 927.4747,-455.2928 946.6286,-437.5 1023.1061,-366.4574 1157.3543,-362.0366 1215.7679,-363.8339"/>
<polygon fill="#000000" stroke="#000000" points="1215.9504,-367.3438 1226.0812,-364.2427 1216.2277,-360.3493 1215.9504,-367.3438"/>
<text text-anchor="middle" x="995.1286" y="-441.3" font-family="Times,serif" font-size="14.00" fill="#000000">oa:hasSelector</text>
</g>
<!-- Roa:FragmentSelector -->
<g id="node17" class="node">
<title>Roa:FragmentSelector</title>
<ellipse fill="none" stroke="#0000ff" cx="1857.8962" cy="-393.5" rx="84.485" ry="18"/>
<text text-anchor="middle" x="1857.8962" y="-389.8" font-family="Times,serif" font-size="14.00" fill="#000000">oa:FragmentSelector</text>
</g>
<!-- B_:node1evfesn2mx11&#45;&gt;Roa:FragmentSelector -->
<g id="edge16" class="edge">
<title>B_:node1evfesn2mx11&#45;&gt;Roa:FragmentSelector</title>
<path fill="none" stroke="#000000" d="M1262.295,-366.3228C1335.929,-369.6827 1616.9123,-382.5039 1765.1168,-389.2665"/>
<polygon fill="#000000" stroke="#000000" points="1764.9691,-392.7633 1775.1183,-389.7229 1765.2882,-385.7706 1764.9691,-392.7633"/>
<text text-anchor="middle" x="1502.3962" y="-383.3" font-family="Times,serif" font-size="14.00" fill="#000000">rdf:type</text>
</g>
<!-- Rmf: -->
<g id="node18" class="node">
<title>Rmf:</title>
<ellipse fill="none" stroke="#0000ff" cx="1857.8962" cy="-339.5" rx="27" ry="18"/>
<text text-anchor="middle" x="1857.8962" y="-335.8" font-family="Times,serif" font-size="14.00" fill="#000000">mf:</text>
</g>
<!-- B_:node1evfesn2mx11&#45;&gt;Rmf: -->
<g id="edge17" class="edge">
<title>B_:node1evfesn2mx11&#45;&gt;Rmf:</title>
<path fill="none" stroke="#000000" d="M1262.2462,-364.671C1297.3564,-363.0575 1377.4903,-359.3991 1444.8962,-356.5 1583.3321,-350.5459 1747.8902,-343.9024 1820.41,-340.9967"/>
<polygon fill="#000000" stroke="#000000" points="1820.9827,-344.4766 1830.8347,-340.5793 1820.7026,-337.4822 1820.9827,-344.4766"/>
<text text-anchor="middle" x="1502.3962" y="-360.3" font-family="Times,serif" font-size="14.00" fill="#000000">dcterms:conformsTo</text>
</g>
<!-- Lxywh=0.5575335827826557,0.16560174792980703,0.02356406480117823,0.02061855670103091 -->
<g id="node19" class="node">
<title>Lxywh=0.5575335827826557,0.16560174792980703,0.02356406480117823,0.02061855670103091</title>
<polygon fill="none" stroke="#000000" points="1577.8962,-266.5 1577.8962,-302.5 2137.8962,-302.5 2137.8962,-266.5 1577.8962,-266.5"/>
<text text-anchor="middle" x="1857.8962" y="-280.8" font-family="Times,serif" font-size="14.00" fill="#000000">xywh=0.5575335827826557,0.16560174792980703,0.02356406480117823,0.02061855670103091</text>
</g>
<!-- B_:node1evfesn2mx11&#45;&gt;Lxywh=0.5575335827826557,0.16560174792980703,0.02356406480117823,0.02061855670103091 -->
<g id="edge18" class="edge">
<title>B_:node1evfesn2mx11&#45;&gt;Lxywh=0.5575335827826557,0.16560174792980703,0.02356406480117823,0.02061855670103091</title>
<path fill="none" stroke="#000000" d="M1262.2457,-362.6221C1297.355,-357.0057 1377.4874,-344.1974 1444.8962,-333.5 1504,-324.1205 1518.5434,-320.1471 1577.8962,-312.5 1602.2779,-309.3586 1627.893,-306.3704 1653.3144,-303.5964"/>
<polygon fill="#000000" stroke="#000000" points="1653.8587,-307.0581 1663.4245,-302.5032 1653.1061,-300.0986 1653.8587,-307.0581"/>
<text text-anchor="middle" x="1502.3962" y="-337.3" font-family="Times,serif" font-size="14.00" fill="#000000">rdf:value</text>
</g>
</g>
</svg>
