<?xml version="1.0" encoding="UTF-8" standalone="no"?>
<!DOCTYPE svg PUBLIC "-//W3C//DTD SVG 1.1//EN"
 "http://www.w3.org/Graphics/SVG/1.1/DTD/svg11.dtd">
<!-- Generated by graphviz version 2.40.1 (20161225.0304)
 -->
<!-- Title: %3 Pages: 1 -->
<svg width="2155pt" height="1019pt"
 viewBox="0.00 0.00 2155.00 1019.00" xmlns="http://www.w3.org/2000/svg" xmlns:xlink="http://www.w3.org/1999/xlink">
<g id="graph0" class="graph" transform="scale(1 1) rotate(0) translate(4 1015)">
<title>%3</title>
<polygon fill="#ffffff" stroke="transparent" points="-4,4 -4,-1015 2150.9954,-1015 2150.9954,4 -4,4"/>
<text text-anchor="middle" x="1073.4977" y="-218.8" font-family="Times,serif" font-size="14.00" fill="#000000">Model:</text>
<text text-anchor="middle" x="1073.4977" y="-203.8" font-family="Times,serif" font-size="14.00" fill="#000000">(Unknown)</text>
<text text-anchor="middle" x="1073.4977" y="-172.8" font-family="Times,serif" font-size="14.00" fill="#000000">Namespaces:</text>
<text text-anchor="middle" x="1073.4977" y="-157.8" font-family="Times,serif" font-size="14.00" fill="#000000">dcmitype: http://purl.org/dc/dcmitype/</text>
<text text-anchor="middle" x="1073.4977" y="-142.8" font-family="Times,serif" font-size="14.00" fill="#000000">dcterms: http://purl.org/dc/terms/</text>
<text text-anchor="middle" x="1073.4977" y="-127.8" font-family="Times,serif" font-size="14.00" fill="#000000">dsw: http://purl.org/dsw/</text>
<text text-anchor="middle" x="1073.4977" y="-112.8" font-family="Times,serif" font-size="14.00" fill="#000000">dwc: http://rs.tdwg.org/dwc/terms/</text>
<text text-anchor="middle" x="1073.4977" y="-97.8" font-family="Times,serif" font-size="14.00" fill="#000000">foaf: http://xmlns.com/foaf/0.1/</text>
<text text-anchor="middle" x="1073.4977" y="-82.8" font-family="Times,serif" font-size="14.00" fill="#000000">img: http://localhost:8080/semanticAnnotator/files/</text>
<text text-anchor="middle" x="1073.4977" y="-67.8" font-family="Times,serif" font-size="14.00" fill="#000000">iso: http://iso639&#45;3.sil.org/code/</text>
<text text-anchor="middle" x="1073.4977" y="-52.8" font-family="Times,serif" font-size="14.00" fill="#000000">mf: http://www.w3.org/TR/media&#45;frags/</text>
<text text-anchor="middle" x="1073.4977" y="-37.8" font-family="Times,serif" font-size="14.00" fill="#000000">oa: http://www.w3.org/ns/oa#</text>
<text text-anchor="middle" x="1073.4977" y="-22.8" font-family="Times,serif" font-size="14.00" fill="#000000">orcid: http://orcid.org/</text>
<text text-anchor="middle" x="1073.4977" y="-7.8" font-family="Times,serif" font-size="14.00" fill="#000000">rdf: http://www.w3.org/1999/02/22&#45;rdf&#45;syntax&#45;ns#</text>
<!-- Rhttp://localhost:8080/rdf/nc/annotation/6ae963a1&#45;d336&#45;44f3&#45;b1b2&#45;a403abc90b07 -->
<g id="node1" class="node">
<title>Rhttp://localhost:8080/rdf/nc/annotation/6ae963a1&#45;d336&#45;44f3&#45;b1b2&#45;a403abc90b07</title>
<ellipse fill="none" stroke="#0000ff" cx="296.3737" cy="-860" rx="296.2475" ry="18"/>
<text text-anchor="middle" x="296.3737" y="-856.3" font-family="Times,serif" font-size="14.00" fill="#000000">http://localhost:8080/rdf/nc/annotation/6ae963a1&#45;d336&#45;44f3&#45;b1b2&#45;a403abc90b07</text>
</g>
<!-- Roa:Annotation -->
<g id="node2" class="node">
<title>Roa:Annotation</title>
<ellipse fill="none" stroke="#0000ff" cx="827.2376" cy="-993" rx="61.1893" ry="18"/>
<text text-anchor="middle" x="827.2376" y="-989.3" font-family="Times,serif" font-size="14.00" fill="#000000">oa:Annotation</text>
</g>
<!-- Rhttp://localhost:8080/rdf/nc/annotation/6ae963a1&#45;d336&#45;44f3&#45;b1b2&#45;a403abc90b07&#45;&gt;Roa:Annotation -->
<g id="edge1" class="edge">
<title>Rhttp://localhost:8080/rdf/nc/annotation/6ae963a1&#45;d336&#45;44f3&#45;b1b2&#45;a403abc90b07&#45;&gt;Roa:Annotation</title>
<path fill="none" stroke="#000000" d="M365.5138,-877.5995C448.7868,-898.7582 592.9301,-935.2614 716.7474,-966 734.0498,-970.2955 752.8901,-974.9192 770.0317,-979.1055"/>
<polygon fill="#000000" stroke="#000000" points="769.3589,-982.544 779.9036,-981.514 771.0181,-975.7434 769.3589,-982.544"/>
<text text-anchor="middle" x="654.7474" y="-963.8" font-family="Times,serif" font-size="14.00" fill="#000000">rdf:type</text>
</g>
<!-- Rorcid:0000&#45;0002&#45;2146&#45;4803 -->
<g id="node3" class="node">
<title>Rorcid:0000&#45;0002&#45;2146&#45;4803</title>
<ellipse fill="none" stroke="#0000ff" cx="827.2376" cy="-939" rx="110.4804" ry="18"/>
<text text-anchor="middle" x="827.2376" y="-935.3" font-family="Times,serif" font-size="14.00" fill="#000000">orcid:0000&#45;0002&#45;2146&#45;4803</text>
</g>
<!-- Rhttp://localhost:8080/rdf/nc/annotation/6ae963a1&#45;d336&#45;44f3&#45;b1b2&#45;a403abc90b07&#45;&gt;Rorcid:0000&#45;0002&#45;2146&#45;4803 -->
<g id="edge2" class="edge">
<title>Rhttp://localhost:8080/rdf/nc/annotation/6ae963a1&#45;d336&#45;44f3&#45;b1b2&#45;a403abc90b07&#45;&gt;Rorcid:0000&#45;0002&#45;2146&#45;4803</title>
<path fill="none" stroke="#000000" d="M408.6318,-876.7056C505.8552,-891.1738 644.7606,-911.8449 735.4588,-925.342"/>
<polygon fill="#000000" stroke="#000000" points="735.0447,-928.8189 745.451,-926.829 736.0751,-921.8951 735.0447,-928.8189"/>
<text text-anchor="middle" x="654.7474" y="-920.8" font-family="Times,serif" font-size="14.00" fill="#000000">dcterms:creator</text>
</g>
<!-- L2021&#45;01&#45;12T14:23:11.646Z|Datatype: dcterms:W3CDTF -->
<g id="node4" class="node">
<title>L2021&#45;01&#45;12T14:23:11.646Z|Datatype: dcterms:W3CDTF</title>
<polygon fill="none" stroke="#000000" points="739.7376,-856 739.7376,-902 914.7376,-902 914.7376,-856 739.7376,-856"/>
<text text-anchor="middle" x="827.2376" y="-886.8" font-family="Times,serif" font-size="14.00" fill="#000000">2021&#45;01&#45;12T14:23:11.646Z</text>
<polyline fill="none" stroke="#000000" points="739.7376,-879 914.7376,-879 "/>
<text text-anchor="middle" x="827.2376" y="-863.8" font-family="Times,serif" font-size="14.00" fill="#000000">Datatype: dcterms:W3CDTF</text>
</g>
<!-- Rhttp://localhost:8080/rdf/nc/annotation/6ae963a1&#45;d336&#45;44f3&#45;b1b2&#45;a403abc90b07&#45;&gt;L2021&#45;01&#45;12T14:23:11.646Z|Datatype: dcterms:W3CDTF -->
<g id="edge3" class="edge">
<title>Rhttp://localhost:8080/rdf/nc/annotation/6ae963a1&#45;d336&#45;44f3&#45;b1b2&#45;a403abc90b07&#45;&gt;L2021&#45;01&#45;12T14:23:11.646Z|Datatype: dcterms:W3CDTF</title>
<path fill="none" stroke="#000000" d="M552.0872,-869.1522C615.2735,-871.4137 679.1952,-873.7015 729.5039,-875.502"/>
<polygon fill="#000000" stroke="#000000" points="729.5844,-879.0071 739.7032,-875.8671 729.8348,-872.0115 729.5844,-879.0071"/>
<text text-anchor="middle" x="654.7474" y="-876.8" font-family="Times,serif" font-size="14.00" fill="#000000">dcterms:date</text>
</g>
<!-- B_:node1euqlam8lx233 -->
<g id="node5" class="node">
<title>B_:node1euqlam8lx233</title>
<ellipse fill="none" stroke="#00ff00" cx="827.2376" cy="-819" rx="18" ry="18"/>
</g>
<!-- Rhttp://localhost:8080/rdf/nc/annotation/6ae963a1&#45;d336&#45;44f3&#45;b1b2&#45;a403abc90b07&#45;&gt;B_:node1euqlam8lx233 -->
<g id="edge4" class="edge">
<title>Rhttp://localhost:8080/rdf/nc/annotation/6ae963a1&#45;d336&#45;44f3&#45;b1b2&#45;a403abc90b07&#45;&gt;B_:node1euqlam8lx233</title>
<path fill="none" stroke="#000000" d="M479.8103,-845.8327C597.7427,-836.7245 739.6217,-825.7668 798.9754,-821.1828"/>
<polygon fill="#000000" stroke="#000000" points="799.3725,-824.6626 809.0733,-820.4029 798.8335,-817.6834 799.3725,-824.6626"/>
<text text-anchor="middle" x="654.7474" y="-837.8" font-family="Times,serif" font-size="14.00" fill="#000000">oa:hasBody</text>
</g>
<!-- B_:node1euqlam8lx232 -->
<g id="node11" class="node">
<title>B_:node1euqlam8lx232</title>
<ellipse fill="none" stroke="#00ff00" cx="827.2376" cy="-665" rx="18" ry="18"/>
</g>
<!-- Rhttp://localhost:8080/rdf/nc/annotation/6ae963a1&#45;d336&#45;44f3&#45;b1b2&#45;a403abc90b07&#45;&gt;B_:node1euqlam8lx232 -->
<g id="edge11" class="edge">
<title>Rhttp://localhost:8080/rdf/nc/annotation/6ae963a1&#45;d336&#45;44f3&#45;b1b2&#45;a403abc90b07&#45;&gt;B_:node1euqlam8lx232</title>
<path fill="none" stroke="#000000" d="M344.8916,-842.1781C453.9862,-802.1048 715.7114,-705.9664 800.345,-674.8783"/>
<polygon fill="#000000" stroke="#000000" points="801.8069,-678.0701 809.9869,-671.3366 799.3933,-671.4993 801.8069,-678.0701"/>
<text text-anchor="middle" x="654.7474" y="-742.8" font-family="Times,serif" font-size="14.00" fill="#000000">oa:hasTarget</text>
</g>
<!-- Roa:describing -->
<g id="node19" class="node">
<title>Roa:describing</title>
<ellipse fill="none" stroke="#0000ff" cx="827.2376" cy="-611" rx="57.6901" ry="18"/>
<text text-anchor="middle" x="827.2376" y="-607.3" font-family="Times,serif" font-size="14.00" fill="#000000">oa:describing</text>
</g>
<!-- Rhttp://localhost:8080/rdf/nc/annotation/6ae963a1&#45;d336&#45;44f3&#45;b1b2&#45;a403abc90b07&#45;&gt;Roa:describing -->
<g id="edge19" class="edge">
<title>Rhttp://localhost:8080/rdf/nc/annotation/6ae963a1&#45;d336&#45;44f3&#45;b1b2&#45;a403abc90b07&#45;&gt;Roa:describing</title>
<path fill="none" stroke="#000000" d="M324.7703,-841.8138C390.9569,-800.152 561.652,-696.8697 716.7474,-638 732.8768,-631.8778 750.8658,-626.7896 767.5666,-622.7427"/>
<polygon fill="#000000" stroke="#000000" points="768.8297,-626.0419 777.7706,-620.3576 767.2364,-619.2256 768.8297,-626.0419"/>
<text text-anchor="middle" x="654.7474" y="-681.8" font-family="Times,serif" font-size="14.00" fill="#000000">oa:motivatedBy</text>
</g>
<!-- Rfoaf:Person -->
<g id="node7" class="node">
<title>Rfoaf:Person</title>
<ellipse fill="none" stroke="#0000ff" cx="1253.3616" cy="-978" rx="51.1914" ry="18"/>
<text text-anchor="middle" x="1253.3616" y="-974.3" font-family="Times,serif" font-size="14.00" fill="#000000">foaf:Person</text>
</g>
<!-- Rorcid:0000&#45;0002&#45;2146&#45;4803&#45;&gt;Rfoaf:Person -->
<g id="edge20" class="edge">
<title>Rorcid:0000&#45;0002&#45;2146&#45;4803&#45;&gt;Rfoaf:Person</title>
<path fill="none" stroke="#000000" d="M908.3569,-951.2255C924.05,-953.3466 940.3827,-955.3858 955.7278,-957 1037.421,-965.5939 1132.1096,-971.5988 1192.3479,-974.9246"/>
<polygon fill="#000000" stroke="#000000" points="1192.2718,-978.4256 1202.4475,-975.4749 1192.6527,-971.4359 1192.2718,-978.4256"/>
<text text-anchor="middle" x="1004.2278" y="-968.8" font-family="Times,serif" font-size="14.00" fill="#000000">rdf:type</text>
</g>
<!-- Roa:TextualBody -->
<g id="node6" class="node">
<title>Roa:TextualBody</title>
<ellipse fill="none" stroke="#0000ff" cx="1253.3616" cy="-922" rx="67.6881" ry="18"/>
<text text-anchor="middle" x="1253.3616" y="-918.3" font-family="Times,serif" font-size="14.00" fill="#000000">oa:TextualBody</text>
</g>
<!-- B_:node1euqlam8lx233&#45;&gt;Roa:TextualBody -->
<g id="edge5" class="edge">
<title>B_:node1euqlam8lx233&#45;&gt;Roa:TextualBody</title>
<path fill="none" stroke="#000000" d="M845.4843,-820.7707C868.2756,-823.6024 907.899,-830.607 937.7278,-847 947.3714,-852.2998 946.1246,-858.6275 955.7278,-864 1023.7287,-902.0432 1112.5896,-915.4839 1175.4585,-920.0537"/>
<polygon fill="#000000" stroke="#000000" points="1175.4977,-923.564 1185.7085,-920.7372 1175.9635,-916.5795 1175.4977,-923.564"/>
<text text-anchor="middle" x="1004.2278" y="-902.8" font-family="Times,serif" font-size="14.00" fill="#000000">rdf:type</text>
</g>
<!-- B_:node1euqlam8lx233&#45;&gt;Rfoaf:Person -->
<g id="edge6" class="edge">
<title>B_:node1euqlam8lx233&#45;&gt;Rfoaf:Person</title>
<path fill="none" stroke="#000000" d="M845.2335,-818.2783C869.6221,-818.3296 912.9595,-822.2341 937.7278,-847 960.748,-870.0179 932.1972,-895.5041 955.7278,-918 987.5449,-948.418 1011.784,-921.8388 1052.7278,-938 1061.4486,-941.4422 1061.9304,-945.7586 1070.7278,-949 1109.6617,-963.345 1155.8329,-970.5972 1192.0104,-974.262"/>
<polygon fill="#000000" stroke="#000000" points="1192.1301,-977.7889 1202.4152,-975.2458 1192.7891,-970.8199 1192.1301,-977.7889"/>
<text text-anchor="middle" x="1004.2278" y="-941.8" font-family="Times,serif" font-size="14.00" fill="#000000">rdf:type</text>
</g>
<!-- Ltext/plain -->
<g id="node8" class="node">
<title>Ltext/plain</title>
<polygon fill="none" stroke="#000000" points="1219.3616,-849 1219.3616,-885 1287.3616,-885 1287.3616,-849 1219.3616,-849"/>
<text text-anchor="middle" x="1253.3616" y="-863.3" font-family="Times,serif" font-size="14.00" fill="#000000">text/plain</text>
</g>
<!-- B_:node1euqlam8lx233&#45;&gt;Ltext/plain -->
<g id="edge7" class="edge">
<title>B_:node1euqlam8lx233&#45;&gt;Ltext/plain</title>
<path fill="none" stroke="#000000" d="M845.1024,-821.3207C869.9104,-824.5214 916.204,-830.4148 955.7278,-835 1045.5794,-845.4237 1150.8322,-856.4653 1209.0112,-862.4664"/>
<polygon fill="#000000" stroke="#000000" points="1208.6621,-865.9488 1218.968,-863.4916 1209.3791,-858.9856 1208.6621,-865.9488"/>
<text text-anchor="middle" x="1004.2278" y="-848.8" font-family="Times,serif" font-size="14.00" fill="#000000">dcterms:format</text>
</g>
<!-- Riso:und -->
<g id="node9" class="node">
<title>Riso:und</title>
<ellipse fill="none" stroke="#0000ff" cx="1253.3616" cy="-812" rx="36.2938" ry="18"/>
<text text-anchor="middle" x="1253.3616" y="-808.3" font-family="Times,serif" font-size="14.00" fill="#000000">iso:und</text>
</g>
<!-- B_:node1euqlam8lx233&#45;&gt;Riso:und -->
<g id="edge8" class="edge">
<title>B_:node1euqlam8lx233&#45;&gt;Riso:und</title>
<path fill="none" stroke="#000000" d="M845.2754,-818.7037C907.3427,-817.6841 1113.3983,-814.2992 1206.718,-812.7662"/>
<polygon fill="#000000" stroke="#000000" points="1206.783,-816.2657 1216.7241,-812.6018 1206.6679,-809.2667 1206.783,-816.2657"/>
<text text-anchor="middle" x="1004.2278" y="-819.8" font-family="Times,serif" font-size="14.00" fill="#000000">dcterms:language</text>
</g>
<!-- LDiard|Language: und -->
<g id="node10" class="node">
<title>LDiard|Language: und</title>
<polygon fill="none" stroke="#000000" points="1204.3616,-729 1204.3616,-775 1302.3616,-775 1302.3616,-729 1204.3616,-729"/>
<text text-anchor="middle" x="1253.3616" y="-759.8" font-family="Times,serif" font-size="14.00" fill="#000000">Diard</text>
<polyline fill="none" stroke="#000000" points="1204.3616,-752 1302.3616,-752 "/>
<text text-anchor="middle" x="1253.3616" y="-736.8" font-family="Times,serif" font-size="14.00" fill="#000000">Language: und</text>
</g>
<!-- B_:node1euqlam8lx233&#45;&gt;LDiard|Language: und -->
<g id="edge9" class="edge">
<title>B_:node1euqlam8lx233&#45;&gt;LDiard|Language: und</title>
<path fill="none" stroke="#000000" d="M845.0845,-815.6287C869.8716,-810.9867 916.1411,-802.4676 955.7278,-796 1038.3276,-782.5049 1134.1273,-768.666 1194.2447,-760.2003"/>
<polygon fill="#000000" stroke="#000000" points="1194.8948,-763.6434 1204.3106,-758.7861 1193.9209,-756.7115 1194.8948,-763.6434"/>
<text text-anchor="middle" x="1004.2278" y="-799.8" font-family="Times,serif" font-size="14.00" fill="#000000">rdf:value</text>
</g>
<!-- B_:node1euqlam8lx233&#45;&gt;LDiard|Language: und -->
<g id="edge10" class="edge">
<title>B_:node1euqlam8lx233&#45;&gt;LDiard|Language: und</title>
<path fill="none" stroke="#000000" d="M842.7753,-809.7333C866.2707,-796.2823 912.6758,-771.8788 955.7278,-762 1036.7094,-743.4177 1133.3065,-744.2247 1194.0018,-747.4005"/>
<polygon fill="#000000" stroke="#000000" points="1193.9844,-750.905 1204.1652,-747.9722 1194.3776,-743.916 1193.9844,-750.905"/>
<text text-anchor="middle" x="1004.2278" y="-765.8" font-family="Times,serif" font-size="14.00" fill="#000000">foaf:name</text>
</g>
<!-- Roa:Target -->
<g id="node12" class="node">
<title>Roa:Target</title>
<ellipse fill="none" stroke="#0000ff" cx="1253.3616" cy="-692" rx="44.393" ry="18"/>
<text text-anchor="middle" x="1253.3616" y="-688.3" font-family="Times,serif" font-size="14.00" fill="#000000">oa:Target</text>
</g>
<!-- B_:node1euqlam8lx232&#45;&gt;Roa:Target -->
<g id="edge12" class="edge">
<title>B_:node1euqlam8lx232&#45;&gt;Roa:Target</title>
<path fill="none" stroke="#000000" d="M845.2754,-666.1429C905.8007,-669.9779 1103.249,-682.4886 1199.5581,-688.5909"/>
<polygon fill="#000000" stroke="#000000" points="1199.4701,-692.0923 1209.6715,-689.2317 1199.9128,-685.1063 1199.4701,-692.0923"/>
<text text-anchor="middle" x="1004.2278" y="-681.8" font-family="Times,serif" font-size="14.00" fill="#000000">rdf:type</text>
</g>
<!-- Limage/jpeg -->
<g id="node13" class="node">
<title>Limage/jpeg</title>
<polygon fill="none" stroke="#000000" points="1214.8616,-619 1214.8616,-655 1291.8616,-655 1291.8616,-619 1214.8616,-619"/>
<text text-anchor="middle" x="1253.3616" y="-633.3" font-family="Times,serif" font-size="14.00" fill="#000000">image/jpeg</text>
</g>
<!-- B_:node1euqlam8lx232&#45;&gt;Limage/jpeg -->
<g id="edge13" class="edge">
<title>B_:node1euqlam8lx232&#45;&gt;Limage/jpeg</title>
<path fill="none" stroke="#000000" d="M845.5238,-663.2703C870.4307,-660.9519 916.4232,-656.8043 955.7278,-654 1043.3903,-647.7454 1145.7087,-642.3087 1204.6719,-639.3567"/>
<polygon fill="#000000" stroke="#000000" points="1204.9975,-642.8449 1214.8111,-638.8522 1204.6495,-635.8536 1204.9975,-642.8449"/>
<text text-anchor="middle" x="1004.2278" y="-657.8" font-family="Times,serif" font-size="14.00" fill="#000000">dcterms:format</text>
</g>
<!-- B_:node1euqlam8lx235 -->
<g id="node14" class="node">
<title>B_:node1euqlam8lx235</title>
<ellipse fill="none" stroke="#00ff00" cx="1253.3616" cy="-582" rx="18" ry="18"/>
</g>
<!-- B_:node1euqlam8lx232&#45;&gt;B_:node1euqlam8lx235 -->
<g id="edge14" class="edge">
<title>B_:node1euqlam8lx232&#45;&gt;B_:node1euqlam8lx235</title>
<path fill="none" stroke="#000000" d="M845.2071,-661.8937C867.3779,-657.7708 906.0273,-649.6312 937.7278,-638 946.1247,-634.9191 947.2317,-631.7959 955.7278,-629 1051.2618,-597.5615 1171.1684,-586.8356 1224.9595,-583.4433"/>
<polygon fill="#000000" stroke="#000000" points="1225.3306,-586.9276 1235.1061,-582.8422 1224.9165,-579.9398 1225.3306,-586.9276"/>
<text text-anchor="middle" x="1004.2278" y="-632.8" font-family="Times,serif" font-size="14.00" fill="#000000">oa:hasSelector</text>
</g>
<!-- Rimg:MMNAT01_AF_NNM001001033_003.jpg -->
<g id="node18" class="node">
<title>Rimg:MMNAT01_AF_NNM001001033_003.jpg</title>
<ellipse fill="none" stroke="#0000ff" cx="1253.3616" cy="-419" rx="182.7677" ry="18"/>
<text text-anchor="middle" x="1253.3616" y="-415.3" font-family="Times,serif" font-size="14.00" fill="#000000">img:MMNAT01_AF_NNM001001033_003.jpg</text>
</g>
<!-- B_:node1euqlam8lx232&#45;&gt;Rimg:MMNAT01_AF_NNM001001033_003.jpg -->
<g id="edge18" class="edge">
<title>B_:node1euqlam8lx232&#45;&gt;Rimg:MMNAT01_AF_NNM001001033_003.jpg</title>
<path fill="none" stroke="#000000" d="M845.3354,-665.5929C869.443,-665.3859 912.0303,-661.3987 937.7278,-638 955.8111,-621.5343 940.0406,-604.7626 955.7278,-586 1017.7609,-511.8054 1121.6846,-464.3334 1188.8634,-439.6694"/>
<polygon fill="#000000" stroke="#000000" points="1190.2788,-442.8797 1198.499,-436.1955 1187.9046,-436.2946 1190.2788,-442.8797"/>
<text text-anchor="middle" x="1004.2278" y="-589.8" font-family="Times,serif" font-size="14.00" fill="#000000">oa:hasSource</text>
</g>
<!-- Roa:FragmentSelector -->
<g id="node15" class="node">
<title>Roa:FragmentSelector</title>
<ellipse fill="none" stroke="#0000ff" cx="1866.9954" cy="-664" rx="84.485" ry="18"/>
<text text-anchor="middle" x="1866.9954" y="-660.3" font-family="Times,serif" font-size="14.00" fill="#000000">oa:FragmentSelector</text>
</g>
<!-- B_:node1euqlam8lx235&#45;&gt;Roa:FragmentSelector -->
<g id="edge15" class="edge">
<title>B_:node1euqlam8lx235&#45;&gt;Roa:FragmentSelector</title>
<path fill="none" stroke="#000000" d="M1271.4474,-583.6146C1304.4713,-586.7961 1376.6043,-594.8267 1435.9954,-609 1444.1978,-610.9575 1445.8101,-612.9723 1453.9954,-615 1561.9206,-641.7362 1689.4429,-654.0372 1773.9354,-659.5952"/>
<polygon fill="#000000" stroke="#000000" points="1773.8188,-663.0948 1784.0218,-660.2401 1774.2655,-656.1091 1773.8188,-663.0948"/>
<text text-anchor="middle" x="1511.4954" y="-640.8" font-family="Times,serif" font-size="14.00" fill="#000000">rdf:type</text>
</g>
<!-- Rmf: -->
<g id="node16" class="node">
<title>Rmf:</title>
<ellipse fill="none" stroke="#0000ff" cx="1866.9954" cy="-610" rx="27" ry="18"/>
<text text-anchor="middle" x="1866.9954" y="-606.3" font-family="Times,serif" font-size="14.00" fill="#000000">mf:</text>
</g>
<!-- B_:node1euqlam8lx235&#45;&gt;Rmf: -->
<g id="edge16" class="edge">
<title>B_:node1euqlam8lx235&#45;&gt;Rmf:</title>
<path fill="none" stroke="#000000" d="M1271.3942,-582.8228C1355.7661,-586.6727 1712.3713,-602.9445 1829.5273,-608.2903"/>
<polygon fill="#000000" stroke="#000000" points="1829.6348,-611.7988 1839.784,-608.7583 1829.9539,-604.8061 1829.6348,-611.7988"/>
<text text-anchor="middle" x="1511.4954" y="-599.8" font-family="Times,serif" font-size="14.00" fill="#000000">dcterms:conformsTo</text>
</g>
<!-- Lxywh=0.7453283007676283,0.08173359870928262,0.02509760712606801,0.01573687798175072 -->
<g id="node17" class="node">
<title>Lxywh=0.7453283007676283,0.08173359870928262,0.02509760712606801,0.01573687798175072</title>
<polygon fill="none" stroke="#000000" points="1586.9954,-537 1586.9954,-573 2146.9954,-573 2146.9954,-537 1586.9954,-537"/>
<text text-anchor="middle" x="1866.9954" y="-551.3" font-family="Times,serif" font-size="14.00" fill="#000000">xywh=0.7453283007676283,0.08173359870928262,0.02509760712606801,0.01573687798175072</text>
</g>
<!-- B_:node1euqlam8lx235&#45;&gt;Lxywh=0.7453283007676283,0.08173359870928262,0.02509760712606801,0.01573687798175072 -->
<g id="edge17" class="edge">
<title>B_:node1euqlam8lx235&#45;&gt;Lxywh=0.7453283007676283,0.08173359870928262,0.02509760712606801,0.01573687798175072</title>
<path fill="none" stroke="#000000" d="M1271.346,-581.1856C1306.4573,-579.5973 1386.5931,-575.9806 1453.9954,-573 1493.6553,-571.2462 1535.4582,-569.4099 1576.6263,-567.6087"/>
<polygon fill="#000000" stroke="#000000" points="1576.9575,-571.0977 1586.795,-567.164 1576.6516,-564.1044 1576.9575,-571.0977"/>
<text text-anchor="middle" x="1511.4954" y="-576.8" font-family="Times,serif" font-size="14.00" fill="#000000">rdf:value</text>
</g>
<!-- Rdcmitype:StillImage -->
<g id="node20" class="node">
<title>Rdcmitype:StillImage</title>
<ellipse fill="none" stroke="#0000ff" cx="1866.9954" cy="-500" rx="83.3857" ry="18"/>
<text text-anchor="middle" x="1866.9954" y="-496.3" font-family="Times,serif" font-size="14.00" fill="#000000">dcmitype:StillImage</text>
</g>
<!-- Rimg:MMNAT01_AF_NNM001001033_003.jpg&#45;&gt;Rdcmitype:StillImage -->
<g id="edge21" class="edge">
<title>Rimg:MMNAT01_AF_NNM001001033_003.jpg&#45;&gt;Rdcmitype:StillImage</title>
<path fill="none" stroke="#000000" d="M1346.7415,-434.4867C1380.5246,-440.0558 1418.9707,-446.3545 1453.9954,-452 1513.0762,-461.523 1527.6291,-465.4579 1586.9954,-473 1650.9613,-481.1265 1723.426,-488.0524 1778.608,-492.8546"/>
<polygon fill="#000000" stroke="#000000" points="1778.4406,-496.3531 1788.7047,-493.7264 1779.0429,-489.379 1778.4406,-496.3531"/>
<text text-anchor="middle" x="1511.4954" y="-474.8" font-family="Times,serif" font-size="14.00" fill="#000000">rdf:type</text>
</g>
<!-- Rdsw:Token -->
<g id="node21" class="node">
<title>Rdsw:Token</title>
<ellipse fill="none" stroke="#0000ff" cx="1866.9954" cy="-446" rx="50.0912" ry="18"/>
<text text-anchor="middle" x="1866.9954" y="-442.3" font-family="Times,serif" font-size="14.00" fill="#000000">dsw:Token</text>
</g>
<!-- Rimg:MMNAT01_AF_NNM001001033_003.jpg&#45;&gt;Rdsw:Token -->
<g id="edge22" class="edge">
<title>Rimg:MMNAT01_AF_NNM001001033_003.jpg&#45;&gt;Rdsw:Token</title>
<path fill="none" stroke="#000000" d="M1420.2292,-426.3422C1548.4188,-431.9826 1718.0893,-439.4481 1806.9162,-443.3565"/>
<polygon fill="#000000" stroke="#000000" points="1806.9352,-446.8606 1817.0794,-443.8037 1807.243,-439.8674 1806.9352,-446.8606"/>
<text text-anchor="middle" x="1511.4954" y="-436.8" font-family="Times,serif" font-size="14.00" fill="#000000">rdf:type</text>
</g>
<!-- Rdwc:HumanObservation -->
<g id="node22" class="node">
<title>Rdwc:HumanObservation</title>
<ellipse fill="none" stroke="#0000ff" cx="1866.9954" cy="-392" rx="96.6831" ry="18"/>
<text text-anchor="middle" x="1866.9954" y="-388.3" font-family="Times,serif" font-size="14.00" fill="#000000">dwc:HumanObservation</text>
</g>
<!-- Rimg:MMNAT01_AF_NNM001001033_003.jpg&#45;&gt;Rdwc:HumanObservation -->
<g id="edge23" class="edge">
<title>Rimg:MMNAT01_AF_NNM001001033_003.jpg&#45;&gt;Rdwc:HumanObservation</title>
<path fill="none" stroke="#000000" d="M1419.772,-411.5189C1431.3539,-411.0032 1442.8487,-410.4929 1453.9954,-410 1558.8936,-405.3613 1678.7827,-400.1457 1762.2678,-396.5276"/>
<polygon fill="#000000" stroke="#000000" points="1762.4259,-400.0241 1772.265,-396.0944 1762.1228,-393.0307 1762.4259,-400.0241"/>
<text text-anchor="middle" x="1511.4954" y="-413.8" font-family="Times,serif" font-size="14.00" fill="#000000">rdf:type</text>
</g>
<!-- Roa:Source -->
<g id="node23" class="node">
<title>Roa:Source</title>
<ellipse fill="none" stroke="#0000ff" cx="1866.9954" cy="-338" rx="46.2923" ry="18"/>
<text text-anchor="middle" x="1866.9954" y="-334.3" font-family="Times,serif" font-size="14.00" fill="#000000">oa:Source</text>
</g>
<!-- Rimg:MMNAT01_AF_NNM001001033_003.jpg&#45;&gt;Roa:Source -->
<g id="edge24" class="edge">
<title>Rimg:MMNAT01_AF_NNM001001033_003.jpg&#45;&gt;Roa:Source</title>
<path fill="none" stroke="#000000" d="M1341.2941,-403.1828C1408.4372,-391.4906 1503.3414,-375.7918 1586.9954,-365 1664.5107,-355.0001 1754.5366,-346.9511 1811.1369,-342.3219"/>
<polygon fill="#000000" stroke="#000000" points="1811.6213,-345.7942 1821.3058,-341.4976 1811.0557,-338.8171 1811.6213,-345.7942"/>
<text text-anchor="middle" x="1511.4954" y="-387.8" font-family="Times,serif" font-size="14.00" fill="#000000">rdf:type</text>
</g>
<!-- Rfoaf:Image -->
<g id="node24" class="node">
<title>Rfoaf:Image</title>
<ellipse fill="none" stroke="#0000ff" cx="1866.9954" cy="-284" rx="50.0912" ry="18"/>
<text text-anchor="middle" x="1866.9954" y="-280.3" font-family="Times,serif" font-size="14.00" fill="#000000">foaf:Image</text>
</g>
<!-- Rimg:MMNAT01_AF_NNM001001033_003.jpg&#45;&gt;Rfoaf:Image -->
<g id="edge25" class="edge">
<title>Rimg:MMNAT01_AF_NNM001001033_003.jpg&#45;&gt;Rfoaf:Image</title>
<path fill="none" stroke="#000000" d="M1300.9387,-401.5357C1341.4297,-386.881 1401.2455,-365.7226 1453.9954,-349 1512.5976,-330.4221 1526.5931,-322.4422 1586.9954,-311 1661.9804,-296.7953 1749.7567,-289.8716 1806.7651,-286.6329"/>
<polygon fill="#000000" stroke="#000000" points="1807.2481,-290.1118 1817.0417,-286.0701 1806.8652,-283.1223 1807.2481,-290.1118"/>
<text text-anchor="middle" x="1511.4954" y="-352.8" font-family="Times,serif" font-size="14.00" fill="#000000">rdf:type</text>
</g>
</g>
</svg>
