<?xml version="1.0" encoding="UTF-8" standalone="no"?>
<!DOCTYPE svg PUBLIC "-//W3C//DTD SVG 1.1//EN"
 "http://www.w3.org/Graphics/SVG/1.1/DTD/svg11.dtd">
<!-- Generated by graphviz version 2.40.1 (20161225.0304)
 -->
<!-- Title: %3 Pages: 1 -->
<svg width="2163pt" height="971pt"
 viewBox="0.00 0.00 2163.10 971.02" xmlns="http://www.w3.org/2000/svg" xmlns:xlink="http://www.w3.org/1999/xlink">
<g id="graph0" class="graph" transform="scale(1 1) rotate(0) translate(4 967.0228)">
<title>%3</title>
<polygon fill="#ffffff" stroke="transparent" points="-4,4 -4,-967.0228 2159.0957,-967.0228 2159.0957,4 -4,4"/>
<text text-anchor="middle" x="1077.5479" y="-263.8" font-family="Times,serif" font-size="14.00" fill="#000000">Model:</text>
<text text-anchor="middle" x="1077.5479" y="-248.8" font-family="Times,serif" font-size="14.00" fill="#000000">(Unknown)</text>
<text text-anchor="middle" x="1077.5479" y="-217.8" font-family="Times,serif" font-size="14.00" fill="#000000">Namespaces:</text>
<text text-anchor="middle" x="1077.5479" y="-202.8" font-family="Times,serif" font-size="14.00" fill="#000000">dcmitype: http://purl.org/dc/dcmitype/</text>
<text text-anchor="middle" x="1077.5479" y="-187.8" font-family="Times,serif" font-size="14.00" fill="#000000">dcterms: http://purl.org/dc/terms/</text>
<text text-anchor="middle" x="1077.5479" y="-172.8" font-family="Times,serif" font-size="14.00" fill="#000000">dsw: http://purl.org/dsw/</text>
<text text-anchor="middle" x="1077.5479" y="-157.8" font-family="Times,serif" font-size="14.00" fill="#000000">dwc: http://rs.tdwg.org/dwc/terms/</text>
<text text-anchor="middle" x="1077.5479" y="-142.8" font-family="Times,serif" font-size="14.00" fill="#000000">dwciri: http://rs.tdwg.org/dwc/iri/</text>
<text text-anchor="middle" x="1077.5479" y="-127.8" font-family="Times,serif" font-size="14.00" fill="#000000">foaf: http://xmlns.com/foaf/0.1/</text>
<text text-anchor="middle" x="1077.5479" y="-112.8" font-family="Times,serif" font-size="14.00" fill="#000000">gbif: http://www.gbif.org/species/</text>
<text text-anchor="middle" x="1077.5479" y="-97.8" font-family="Times,serif" font-size="14.00" fill="#000000">img: http://localhost:8080/semanticAnnotator/files/</text>
<text text-anchor="middle" x="1077.5479" y="-82.8" font-family="Times,serif" font-size="14.00" fill="#000000">iso: http://iso639&#45;3.sil.org/code/</text>
<text text-anchor="middle" x="1077.5479" y="-67.8" font-family="Times,serif" font-size="14.00" fill="#000000">mf: http://www.w3.org/TR/media&#45;frags/</text>
<text text-anchor="middle" x="1077.5479" y="-52.8" font-family="Times,serif" font-size="14.00" fill="#000000">oa: http://www.w3.org/ns/oa#</text>
<text text-anchor="middle" x="1077.5479" y="-37.8" font-family="Times,serif" font-size="14.00" fill="#000000">obo: http://purl.obolibrary.org/obo/</text>
<text text-anchor="middle" x="1077.5479" y="-22.8" font-family="Times,serif" font-size="14.00" fill="#000000">orcid: http://orcid.org/</text>
<text text-anchor="middle" x="1077.5479" y="-7.8" font-family="Times,serif" font-size="14.00" fill="#000000">rdf: http://www.w3.org/1999/02/22&#45;rdf&#45;syntax&#45;ns#</text>
<!-- Rhttp://localhost:8080/rdf/nc/annotation/287eacf3&#45;f149&#45;4190&#45;84b9&#45;468b90c807f1 -->
<g id="node1" class="node">
<title>Rhttp://localhost:8080/rdf/nc/annotation/287eacf3&#45;f149&#45;4190&#45;84b9&#45;468b90c807f1</title>
<ellipse fill="none" stroke="#0000ff" cx="294.4239" cy="-703.0228" rx="294.3478" ry="18"/>
<text text-anchor="middle" x="294.4239" y="-699.3228" font-family="Times,serif" font-size="14.00" fill="#000000">http://localhost:8080/rdf/nc/annotation/287eacf3&#45;f149&#45;4190&#45;84b9&#45;468b90c807f1</text>
</g>
<!-- Roa:Annotation -->
<g id="node2" class="node">
<title>Roa:Annotation</title>
<ellipse fill="none" stroke="#0000ff" cx="823.3379" cy="-726.0228" rx="61.1893" ry="18"/>
<text text-anchor="middle" x="823.3379" y="-722.3228" font-family="Times,serif" font-size="14.00" fill="#000000">oa:Annotation</text>
</g>
<!-- Rhttp://localhost:8080/rdf/nc/annotation/287eacf3&#45;f149&#45;4190&#45;84b9&#45;468b90c807f1&#45;&gt;Roa:Annotation -->
<g id="edge1" class="edge">
<title>Rhttp://localhost:8080/rdf/nc/annotation/287eacf3&#45;f149&#45;4190&#45;84b9&#45;468b90c807f1&#45;&gt;Roa:Annotation</title>
<path fill="none" stroke="#000000" d="M534.5062,-713.4629C613.8239,-716.912 696.0911,-720.4894 752.4409,-722.9398"/>
<polygon fill="#000000" stroke="#000000" points="752.5118,-726.4461 762.6545,-723.384 752.816,-719.4527 752.5118,-726.4461"/>
<text text-anchor="middle" x="650.8478" y="-722.8228" font-family="Times,serif" font-size="14.00" fill="#000000">rdf:type</text>
</g>
<!-- Rorcid:0000&#45;0002&#45;2146&#45;4803 -->
<g id="node3" class="node">
<title>Rorcid:0000&#45;0002&#45;2146&#45;4803</title>
<ellipse fill="none" stroke="#0000ff" cx="823.3379" cy="-672.0228" rx="110.4804" ry="18"/>
<text text-anchor="middle" x="823.3379" y="-668.3228" font-family="Times,serif" font-size="14.00" fill="#000000">orcid:0000&#45;0002&#45;2146&#45;4803</text>
</g>
<!-- Rhttp://localhost:8080/rdf/nc/annotation/287eacf3&#45;f149&#45;4190&#45;84b9&#45;468b90c807f1&#45;&gt;Rorcid:0000&#45;0002&#45;2146&#45;4803 -->
<g id="edge2" class="edge">
<title>Rhttp://localhost:8080/rdf/nc/annotation/287eacf3&#45;f149&#45;4190&#45;84b9&#45;468b90c807f1&#45;&gt;Rorcid:0000&#45;0002&#45;2146&#45;4803</title>
<path fill="none" stroke="#000000" d="M507.2672,-690.5479C576.327,-686.5003 650.2727,-682.1663 709.2646,-678.7087"/>
<polygon fill="#000000" stroke="#000000" points="709.5708,-682.1969 719.3489,-678.1177 709.1612,-675.2089 709.5708,-682.1969"/>
<text text-anchor="middle" x="650.8478" y="-687.8228" font-family="Times,serif" font-size="14.00" fill="#000000">dcterms:creator</text>
</g>
<!-- L2021&#45;01&#45;12T14:23:11.646Z|Datatype: dcterms:W3CDTF -->
<g id="node4" class="node">
<title>L2021&#45;01&#45;12T14:23:11.646Z|Datatype: dcterms:W3CDTF</title>
<polygon fill="none" stroke="#000000" points="735.8379,-589.0228 735.8379,-635.0228 910.8379,-635.0228 910.8379,-589.0228 735.8379,-589.0228"/>
<text text-anchor="middle" x="823.3379" y="-619.8228" font-family="Times,serif" font-size="14.00" fill="#000000">2021&#45;01&#45;12T14:23:11.646Z</text>
<polyline fill="none" stroke="#000000" points="735.8379,-612.0228 910.8379,-612.0228 "/>
<text text-anchor="middle" x="823.3379" y="-596.8228" font-family="Times,serif" font-size="14.00" fill="#000000">Datatype: dcterms:W3CDTF</text>
</g>
<!-- Rhttp://localhost:8080/rdf/nc/annotation/287eacf3&#45;f149&#45;4190&#45;84b9&#45;468b90c807f1&#45;&gt;L2021&#45;01&#45;12T14:23:11.646Z|Datatype: dcterms:W3CDTF -->
<g id="edge3" class="edge">
<title>Rhttp://localhost:8080/rdf/nc/annotation/287eacf3&#45;f149&#45;4190&#45;84b9&#45;468b90c807f1&#45;&gt;L2021&#45;01&#45;12T14:23:11.646Z|Datatype: dcterms:W3CDTF</title>
<path fill="none" stroke="#000000" d="M393.2881,-686.0132C488.2961,-669.667 631.0166,-645.1118 725.6339,-628.8329"/>
<polygon fill="#000000" stroke="#000000" points="726.2325,-632.2814 735.4942,-627.1364 725.0455,-625.3827 726.2325,-632.2814"/>
<text text-anchor="middle" x="650.8478" y="-650.8228" font-family="Times,serif" font-size="14.00" fill="#000000">dcterms:date</text>
</g>
<!-- B_:node1f09255tgx9 -->
<g id="node5" class="node">
<title>B_:node1f09255tgx9</title>
<ellipse fill="none" stroke="#00ff00" cx="823.3379" cy="-504.0228" rx="18" ry="18"/>
</g>
<!-- Rhttp://localhost:8080/rdf/nc/annotation/287eacf3&#45;f149&#45;4190&#45;84b9&#45;468b90c807f1&#45;&gt;B_:node1f09255tgx9 -->
<g id="edge4" class="edge">
<title>Rhttp://localhost:8080/rdf/nc/annotation/287eacf3&#45;f149&#45;4190&#45;84b9&#45;468b90c807f1&#45;&gt;B_:node1f09255tgx9</title>
<path fill="none" stroke="#000000" d="M341.8269,-685.1878C450.0097,-644.4848 712.2586,-545.8156 796.6797,-514.0528"/>
<polygon fill="#000000" stroke="#000000" points="797.9442,-517.3166 806.0711,-510.5193 795.4792,-510.765 797.9442,-517.3166"/>
<text text-anchor="middle" x="650.8478" y="-583.8228" font-family="Times,serif" font-size="14.00" fill="#000000">oa:hasBody</text>
</g>
<!-- B_:node1f09255tgx8 -->
<g id="node12" class="node">
<title>B_:node1f09255tgx8</title>
<ellipse fill="none" stroke="#00ff00" cx="823.3379" cy="-835.0228" rx="18" ry="18"/>
</g>
<!-- Rhttp://localhost:8080/rdf/nc/annotation/287eacf3&#45;f149&#45;4190&#45;84b9&#45;468b90c807f1&#45;&gt;B_:node1f09255tgx8 -->
<g id="edge12" class="edge">
<title>Rhttp://localhost:8080/rdf/nc/annotation/287eacf3&#45;f149&#45;4190&#45;84b9&#45;468b90c807f1&#45;&gt;B_:node1f09255tgx8</title>
<path fill="none" stroke="#000000" d="M364.6596,-720.5514C482.7204,-750.0156 715.8761,-808.2038 795.7413,-828.1356"/>
<polygon fill="#000000" stroke="#000000" points="794.9974,-831.5572 805.5473,-830.5828 796.6924,-824.7655 794.9974,-831.5572"/>
<text text-anchor="middle" x="650.8478" y="-802.8228" font-family="Times,serif" font-size="14.00" fill="#000000">oa:hasTarget</text>
</g>
<!-- Roa:describing -->
<g id="node20" class="node">
<title>Roa:describing</title>
<ellipse fill="none" stroke="#0000ff" cx="823.3379" cy="-780.0228" rx="57.6901" ry="18"/>
<text text-anchor="middle" x="823.3379" y="-776.3228" font-family="Times,serif" font-size="14.00" fill="#000000">oa:describing</text>
</g>
<!-- Rhttp://localhost:8080/rdf/nc/annotation/287eacf3&#45;f149&#45;4190&#45;84b9&#45;468b90c807f1&#45;&gt;Roa:describing -->
<g id="edge20" class="edge">
<title>Rhttp://localhost:8080/rdf/nc/annotation/287eacf3&#45;f149&#45;4190&#45;84b9&#45;468b90c807f1&#45;&gt;Roa:describing</title>
<path fill="none" stroke="#000000" d="M408.5392,-719.6359C516.4768,-735.3496 674.4488,-758.3473 760.9724,-770.9435"/>
<polygon fill="#000000" stroke="#000000" points="760.5063,-774.4125 770.9062,-772.3897 761.5148,-767.4855 760.5063,-774.4125"/>
<text text-anchor="middle" x="650.8478" y="-762.8228" font-family="Times,serif" font-size="14.00" fill="#000000">oa:motivatedBy</text>
</g>
<!-- Rfoaf:Person -->
<g id="node21" class="node">
<title>Rfoaf:Person</title>
<ellipse fill="none" stroke="#0000ff" cx="1261.4619" cy="-672.0228" rx="51.1914" ry="18"/>
<text text-anchor="middle" x="1261.4619" y="-668.3228" font-family="Times,serif" font-size="14.00" fill="#000000">foaf:Person</text>
</g>
<!-- Rorcid:0000&#45;0002&#45;2146&#45;4803&#45;&gt;Rfoaf:Person -->
<g id="edge21" class="edge">
<title>Rorcid:0000&#45;0002&#45;2146&#45;4803&#45;&gt;Rfoaf:Person</title>
<path fill="none" stroke="#000000" d="M933.8951,-672.0228C1018.0458,-672.0228 1130.7755,-672.0228 1199.6511,-672.0228"/>
<polygon fill="#000000" stroke="#000000" points="1199.9017,-675.5229 1209.9017,-672.0228 1199.9017,-668.5229 1199.9017,-675.5229"/>
<text text-anchor="middle" x="1006.3281" y="-675.8228" font-family="Times,serif" font-size="14.00" fill="#000000">rdf:type</text>
</g>
<!-- Rdwc:Taxon -->
<g id="node6" class="node">
<title>Rdwc:Taxon</title>
<ellipse fill="none" stroke="#0000ff" cx="1261.4619" cy="-618.0228" rx="50.0912" ry="18"/>
<text text-anchor="middle" x="1261.4619" y="-614.3228" font-family="Times,serif" font-size="14.00" fill="#000000">dwc:Taxon</text>
</g>
<!-- B_:node1f09255tgx9&#45;&gt;Rdwc:Taxon -->
<g id="edge5" class="edge">
<title>B_:node1f09255tgx9&#45;&gt;Rdwc:Taxon</title>
<path fill="none" stroke="#000000" d="M840.1457,-511.5537C864.4663,-522.2829 911.0309,-542.1975 951.8281,-556.0228 1007.2794,-574.8141 1021.5395,-578.9412 1078.8281,-591.0228 1120.0748,-599.7213 1167.1437,-606.6084 1203.1664,-611.2494"/>
<polygon fill="#000000" stroke="#000000" points="1203.1343,-614.7732 1213.4949,-612.5577 1204.0141,-607.8287 1203.1343,-614.7732"/>
<text text-anchor="middle" x="1006.3281" y="-590.8228" font-family="Times,serif" font-size="14.00" fill="#000000">rdf:type</text>
</g>
<!-- Roa:TextualBody -->
<g id="node7" class="node">
<title>Roa:TextualBody</title>
<ellipse fill="none" stroke="#0000ff" cx="1261.4619" cy="-564.0228" rx="67.6881" ry="18"/>
<text text-anchor="middle" x="1261.4619" y="-560.3228" font-family="Times,serif" font-size="14.00" fill="#000000">oa:TextualBody</text>
</g>
<!-- B_:node1f09255tgx9&#45;&gt;Roa:TextualBody -->
<g id="edge6" class="edge">
<title>B_:node1f09255tgx9&#45;&gt;Roa:TextualBody</title>
<path fill="none" stroke="#000000" d="M841.2019,-506.7517C866.0087,-510.5213 912.3011,-517.4837 951.8281,-523.0228 1033.4721,-534.464 1127.3507,-546.7765 1190.1355,-554.89"/>
<polygon fill="#000000" stroke="#000000" points="1189.9589,-558.3962 1200.3247,-556.2051 1190.855,-551.4538 1189.9589,-558.3962"/>
<text text-anchor="middle" x="1006.3281" y="-540.8228" font-family="Times,serif" font-size="14.00" fill="#000000">rdf:type</text>
</g>
<!-- Ltext/plain -->
<g id="node8" class="node">
<title>Ltext/plain</title>
<polygon fill="none" stroke="#000000" points="1227.4619,-426.0228 1227.4619,-462.0228 1295.4619,-462.0228 1295.4619,-426.0228 1227.4619,-426.0228"/>
<text text-anchor="middle" x="1261.4619" y="-440.3228" font-family="Times,serif" font-size="14.00" fill="#000000">text/plain</text>
</g>
<!-- B_:node1f09255tgx9&#45;&gt;Ltext/plain -->
<g id="edge7" class="edge">
<title>B_:node1f09255tgx9&#45;&gt;Ltext/plain</title>
<path fill="none" stroke="#000000" d="M841.5668,-501.5605C863.9989,-498.0867 902.9116,-490.6013 933.8281,-477.0228 942.6313,-473.1565 942.7255,-468.1189 951.8281,-465.0228 1042.2403,-434.2704 1155.8856,-436.0351 1217.2512,-440.0312"/>
<polygon fill="#000000" stroke="#000000" points="1217.1412,-443.532 1227.3619,-440.7413 1217.6317,-436.5492 1217.1412,-443.532"/>
<text text-anchor="middle" x="1006.3281" y="-468.8228" font-family="Times,serif" font-size="14.00" fill="#000000">dcterms:format</text>
</g>
<!-- Rgbif:9180402 -->
<g id="node9" class="node">
<title>Rgbif:9180402</title>
<ellipse fill="none" stroke="#0000ff" cx="1261.4619" cy="-389.0228" rx="57.6901" ry="18"/>
<text text-anchor="middle" x="1261.4619" y="-385.3228" font-family="Times,serif" font-size="14.00" fill="#000000">gbif:9180402</text>
</g>
<!-- B_:node1f09255tgx9&#45;&gt;Rgbif:9180402 -->
<g id="edge8" class="edge">
<title>B_:node1f09255tgx9&#45;&gt;Rgbif:9180402</title>
<path fill="none" stroke="#000000" d="M841.4558,-504.6377C865.5861,-504.4556 908.1991,-500.4965 933.8281,-477.0228 952.1733,-460.2204 932.4529,-439.6261 951.8281,-424.0228 1022.4633,-367.1388 1133.3699,-369.7474 1201.5124,-378.3242"/>
<polygon fill="#000000" stroke="#000000" points="1201.2808,-381.8244 1211.6573,-379.685 1202.2115,-374.8866 1201.2808,-381.8244"/>
<text text-anchor="middle" x="1006.3281" y="-427.8228" font-family="Times,serif" font-size="14.00" fill="#000000">dcterms:identifier</text>
</g>
<!-- Riso:lat -->
<g id="node10" class="node">
<title>Riso:lat</title>
<ellipse fill="none" stroke="#0000ff" cx="1261.4619" cy="-335.0228" rx="32.4942" ry="18"/>
<text text-anchor="middle" x="1261.4619" y="-331.3228" font-family="Times,serif" font-size="14.00" fill="#000000">iso:lat</text>
</g>
<!-- B_:node1f09255tgx9&#45;&gt;Riso:lat -->
<g id="edge9" class="edge">
<title>B_:node1f09255tgx9&#45;&gt;Riso:lat</title>
<path fill="none" stroke="#000000" d="M841.6582,-505.2529C866.4232,-505.8231 910.1952,-502.7737 933.8281,-477.0228 969.1051,-438.5844 913.6652,-396.5976 951.8281,-361.0228 1025.6159,-292.2393 1156.8155,-310.0695 1222.1832,-324.6791"/>
<polygon fill="#000000" stroke="#000000" points="1221.5574,-328.1269 1232.0903,-326.9824 1223.1427,-321.3087 1221.5574,-328.1269"/>
<text text-anchor="middle" x="1006.3281" y="-364.8228" font-family="Times,serif" font-size="14.00" fill="#000000">dcterms:language</text>
</g>
<!-- LPteropus minimus|Language: lat -->
<g id="node11" class="node">
<title>LPteropus minimus|Language: lat</title>
<polygon fill="none" stroke="#000000" points="1203.4619,-481.0228 1203.4619,-527.0228 1319.4619,-527.0228 1319.4619,-481.0228 1203.4619,-481.0228"/>
<text text-anchor="middle" x="1261.4619" y="-511.8228" font-family="Times,serif" font-size="14.00" fill="#000000">Pteropus minimus</text>
<polyline fill="none" stroke="#000000" points="1203.4619,-504.0228 1319.4619,-504.0228 "/>
<text text-anchor="middle" x="1261.4619" y="-488.8228" font-family="Times,serif" font-size="14.00" fill="#000000">Language: lat</text>
</g>
<!-- B_:node1f09255tgx9&#45;&gt;LPteropus minimus|Language: lat -->
<g id="edge10" class="edge">
<title>B_:node1f09255tgx9&#45;&gt;LPteropus minimus|Language: lat</title>
<path fill="none" stroke="#000000" d="M841.1316,-500.7304C865.8569,-496.3386 912.0551,-488.7951 951.8281,-486.0228 1034.7684,-480.2415 1130.2978,-487.9822 1193.0582,-495.0365"/>
<polygon fill="#000000" stroke="#000000" points="1192.893,-498.5405 1203.2274,-496.2059 1193.6927,-491.5864 1192.893,-498.5405"/>
<text text-anchor="middle" x="1006.3281" y="-489.8228" font-family="Times,serif" font-size="14.00" fill="#000000">dwc:scientificName</text>
</g>
<!-- B_:node1f09255tgx9&#45;&gt;LPteropus minimus|Language: lat -->
<g id="edge11" class="edge">
<title>B_:node1f09255tgx9&#45;&gt;LPteropus minimus|Language: lat</title>
<path fill="none" stroke="#000000" d="M841.6058,-504.0228C900.8685,-504.0228 1089.8878,-504.0228 1192.9143,-504.0228"/>
<polygon fill="#000000" stroke="#000000" points="1193.2162,-507.5229 1203.2161,-504.0228 1193.2161,-500.5229 1193.2162,-507.5229"/>
<text text-anchor="middle" x="1006.3281" y="-507.8228" font-family="Times,serif" font-size="14.00" fill="#000000">rdf:value</text>
</g>
<!-- Robo:TAXRANK_0000006 -->
<g id="node27" class="node">
<title>Robo:TAXRANK_0000006</title>
<ellipse fill="none" stroke="#0000ff" cx="1875.0957" cy="-389.0228" rx="104.7816" ry="18"/>
<text text-anchor="middle" x="1875.0957" y="-385.3228" font-family="Times,serif" font-size="14.00" fill="#000000">obo:TAXRANK_0000006</text>
</g>
<!-- Rgbif:9180402&#45;&gt;Robo:TAXRANK_0000006 -->
<g id="edge27" class="edge">
<title>Rgbif:9180402&#45;&gt;Robo:TAXRANK_0000006</title>
<path fill="none" stroke="#000000" d="M1319.4675,-389.0228C1420.2136,-389.0228 1629.275,-389.0228 1760.2717,-389.0228"/>
<polygon fill="#000000" stroke="#000000" points="1760.3478,-392.5229 1770.3477,-389.0228 1760.3477,-385.5229 1760.3478,-392.5229"/>
<text text-anchor="middle" x="1519.5957" y="-392.8228" font-family="Times,serif" font-size="14.00" fill="#000000">dwc:taxonRank</text>
</g>
<!-- Roa:Target -->
<g id="node13" class="node">
<title>Roa:Target</title>
<ellipse fill="none" stroke="#0000ff" cx="1261.4619" cy="-945.0228" rx="44.393" ry="18"/>
<text text-anchor="middle" x="1261.4619" y="-941.3228" font-family="Times,serif" font-size="14.00" fill="#000000">oa:Target</text>
</g>
<!-- B_:node1f09255tgx8&#45;&gt;Roa:Target -->
<g id="edge13" class="edge">
<title>B_:node1f09255tgx8&#45;&gt;Roa:Target</title>
<path fill="none" stroke="#000000" d="M840.1532,-842.2951C864.483,-852.6492 911.0586,-871.8434 951.8281,-885.0228 1007.3196,-902.9613 1021.6776,-906.4082 1078.8281,-918.0228 1122.3246,-926.8625 1172.2046,-934.0393 1208.8342,-938.7657"/>
<polygon fill="#000000" stroke="#000000" points="1208.4362,-942.2432 1218.798,-940.0331 1209.3196,-935.2991 1208.4362,-942.2432"/>
<text text-anchor="middle" x="1006.3281" y="-917.8228" font-family="Times,serif" font-size="14.00" fill="#000000">rdf:type</text>
</g>
<!-- Limage/jpeg -->
<g id="node14" class="node">
<title>Limage/jpeg</title>
<polygon fill="none" stroke="#000000" points="1222.9619,-872.0228 1222.9619,-908.0228 1299.9619,-908.0228 1299.9619,-872.0228 1222.9619,-872.0228"/>
<text text-anchor="middle" x="1261.4619" y="-886.3228" font-family="Times,serif" font-size="14.00" fill="#000000">image/jpeg</text>
</g>
<!-- B_:node1f09255tgx8&#45;&gt;Limage/jpeg -->
<g id="edge14" class="edge">
<title>B_:node1f09255tgx8&#45;&gt;Limage/jpeg</title>
<path fill="none" stroke="#000000" d="M841.1896,-837.8416C865.9823,-841.7154 912.2583,-848.7981 951.8281,-854.0228 1043.8817,-866.1772 1151.627,-878.2102 1212.6815,-884.8249"/>
<polygon fill="#000000" stroke="#000000" points="1212.4788,-888.3233 1222.7969,-885.9175 1213.2306,-881.3638 1212.4788,-888.3233"/>
<text text-anchor="middle" x="1006.3281" y="-869.8228" font-family="Times,serif" font-size="14.00" fill="#000000">dcterms:format</text>
</g>
<!-- B_:node1f09255tgx11 -->
<g id="node15" class="node">
<title>B_:node1f09255tgx11</title>
<ellipse fill="none" stroke="#00ff00" cx="1261.4619" cy="-835.0228" rx="18" ry="18"/>
</g>
<!-- B_:node1f09255tgx8&#45;&gt;B_:node1f09255tgx11 -->
<g id="edge15" class="edge">
<title>B_:node1f09255tgx8&#45;&gt;B_:node1f09255tgx11</title>
<path fill="none" stroke="#000000" d="M841.6058,-835.0228C909.8018,-835.0228 1149.8223,-835.0228 1232.9043,-835.0228"/>
<polygon fill="#000000" stroke="#000000" points="1233.1161,-838.5229 1243.1161,-835.0228 1233.1161,-831.5229 1233.1161,-838.5229"/>
<text text-anchor="middle" x="1006.3281" y="-838.8228" font-family="Times,serif" font-size="14.00" fill="#000000">oa:hasSelector</text>
</g>
<!-- Rimg:MMNAT01_AF_NNM001001033_003.jpg -->
<g id="node19" class="node">
<title>Rimg:MMNAT01_AF_NNM001001033_003.jpg</title>
<ellipse fill="none" stroke="#0000ff" cx="1261.4619" cy="-726.0228" rx="182.7677" ry="18"/>
<text text-anchor="middle" x="1261.4619" y="-722.3228" font-family="Times,serif" font-size="14.00" fill="#000000">img:MMNAT01_AF_NNM001001033_003.jpg</text>
</g>
<!-- B_:node1f09255tgx8&#45;&gt;Rimg:MMNAT01_AF_NNM001001033_003.jpg -->
<g id="edge19" class="edge">
<title>B_:node1f09255tgx8&#45;&gt;Rimg:MMNAT01_AF_NNM001001033_003.jpg</title>
<path fill="none" stroke="#000000" d="M841.0556,-830.6149C898.0501,-816.4353 1079.0504,-771.4046 1184.0464,-745.2829"/>
<polygon fill="#000000" stroke="#000000" points="1185.1042,-748.6265 1193.9634,-742.8156 1183.4141,-741.8335 1185.1042,-748.6265"/>
<text text-anchor="middle" x="1006.3281" y="-805.8228" font-family="Times,serif" font-size="14.00" fill="#000000">oa:hasSource</text>
</g>
<!-- Roa:FragmentSelector -->
<g id="node16" class="node">
<title>Roa:FragmentSelector</title>
<ellipse fill="none" stroke="#0000ff" cx="1875.0957" cy="-944.0228" rx="84.485" ry="18"/>
<text text-anchor="middle" x="1875.0957" y="-940.3228" font-family="Times,serif" font-size="14.00" fill="#000000">oa:FragmentSelector</text>
</g>
<!-- B_:node1f09255tgx11&#45;&gt;Roa:FragmentSelector -->
<g id="edge16" class="edge">
<title>B_:node1f09255tgx11&#45;&gt;Roa:FragmentSelector</title>
<path fill="none" stroke="#000000" d="M1279.5688,-833.9216C1313.8726,-832.6373 1389.7596,-833.6868 1444.0957,-863.0228 1454.6188,-868.7042 1451.8641,-876.8321 1462.0957,-883.0228 1514.2963,-914.6072 1534.9966,-906.508 1595.0957,-917.0228 1657.3656,-927.9174 1728.251,-934.6977 1783.1187,-938.7389"/>
<polygon fill="#000000" stroke="#000000" points="1782.9463,-942.2354 1793.1716,-939.462 1783.4485,-935.2535 1782.9463,-942.2354"/>
<text text-anchor="middle" x="1519.5957" y="-916.8228" font-family="Times,serif" font-size="14.00" fill="#000000">rdf:type</text>
</g>
<!-- Rmf: -->
<g id="node17" class="node">
<title>Rmf:</title>
<ellipse fill="none" stroke="#0000ff" cx="1875.0957" cy="-890.0228" rx="27" ry="18"/>
<text text-anchor="middle" x="1875.0957" y="-886.3228" font-family="Times,serif" font-size="14.00" fill="#000000">mf:</text>
</g>
<!-- B_:node1f09255tgx11&#45;&gt;Rmf: -->
<g id="edge17" class="edge">
<title>B_:node1f09255tgx11&#45;&gt;Rmf:</title>
<path fill="none" stroke="#000000" d="M1279.4425,-836.771C1314.5472,-840.174 1394.6719,-847.8918 1462.0957,-854.0228 1600.7806,-866.6337 1765.7483,-880.7463 1838.0487,-886.8869"/>
<polygon fill="#000000" stroke="#000000" points="1837.7693,-890.3757 1848.0294,-887.734 1838.3613,-883.4008 1837.7693,-890.3757"/>
<text text-anchor="middle" x="1519.5957" y="-867.8228" font-family="Times,serif" font-size="14.00" fill="#000000">dcterms:conformsTo</text>
</g>
<!-- Lxywh=0.5530314055917275,0.3586725350259047,0.07278820375335127,0.018716966679433122 -->
<g id="node18" class="node">
<title>Lxywh=0.5530314055917275,0.3586725350259047,0.07278820375335127,0.018716966679433122</title>
<polygon fill="none" stroke="#000000" points="1595.0957,-817.0228 1595.0957,-853.0228 2155.0957,-853.0228 2155.0957,-817.0228 1595.0957,-817.0228"/>
<text text-anchor="middle" x="1875.0957" y="-831.3228" font-family="Times,serif" font-size="14.00" fill="#000000">xywh=0.5530314055917275,0.3586725350259047,0.07278820375335127,0.018716966679433122</text>
</g>
<!-- B_:node1f09255tgx11&#45;&gt;Lxywh=0.5530314055917275,0.3586725350259047,0.07278820375335127,0.018716966679433122 -->
<g id="edge18" class="edge">
<title>B_:node1f09255tgx11&#45;&gt;Lxywh=0.5530314055917275,0.3586725350259047,0.07278820375335127,0.018716966679433122</title>
<path fill="none" stroke="#000000" d="M1279.4945,-835.0228C1326.3799,-835.0228 1457.3315,-835.0228 1584.5439,-835.0228"/>
<polygon fill="#000000" stroke="#000000" points="1584.8692,-838.5229 1594.8692,-835.0228 1584.8691,-831.5229 1584.8692,-838.5229"/>
<text text-anchor="middle" x="1519.5957" y="-838.8228" font-family="Times,serif" font-size="14.00" fill="#000000">rdf:value</text>
</g>
<!-- Rdcmitype:StillImage -->
<g id="node22" class="node">
<title>Rdcmitype:StillImage</title>
<ellipse fill="none" stroke="#0000ff" cx="1875.0957" cy="-564.0228" rx="83.3857" ry="18"/>
<text text-anchor="middle" x="1875.0957" y="-560.3228" font-family="Times,serif" font-size="14.00" fill="#000000">dcmitype:StillImage</text>
</g>
<!-- Rimg:MMNAT01_AF_NNM001001033_003.jpg&#45;&gt;Rdcmitype:StillImage -->
<g id="edge22" class="edge">
<title>Rimg:MMNAT01_AF_NNM001001033_003.jpg&#45;&gt;Rdcmitype:StillImage</title>
<path fill="none" stroke="#000000" d="M1417.4472,-716.5692C1427.0966,-711.9728 1436.1156,-706.2067 1444.0957,-699.0228 1467.97,-677.5305 1439.6854,-652.0375 1462.0957,-629.0228 1549.4277,-539.3355 1706.5355,-540.9907 1799.7671,-551.6204"/>
<polygon fill="#000000" stroke="#000000" points="1799.3512,-555.0955 1809.6975,-552.8141 1800.1867,-548.1456 1799.3512,-555.0955"/>
<text text-anchor="middle" x="1519.5957" y="-632.8228" font-family="Times,serif" font-size="14.00" fill="#000000">rdf:type</text>
</g>
<!-- Rdsw:Token -->
<g id="node23" class="node">
<title>Rdsw:Token</title>
<ellipse fill="none" stroke="#0000ff" cx="1875.0957" cy="-780.0228" rx="50.0912" ry="18"/>
<text text-anchor="middle" x="1875.0957" y="-776.3228" font-family="Times,serif" font-size="14.00" fill="#000000">dsw:Token</text>
</g>
<!-- Rimg:MMNAT01_AF_NNM001001033_003.jpg&#45;&gt;Rdsw:Token -->
<g id="edge23" class="edge">
<title>Rimg:MMNAT01_AF_NNM001001033_003.jpg&#45;&gt;Rdsw:Token</title>
<path fill="none" stroke="#000000" d="M1392.3027,-738.6015C1415.5465,-740.7825 1439.5316,-742.9983 1462.0957,-745.0228 1587.9601,-756.3154 1735.4937,-768.5854 1815.7358,-775.1775"/>
<polygon fill="#000000" stroke="#000000" points="1815.8761,-778.7007 1826.1289,-776.0305 1816.4488,-771.7242 1815.8761,-778.7007"/>
<text text-anchor="middle" x="1519.5957" y="-757.8228" font-family="Times,serif" font-size="14.00" fill="#000000">rdf:type</text>
</g>
<!-- Rdwc:HumanObservation -->
<g id="node24" class="node">
<title>Rdwc:HumanObservation</title>
<ellipse fill="none" stroke="#0000ff" cx="1875.0957" cy="-726.0228" rx="96.6831" ry="18"/>
<text text-anchor="middle" x="1875.0957" y="-722.3228" font-family="Times,serif" font-size="14.00" fill="#000000">dwc:HumanObservation</text>
</g>
<!-- Rimg:MMNAT01_AF_NNM001001033_003.jpg&#45;&gt;Rdwc:HumanObservation -->
<g id="edge24" class="edge">
<title>Rimg:MMNAT01_AF_NNM001001033_003.jpg&#45;&gt;Rdwc:HumanObservation</title>
<path fill="none" stroke="#000000" d="M1444.3259,-726.0228C1549.7615,-726.0228 1678.6732,-726.0228 1767.8514,-726.0228"/>
<polygon fill="#000000" stroke="#000000" points="1767.9814,-729.5229 1777.9814,-726.0228 1767.9814,-722.5229 1767.9814,-729.5229"/>
<text text-anchor="middle" x="1519.5957" y="-729.8228" font-family="Times,serif" font-size="14.00" fill="#000000">rdf:type</text>
</g>
<!-- Roa:Source -->
<g id="node25" class="node">
<title>Roa:Source</title>
<ellipse fill="none" stroke="#0000ff" cx="1875.0957" cy="-672.0228" rx="46.2923" ry="18"/>
<text text-anchor="middle" x="1875.0957" y="-668.3228" font-family="Times,serif" font-size="14.00" fill="#000000">oa:Source</text>
</g>
<!-- Rimg:MMNAT01_AF_NNM001001033_003.jpg&#45;&gt;Roa:Source -->
<g id="edge25" class="edge">
<title>Rimg:MMNAT01_AF_NNM001001033_003.jpg&#45;&gt;Roa:Source</title>
<path fill="none" stroke="#000000" d="M1392.3027,-713.4441C1415.5465,-711.2631 1439.5316,-709.0473 1462.0957,-707.0228 1590.0178,-695.5456 1740.3235,-683.0588 1819.617,-676.5494"/>
<polygon fill="#000000" stroke="#000000" points="1820.1791,-680.0151 1829.8595,-675.7094 1819.6069,-673.0385 1820.1791,-680.0151"/>
<text text-anchor="middle" x="1519.5957" y="-710.8228" font-family="Times,serif" font-size="14.00" fill="#000000">rdf:type</text>
</g>
<!-- Rfoaf:Image -->
<g id="node26" class="node">
<title>Rfoaf:Image</title>
<ellipse fill="none" stroke="#0000ff" cx="1875.0957" cy="-618.0228" rx="50.0912" ry="18"/>
<text text-anchor="middle" x="1875.0957" y="-614.3228" font-family="Times,serif" font-size="14.00" fill="#000000">foaf:Image</text>
</g>
<!-- Rimg:MMNAT01_AF_NNM001001033_003.jpg&#45;&gt;Rfoaf:Image -->
<g id="edge26" class="edge">
<title>Rimg:MMNAT01_AF_NNM001001033_003.jpg&#45;&gt;Rfoaf:Image</title>
<path fill="none" stroke="#000000" d="M1405.3107,-714.8872C1418.8653,-710.8699 1432.0303,-705.6844 1444.0957,-699.0228 1454.8572,-693.0812 1451.6332,-684.4762 1462.0957,-678.0228 1513.9316,-646.0498 1535.0668,-655.3068 1595.0957,-645.0228 1670.4317,-632.1165 1758.3065,-624.8994 1815.2306,-621.2391"/>
<polygon fill="#000000" stroke="#000000" points="1815.7278,-624.7149 1825.4894,-620.5965 1815.2901,-617.7286 1815.7278,-624.7149"/>
<text text-anchor="middle" x="1519.5957" y="-681.8228" font-family="Times,serif" font-size="14.00" fill="#000000">rdf:type</text>
</g>
<!-- B_:node1f09255tgx7 -->
<g id="node28" class="node">
<title>B_:node1f09255tgx7</title>
<ellipse fill="none" stroke="#00ff00" cx="294.4239" cy="-473.0228" rx="18" ry="18"/>
</g>
<!-- B_:node1f09255tgx7&#45;&gt;B_:node1f09255tgx9 -->
<g id="edge29" class="edge">
<title>B_:node1f09255tgx7&#45;&gt;B_:node1f09255tgx9</title>
<path fill="none" stroke="#000000" d="M312.6303,-474.0899C390.9891,-478.6826 699.8374,-496.7844 795.1635,-502.3715"/>
<polygon fill="#000000" stroke="#000000" points="795.0204,-505.869 805.2081,-502.9602 795.4301,-498.881 795.0204,-505.869"/>
<text text-anchor="middle" x="650.8478" y="-499.8228" font-family="Times,serif" font-size="14.00" fill="#000000">dwciri:toTaxon</text>
</g>
<!-- Rdwc:Identification -->
<g id="node29" class="node">
<title>Rdwc:Identification</title>
<ellipse fill="none" stroke="#0000ff" cx="823.3379" cy="-450.0228" rx="75.2868" ry="18"/>
<text text-anchor="middle" x="823.3379" y="-446.3228" font-family="Times,serif" font-size="14.00" fill="#000000">dwc:Identification</text>
</g>
<!-- B_:node1f09255tgx7&#45;&gt;Rdwc:Identification -->
<g id="edge28" class="edge">
<title>B_:node1f09255tgx7&#45;&gt;Rdwc:Identification</title>
<path fill="none" stroke="#000000" d="M312.7345,-472.1816C360.8969,-469.9734 495.1049,-463.8492 606.8478,-459.0228 650.2369,-457.1488 698.5208,-455.1346 738.4603,-453.4878"/>
<polygon fill="#000000" stroke="#000000" points="738.8444,-456.9751 748.6919,-453.0665 738.5563,-449.981 738.8444,-456.9751"/>
<text text-anchor="middle" x="650.8478" y="-462.8228" font-family="Times,serif" font-size="14.00" fill="#000000">rdf:type</text>
</g>
</g>
</svg>
