<?xml version="1.0" encoding="UTF-8" standalone="no"?>
<!DOCTYPE svg PUBLIC "-//W3C//DTD SVG 1.1//EN"
 "http://www.w3.org/Graphics/SVG/1.1/DTD/svg11.dtd">
<!-- Generated by graphviz version 2.40.1 (20161225.0304)
 -->
<!-- Title: %3 Pages: 1 -->
<svg width="2139pt" height="901pt"
 viewBox="0.00 0.00 2138.60 901.00" xmlns="http://www.w3.org/2000/svg" xmlns:xlink="http://www.w3.org/1999/xlink">
<g id="graph0" class="graph" transform="scale(1 1) rotate(0) translate(4 897)">
<title>%3</title>
<polygon fill="#ffffff" stroke="transparent" points="-4,4 -4,-897 2134.5963,-897 2134.5963,4 -4,4"/>
<text text-anchor="middle" x="1065.2982" y="-218.8" font-family="Times,serif" font-size="14.00" fill="#000000">Model:</text>
<text text-anchor="middle" x="1065.2982" y="-203.8" font-family="Times,serif" font-size="14.00" fill="#000000">(Unknown)</text>
<text text-anchor="middle" x="1065.2982" y="-172.8" font-family="Times,serif" font-size="14.00" fill="#000000">Namespaces:</text>
<text text-anchor="middle" x="1065.2982" y="-157.8" font-family="Times,serif" font-size="14.00" fill="#000000">dcmitype: http://purl.org/dc/dcmitype/</text>
<text text-anchor="middle" x="1065.2982" y="-142.8" font-family="Times,serif" font-size="14.00" fill="#000000">dcterms: http://purl.org/dc/terms/</text>
<text text-anchor="middle" x="1065.2982" y="-127.8" font-family="Times,serif" font-size="14.00" fill="#000000">dsw: http://purl.org/dsw/</text>
<text text-anchor="middle" x="1065.2982" y="-112.8" font-family="Times,serif" font-size="14.00" fill="#000000">dwc: http://rs.tdwg.org/dwc/terms/</text>
<text text-anchor="middle" x="1065.2982" y="-97.8" font-family="Times,serif" font-size="14.00" fill="#000000">foaf: http://xmlns.com/foaf/0.1/</text>
<text text-anchor="middle" x="1065.2982" y="-82.8" font-family="Times,serif" font-size="14.00" fill="#000000">img: http://localhost:8080/semanticAnnotator/files/</text>
<text text-anchor="middle" x="1065.2982" y="-67.8" font-family="Times,serif" font-size="14.00" fill="#000000">iso: http://iso639&#45;3.sil.org/code/</text>
<text text-anchor="middle" x="1065.2982" y="-52.8" font-family="Times,serif" font-size="14.00" fill="#000000">mf: http://www.w3.org/TR/media&#45;frags/</text>
<text text-anchor="middle" x="1065.2982" y="-37.8" font-family="Times,serif" font-size="14.00" fill="#000000">oa: http://www.w3.org/ns/oa#</text>
<text text-anchor="middle" x="1065.2982" y="-22.8" font-family="Times,serif" font-size="14.00" fill="#000000">orcid: http://orcid.org/</text>
<text text-anchor="middle" x="1065.2982" y="-7.8" font-family="Times,serif" font-size="14.00" fill="#000000">rdf: http://www.w3.org/1999/02/22&#45;rdf&#45;syntax&#45;ns#</text>
<!-- Rhttp://localhost:8080/rdf/nc/annotation/2c0bcf3b&#45;58cb&#45;49ff&#45;bfd3&#45;039b58fe89a9 -->
<g id="node1" class="node">
<title>Rhttp://localhost:8080/rdf/nc/annotation/2c0bcf3b&#45;58cb&#45;49ff&#45;bfd3&#45;039b58fe89a9</title>
<ellipse fill="none" stroke="#0000ff" cx="291.1742" cy="-673" rx="291.3484" ry="18"/>
<text text-anchor="middle" x="291.1742" y="-669.3" font-family="Times,serif" font-size="14.00" fill="#000000">http://localhost:8080/rdf/nc/annotation/2c0bcf3b&#45;58cb&#45;49ff&#45;bfd3&#45;039b58fe89a9</text>
</g>
<!-- Roa:Annotation -->
<g id="node2" class="node">
<title>Roa:Annotation</title>
<ellipse fill="none" stroke="#0000ff" cx="816.8385" cy="-806" rx="61.1893" ry="18"/>
<text text-anchor="middle" x="816.8385" y="-802.3" font-family="Times,serif" font-size="14.00" fill="#000000">oa:Annotation</text>
</g>
<!-- Rhttp://localhost:8080/rdf/nc/annotation/2c0bcf3b&#45;58cb&#45;49ff&#45;bfd3&#45;039b58fe89a9&#45;&gt;Roa:Annotation -->
<g id="edge1" class="edge">
<title>Rhttp://localhost:8080/rdf/nc/annotation/2c0bcf3b&#45;58cb&#45;49ff&#45;bfd3&#45;039b58fe89a9&#45;&gt;Roa:Annotation</title>
<path fill="none" stroke="#000000" d="M359.0795,-690.5659C441.2505,-711.7692 583.8351,-748.3922 706.3483,-779 723.6443,-783.3211 742.4827,-787.9524 759.6245,-792.1378"/>
<polygon fill="#000000" stroke="#000000" points="758.9524,-795.5763 769.4968,-794.5448 760.6105,-788.7755 758.9524,-795.5763"/>
<text text-anchor="middle" x="644.3483" y="-776.8" font-family="Times,serif" font-size="14.00" fill="#000000">rdf:type</text>
</g>
<!-- Rorcid:0000&#45;0002&#45;2146&#45;4803 -->
<g id="node3" class="node">
<title>Rorcid:0000&#45;0002&#45;2146&#45;4803</title>
<ellipse fill="none" stroke="#0000ff" cx="816.8385" cy="-752" rx="110.4804" ry="18"/>
<text text-anchor="middle" x="816.8385" y="-748.3" font-family="Times,serif" font-size="14.00" fill="#000000">orcid:0000&#45;0002&#45;2146&#45;4803</text>
</g>
<!-- Rhttp://localhost:8080/rdf/nc/annotation/2c0bcf3b&#45;58cb&#45;49ff&#45;bfd3&#45;039b58fe89a9&#45;&gt;Rorcid:0000&#45;0002&#45;2146&#45;4803 -->
<g id="edge2" class="edge">
<title>Rhttp://localhost:8080/rdf/nc/annotation/2c0bcf3b&#45;58cb&#45;49ff&#45;bfd3&#45;039b58fe89a9&#45;&gt;Rorcid:0000&#45;0002&#45;2146&#45;4803</title>
<path fill="none" stroke="#000000" d="M402.0117,-689.6573C498.1125,-704.0999 635.5187,-724.7502 725.4389,-738.2639"/>
<polygon fill="#000000" stroke="#000000" points="724.9375,-741.7278 735.3466,-739.7529 725.9778,-734.8055 724.9375,-741.7278"/>
<text text-anchor="middle" x="644.3483" y="-733.8" font-family="Times,serif" font-size="14.00" fill="#000000">dcterms:creator</text>
</g>
<!-- L2021&#45;01&#45;12T14:23:11.646Z|Datatype: dcterms:W3CDTF -->
<g id="node4" class="node">
<title>L2021&#45;01&#45;12T14:23:11.646Z|Datatype: dcterms:W3CDTF</title>
<polygon fill="none" stroke="#000000" points="729.3385,-669 729.3385,-715 904.3385,-715 904.3385,-669 729.3385,-669"/>
<text text-anchor="middle" x="816.8385" y="-699.8" font-family="Times,serif" font-size="14.00" fill="#000000">2021&#45;01&#45;12T14:23:11.646Z</text>
<polyline fill="none" stroke="#000000" points="729.3385,-692 904.3385,-692 "/>
<text text-anchor="middle" x="816.8385" y="-676.8" font-family="Times,serif" font-size="14.00" fill="#000000">Datatype: dcterms:W3CDTF</text>
</g>
<!-- Rhttp://localhost:8080/rdf/nc/annotation/2c0bcf3b&#45;58cb&#45;49ff&#45;bfd3&#45;039b58fe89a9&#45;&gt;L2021&#45;01&#45;12T14:23:11.646Z|Datatype: dcterms:W3CDTF -->
<g id="edge3" class="edge">
<title>Rhttp://localhost:8080/rdf/nc/annotation/2c0bcf3b&#45;58cb&#45;49ff&#45;bfd3&#45;039b58fe89a9&#45;&gt;L2021&#45;01&#45;12T14:23:11.646Z|Datatype: dcterms:W3CDTF</title>
<path fill="none" stroke="#000000" d="M542.8441,-682.0965C605.5138,-684.3617 669.0313,-686.6575 719.1101,-688.4676"/>
<polygon fill="#000000" stroke="#000000" points="719.1445,-691.9711 729.2644,-688.8347 719.3974,-684.9756 719.1445,-691.9711"/>
<text text-anchor="middle" x="644.3483" y="-689.8" font-family="Times,serif" font-size="14.00" fill="#000000">dcterms:date</text>
</g>
<!-- B_:node1euqlam8lx260 -->
<g id="node5" class="node">
<title>B_:node1euqlam8lx260</title>
<ellipse fill="none" stroke="#00ff00" cx="816.8385" cy="-632" rx="18" ry="18"/>
</g>
<!-- Rhttp://localhost:8080/rdf/nc/annotation/2c0bcf3b&#45;58cb&#45;49ff&#45;bfd3&#45;039b58fe89a9&#45;&gt;B_:node1euqlam8lx260 -->
<g id="edge4" class="edge">
<title>Rhttp://localhost:8080/rdf/nc/annotation/2c0bcf3b&#45;58cb&#45;49ff&#45;bfd3&#45;039b58fe89a9&#45;&gt;B_:node1euqlam8lx260</title>
<path fill="none" stroke="#000000" d="M472.078,-658.8901C588.9436,-649.775 729.8204,-638.7871 788.7673,-634.1895"/>
<polygon fill="#000000" stroke="#000000" points="789.0988,-637.6743 798.7963,-633.4072 788.5544,-630.6955 789.0988,-637.6743"/>
<text text-anchor="middle" x="644.3483" y="-652.8" font-family="Times,serif" font-size="14.00" fill="#000000">oa:hasBody</text>
</g>
<!-- B_:node1euqlam8lx259 -->
<g id="node12" class="node">
<title>B_:node1euqlam8lx259</title>
<ellipse fill="none" stroke="#00ff00" cx="816.8385" cy="-467" rx="18" ry="18"/>
</g>
<!-- Rhttp://localhost:8080/rdf/nc/annotation/2c0bcf3b&#45;58cb&#45;49ff&#45;bfd3&#45;039b58fe89a9&#45;&gt;B_:node1euqlam8lx259 -->
<g id="edge11" class="edge">
<title>Rhttp://localhost:8080/rdf/nc/annotation/2c0bcf3b&#45;58cb&#45;49ff&#45;bfd3&#45;039b58fe89a9&#45;&gt;B_:node1euqlam8lx259</title>
<path fill="none" stroke="#000000" d="M336.9039,-655.0792C443.717,-613.2207 706.8863,-510.0886 790.7309,-477.2312"/>
<polygon fill="#000000" stroke="#000000" points="792.0108,-480.4889 800.0443,-473.5814 789.4567,-473.9714 792.0108,-480.4889"/>
<text text-anchor="middle" x="644.3483" y="-555.8" font-family="Times,serif" font-size="14.00" fill="#000000">oa:hasTarget</text>
</g>
<!-- Roa:describing -->
<g id="node19" class="node">
<title>Roa:describing</title>
<ellipse fill="none" stroke="#0000ff" cx="816.8385" cy="-413" rx="57.6901" ry="18"/>
<text text-anchor="middle" x="816.8385" y="-409.3" font-family="Times,serif" font-size="14.00" fill="#000000">oa:describing</text>
</g>
<!-- Rhttp://localhost:8080/rdf/nc/annotation/2c0bcf3b&#45;58cb&#45;49ff&#45;bfd3&#45;039b58fe89a9&#45;&gt;Roa:describing -->
<g id="edge19" class="edge">
<title>Rhttp://localhost:8080/rdf/nc/annotation/2c0bcf3b&#45;58cb&#45;49ff&#45;bfd3&#45;039b58fe89a9&#45;&gt;Roa:describing</title>
<path fill="none" stroke="#000000" d="M317.5912,-654.7682C381.4896,-611.4479 550.6384,-501.3885 706.3483,-440 722.3221,-433.7023 740.1918,-428.5678 756.8265,-424.5329"/>
<polygon fill="#000000" stroke="#000000" points="758.0521,-427.8411 766.9964,-422.1621 756.4629,-421.0239 758.0521,-427.8411"/>
<text text-anchor="middle" x="644.3483" y="-486.8" font-family="Times,serif" font-size="14.00" fill="#000000">oa:motivatedBy</text>
</g>
<!-- Rfoaf:Person -->
<g id="node20" class="node">
<title>Rfoaf:Person</title>
<ellipse fill="none" stroke="#0000ff" cx="1242.9625" cy="-871" rx="51.1914" ry="18"/>
<text text-anchor="middle" x="1242.9625" y="-867.3" font-family="Times,serif" font-size="14.00" fill="#000000">foaf:Person</text>
</g>
<!-- Rorcid:0000&#45;0002&#45;2146&#45;4803&#45;&gt;Rfoaf:Person -->
<g id="edge20" class="edge">
<title>Rorcid:0000&#45;0002&#45;2146&#45;4803&#45;&gt;Rfoaf:Person</title>
<path fill="none" stroke="#000000" d="M902.8774,-763.4425C911.856,-767.3185 920.2641,-772.3883 927.3287,-779 946.7255,-797.1533 924.8561,-819.0692 945.3287,-836 1013.3576,-892.2596 1121.9551,-889.3182 1187.4607,-880.9368"/>
<polygon fill="#000000" stroke="#000000" points="1188.1568,-884.3743 1197.5912,-879.5532 1187.2095,-877.4387 1188.1568,-884.3743"/>
<text text-anchor="middle" x="993.8287" y="-881.8" font-family="Times,serif" font-size="14.00" fill="#000000">rdf:type</text>
</g>
<!-- Rdwc:MeasurementOrFact -->
<g id="node6" class="node">
<title>Rdwc:MeasurementOrFact</title>
<ellipse fill="none" stroke="#0000ff" cx="1242.9625" cy="-557" rx="100.9827" ry="18"/>
<text text-anchor="middle" x="1242.9625" y="-553.3" font-family="Times,serif" font-size="14.00" fill="#000000">dwc:MeasurementOrFact</text>
</g>
<!-- B_:node1euqlam8lx260&#45;&gt;Rdwc:MeasurementOrFact -->
<g id="edge5" class="edge">
<title>B_:node1euqlam8lx260&#45;&gt;Rdwc:MeasurementOrFact</title>
<path fill="none" stroke="#000000" d="M834.5046,-628.2157C874.5617,-619.7013 975.4089,-598.6388 1060.3287,-584 1090.2787,-578.8371 1123.0977,-573.7947 1152.5517,-569.4918"/>
<polygon fill="#000000" stroke="#000000" points="1153.4257,-572.9017 1162.8193,-568.0016 1152.4203,-565.9743 1153.4257,-572.9017"/>
<text text-anchor="middle" x="993.8287" y="-609.8" font-family="Times,serif" font-size="14.00" fill="#000000">rdf:type</text>
</g>
<!-- Roa:TextualBody -->
<g id="node7" class="node">
<title>Roa:TextualBody</title>
<ellipse fill="none" stroke="#0000ff" cx="1242.9625" cy="-817" rx="67.6881" ry="18"/>
<text text-anchor="middle" x="1242.9625" y="-813.3" font-family="Times,serif" font-size="14.00" fill="#000000">oa:TextualBody</text>
</g>
<!-- B_:node1euqlam8lx260&#45;&gt;Roa:TextualBody -->
<g id="edge6" class="edge">
<title>B_:node1euqlam8lx260&#45;&gt;Roa:TextualBody</title>
<path fill="none" stroke="#000000" d="M835.0009,-631.1156C859.5827,-630.9782 903.1432,-634.6647 927.3287,-660 954.8942,-688.876 919.2707,-717.7566 945.3287,-748 980.8464,-789.2224 1007.5866,-776.6186 1060.3287,-790 1095.6632,-798.9648 1135.6495,-805.2932 1169.18,-809.5583"/>
<polygon fill="#000000" stroke="#000000" points="1169.0128,-813.0642 1179.3664,-810.8163 1169.8709,-806.1169 1169.0128,-813.0642"/>
<text text-anchor="middle" x="993.8287" y="-788.8" font-family="Times,serif" font-size="14.00" fill="#000000">rdf:type</text>
</g>
<!-- Ltext/plain -->
<g id="node8" class="node">
<title>Ltext/plain</title>
<polygon fill="none" stroke="#000000" points="1208.9625,-744 1208.9625,-780 1276.9625,-780 1276.9625,-744 1208.9625,-744"/>
<text text-anchor="middle" x="1242.9625" y="-758.3" font-family="Times,serif" font-size="14.00" fill="#000000">text/plain</text>
</g>
<!-- B_:node1euqlam8lx260&#45;&gt;Ltext/plain -->
<g id="edge7" class="edge">
<title>B_:node1euqlam8lx260&#45;&gt;Ltext/plain</title>
<path fill="none" stroke="#000000" d="M834.8837,-632.1607C858.5467,-633.2729 900.2276,-638.4412 927.3287,-660 941.0178,-670.8896 932.079,-683.5798 945.3287,-695 986.2094,-730.2358 1007.8995,-721.1951 1060.3287,-734 1107.0422,-745.409 1161.6715,-753.0574 1198.9283,-757.4374"/>
<polygon fill="#000000" stroke="#000000" points="1198.6215,-760.9251 1208.955,-758.5865 1199.4186,-753.9706 1198.6215,-760.9251"/>
<text text-anchor="middle" x="993.8287" y="-732.8" font-family="Times,serif" font-size="14.00" fill="#000000">dcterms:format</text>
</g>
<!-- Riso:lat -->
<g id="node9" class="node">
<title>Riso:lat</title>
<ellipse fill="none" stroke="#0000ff" cx="1242.9625" cy="-707" rx="32.4942" ry="18"/>
<text text-anchor="middle" x="1242.9625" y="-703.3" font-family="Times,serif" font-size="14.00" fill="#000000">iso:lat</text>
</g>
<!-- B_:node1euqlam8lx260&#45;&gt;Riso:lat -->
<g id="edge8" class="edge">
<title>B_:node1euqlam8lx260&#45;&gt;Riso:lat</title>
<path fill="none" stroke="#000000" d="M834.5046,-635.7843C874.5617,-644.2987 975.4089,-665.3612 1060.3287,-680 1108.5443,-688.3116 1164.1957,-696.311 1201.272,-701.4153"/>
<polygon fill="#000000" stroke="#000000" points="1200.8329,-704.8878 1211.2152,-702.7761 1201.7821,-697.9524 1200.8329,-704.8878"/>
<text text-anchor="middle" x="993.8287" y="-679.8" font-family="Times,serif" font-size="14.00" fill="#000000">dcterms:language</text>
</g>
<!-- Rimg:MMNAT01_AF_NNM001001033_003.jpg -->
<g id="node10" class="node">
<title>Rimg:MMNAT01_AF_NNM001001033_003.jpg</title>
<ellipse fill="none" stroke="#0000ff" cx="1242.9625" cy="-503" rx="182.7677" ry="18"/>
<text text-anchor="middle" x="1242.9625" y="-499.3" font-family="Times,serif" font-size="14.00" fill="#000000">img:MMNAT01_AF_NNM001001033_003.jpg</text>
</g>
<!-- B_:node1euqlam8lx260&#45;&gt;Rimg:MMNAT01_AF_NNM001001033_003.jpg -->
<g id="edge9" class="edge">
<title>B_:node1euqlam8lx260&#45;&gt;Rimg:MMNAT01_AF_NNM001001033_003.jpg</title>
<path fill="none" stroke="#000000" d="M832.7585,-623.3637C856.7414,-610.5451 903.7612,-586.1552 945.3287,-569 995.2173,-548.4107 1007.8654,-542.6645 1060.3287,-530 1078.5032,-525.6127 1097.8775,-521.823 1116.9614,-518.5862"/>
<polygon fill="#000000" stroke="#000000" points="1117.6106,-522.0265 1126.9066,-516.9438 1116.4699,-515.1201 1117.6106,-522.0265"/>
<text text-anchor="middle" x="993.8287" y="-572.8" font-family="Times,serif" font-size="14.00" fill="#000000">dsw:derivedFrom</text>
</g>
<!-- LMarkdown table or list.\n&#45; item1\n&#45; item2|Language: lat -->
<g id="node11" class="node">
<title>LMarkdown table or list.\n&#45; item1\n&#45; item2|Language: lat</title>
<polygon fill="none" stroke="#000000" points="1169.9625,-594 1169.9625,-670 1315.9625,-670 1315.9625,-594 1169.9625,-594"/>
<text text-anchor="middle" x="1242.9625" y="-654.8" font-family="Times,serif" font-size="14.00" fill="#000000">Markdown table or list.</text>
<text text-anchor="middle" x="1242.9625" y="-639.8" font-family="Times,serif" font-size="14.00" fill="#000000">&#45; item1</text>
<text text-anchor="middle" x="1242.9625" y="-624.8" font-family="Times,serif" font-size="14.00" fill="#000000">&#45; item2</text>
<polyline fill="none" stroke="#000000" points="1169.9625,-617 1315.9625,-617 "/>
<text text-anchor="middle" x="1242.9625" y="-601.8" font-family="Times,serif" font-size="14.00" fill="#000000">Language: lat</text>
</g>
<!-- B_:node1euqlam8lx260&#45;&gt;LMarkdown table or list.\n&#45; item1\n&#45; item2|Language: lat -->
<g id="edge10" class="edge">
<title>B_:node1euqlam8lx260&#45;&gt;LMarkdown table or list.\n&#45; item1\n&#45; item2|Language: lat</title>
<path fill="none" stroke="#000000" d="M834.8764,-632C889.7598,-632 1057.2295,-632 1159.7832,-632"/>
<polygon fill="#000000" stroke="#000000" points="1159.8058,-635.5001 1169.8057,-632 1159.8057,-628.5001 1159.8058,-635.5001"/>
<text text-anchor="middle" x="993.8287" y="-635.8" font-family="Times,serif" font-size="14.00" fill="#000000">rdf:value</text>
</g>
<!-- Rdcmitype:StillImage -->
<g id="node21" class="node">
<title>Rdcmitype:StillImage</title>
<ellipse fill="none" stroke="#0000ff" cx="1853.5963" cy="-502" rx="83.3857" ry="18"/>
<text text-anchor="middle" x="1853.5963" y="-498.3" font-family="Times,serif" font-size="14.00" fill="#000000">dcmitype:StillImage</text>
</g>
<!-- Rimg:MMNAT01_AF_NNM001001033_003.jpg&#45;&gt;Rdcmitype:StillImage -->
<g id="edge21" class="edge">
<title>Rimg:MMNAT01_AF_NNM001001033_003.jpg&#45;&gt;Rdcmitype:StillImage</title>
<path fill="none" stroke="#000000" d="M1425.7591,-502.7006C1535.8848,-502.5203 1671.5061,-502.2982 1760.1415,-502.153"/>
<polygon fill="#000000" stroke="#000000" points="1760.1817,-505.6531 1770.1759,-502.1366 1760.1702,-498.6531 1760.1817,-505.6531"/>
<text text-anchor="middle" x="1501.0963" y="-506.8" font-family="Times,serif" font-size="14.00" fill="#000000">rdf:type</text>
</g>
<!-- Rdsw:Token -->
<g id="node22" class="node">
<title>Rdsw:Token</title>
<ellipse fill="none" stroke="#0000ff" cx="1853.5963" cy="-448" rx="50.0912" ry="18"/>
<text text-anchor="middle" x="1853.5963" y="-444.3" font-family="Times,serif" font-size="14.00" fill="#000000">dsw:Token</text>
</g>
<!-- Rimg:MMNAT01_AF_NNM001001033_003.jpg&#45;&gt;Rdsw:Token -->
<g id="edge22" class="edge">
<title>Rimg:MMNAT01_AF_NNM001001033_003.jpg&#45;&gt;Rdsw:Token</title>
<path fill="none" stroke="#000000" d="M1374.0778,-490.4533C1397.2369,-488.2743 1421.1224,-486.0508 1443.5963,-484 1568.3917,-472.6123 1714.6191,-459.932 1794.3463,-453.0745"/>
<polygon fill="#000000" stroke="#000000" points="1795.0114,-456.5303 1804.6749,-452.1867 1794.4119,-449.556 1795.0114,-456.5303"/>
<text text-anchor="middle" x="1501.0963" y="-487.8" font-family="Times,serif" font-size="14.00" fill="#000000">rdf:type</text>
</g>
<!-- Rdwc:HumanObservation -->
<g id="node23" class="node">
<title>Rdwc:HumanObservation</title>
<ellipse fill="none" stroke="#0000ff" cx="1853.5963" cy="-664" rx="96.6831" ry="18"/>
<text text-anchor="middle" x="1853.5963" y="-660.3" font-family="Times,serif" font-size="14.00" fill="#000000">dwc:HumanObservation</text>
</g>
<!-- Rimg:MMNAT01_AF_NNM001001033_003.jpg&#45;&gt;Rdwc:HumanObservation -->
<g id="edge23" class="edge">
<title>Rimg:MMNAT01_AF_NNM001001033_003.jpg&#45;&gt;Rdwc:HumanObservation</title>
<path fill="none" stroke="#000000" d="M1398.9478,-512.4536C1408.5971,-517.05 1417.6162,-522.8161 1425.5963,-530 1449.4706,-551.4923 1421.106,-577.0634 1443.5963,-600 1528.2746,-686.3584 1678.2162,-686.9745 1771.4057,-677.167"/>
<polygon fill="#000000" stroke="#000000" points="1771.8099,-680.6437 1781.3605,-676.0571 1771.0342,-673.6868 1771.8099,-680.6437"/>
<text text-anchor="middle" x="1501.0963" y="-667.8" font-family="Times,serif" font-size="14.00" fill="#000000">rdf:type</text>
</g>
<!-- Roa:Source -->
<g id="node24" class="node">
<title>Roa:Source</title>
<ellipse fill="none" stroke="#0000ff" cx="1853.5963" cy="-610" rx="46.2923" ry="18"/>
<text text-anchor="middle" x="1853.5963" y="-606.3" font-family="Times,serif" font-size="14.00" fill="#000000">oa:Source</text>
</g>
<!-- Rimg:MMNAT01_AF_NNM001001033_003.jpg&#45;&gt;Roa:Source -->
<g id="edge24" class="edge">
<title>Rimg:MMNAT01_AF_NNM001001033_003.jpg&#45;&gt;Roa:Source</title>
<path fill="none" stroke="#000000" d="M1386.8112,-514.1356C1400.3659,-518.1529 1413.5309,-523.3384 1425.5963,-530 1436.3577,-535.9416 1433.1109,-544.5837 1443.5963,-551 1495.4553,-582.7338 1516.6405,-572.9155 1576.5963,-583 1652.6288,-595.7886 1741.4972,-603.1247 1797.6597,-606.8368"/>
<polygon fill="#000000" stroke="#000000" points="1797.5508,-610.3369 1807.7554,-607.4883 1798.0016,-603.3515 1797.5508,-610.3369"/>
<text text-anchor="middle" x="1501.0963" y="-584.8" font-family="Times,serif" font-size="14.00" fill="#000000">rdf:type</text>
</g>
<!-- Rfoaf:Image -->
<g id="node25" class="node">
<title>Rfoaf:Image</title>
<ellipse fill="none" stroke="#0000ff" cx="1853.5963" cy="-556" rx="50.0912" ry="18"/>
<text text-anchor="middle" x="1853.5963" y="-552.3" font-family="Times,serif" font-size="14.00" fill="#000000">foaf:Image</text>
</g>
<!-- Rimg:MMNAT01_AF_NNM001001033_003.jpg&#45;&gt;Rfoaf:Image -->
<g id="edge25" class="edge">
<title>Rimg:MMNAT01_AF_NNM001001033_003.jpg&#45;&gt;Rfoaf:Image</title>
<path fill="none" stroke="#000000" d="M1373.5311,-515.5876C1396.8591,-517.7731 1420.9432,-519.9882 1443.5963,-522 1568.3673,-533.081 1714.6038,-544.9362 1794.339,-551.3044"/>
<polygon fill="#000000" stroke="#000000" points="1794.422,-554.8221 1804.6687,-552.1284 1794.9787,-547.8442 1794.422,-554.8221"/>
<text text-anchor="middle" x="1501.0963" y="-535.8" font-family="Times,serif" font-size="14.00" fill="#000000">rdf:type</text>
</g>
<!-- B_:node1euqlam8lx259&#45;&gt;Rimg:MMNAT01_AF_NNM001001033_003.jpg -->
<g id="edge18" class="edge">
<title>B_:node1euqlam8lx259&#45;&gt;Rimg:MMNAT01_AF_NNM001001033_003.jpg</title>
<path fill="none" stroke="#000000" d="M834.8764,-468.5239C879.137,-472.2631 996.6191,-482.1883 1094.2261,-490.4344"/>
<polygon fill="#000000" stroke="#000000" points="1093.9493,-493.9234 1104.2085,-491.2777 1094.5387,-486.9482 1093.9493,-493.9234"/>
<text text-anchor="middle" x="993.8287" y="-488.8" font-family="Times,serif" font-size="14.00" fill="#000000">oa:hasSource</text>
</g>
<!-- Roa:Target -->
<g id="node13" class="node">
<title>Roa:Target</title>
<ellipse fill="none" stroke="#0000ff" cx="1242.9625" cy="-339" rx="44.393" ry="18"/>
<text text-anchor="middle" x="1242.9625" y="-335.3" font-family="Times,serif" font-size="14.00" fill="#000000">oa:Target</text>
</g>
<!-- B_:node1euqlam8lx259&#45;&gt;Roa:Target -->
<g id="edge12" class="edge">
<title>B_:node1euqlam8lx259&#45;&gt;Roa:Target</title>
<path fill="none" stroke="#000000" d="M835.0131,-467.6762C859.2076,-467.5636 901.8931,-463.6831 927.3287,-440 946.462,-422.185 925.4608,-400.9919 945.3287,-384 1014.1295,-325.1587 1126.1057,-325.346 1191.3203,-331.6179"/>
<polygon fill="#000000" stroke="#000000" points="1191.0618,-335.1099 1201.3715,-332.6686 1191.7897,-328.1478 1191.0618,-335.1099"/>
<text text-anchor="middle" x="993.8287" y="-387.8" font-family="Times,serif" font-size="14.00" fill="#000000">rdf:type</text>
</g>
<!-- Limage/jpeg -->
<g id="node14" class="node">
<title>Limage/jpeg</title>
<polygon fill="none" stroke="#000000" points="1204.4625,-430 1204.4625,-466 1281.4625,-466 1281.4625,-430 1204.4625,-430"/>
<text text-anchor="middle" x="1242.9625" y="-444.3" font-family="Times,serif" font-size="14.00" fill="#000000">image/jpeg</text>
</g>
<!-- B_:node1euqlam8lx259&#45;&gt;Limage/jpeg -->
<g id="edge13" class="edge">
<title>B_:node1euqlam8lx259&#45;&gt;Limage/jpeg</title>
<path fill="none" stroke="#000000" d="M834.6335,-463.7266C859.3604,-459.3571 905.5604,-451.8391 945.3287,-449 1032.8488,-442.7517 1135.2137,-444.3525 1194.2244,-446.1387"/>
<polygon fill="#000000" stroke="#000000" points="1194.2661,-449.6417 1204.3721,-446.4608 1194.4882,-442.6452 1194.2661,-449.6417"/>
<text text-anchor="middle" x="993.8287" y="-452.8" font-family="Times,serif" font-size="14.00" fill="#000000">dcterms:format</text>
</g>
<!-- B_:node1euqlam8lx262 -->
<g id="node15" class="node">
<title>B_:node1euqlam8lx262</title>
<ellipse fill="none" stroke="#00ff00" cx="1242.9625" cy="-393" rx="18" ry="18"/>
</g>
<!-- B_:node1euqlam8lx259&#45;&gt;B_:node1euqlam8lx262 -->
<g id="edge14" class="edge">
<title>B_:node1euqlam8lx259&#45;&gt;B_:node1euqlam8lx262</title>
<path fill="none" stroke="#000000" d="M834.7599,-464.7857C857.2156,-461.5321 896.4928,-454.2383 927.3287,-440 936.288,-435.8631 936.1269,-430.565 945.3287,-427 1038.7921,-390.7906 1160.2144,-389.8305 1214.5297,-391.5681"/>
<polygon fill="#000000" stroke="#000000" points="1214.644,-395.0748 1224.769,-391.955 1214.9084,-388.0798 1214.644,-395.0748"/>
<text text-anchor="middle" x="993.8287" y="-430.8" font-family="Times,serif" font-size="14.00" fill="#000000">oa:hasSelector</text>
</g>
<!-- Roa:FragmentSelector -->
<g id="node16" class="node">
<title>Roa:FragmentSelector</title>
<ellipse fill="none" stroke="#0000ff" cx="1853.5963" cy="-284" rx="84.485" ry="18"/>
<text text-anchor="middle" x="1853.5963" y="-280.3" font-family="Times,serif" font-size="14.00" fill="#000000">oa:FragmentSelector</text>
</g>
<!-- B_:node1euqlam8lx262&#45;&gt;Roa:FragmentSelector -->
<g id="edge15" class="edge">
<title>B_:node1euqlam8lx262&#45;&gt;Roa:FragmentSelector</title>
<path fill="none" stroke="#000000" d="M1260.995,-394.0954C1295.1734,-395.3903 1370.8573,-394.4696 1425.5963,-366 1435.9162,-360.6326 1433.6096,-352.9644 1443.5963,-347 1496.1718,-315.6003 1516.3557,-322.0089 1576.5963,-311 1637.6595,-299.8408 1707.1949,-293.0821 1761.321,-289.1176"/>
<polygon fill="#000000" stroke="#000000" points="1761.8621,-292.588 1771.5877,-288.3854 1761.3641,-285.6057 1761.8621,-292.588"/>
<text text-anchor="middle" x="1501.0963" y="-350.8" font-family="Times,serif" font-size="14.00" fill="#000000">rdf:type</text>
</g>
<!-- Rmf: -->
<g id="node17" class="node">
<title>Rmf:</title>
<ellipse fill="none" stroke="#0000ff" cx="1853.5963" cy="-394" rx="27" ry="18"/>
<text text-anchor="middle" x="1853.5963" y="-390.3" font-family="Times,serif" font-size="14.00" fill="#000000">mf:</text>
</g>
<!-- B_:node1euqlam8lx262&#45;&gt;Rmf: -->
<g id="edge16" class="edge">
<title>B_:node1euqlam8lx262&#45;&gt;Rmf:</title>
<path fill="none" stroke="#000000" d="M1261.2376,-393.0299C1345.8123,-393.1684 1700.0359,-393.7485 1816.388,-393.9391"/>
<polygon fill="#000000" stroke="#000000" points="1816.5684,-397.4393 1826.5741,-393.9557 1816.5799,-390.4393 1816.5684,-397.4393"/>
<text text-anchor="middle" x="1501.0963" y="-397.8" font-family="Times,serif" font-size="14.00" fill="#000000">dcterms:conformsTo</text>
</g>
<!-- Lxywh=0.5614033197022136,0.11586327570674965,0.14027982326951394,0.0625920471281296 -->
<g id="node18" class="node">
<title>Lxywh=0.5614033197022136,0.11586327570674965,0.14027982326951394,0.0625920471281296</title>
<polygon fill="none" stroke="#000000" points="1576.5963,-321 1576.5963,-357 2130.5963,-357 2130.5963,-321 1576.5963,-321"/>
<text text-anchor="middle" x="1853.5963" y="-335.3" font-family="Times,serif" font-size="14.00" fill="#000000">xywh=0.5614033197022136,0.11586327570674965,0.14027982326951394,0.0625920471281296</text>
</g>
<!-- B_:node1euqlam8lx262&#45;&gt;Lxywh=0.5614033197022136,0.11586327570674965,0.14027982326951394,0.0625920471281296 -->
<g id="edge17" class="edge">
<title>B_:node1euqlam8lx262&#45;&gt;Lxywh=0.5614033197022136,0.11586327570674965,0.14027982326951394,0.0625920471281296</title>
<path fill="none" stroke="#000000" d="M1260.9463,-391.3751C1296.0564,-388.2052 1376.1902,-380.983 1443.5963,-375 1506.5963,-369.4081 1575.046,-363.3793 1637.6453,-357.8843"/>
<polygon fill="#000000" stroke="#000000" points="1637.9844,-361.3681 1647.6401,-357.0071 1637.3724,-354.3949 1637.9844,-361.3681"/>
<text text-anchor="middle" x="1501.0963" y="-378.8" font-family="Times,serif" font-size="14.00" fill="#000000">rdf:value</text>
</g>
</g>
</svg>
