<?xml version="1.0" encoding="UTF-8" standalone="no"?>
<!DOCTYPE svg PUBLIC "-//W3C//DTD SVG 1.1//EN"
 "http://www.w3.org/Graphics/SVG/1.1/DTD/svg11.dtd">
<!-- Generated by graphviz version 2.40.1 (20161225.0304)
 -->
<!-- Title: %3 Pages: 1 -->
<svg width="2153pt" height="1007pt"
 viewBox="0.00 0.00 2152.90 1006.50" xmlns="http://www.w3.org/2000/svg" xmlns:xlink="http://www.w3.org/1999/xlink">
<g id="graph0" class="graph" transform="scale(1 1) rotate(0) translate(4 1002.5)">
<title>%3</title>
<polygon fill="#ffffff" stroke="transparent" points="-4,4 -4,-1002.5 2148.895,-1002.5 2148.895,4 -4,4"/>
<text text-anchor="middle" x="1072.4475" y="-218.8" font-family="Times,serif" font-size="14.00" fill="#000000">Model:</text>
<text text-anchor="middle" x="1072.4475" y="-203.8" font-family="Times,serif" font-size="14.00" fill="#000000">(Unknown)</text>
<text text-anchor="middle" x="1072.4475" y="-172.8" font-family="Times,serif" font-size="14.00" fill="#000000">Namespaces:</text>
<text text-anchor="middle" x="1072.4475" y="-157.8" font-family="Times,serif" font-size="14.00" fill="#000000">dcmitype: http://purl.org/dc/dcmitype/</text>
<text text-anchor="middle" x="1072.4475" y="-142.8" font-family="Times,serif" font-size="14.00" fill="#000000">dcterms: http://purl.org/dc/terms/</text>
<text text-anchor="middle" x="1072.4475" y="-127.8" font-family="Times,serif" font-size="14.00" fill="#000000">dsw: http://purl.org/dsw/</text>
<text text-anchor="middle" x="1072.4475" y="-112.8" font-family="Times,serif" font-size="14.00" fill="#000000">dwc: http://rs.tdwg.org/dwc/terms/</text>
<text text-anchor="middle" x="1072.4475" y="-97.8" font-family="Times,serif" font-size="14.00" fill="#000000">foaf: http://xmlns.com/foaf/0.1/</text>
<text text-anchor="middle" x="1072.4475" y="-82.8" font-family="Times,serif" font-size="14.00" fill="#000000">img: http://localhost:8080/semanticAnnotator/files/</text>
<text text-anchor="middle" x="1072.4475" y="-67.8" font-family="Times,serif" font-size="14.00" fill="#000000">iso: http://iso639&#45;3.sil.org/code/</text>
<text text-anchor="middle" x="1072.4475" y="-52.8" font-family="Times,serif" font-size="14.00" fill="#000000">mf: http://www.w3.org/TR/media&#45;frags/</text>
<text text-anchor="middle" x="1072.4475" y="-37.8" font-family="Times,serif" font-size="14.00" fill="#000000">oa: http://www.w3.org/ns/oa#</text>
<text text-anchor="middle" x="1072.4475" y="-22.8" font-family="Times,serif" font-size="14.00" fill="#000000">orcid: http://orcid.org/</text>
<text text-anchor="middle" x="1072.4475" y="-7.8" font-family="Times,serif" font-size="14.00" fill="#000000">rdf: http://www.w3.org/1999/02/22&#45;rdf&#45;syntax&#45;ns#</text>
<!-- Rhttp://localhost:8080/rdf/nc/annotation/1484146e&#45;a555&#45;4291&#45;b256&#45;e48d5663c7a0 -->
<g id="node1" class="node">
<title>Rhttp://localhost:8080/rdf/nc/annotation/1484146e&#45;a555&#45;4291&#45;b256&#45;e48d5663c7a0</title>
<ellipse fill="none" stroke="#0000ff" cx="298.3235" cy="-740.5" rx="298.1472" ry="18"/>
<text text-anchor="middle" x="298.3235" y="-736.8" font-family="Times,serif" font-size="14.00" fill="#000000">http://localhost:8080/rdf/nc/annotation/1484146e&#45;a555&#45;4291&#45;b256&#45;e48d5663c7a0</text>
</g>
<!-- Roa:Annotation -->
<g id="node2" class="node">
<title>Roa:Annotation</title>
<ellipse fill="none" stroke="#0000ff" cx="831.1373" cy="-873.5" rx="61.1893" ry="18"/>
<text text-anchor="middle" x="831.1373" y="-869.8" font-family="Times,serif" font-size="14.00" fill="#000000">oa:Annotation</text>
</g>
<!-- Rhttp://localhost:8080/rdf/nc/annotation/1484146e&#45;a555&#45;4291&#45;b256&#45;e48d5663c7a0&#45;&gt;Roa:Annotation -->
<g id="edge1" class="edge">
<title>Rhttp://localhost:8080/rdf/nc/annotation/1484146e&#45;a555&#45;4291&#45;b256&#45;e48d5663c7a0&#45;&gt;Roa:Annotation</title>
<path fill="none" stroke="#000000" d="M367.7902,-758.0769C451.4553,-779.2136 596.2728,-815.6954 720.6471,-846.5 737.9518,-850.786 756.7928,-855.4069 773.9343,-859.5936"/>
<polygon fill="#000000" stroke="#000000" points="773.2614,-863.032 783.8061,-862.0026 774.9209,-856.2316 773.2614,-863.032"/>
<text text-anchor="middle" x="658.6471" y="-844.3" font-family="Times,serif" font-size="14.00" fill="#000000">rdf:type</text>
</g>
<!-- Rorcid:0000&#45;0002&#45;2146&#45;4803 -->
<g id="node3" class="node">
<title>Rorcid:0000&#45;0002&#45;2146&#45;4803</title>
<ellipse fill="none" stroke="#0000ff" cx="831.1373" cy="-819.5" rx="110.4804" ry="18"/>
<text text-anchor="middle" x="831.1373" y="-815.8" font-family="Times,serif" font-size="14.00" fill="#000000">orcid:0000&#45;0002&#45;2146&#45;4803</text>
</g>
<!-- Rhttp://localhost:8080/rdf/nc/annotation/1484146e&#45;a555&#45;4291&#45;b256&#45;e48d5663c7a0&#45;&gt;Rorcid:0000&#45;0002&#45;2146&#45;4803 -->
<g id="edge2" class="edge">
<title>Rhttp://localhost:8080/rdf/nc/annotation/1484146e&#45;a555&#45;4291&#45;b256&#45;e48d5663c7a0&#45;&gt;Rorcid:0000&#45;0002&#45;2146&#45;4803</title>
<path fill="none" stroke="#000000" d="M410.9939,-757.2056C508.5744,-771.6738 647.99,-792.3449 739.0214,-805.842"/>
<polygon fill="#000000" stroke="#000000" points="738.645,-809.3244 749.0502,-807.329 739.6717,-802.4001 738.645,-809.3244"/>
<text text-anchor="middle" x="658.6471" y="-803.3" font-family="Times,serif" font-size="14.00" fill="#000000">dcterms:creator</text>
</g>
<!-- L2021&#45;01&#45;12T14:23:11.646Z|Datatype: dcterms:W3CDTF -->
<g id="node4" class="node">
<title>L2021&#45;01&#45;12T14:23:11.646Z|Datatype: dcterms:W3CDTF</title>
<polygon fill="none" stroke="#000000" points="743.6373,-736.5 743.6373,-782.5 918.6373,-782.5 918.6373,-736.5 743.6373,-736.5"/>
<text text-anchor="middle" x="831.1373" y="-767.3" font-family="Times,serif" font-size="14.00" fill="#000000">2021&#45;01&#45;12T14:23:11.646Z</text>
<polyline fill="none" stroke="#000000" points="743.6373,-759.5 918.6373,-759.5 "/>
<text text-anchor="middle" x="831.1373" y="-744.3" font-family="Times,serif" font-size="14.00" fill="#000000">Datatype: dcterms:W3CDTF</text>
</g>
<!-- Rhttp://localhost:8080/rdf/nc/annotation/1484146e&#45;a555&#45;4291&#45;b256&#45;e48d5663c7a0&#45;&gt;L2021&#45;01&#45;12T14:23:11.646Z|Datatype: dcterms:W3CDTF -->
<g id="edge3" class="edge">
<title>Rhttp://localhost:8080/rdf/nc/annotation/1484146e&#45;a555&#45;4291&#45;b256&#45;e48d5663c7a0&#45;&gt;L2021&#45;01&#45;12T14:23:11.646Z|Datatype: dcterms:W3CDTF</title>
<path fill="none" stroke="#000000" d="M555.3662,-749.6661C618.7272,-751.9255 682.7952,-754.2102 733.2106,-756.008"/>
<polygon fill="#000000" stroke="#000000" points="733.313,-759.5137 743.4314,-756.3724 733.5625,-752.5182 733.313,-759.5137"/>
<text text-anchor="middle" x="658.6471" y="-759.3" font-family="Times,serif" font-size="14.00" fill="#000000">dcterms:date</text>
</g>
<!-- B_:node1evfesn2mx2 -->
<g id="node5" class="node">
<title>B_:node1evfesn2mx2</title>
<ellipse fill="none" stroke="#00ff00" cx="831.1373" cy="-699.5" rx="18" ry="18"/>
</g>
<!-- Rhttp://localhost:8080/rdf/nc/annotation/1484146e&#45;a555&#45;4291&#45;b256&#45;e48d5663c7a0&#45;&gt;B_:node1evfesn2mx2 -->
<g id="edge4" class="edge">
<title>Rhttp://localhost:8080/rdf/nc/annotation/1484146e&#45;a555&#45;4291&#45;b256&#45;e48d5663c7a0&#45;&gt;B_:node1evfesn2mx2</title>
<path fill="none" stroke="#000000" d="M482.4339,-726.3327C600.7994,-717.2245 743.1996,-706.2668 802.7713,-701.6828"/>
<polygon fill="#000000" stroke="#000000" points="803.2043,-705.1599 812.9062,-700.9029 802.6672,-698.1805 803.2043,-705.1599"/>
<text text-anchor="middle" x="658.6471" y="-719.3" font-family="Times,serif" font-size="14.00" fill="#000000">oa:hasBody</text>
</g>
<!-- B_:node1evfesn2mx1 -->
<g id="node13" class="node">
<title>B_:node1evfesn2mx1</title>
<ellipse fill="none" stroke="#00ff00" cx="831.1373" cy="-520.5" rx="18" ry="18"/>
</g>
<!-- Rhttp://localhost:8080/rdf/nc/annotation/1484146e&#45;a555&#45;4291&#45;b256&#45;e48d5663c7a0&#45;&gt;B_:node1evfesn2mx1 -->
<g id="edge12" class="edge">
<title>Rhttp://localhost:8080/rdf/nc/annotation/1484146e&#45;a555&#45;4291&#45;b256&#45;e48d5663c7a0&#45;&gt;B_:node1evfesn2mx1</title>
<path fill="none" stroke="#000000" d="M341.4746,-722.6828C447.652,-678.8419 719.1714,-566.731 804.8318,-531.3616"/>
<polygon fill="#000000" stroke="#000000" points="806.4259,-534.49 814.3332,-527.4384 803.7544,-528.0199 806.4259,-534.49"/>
<text text-anchor="middle" x="658.6471" y="-608.3" font-family="Times,serif" font-size="14.00" fill="#000000">oa:hasTarget</text>
</g>
<!-- Roa:describing -->
<g id="node20" class="node">
<title>Roa:describing</title>
<ellipse fill="none" stroke="#0000ff" cx="831.1373" cy="-466.5" rx="57.6901" ry="18"/>
<text text-anchor="middle" x="831.1373" y="-462.8" font-family="Times,serif" font-size="14.00" fill="#000000">oa:describing</text>
</g>
<!-- Rhttp://localhost:8080/rdf/nc/annotation/1484146e&#45;a555&#45;4291&#45;b256&#45;e48d5663c7a0&#45;&gt;Roa:describing -->
<g id="edge20" class="edge">
<title>Rhttp://localhost:8080/rdf/nc/annotation/1484146e&#45;a555&#45;4291&#45;b256&#45;e48d5663c7a0&#45;&gt;Roa:describing</title>
<path fill="none" stroke="#000000" d="M323.1716,-722.4428C386.365,-677.3279 559.6248,-558.6449 720.6471,-493.5 736.4884,-487.0911 754.2457,-481.9297 770.8133,-477.9049"/>
<polygon fill="#000000" stroke="#000000" points="772.0021,-481.2218 780.9475,-475.5448 770.4143,-474.4043 772.0021,-481.2218"/>
<text text-anchor="middle" x="658.6471" y="-542.3" font-family="Times,serif" font-size="14.00" fill="#000000">oa:motivatedBy</text>
</g>
<!-- Rfoaf:Person -->
<g id="node21" class="node">
<title>Rfoaf:Person</title>
<ellipse fill="none" stroke="#0000ff" cx="1257.2612" cy="-974.5" rx="51.1914" ry="18"/>
<text text-anchor="middle" x="1257.2612" y="-970.8" font-family="Times,serif" font-size="14.00" fill="#000000">foaf:Person</text>
</g>
<!-- Rorcid:0000&#45;0002&#45;2146&#45;4803&#45;&gt;Rfoaf:Person -->
<g id="edge21" class="edge">
<title>Rorcid:0000&#45;0002&#45;2146&#45;4803&#45;&gt;Rfoaf:Person</title>
<path fill="none" stroke="#000000" d="M918.7525,-830.5417C927.2849,-834.5081 935.1577,-839.7087 941.6275,-846.5 970.6666,-876.9823 928.7753,-910.8541 959.6275,-939.5 1025.0437,-1000.2384 1136.4637,-995.2839 1202.8411,-985.4095"/>
<polygon fill="#000000" stroke="#000000" points="1203.7613,-988.8077 1213.0935,-983.7918 1202.6702,-981.8933 1203.7613,-988.8077"/>
<text text-anchor="middle" x="1008.1275" y="-987.3" font-family="Times,serif" font-size="14.00" fill="#000000">rdf:type</text>
</g>
<!-- Rdsw:Token -->
<g id="node6" class="node">
<title>Rdsw:Token</title>
<ellipse fill="none" stroke="#0000ff" cx="1867.895" cy="-663.5" rx="50.0912" ry="18"/>
<text text-anchor="middle" x="1867.895" y="-659.8" font-family="Times,serif" font-size="14.00" fill="#000000">dsw:Token</text>
</g>
<!-- B_:node1evfesn2mx2&#45;&gt;Rdsw:Token -->
<g id="edge5" class="edge">
<title>B_:node1evfesn2mx2&#45;&gt;Rdsw:Token</title>
<path fill="none" stroke="#000000" d="M849.1069,-696.8896C889.3707,-691.1764 989.934,-677.6634 1074.6275,-672.5 1347.6792,-655.8531 1674.5479,-659.62 1807.357,-662.1449"/>
<polygon fill="#000000" stroke="#000000" points="1807.6486,-665.6511 1817.715,-662.3468 1807.7851,-658.6524 1807.6486,-665.6511"/>
<text text-anchor="middle" x="1257.2612" y="-676.3" font-family="Times,serif" font-size="14.00" fill="#000000">rdf:type</text>
</g>
<!-- Rdwc:MeasurementOrFact -->
<g id="node7" class="node">
<title>Rdwc:MeasurementOrFact</title>
<ellipse fill="none" stroke="#0000ff" cx="1257.2612" cy="-609.5" rx="100.9827" ry="18"/>
<text text-anchor="middle" x="1257.2612" y="-605.8" font-family="Times,serif" font-size="14.00" fill="#000000">dwc:MeasurementOrFact</text>
</g>
<!-- B_:node1evfesn2mx2&#45;&gt;Rdwc:MeasurementOrFact -->
<g id="edge6" class="edge">
<title>B_:node1evfesn2mx2&#45;&gt;Rdwc:MeasurementOrFact</title>
<path fill="none" stroke="#000000" d="M846.1658,-689.455C869.3765,-674.5229 915.8517,-646.9018 959.6275,-634.5 1019.9885,-617.3996 1089.7732,-610.8787 1146.5925,-608.757"/>
<polygon fill="#000000" stroke="#000000" points="1146.804,-612.252 1156.682,-608.4211 1146.571,-605.2559 1146.804,-612.252"/>
<text text-anchor="middle" x="1008.1275" y="-638.3" font-family="Times,serif" font-size="14.00" fill="#000000">rdf:type</text>
</g>
<!-- Roa:TextualBody -->
<g id="node8" class="node">
<title>Roa:TextualBody</title>
<ellipse fill="none" stroke="#0000ff" cx="1257.2612" cy="-920.5" rx="67.6881" ry="18"/>
<text text-anchor="middle" x="1257.2612" y="-916.8" font-family="Times,serif" font-size="14.00" fill="#000000">oa:TextualBody</text>
</g>
<!-- B_:node1evfesn2mx2&#45;&gt;Roa:TextualBody -->
<g id="edge7" class="edge">
<title>B_:node1evfesn2mx2&#45;&gt;Roa:TextualBody</title>
<path fill="none" stroke="#000000" d="M849.4978,-698.2331C874.3095,-697.6202 918.1356,-700.6203 941.6275,-726.5 979.3528,-768.0598 924.2547,-807.9204 959.6275,-851.5 1012.4374,-916.5624 1113.4149,-927.6004 1182.999,-926.5146"/>
<polygon fill="#000000" stroke="#000000" points="1183.1161,-930.0129 1193.0283,-926.2714 1182.9464,-923.0149 1183.1161,-930.0129"/>
<text text-anchor="middle" x="1008.1275" y="-914.3" font-family="Times,serif" font-size="14.00" fill="#000000">rdf:type</text>
</g>
<!-- Ltext/plain -->
<g id="node9" class="node">
<title>Ltext/plain</title>
<polygon fill="none" stroke="#000000" points="1223.2612,-847.5 1223.2612,-883.5 1291.2612,-883.5 1291.2612,-847.5 1223.2612,-847.5"/>
<text text-anchor="middle" x="1257.2612" y="-861.8" font-family="Times,serif" font-size="14.00" fill="#000000">text/plain</text>
</g>
<!-- B_:node1evfesn2mx2&#45;&gt;Ltext/plain -->
<g id="edge8" class="edge">
<title>B_:node1evfesn2mx2&#45;&gt;Ltext/plain</title>
<path fill="none" stroke="#000000" d="M849.5208,-698.6059C873.9522,-698.4715 916.9052,-702.0732 941.6275,-726.5 964.4781,-749.0776 937.967,-772.7782 959.6275,-796.5 996.2161,-836.5707 1022.016,-824.2173 1074.6275,-837.5 1121.251,-849.271 1175.8957,-856.8575 1213.1807,-861.1239"/>
<polygon fill="#000000" stroke="#000000" points="1212.89,-864.6131 1223.2156,-862.24 1213.6638,-857.656 1212.89,-864.6131"/>
<text text-anchor="middle" x="1008.1275" y="-836.3" font-family="Times,serif" font-size="14.00" fill="#000000">dcterms:format</text>
</g>
<!-- Riso:lat -->
<g id="node10" class="node">
<title>Riso:lat</title>
<ellipse fill="none" stroke="#0000ff" cx="1257.2612" cy="-810.5" rx="32.4942" ry="18"/>
<text text-anchor="middle" x="1257.2612" y="-806.8" font-family="Times,serif" font-size="14.00" fill="#000000">iso:lat</text>
</g>
<!-- B_:node1evfesn2mx2&#45;&gt;Riso:lat -->
<g id="edge9" class="edge">
<title>B_:node1evfesn2mx2&#45;&gt;Riso:lat</title>
<path fill="none" stroke="#000000" d="M849.1928,-702.3795C871.4503,-706.2738 910.1871,-714.1829 941.6275,-726.5 950.1486,-729.8382 951.3771,-732.5396 959.6275,-736.5 1009.4045,-760.3942 1021.3744,-768.9121 1074.6275,-783.5 1121.6744,-796.3878 1177.3305,-803.4946 1214.7319,-807.1391"/>
<polygon fill="#000000" stroke="#000000" points="1214.4924,-810.6319 1224.7746,-808.0772 1215.1435,-803.6622 1214.4924,-810.6319"/>
<text text-anchor="middle" x="1008.1275" y="-781.3" font-family="Times,serif" font-size="14.00" fill="#000000">dcterms:language</text>
</g>
<!-- Rimg:MMNAT01_AF_NNM001001033_003.jpg -->
<g id="node11" class="node">
<title>Rimg:MMNAT01_AF_NNM001001033_003.jpg</title>
<ellipse fill="none" stroke="#0000ff" cx="1257.2612" cy="-555.5" rx="182.7677" ry="18"/>
<text text-anchor="middle" x="1257.2612" y="-551.8" font-family="Times,serif" font-size="14.00" fill="#000000">img:MMNAT01_AF_NNM001001033_003.jpg</text>
</g>
<!-- B_:node1evfesn2mx2&#45;&gt;Rimg:MMNAT01_AF_NNM001001033_003.jpg -->
<g id="edge10" class="edge">
<title>B_:node1evfesn2mx2&#45;&gt;Rimg:MMNAT01_AF_NNM001001033_003.jpg</title>
<path fill="none" stroke="#000000" d="M843.4427,-685.8443C864.6855,-663.2535 910.6877,-618.514 959.6275,-597.5 997.5026,-581.237 1040.3401,-571.0113 1081.4719,-564.6456"/>
<polygon fill="#000000" stroke="#000000" points="1082.2264,-568.0722 1091.6076,-563.1485 1081.2035,-561.1474 1082.2264,-568.0722"/>
<text text-anchor="middle" x="1008.1275" y="-601.3" font-family="Times,serif" font-size="14.00" fill="#000000">dsw:derivedFrom</text>
</g>
<!-- LMarkdown table or list.\n&#45; item1\n&#45; item2|Language: lat -->
<g id="node12" class="node">
<title>LMarkdown table or list.\n&#45; item1\n&#45; item2|Language: lat</title>
<polygon fill="none" stroke="#000000" points="1184.2612,-697.5 1184.2612,-773.5 1330.2612,-773.5 1330.2612,-697.5 1184.2612,-697.5"/>
<text text-anchor="middle" x="1257.2612" y="-758.3" font-family="Times,serif" font-size="14.00" fill="#000000">Markdown table or list.</text>
<text text-anchor="middle" x="1257.2612" y="-743.3" font-family="Times,serif" font-size="14.00" fill="#000000">&#45; item1</text>
<text text-anchor="middle" x="1257.2612" y="-728.3" font-family="Times,serif" font-size="14.00" fill="#000000">&#45; item2</text>
<polyline fill="none" stroke="#000000" points="1184.2612,-720.5 1330.2612,-720.5 "/>
<text text-anchor="middle" x="1257.2612" y="-705.3" font-family="Times,serif" font-size="14.00" fill="#000000">Language: lat</text>
</g>
<!-- B_:node1evfesn2mx2&#45;&gt;LMarkdown table or list.\n&#45; item1\n&#45; item2|Language: lat -->
<g id="edge11" class="edge">
<title>B_:node1evfesn2mx2&#45;&gt;LMarkdown table or list.\n&#45; item1\n&#45; item2|Language: lat</title>
<path fill="none" stroke="#000000" d="M849.1751,-701.0239C904.0586,-705.6606 1071.5282,-719.8088 1174.082,-728.4728"/>
<polygon fill="#000000" stroke="#000000" points="1173.8453,-731.9652 1184.1045,-729.3195 1174.4346,-724.99 1173.8453,-731.9652"/>
<text text-anchor="middle" x="1008.1275" y="-721.3" font-family="Times,serif" font-size="14.00" fill="#000000">rdf:value</text>
</g>
<!-- Rimg:MMNAT01_AF_NNM001001033_003.jpg&#45;&gt;Rdsw:Token -->
<g id="edge23" class="edge">
<title>Rimg:MMNAT01_AF_NNM001001033_003.jpg&#45;&gt;Rdsw:Token</title>
<path fill="none" stroke="#000000" d="M1400.4703,-566.8021C1414.2245,-570.7784 1427.6087,-575.909 1439.895,-582.5 1450.4333,-588.1532 1447.6634,-596.3093 1457.895,-602.5 1510.0956,-634.0843 1530.8013,-625.9541 1590.895,-636.5 1665.155,-649.532 1751.7994,-656.7084 1808.1419,-660.3258"/>
<polygon fill="#000000" stroke="#000000" points="1808.1011,-663.83 1818.2999,-660.9604 1808.5376,-656.8436 1808.1011,-663.83"/>
<text text-anchor="middle" x="1515.395" y="-637.3" font-family="Times,serif" font-size="14.00" fill="#000000">rdf:type</text>
</g>
<!-- Rdcmitype:StillImage -->
<g id="node22" class="node">
<title>Rdcmitype:StillImage</title>
<ellipse fill="none" stroke="#0000ff" cx="1867.895" cy="-609.5" rx="83.3857" ry="18"/>
<text text-anchor="middle" x="1867.895" y="-605.8" font-family="Times,serif" font-size="14.00" fill="#000000">dcmitype:StillImage</text>
</g>
<!-- Rimg:MMNAT01_AF_NNM001001033_003.jpg&#45;&gt;Rdcmitype:StillImage -->
<g id="edge22" class="edge">
<title>Rimg:MMNAT01_AF_NNM001001033_003.jpg&#45;&gt;Rdcmitype:StillImage</title>
<path fill="none" stroke="#000000" d="M1392.1613,-567.638C1414.1312,-569.6046 1436.6456,-571.6139 1457.895,-573.5 1569.0937,-583.37 1697.271,-594.6012 1780.2871,-601.856"/>
<polygon fill="#000000" stroke="#000000" points="1780.1677,-605.3588 1790.4344,-602.7426 1780.7771,-598.3854 1780.1677,-605.3588"/>
<text text-anchor="middle" x="1515.395" y="-587.3" font-family="Times,serif" font-size="14.00" fill="#000000">rdf:type</text>
</g>
<!-- Rdwc:HumanObservation -->
<g id="node23" class="node">
<title>Rdwc:HumanObservation</title>
<ellipse fill="none" stroke="#0000ff" cx="1867.895" cy="-555.5" rx="96.6831" ry="18"/>
<text text-anchor="middle" x="1867.895" y="-551.8" font-family="Times,serif" font-size="14.00" fill="#000000">dwc:HumanObservation</text>
</g>
<!-- Rimg:MMNAT01_AF_NNM001001033_003.jpg&#45;&gt;Rdwc:HumanObservation -->
<g id="edge24" class="edge">
<title>Rimg:MMNAT01_AF_NNM001001033_003.jpg&#45;&gt;Rdwc:HumanObservation</title>
<path fill="none" stroke="#000000" d="M1440.0578,-555.5C1544.6012,-555.5 1672.1207,-555.5 1760.6084,-555.5"/>
<polygon fill="#000000" stroke="#000000" points="1760.6618,-559.0001 1770.6617,-555.5 1760.6617,-552.0001 1760.6618,-559.0001"/>
<text text-anchor="middle" x="1515.395" y="-559.3" font-family="Times,serif" font-size="14.00" fill="#000000">rdf:type</text>
</g>
<!-- Roa:Source -->
<g id="node24" class="node">
<title>Roa:Source</title>
<ellipse fill="none" stroke="#0000ff" cx="1867.895" cy="-501.5" rx="46.2923" ry="18"/>
<text text-anchor="middle" x="1867.895" y="-497.8" font-family="Times,serif" font-size="14.00" fill="#000000">oa:Source</text>
</g>
<!-- Rimg:MMNAT01_AF_NNM001001033_003.jpg&#45;&gt;Roa:Source -->
<g id="edge25" class="edge">
<title>Rimg:MMNAT01_AF_NNM001001033_003.jpg&#45;&gt;Roa:Source</title>
<path fill="none" stroke="#000000" d="M1388.1031,-542.9329C1411.3467,-540.7507 1435.3315,-538.5314 1457.895,-536.5 1584.7208,-525.0818 1733.7037,-512.596 1812.5033,-506.0648"/>
<polygon fill="#000000" stroke="#000000" points="1813.0073,-509.5352 1822.6843,-505.2218 1812.4295,-502.559 1813.0073,-509.5352"/>
<text text-anchor="middle" x="1515.395" y="-540.3" font-family="Times,serif" font-size="14.00" fill="#000000">rdf:type</text>
</g>
<!-- Rfoaf:Image -->
<g id="node25" class="node">
<title>Rfoaf:Image</title>
<ellipse fill="none" stroke="#0000ff" cx="1867.895" cy="-447.5" rx="50.0912" ry="18"/>
<text text-anchor="middle" x="1867.895" y="-443.8" font-family="Times,serif" font-size="14.00" fill="#000000">foaf:Image</text>
</g>
<!-- Rimg:MMNAT01_AF_NNM001001033_003.jpg&#45;&gt;Rfoaf:Image -->
<g id="edge26" class="edge">
<title>Rimg:MMNAT01_AF_NNM001001033_003.jpg&#45;&gt;Rfoaf:Image</title>
<path fill="none" stroke="#000000" d="M1400.4703,-544.1979C1414.2245,-540.2216 1427.6087,-535.091 1439.895,-528.5 1450.4333,-522.8468 1447.6634,-514.6907 1457.895,-508.5 1510.0956,-476.9157 1530.8013,-485.0459 1590.895,-474.5 1665.155,-461.468 1751.7994,-454.2916 1808.1419,-450.6742"/>
<polygon fill="#000000" stroke="#000000" points="1808.5376,-454.1564 1818.2999,-450.0396 1808.1011,-447.17 1808.5376,-454.1564"/>
<text text-anchor="middle" x="1515.395" y="-512.3" font-family="Times,serif" font-size="14.00" fill="#000000">rdf:type</text>
</g>
<!-- B_:node1evfesn2mx1&#45;&gt;Rimg:MMNAT01_AF_NNM001001033_003.jpg -->
<g id="edge19" class="edge">
<title>B_:node1evfesn2mx1&#45;&gt;Rimg:MMNAT01_AF_NNM001001033_003.jpg</title>
<path fill="none" stroke="#000000" d="M849.1751,-521.9816C893.1615,-525.5944 1009.465,-535.1471 1106.7085,-543.1342"/>
<polygon fill="#000000" stroke="#000000" points="1106.704,-546.6456 1116.957,-543.976 1107.2771,-539.6691 1106.704,-546.6456"/>
<text text-anchor="middle" x="1008.1275" y="-542.3" font-family="Times,serif" font-size="14.00" fill="#000000">oa:hasSource</text>
</g>
<!-- Roa:Target -->
<g id="node14" class="node">
<title>Roa:Target</title>
<ellipse fill="none" stroke="#0000ff" cx="1257.2612" cy="-501.5" rx="44.393" ry="18"/>
<text text-anchor="middle" x="1257.2612" y="-497.8" font-family="Times,serif" font-size="14.00" fill="#000000">oa:Target</text>
</g>
<!-- B_:node1evfesn2mx1&#45;&gt;Roa:Target -->
<g id="edge13" class="edge">
<title>B_:node1evfesn2mx1&#45;&gt;Roa:Target</title>
<path fill="none" stroke="#000000" d="M848.9323,-517.2266C873.6592,-512.8571 919.8592,-505.3391 959.6275,-502.5 1044.2302,-496.46 1142.7046,-497.7545 1202.4797,-499.461"/>
<polygon fill="#000000" stroke="#000000" points="1202.7161,-502.9696 1212.8167,-499.7713 1202.9263,-495.9727 1202.7161,-502.9696"/>
<text text-anchor="middle" x="1008.1275" y="-506.3" font-family="Times,serif" font-size="14.00" fill="#000000">rdf:type</text>
</g>
<!-- Limage/jpeg -->
<g id="node15" class="node">
<title>Limage/jpeg</title>
<polygon fill="none" stroke="#000000" points="1218.7612,-428.5 1218.7612,-464.5 1295.7612,-464.5 1295.7612,-428.5 1218.7612,-428.5"/>
<text text-anchor="middle" x="1257.2612" y="-442.8" font-family="Times,serif" font-size="14.00" fill="#000000">image/jpeg</text>
</g>
<!-- B_:node1evfesn2mx1&#45;&gt;Limage/jpeg -->
<g id="edge14" class="edge">
<title>B_:node1evfesn2mx1&#45;&gt;Limage/jpeg</title>
<path fill="none" stroke="#000000" d="M849.0587,-518.2857C871.5143,-515.0321 910.7915,-507.7383 941.6275,-493.5 950.5867,-489.3631 950.4256,-484.065 959.6275,-480.5 1042.8346,-448.264 1148.2012,-443.9657 1208.6489,-444.6366"/>
<polygon fill="#000000" stroke="#000000" points="1208.6206,-448.1365 1218.6759,-444.7984 1208.7337,-441.1374 1208.6206,-448.1365"/>
<text text-anchor="middle" x="1008.1275" y="-484.3" font-family="Times,serif" font-size="14.00" fill="#000000">dcterms:format</text>
</g>
<!-- B_:node1evfesn2mx4 -->
<g id="node16" class="node">
<title>B_:node1evfesn2mx4</title>
<ellipse fill="none" stroke="#00ff00" cx="1257.2612" cy="-365.5" rx="18" ry="18"/>
</g>
<!-- B_:node1evfesn2mx1&#45;&gt;B_:node1evfesn2mx4 -->
<g id="edge15" class="edge">
<title>B_:node1evfesn2mx1&#45;&gt;B_:node1evfesn2mx4</title>
<path fill="none" stroke="#000000" d="M849.3118,-521.1762C873.5063,-521.0636 916.1918,-517.1831 941.6275,-493.5 960.7607,-475.685 940.4735,-455.2928 959.6275,-437.5 1036.1049,-366.4574 1170.3532,-362.0366 1228.7667,-363.8339"/>
<polygon fill="#000000" stroke="#000000" points="1228.9492,-367.3438 1239.08,-364.2427 1229.2266,-360.3493 1228.9492,-367.3438"/>
<text text-anchor="middle" x="1008.1275" y="-441.3" font-family="Times,serif" font-size="14.00" fill="#000000">oa:hasSelector</text>
</g>
<!-- Roa:FragmentSelector -->
<g id="node17" class="node">
<title>Roa:FragmentSelector</title>
<ellipse fill="none" stroke="#0000ff" cx="1867.895" cy="-393.5" rx="84.485" ry="18"/>
<text text-anchor="middle" x="1867.895" y="-389.8" font-family="Times,serif" font-size="14.00" fill="#000000">oa:FragmentSelector</text>
</g>
<!-- B_:node1evfesn2mx4&#45;&gt;Roa:FragmentSelector -->
<g id="edge16" class="edge">
<title>B_:node1evfesn2mx4&#45;&gt;Roa:FragmentSelector</title>
<path fill="none" stroke="#000000" d="M1275.5363,-366.338C1349.1767,-369.7147 1627.2494,-382.4654 1774.7274,-389.2279"/>
<polygon fill="#000000" stroke="#000000" points="1774.9656,-392.7424 1785.1155,-389.7042 1775.2863,-385.7497 1774.9656,-392.7424"/>
<text text-anchor="middle" x="1515.395" y="-383.3" font-family="Times,serif" font-size="14.00" fill="#000000">rdf:type</text>
</g>
<!-- Rmf: -->
<g id="node18" class="node">
<title>Rmf:</title>
<ellipse fill="none" stroke="#0000ff" cx="1867.895" cy="-339.5" rx="27" ry="18"/>
<text text-anchor="middle" x="1867.895" y="-335.8" font-family="Times,serif" font-size="14.00" fill="#000000">mf:</text>
</g>
<!-- B_:node1evfesn2mx4&#45;&gt;Rmf: -->
<g id="edge17" class="edge">
<title>B_:node1evfesn2mx4&#45;&gt;Rmf:</title>
<path fill="none" stroke="#000000" d="M1275.2451,-364.6728C1310.3554,-363.0624 1390.4896,-359.4093 1457.895,-356.5 1594.9877,-350.583 1757.8839,-343.9462 1830.1476,-341.0223"/>
<polygon fill="#000000" stroke="#000000" points="1830.6938,-344.5032 1840.5443,-340.602 1830.411,-337.5089 1830.6938,-344.5032"/>
<text text-anchor="middle" x="1515.395" y="-360.3" font-family="Times,serif" font-size="14.00" fill="#000000">dcterms:conformsTo</text>
</g>
<!-- Lxywh=0.5614033197022136,0.11586327570674965,0.14027982326951394,0.0625920471281296 -->
<g id="node19" class="node">
<title>Lxywh=0.5614033197022136,0.11586327570674965,0.14027982326951394,0.0625920471281296</title>
<polygon fill="none" stroke="#000000" points="1590.895,-266.5 1590.895,-302.5 2144.895,-302.5 2144.895,-266.5 1590.895,-266.5"/>
<text text-anchor="middle" x="1867.895" y="-280.8" font-family="Times,serif" font-size="14.00" fill="#000000">xywh=0.5614033197022136,0.11586327570674965,0.14027982326951394,0.0625920471281296</text>
</g>
<!-- B_:node1evfesn2mx4&#45;&gt;Lxywh=0.5614033197022136,0.11586327570674965,0.14027982326951394,0.0625920471281296 -->
<g id="edge18" class="edge">
<title>B_:node1evfesn2mx4&#45;&gt;Lxywh=0.5614033197022136,0.11586327570674965,0.14027982326951394,0.0625920471281296</title>
<path fill="none" stroke="#000000" d="M1275.2445,-362.6221C1310.3538,-357.0057 1390.4863,-344.1974 1457.895,-333.5 1516.9989,-324.1205 1531.5463,-320.1789 1590.895,-312.5 1615.1223,-309.3653 1640.5799,-306.377 1665.8379,-303.5995"/>
<polygon fill="#000000" stroke="#000000" points="1666.3207,-307.0677 1675.8825,-302.5047 1665.5621,-300.1089 1666.3207,-307.0677"/>
<text text-anchor="middle" x="1515.395" y="-337.3" font-family="Times,serif" font-size="14.00" fill="#000000">rdf:value</text>
</g>
</g>
</svg>
