<?xml version="1.0" encoding="UTF-8" standalone="no"?>
<!DOCTYPE svg PUBLIC "-//W3C//DTD SVG 1.1//EN"
 "http://www.w3.org/Graphics/SVG/1.1/DTD/svg11.dtd">
<!-- Generated by graphviz version 2.40.1 (20161225.0304)
 -->
<!-- Title: %3 Pages: 1 -->
<svg width="1981pt" height="1199pt"
 viewBox="0.00 0.00 1981.42 1199.00" xmlns="http://www.w3.org/2000/svg" xmlns:xlink="http://www.w3.org/1999/xlink">
<g id="graph0" class="graph" transform="scale(1 1) rotate(0) translate(4 1195)">
<title>%3</title>
<polygon fill="#ffffff" stroke="transparent" points="-4,4 -4,-1195 1977.4152,-1195 1977.4152,4 -4,4"/>
<text text-anchor="middle" x="986.7076" y="-248.8" font-family="Times,serif" font-size="14.00" fill="#000000">Model:</text>
<text text-anchor="middle" x="986.7076" y="-233.8" font-family="Times,serif" font-size="14.00" fill="#000000">(Unknown)</text>
<text text-anchor="middle" x="986.7076" y="-202.8" font-family="Times,serif" font-size="14.00" fill="#000000">Namespaces:</text>
<text text-anchor="middle" x="986.7076" y="-187.8" font-family="Times,serif" font-size="14.00" fill="#000000">dcmitype: http://purl.org/dc/dcmitype/</text>
<text text-anchor="middle" x="986.7076" y="-172.8" font-family="Times,serif" font-size="14.00" fill="#000000">dcterms: http://purl.org/dc/terms/</text>
<text text-anchor="middle" x="986.7076" y="-157.8" font-family="Times,serif" font-size="14.00" fill="#000000">dsw: http://purl.org/dsw/</text>
<text text-anchor="middle" x="986.7076" y="-142.8" font-family="Times,serif" font-size="14.00" fill="#000000">dwc: http://rs.tdwg.org/dwc/terms/</text>
<text text-anchor="middle" x="986.7076" y="-127.8" font-family="Times,serif" font-size="14.00" fill="#000000">dwciri: http://rs.tdwg.org/dwc/iri/</text>
<text text-anchor="middle" x="986.7076" y="-112.8" font-family="Times,serif" font-size="14.00" fill="#000000">foaf: http://xmlns.com/foaf/0.1/</text>
<text text-anchor="middle" x="986.7076" y="-97.8" font-family="Times,serif" font-size="14.00" fill="#000000">gn: http://sws.geonames.org/</text>
<text text-anchor="middle" x="986.7076" y="-82.8" font-family="Times,serif" font-size="14.00" fill="#000000">img: http://localhost:8182/iiif/2/900c341c1c10fff7:MMNAT01_PM_NNM001001033_003/full/max/0/</text>
<text text-anchor="middle" x="986.7076" y="-67.8" font-family="Times,serif" font-size="14.00" fill="#000000">iso: http://iso639&#45;3.sil.org/code/</text>
<text text-anchor="middle" x="986.7076" y="-52.8" font-family="Times,serif" font-size="14.00" fill="#000000">mf: http://www.w3.org/TR/media&#45;frags/</text>
<text text-anchor="middle" x="986.7076" y="-37.8" font-family="Times,serif" font-size="14.00" fill="#000000">oa: http://www.w3.org/ns/oa#</text>
<text text-anchor="middle" x="986.7076" y="-22.8" font-family="Times,serif" font-size="14.00" fill="#000000">orcid: http://orcid.org/</text>
<text text-anchor="middle" x="986.7076" y="-7.8" font-family="Times,serif" font-size="14.00" fill="#000000">rdf: http://www.w3.org/1999/02/22&#45;rdf&#45;syntax&#45;ns#</text>
<!-- Rhttp://localhost:8080/rdf/nc/annotation/5aa954aa&#45;e202&#45;4d15&#45;b470&#45;75ef7b6355fe -->
<g id="node1" class="node">
<title>Rhttp://localhost:8080/rdf/nc/annotation/5aa954aa&#45;e202&#45;4d15&#45;b470&#45;75ef7b6355fe</title>
<ellipse fill="none" stroke="#0000ff" cx="294.4239" cy="-940" rx="294.3478" ry="18"/>
<text text-anchor="middle" x="294.4239" y="-936.3" font-family="Times,serif" font-size="14.00" fill="#000000">http://localhost:8080/rdf/nc/annotation/5aa954aa&#45;e202&#45;4d15&#45;b470&#45;75ef7b6355fe</text>
</g>
<!-- Roa:Annotation -->
<g id="node2" class="node">
<title>Roa:Annotation</title>
<ellipse fill="none" stroke="#0000ff" cx="823.3379" cy="-1073" rx="61.1893" ry="18"/>
<text text-anchor="middle" x="823.3379" y="-1069.3" font-family="Times,serif" font-size="14.00" fill="#000000">oa:Annotation</text>
</g>
<!-- Rhttp://localhost:8080/rdf/nc/annotation/5aa954aa&#45;e202&#45;4d15&#45;b470&#45;75ef7b6355fe&#45;&gt;Roa:Annotation -->
<g id="edge1" class="edge">
<title>Rhttp://localhost:8080/rdf/nc/annotation/5aa954aa&#45;e202&#45;4d15&#45;b470&#45;75ef7b6355fe&#45;&gt;Roa:Annotation</title>
<path fill="none" stroke="#000000" d="M362.8709,-957.5285C445.695,-978.695 589.4054,-1015.2821 712.8478,-1046 730.1478,-1050.305 748.9874,-1054.9316 766.129,-1059.1175"/>
<polygon fill="#000000" stroke="#000000" points="765.4565,-1062.556 776.0011,-1061.5254 767.1153,-1055.7554 765.4565,-1062.556"/>
<text text-anchor="middle" x="650.8478" y="-1043.8" font-family="Times,serif" font-size="14.00" fill="#000000">rdf:type</text>
</g>
<!-- Rorcid:0000&#45;0002&#45;2146&#45;4803 -->
<g id="node3" class="node">
<title>Rorcid:0000&#45;0002&#45;2146&#45;4803</title>
<ellipse fill="none" stroke="#0000ff" cx="823.3379" cy="-1019" rx="110.4804" ry="18"/>
<text text-anchor="middle" x="823.3379" y="-1015.3" font-family="Times,serif" font-size="14.00" fill="#000000">orcid:0000&#45;0002&#45;2146&#45;4803</text>
</g>
<!-- Rhttp://localhost:8080/rdf/nc/annotation/5aa954aa&#45;e202&#45;4d15&#45;b470&#45;75ef7b6355fe&#45;&gt;Rorcid:0000&#45;0002&#45;2146&#45;4803 -->
<g id="edge2" class="edge">
<title>Rhttp://localhost:8080/rdf/nc/annotation/5aa954aa&#45;e202&#45;4d15&#45;b470&#45;75ef7b6355fe&#45;&gt;Rorcid:0000&#45;0002&#45;2146&#45;4803</title>
<path fill="none" stroke="#000000" d="M406.2696,-956.7056C503.1359,-971.1738 641.5312,-991.8449 731.8963,-1005.342"/>
<polygon fill="#000000" stroke="#000000" points="731.4444,-1008.8133 741.8517,-1006.829 732.4785,-1001.8901 731.4444,-1008.8133"/>
<text text-anchor="middle" x="650.8478" y="-1000.8" font-family="Times,serif" font-size="14.00" fill="#000000">dcterms:creator</text>
</g>
<!-- L2021&#45;01&#45;12T14:23:11.646Z|Datatype: dcterms:W3CDTF -->
<g id="node4" class="node">
<title>L2021&#45;01&#45;12T14:23:11.646Z|Datatype: dcterms:W3CDTF</title>
<polygon fill="none" stroke="#000000" points="735.8379,-936 735.8379,-982 910.8379,-982 910.8379,-936 735.8379,-936"/>
<text text-anchor="middle" x="823.3379" y="-966.8" font-family="Times,serif" font-size="14.00" fill="#000000">2021&#45;01&#45;12T14:23:11.646Z</text>
<polyline fill="none" stroke="#000000" points="735.8379,-959 910.8379,-959 "/>
<text text-anchor="middle" x="823.3379" y="-943.8" font-family="Times,serif" font-size="14.00" fill="#000000">Datatype: dcterms:W3CDTF</text>
</g>
<!-- Rhttp://localhost:8080/rdf/nc/annotation/5aa954aa&#45;e202&#45;4d15&#45;b470&#45;75ef7b6355fe&#45;&gt;L2021&#45;01&#45;12T14:23:11.646Z|Datatype: dcterms:W3CDTF -->
<g id="edge3" class="edge">
<title>Rhttp://localhost:8080/rdf/nc/annotation/5aa954aa&#45;e202&#45;4d15&#45;b470&#45;75ef7b6355fe&#45;&gt;L2021&#45;01&#45;12T14:23:11.646Z|Datatype: dcterms:W3CDTF</title>
<path fill="none" stroke="#000000" d="M548.4239,-949.1244C611.4919,-951.3899 675.3542,-953.684 725.6332,-955.4902"/>
<polygon fill="#000000" stroke="#000000" points="725.7075,-958.995 735.8268,-955.8564 725.9589,-951.9995 725.7075,-958.995"/>
<text text-anchor="middle" x="650.8478" y="-956.8" font-family="Times,serif" font-size="14.00" fill="#000000">dcterms:date</text>
</g>
<!-- B_:node1f0gq2gelx56 -->
<g id="node5" class="node">
<title>B_:node1f0gq2gelx56</title>
<ellipse fill="none" stroke="#00ff00" cx="823.3379" cy="-899" rx="18" ry="18"/>
</g>
<!-- Rhttp://localhost:8080/rdf/nc/annotation/5aa954aa&#45;e202&#45;4d15&#45;b470&#45;75ef7b6355fe&#45;&gt;B_:node1f0gq2gelx56 -->
<g id="edge4" class="edge">
<title>Rhttp://localhost:8080/rdf/nc/annotation/5aa954aa&#45;e202&#45;4d15&#45;b470&#45;75ef7b6355fe&#45;&gt;B_:node1f0gq2gelx56</title>
<path fill="none" stroke="#000000" d="M476.8163,-925.8614C594.3601,-916.7497 735.9129,-905.777 795.1364,-901.1861"/>
<polygon fill="#000000" stroke="#000000" points="795.5127,-904.6675 805.2123,-900.4051 794.9717,-897.6885 795.5127,-904.6675"/>
<text text-anchor="middle" x="650.8478" y="-917.8" font-family="Times,serif" font-size="14.00" fill="#000000">oa:hasBody</text>
</g>
<!-- B_:node1f0gq2gelx55 -->
<g id="node13" class="node">
<title>B_:node1f0gq2gelx55</title>
<ellipse fill="none" stroke="#00ff00" cx="823.3379" cy="-695" rx="18" ry="18"/>
</g>
<!-- Rhttp://localhost:8080/rdf/nc/annotation/5aa954aa&#45;e202&#45;4d15&#45;b470&#45;75ef7b6355fe&#45;&gt;B_:node1f0gq2gelx55 -->
<g id="edge14" class="edge">
<title>Rhttp://localhost:8080/rdf/nc/annotation/5aa954aa&#45;e202&#45;4d15&#45;b470&#45;75ef7b6355fe&#45;&gt;B_:node1f0gq2gelx55</title>
<path fill="none" stroke="#000000" d="M333.3162,-921.9846C435.8941,-874.4691 711.7744,-746.6777 797.536,-706.9518"/>
<polygon fill="#000000" stroke="#000000" points="799.2035,-710.0367 806.8062,-702.6577 796.2613,-703.6851 799.2035,-710.0367"/>
<text text-anchor="middle" x="650.8478" y="-791.8" font-family="Times,serif" font-size="14.00" fill="#000000">oa:hasTarget</text>
</g>
<!-- Roa:describing -->
<g id="node21" class="node">
<title>Roa:describing</title>
<ellipse fill="none" stroke="#0000ff" cx="823.3379" cy="-641" rx="57.6901" ry="18"/>
<text text-anchor="middle" x="823.3379" y="-637.3" font-family="Times,serif" font-size="14.00" fill="#000000">oa:describing</text>
</g>
<!-- Rhttp://localhost:8080/rdf/nc/annotation/5aa954aa&#45;e202&#45;4d15&#45;b470&#45;75ef7b6355fe&#45;&gt;Roa:describing -->
<g id="edge22" class="edge">
<title>Rhttp://localhost:8080/rdf/nc/annotation/5aa954aa&#45;e202&#45;4d15&#45;b470&#45;75ef7b6355fe&#45;&gt;Roa:describing</title>
<path fill="none" stroke="#000000" d="M316.4503,-921.7416C376.2515,-873.0843 548.2222,-739.1686 712.8478,-668 728.3833,-661.2839 745.9016,-656.0384 762.3334,-652.0316"/>
<polygon fill="#000000" stroke="#000000" points="763.4476,-655.3661 772.3967,-649.6948 761.8642,-648.5475 763.4476,-655.3661"/>
<text text-anchor="middle" x="650.8478" y="-719.8" font-family="Times,serif" font-size="14.00" fill="#000000">oa:motivatedBy</text>
</g>
<!-- Rfoaf:Person -->
<g id="node22" class="node">
<title>Rfoaf:Person</title>
<ellipse fill="none" stroke="#0000ff" cx="1175.6217" cy="-1168" rx="51.1914" ry="18"/>
<text text-anchor="middle" x="1175.6217" y="-1164.3" font-family="Times,serif" font-size="14.00" fill="#000000">foaf:Person</text>
</g>
<!-- Rorcid:0000&#45;0002&#45;2146&#45;4803&#45;&gt;Rfoaf:Person -->
<g id="edge23" class="edge">
<title>Rorcid:0000&#45;0002&#45;2146&#45;4803&#45;&gt;Rfoaf:Person</title>
<path fill="none" stroke="#000000" d="M910.8668,-1030.1246C919.4149,-1034.076 927.315,-1039.2504 933.8281,-1046 961.2466,-1074.4138 923.2336,-1105.7701 951.8281,-1133 995.5225,-1174.6091 1067.2289,-1178.9148 1117.675,-1175.6853"/>
<polygon fill="#000000" stroke="#000000" points="1118.0751,-1179.1652 1127.7824,-1174.9203 1117.5468,-1172.1851 1118.0751,-1179.1652"/>
<text text-anchor="middle" x="1018.3281" y="-1179.8" font-family="Times,serif" font-size="14.00" fill="#000000">rdf:type</text>
</g>
<!-- Rdcterms:Location -->
<g id="node6" class="node">
<title>Rdcterms:Location</title>
<ellipse fill="none" stroke="#0000ff" cx="1175.6217" cy="-1114" rx="72.5877" ry="18"/>
<text text-anchor="middle" x="1175.6217" y="-1110.3" font-family="Times,serif" font-size="14.00" fill="#000000">dcterms:Location</text>
</g>
<!-- B_:node1f0gq2gelx56&#45;&gt;Rdcterms:Location -->
<g id="edge5" class="edge">
<title>B_:node1f0gq2gelx56&#45;&gt;Rdcterms:Location</title>
<path fill="none" stroke="#000000" d="M841.4054,-897.8261C866.2892,-897.298 910.6545,-900.4726 933.8281,-927 980.3258,-980.2271 902.2394,-1034.6401 951.8281,-1085 971.2041,-1104.6773 1037.1064,-1111.477 1092.4164,-1113.6148"/>
<polygon fill="#000000" stroke="#000000" points="1092.4938,-1117.1194 1102.6072,-1113.9618 1092.7321,-1110.1234 1092.4938,-1117.1194"/>
<text text-anchor="middle" x="1018.3281" y="-1116.8" font-family="Times,serif" font-size="14.00" fill="#000000">rdf:type</text>
</g>
<!-- Rdwc:Location -->
<g id="node7" class="node">
<title>Rdwc:Location</title>
<ellipse fill="none" stroke="#0000ff" cx="1175.6217" cy="-1060" rx="59.2899" ry="18"/>
<text text-anchor="middle" x="1175.6217" y="-1056.3" font-family="Times,serif" font-size="14.00" fill="#000000">dwc:Location</text>
</g>
<!-- B_:node1f0gq2gelx56&#45;&gt;Rdwc:Location -->
<g id="edge6" class="edge">
<title>B_:node1f0gq2gelx56&#45;&gt;Rdwc:Location</title>
<path fill="none" stroke="#000000" d="M841.5387,-898.0791C866.165,-897.8994 909.777,-901.5371 933.8281,-927 962.7371,-957.6058 921.8463,-990.4444 951.8281,-1020 992.85,-1060.4388 1059.8346,-1067.7698 1109.8466,-1066.5994"/>
<polygon fill="#000000" stroke="#000000" points="1110.0568,-1070.0943 1119.9274,-1066.2445 1109.8104,-1063.0986 1110.0568,-1070.0943"/>
<text text-anchor="middle" x="1018.3281" y="-1069.8" font-family="Times,serif" font-size="14.00" fill="#000000">rdf:type</text>
</g>
<!-- Roa:TextualBody -->
<g id="node8" class="node">
<title>Roa:TextualBody</title>
<ellipse fill="none" stroke="#0000ff" cx="1175.6217" cy="-1006" rx="67.6881" ry="18"/>
<text text-anchor="middle" x="1175.6217" y="-1002.3" font-family="Times,serif" font-size="14.00" fill="#000000">oa:TextualBody</text>
</g>
<!-- B_:node1f0gq2gelx56&#45;&gt;Roa:TextualBody -->
<g id="edge7" class="edge">
<title>B_:node1f0gq2gelx56&#45;&gt;Roa:TextualBody</title>
<path fill="none" stroke="#000000" d="M841.5318,-899.5192C864.9835,-901.0381 906.0414,-906.6658 933.8281,-927 946.0701,-935.9586 939.4603,-947.216 951.8281,-956 994.3894,-986.2281 1052.0658,-998.6078 1098.206,-1003.4928"/>
<polygon fill="#000000" stroke="#000000" points="1097.8765,-1006.9772 1108.1658,-1004.4511 1098.5471,-1000.0093 1097.8765,-1006.9772"/>
<text text-anchor="middle" x="1018.3281" y="-1004.8" font-family="Times,serif" font-size="14.00" fill="#000000">rdf:type</text>
</g>
<!-- Ltext/plain -->
<g id="node9" class="node">
<title>Ltext/plain</title>
<polygon fill="none" stroke="#000000" points="1141.6217,-933 1141.6217,-969 1209.6217,-969 1209.6217,-933 1141.6217,-933"/>
<text text-anchor="middle" x="1175.6217" y="-947.3" font-family="Times,serif" font-size="14.00" fill="#000000">text/plain</text>
</g>
<!-- B_:node1f0gq2gelx56&#45;&gt;Ltext/plain -->
<g id="edge8" class="edge">
<title>B_:node1f0gq2gelx56&#45;&gt;Ltext/plain</title>
<path fill="none" stroke="#000000" d="M841.2921,-901.6502C894.6986,-909.5334 1053.6771,-933 1131.5909,-944.5007"/>
<polygon fill="#000000" stroke="#000000" points="1131.1743,-947.977 1141.5783,-945.9749 1132.1966,-941.0521 1131.1743,-947.977"/>
<text text-anchor="middle" x="1018.3281" y="-940.8" font-family="Times,serif" font-size="14.00" fill="#000000">dcterms:format</text>
</g>
<!-- Rgn:1648473 -->
<g id="node10" class="node">
<title>Rgn:1648473</title>
<ellipse fill="none" stroke="#0000ff" cx="1175.6217" cy="-896" rx="52.7911" ry="18"/>
<text text-anchor="middle" x="1175.6217" y="-892.3" font-family="Times,serif" font-size="14.00" fill="#000000">gn:1648473</text>
</g>
<!-- B_:node1f0gq2gelx56&#45;&gt;Rgn:1648473 -->
<g id="edge9" class="edge">
<title>B_:node1f0gq2gelx56&#45;&gt;Rgn:1648473</title>
<path fill="none" stroke="#000000" d="M841.7822,-898.8429C891.6082,-898.4186 1030.6778,-897.2343 1112.7559,-896.5354"/>
<polygon fill="#000000" stroke="#000000" points="1112.9933,-900.0336 1122.9631,-896.4484 1112.9336,-893.0338 1112.9933,-900.0336"/>
<text text-anchor="middle" x="1018.3281" y="-900.8" font-family="Times,serif" font-size="14.00" fill="#000000">dcterms:identifier</text>
</g>
<!-- B_:node1f0gq2gelx56&#45;&gt;Rgn:1648473 -->
<g id="edge11" class="edge">
<title>B_:node1f0gq2gelx56&#45;&gt;Rgn:1648473</title>
<path fill="none" stroke="#000000" d="M841.0911,-894.977C865.7695,-889.6107 911.9135,-880.3924 951.8281,-877 1010.7269,-871.9941 1026.0312,-870.9138 1084.8281,-877 1097.3414,-878.2953 1110.6721,-880.5692 1123.1562,-883.1039"/>
<polygon fill="#000000" stroke="#000000" points="1122.4466,-886.5312 1132.9548,-885.1789 1123.8969,-879.6831 1122.4466,-886.5312"/>
<text text-anchor="middle" x="1018.3281" y="-880.8" font-family="Times,serif" font-size="14.00" fill="#000000">dwciri:inDescribedPlace</text>
</g>
<!-- Riso:dut -->
<g id="node11" class="node">
<title>Riso:dut</title>
<ellipse fill="none" stroke="#0000ff" cx="1175.6217" cy="-842" rx="34.394" ry="18"/>
<text text-anchor="middle" x="1175.6217" y="-838.3" font-family="Times,serif" font-size="14.00" fill="#000000">iso:dut</text>
</g>
<!-- B_:node1f0gq2gelx56&#45;&gt;Riso:dut -->
<g id="edge10" class="edge">
<title>B_:node1f0gq2gelx56&#45;&gt;Riso:dut</title>
<path fill="none" stroke="#000000" d="M839.9289,-891.2655C863.9858,-880.4696 910.2321,-861.2783 951.8281,-853 1013.0609,-840.8136 1085.4789,-839.584 1130.9889,-840.3625"/>
<polygon fill="#000000" stroke="#000000" points="1131.0442,-843.8643 1141.116,-840.5767 1131.1923,-836.8659 1131.0442,-843.8643"/>
<text text-anchor="middle" x="1018.3281" y="-856.8" font-family="Times,serif" font-size="14.00" fill="#000000">dcterms:language</text>
</g>
<!-- LBuitenzorg|Language: dut -->
<g id="node12" class="node">
<title>LBuitenzorg|Language: dut</title>
<polygon fill="none" stroke="#000000" points="1128.1217,-759 1128.1217,-805 1223.1217,-805 1223.1217,-759 1128.1217,-759"/>
<text text-anchor="middle" x="1175.6217" y="-789.8" font-family="Times,serif" font-size="14.00" fill="#000000">Buitenzorg</text>
<polyline fill="none" stroke="#000000" points="1128.1217,-782 1223.1217,-782 "/>
<text text-anchor="middle" x="1175.6217" y="-766.8" font-family="Times,serif" font-size="14.00" fill="#000000">Language: dut</text>
</g>
<!-- B_:node1f0gq2gelx56&#45;&gt;LBuitenzorg|Language: dut -->
<g id="edge12" class="edge">
<title>B_:node1f0gq2gelx56&#45;&gt;LBuitenzorg|Language: dut</title>
<path fill="none" stroke="#000000" d="M837.8168,-887.6833C860.6708,-870.4286 907.1182,-837.781 951.8281,-821 1006.0653,-800.6431 1071.7419,-790.8072 1117.8733,-786.1208"/>
<polygon fill="#000000" stroke="#000000" points="1118.3741,-789.5888 1127.9913,-785.1436 1117.7011,-782.6212 1118.3741,-789.5888"/>
<text text-anchor="middle" x="1018.3281" y="-824.8" font-family="Times,serif" font-size="14.00" fill="#000000">dwc:verbatimLocality</text>
</g>
<!-- B_:node1f0gq2gelx56&#45;&gt;LBuitenzorg|Language: dut -->
<g id="edge13" class="edge">
<title>B_:node1f0gq2gelx56&#45;&gt;LBuitenzorg|Language: dut</title>
<path fill="none" stroke="#000000" d="M832.9379,-883.3279C851.6146,-854.541 895.9525,-794.0819 951.8281,-771 1004.9183,-749.0688 1071.2219,-756.098 1117.8314,-765.9749"/>
<polygon fill="#000000" stroke="#000000" points="1117.2387,-769.4285 1127.7603,-768.1847 1118.7595,-762.5957 1117.2387,-769.4285"/>
<text text-anchor="middle" x="1018.3281" y="-774.8" font-family="Times,serif" font-size="14.00" fill="#000000">rdf:value</text>
</g>
<!-- Roa:Target -->
<g id="node14" class="node">
<title>Roa:Target</title>
<ellipse fill="none" stroke="#0000ff" cx="1175.6217" cy="-722" rx="44.393" ry="18"/>
<text text-anchor="middle" x="1175.6217" y="-718.3" font-family="Times,serif" font-size="14.00" fill="#000000">oa:Target</text>
</g>
<!-- B_:node1f0gq2gelx55&#45;&gt;Roa:Target -->
<g id="edge15" class="edge">
<title>B_:node1f0gq2gelx55&#45;&gt;Roa:Target</title>
<path fill="none" stroke="#000000" d="M841.2921,-696.3761C892.4845,-700.2996 1040.677,-711.6575 1121.4959,-717.8517"/>
<polygon fill="#000000" stroke="#000000" points="1121.7212,-721.3791 1131.9594,-718.6536 1122.2562,-714.3996 1121.7212,-721.3791"/>
<text text-anchor="middle" x="1018.3281" y="-717.8" font-family="Times,serif" font-size="14.00" fill="#000000">rdf:type</text>
</g>
<!-- Limage/jpeg -->
<g id="node15" class="node">
<title>Limage/jpeg</title>
<polygon fill="none" stroke="#000000" points="1137.1217,-649 1137.1217,-685 1214.1217,-685 1214.1217,-649 1137.1217,-649"/>
<text text-anchor="middle" x="1175.6217" y="-663.3" font-family="Times,serif" font-size="14.00" fill="#000000">image/jpeg</text>
</g>
<!-- B_:node1f0gq2gelx55&#45;&gt;Limage/jpeg -->
<g id="edge16" class="edge">
<title>B_:node1f0gq2gelx55&#45;&gt;Limage/jpeg</title>
<path fill="none" stroke="#000000" d="M841.2921,-693.573C893.6251,-689.4135 1047.3287,-677.1969 1126.7958,-670.8807"/>
<polygon fill="#000000" stroke="#000000" points="1127.3435,-674.3483 1137.0347,-670.0669 1126.7888,-667.3704 1127.3435,-674.3483"/>
<text text-anchor="middle" x="1018.3281" y="-687.8" font-family="Times,serif" font-size="14.00" fill="#000000">dcterms:format</text>
</g>
<!-- B_:node1f0gq2gelx58 -->
<g id="node16" class="node">
<title>B_:node1f0gq2gelx58</title>
<ellipse fill="none" stroke="#00ff00" cx="1175.6217" cy="-612" rx="18" ry="18"/>
</g>
<!-- B_:node1f0gq2gelx55&#45;&gt;B_:node1f0gq2gelx58 -->
<g id="edge17" class="edge">
<title>B_:node1f0gq2gelx55&#45;&gt;B_:node1f0gq2gelx58</title>
<path fill="none" stroke="#000000" d="M841.2594,-692.7857C863.715,-689.5321 902.9922,-682.2383 933.8281,-668 942.7874,-663.8631 942.7686,-658.9124 951.8281,-655 1018.1264,-626.3692 1103.6554,-616.706 1147.2864,-613.5177"/>
<polygon fill="#000000" stroke="#000000" points="1147.6949,-616.9983 1157.4392,-612.839 1147.228,-610.0139 1147.6949,-616.9983"/>
<text text-anchor="middle" x="1018.3281" y="-658.8" font-family="Times,serif" font-size="14.00" fill="#000000">oa:hasSelector</text>
</g>
<!-- Rimg:default.jpg -->
<g id="node20" class="node">
<title>Rimg:default.jpg</title>
<ellipse fill="none" stroke="#0000ff" cx="1175.6217" cy="-449" rx="65.7887" ry="18"/>
<text text-anchor="middle" x="1175.6217" y="-445.3" font-family="Times,serif" font-size="14.00" fill="#000000">img:default.jpg</text>
</g>
<!-- B_:node1f0gq2gelx55&#45;&gt;Rimg:default.jpg -->
<g id="edge21" class="edge">
<title>B_:node1f0gq2gelx55&#45;&gt;Rimg:default.jpg</title>
<path fill="none" stroke="#000000" d="M841.6696,-695.8412C866.0421,-695.9156 908.9287,-692.2462 933.8281,-668 955.6114,-646.7883 934.1945,-626.7689 951.8281,-602 997.4398,-537.932 1078.8565,-492.3153 1129.9027,-468.3593"/>
<polygon fill="#000000" stroke="#000000" points="1131.4469,-471.5015 1139.0652,-464.1387 1128.5182,-465.1436 1131.4469,-471.5015"/>
<text text-anchor="middle" x="1018.3281" y="-605.8" font-family="Times,serif" font-size="14.00" fill="#000000">oa:hasSource</text>
</g>
<!-- Roa:FragmentSelector -->
<g id="node17" class="node">
<title>Roa:FragmentSelector</title>
<ellipse fill="none" stroke="#0000ff" cx="1686.4152" cy="-694" rx="84.485" ry="18"/>
<text text-anchor="middle" x="1686.4152" y="-690.3" font-family="Times,serif" font-size="14.00" fill="#000000">oa:FragmentSelector</text>
</g>
<!-- B_:node1f0gq2gelx58&#45;&gt;Roa:FragmentSelector -->
<g id="edge18" class="edge">
<title>B_:node1f0gq2gelx58&#45;&gt;Roa:FragmentSelector</title>
<path fill="none" stroke="#000000" d="M1192.4579,-618.6023C1210.5124,-625.4798 1240.1351,-636.1838 1266.4152,-643 1376.697,-671.6036 1507.5255,-684.2682 1593.5174,-689.8079"/>
<polygon fill="#000000" stroke="#000000" points="1593.3179,-693.3021 1603.5168,-690.4329 1593.7546,-686.3158 1593.3179,-693.3021"/>
<text text-anchor="middle" x="1323.9152" y="-669.8" font-family="Times,serif" font-size="14.00" fill="#000000">rdf:type</text>
</g>
<!-- Rmf: -->
<g id="node18" class="node">
<title>Rmf:</title>
<ellipse fill="none" stroke="#0000ff" cx="1686.4152" cy="-640" rx="27" ry="18"/>
<text text-anchor="middle" x="1686.4152" y="-636.3" font-family="Times,serif" font-size="14.00" fill="#000000">mf:</text>
</g>
<!-- B_:node1f0gq2gelx58&#45;&gt;Rmf: -->
<g id="edge19" class="edge">
<title>B_:node1f0gq2gelx58&#45;&gt;Rmf:</title>
<path fill="none" stroke="#000000" d="M1193.7049,-613.268C1212.0256,-614.5354 1241.184,-616.5056 1266.4152,-618 1407.7912,-626.3737 1576.0377,-634.6876 1649.2807,-638.2254"/>
<polygon fill="#000000" stroke="#000000" points="1649.2263,-641.7268 1659.3832,-638.7122 1649.5632,-634.7349 1649.2263,-641.7268"/>
<text text-anchor="middle" x="1323.9152" y="-627.8" font-family="Times,serif" font-size="14.00" fill="#000000">dcterms:conformsTo</text>
</g>
<!-- Lxywh=0.783509282340829,0.018142248666184174,0.050441826215022134,0.017488954344624445 -->
<g id="node19" class="node">
<title>Lxywh=0.783509282340829,0.018142248666184174,0.050441826215022134,0.017488954344624445</title>
<polygon fill="none" stroke="#000000" points="1399.4152,-567 1399.4152,-603 1973.4152,-603 1973.4152,-567 1399.4152,-567"/>
<text text-anchor="middle" x="1686.4152" y="-581.3" font-family="Times,serif" font-size="14.00" fill="#000000">xywh=0.783509282340829,0.018142248666184174,0.050441826215022134,0.017488954344624445</text>
</g>
<!-- B_:node1f0gq2gelx58&#45;&gt;Lxywh=0.783509282340829,0.018142248666184174,0.050441826215022134,0.017488954344624445 -->
<g id="edge20" class="edge">
<title>B_:node1f0gq2gelx58&#45;&gt;Lxywh=0.783509282340829,0.018142248666184174,0.050441826215022134,0.017488954344624445</title>
<path fill="none" stroke="#000000" d="M1193.6841,-609.9089C1211.9886,-607.8606 1241.1347,-604.7933 1266.4152,-603 1306.0959,-600.1852 1347.9189,-597.7531 1389.1733,-595.6682"/>
<polygon fill="#000000" stroke="#000000" points="1389.5517,-599.1538 1399.3647,-595.1596 1389.2027,-592.1625 1389.5517,-599.1538"/>
<text text-anchor="middle" x="1323.9152" y="-606.8" font-family="Times,serif" font-size="14.00" fill="#000000">rdf:value</text>
</g>
<!-- Rdcmitype:StillImage -->
<g id="node23" class="node">
<title>Rdcmitype:StillImage</title>
<ellipse fill="none" stroke="#0000ff" cx="1686.4152" cy="-530" rx="83.3857" ry="18"/>
<text text-anchor="middle" x="1686.4152" y="-526.3" font-family="Times,serif" font-size="14.00" fill="#000000">dcmitype:StillImage</text>
</g>
<!-- Rimg:default.jpg&#45;&gt;Rdcmitype:StillImage -->
<g id="edge24" class="edge">
<title>Rimg:default.jpg&#45;&gt;Rdcmitype:StillImage</title>
<path fill="none" stroke="#000000" d="M1215.4894,-463.519C1231.2114,-468.8891 1249.5211,-474.7073 1266.4152,-479 1377.3508,-507.188 1508.8532,-519.9563 1594.7791,-525.6327"/>
<polygon fill="#000000" stroke="#000000" points="1594.5633,-529.126 1604.7671,-526.2741 1595.012,-522.1404 1594.5633,-529.126"/>
<text text-anchor="middle" x="1323.9152" y="-506.8" font-family="Times,serif" font-size="14.00" fill="#000000">rdf:type</text>
</g>
<!-- Rdsw:Token -->
<g id="node24" class="node">
<title>Rdsw:Token</title>
<ellipse fill="none" stroke="#0000ff" cx="1686.4152" cy="-476" rx="50.0912" ry="18"/>
<text text-anchor="middle" x="1686.4152" y="-472.3" font-family="Times,serif" font-size="14.00" fill="#000000">dsw:Token</text>
</g>
<!-- Rimg:default.jpg&#45;&gt;Rdsw:Token -->
<g id="edge25" class="edge">
<title>Rimg:default.jpg&#45;&gt;Rdsw:Token</title>
<path fill="none" stroke="#000000" d="M1240.314,-452.4196C1340.0345,-457.6907 1529.8738,-467.7254 1626.576,-472.837"/>
<polygon fill="#000000" stroke="#000000" points="1626.596,-476.3428 1636.7668,-473.3756 1626.9655,-469.3526 1626.596,-476.3428"/>
<text text-anchor="middle" x="1323.9152" y="-463.8" font-family="Times,serif" font-size="14.00" fill="#000000">rdf:type</text>
</g>
<!-- Rdwc:HumanObservation -->
<g id="node25" class="node">
<title>Rdwc:HumanObservation</title>
<ellipse fill="none" stroke="#0000ff" cx="1686.4152" cy="-422" rx="96.6831" ry="18"/>
<text text-anchor="middle" x="1686.4152" y="-418.3" font-family="Times,serif" font-size="14.00" fill="#000000">dwc:HumanObservation</text>
</g>
<!-- Rimg:default.jpg&#45;&gt;Rdwc:HumanObservation -->
<g id="edge26" class="edge">
<title>Rimg:default.jpg&#45;&gt;Rdwc:HumanObservation</title>
<path fill="none" stroke="#000000" d="M1232.663,-439.8658C1243.8295,-438.3514 1255.4703,-436.9631 1266.4152,-436 1372.5681,-426.6592 1494.3132,-423.4198 1579.3015,-422.3602"/>
<polygon fill="#000000" stroke="#000000" points="1579.5217,-425.858 1589.4802,-422.2415 1579.4401,-418.8584 1579.5217,-425.858"/>
<text text-anchor="middle" x="1323.9152" y="-439.8" font-family="Times,serif" font-size="14.00" fill="#000000">rdf:type</text>
</g>
<!-- Roa:Source -->
<g id="node26" class="node">
<title>Roa:Source</title>
<ellipse fill="none" stroke="#0000ff" cx="1686.4152" cy="-368" rx="46.2923" ry="18"/>
<text text-anchor="middle" x="1686.4152" y="-364.3" font-family="Times,serif" font-size="14.00" fill="#000000">oa:Source</text>
</g>
<!-- Rimg:default.jpg&#45;&gt;Roa:Source -->
<g id="edge27" class="edge">
<title>Rimg:default.jpg&#45;&gt;Roa:Source</title>
<path fill="none" stroke="#000000" d="M1206.7444,-432.932C1223.9076,-424.7689 1245.8521,-415.4485 1266.4152,-410 1393.4455,-376.3417 1548.6032,-369.2293 1630.1461,-367.9881"/>
<polygon fill="#000000" stroke="#000000" points="1630.2425,-371.4873 1640.1969,-367.8595 1630.1528,-364.4879 1630.2425,-371.4873"/>
<text text-anchor="middle" x="1323.9152" y="-413.8" font-family="Times,serif" font-size="14.00" fill="#000000">rdf:type</text>
</g>
<!-- Rfoaf:Image -->
<g id="node27" class="node">
<title>Rfoaf:Image</title>
<ellipse fill="none" stroke="#0000ff" cx="1686.4152" cy="-314" rx="50.0912" ry="18"/>
<text text-anchor="middle" x="1686.4152" y="-310.3" font-family="Times,serif" font-size="14.00" fill="#000000">foaf:Image</text>
</g>
<!-- Rimg:default.jpg&#45;&gt;Rfoaf:Image -->
<g id="edge28" class="edge">
<title>Rimg:default.jpg&#45;&gt;Rfoaf:Image</title>
<path fill="none" stroke="#000000" d="M1190.4391,-431.4149C1207.0177,-412.9344 1235.6176,-384.4467 1266.4152,-369 1383.9438,-310.0529 1542.1719,-306.6166 1626.9222,-309.9055"/>
<polygon fill="#000000" stroke="#000000" points="1626.9927,-313.4117 1637.135,-310.3485 1627.2961,-306.4183 1626.9927,-313.4117"/>
<text text-anchor="middle" x="1323.9152" y="-372.8" font-family="Times,serif" font-size="14.00" fill="#000000">rdf:type</text>
</g>
</g>
</svg>
