<?xml version="1.0" encoding="UTF-8" standalone="no"?>
<!DOCTYPE svg PUBLIC "-//W3C//DTD SVG 1.1//EN"
 "http://www.w3.org/Graphics/SVG/1.1/DTD/svg11.dtd">
<!-- Generated by graphviz version 2.40.1 (20161225.0304)
 -->
<!-- Title: %3 Pages: 1 -->
<svg width="1937pt" height="1140pt"
 viewBox="0.00 0.00 1936.92 1140.00" xmlns="http://www.w3.org/2000/svg" xmlns:xlink="http://www.w3.org/1999/xlink">
<g id="graph0" class="graph" transform="scale(1 1) rotate(0) translate(4 1136)">
<title>%3</title>
<polygon fill="#ffffff" stroke="transparent" points="-4,4 -4,-1136 1932.9158,-1136 1932.9158,4 -4,4"/>
<text text-anchor="middle" x="964.4579" y="-248.8" font-family="Times,serif" font-size="14.00" fill="#000000">Model:</text>
<text text-anchor="middle" x="964.4579" y="-233.8" font-family="Times,serif" font-size="14.00" fill="#000000">(Unknown)</text>
<text text-anchor="middle" x="964.4579" y="-202.8" font-family="Times,serif" font-size="14.00" fill="#000000">Namespaces:</text>
<text text-anchor="middle" x="964.4579" y="-187.8" font-family="Times,serif" font-size="14.00" fill="#000000">dcmitype: http://purl.org/dc/dcmitype/</text>
<text text-anchor="middle" x="964.4579" y="-172.8" font-family="Times,serif" font-size="14.00" fill="#000000">dcterms: http://purl.org/dc/terms/</text>
<text text-anchor="middle" x="964.4579" y="-157.8" font-family="Times,serif" font-size="14.00" fill="#000000">dsw: http://purl.org/dsw/</text>
<text text-anchor="middle" x="964.4579" y="-142.8" font-family="Times,serif" font-size="14.00" fill="#000000">dwc: http://rs.tdwg.org/dwc/terms/</text>
<text text-anchor="middle" x="964.4579" y="-127.8" font-family="Times,serif" font-size="14.00" fill="#000000">foaf: http://xmlns.com/foaf/0.1/</text>
<text text-anchor="middle" x="964.4579" y="-112.8" font-family="Times,serif" font-size="14.00" fill="#000000">gbif: http://www.gbif.org/species/</text>
<text text-anchor="middle" x="964.4579" y="-97.8" font-family="Times,serif" font-size="14.00" fill="#000000">img: http://localhost:8182/iiif/2/900c341c1c10fff7:MMNAT01_PM_NNM001001033_003/full/max/0/</text>
<text text-anchor="middle" x="964.4579" y="-82.8" font-family="Times,serif" font-size="14.00" fill="#000000">iso: http://iso639&#45;3.sil.org/code/</text>
<text text-anchor="middle" x="964.4579" y="-67.8" font-family="Times,serif" font-size="14.00" fill="#000000">mf: http://www.w3.org/TR/media&#45;frags/</text>
<text text-anchor="middle" x="964.4579" y="-52.8" font-family="Times,serif" font-size="14.00" fill="#000000">oa: http://www.w3.org/ns/oa#</text>
<text text-anchor="middle" x="964.4579" y="-37.8" font-family="Times,serif" font-size="14.00" fill="#000000">obo: http://purl.obolibrary.org/obo/</text>
<text text-anchor="middle" x="964.4579" y="-22.8" font-family="Times,serif" font-size="14.00" fill="#000000">orcid: http://orcid.org/</text>
<text text-anchor="middle" x="964.4579" y="-7.8" font-family="Times,serif" font-size="14.00" fill="#000000">rdf: http://www.w3.org/1999/02/22&#45;rdf&#45;syntax&#45;ns#</text>
<!-- Rhttp://localhost:8080/rdf/nc/annotation/28cd1599&#45;b946&#45;4222&#45;adc4&#45;be6b1e9ed13f -->
<g id="node1" class="node">
<title>Rhttp://localhost:8080/rdf/nc/annotation/28cd1599&#45;b946&#45;4222&#45;adc4&#45;be6b1e9ed13f</title>
<ellipse fill="none" stroke="#0000ff" cx="296.3737" cy="-918" rx="296.2475" ry="18"/>
<text text-anchor="middle" x="296.3737" y="-914.3" font-family="Times,serif" font-size="14.00" fill="#000000">http://localhost:8080/rdf/nc/annotation/28cd1599&#45;b946&#45;4222&#45;adc4&#45;be6b1e9ed13f</text>
</g>
<!-- Roa:Annotation -->
<g id="node2" class="node">
<title>Roa:Annotation</title>
<ellipse fill="none" stroke="#0000ff" cx="827.2376" cy="-1051" rx="61.1893" ry="18"/>
<text text-anchor="middle" x="827.2376" y="-1047.3" font-family="Times,serif" font-size="14.00" fill="#000000">oa:Annotation</text>
</g>
<!-- Rhttp://localhost:8080/rdf/nc/annotation/28cd1599&#45;b946&#45;4222&#45;adc4&#45;be6b1e9ed13f&#45;&gt;Roa:Annotation -->
<g id="edge1" class="edge">
<title>Rhttp://localhost:8080/rdf/nc/annotation/28cd1599&#45;b946&#45;4222&#45;adc4&#45;be6b1e9ed13f&#45;&gt;Roa:Annotation</title>
<path fill="none" stroke="#000000" d="M365.5138,-935.5995C448.7868,-956.7582 592.9301,-993.2614 716.7474,-1024 734.0498,-1028.2955 752.8901,-1032.9192 770.0317,-1037.1055"/>
<polygon fill="#000000" stroke="#000000" points="769.3589,-1040.544 779.9036,-1039.514 771.0181,-1033.7434 769.3589,-1040.544"/>
<text text-anchor="middle" x="654.7474" y="-1021.8" font-family="Times,serif" font-size="14.00" fill="#000000">rdf:type</text>
</g>
<!-- Rorcid:0000&#45;0002&#45;2146&#45;4803 -->
<g id="node3" class="node">
<title>Rorcid:0000&#45;0002&#45;2146&#45;4803</title>
<ellipse fill="none" stroke="#0000ff" cx="827.2376" cy="-997" rx="110.4804" ry="18"/>
<text text-anchor="middle" x="827.2376" y="-993.3" font-family="Times,serif" font-size="14.00" fill="#000000">orcid:0000&#45;0002&#45;2146&#45;4803</text>
</g>
<!-- Rhttp://localhost:8080/rdf/nc/annotation/28cd1599&#45;b946&#45;4222&#45;adc4&#45;be6b1e9ed13f&#45;&gt;Rorcid:0000&#45;0002&#45;2146&#45;4803 -->
<g id="edge2" class="edge">
<title>Rhttp://localhost:8080/rdf/nc/annotation/28cd1599&#45;b946&#45;4222&#45;adc4&#45;be6b1e9ed13f&#45;&gt;Rorcid:0000&#45;0002&#45;2146&#45;4803</title>
<path fill="none" stroke="#000000" d="M408.6318,-934.7056C505.8552,-949.1738 644.7606,-969.8449 735.4588,-983.342"/>
<polygon fill="#000000" stroke="#000000" points="735.0447,-986.8189 745.451,-984.829 736.0751,-979.8951 735.0447,-986.8189"/>
<text text-anchor="middle" x="654.7474" y="-978.8" font-family="Times,serif" font-size="14.00" fill="#000000">dcterms:creator</text>
</g>
<!-- L2021&#45;01&#45;12T14:23:11.646Z|Datatype: dcterms:W3CDTF -->
<g id="node4" class="node">
<title>L2021&#45;01&#45;12T14:23:11.646Z|Datatype: dcterms:W3CDTF</title>
<polygon fill="none" stroke="#000000" points="739.7376,-914 739.7376,-960 914.7376,-960 914.7376,-914 739.7376,-914"/>
<text text-anchor="middle" x="827.2376" y="-944.8" font-family="Times,serif" font-size="14.00" fill="#000000">2021&#45;01&#45;12T14:23:11.646Z</text>
<polyline fill="none" stroke="#000000" points="739.7376,-937 914.7376,-937 "/>
<text text-anchor="middle" x="827.2376" y="-921.8" font-family="Times,serif" font-size="14.00" fill="#000000">Datatype: dcterms:W3CDTF</text>
</g>
<!-- Rhttp://localhost:8080/rdf/nc/annotation/28cd1599&#45;b946&#45;4222&#45;adc4&#45;be6b1e9ed13f&#45;&gt;L2021&#45;01&#45;12T14:23:11.646Z|Datatype: dcterms:W3CDTF -->
<g id="edge3" class="edge">
<title>Rhttp://localhost:8080/rdf/nc/annotation/28cd1599&#45;b946&#45;4222&#45;adc4&#45;be6b1e9ed13f&#45;&gt;L2021&#45;01&#45;12T14:23:11.646Z|Datatype: dcterms:W3CDTF</title>
<path fill="none" stroke="#000000" d="M552.0872,-927.1522C615.2735,-929.4137 679.1952,-931.7015 729.5039,-933.502"/>
<polygon fill="#000000" stroke="#000000" points="729.5844,-937.0071 739.7032,-933.8671 729.8348,-930.0115 729.5844,-937.0071"/>
<text text-anchor="middle" x="654.7474" y="-934.8" font-family="Times,serif" font-size="14.00" fill="#000000">dcterms:date</text>
</g>
<!-- B_:node1f0gq2gelx45 -->
<g id="node5" class="node">
<title>B_:node1f0gq2gelx45</title>
<ellipse fill="none" stroke="#00ff00" cx="827.2376" cy="-877" rx="18" ry="18"/>
</g>
<!-- Rhttp://localhost:8080/rdf/nc/annotation/28cd1599&#45;b946&#45;4222&#45;adc4&#45;be6b1e9ed13f&#45;&gt;B_:node1f0gq2gelx45 -->
<g id="edge4" class="edge">
<title>Rhttp://localhost:8080/rdf/nc/annotation/28cd1599&#45;b946&#45;4222&#45;adc4&#45;be6b1e9ed13f&#45;&gt;B_:node1f0gq2gelx45</title>
<path fill="none" stroke="#000000" d="M479.8103,-903.8327C597.7427,-894.7245 739.6217,-883.7668 798.9754,-879.1828"/>
<polygon fill="#000000" stroke="#000000" points="799.3725,-882.6626 809.0733,-878.4029 798.8335,-875.6834 799.3725,-882.6626"/>
<text text-anchor="middle" x="654.7474" y="-895.8" font-family="Times,serif" font-size="14.00" fill="#000000">oa:hasBody</text>
</g>
<!-- B_:node1f0gq2gelx44 -->
<g id="node12" class="node">
<title>B_:node1f0gq2gelx44</title>
<ellipse fill="none" stroke="#00ff00" cx="827.2376" cy="-695" rx="18" ry="18"/>
</g>
<!-- Rhttp://localhost:8080/rdf/nc/annotation/28cd1599&#45;b946&#45;4222&#45;adc4&#45;be6b1e9ed13f&#45;&gt;B_:node1f0gq2gelx44 -->
<g id="edge12" class="edge">
<title>Rhttp://localhost:8080/rdf/nc/annotation/28cd1599&#45;b946&#45;4222&#45;adc4&#45;be6b1e9ed13f&#45;&gt;B_:node1f0gq2gelx44</title>
<path fill="none" stroke="#000000" d="M338.9191,-900.1279C444.4733,-855.7878 715.9872,-741.733 801.2296,-705.9252"/>
<polygon fill="#000000" stroke="#000000" points="802.5929,-709.1489 810.4569,-702.0491 799.8818,-702.6951 802.5929,-709.1489"/>
<text text-anchor="middle" x="654.7474" y="-782.8" font-family="Times,serif" font-size="14.00" fill="#000000">oa:hasTarget</text>
</g>
<!-- Roa:describing -->
<g id="node20" class="node">
<title>Roa:describing</title>
<ellipse fill="none" stroke="#0000ff" cx="827.2376" cy="-641" rx="57.6901" ry="18"/>
<text text-anchor="middle" x="827.2376" y="-637.3" font-family="Times,serif" font-size="14.00" fill="#000000">oa:describing</text>
</g>
<!-- Rhttp://localhost:8080/rdf/nc/annotation/28cd1599&#45;b946&#45;4222&#45;adc4&#45;be6b1e9ed13f&#45;&gt;Roa:describing -->
<g id="edge20" class="edge">
<title>Rhttp://localhost:8080/rdf/nc/annotation/28cd1599&#45;b946&#45;4222&#45;adc4&#45;be6b1e9ed13f&#45;&gt;Roa:describing</title>
<path fill="none" stroke="#000000" d="M320.5935,-900.0303C382.9843,-854.5588 555.6224,-733.8726 716.7474,-668 732.5652,-661.5332 750.3149,-656.3532 766.8828,-652.3289"/>
<polygon fill="#000000" stroke="#000000" points="768.071,-655.646 777.0181,-649.9714 766.4851,-648.828 768.071,-655.646"/>
<text text-anchor="middle" x="654.7474" y="-716.8" font-family="Times,serif" font-size="14.00" fill="#000000">oa:motivatedBy</text>
</g>
<!-- Rfoaf:Person -->
<g id="node21" class="node">
<title>Rfoaf:Person</title>
<ellipse fill="none" stroke="#0000ff" cx="1150.3218" cy="-1114" rx="51.1914" ry="18"/>
<text text-anchor="middle" x="1150.3218" y="-1110.3" font-family="Times,serif" font-size="14.00" fill="#000000">foaf:Person</text>
</g>
<!-- Rorcid:0000&#45;0002&#45;2146&#45;4803&#45;&gt;Rfoaf:Person -->
<g id="edge21" class="edge">
<title>Rorcid:0000&#45;0002&#45;2146&#45;4803&#45;&gt;Rfoaf:Person</title>
<path fill="none" stroke="#000000" d="M912.9338,-1008.3969C922.0274,-1012.2752 930.5564,-1017.3581 937.7278,-1024 956.598,-1041.4771 936.3274,-1062.1134 955.7278,-1079 992.3241,-1110.8545 1047.8303,-1118.2029 1090.2086,-1118.3957"/>
<polygon fill="#000000" stroke="#000000" points="1090.4362,-1121.8939 1100.4054,-1118.3071 1090.3754,-1114.8942 1090.4362,-1121.8939"/>
<text text-anchor="middle" x="1010.2278" y="-1120.8" font-family="Times,serif" font-size="14.00" fill="#000000">rdf:type</text>
</g>
<!-- Rdwc:Taxon -->
<g id="node6" class="node">
<title>Rdwc:Taxon</title>
<ellipse fill="none" stroke="#0000ff" cx="1150.3218" cy="-1060" rx="50.0912" ry="18"/>
<text text-anchor="middle" x="1150.3218" y="-1056.3" font-family="Times,serif" font-size="14.00" fill="#000000">dwc:Taxon</text>
</g>
<!-- B_:node1f0gq2gelx45&#45;&gt;Rdwc:Taxon -->
<g id="edge5" class="edge">
<title>B_:node1f0gq2gelx45&#45;&gt;Rdwc:Taxon</title>
<path fill="none" stroke="#000000" d="M845.555,-875.9707C870.3167,-875.6652 914.0849,-879.1575 937.7278,-905 971.7595,-942.1978 921.1289,-980.3292 955.7278,-1017 974.0538,-1036.4234 1041.0326,-1048.0572 1091.3268,-1054.2333"/>
<polygon fill="#000000" stroke="#000000" points="1091.1206,-1057.7332 1101.4627,-1055.4328 1091.9433,-1050.7817 1091.1206,-1057.7332"/>
<text text-anchor="middle" x="1010.2278" y="-1053.8" font-family="Times,serif" font-size="14.00" fill="#000000">rdf:type</text>
</g>
<!-- Roa:TextualBody -->
<g id="node7" class="node">
<title>Roa:TextualBody</title>
<ellipse fill="none" stroke="#0000ff" cx="1150.3218" cy="-1006" rx="67.6881" ry="18"/>
<text text-anchor="middle" x="1150.3218" y="-1002.3" font-family="Times,serif" font-size="14.00" fill="#000000">oa:TextualBody</text>
</g>
<!-- B_:node1f0gq2gelx45&#45;&gt;Roa:TextualBody -->
<g id="edge6" class="edge">
<title>B_:node1f0gq2gelx45&#45;&gt;Roa:TextualBody</title>
<path fill="none" stroke="#000000" d="M845.6235,-876.7541C869.6637,-877.4162 911.7612,-882.0874 937.7278,-905 954.1894,-919.5255 939.4657,-936.2514 955.7278,-951 987.9038,-980.1815 1034.4338,-994.0029 1073.9265,-1000.4951"/>
<polygon fill="#000000" stroke="#000000" points="1073.6547,-1003.9937 1084.0658,-1002.0292 1074.702,-997.0725 1073.6547,-1003.9937"/>
<text text-anchor="middle" x="1010.2278" y="-1001.8" font-family="Times,serif" font-size="14.00" fill="#000000">rdf:type</text>
</g>
<!-- Ltext/plain -->
<g id="node8" class="node">
<title>Ltext/plain</title>
<polygon fill="none" stroke="#000000" points="1116.3218,-933 1116.3218,-969 1184.3218,-969 1184.3218,-933 1116.3218,-933"/>
<text text-anchor="middle" x="1150.3218" y="-947.3" font-family="Times,serif" font-size="14.00" fill="#000000">text/plain</text>
</g>
<!-- B_:node1f0gq2gelx45&#45;&gt;Ltext/plain -->
<g id="edge7" class="edge">
<title>B_:node1f0gq2gelx45&#45;&gt;Ltext/plain</title>
<path fill="none" stroke="#000000" d="M845.071,-881.6301C869.8424,-888.0183 916.0938,-899.7899 955.7278,-909 1007.2909,-920.9822 1066.8121,-933.6612 1106.3105,-941.9138"/>
<polygon fill="#000000" stroke="#000000" points="1105.6479,-945.3509 1116.1517,-943.965 1107.0762,-938.4981 1105.6479,-945.3509"/>
<text text-anchor="middle" x="1010.2278" y="-935.8" font-family="Times,serif" font-size="14.00" fill="#000000">dcterms:format</text>
</g>
<!-- Rgbif:9180402 -->
<g id="node9" class="node">
<title>Rgbif:9180402</title>
<ellipse fill="none" stroke="#0000ff" cx="1150.3218" cy="-896" rx="57.6901" ry="18"/>
<text text-anchor="middle" x="1150.3218" y="-892.3" font-family="Times,serif" font-size="14.00" fill="#000000">gbif:9180402</text>
</g>
<!-- B_:node1f0gq2gelx45&#45;&gt;Rgbif:9180402 -->
<g id="edge8" class="edge">
<title>B_:node1f0gq2gelx45&#45;&gt;Rgbif:9180402</title>
<path fill="none" stroke="#000000" d="M845.5337,-878.076C890.4111,-880.7151 1007.7618,-887.6163 1083.0629,-892.0446"/>
<polygon fill="#000000" stroke="#000000" points="1083.209,-895.5592 1093.3973,-892.6524 1083.62,-888.5712 1083.209,-895.5592"/>
<text text-anchor="middle" x="1010.2278" y="-893.8" font-family="Times,serif" font-size="14.00" fill="#000000">dcterms:identifier</text>
</g>
<!-- Riso:lat -->
<g id="node10" class="node">
<title>Riso:lat</title>
<ellipse fill="none" stroke="#0000ff" cx="1150.3218" cy="-842" rx="32.4942" ry="18"/>
<text text-anchor="middle" x="1150.3218" y="-838.3" font-family="Times,serif" font-size="14.00" fill="#000000">iso:lat</text>
</g>
<!-- B_:node1f0gq2gelx45&#45;&gt;Riso:lat -->
<g id="edge9" class="edge">
<title>B_:node1f0gq2gelx45&#45;&gt;Riso:lat</title>
<path fill="none" stroke="#000000" d="M845.5337,-875.018C895.8539,-869.5667 1037.2929,-854.2445 1108.4011,-846.5413"/>
<polygon fill="#000000" stroke="#000000" points="1108.798,-850.0189 1118.3629,-845.4621 1108.0441,-843.0596 1108.798,-850.0189"/>
<text text-anchor="middle" x="1010.2278" y="-865.8" font-family="Times,serif" font-size="14.00" fill="#000000">dcterms:language</text>
</g>
<!-- LPteropus minimus|Language: lat -->
<g id="node11" class="node">
<title>LPteropus minimus|Language: lat</title>
<polygon fill="none" stroke="#000000" points="1092.3218,-759 1092.3218,-805 1208.3218,-805 1208.3218,-759 1092.3218,-759"/>
<text text-anchor="middle" x="1150.3218" y="-789.8" font-family="Times,serif" font-size="14.00" fill="#000000">Pteropus minimus</text>
<polyline fill="none" stroke="#000000" points="1092.3218,-782 1208.3218,-782 "/>
<text text-anchor="middle" x="1150.3218" y="-766.8" font-family="Times,serif" font-size="14.00" fill="#000000">Language: lat</text>
</g>
<!-- B_:node1f0gq2gelx45&#45;&gt;LPteropus minimus|Language: lat -->
<g id="edge10" class="edge">
<title>B_:node1f0gq2gelx45&#45;&gt;LPteropus minimus|Language: lat</title>
<path fill="none" stroke="#000000" d="M844.1286,-870.5652C868.5505,-861.3807 915.2373,-844.2678 955.7278,-832 997.4038,-819.373 1044.7103,-807.1705 1082.2442,-797.9815"/>
<polygon fill="#000000" stroke="#000000" points="1083.1728,-801.3577 1092.0614,-795.5921 1081.5173,-794.5563 1083.1728,-801.3577"/>
<text text-anchor="middle" x="1010.2278" y="-835.8" font-family="Times,serif" font-size="14.00" fill="#000000">dwc:scientificName</text>
</g>
<!-- B_:node1f0gq2gelx45&#45;&gt;LPteropus minimus|Language: lat -->
<g id="edge11" class="edge">
<title>B_:node1f0gq2gelx45&#45;&gt;LPteropus minimus|Language: lat</title>
<path fill="none" stroke="#000000" d="M839.8934,-863.5388C861.2959,-841.8626 907.0827,-800.0339 955.7278,-784 996.2287,-770.6505 1044.0971,-769.9787 1082.2222,-772.7284"/>
<polygon fill="#000000" stroke="#000000" points="1081.9462,-776.2174 1092.1974,-773.5409 1082.5145,-769.2405 1081.9462,-776.2174"/>
<text text-anchor="middle" x="1010.2278" y="-787.8" font-family="Times,serif" font-size="14.00" fill="#000000">rdf:value</text>
</g>
<!-- Robo:TAXRANK_0000006 -->
<g id="node27" class="node">
<title>Robo:TAXRANK_0000006</title>
<ellipse fill="none" stroke="#0000ff" cx="1648.9158" cy="-896" rx="104.7816" ry="18"/>
<text text-anchor="middle" x="1648.9158" y="-892.3" font-family="Times,serif" font-size="14.00" fill="#000000">obo:TAXRANK_0000006</text>
</g>
<!-- Rgbif:9180402&#45;&gt;Robo:TAXRANK_0000006 -->
<g id="edge27" class="edge">
<title>Rgbif:9180402&#45;&gt;Robo:TAXRANK_0000006</title>
<path fill="none" stroke="#000000" d="M1208.4927,-896C1288.0458,-896 1432.4926,-896 1534.2253,-896"/>
<polygon fill="#000000" stroke="#000000" points="1534.2423,-899.5001 1544.2423,-896 1534.2422,-892.5001 1534.2423,-899.5001"/>
<text text-anchor="middle" x="1293.4158" y="-899.8" font-family="Times,serif" font-size="14.00" fill="#000000">dwc:taxonRank</text>
</g>
<!-- Roa:Target -->
<g id="node13" class="node">
<title>Roa:Target</title>
<ellipse fill="none" stroke="#0000ff" cx="1150.3218" cy="-722" rx="44.393" ry="18"/>
<text text-anchor="middle" x="1150.3218" y="-718.3" font-family="Times,serif" font-size="14.00" fill="#000000">oa:Target</text>
</g>
<!-- B_:node1f0gq2gelx44&#45;&gt;Roa:Target -->
<g id="edge13" class="edge">
<title>B_:node1f0gq2gelx44&#45;&gt;Roa:Target</title>
<path fill="none" stroke="#000000" d="M845.5337,-696.529C893.2797,-700.5191 1023.0602,-711.3648 1096.9575,-717.5404"/>
<polygon fill="#000000" stroke="#000000" points="1096.7427,-721.0345 1106.9994,-718.3796 1097.3257,-714.0588 1096.7427,-721.0345"/>
<text text-anchor="middle" x="1010.2278" y="-717.8" font-family="Times,serif" font-size="14.00" fill="#000000">rdf:type</text>
</g>
<!-- Limage/jpeg -->
<g id="node14" class="node">
<title>Limage/jpeg</title>
<polygon fill="none" stroke="#000000" points="1111.8218,-649 1111.8218,-685 1188.8218,-685 1188.8218,-649 1111.8218,-649"/>
<text text-anchor="middle" x="1150.3218" y="-663.3" font-family="Times,serif" font-size="14.00" fill="#000000">image/jpeg</text>
</g>
<!-- B_:node1f0gq2gelx44&#45;&gt;Limage/jpeg -->
<g id="edge14" class="edge">
<title>B_:node1f0gq2gelx44&#45;&gt;Limage/jpeg</title>
<path fill="none" stroke="#000000" d="M845.5337,-693.4144C894.2635,-689.1912 1028.4434,-677.5626 1101.4531,-671.2352"/>
<polygon fill="#000000" stroke="#000000" points="1102.1033,-674.692 1111.7638,-670.3416 1101.4989,-667.7182 1102.1033,-674.692"/>
<text text-anchor="middle" x="1010.2278" y="-686.8" font-family="Times,serif" font-size="14.00" fill="#000000">dcterms:format</text>
</g>
<!-- B_:node1f0gq2gelx47 -->
<g id="node15" class="node">
<title>B_:node1f0gq2gelx47</title>
<ellipse fill="none" stroke="#00ff00" cx="1150.3218" cy="-612" rx="18" ry="18"/>
</g>
<!-- B_:node1f0gq2gelx44&#45;&gt;B_:node1f0gq2gelx47 -->
<g id="edge15" class="edge">
<title>B_:node1f0gq2gelx44&#45;&gt;B_:node1f0gq2gelx47</title>
<path fill="none" stroke="#000000" d="M845.159,-692.7857C867.6147,-689.5321 906.8919,-682.2383 937.7278,-668 946.6871,-663.8631 946.7232,-659.0372 955.7278,-655 1011.5673,-629.9643 1083.1362,-618.9972 1122.0448,-614.6093"/>
<polygon fill="#000000" stroke="#000000" points="1122.5384,-618.0766 1132.1127,-613.5399 1121.799,-611.1158 1122.5384,-618.0766"/>
<text text-anchor="middle" x="1010.2278" y="-658.8" font-family="Times,serif" font-size="14.00" fill="#000000">oa:hasSelector</text>
</g>
<!-- Rimg:default.jpg -->
<g id="node19" class="node">
<title>Rimg:default.jpg</title>
<ellipse fill="none" stroke="#0000ff" cx="1150.3218" cy="-449" rx="65.7887" ry="18"/>
<text text-anchor="middle" x="1150.3218" y="-445.3" font-family="Times,serif" font-size="14.00" fill="#000000">img:default.jpg</text>
</g>
<!-- B_:node1f0gq2gelx44&#45;&gt;Rimg:default.jpg -->
<g id="edge19" class="edge">
<title>B_:node1f0gq2gelx44&#45;&gt;Rimg:default.jpg</title>
<path fill="none" stroke="#000000" d="M845.5266,-695.7971C869.8508,-695.8216 912.6827,-692.0958 937.7278,-668 958.7129,-647.8103 939.607,-629.2512 955.7278,-605 995.981,-544.4453 1067.1592,-496.2077 1111.3687,-470.1849"/>
<polygon fill="#000000" stroke="#000000" points="1113.2039,-473.1667 1120.1031,-465.126 1109.6955,-467.1094 1113.2039,-473.1667"/>
<text text-anchor="middle" x="1010.2278" y="-608.8" font-family="Times,serif" font-size="14.00" fill="#000000">oa:hasSource</text>
</g>
<!-- Roa:FragmentSelector -->
<g id="node16" class="node">
<title>Roa:FragmentSelector</title>
<ellipse fill="none" stroke="#0000ff" cx="1648.9158" cy="-694" rx="84.485" ry="18"/>
<text text-anchor="middle" x="1648.9158" y="-690.3" font-family="Times,serif" font-size="14.00" fill="#000000">oa:FragmentSelector</text>
</g>
<!-- B_:node1f0gq2gelx47&#45;&gt;Roa:FragmentSelector -->
<g id="edge16" class="edge">
<title>B_:node1f0gq2gelx47&#45;&gt;Roa:FragmentSelector</title>
<path fill="none" stroke="#000000" d="M1167.0681,-619.3254C1184.1052,-626.523 1211.4152,-637.364 1235.9158,-644 1343.0997,-673.0308 1470.5079,-685.2258 1555.1859,-690.3361"/>
<polygon fill="#000000" stroke="#000000" points="1555.1098,-693.8376 1565.2964,-690.9249 1555.5168,-686.8494 1555.1098,-693.8376"/>
<text text-anchor="middle" x="1293.4158" y="-670.8" font-family="Times,serif" font-size="14.00" fill="#000000">rdf:type</text>
</g>
<!-- Rmf: -->
<g id="node17" class="node">
<title>Rmf:</title>
<ellipse fill="none" stroke="#0000ff" cx="1648.9158" cy="-640" rx="27" ry="18"/>
<text text-anchor="middle" x="1648.9158" y="-636.3" font-family="Times,serif" font-size="14.00" fill="#000000">mf:</text>
</g>
<!-- B_:node1f0gq2gelx47&#45;&gt;Rmf: -->
<g id="edge17" class="edge">
<title>B_:node1f0gq2gelx47&#45;&gt;Rmf:</title>
<path fill="none" stroke="#000000" d="M1168.3503,-613.3519C1185.6682,-614.6297 1212.5726,-616.5602 1235.9158,-618 1374.2958,-626.5352 1538.8823,-634.7107 1611.4194,-638.2135"/>
<polygon fill="#000000" stroke="#000000" points="1611.69,-641.7305 1621.8467,-638.7154 1612.0266,-634.7386 1611.69,-641.7305"/>
<text text-anchor="middle" x="1293.4158" y="-628.8" font-family="Times,serif" font-size="14.00" fill="#000000">dcterms:conformsTo</text>
</g>
<!-- Lxywh=0.5530314055917275,0.3586725350259047,0.07278820375335127,0.018716966679433122 -->
<g id="node18" class="node">
<title>Lxywh=0.5530314055917275,0.3586725350259047,0.07278820375335127,0.018716966679433122</title>
<polygon fill="none" stroke="#000000" points="1368.9158,-567 1368.9158,-603 1928.9158,-603 1928.9158,-567 1368.9158,-567"/>
<text text-anchor="middle" x="1648.9158" y="-581.3" font-family="Times,serif" font-size="14.00" fill="#000000">xywh=0.5530314055917275,0.3586725350259047,0.07278820375335127,0.018716966679433122</text>
</g>
<!-- B_:node1f0gq2gelx47&#45;&gt;Lxywh=0.5530314055917275,0.3586725350259047,0.07278820375335127,0.018716966679433122 -->
<g id="edge18" class="edge">
<title>B_:node1f0gq2gelx47&#45;&gt;Lxywh=0.5530314055917275,0.3586725350259047,0.07278820375335127,0.018716966679433122</title>
<path fill="none" stroke="#000000" d="M1168.3273,-609.7829C1185.6286,-607.7293 1212.5214,-604.7381 1235.9158,-603 1275.588,-600.0525 1317.4427,-597.5376 1358.6747,-595.406"/>
<polygon fill="#000000" stroke="#000000" points="1359.0507,-598.8915 1368.8594,-594.8865 1358.6941,-591.9006 1359.0507,-598.8915"/>
<text text-anchor="middle" x="1293.4158" y="-606.8" font-family="Times,serif" font-size="14.00" fill="#000000">rdf:value</text>
</g>
<!-- Rdcmitype:StillImage -->
<g id="node22" class="node">
<title>Rdcmitype:StillImage</title>
<ellipse fill="none" stroke="#0000ff" cx="1648.9158" cy="-530" rx="83.3857" ry="18"/>
<text text-anchor="middle" x="1648.9158" y="-526.3" font-family="Times,serif" font-size="14.00" fill="#000000">dcmitype:StillImage</text>
</g>
<!-- Rimg:default.jpg&#45;&gt;Rdcmitype:StillImage -->
<g id="edge22" class="edge">
<title>Rimg:default.jpg&#45;&gt;Rdcmitype:StillImage</title>
<path fill="none" stroke="#000000" d="M1188.2671,-463.7532C1202.9854,-469.0904 1220.0808,-474.8245 1235.9158,-479 1344.1618,-507.5434 1472.6772,-520.2178 1557.2677,-525.7764"/>
<polygon fill="#000000" stroke="#000000" points="1557.1591,-529.2765 1567.3615,-526.4196 1557.6043,-522.2907 1557.1591,-529.2765"/>
<text text-anchor="middle" x="1293.4158" y="-506.8" font-family="Times,serif" font-size="14.00" fill="#000000">rdf:type</text>
</g>
<!-- Rdsw:Token -->
<g id="node23" class="node">
<title>Rdsw:Token</title>
<ellipse fill="none" stroke="#0000ff" cx="1648.9158" cy="-476" rx="50.0912" ry="18"/>
<text text-anchor="middle" x="1648.9158" y="-472.3" font-family="Times,serif" font-size="14.00" fill="#000000">dsw:Token</text>
</g>
<!-- Rimg:default.jpg&#45;&gt;Rdsw:Token -->
<g id="edge23" class="edge">
<title>Rimg:default.jpg&#45;&gt;Rdsw:Token</title>
<path fill="none" stroke="#000000" d="M1214.7381,-452.4883C1311.9206,-457.7509 1494.677,-467.6476 1589.0847,-472.76"/>
<polygon fill="#000000" stroke="#000000" points="1589.1457,-476.2684 1599.3204,-473.3143 1589.5243,-469.2786 1589.1457,-476.2684"/>
<text text-anchor="middle" x="1293.4158" y="-463.8" font-family="Times,serif" font-size="14.00" fill="#000000">rdf:type</text>
</g>
<!-- Rdwc:HumanObservation -->
<g id="node24" class="node">
<title>Rdwc:HumanObservation</title>
<ellipse fill="none" stroke="#0000ff" cx="1648.9158" cy="-422" rx="96.6831" ry="18"/>
<text text-anchor="middle" x="1648.9158" y="-418.3" font-family="Times,serif" font-size="14.00" fill="#000000">dwc:HumanObservation</text>
</g>
<!-- Rimg:default.jpg&#45;&gt;Rdwc:HumanObservation -->
<g id="edge24" class="edge">
<title>Rimg:default.jpg&#45;&gt;Rdwc:HumanObservation</title>
<path fill="none" stroke="#000000" d="M1206.3779,-439.5275C1216.1983,-438.1425 1226.3372,-436.8867 1235.9158,-436 1339.5722,-426.4046 1458.4058,-423.1888 1541.9104,-422.2035"/>
<polygon fill="#000000" stroke="#000000" points="1541.9542,-425.7033 1551.9153,-422.0941 1541.8776,-418.7037 1541.9542,-425.7033"/>
<text text-anchor="middle" x="1293.4158" y="-439.8" font-family="Times,serif" font-size="14.00" fill="#000000">rdf:type</text>
</g>
<!-- Roa:Source -->
<g id="node25" class="node">
<title>Roa:Source</title>
<ellipse fill="none" stroke="#0000ff" cx="1648.9158" cy="-368" rx="46.2923" ry="18"/>
<text text-anchor="middle" x="1648.9158" y="-364.3" font-family="Times,serif" font-size="14.00" fill="#000000">oa:Source</text>
</g>
<!-- Rimg:default.jpg&#45;&gt;Roa:Source -->
<g id="edge25" class="edge">
<title>Rimg:default.jpg&#45;&gt;Roa:Source</title>
<path fill="none" stroke="#000000" d="M1179.9498,-432.6949C1196.0417,-424.5683 1216.5573,-415.356 1235.9158,-410 1359.8954,-375.6983 1511.7561,-368.8113 1592.3528,-367.7855"/>
<polygon fill="#000000" stroke="#000000" points="1592.8044,-371.2813 1602.7687,-367.6809 1592.734,-364.2816 1592.8044,-371.2813"/>
<text text-anchor="middle" x="1293.4158" y="-413.8" font-family="Times,serif" font-size="14.00" fill="#000000">rdf:type</text>
</g>
<!-- Rfoaf:Image -->
<g id="node26" class="node">
<title>Rfoaf:Image</title>
<ellipse fill="none" stroke="#0000ff" cx="1648.9158" cy="-314" rx="50.0912" ry="18"/>
<text text-anchor="middle" x="1648.9158" y="-310.3" font-family="Times,serif" font-size="14.00" fill="#000000">foaf:Image</text>
</g>
<!-- Rimg:default.jpg&#45;&gt;Rfoaf:Image -->
<g id="edge26" class="edge">
<title>Rimg:default.jpg&#45;&gt;Rfoaf:Image</title>
<path fill="none" stroke="#000000" d="M1164.0032,-431.1277C1179.3866,-412.3586 1206.1399,-383.466 1235.9158,-368 1350.4958,-308.4856 1506.154,-305.7212 1589.8492,-309.4956"/>
<polygon fill="#000000" stroke="#000000" points="1589.7761,-312.9962 1599.938,-309.9983 1590.1246,-306.0048 1589.7761,-312.9962"/>
<text text-anchor="middle" x="1293.4158" y="-371.8" font-family="Times,serif" font-size="14.00" fill="#000000">rdf:type</text>
</g>
</g>
</svg>
