<?xml version="1.0" encoding="UTF-8" standalone="no"?>
<!DOCTYPE svg PUBLIC "-//W3C//DTD SVG 1.1//EN"
 "http://www.w3.org/Graphics/SVG/1.1/DTD/svg11.dtd">
<!-- Generated by graphviz version 2.40.1 (20161225.0304)
 -->
<!-- Title: %3 Pages: 1 -->
<svg width="2205pt" height="1208pt"
 viewBox="0.00 0.00 2205.00 1208.00" xmlns="http://www.w3.org/2000/svg" xmlns:xlink="http://www.w3.org/1999/xlink">
<g id="graph0" class="graph" transform="scale(1 1) rotate(0) translate(4 1204)">
<title>%3</title>
<polygon fill="#ffffff" stroke="transparent" points="-4,4 -4,-1204 2200.9954,-1204 2200.9954,4 -4,4"/>
<text text-anchor="middle" x="1098.4977" y="-248.8" font-family="Times,serif" font-size="14.00" fill="#000000">Model:</text>
<text text-anchor="middle" x="1098.4977" y="-233.8" font-family="Times,serif" font-size="14.00" fill="#000000">(Unknown)</text>
<text text-anchor="middle" x="1098.4977" y="-202.8" font-family="Times,serif" font-size="14.00" fill="#000000">Namespaces:</text>
<text text-anchor="middle" x="1098.4977" y="-187.8" font-family="Times,serif" font-size="14.00" fill="#000000">dcmitype: http://purl.org/dc/dcmitype/</text>
<text text-anchor="middle" x="1098.4977" y="-172.8" font-family="Times,serif" font-size="14.00" fill="#000000">dcterms: http://purl.org/dc/terms/</text>
<text text-anchor="middle" x="1098.4977" y="-157.8" font-family="Times,serif" font-size="14.00" fill="#000000">dsw: http://purl.org/dsw/</text>
<text text-anchor="middle" x="1098.4977" y="-142.8" font-family="Times,serif" font-size="14.00" fill="#000000">dwc: http://rs.tdwg.org/dwc/terms/</text>
<text text-anchor="middle" x="1098.4977" y="-127.8" font-family="Times,serif" font-size="14.00" fill="#000000">dwciri: http://rs.tdwg.org/dwc/iri/</text>
<text text-anchor="middle" x="1098.4977" y="-112.8" font-family="Times,serif" font-size="14.00" fill="#000000">foaf: http://xmlns.com/foaf/0.1/</text>
<text text-anchor="middle" x="1098.4977" y="-97.8" font-family="Times,serif" font-size="14.00" fill="#000000">gn: http://sws.geonames.org/</text>
<text text-anchor="middle" x="1098.4977" y="-82.8" font-family="Times,serif" font-size="14.00" fill="#000000">img: http://localhost:8080/semanticAnnotator/files/</text>
<text text-anchor="middle" x="1098.4977" y="-67.8" font-family="Times,serif" font-size="14.00" fill="#000000">iso: http://iso639&#45;3.sil.org/code/</text>
<text text-anchor="middle" x="1098.4977" y="-52.8" font-family="Times,serif" font-size="14.00" fill="#000000">mf: http://www.w3.org/TR/media&#45;frags/</text>
<text text-anchor="middle" x="1098.4977" y="-37.8" font-family="Times,serif" font-size="14.00" fill="#000000">oa: http://www.w3.org/ns/oa#</text>
<text text-anchor="middle" x="1098.4977" y="-22.8" font-family="Times,serif" font-size="14.00" fill="#000000">orcid: http://orcid.org/</text>
<text text-anchor="middle" x="1098.4977" y="-7.8" font-family="Times,serif" font-size="14.00" fill="#000000">rdf: http://www.w3.org/1999/02/22&#45;rdf&#45;syntax&#45;ns#</text>
<!-- Rhttp://localhost:8080/rdf/nc/annotation/637fe005&#45;664c&#45;4521&#45;8812&#45;b2d2f0a19d35 -->
<g id="node1" class="node">
<title>Rhttp://localhost:8080/rdf/nc/annotation/637fe005&#45;664c&#45;4521&#45;8812&#45;b2d2f0a19d35</title>
<ellipse fill="none" stroke="#0000ff" cx="296.3737" cy="-940" rx="296.2475" ry="18"/>
<text text-anchor="middle" x="296.3737" y="-936.3" font-family="Times,serif" font-size="14.00" fill="#000000">http://localhost:8080/rdf/nc/annotation/637fe005&#45;664c&#45;4521&#45;8812&#45;b2d2f0a19d35</text>
</g>
<!-- Roa:Annotation -->
<g id="node2" class="node">
<title>Roa:Annotation</title>
<ellipse fill="none" stroke="#0000ff" cx="827.2376" cy="-1073" rx="61.1893" ry="18"/>
<text text-anchor="middle" x="827.2376" y="-1069.3" font-family="Times,serif" font-size="14.00" fill="#000000">oa:Annotation</text>
</g>
<!-- Rhttp://localhost:8080/rdf/nc/annotation/637fe005&#45;664c&#45;4521&#45;8812&#45;b2d2f0a19d35&#45;&gt;Roa:Annotation -->
<g id="edge1" class="edge">
<title>Rhttp://localhost:8080/rdf/nc/annotation/637fe005&#45;664c&#45;4521&#45;8812&#45;b2d2f0a19d35&#45;&gt;Roa:Annotation</title>
<path fill="none" stroke="#000000" d="M365.5138,-957.5995C448.7868,-978.7582 592.9301,-1015.2614 716.7474,-1046 734.0498,-1050.2955 752.8901,-1054.9192 770.0317,-1059.1055"/>
<polygon fill="#000000" stroke="#000000" points="769.3589,-1062.544 779.9036,-1061.514 771.0181,-1055.7434 769.3589,-1062.544"/>
<text text-anchor="middle" x="654.7474" y="-1043.8" font-family="Times,serif" font-size="14.00" fill="#000000">rdf:type</text>
</g>
<!-- Rorcid:0000&#45;0002&#45;2146&#45;4803 -->
<g id="node3" class="node">
<title>Rorcid:0000&#45;0002&#45;2146&#45;4803</title>
<ellipse fill="none" stroke="#0000ff" cx="827.2376" cy="-1019" rx="110.4804" ry="18"/>
<text text-anchor="middle" x="827.2376" y="-1015.3" font-family="Times,serif" font-size="14.00" fill="#000000">orcid:0000&#45;0002&#45;2146&#45;4803</text>
</g>
<!-- Rhttp://localhost:8080/rdf/nc/annotation/637fe005&#45;664c&#45;4521&#45;8812&#45;b2d2f0a19d35&#45;&gt;Rorcid:0000&#45;0002&#45;2146&#45;4803 -->
<g id="edge2" class="edge">
<title>Rhttp://localhost:8080/rdf/nc/annotation/637fe005&#45;664c&#45;4521&#45;8812&#45;b2d2f0a19d35&#45;&gt;Rorcid:0000&#45;0002&#45;2146&#45;4803</title>
<path fill="none" stroke="#000000" d="M408.6318,-956.7056C505.8552,-971.1738 644.7606,-991.8449 735.4588,-1005.342"/>
<polygon fill="#000000" stroke="#000000" points="735.0447,-1008.8189 745.451,-1006.829 736.0751,-1001.8951 735.0447,-1008.8189"/>
<text text-anchor="middle" x="654.7474" y="-1000.8" font-family="Times,serif" font-size="14.00" fill="#000000">dcterms:creator</text>
</g>
<!-- L2021&#45;01&#45;12T14:23:11.646Z|Datatype: dcterms:W3CDTF -->
<g id="node4" class="node">
<title>L2021&#45;01&#45;12T14:23:11.646Z|Datatype: dcterms:W3CDTF</title>
<polygon fill="none" stroke="#000000" points="739.7376,-936 739.7376,-982 914.7376,-982 914.7376,-936 739.7376,-936"/>
<text text-anchor="middle" x="827.2376" y="-966.8" font-family="Times,serif" font-size="14.00" fill="#000000">2021&#45;01&#45;12T14:23:11.646Z</text>
<polyline fill="none" stroke="#000000" points="739.7376,-959 914.7376,-959 "/>
<text text-anchor="middle" x="827.2376" y="-943.8" font-family="Times,serif" font-size="14.00" fill="#000000">Datatype: dcterms:W3CDTF</text>
</g>
<!-- Rhttp://localhost:8080/rdf/nc/annotation/637fe005&#45;664c&#45;4521&#45;8812&#45;b2d2f0a19d35&#45;&gt;L2021&#45;01&#45;12T14:23:11.646Z|Datatype: dcterms:W3CDTF -->
<g id="edge3" class="edge">
<title>Rhttp://localhost:8080/rdf/nc/annotation/637fe005&#45;664c&#45;4521&#45;8812&#45;b2d2f0a19d35&#45;&gt;L2021&#45;01&#45;12T14:23:11.646Z|Datatype: dcterms:W3CDTF</title>
<path fill="none" stroke="#000000" d="M552.0872,-949.1522C615.2735,-951.4137 679.1952,-953.7015 729.5039,-955.502"/>
<polygon fill="#000000" stroke="#000000" points="729.5844,-959.0071 739.7032,-955.8671 729.8348,-952.0115 729.5844,-959.0071"/>
<text text-anchor="middle" x="654.7474" y="-956.8" font-family="Times,serif" font-size="14.00" fill="#000000">dcterms:date</text>
</g>
<!-- B_:node1f27eg1asx2 -->
<g id="node5" class="node">
<title>B_:node1f27eg1asx2</title>
<ellipse fill="none" stroke="#00ff00" cx="827.2376" cy="-899" rx="18" ry="18"/>
</g>
<!-- Rhttp://localhost:8080/rdf/nc/annotation/637fe005&#45;664c&#45;4521&#45;8812&#45;b2d2f0a19d35&#45;&gt;B_:node1f27eg1asx2 -->
<g id="edge4" class="edge">
<title>Rhttp://localhost:8080/rdf/nc/annotation/637fe005&#45;664c&#45;4521&#45;8812&#45;b2d2f0a19d35&#45;&gt;B_:node1f27eg1asx2</title>
<path fill="none" stroke="#000000" d="M479.8103,-925.8327C597.7427,-916.7245 739.6217,-905.7668 798.9754,-901.1828"/>
<polygon fill="#000000" stroke="#000000" points="799.3725,-904.6626 809.0733,-900.4029 798.8335,-897.6834 799.3725,-904.6626"/>
<text text-anchor="middle" x="654.7474" y="-917.8" font-family="Times,serif" font-size="14.00" fill="#000000">oa:hasBody</text>
</g>
<!-- B_:node1f27eg1asx1 -->
<g id="node13" class="node">
<title>B_:node1f27eg1asx1</title>
<ellipse fill="none" stroke="#00ff00" cx="827.2376" cy="-695" rx="18" ry="18"/>
</g>
<!-- Rhttp://localhost:8080/rdf/nc/annotation/637fe005&#45;664c&#45;4521&#45;8812&#45;b2d2f0a19d35&#45;&gt;B_:node1f27eg1asx1 -->
<g id="edge14" class="edge">
<title>Rhttp://localhost:8080/rdf/nc/annotation/637fe005&#45;664c&#45;4521&#45;8812&#45;b2d2f0a19d35&#45;&gt;B_:node1f27eg1asx1</title>
<path fill="none" stroke="#000000" d="M335.4094,-921.9846C438.3654,-874.4691 715.2628,-746.6777 801.3405,-706.9518"/>
<polygon fill="#000000" stroke="#000000" points="803.0319,-710.0261 810.6449,-702.6577 800.0986,-703.6703 803.0319,-710.0261"/>
<text text-anchor="middle" x="654.7474" y="-791.8" font-family="Times,serif" font-size="14.00" fill="#000000">oa:hasTarget</text>
</g>
<!-- Roa:describing -->
<g id="node21" class="node">
<title>Roa:describing</title>
<ellipse fill="none" stroke="#0000ff" cx="827.2376" cy="-641" rx="57.6901" ry="18"/>
<text text-anchor="middle" x="827.2376" y="-637.3" font-family="Times,serif" font-size="14.00" fill="#000000">oa:describing</text>
</g>
<!-- Rhttp://localhost:8080/rdf/nc/annotation/637fe005&#45;664c&#45;4521&#45;8812&#45;b2d2f0a19d35&#45;&gt;Roa:describing -->
<g id="edge22" class="edge">
<title>Rhttp://localhost:8080/rdf/nc/annotation/637fe005&#45;664c&#45;4521&#45;8812&#45;b2d2f0a19d35&#45;&gt;Roa:describing</title>
<path fill="none" stroke="#000000" d="M318.5194,-921.7479C378.6408,-873.1065 551.5066,-739.2266 716.7474,-668 732.2901,-661.3004 749.8107,-656.0603 766.2425,-652.0535"/>
<polygon fill="#000000" stroke="#000000" points="767.3568,-655.3879 776.3055,-649.716 765.7729,-648.5695 767.3568,-655.3879"/>
<text text-anchor="middle" x="654.7474" y="-719.8" font-family="Times,serif" font-size="14.00" fill="#000000">oa:motivatedBy</text>
</g>
<!-- Rfoaf:Person -->
<g id="node22" class="node">
<title>Rfoaf:Person</title>
<ellipse fill="none" stroke="#0000ff" cx="1289.3616" cy="-1168" rx="51.1914" ry="18"/>
<text text-anchor="middle" x="1289.3616" y="-1164.3" font-family="Times,serif" font-size="14.00" fill="#000000">foaf:Person</text>
</g>
<!-- Rorcid:0000&#45;0002&#45;2146&#45;4803&#45;&gt;Rfoaf:Person -->
<g id="edge23" class="edge">
<title>Rorcid:0000&#45;0002&#45;2146&#45;4803&#45;&gt;Rfoaf:Person</title>
<path fill="none" stroke="#000000" d="M914.7664,-1030.1246C923.3145,-1034.076 931.2146,-1039.2504 937.7278,-1046 965.1462,-1074.4138 926.4534,-1106.5024 955.7278,-1133 1032.4331,-1202.4295 1163.3379,-1192.355 1236.2857,-1179.6835"/>
<polygon fill="#000000" stroke="#000000" points="1236.9689,-1183.1168 1246.1826,-1177.8863 1235.7181,-1176.2294 1236.9689,-1183.1168"/>
<text text-anchor="middle" x="1022.2278" y="-1188.8" font-family="Times,serif" font-size="14.00" fill="#000000">rdf:type</text>
</g>
<!-- Rdcterms:Location -->
<g id="node6" class="node">
<title>Rdcterms:Location</title>
<ellipse fill="none" stroke="#0000ff" cx="1289.3616" cy="-1114" rx="72.5877" ry="18"/>
<text text-anchor="middle" x="1289.3616" y="-1110.3" font-family="Times,serif" font-size="14.00" fill="#000000">dcterms:Location</text>
</g>
<!-- B_:node1f27eg1asx2&#45;&gt;Rdcterms:Location -->
<g id="edge5" class="edge">
<title>B_:node1f27eg1asx2&#45;&gt;Rdcterms:Location</title>
<path fill="none" stroke="#000000" d="M845.28,-897.8481C870.1341,-897.346 914.4643,-900.5514 937.7278,-927 981.7821,-977.086 908.4007,-1028.9943 955.7278,-1076 989.9447,-1109.9845 1119.2878,-1115.9137 1206.5078,-1115.8562"/>
<polygon fill="#000000" stroke="#000000" points="1206.673,-1119.3557 1216.6613,-1115.8226 1206.6497,-1112.3558 1206.673,-1119.3557"/>
<text text-anchor="middle" x="1022.2278" y="-1114.8" font-family="Times,serif" font-size="14.00" fill="#000000">rdf:type</text>
</g>
<!-- Rdwc:Location -->
<g id="node7" class="node">
<title>Rdwc:Location</title>
<ellipse fill="none" stroke="#0000ff" cx="1289.3616" cy="-1060" rx="59.2899" ry="18"/>
<text text-anchor="middle" x="1289.3616" y="-1056.3" font-family="Times,serif" font-size="14.00" fill="#000000">dwc:Location</text>
</g>
<!-- B_:node1f27eg1asx2&#45;&gt;Rdwc:Location -->
<g id="edge6" class="edge">
<title>B_:node1f27eg1asx2&#45;&gt;Rdwc:Location</title>
<path fill="none" stroke="#000000" d="M845.6109,-898.3174C870.0307,-898.4553 912.9707,-902.5034 937.7278,-927 959.9508,-948.9891 933.4866,-973.0293 955.7278,-995 1026.2968,-1064.7109 1148.0368,-1070.8996 1223.3229,-1066.93"/>
<polygon fill="#000000" stroke="#000000" points="1223.8567,-1070.4043 1233.6277,-1066.308 1223.4349,-1063.417 1223.8567,-1070.4043"/>
<text text-anchor="middle" x="1022.2278" y="-1060.8" font-family="Times,serif" font-size="14.00" fill="#000000">rdf:type</text>
</g>
<!-- Roa:TextualBody -->
<g id="node8" class="node">
<title>Roa:TextualBody</title>
<ellipse fill="none" stroke="#0000ff" cx="1289.3616" cy="-1006" rx="67.6881" ry="18"/>
<text text-anchor="middle" x="1289.3616" y="-1002.3" font-family="Times,serif" font-size="14.00" fill="#000000">oa:TextualBody</text>
</g>
<!-- B_:node1f27eg1asx2&#45;&gt;Roa:TextualBody -->
<g id="edge7" class="edge">
<title>B_:node1f27eg1asx2&#45;&gt;Roa:TextualBody</title>
<path fill="none" stroke="#000000" d="M845.5045,-900.0278C868.6699,-902.0944 909.0446,-908.3112 937.7278,-927 948.6035,-934.0861 944.6497,-943.2347 955.7278,-950 1014.0498,-985.617 1039.3553,-967.5558 1106.7278,-979 1143.6693,-985.275 1184.958,-991.4496 1218.9196,-996.3067"/>
<polygon fill="#000000" stroke="#000000" points="1218.818,-999.8274 1229.2112,-997.7705 1219.8037,-992.8972 1218.818,-999.8274"/>
<text text-anchor="middle" x="1022.2278" y="-979.8" font-family="Times,serif" font-size="14.00" fill="#000000">rdf:type</text>
</g>
<!-- Ltext/plain -->
<g id="node9" class="node">
<title>Ltext/plain</title>
<polygon fill="none" stroke="#000000" points="1255.3616,-933 1255.3616,-969 1323.3616,-969 1323.3616,-933 1255.3616,-933"/>
<text text-anchor="middle" x="1289.3616" y="-947.3" font-family="Times,serif" font-size="14.00" fill="#000000">text/plain</text>
</g>
<!-- B_:node1f27eg1asx2&#45;&gt;Ltext/plain -->
<g id="edge8" class="edge">
<title>B_:node1f27eg1asx2&#45;&gt;Ltext/plain</title>
<path fill="none" stroke="#000000" d="M845.0861,-901.7167C869.8751,-905.4404 916.1468,-912.2125 955.7278,-917 1059.2112,-929.5168 1181.1291,-941.1554 1245.0846,-947.0223"/>
<polygon fill="#000000" stroke="#000000" points="1244.9368,-950.5233 1255.2138,-947.9476 1245.5737,-943.5523 1244.9368,-950.5233"/>
<text text-anchor="middle" x="1022.2278" y="-934.8" font-family="Times,serif" font-size="14.00" fill="#000000">dcterms:format</text>
</g>
<!-- Rgn:1648473 -->
<g id="node10" class="node">
<title>Rgn:1648473</title>
<ellipse fill="none" stroke="#0000ff" cx="1289.3616" cy="-896" rx="52.7911" ry="18"/>
<text text-anchor="middle" x="1289.3616" y="-892.3" font-family="Times,serif" font-size="14.00" fill="#000000">gn:1648473</text>
</g>
<!-- B_:node1f27eg1asx2&#45;&gt;Rgn:1648473 -->
<g id="edge9" class="edge">
<title>B_:node1f27eg1asx2&#45;&gt;Rgn:1648473</title>
<path fill="none" stroke="#000000" d="M845.3534,-898.8824C908.3201,-898.4736 1119.629,-897.1019 1226.4342,-896.4085"/>
<polygon fill="#000000" stroke="#000000" points="1226.4584,-899.9085 1236.4355,-896.3436 1226.4129,-892.9087 1226.4584,-899.9085"/>
<text text-anchor="middle" x="1022.2278" y="-901.8" font-family="Times,serif" font-size="14.00" fill="#000000">dcterms:identifier</text>
</g>
<!-- B_:node1f27eg1asx2&#45;&gt;Rgn:1648473 -->
<g id="edge11" class="edge">
<title>B_:node1f27eg1asx2&#45;&gt;Rgn:1648473</title>
<path fill="none" stroke="#000000" d="M845.0016,-895.1596C869.6926,-890.0368 915.8511,-881.2372 955.7278,-878 1051.6316,-870.2146 1163.3269,-880.0755 1230.0849,-887.9834"/>
<polygon fill="#000000" stroke="#000000" points="1230.0558,-891.5054 1240.404,-889.2328 1230.8973,-884.5561 1230.0558,-891.5054"/>
<text text-anchor="middle" x="1022.2278" y="-881.8" font-family="Times,serif" font-size="14.00" fill="#000000">dwciri:inDescribedPlace</text>
</g>
<!-- Riso:dut -->
<g id="node11" class="node">
<title>Riso:dut</title>
<ellipse fill="none" stroke="#0000ff" cx="1289.3616" cy="-842" rx="34.394" ry="18"/>
<text text-anchor="middle" x="1289.3616" y="-838.3" font-family="Times,serif" font-size="14.00" fill="#000000">iso:dut</text>
</g>
<!-- B_:node1f27eg1asx2&#45;&gt;Riso:dut -->
<g id="edge10" class="edge">
<title>B_:node1f27eg1asx2&#45;&gt;Riso:dut</title>
<path fill="none" stroke="#000000" d="M843.8796,-891.743C867.9986,-881.6186 914.3198,-863.6394 955.7278,-856 1057.7971,-837.1692 1180.2788,-837.8297 1244.7012,-839.9291"/>
<polygon fill="#000000" stroke="#000000" points="1244.7896,-843.4343 1254.907,-840.2899 1245.037,-836.4387 1244.7896,-843.4343"/>
<text text-anchor="middle" x="1022.2278" y="-859.8" font-family="Times,serif" font-size="14.00" fill="#000000">dcterms:language</text>
</g>
<!-- LBuitenzorg|Language: dut -->
<g id="node12" class="node">
<title>LBuitenzorg|Language: dut</title>
<polygon fill="none" stroke="#000000" points="1241.8616,-759 1241.8616,-805 1336.8616,-805 1336.8616,-759 1241.8616,-759"/>
<text text-anchor="middle" x="1289.3616" y="-789.8" font-family="Times,serif" font-size="14.00" fill="#000000">Buitenzorg</text>
<polyline fill="none" stroke="#000000" points="1241.8616,-782 1336.8616,-782 "/>
<text text-anchor="middle" x="1289.3616" y="-766.8" font-family="Times,serif" font-size="14.00" fill="#000000">Language: dut</text>
</g>
<!-- B_:node1f27eg1asx2&#45;&gt;LBuitenzorg|Language: dut -->
<g id="edge12" class="edge">
<title>B_:node1f27eg1asx2&#45;&gt;LBuitenzorg|Language: dut</title>
<path fill="none" stroke="#000000" d="M841.6385,-887.5449C864.3882,-870.132 910.6983,-837.4037 955.7278,-822 1048.7875,-790.1662 1163.9776,-782.9134 1231.7871,-781.6718"/>
<polygon fill="#000000" stroke="#000000" points="1231.898,-785.1706 1241.8461,-781.5256 1231.7962,-778.1714 1231.898,-785.1706"/>
<text text-anchor="middle" x="1022.2278" y="-825.8" font-family="Times,serif" font-size="14.00" fill="#000000">dwc:verbatimLocality</text>
</g>
<!-- B_:node1f27eg1asx2&#45;&gt;LBuitenzorg|Language: dut -->
<g id="edge13" class="edge">
<title>B_:node1f27eg1asx2&#45;&gt;LBuitenzorg|Language: dut</title>
<path fill="none" stroke="#000000" d="M836.9339,-883.6849C855.7713,-855.5556 900.3663,-796.4863 955.7278,-774 1046.4853,-737.1369 1162.8859,-752.4544 1231.4727,-767.1075"/>
<polygon fill="#000000" stroke="#000000" points="1231.1282,-770.6156 1241.6474,-769.3518 1232.636,-763.7799 1231.1282,-770.6156"/>
<text text-anchor="middle" x="1022.2278" y="-777.8" font-family="Times,serif" font-size="14.00" fill="#000000">rdf:value</text>
</g>
<!-- Roa:Target -->
<g id="node14" class="node">
<title>Roa:Target</title>
<ellipse fill="none" stroke="#0000ff" cx="1289.3616" cy="-722" rx="44.393" ry="18"/>
<text text-anchor="middle" x="1289.3616" y="-718.3" font-family="Times,serif" font-size="14.00" fill="#000000">oa:Target</text>
</g>
<!-- B_:node1f27eg1asx1&#45;&gt;Roa:Target -->
<g id="edge15" class="edge">
<title>B_:node1f27eg1asx1&#45;&gt;Roa:Target</title>
<path fill="none" stroke="#000000" d="M845.3534,-696.0584C910.1291,-699.843 1131.8934,-712.7998 1235.3751,-718.8458"/>
<polygon fill="#000000" stroke="#000000" points="1235.42,-722.3543 1245.6072,-719.4436 1235.8284,-715.3662 1235.42,-722.3543"/>
<text text-anchor="middle" x="1022.2278" y="-713.8" font-family="Times,serif" font-size="14.00" fill="#000000">rdf:type</text>
</g>
<!-- Limage/jpeg -->
<g id="node15" class="node">
<title>Limage/jpeg</title>
<polygon fill="none" stroke="#000000" points="1250.8616,-649 1250.8616,-685 1327.8616,-685 1327.8616,-649 1250.8616,-649"/>
<text text-anchor="middle" x="1289.3616" y="-663.3" font-family="Times,serif" font-size="14.00" fill="#000000">image/jpeg</text>
</g>
<!-- B_:node1f27eg1asx1&#45;&gt;Limage/jpeg -->
<g id="edge16" class="edge">
<title>B_:node1f27eg1asx1&#45;&gt;Limage/jpeg</title>
<path fill="none" stroke="#000000" d="M845.5152,-693.0308C870.4125,-690.4084 916.3941,-685.7785 955.7278,-683 1056.8237,-675.8588 1175.3824,-671.0109 1240.4419,-668.6534"/>
<polygon fill="#000000" stroke="#000000" points="1240.9295,-672.1383 1250.7979,-668.2829 1240.6791,-665.1428 1240.9295,-672.1383"/>
<text text-anchor="middle" x="1022.2278" y="-686.8" font-family="Times,serif" font-size="14.00" fill="#000000">dcterms:format</text>
</g>
<!-- B_:node1f27eg1asx4 -->
<g id="node16" class="node">
<title>B_:node1f27eg1asx4</title>
<ellipse fill="none" stroke="#00ff00" cx="1289.3616" cy="-612" rx="18" ry="18"/>
</g>
<!-- B_:node1f27eg1asx1&#45;&gt;B_:node1f27eg1asx4 -->
<g id="edge17" class="edge">
<title>B_:node1f27eg1asx1&#45;&gt;B_:node1f27eg1asx4</title>
<path fill="none" stroke="#000000" d="M845.4664,-692.5377C867.8985,-689.0639 906.8113,-681.5785 937.7278,-668 946.531,-664.1337 946.7279,-659.3831 955.7278,-656 1063.1051,-615.6364 1202.0314,-611.3055 1260.9473,-611.4789"/>
<polygon fill="#000000" stroke="#000000" points="1261.2845,-614.9815 1271.3116,-611.5601 1261.3394,-607.9817 1261.2845,-614.9815"/>
<text text-anchor="middle" x="1022.2278" y="-659.8" font-family="Times,serif" font-size="14.00" fill="#000000">oa:hasSelector</text>
</g>
<!-- Rimg:MMNAT01_AF_NNM001001033_003.jpg -->
<g id="node20" class="node">
<title>Rimg:MMNAT01_AF_NNM001001033_003.jpg</title>
<ellipse fill="none" stroke="#0000ff" cx="1289.3616" cy="-449" rx="182.7677" ry="18"/>
<text text-anchor="middle" x="1289.3616" y="-445.3" font-family="Times,serif" font-size="14.00" fill="#000000">img:MMNAT01_AF_NNM001001033_003.jpg</text>
</g>
<!-- B_:node1f27eg1asx1&#45;&gt;Rimg:MMNAT01_AF_NNM001001033_003.jpg -->
<g id="edge21" class="edge">
<title>B_:node1f27eg1asx1&#45;&gt;Rimg:MMNAT01_AF_NNM001001033_003.jpg</title>
<path fill="none" stroke="#000000" d="M845.5116,-695.7815C869.8187,-695.7882 912.6315,-692.0424 937.7278,-668 958.4474,-648.1504 937.0951,-627.8204 955.7278,-606 1019.7794,-530.9902 1127.5911,-489.3993 1203.2824,-468.1721"/>
<polygon fill="#000000" stroke="#000000" points="1204.5562,-471.4522 1213.2764,-465.4349 1202.7071,-464.7008 1204.5562,-471.4522"/>
<text text-anchor="middle" x="1022.2278" y="-609.8" font-family="Times,serif" font-size="14.00" fill="#000000">oa:hasSource</text>
</g>
<!-- Roa:FragmentSelector -->
<g id="node17" class="node">
<title>Roa:FragmentSelector</title>
<ellipse fill="none" stroke="#0000ff" cx="1909.9954" cy="-694" rx="84.485" ry="18"/>
<text text-anchor="middle" x="1909.9954" y="-690.3" font-family="Times,serif" font-size="14.00" fill="#000000">oa:FragmentSelector</text>
</g>
<!-- B_:node1f27eg1asx4&#45;&gt;Roa:FragmentSelector -->
<g id="edge18" class="edge">
<title>B_:node1f27eg1asx4&#45;&gt;Roa:FragmentSelector</title>
<path fill="none" stroke="#000000" d="M1307.4474,-613.6146C1340.4713,-616.7961 1412.6043,-624.8267 1471.9954,-639 1480.1978,-640.9575 1481.8101,-642.9723 1489.9954,-645 1600.3502,-672.3381 1730.8929,-684.5321 1816.8116,-689.9001"/>
<polygon fill="#000000" stroke="#000000" points="1816.6097,-693.3942 1826.8032,-690.5061 1817.0335,-686.407 1816.6097,-693.3942"/>
<text text-anchor="middle" x="1547.4954" y="-670.8" font-family="Times,serif" font-size="14.00" fill="#000000">rdf:type</text>
</g>
<!-- Rmf: -->
<g id="node18" class="node">
<title>Rmf:</title>
<ellipse fill="none" stroke="#0000ff" cx="1909.9954" cy="-640" rx="27" ry="18"/>
<text text-anchor="middle" x="1909.9954" y="-636.3" font-family="Times,serif" font-size="14.00" fill="#000000">mf:</text>
</g>
<!-- B_:node1f27eg1asx4&#45;&gt;Rmf: -->
<g id="edge19" class="edge">
<title>B_:node1f27eg1asx4&#45;&gt;Rmf:</title>
<path fill="none" stroke="#000000" d="M1307.5999,-612.8228C1393.0313,-616.6771 1754.4284,-632.9816 1872.5034,-638.3085"/>
<polygon fill="#000000" stroke="#000000" points="1872.6869,-641.8203 1882.8345,-638.7746 1873.0025,-634.8274 1872.6869,-641.8203"/>
<text text-anchor="middle" x="1547.4954" y="-629.8" font-family="Times,serif" font-size="14.00" fill="#000000">dcterms:conformsTo</text>
</g>
<!-- Lxywh=0.783509282340829,0.018142248666184174,0.050441826215022134,0.017488954344624445 -->
<g id="node19" class="node">
<title>Lxywh=0.783509282340829,0.018142248666184174,0.050441826215022134,0.017488954344624445</title>
<polygon fill="none" stroke="#000000" points="1622.9954,-567 1622.9954,-603 2196.9954,-603 2196.9954,-567 1622.9954,-567"/>
<text text-anchor="middle" x="1909.9954" y="-581.3" font-family="Times,serif" font-size="14.00" fill="#000000">xywh=0.783509282340829,0.018142248666184174,0.050441826215022134,0.017488954344624445</text>
</g>
<!-- B_:node1f27eg1asx4&#45;&gt;Lxywh=0.783509282340829,0.018142248666184174,0.050441826215022134,0.017488954344624445 -->
<g id="edge20" class="edge">
<title>B_:node1f27eg1asx4&#45;&gt;Lxywh=0.783509282340829,0.018142248666184174,0.050441826215022134,0.017488954344624445</title>
<path fill="none" stroke="#000000" d="M1307.3458,-611.1812C1342.4568,-609.5853 1422.592,-605.9561 1489.9954,-603 1529.6533,-601.2607 1571.4185,-599.448 1612.6054,-597.6715"/>
<polygon fill="#000000" stroke="#000000" points="1612.9401,-601.1604 1622.78,-597.2328 1612.6385,-594.1669 1612.9401,-601.1604"/>
<text text-anchor="middle" x="1547.4954" y="-606.8" font-family="Times,serif" font-size="14.00" fill="#000000">rdf:value</text>
</g>
<!-- Rdcmitype:StillImage -->
<g id="node23" class="node">
<title>Rdcmitype:StillImage</title>
<ellipse fill="none" stroke="#0000ff" cx="1909.9954" cy="-530" rx="83.3857" ry="18"/>
<text text-anchor="middle" x="1909.9954" y="-526.3" font-family="Times,serif" font-size="14.00" fill="#000000">dcmitype:StillImage</text>
</g>
<!-- Rimg:MMNAT01_AF_NNM001001033_003.jpg&#45;&gt;Rdcmitype:StillImage -->
<g id="edge24" class="edge">
<title>Rimg:MMNAT01_AF_NNM001001033_003.jpg&#45;&gt;Rdcmitype:StillImage</title>
<path fill="none" stroke="#000000" d="M1382.7415,-464.4867C1416.5246,-470.0558 1454.9707,-476.3545 1489.9954,-482 1549.0762,-491.523 1563.6204,-495.5271 1622.9954,-503 1689.3942,-511.3569 1764.7337,-518.3503 1821.5568,-523.1244"/>
<polygon fill="#000000" stroke="#000000" points="1821.3297,-526.6175 1831.5859,-523.9602 1821.9111,-519.6417 1821.3297,-526.6175"/>
<text text-anchor="middle" x="1547.4954" y="-504.8" font-family="Times,serif" font-size="14.00" fill="#000000">rdf:type</text>
</g>
<!-- Rdsw:Token -->
<g id="node24" class="node">
<title>Rdsw:Token</title>
<ellipse fill="none" stroke="#0000ff" cx="1909.9954" cy="-476" rx="50.0912" ry="18"/>
<text text-anchor="middle" x="1909.9954" y="-472.3" font-family="Times,serif" font-size="14.00" fill="#000000">dsw:Token</text>
</g>
<!-- Rimg:MMNAT01_AF_NNM001001033_003.jpg&#45;&gt;Rdsw:Token -->
<g id="edge25" class="edge">
<title>Rimg:MMNAT01_AF_NNM001001033_003.jpg&#45;&gt;Rdsw:Token</title>
<path fill="none" stroke="#000000" d="M1456.4965,-456.271C1586.8272,-461.9409 1760.3156,-469.4883 1850.2483,-473.4008"/>
<polygon fill="#000000" stroke="#000000" points="1850.124,-476.8986 1860.2667,-473.8366 1850.4283,-469.9052 1850.124,-476.8986"/>
<text text-anchor="middle" x="1547.4954" y="-466.8" font-family="Times,serif" font-size="14.00" fill="#000000">rdf:type</text>
</g>
<!-- Rdwc:HumanObservation -->
<g id="node25" class="node">
<title>Rdwc:HumanObservation</title>
<ellipse fill="none" stroke="#0000ff" cx="1909.9954" cy="-422" rx="96.6831" ry="18"/>
<text text-anchor="middle" x="1909.9954" y="-418.3" font-family="Times,serif" font-size="14.00" fill="#000000">dwc:HumanObservation</text>
</g>
<!-- Rimg:MMNAT01_AF_NNM001001033_003.jpg&#45;&gt;Rdwc:HumanObservation -->
<g id="edge26" class="edge">
<title>Rimg:MMNAT01_AF_NNM001001033_003.jpg&#45;&gt;Rdwc:HumanObservation</title>
<path fill="none" stroke="#000000" d="M1451.9635,-440.7666C1464.8311,-440.1544 1477.6272,-439.5585 1489.9954,-439 1597.1785,-434.1598 1719.7785,-429.272 1804.7347,-425.9877"/>
<polygon fill="#000000" stroke="#000000" points="1805.0475,-429.4784 1814.9051,-425.5953 1804.7775,-422.4836 1805.0475,-429.4784"/>
<text text-anchor="middle" x="1547.4954" y="-442.8" font-family="Times,serif" font-size="14.00" fill="#000000">rdf:type</text>
</g>
<!-- Roa:Source -->
<g id="node26" class="node">
<title>Roa:Source</title>
<ellipse fill="none" stroke="#0000ff" cx="1909.9954" cy="-368" rx="46.2923" ry="18"/>
<text text-anchor="middle" x="1909.9954" y="-364.3" font-family="Times,serif" font-size="14.00" fill="#000000">oa:Source</text>
</g>
<!-- Rimg:MMNAT01_AF_NNM001001033_003.jpg&#45;&gt;Roa:Source -->
<g id="edge27" class="edge">
<title>Rimg:MMNAT01_AF_NNM001001033_003.jpg&#45;&gt;Roa:Source</title>
<path fill="none" stroke="#000000" d="M1382.7415,-433.5133C1416.5246,-427.9442 1454.9707,-421.6455 1489.9954,-416 1549.0762,-406.477 1563.6204,-402.4729 1622.9954,-395 1703.3297,-384.8892 1796.7515,-376.7743 1854.6337,-372.1708"/>
<polygon fill="#000000" stroke="#000000" points="1854.9709,-375.6552 1864.6648,-371.3799 1854.4206,-368.6768 1854.9709,-375.6552"/>
<text text-anchor="middle" x="1547.4954" y="-419.8" font-family="Times,serif" font-size="14.00" fill="#000000">rdf:type</text>
</g>
<!-- Rfoaf:Image -->
<g id="node27" class="node">
<title>Rfoaf:Image</title>
<ellipse fill="none" stroke="#0000ff" cx="1909.9954" cy="-314" rx="50.0912" ry="18"/>
<text text-anchor="middle" x="1909.9954" y="-310.3" font-family="Times,serif" font-size="14.00" fill="#000000">foaf:Image</text>
</g>
<!-- Rimg:MMNAT01_AF_NNM001001033_003.jpg&#45;&gt;Rfoaf:Image -->
<g id="edge28" class="edge">
<title>Rimg:MMNAT01_AF_NNM001001033_003.jpg&#45;&gt;Rfoaf:Image</title>
<path fill="none" stroke="#000000" d="M1336.9387,-431.5357C1377.4297,-416.881 1437.2455,-395.7226 1489.9954,-379 1548.5976,-360.4221 1562.5798,-352.3718 1622.9954,-341 1700.5943,-326.3938 1791.5579,-319.5358 1849.9369,-316.4235"/>
<polygon fill="#000000" stroke="#000000" points="1850.2826,-319.9105 1860.09,-315.9025 1849.9238,-312.9197 1850.2826,-319.9105"/>
<text text-anchor="middle" x="1547.4954" y="-382.8" font-family="Times,serif" font-size="14.00" fill="#000000">rdf:type</text>
</g>
</g>
</svg>
