<?xml version="1.0" encoding="UTF-8" standalone="no"?>
<!DOCTYPE svg PUBLIC "-//W3C//DTD SVG 1.1//EN"
 "http://www.w3.org/Graphics/SVG/1.1/DTD/svg11.dtd">
<!-- Generated by graphviz version 2.40.1 (20161225.0304)
 -->
<!-- Title: %3 Pages: 1 -->
<svg width="2036pt" height="1010pt"
 viewBox="0.00 0.00 2035.51 1009.50" xmlns="http://www.w3.org/2000/svg" xmlns:xlink="http://www.w3.org/1999/xlink">
<g id="graph0" class="graph" transform="scale(1 1) rotate(0) translate(4 1005.5)">
<title>%3</title>
<polygon fill="#ffffff" stroke="transparent" points="-4,4 -4,-1005.5 2031.5098,-1005.5 2031.5098,4 -4,4"/>
<text text-anchor="middle" x="1013.7549" y="-248.8" font-family="Times,serif" font-size="14.00" fill="#000000">Model:</text>
<text text-anchor="middle" x="1013.7549" y="-233.8" font-family="Times,serif" font-size="14.00" fill="#000000">(Unknown)</text>
<text text-anchor="middle" x="1013.7549" y="-202.8" font-family="Times,serif" font-size="14.00" fill="#000000">Namespaces:</text>
<text text-anchor="middle" x="1013.7549" y="-187.8" font-family="Times,serif" font-size="14.00" fill="#000000">dcmitype: http://purl.org/dc/dcmitype/</text>
<text text-anchor="middle" x="1013.7549" y="-172.8" font-family="Times,serif" font-size="14.00" fill="#000000">dcterms: http://purl.org/dc/terms/</text>
<text text-anchor="middle" x="1013.7549" y="-157.8" font-family="Times,serif" font-size="14.00" fill="#000000">dsw: http://purl.org/dsw/</text>
<text text-anchor="middle" x="1013.7549" y="-142.8" font-family="Times,serif" font-size="14.00" fill="#000000">dwc: http://rs.tdwg.org/dwc/terms/</text>
<text text-anchor="middle" x="1013.7549" y="-127.8" font-family="Times,serif" font-size="14.00" fill="#000000">dwciri: http://rs.tdwg.org/dwc/iri/</text>
<text text-anchor="middle" x="1013.7549" y="-112.8" font-family="Times,serif" font-size="14.00" fill="#000000">foaf: http://xmlns.com/foaf/0.1/</text>
<text text-anchor="middle" x="1013.7549" y="-97.8" font-family="Times,serif" font-size="14.00" fill="#000000">img: http://localhost:8182/iiif/2/900c341c1c10fff7:MMNAT01_PM_NNM001001033_003/full/max/0/</text>
<text text-anchor="middle" x="1013.7549" y="-82.8" font-family="Times,serif" font-size="14.00" fill="#000000">iso: http://iso639&#45;3.sil.org/code/</text>
<text text-anchor="middle" x="1013.7549" y="-67.8" font-family="Times,serif" font-size="14.00" fill="#000000">mf: http://www.w3.org/TR/media&#45;frags/</text>
<text text-anchor="middle" x="1013.7549" y="-52.8" font-family="Times,serif" font-size="14.00" fill="#000000">oa: http://www.w3.org/ns/oa#</text>
<text text-anchor="middle" x="1013.7549" y="-37.8" font-family="Times,serif" font-size="14.00" fill="#000000">obo: http://purl.obolibrary.org/obo/</text>
<text text-anchor="middle" x="1013.7549" y="-22.8" font-family="Times,serif" font-size="14.00" fill="#000000">orcid: http://orcid.org/</text>
<text text-anchor="middle" x="1013.7549" y="-7.8" font-family="Times,serif" font-size="14.00" fill="#000000">rdf: http://www.w3.org/1999/02/22&#45;rdf&#45;syntax&#45;ns#</text>
<!-- Rhttp://localhost:8080/rdf/nc/annotation/432dfd1d&#45;c57a&#45;4e28&#45;90e4&#45;96b2a1726326 -->
<g id="node1" class="node">
<title>Rhttp://localhost:8080/rdf/nc/annotation/432dfd1d&#45;c57a&#45;4e28&#45;90e4&#45;96b2a1726326</title>
<ellipse fill="none" stroke="#0000ff" cx="297.0236" cy="-762.5" rx="297.0473" ry="18"/>
<text text-anchor="middle" x="297.0236" y="-758.8" font-family="Times,serif" font-size="14.00" fill="#000000">http://localhost:8080/rdf/nc/annotation/432dfd1d&#45;c57a&#45;4e28&#45;90e4&#45;96b2a1726326</text>
</g>
<!-- Roa:Annotation -->
<g id="node2" class="node">
<title>Roa:Annotation</title>
<ellipse fill="none" stroke="#0000ff" cx="828.5375" cy="-895.5" rx="61.1893" ry="18"/>
<text text-anchor="middle" x="828.5375" y="-891.8" font-family="Times,serif" font-size="14.00" fill="#000000">oa:Annotation</text>
</g>
<!-- Rhttp://localhost:8080/rdf/nc/annotation/432dfd1d&#45;c57a&#45;4e28&#45;90e4&#45;96b2a1726326&#45;&gt;Roa:Annotation -->
<g id="edge1" class="edge">
<title>Rhttp://localhost:8080/rdf/nc/annotation/432dfd1d&#45;c57a&#45;4e28&#45;90e4&#45;96b2a1726326&#45;&gt;Roa:Annotation</title>
<path fill="none" stroke="#000000" d="M366.2726,-780.0919C449.6763,-801.2434 594.0443,-837.7394 718.0473,-868.5 735.3505,-872.7923 754.191,-877.4151 771.3325,-881.6015"/>
<polygon fill="#000000" stroke="#000000" points="770.6597,-885.04 781.2044,-884.0102 772.3191,-878.2395 770.6597,-885.04"/>
<text text-anchor="middle" x="656.0473" y="-866.3" font-family="Times,serif" font-size="14.00" fill="#000000">rdf:type</text>
</g>
<!-- Rorcid:0000&#45;0002&#45;2146&#45;4803 -->
<g id="node3" class="node">
<title>Rorcid:0000&#45;0002&#45;2146&#45;4803</title>
<ellipse fill="none" stroke="#0000ff" cx="828.5375" cy="-841.5" rx="110.4804" ry="18"/>
<text text-anchor="middle" x="828.5375" y="-837.8" font-family="Times,serif" font-size="14.00" fill="#000000">orcid:0000&#45;0002&#45;2146&#45;4803</text>
</g>
<!-- Rhttp://localhost:8080/rdf/nc/annotation/432dfd1d&#45;c57a&#45;4e28&#45;90e4&#45;96b2a1726326&#45;&gt;Rorcid:0000&#45;0002&#45;2146&#45;4803 -->
<g id="edge2" class="edge">
<title>Rhttp://localhost:8080/rdf/nc/annotation/432dfd1d&#45;c57a&#45;4e28&#45;90e4&#45;96b2a1726326&#45;&gt;Rorcid:0000&#45;0002&#45;2146&#45;4803</title>
<path fill="none" stroke="#000000" d="M409.4192,-779.2056C506.7616,-793.6738 645.8371,-814.3449 736.6464,-827.842"/>
<polygon fill="#000000" stroke="#000000" points="736.2448,-831.3207 746.6507,-829.329 737.274,-824.3968 736.2448,-831.3207"/>
<text text-anchor="middle" x="656.0473" y="-823.3" font-family="Times,serif" font-size="14.00" fill="#000000">dcterms:creator</text>
</g>
<!-- L2021&#45;01&#45;12T14:23:11.646Z|Datatype: dcterms:W3CDTF -->
<g id="node4" class="node">
<title>L2021&#45;01&#45;12T14:23:11.646Z|Datatype: dcterms:W3CDTF</title>
<polygon fill="none" stroke="#000000" points="741.0375,-758.5 741.0375,-804.5 916.0375,-804.5 916.0375,-758.5 741.0375,-758.5"/>
<text text-anchor="middle" x="828.5375" y="-789.3" font-family="Times,serif" font-size="14.00" fill="#000000">2021&#45;01&#45;12T14:23:11.646Z</text>
<polyline fill="none" stroke="#000000" points="741.0375,-781.5 916.0375,-781.5 "/>
<text text-anchor="middle" x="828.5375" y="-766.3" font-family="Times,serif" font-size="14.00" fill="#000000">Datatype: dcterms:W3CDTF</text>
</g>
<!-- Rhttp://localhost:8080/rdf/nc/annotation/432dfd1d&#45;c57a&#45;4e28&#45;90e4&#45;96b2a1726326&#45;&gt;L2021&#45;01&#45;12T14:23:11.646Z|Datatype: dcterms:W3CDTF -->
<g id="edge3" class="edge">
<title>Rhttp://localhost:8080/rdf/nc/annotation/432dfd1d&#45;c57a&#45;4e28&#45;90e4&#45;96b2a1726326&#45;&gt;L2021&#45;01&#45;12T14:23:11.646Z|Datatype: dcterms:W3CDTF</title>
<path fill="none" stroke="#000000" d="M553.0502,-771.6522C616.3139,-773.9137 680.3138,-776.2015 730.6841,-778.002"/>
<polygon fill="#000000" stroke="#000000" points="730.7772,-781.5075 740.8959,-778.3671 731.0274,-774.512 730.7772,-781.5075"/>
<text text-anchor="middle" x="656.0473" y="-780.3" font-family="Times,serif" font-size="14.00" fill="#000000">dcterms:date</text>
</g>
<!-- B_:node1f0gq2gelx75 -->
<g id="node5" class="node">
<title>B_:node1f0gq2gelx75</title>
<ellipse fill="none" stroke="#00ff00" cx="828.5375" cy="-721.5" rx="18" ry="18"/>
</g>
<!-- Rhttp://localhost:8080/rdf/nc/annotation/432dfd1d&#45;c57a&#45;4e28&#45;90e4&#45;96b2a1726326&#45;&gt;B_:node1f0gq2gelx75 -->
<g id="edge4" class="edge">
<title>Rhttp://localhost:8080/rdf/nc/annotation/432dfd1d&#45;c57a&#45;4e28&#45;90e4&#45;96b2a1726326&#45;&gt;B_:node1f0gq2gelx75</title>
<path fill="none" stroke="#000000" d="M480.6848,-748.3327C598.7616,-739.2245 740.8143,-728.2668 800.2407,-723.6828"/>
<polygon fill="#000000" stroke="#000000" points="800.6498,-727.1617 810.351,-722.9029 800.1114,-720.1824 800.6498,-727.1617"/>
<text text-anchor="middle" x="656.0473" y="-741.3" font-family="Times,serif" font-size="14.00" fill="#000000">oa:hasBody</text>
</g>
<!-- B_:node1f0gq2gelx74 -->
<g id="node14" class="node">
<title>B_:node1f0gq2gelx74</title>
<ellipse fill="none" stroke="#00ff00" cx="828.5375" cy="-496.5" rx="18" ry="18"/>
</g>
<!-- Rhttp://localhost:8080/rdf/nc/annotation/432dfd1d&#45;c57a&#45;4e28&#45;90e4&#45;96b2a1726326&#45;&gt;B_:node1f0gq2gelx74 -->
<g id="edge14" class="edge">
<title>Rhttp://localhost:8080/rdf/nc/annotation/432dfd1d&#45;c57a&#45;4e28&#45;90e4&#45;96b2a1726326&#45;&gt;B_:node1f0gq2gelx74</title>
<path fill="none" stroke="#000000" d="M333.1389,-744.4259C433.9303,-693.9841 716.5438,-552.5481 803.0511,-509.2548"/>
<polygon fill="#000000" stroke="#000000" points="804.7813,-512.3029 812.1575,-504.6975 801.6485,-506.043 804.7813,-512.3029"/>
<text text-anchor="middle" x="656.0473" y="-602.3" font-family="Times,serif" font-size="14.00" fill="#000000">oa:hasTarget</text>
</g>
<!-- Roa:describing -->
<g id="node21" class="node">
<title>Roa:describing</title>
<ellipse fill="none" stroke="#0000ff" cx="828.5375" cy="-442.5" rx="57.6901" ry="18"/>
<text text-anchor="middle" x="828.5375" y="-438.8" font-family="Times,serif" font-size="14.00" fill="#000000">oa:describing</text>
</g>
<!-- Rhttp://localhost:8080/rdf/nc/annotation/432dfd1d&#45;c57a&#45;4e28&#45;90e4&#45;96b2a1726326&#45;&gt;Roa:describing -->
<g id="edge22" class="edge">
<title>Rhttp://localhost:8080/rdf/nc/annotation/432dfd1d&#45;c57a&#45;4e28&#45;90e4&#45;96b2a1726326&#45;&gt;Roa:describing</title>
<path fill="none" stroke="#000000" d="M317.2315,-744.2381C375.1328,-692.8954 548.3951,-546.042 718.0473,-469.5 733.4004,-462.5731 750.7887,-457.2648 767.1515,-453.2654"/>
<polygon fill="#000000" stroke="#000000" points="768.228,-456.6087 777.1797,-450.9416 766.6477,-449.7894 768.228,-456.6087"/>
<text text-anchor="middle" x="656.0473" y="-525.3" font-family="Times,serif" font-size="14.00" fill="#000000">oa:motivatedBy</text>
</g>
<!-- Rfoaf:Person -->
<g id="node22" class="node">
<title>Rfoaf:Person</title>
<ellipse fill="none" stroke="#0000ff" cx="1215.7687" cy="-975.5" rx="51.1914" ry="18"/>
<text text-anchor="middle" x="1215.7687" y="-971.8" font-family="Times,serif" font-size="14.00" fill="#000000">foaf:Person</text>
</g>
<!-- Rorcid:0000&#45;0002&#45;2146&#45;4803&#45;&gt;Rfoaf:Person -->
<g id="edge23" class="edge">
<title>Rorcid:0000&#45;0002&#45;2146&#45;4803&#45;&gt;Rfoaf:Person</title>
<path fill="none" stroke="#000000" d="M915.5222,-852.77C924.2232,-856.6885 932.3076,-861.8155 939.0277,-868.5 962.4133,-891.7618 932.4512,-918.5001 957.0277,-940.5 1011.829,-989.5561 1101.1054,-990.4872 1159.1397,-984.5913"/>
<polygon fill="#000000" stroke="#000000" points="1159.6907,-988.0516 1169.2409,-983.4644 1158.9145,-981.0948 1159.6907,-988.0516"/>
<text text-anchor="middle" x="1027.0277" y="-990.3" font-family="Times,serif" font-size="14.00" fill="#000000">rdf:type</text>
</g>
<!-- Rdsw:Token -->
<g id="node6" class="node">
<title>Rdsw:Token</title>
<ellipse fill="none" stroke="#0000ff" cx="1747.5098" cy="-694.5" rx="50.0912" ry="18"/>
<text text-anchor="middle" x="1747.5098" y="-690.8" font-family="Times,serif" font-size="14.00" fill="#000000">dsw:Token</text>
</g>
<!-- B_:node1f0gq2gelx75&#45;&gt;Rdsw:Token -->
<g id="edge5" class="edge">
<title>B_:node1f0gq2gelx75&#45;&gt;Rdsw:Token</title>
<path fill="none" stroke="#000000" d="M846.6265,-720.2479C891.8467,-717.1704 1013.4723,-709.2176 1115.0277,-705.5 1324.954,-697.8153 1574.2767,-695.4733 1686.9253,-694.7802"/>
<polygon fill="#000000" stroke="#000000" points="1687.0915,-698.2794 1697.0706,-694.72 1687.0499,-691.2795 1687.0915,-698.2794"/>
<text text-anchor="middle" x="1215.7687" y="-709.3" font-family="Times,serif" font-size="14.00" fill="#000000">rdf:type</text>
</g>
<!-- Rdwc:MeasurementOrFact -->
<g id="node7" class="node">
<title>Rdwc:MeasurementOrFact</title>
<ellipse fill="none" stroke="#0000ff" cx="1215.7687" cy="-747.5" rx="100.9827" ry="18"/>
<text text-anchor="middle" x="1215.7687" y="-743.8" font-family="Times,serif" font-size="14.00" fill="#000000">dwc:MeasurementOrFact</text>
</g>
<!-- B_:node1f0gq2gelx75&#45;&gt;Rdwc:MeasurementOrFact -->
<g id="edge6" class="edge">
<title>B_:node1f0gq2gelx75&#45;&gt;Rdwc:MeasurementOrFact</title>
<path fill="none" stroke="#000000" d="M846.6951,-722.7192C893.1747,-725.84 1019.2567,-734.3055 1111.1518,-740.4757"/>
<polygon fill="#000000" stroke="#000000" points="1111.1243,-743.9816 1121.3364,-741.1595 1111.5934,-736.9973 1111.1243,-743.9816"/>
<text text-anchor="middle" x="1027.0277" y="-743.3" font-family="Times,serif" font-size="14.00" fill="#000000">rdf:type</text>
</g>
<!-- Roa:TextualBody -->
<g id="node8" class="node">
<title>Roa:TextualBody</title>
<ellipse fill="none" stroke="#0000ff" cx="1215.7687" cy="-642.5" rx="67.6881" ry="18"/>
<text text-anchor="middle" x="1215.7687" y="-638.8" font-family="Times,serif" font-size="14.00" fill="#000000">oa:TextualBody</text>
</g>
<!-- B_:node1f0gq2gelx75&#45;&gt;Roa:TextualBody -->
<g id="edge7" class="edge">
<title>B_:node1f0gq2gelx75&#45;&gt;Roa:TextualBody</title>
<path fill="none" stroke="#000000" d="M844.6206,-712.8646C868.4287,-700.5219 914.7954,-678.1528 957.0277,-667.5 1016.615,-652.4696 1086.019,-646.3556 1137.9367,-643.9252"/>
<polygon fill="#000000" stroke="#000000" points="1138.2396,-647.4154 1148.079,-643.4866 1137.9371,-640.422 1138.2396,-647.4154"/>
<text text-anchor="middle" x="1027.0277" y="-671.3" font-family="Times,serif" font-size="14.00" fill="#000000">rdf:type</text>
</g>
<!-- Ltext/plain -->
<g id="node9" class="node">
<title>Ltext/plain</title>
<polygon fill="none" stroke="#000000" points="1181.7687,-569.5 1181.7687,-605.5 1249.7687,-605.5 1249.7687,-569.5 1181.7687,-569.5"/>
<text text-anchor="middle" x="1215.7687" y="-583.8" font-family="Times,serif" font-size="14.00" fill="#000000">text/plain</text>
</g>
<!-- B_:node1f0gq2gelx75&#45;&gt;Ltext/plain -->
<g id="edge8" class="edge">
<title>B_:node1f0gq2gelx75&#45;&gt;Ltext/plain</title>
<path fill="none" stroke="#000000" d="M841.4501,-708.6696C863.2219,-687.8755 909.5275,-647.1637 957.0277,-627.5 1028.2923,-597.9985 1118.7629,-590.0323 1171.6676,-588.0141"/>
<polygon fill="#000000" stroke="#000000" points="1171.8506,-591.5101 1181.7308,-587.6852 1171.6218,-584.5139 1171.8506,-591.5101"/>
<text text-anchor="middle" x="1027.0277" y="-631.3" font-family="Times,serif" font-size="14.00" fill="#000000">dcterms:format</text>
</g>
<!-- Robo:UBERON_0001062 -->
<g id="node10" class="node">
<title>Robo:UBERON_0001062</title>
<ellipse fill="none" stroke="#0000ff" cx="1215.7687" cy="-921.5" rx="97.4827" ry="18"/>
<text text-anchor="middle" x="1215.7687" y="-917.8" font-family="Times,serif" font-size="14.00" fill="#000000">obo:UBERON_0001062</text>
</g>
<!-- B_:node1f0gq2gelx75&#45;&gt;Robo:UBERON_0001062 -->
<g id="edge9" class="edge">
<title>B_:node1f0gq2gelx75&#45;&gt;Robo:UBERON_0001062</title>
<path fill="none" stroke="#000000" d="M846.5681,-720.1642C871.4082,-719.4128 915.722,-722.1882 939.0277,-748.5 983.8408,-799.0934 908.4357,-852.5243 957.0277,-899.5 968.2228,-910.3227 1042.6935,-915.8714 1108.8822,-918.6865"/>
<polygon fill="#000000" stroke="#000000" points="1108.8661,-922.1887 1119.0004,-919.0988 1109.1512,-915.1945 1108.8661,-922.1887"/>
<text text-anchor="middle" x="1027.0277" y="-921.3" font-family="Times,serif" font-size="14.00" fill="#000000">dcterms:identifier</text>
</g>
<!-- B_:node1f0gq2gelx75&#45;&gt;Robo:UBERON_0001062 -->
<g id="edge12" class="edge">
<title>B_:node1f0gq2gelx75&#45;&gt;Robo:UBERON_0001062</title>
<path fill="none" stroke="#000000" d="M846.8429,-720.2835C871.5908,-719.7291 915.343,-722.7966 939.0277,-748.5 973.4892,-785.8988 920.655,-825.9571 957.0277,-861.5 979.4829,-883.4429 1068.085,-868.3325 1097.0277,-880.5 1106.3705,-884.4277 1105.9528,-889.9875 1115.0277,-894.5 1123.1241,-898.526 1131.8952,-902.0087 1140.7697,-905.0069"/>
<polygon fill="#000000" stroke="#000000" points="1139.8225,-908.3784 1150.4129,-908.0729 1141.9435,-901.7074 1139.8225,-908.3784"/>
<text text-anchor="middle" x="1027.0277" y="-884.3" font-family="Times,serif" font-size="14.00" fill="#000000">dwciri:measurementType</text>
</g>
<!-- Riso:lat -->
<g id="node11" class="node">
<title>Riso:lat</title>
<ellipse fill="none" stroke="#0000ff" cx="1215.7687" cy="-867.5" rx="32.4942" ry="18"/>
<text text-anchor="middle" x="1215.7687" y="-863.8" font-family="Times,serif" font-size="14.00" fill="#000000">iso:lat</text>
</g>
<!-- B_:node1f0gq2gelx75&#45;&gt;Riso:lat -->
<g id="edge10" class="edge">
<title>B_:node1f0gq2gelx75&#45;&gt;Riso:lat</title>
<path fill="none" stroke="#000000" d="M846.8265,-720.7029C871.1506,-720.6784 913.9826,-724.4042 939.0277,-748.5 960.0128,-768.6897 935.7767,-791.5904 957.0277,-811.5 965.0097,-818.9782 1104.2256,-846.3062 1175.0638,-859.8234"/>
<polygon fill="#000000" stroke="#000000" points="1174.5174,-863.2822 1184.9955,-861.7135 1175.8262,-856.4056 1174.5174,-863.2822"/>
<text text-anchor="middle" x="1027.0277" y="-846.3" font-family="Times,serif" font-size="14.00" fill="#000000">dcterms:language</text>
</g>
<!-- Rimg:default.jpg -->
<g id="node12" class="node">
<title>Rimg:default.jpg</title>
<ellipse fill="none" stroke="#0000ff" cx="1215.7687" cy="-532.5" rx="65.7887" ry="18"/>
<text text-anchor="middle" x="1215.7687" y="-528.8" font-family="Times,serif" font-size="14.00" fill="#000000">img:default.jpg</text>
</g>
<!-- B_:node1f0gq2gelx75&#45;&gt;Rimg:default.jpg -->
<g id="edge11" class="edge">
<title>B_:node1f0gq2gelx75&#45;&gt;Rimg:default.jpg</title>
<path fill="none" stroke="#000000" d="M837.4195,-705.5529C855.4992,-674.7481 899.7597,-607.3002 957.0277,-575.5 1013.1279,-544.3483 1085.8665,-534.4629 1139.9273,-531.8704"/>
<polygon fill="#000000" stroke="#000000" points="1140.2876,-535.3588 1150.1375,-531.4563 1140.0039,-528.3645 1140.2876,-535.3588"/>
<text text-anchor="middle" x="1027.0277" y="-579.3" font-family="Times,serif" font-size="14.00" fill="#000000">dsw:derivedFrom</text>
</g>
<!-- LDentibus|Language: lat -->
<g id="node13" class="node">
<title>LDentibus|Language: lat</title>
<polygon fill="none" stroke="#000000" points="1170.2687,-784.5 1170.2687,-830.5 1261.2687,-830.5 1261.2687,-784.5 1170.2687,-784.5"/>
<text text-anchor="middle" x="1215.7687" y="-815.3" font-family="Times,serif" font-size="14.00" fill="#000000">Dentibus</text>
<polyline fill="none" stroke="#000000" points="1170.2687,-807.5 1261.2687,-807.5 "/>
<text text-anchor="middle" x="1215.7687" y="-792.3" font-family="Times,serif" font-size="14.00" fill="#000000">Language: lat</text>
</g>
<!-- B_:node1f0gq2gelx75&#45;&gt;LDentibus|Language: lat -->
<g id="edge13" class="edge">
<title>B_:node1f0gq2gelx75&#45;&gt;LDentibus|Language: lat</title>
<path fill="none" stroke="#000000" d="M846.5931,-724.3795C868.8506,-728.2738 907.5873,-736.1829 939.0277,-748.5 947.5488,-751.8382 948.4219,-755.3866 957.0277,-758.5 1024.6788,-782.9748 1106.9231,-795.875 1160.2594,-802.1826"/>
<polygon fill="#000000" stroke="#000000" points="1159.8666,-805.6604 1170.2,-803.3214 1160.6633,-798.7059 1159.8666,-805.6604"/>
<text text-anchor="middle" x="1027.0277" y="-796.3" font-family="Times,serif" font-size="14.00" fill="#000000">rdf:value</text>
</g>
<!-- Rimg:default.jpg&#45;&gt;Rdsw:Token -->
<g id="edge25" class="edge">
<title>Rimg:default.jpg&#45;&gt;Rdsw:Token</title>
<path fill="none" stroke="#000000" d="M1278.0492,-538.276C1292.2836,-542.3308 1306.2289,-548.9133 1316.5098,-559.5 1340.6928,-584.4022 1309.9209,-610.9985 1334.5098,-635.5 1359.175,-660.0774 1579.8166,-681.0219 1688.0984,-689.9237"/>
<polygon fill="#000000" stroke="#000000" points="1687.9652,-693.4244 1698.2162,-690.7473 1688.5332,-686.4474 1687.9652,-693.4244"/>
<text text-anchor="middle" x="1392.0098" y="-668.3" font-family="Times,serif" font-size="14.00" fill="#000000">rdf:type</text>
</g>
<!-- Rdcmitype:StillImage -->
<g id="node23" class="node">
<title>Rdcmitype:StillImage</title>
<ellipse fill="none" stroke="#0000ff" cx="1747.5098" cy="-639.5" rx="83.3857" ry="18"/>
<text text-anchor="middle" x="1747.5098" y="-635.8" font-family="Times,serif" font-size="14.00" fill="#000000">dcmitype:StillImage</text>
</g>
<!-- Rimg:default.jpg&#45;&gt;Rdcmitype:StillImage -->
<g id="edge24" class="edge">
<title>Rimg:default.jpg&#45;&gt;Rdcmitype:StillImage</title>
<path fill="none" stroke="#000000" d="M1273.7629,-541.0775C1288.5518,-545.0749 1303.8351,-550.9293 1316.5098,-559.5 1327.5549,-566.9688 1323.2916,-576.2938 1334.5098,-583.5 1386.0407,-616.6017 1550.0226,-630.4128 1655.1967,-635.9711"/>
<polygon fill="#000000" stroke="#000000" points="1655.0192,-639.4665 1665.1855,-636.4836 1655.378,-632.4757 1655.0192,-639.4665"/>
<text text-anchor="middle" x="1392.0098" y="-620.3" font-family="Times,serif" font-size="14.00" fill="#000000">rdf:type</text>
</g>
<!-- Rdwc:HumanObservation -->
<g id="node24" class="node">
<title>Rdwc:HumanObservation</title>
<ellipse fill="none" stroke="#0000ff" cx="1747.5098" cy="-585.5" rx="96.6831" ry="18"/>
<text text-anchor="middle" x="1747.5098" y="-581.8" font-family="Times,serif" font-size="14.00" fill="#000000">dwc:HumanObservation</text>
</g>
<!-- Rimg:default.jpg&#45;&gt;Rdwc:HumanObservation -->
<g id="edge26" class="edge">
<title>Rimg:default.jpg&#45;&gt;Rdwc:HumanObservation</title>
<path fill="none" stroke="#000000" d="M1271.2206,-542.274C1291.1317,-545.5447 1313.7839,-548.9924 1334.5098,-551.5 1440.0332,-564.2671 1561.3157,-573.6223 1645.0201,-579.2514"/>
<polygon fill="#000000" stroke="#000000" points="1644.8274,-582.7462 1655.0381,-579.9193 1645.2932,-575.7617 1644.8274,-582.7462"/>
<text text-anchor="middle" x="1392.0098" y="-568.3" font-family="Times,serif" font-size="14.00" fill="#000000">rdf:type</text>
</g>
<!-- Roa:Source -->
<g id="node25" class="node">
<title>Roa:Source</title>
<ellipse fill="none" stroke="#0000ff" cx="1747.5098" cy="-531.5" rx="46.2923" ry="18"/>
<text text-anchor="middle" x="1747.5098" y="-527.8" font-family="Times,serif" font-size="14.00" fill="#000000">oa:Source</text>
</g>
<!-- Rimg:default.jpg&#45;&gt;Roa:Source -->
<g id="edge27" class="edge">
<title>Rimg:default.jpg&#45;&gt;Roa:Source</title>
<path fill="none" stroke="#000000" d="M1281.504,-532.3764C1386.8389,-532.1783 1591.6543,-531.7931 1690.8959,-531.6065"/>
<polygon fill="#000000" stroke="#000000" points="1691.0331,-535.1063 1701.0265,-531.5874 1691.0199,-528.1063 1691.0331,-535.1063"/>
<text text-anchor="middle" x="1392.0098" y="-536.3" font-family="Times,serif" font-size="14.00" fill="#000000">rdf:type</text>
</g>
<!-- Rfoaf:Image -->
<g id="node26" class="node">
<title>Rfoaf:Image</title>
<ellipse fill="none" stroke="#0000ff" cx="1747.5098" cy="-477.5" rx="50.0912" ry="18"/>
<text text-anchor="middle" x="1747.5098" y="-473.8" font-family="Times,serif" font-size="14.00" fill="#000000">foaf:Image</text>
</g>
<!-- Rimg:default.jpg&#45;&gt;Rfoaf:Image -->
<g id="edge28" class="edge">
<title>Rimg:default.jpg&#45;&gt;Rfoaf:Image</title>
<path fill="none" stroke="#000000" d="M1271.2274,-522.7815C1291.1391,-519.516 1313.79,-516.0574 1334.5098,-513.5 1459.783,-498.0377 1607.2415,-486.8655 1687.6967,-481.3621"/>
<polygon fill="#000000" stroke="#000000" points="1688.38,-484.8239 1698.1202,-480.6552 1687.9063,-477.8399 1688.38,-484.8239"/>
<text text-anchor="middle" x="1392.0098" y="-517.3" font-family="Times,serif" font-size="14.00" fill="#000000">rdf:type</text>
</g>
<!-- B_:node1f0gq2gelx74&#45;&gt;Rimg:default.jpg -->
<g id="edge21" class="edge">
<title>B_:node1f0gq2gelx74&#45;&gt;Rimg:default.jpg</title>
<path fill="none" stroke="#000000" d="M846.8016,-497.484C890.2433,-499.9066 1003.1204,-506.6843 1097.0277,-516.5 1113.4749,-518.2191 1131.1582,-520.4136 1147.7237,-522.6223"/>
<polygon fill="#000000" stroke="#000000" points="1147.4935,-526.123 1157.8725,-523.9953 1148.432,-519.1861 1147.4935,-526.123"/>
<text text-anchor="middle" x="1027.0277" y="-520.3" font-family="Times,serif" font-size="14.00" fill="#000000">oa:hasSource</text>
</g>
<!-- Roa:Target -->
<g id="node15" class="node">
<title>Roa:Target</title>
<ellipse fill="none" stroke="#0000ff" cx="1215.7687" cy="-368.5" rx="44.393" ry="18"/>
<text text-anchor="middle" x="1215.7687" y="-364.8" font-family="Times,serif" font-size="14.00" fill="#000000">oa:Target</text>
</g>
<!-- B_:node1f0gq2gelx74&#45;&gt;Roa:Target -->
<g id="edge15" class="edge">
<title>B_:node1f0gq2gelx74&#45;&gt;Roa:Target</title>
<path fill="none" stroke="#000000" d="M846.8115,-497.2815C871.1186,-497.2882 913.9314,-493.5424 939.0277,-469.5 959.7473,-449.6504 935.4355,-426.3967 957.0277,-407.5 1014.1081,-357.5453 1106.8021,-356.1645 1164.3689,-361.2453"/>
<polygon fill="#000000" stroke="#000000" points="1164.0495,-364.7307 1174.3428,-362.2212 1164.7312,-357.7639 1164.0495,-364.7307"/>
<text text-anchor="middle" x="1027.0277" y="-411.3" font-family="Times,serif" font-size="14.00" fill="#000000">rdf:type</text>
</g>
<!-- Limage/jpeg -->
<g id="node16" class="node">
<title>Limage/jpeg</title>
<polygon fill="none" stroke="#000000" points="1177.2687,-459.5 1177.2687,-495.5 1254.2687,-495.5 1254.2687,-459.5 1177.2687,-459.5"/>
<text text-anchor="middle" x="1215.7687" y="-473.8" font-family="Times,serif" font-size="14.00" fill="#000000">image/jpeg</text>
</g>
<!-- B_:node1f0gq2gelx74&#45;&gt;Limage/jpeg -->
<g id="edge16" class="edge">
<title>B_:node1f0gq2gelx74&#45;&gt;Limage/jpeg</title>
<path fill="none" stroke="#000000" d="M846.3327,-493.2295C871.0598,-488.8633 917.2601,-481.3492 957.0277,-478.5 1029.9649,-473.2743 1114.7636,-474.2901 1166.8472,-475.7227"/>
<polygon fill="#000000" stroke="#000000" points="1167.0336,-479.2295 1177.1315,-476.0228 1167.2379,-472.2325 1167.0336,-479.2295"/>
<text text-anchor="middle" x="1027.0277" y="-482.3" font-family="Times,serif" font-size="14.00" fill="#000000">dcterms:format</text>
</g>
<!-- B_:node1f0gq2gelx77 -->
<g id="node17" class="node">
<title>B_:node1f0gq2gelx77</title>
<ellipse fill="none" stroke="#00ff00" cx="1215.7687" cy="-422.5" rx="18" ry="18"/>
</g>
<!-- B_:node1f0gq2gelx74&#45;&gt;B_:node1f0gq2gelx77 -->
<g id="edge17" class="edge">
<title>B_:node1f0gq2gelx74&#45;&gt;B_:node1f0gq2gelx77</title>
<path fill="none" stroke="#000000" d="M846.4589,-494.2857C868.9146,-491.0321 908.1918,-483.7383 939.0277,-469.5 947.987,-465.3631 947.8563,-460.1427 957.0277,-456.5 1036.2988,-425.0153 1138.9079,-421.4506 1187.6591,-421.7685"/>
<polygon fill="#000000" stroke="#000000" points="1187.719,-425.2695 1197.7627,-421.8969 1187.808,-418.2701 1187.719,-425.2695"/>
<text text-anchor="middle" x="1027.0277" y="-460.3" font-family="Times,serif" font-size="14.00" fill="#000000">oa:hasSelector</text>
</g>
<!-- Roa:FragmentSelector -->
<g id="node18" class="node">
<title>Roa:FragmentSelector</title>
<ellipse fill="none" stroke="#0000ff" cx="1747.5098" cy="-423.5" rx="84.485" ry="18"/>
<text text-anchor="middle" x="1747.5098" y="-419.8" font-family="Times,serif" font-size="14.00" fill="#000000">oa:FragmentSelector</text>
</g>
<!-- B_:node1f0gq2gelx77&#45;&gt;Roa:FragmentSelector -->
<g id="edge18" class="edge">
<title>B_:node1f0gq2gelx77&#45;&gt;Roa:FragmentSelector</title>
<path fill="none" stroke="#000000" d="M1234.0725,-422.5344C1299.2379,-422.657 1522.9637,-423.0777 1652.5807,-423.3215"/>
<polygon fill="#000000" stroke="#000000" points="1652.8926,-426.822 1662.8992,-423.3409 1652.9058,-419.822 1652.8926,-426.822"/>
<text text-anchor="middle" x="1392.0098" y="-427.3" font-family="Times,serif" font-size="14.00" fill="#000000">rdf:type</text>
</g>
<!-- Rmf: -->
<g id="node19" class="node">
<title>Rmf:</title>
<ellipse fill="none" stroke="#0000ff" cx="1747.5098" cy="-369.5" rx="27" ry="18"/>
<text text-anchor="middle" x="1747.5098" y="-365.8" font-family="Times,serif" font-size="14.00" fill="#000000">mf:</text>
</g>
<!-- B_:node1f0gq2gelx77&#45;&gt;Rmf: -->
<g id="edge19" class="edge">
<title>B_:node1f0gq2gelx77&#45;&gt;Rmf:</title>
<path fill="none" stroke="#000000" d="M1233.8238,-419.384C1257.0546,-415.4621 1298.6875,-408.7284 1334.5098,-404.5 1472.7782,-388.1791 1637.959,-376.5357 1710.3883,-371.8224"/>
<polygon fill="#000000" stroke="#000000" points="1710.6334,-375.3139 1720.3873,-371.1775 1710.1828,-368.3284 1710.6334,-375.3139"/>
<text text-anchor="middle" x="1392.0098" y="-408.3" font-family="Times,serif" font-size="14.00" fill="#000000">dcterms:conformsTo</text>
</g>
<!-- Lxywh=0.5366845889070635,0.2939686187699841,0.04048369061255663,0.028409607447408114 -->
<g id="node20" class="node">
<title>Lxywh=0.5366845889070635,0.2939686187699841,0.04048369061255663,0.028409607447408114</title>
<polygon fill="none" stroke="#000000" points="1467.5098,-296.5 1467.5098,-332.5 2027.5098,-332.5 2027.5098,-296.5 1467.5098,-296.5"/>
<text text-anchor="middle" x="1747.5098" y="-310.8" font-family="Times,serif" font-size="14.00" fill="#000000">xywh=0.5366845889070635,0.2939686187699841,0.04048369061255663,0.028409607447408114</text>
</g>
<!-- B_:node1f0gq2gelx77&#45;&gt;Lxywh=0.5366845889070635,0.2939686187699841,0.04048369061255663,0.028409607447408114 -->
<g id="edge20" class="edge">
<title>B_:node1f0gq2gelx77&#45;&gt;Lxywh=0.5366845889070635,0.2939686187699841,0.04048369061255663,0.028409607447408114</title>
<path fill="none" stroke="#000000" d="M1233.7937,-420.9146C1255.0064,-418.3504 1290.6159,-411.807 1316.5098,-395.5 1326.9117,-388.9493 1324.0244,-380.9163 1334.5098,-374.5 1371.7125,-351.7347 1414.2553,-336.3581 1457.5698,-326.1542"/>
<polygon fill="#000000" stroke="#000000" points="1458.4283,-329.5485 1467.4087,-323.9268 1456.8827,-322.7212 1458.4283,-329.5485"/>
<text text-anchor="middle" x="1392.0098" y="-378.3" font-family="Times,serif" font-size="14.00" fill="#000000">rdf:value</text>
</g>
</g>
</svg>
