<?xml version="1.0" encoding="UTF-8" standalone="no"?>
<!DOCTYPE svg PUBLIC "-//W3C//DTD SVG 1.1//EN"
 "http://www.w3.org/Graphics/SVG/1.1/DTD/svg11.dtd">
<!-- Generated by graphviz version 2.40.1 (20161225.0304)
 -->
<!-- Title: %3 Pages: 1 -->
<svg width="2002pt" height="1126pt"
 viewBox="0.00 0.00 2002.03 1126.00" xmlns="http://www.w3.org/2000/svg" xmlns:xlink="http://www.w3.org/1999/xlink">
<g id="graph0" class="graph" transform="scale(1 1) rotate(0) translate(4 1122)">
<title>%3</title>
<polygon fill="#ffffff" stroke="transparent" points="-4,4 -4,-1122 1998.0277,-1122 1998.0277,4 -4,4"/>
<text text-anchor="middle" x="997.0138" y="-218.8" font-family="Times,serif" font-size="14.00" fill="#000000">Model:</text>
<text text-anchor="middle" x="997.0138" y="-203.8" font-family="Times,serif" font-size="14.00" fill="#000000">(Unknown)</text>
<text text-anchor="middle" x="997.0138" y="-172.8" font-family="Times,serif" font-size="14.00" fill="#000000">Namespaces:</text>
<text text-anchor="middle" x="997.0138" y="-157.8" font-family="Times,serif" font-size="14.00" fill="#000000">dcmitype: http://purl.org/dc/dcmitype/</text>
<text text-anchor="middle" x="997.0138" y="-142.8" font-family="Times,serif" font-size="14.00" fill="#000000">dcterms: http://purl.org/dc/terms/</text>
<text text-anchor="middle" x="997.0138" y="-127.8" font-family="Times,serif" font-size="14.00" fill="#000000">dsw: http://purl.org/dsw/</text>
<text text-anchor="middle" x="997.0138" y="-112.8" font-family="Times,serif" font-size="14.00" fill="#000000">dwc: http://rs.tdwg.org/dwc/terms/</text>
<text text-anchor="middle" x="997.0138" y="-97.8" font-family="Times,serif" font-size="14.00" fill="#000000">foaf: http://xmlns.com/foaf/0.1/</text>
<text text-anchor="middle" x="997.0138" y="-82.8" font-family="Times,serif" font-size="14.00" fill="#000000">img: http://localhost:8182/iiif/2/900c341c1c10fff7:MMNAT01_PM_NNM001001033_004/full/max/0/</text>
<text text-anchor="middle" x="997.0138" y="-67.8" font-family="Times,serif" font-size="14.00" fill="#000000">iso: http://iso639&#45;3.sil.org/code/</text>
<text text-anchor="middle" x="997.0138" y="-52.8" font-family="Times,serif" font-size="14.00" fill="#000000">mf: http://www.w3.org/TR/media&#45;frags/</text>
<text text-anchor="middle" x="997.0138" y="-37.8" font-family="Times,serif" font-size="14.00" fill="#000000">oa: http://www.w3.org/ns/oa#</text>
<text text-anchor="middle" x="997.0138" y="-22.8" font-family="Times,serif" font-size="14.00" fill="#000000">orcid: http://orcid.org/</text>
<text text-anchor="middle" x="997.0138" y="-7.8" font-family="Times,serif" font-size="14.00" fill="#000000">rdf: http://www.w3.org/1999/02/22&#45;rdf&#45;syntax&#45;ns#</text>
<!-- Rhttp://localhost:8080/rdf/nc/annotation/a57222f1&#45;1962&#45;4ac8&#45;b00d&#45;97e30324deb3 -->
<g id="node1" class="node">
<title>Rhttp://localhost:8080/rdf/nc/annotation/a57222f1&#45;1962&#45;4ac8&#45;b00d&#45;97e30324deb3</title>
<ellipse fill="none" stroke="#0000ff" cx="297.0236" cy="-893" rx="297.0473" ry="18"/>
<text text-anchor="middle" x="297.0236" y="-889.3" font-family="Times,serif" font-size="14.00" fill="#000000">http://localhost:8080/rdf/nc/annotation/a57222f1&#45;1962&#45;4ac8&#45;b00d&#45;97e30324deb3</text>
</g>
<!-- Roa:Annotation -->
<g id="node2" class="node">
<title>Roa:Annotation</title>
<ellipse fill="none" stroke="#0000ff" cx="828.5375" cy="-1026" rx="61.1893" ry="18"/>
<text text-anchor="middle" x="828.5375" y="-1022.3" font-family="Times,serif" font-size="14.00" fill="#000000">oa:Annotation</text>
</g>
<!-- Rhttp://localhost:8080/rdf/nc/annotation/a57222f1&#45;1962&#45;4ac8&#45;b00d&#45;97e30324deb3&#45;&gt;Roa:Annotation -->
<g id="edge1" class="edge">
<title>Rhttp://localhost:8080/rdf/nc/annotation/a57222f1&#45;1962&#45;4ac8&#45;b00d&#45;97e30324deb3&#45;&gt;Roa:Annotation</title>
<path fill="none" stroke="#000000" d="M366.2726,-910.5919C449.6763,-931.7434 594.0443,-968.2394 718.0473,-999 735.3505,-1003.2923 754.191,-1007.9151 771.3325,-1012.1015"/>
<polygon fill="#000000" stroke="#000000" points="770.6597,-1015.54 781.2044,-1014.5102 772.3191,-1008.7395 770.6597,-1015.54"/>
<text text-anchor="middle" x="656.0473" y="-996.8" font-family="Times,serif" font-size="14.00" fill="#000000">rdf:type</text>
</g>
<!-- Rorcid:0000&#45;0002&#45;2146&#45;4803 -->
<g id="node3" class="node">
<title>Rorcid:0000&#45;0002&#45;2146&#45;4803</title>
<ellipse fill="none" stroke="#0000ff" cx="828.5375" cy="-972" rx="110.4804" ry="18"/>
<text text-anchor="middle" x="828.5375" y="-968.3" font-family="Times,serif" font-size="14.00" fill="#000000">orcid:0000&#45;0002&#45;2146&#45;4803</text>
</g>
<!-- Rhttp://localhost:8080/rdf/nc/annotation/a57222f1&#45;1962&#45;4ac8&#45;b00d&#45;97e30324deb3&#45;&gt;Rorcid:0000&#45;0002&#45;2146&#45;4803 -->
<g id="edge2" class="edge">
<title>Rhttp://localhost:8080/rdf/nc/annotation/a57222f1&#45;1962&#45;4ac8&#45;b00d&#45;97e30324deb3&#45;&gt;Rorcid:0000&#45;0002&#45;2146&#45;4803</title>
<path fill="none" stroke="#000000" d="M409.4192,-909.7056C506.7616,-924.1738 645.8371,-944.8449 736.6464,-958.342"/>
<polygon fill="#000000" stroke="#000000" points="736.2448,-961.8207 746.6507,-959.829 737.274,-954.8968 736.2448,-961.8207"/>
<text text-anchor="middle" x="656.0473" y="-953.8" font-family="Times,serif" font-size="14.00" fill="#000000">dcterms:creator</text>
</g>
<!-- L2021&#45;01&#45;12T14:23:11.646Z|Datatype: dcterms:W3CDTF -->
<g id="node4" class="node">
<title>L2021&#45;01&#45;12T14:23:11.646Z|Datatype: dcterms:W3CDTF</title>
<polygon fill="none" stroke="#000000" points="741.0375,-889 741.0375,-935 916.0375,-935 916.0375,-889 741.0375,-889"/>
<text text-anchor="middle" x="828.5375" y="-919.8" font-family="Times,serif" font-size="14.00" fill="#000000">2021&#45;01&#45;12T14:23:11.646Z</text>
<polyline fill="none" stroke="#000000" points="741.0375,-912 916.0375,-912 "/>
<text text-anchor="middle" x="828.5375" y="-896.8" font-family="Times,serif" font-size="14.00" fill="#000000">Datatype: dcterms:W3CDTF</text>
</g>
<!-- Rhttp://localhost:8080/rdf/nc/annotation/a57222f1&#45;1962&#45;4ac8&#45;b00d&#45;97e30324deb3&#45;&gt;L2021&#45;01&#45;12T14:23:11.646Z|Datatype: dcterms:W3CDTF -->
<g id="edge3" class="edge">
<title>Rhttp://localhost:8080/rdf/nc/annotation/a57222f1&#45;1962&#45;4ac8&#45;b00d&#45;97e30324deb3&#45;&gt;L2021&#45;01&#45;12T14:23:11.646Z|Datatype: dcterms:W3CDTF</title>
<path fill="none" stroke="#000000" d="M553.0502,-902.1522C616.3139,-904.4137 680.3138,-906.7015 730.6841,-908.502"/>
<polygon fill="#000000" stroke="#000000" points="730.7772,-912.0075 740.8959,-908.8671 731.0274,-905.012 730.7772,-912.0075"/>
<text text-anchor="middle" x="656.0473" y="-909.8" font-family="Times,serif" font-size="14.00" fill="#000000">dcterms:date</text>
</g>
<!-- B_:node1f0gq2gelx81 -->
<g id="node5" class="node">
<title>B_:node1f0gq2gelx81</title>
<ellipse fill="none" stroke="#00ff00" cx="828.5375" cy="-852" rx="18" ry="18"/>
</g>
<!-- Rhttp://localhost:8080/rdf/nc/annotation/a57222f1&#45;1962&#45;4ac8&#45;b00d&#45;97e30324deb3&#45;&gt;B_:node1f0gq2gelx81 -->
<g id="edge4" class="edge">
<title>Rhttp://localhost:8080/rdf/nc/annotation/a57222f1&#45;1962&#45;4ac8&#45;b00d&#45;97e30324deb3&#45;&gt;B_:node1f0gq2gelx81</title>
<path fill="none" stroke="#000000" d="M480.6848,-878.8327C598.7616,-869.7245 740.8143,-858.7668 800.2407,-854.1828"/>
<polygon fill="#000000" stroke="#000000" points="800.6498,-857.6617 810.351,-853.4029 800.1114,-850.6824 800.6498,-857.6617"/>
<text text-anchor="middle" x="656.0473" y="-870.8" font-family="Times,serif" font-size="14.00" fill="#000000">oa:hasBody</text>
</g>
<!-- B_:node1f0gq2gelx80 -->
<g id="node12" class="node">
<title>B_:node1f0gq2gelx80</title>
<ellipse fill="none" stroke="#00ff00" cx="828.5375" cy="-665" rx="18" ry="18"/>
</g>
<!-- Rhttp://localhost:8080/rdf/nc/annotation/a57222f1&#45;1962&#45;4ac8&#45;b00d&#45;97e30324deb3&#45;&gt;B_:node1f0gq2gelx80 -->
<g id="edge12" class="edge">
<title>Rhttp://localhost:8080/rdf/nc/annotation/a57222f1&#45;1962&#45;4ac8&#45;b00d&#45;97e30324deb3&#45;&gt;B_:node1f0gq2gelx80</title>
<path fill="none" stroke="#000000" d="M338.7306,-875.1092C443.7212,-830.0721 716.661,-712.9909 802.3804,-676.2204"/>
<polygon fill="#000000" stroke="#000000" points="803.8494,-679.3988 811.6598,-672.2399 801.0898,-672.9657 803.8494,-679.3988"/>
<text text-anchor="middle" x="656.0473" y="-754.8" font-family="Times,serif" font-size="14.00" fill="#000000">oa:hasTarget</text>
</g>
<!-- Roa:describing -->
<g id="node20" class="node">
<title>Roa:describing</title>
<ellipse fill="none" stroke="#0000ff" cx="828.5375" cy="-611" rx="57.6901" ry="18"/>
<text text-anchor="middle" x="828.5375" y="-607.3" font-family="Times,serif" font-size="14.00" fill="#000000">oa:describing</text>
</g>
<!-- Rhttp://localhost:8080/rdf/nc/annotation/a57222f1&#45;1962&#45;4ac8&#45;b00d&#45;97e30324deb3&#45;&gt;Roa:describing -->
<g id="edge20" class="edge">
<title>Rhttp://localhost:8080/rdf/nc/annotation/a57222f1&#45;1962&#45;4ac8&#45;b00d&#45;97e30324deb3&#45;&gt;Roa:describing</title>
<path fill="none" stroke="#000000" d="M320.7655,-874.9804C382.7214,-828.7946 555.7645,-705.1101 718.0473,-638 733.7634,-631.5008 751.4104,-626.3187 767.9103,-622.303"/>
<polygon fill="#000000" stroke="#000000" points="769.0623,-625.6285 778.0081,-619.9521 767.475,-618.8109 769.0623,-625.6285"/>
<text text-anchor="middle" x="656.0473" y="-686.8" font-family="Times,serif" font-size="14.00" fill="#000000">oa:motivatedBy</text>
</g>
<!-- Rfoaf:Person -->
<g id="node21" class="node">
<title>Rfoaf:Person</title>
<ellipse fill="none" stroke="#0000ff" cx="1195.5277" cy="-1095" rx="51.1914" ry="18"/>
<text text-anchor="middle" x="1195.5277" y="-1091.3" font-family="Times,serif" font-size="14.00" fill="#000000">foaf:Person</text>
</g>
<!-- Rorcid:0000&#45;0002&#45;2146&#45;4803&#45;&gt;Rfoaf:Person -->
<g id="edge21" class="edge">
<title>Rorcid:0000&#45;0002&#45;2146&#45;4803&#45;&gt;Rfoaf:Person</title>
<path fill="none" stroke="#000000" d="M914.6998,-983.3118C923.6567,-987.2108 932.026,-992.3217 939.0277,-999 959.4821,-1018.5097 935.6796,-1041.4724 957.0277,-1060 1006.466,-1102.9066 1084.53,-1106.4471 1137.7813,-1102.7092"/>
<polygon fill="#000000" stroke="#000000" points="1138.0678,-1106.1976 1147.7538,-1101.9044 1137.5047,-1099.2203 1138.0678,-1106.1976"/>
<text text-anchor="middle" x="1023.5277" y="-1106.8" font-family="Times,serif" font-size="14.00" fill="#000000">rdf:type</text>
</g>
<!-- Rdwc:Event -->
<g id="node6" class="node">
<title>Rdwc:Event</title>
<ellipse fill="none" stroke="#0000ff" cx="1195.5277" cy="-1041" rx="48.1917" ry="18"/>
<text text-anchor="middle" x="1195.5277" y="-1037.3" font-family="Times,serif" font-size="14.00" fill="#000000">dwc:Event</text>
</g>
<!-- B_:node1f0gq2gelx81&#45;&gt;Rdwc:Event -->
<g id="edge5" class="edge">
<title>B_:node1f0gq2gelx81&#45;&gt;Rdwc:Event</title>
<path fill="none" stroke="#000000" d="M846.9196,-850.912C871.7563,-850.5384 915.6112,-853.9522 939.0277,-880 976.8463,-922.0684 917.104,-965.9238 957.0277,-1006 981.5786,-1030.6447 1074.8218,-1038.0411 1137.1869,-1040.1981"/>
<polygon fill="#000000" stroke="#000000" points="1137.1946,-1043.6999 1147.2983,-1040.5117 1137.4116,-1036.7033 1137.1946,-1043.6999"/>
<text text-anchor="middle" x="1023.5277" y="-1040.8" font-family="Times,serif" font-size="14.00" fill="#000000">rdf:type</text>
</g>
<!-- Roa:TextualBody -->
<g id="node7" class="node">
<title>Roa:TextualBody</title>
<ellipse fill="none" stroke="#0000ff" cx="1195.5277" cy="-987" rx="67.6881" ry="18"/>
<text text-anchor="middle" x="1195.5277" y="-983.3" font-family="Times,serif" font-size="14.00" fill="#000000">oa:TextualBody</text>
</g>
<!-- B_:node1f0gq2gelx81&#45;&gt;Roa:TextualBody -->
<g id="edge6" class="edge">
<title>B_:node1f0gq2gelx81&#45;&gt;Roa:TextualBody</title>
<path fill="none" stroke="#000000" d="M846.7259,-851.5092C870.9361,-851.8645 913.6394,-856.1582 939.0277,-880 958.0849,-897.8964 937.638,-918.4644 957.0277,-936 1000.5275,-975.3405 1066.7781,-987.0395 1118.4244,-989.4919"/>
<polygon fill="#000000" stroke="#000000" points="1118.4259,-992.9942 1128.5479,-989.8645 1118.6834,-985.9989 1118.4259,-992.9942"/>
<text text-anchor="middle" x="1023.5277" y="-990.8" font-family="Times,serif" font-size="14.00" fill="#000000">rdf:type</text>
</g>
<!-- Ltext/plain -->
<g id="node8" class="node">
<title>Ltext/plain</title>
<polygon fill="none" stroke="#000000" points="1161.5277,-914 1161.5277,-950 1229.5277,-950 1229.5277,-914 1161.5277,-914"/>
<text text-anchor="middle" x="1195.5277" y="-928.3" font-family="Times,serif" font-size="14.00" fill="#000000">text/plain</text>
</g>
<!-- B_:node1f0gq2gelx81&#45;&gt;Ltext/plain -->
<g id="edge7" class="edge">
<title>B_:node1f0gq2gelx81&#45;&gt;Ltext/plain</title>
<path fill="none" stroke="#000000" d="M846.4154,-855.5502C868.4939,-860.1572 907.0502,-868.9322 939.0277,-880 947.3007,-882.8634 948.665,-885.4101 957.0277,-888 1023.1638,-908.4822 1102.7384,-920.8055 1151.2015,-927.0007"/>
<polygon fill="#000000" stroke="#000000" points="1150.993,-930.5017 1161.3493,-928.2662 1151.8594,-923.5555 1150.993,-930.5017"/>
<text text-anchor="middle" x="1023.5277" y="-920.8" font-family="Times,serif" font-size="14.00" fill="#000000">dcterms:format</text>
</g>
<!-- Riso:ger -->
<g id="node9" class="node">
<title>Riso:ger</title>
<ellipse fill="none" stroke="#0000ff" cx="1195.5277" cy="-877" rx="34.394" ry="18"/>
<text text-anchor="middle" x="1195.5277" y="-873.3" font-family="Times,serif" font-size="14.00" fill="#000000">iso:ger</text>
</g>
<!-- B_:node1f0gq2gelx81&#45;&gt;Riso:ger -->
<g id="edge8" class="edge">
<title>B_:node1f0gq2gelx81&#45;&gt;Riso:ger</title>
<path fill="none" stroke="#000000" d="M846.7366,-853.2398C902.1723,-857.0161 1070.0792,-868.4542 1150.9944,-873.9663"/>
<polygon fill="#000000" stroke="#000000" points="1151.1342,-877.4839 1161.349,-874.6717 1151.6101,-870.5001 1151.1342,-877.4839"/>
<text text-anchor="middle" x="1023.5277" y="-872.8" font-family="Times,serif" font-size="14.00" fill="#000000">dcterms:language</text>
</g>
<!-- L1821&#45;04&#45;10|Datatype: dcterms:W3CDTF -->
<g id="node10" class="node">
<title>L1821&#45;04&#45;10|Datatype: dcterms:W3CDTF</title>
<polygon fill="none" stroke="#000000" points="1108.0277,-794 1108.0277,-840 1283.0277,-840 1283.0277,-794 1108.0277,-794"/>
<text text-anchor="middle" x="1195.5277" y="-824.8" font-family="Times,serif" font-size="14.00" fill="#000000">1821&#45;04&#45;10</text>
<polyline fill="none" stroke="#000000" points="1108.0277,-817 1283.0277,-817 "/>
<text text-anchor="middle" x="1195.5277" y="-801.8" font-family="Times,serif" font-size="14.00" fill="#000000">Datatype: dcterms:W3CDTF</text>
</g>
<!-- B_:node1f0gq2gelx81&#45;&gt;L1821&#45;04&#45;10|Datatype: dcterms:W3CDTF -->
<g id="edge9" class="edge">
<title>B_:node1f0gq2gelx81&#45;&gt;L1821&#45;04&#45;10|Datatype: dcterms:W3CDTF</title>
<path fill="none" stroke="#000000" d="M846.4866,-850.2882C891.3367,-846.0108 1010.9153,-834.6066 1097.6279,-826.3367"/>
<polygon fill="#000000" stroke="#000000" points="1098.144,-829.8035 1107.7665,-825.3698 1097.4794,-822.8351 1098.144,-829.8035"/>
<text text-anchor="middle" x="1023.5277" y="-842.8" font-family="Times,serif" font-size="14.00" fill="#000000">dwc:eventDate</text>
</g>
<!-- L10 April 1821|Language: ger -->
<g id="node11" class="node">
<title>L10 April 1821|Language: ger</title>
<polygon fill="none" stroke="#000000" points="1148.0277,-729 1148.0277,-775 1243.0277,-775 1243.0277,-729 1148.0277,-729"/>
<text text-anchor="middle" x="1195.5277" y="-759.8" font-family="Times,serif" font-size="14.00" fill="#000000">10 April 1821</text>
<polyline fill="none" stroke="#000000" points="1148.0277,-752 1243.0277,-752 "/>
<text text-anchor="middle" x="1195.5277" y="-736.8" font-family="Times,serif" font-size="14.00" fill="#000000">Language: ger</text>
</g>
<!-- B_:node1f0gq2gelx81&#45;&gt;L10 April 1821|Language: ger -->
<g id="edge10" class="edge">
<title>B_:node1f0gq2gelx81&#45;&gt;L10 April 1821|Language: ger</title>
<path fill="none" stroke="#000000" d="M845.4098,-845.6214C869.8089,-836.5352 916.4682,-819.6751 957.0277,-808 1018.0813,-790.4257 1089.0874,-774.2943 1137.6447,-763.9054"/>
<polygon fill="#000000" stroke="#000000" points="1138.6005,-767.2805 1147.6539,-761.7772 1137.1446,-760.4336 1138.6005,-767.2805"/>
<text text-anchor="middle" x="1023.5277" y="-811.8" font-family="Times,serif" font-size="14.00" fill="#000000">dwc:verbatimEventDate</text>
</g>
<!-- B_:node1f0gq2gelx81&#45;&gt;L10 April 1821|Language: ger -->
<g id="edge11" class="edge">
<title>B_:node1f0gq2gelx81&#45;&gt;L10 April 1821|Language: ger</title>
<path fill="none" stroke="#000000" d="M840.7698,-838.5062C861.9048,-816.2993 907.7523,-772.835 957.0277,-756 1016.1136,-735.8132 1088.3315,-738.0175 1137.717,-743.2402"/>
<polygon fill="#000000" stroke="#000000" points="1137.5653,-746.7453 1147.8958,-744.3935 1138.3535,-739.7899 1137.5653,-746.7453"/>
<text text-anchor="middle" x="1023.5277" y="-759.8" font-family="Times,serif" font-size="14.00" fill="#000000">rdf:value</text>
</g>
<!-- Roa:Target -->
<g id="node13" class="node">
<title>Roa:Target</title>
<ellipse fill="none" stroke="#0000ff" cx="1195.5277" cy="-692" rx="44.393" ry="18"/>
<text text-anchor="middle" x="1195.5277" y="-688.3" font-family="Times,serif" font-size="14.00" fill="#000000">oa:Target</text>
</g>
<!-- B_:node1f0gq2gelx80&#45;&gt;Roa:Target -->
<g id="edge13" class="edge">
<title>B_:node1f0gq2gelx80&#45;&gt;Roa:Target</title>
<path fill="none" stroke="#000000" d="M846.7366,-666.3389C900.1206,-670.2665 1057.8044,-681.8675 1141.6627,-688.0371"/>
<polygon fill="#000000" stroke="#000000" points="1141.5276,-691.5365 1151.7575,-688.7798 1142.0412,-684.5554 1141.5276,-691.5365"/>
<text text-anchor="middle" x="1023.5277" y="-687.8" font-family="Times,serif" font-size="14.00" fill="#000000">rdf:type</text>
</g>
<!-- Limage/jpeg -->
<g id="node14" class="node">
<title>Limage/jpeg</title>
<polygon fill="none" stroke="#000000" points="1157.0277,-619 1157.0277,-655 1234.0277,-655 1234.0277,-619 1157.0277,-619"/>
<text text-anchor="middle" x="1195.5277" y="-633.3" font-family="Times,serif" font-size="14.00" fill="#000000">image/jpeg</text>
</g>
<!-- B_:node1f0gq2gelx80&#45;&gt;Limage/jpeg -->
<g id="edge14" class="edge">
<title>B_:node1f0gq2gelx80&#45;&gt;Limage/jpeg</title>
<path fill="none" stroke="#000000" d="M846.8354,-663.5624C871.7557,-661.6076 917.7632,-658.0096 957.0277,-655 1022.6006,-649.9739 1098.3236,-644.2773 1146.5397,-640.6635"/>
<polygon fill="#000000" stroke="#000000" points="1146.9835,-644.1402 1156.6941,-639.9028 1146.4605,-637.1597 1146.9835,-644.1402"/>
<text text-anchor="middle" x="1023.5277" y="-658.8" font-family="Times,serif" font-size="14.00" fill="#000000">dcterms:format</text>
</g>
<!-- B_:node1f0gq2gelx83 -->
<g id="node15" class="node">
<title>B_:node1f0gq2gelx83</title>
<ellipse fill="none" stroke="#00ff00" cx="1195.5277" cy="-582" rx="18" ry="18"/>
</g>
<!-- B_:node1f0gq2gelx80&#45;&gt;B_:node1f0gq2gelx83 -->
<g id="edge15" class="edge">
<title>B_:node1f0gq2gelx80&#45;&gt;B_:node1f0gq2gelx83</title>
<path fill="none" stroke="#000000" d="M846.7663,-662.5377C869.1984,-659.0639 908.1112,-651.5785 939.0277,-638 947.8309,-634.1337 948.1175,-629.6129 957.0277,-626 1029.2745,-596.7056 1121.7767,-586.7695 1167.4409,-583.5136"/>
<polygon fill="#000000" stroke="#000000" points="1167.7371,-587.0017 1177.4857,-582.8528 1167.2775,-580.0168 1167.7371,-587.0017"/>
<text text-anchor="middle" x="1023.5277" y="-629.8" font-family="Times,serif" font-size="14.00" fill="#000000">oa:hasSelector</text>
</g>
<!-- Rimg:default.jpg -->
<g id="node19" class="node">
<title>Rimg:default.jpg</title>
<ellipse fill="none" stroke="#0000ff" cx="1195.5277" cy="-419" rx="65.7887" ry="18"/>
<text text-anchor="middle" x="1195.5277" y="-415.3" font-family="Times,serif" font-size="14.00" fill="#000000">img:default.jpg</text>
</g>
<!-- B_:node1f0gq2gelx80&#45;&gt;Rimg:default.jpg -->
<g id="edge19" class="edge">
<title>B_:node1f0gq2gelx80&#45;&gt;Rimg:default.jpg</title>
<path fill="none" stroke="#000000" d="M846.8265,-665.7971C871.1506,-665.8216 913.9826,-662.0958 939.0277,-638 960.0128,-617.8103 939.7558,-598.4453 957.0277,-575 1006.3045,-508.1102 1093.5502,-461.8524 1147.7539,-437.9392"/>
<polygon fill="#000000" stroke="#000000" points="1149.3581,-441.0587 1157.1446,-433.8739 1146.5771,-434.6348 1149.3581,-441.0587"/>
<text text-anchor="middle" x="1023.5277" y="-578.8" font-family="Times,serif" font-size="14.00" fill="#000000">oa:hasSource</text>
</g>
<!-- Roa:FragmentSelector -->
<g id="node16" class="node">
<title>Roa:FragmentSelector</title>
<ellipse fill="none" stroke="#0000ff" cx="1714.0277" cy="-664" rx="84.485" ry="18"/>
<text text-anchor="middle" x="1714.0277" y="-660.3" font-family="Times,serif" font-size="14.00" fill="#000000">oa:FragmentSelector</text>
</g>
<!-- B_:node1f0gq2gelx83&#45;&gt;Roa:FragmentSelector -->
<g id="edge16" class="edge">
<title>B_:node1f0gq2gelx83&#45;&gt;Roa:FragmentSelector</title>
<path fill="none" stroke="#000000" d="M1212.9356,-587.4086C1240.5991,-595.9842 1292.3678,-611.9461 1301.0277,-614 1409.5827,-639.7461 1537.5037,-652.6264 1621.8956,-658.7934"/>
<polygon fill="#000000" stroke="#000000" points="1621.7433,-662.2913 1631.9673,-659.5126 1622.242,-655.3091 1621.7433,-662.2913"/>
<text text-anchor="middle" x="1358.5277" y="-638.8" font-family="Times,serif" font-size="14.00" fill="#000000">rdf:type</text>
</g>
<!-- Rmf: -->
<g id="node17" class="node">
<title>Rmf:</title>
<ellipse fill="none" stroke="#0000ff" cx="1714.0277" cy="-610" rx="27" ry="18"/>
<text text-anchor="middle" x="1714.0277" y="-606.3" font-family="Times,serif" font-size="14.00" fill="#000000">mf:</text>
</g>
<!-- B_:node1f0gq2gelx83&#45;&gt;Rmf: -->
<g id="edge17" class="edge">
<title>B_:node1f0gq2gelx83&#45;&gt;Rmf:</title>
<path fill="none" stroke="#000000" d="M1213.8233,-583.0605C1234.8618,-584.2753 1270.4369,-586.3154 1301.0277,-588 1439.4609,-595.6235 1604.0203,-604.2626 1676.5409,-608.0483"/>
<polygon fill="#000000" stroke="#000000" points="1676.797,-611.5663 1686.9658,-608.5922 1677.1618,-604.5758 1676.797,-611.5663"/>
<text text-anchor="middle" x="1358.5277" y="-598.8" font-family="Times,serif" font-size="14.00" fill="#000000">dcterms:conformsTo</text>
</g>
<!-- Lxywh=0.672574339819018,0.030544471154748218,0.06203976435935199,0.01601620029455081 -->
<g id="node18" class="node">
<title>Lxywh=0.672574339819018,0.030544471154748218,0.06203976435935199,0.01601620029455081</title>
<polygon fill="none" stroke="#000000" points="1434.0277,-537 1434.0277,-573 1994.0277,-573 1994.0277,-537 1434.0277,-537"/>
<text text-anchor="middle" x="1714.0277" y="-551.3" font-family="Times,serif" font-size="14.00" fill="#000000">xywh=0.672574339819018,0.030544471154748218,0.06203976435935199,0.01601620029455081</text>
</g>
<!-- B_:node1f0gq2gelx83&#45;&gt;Lxywh=0.672574339819018,0.030544471154748218,0.06203976435935199,0.01601620029455081 -->
<g id="edge18" class="edge">
<title>B_:node1f0gq2gelx83&#45;&gt;Lxywh=0.672574339819018,0.030544471154748218,0.06203976435935199,0.01601620029455081</title>
<path fill="none" stroke="#000000" d="M1213.8071,-580.2086C1234.8308,-578.2021 1270.3924,-574.9735 1301.0277,-573 1340.727,-570.4427 1382.5969,-568.1489 1423.8364,-566.1244"/>
<polygon fill="#000000" stroke="#000000" points="1424.2046,-569.6108 1434.0228,-565.6292 1423.8646,-562.619 1424.2046,-569.6108"/>
<text text-anchor="middle" x="1358.5277" y="-576.8" font-family="Times,serif" font-size="14.00" fill="#000000">rdf:value</text>
</g>
<!-- Rdcmitype:StillImage -->
<g id="node22" class="node">
<title>Rdcmitype:StillImage</title>
<ellipse fill="none" stroke="#0000ff" cx="1714.0277" cy="-500" rx="83.3857" ry="18"/>
<text text-anchor="middle" x="1714.0277" y="-496.3" font-family="Times,serif" font-size="14.00" fill="#000000">dcmitype:StillImage</text>
</g>
<!-- Rimg:default.jpg&#45;&gt;Rdcmitype:StillImage -->
<g id="edge22" class="edge">
<title>Rimg:default.jpg&#45;&gt;Rdcmitype:StillImage</title>
<path fill="none" stroke="#000000" d="M1238.094,-432.7156C1257.2023,-438.559 1280.1094,-445.1348 1301.0277,-450 1410.2007,-475.3914 1538.7856,-488.3723 1623.1259,-494.6584"/>
<polygon fill="#000000" stroke="#000000" points="1622.9595,-498.1555 1633.1876,-495.3922 1623.4687,-491.174 1622.9595,-498.1555"/>
<text text-anchor="middle" x="1358.5277" y="-475.8" font-family="Times,serif" font-size="14.00" fill="#000000">rdf:type</text>
</g>
<!-- Rdsw:Token -->
<g id="node23" class="node">
<title>Rdsw:Token</title>
<ellipse fill="none" stroke="#0000ff" cx="1714.0277" cy="-446" rx="50.0912" ry="18"/>
<text text-anchor="middle" x="1714.0277" y="-442.3" font-family="Times,serif" font-size="14.00" fill="#000000">dsw:Token</text>
</g>
<!-- Rimg:default.jpg&#45;&gt;Rdsw:Token -->
<g id="edge23" class="edge">
<title>Rimg:default.jpg&#45;&gt;Rdsw:Token</title>
<path fill="none" stroke="#000000" d="M1260.1477,-422.365C1361.4849,-427.6419 1556.3202,-437.7877 1654.4514,-442.8977"/>
<polygon fill="#000000" stroke="#000000" points="1654.3295,-446.396 1664.498,-443.4208 1654.6936,-439.4054 1654.3295,-446.396"/>
<text text-anchor="middle" x="1358.5277" y="-434.8" font-family="Times,serif" font-size="14.00" fill="#000000">rdf:type</text>
</g>
<!-- Rdwc:HumanObservation -->
<g id="node24" class="node">
<title>Rdwc:HumanObservation</title>
<ellipse fill="none" stroke="#0000ff" cx="1714.0277" cy="-392" rx="96.6831" ry="18"/>
<text text-anchor="middle" x="1714.0277" y="-388.3" font-family="Times,serif" font-size="14.00" fill="#000000">dwc:HumanObservation</text>
</g>
<!-- Rimg:default.jpg&#45;&gt;Rdwc:HumanObservation -->
<g id="edge24" class="edge">
<title>Rimg:default.jpg&#45;&gt;Rdwc:HumanObservation</title>
<path fill="none" stroke="#000000" d="M1254.3041,-410.82C1269.4971,-408.9632 1285.8493,-407.1901 1301.0277,-406 1404.8088,-397.863 1523.6257,-394.4525 1607.0925,-393.0245"/>
<polygon fill="#000000" stroke="#000000" points="1607.1517,-396.5241 1617.0927,-392.8601 1607.0365,-389.5251 1607.1517,-396.5241"/>
<text text-anchor="middle" x="1358.5277" y="-409.8" font-family="Times,serif" font-size="14.00" fill="#000000">rdf:type</text>
</g>
<!-- Roa:Source -->
<g id="node25" class="node">
<title>Roa:Source</title>
<ellipse fill="none" stroke="#0000ff" cx="1714.0277" cy="-338" rx="46.2923" ry="18"/>
<text text-anchor="middle" x="1714.0277" y="-334.3" font-family="Times,serif" font-size="14.00" fill="#000000">oa:Source</text>
</g>
<!-- Rimg:default.jpg&#45;&gt;Roa:Source -->
<g id="edge25" class="edge">
<title>Rimg:default.jpg&#45;&gt;Roa:Source</title>
<path fill="none" stroke="#000000" d="M1231.5305,-403.741C1251.6407,-395.8038 1277.3489,-386.6123 1301.0277,-381 1426.0601,-351.3649 1577.2014,-342.1518 1657.4775,-339.2891"/>
<polygon fill="#000000" stroke="#000000" points="1657.976,-342.7745 1667.8529,-338.9407 1657.741,-335.7784 1657.976,-342.7745"/>
<text text-anchor="middle" x="1358.5277" y="-384.8" font-family="Times,serif" font-size="14.00" fill="#000000">rdf:type</text>
</g>
<!-- Rfoaf:Image -->
<g id="node26" class="node">
<title>Rfoaf:Image</title>
<ellipse fill="none" stroke="#0000ff" cx="1714.0277" cy="-284" rx="50.0912" ry="18"/>
<text text-anchor="middle" x="1714.0277" y="-280.3" font-family="Times,serif" font-size="14.00" fill="#000000">foaf:Image</text>
</g>
<!-- Rimg:default.jpg&#45;&gt;Rfoaf:Image -->
<g id="edge26" class="edge">
<title>Rimg:default.jpg&#45;&gt;Rfoaf:Image</title>
<path fill="none" stroke="#000000" d="M1214.2471,-401.6695C1234.2561,-384.0742 1267.6334,-357.3048 1301.0277,-342 1417.764,-288.4991 1570.9735,-281.2902 1654.0925,-281.9104"/>
<polygon fill="#000000" stroke="#000000" points="1654.0797,-285.4104 1664.1194,-282.0261 1654.1605,-278.4109 1654.0797,-285.4104"/>
<text text-anchor="middle" x="1358.5277" y="-345.8" font-family="Times,serif" font-size="14.00" fill="#000000">rdf:type</text>
</g>
</g>
</svg>
