<?xml version="1.0" encoding="utf-8" standalone="no"?>
<!DOCTYPE svg PUBLIC "-//W3C//DTD SVG 1.1//EN"
  "http://www.w3.org/Graphics/SVG/1.1/DTD/svg11.dtd">
<!-- Created with matplotlib (https://matplotlib.org/) -->
<svg height="345.6pt" version="1.1" viewBox="0 0 460.8 345.6" width="460.8pt" xmlns="http://www.w3.org/2000/svg" xmlns:xlink="http://www.w3.org/1999/xlink">
 <metadata>
  <rdf:RDF xmlns:cc="http://creativecommons.org/ns#" xmlns:dc="http://purl.org/dc/elements/1.1/" xmlns:rdf="http://www.w3.org/1999/02/22-rdf-syntax-ns#">
   <cc:Work>
    <dc:type rdf:resource="http://purl.org/dc/dcmitype/StillImage"/>
    <dc:date>2020-12-09T20:30:51.542647</dc:date>
    <dc:format>image/svg+xml</dc:format>
    <dc:creator>
     <cc:Agent>
      <dc:title>Matplotlib v3.3.3, https://matplotlib.org/</dc:title>
     </cc:Agent>
    </dc:creator>
   </cc:Work>
  </rdf:RDF>
 </metadata>
 <defs>
  <style type="text/css">*{stroke-linecap:butt;stroke-linejoin:round;}</style>
 </defs>
 <g id="figure_1">
  <g id="patch_1">
   <path d="M 0 345.6 
L 460.8 345.6 
L 460.8 0 
L 0 0 
z
" style="fill:#ffffff;"/>
  </g>
  <g id="axes_1">
   <g id="LineCollection_1">
    <path clip-path="url(#p11733e1105)" d="M 191.253395 140.45666 
L 180.343073 106.337562 
" style="fill:none;stroke:#808080;"/>
    <path clip-path="url(#p11733e1105)" d="M 191.253395 140.45666 
L 164.243395 161.692661 
" style="fill:none;stroke:#808080;"/>
    <path clip-path="url(#p11733e1105)" d="M 191.253395 140.45666 
L 87.35714 125.64333 
" style="fill:none;stroke:#808080;"/>
    <path clip-path="url(#p11733e1105)" d="M 191.253395 140.45666 
L 281.054786 196.70221 
" style="fill:none;stroke:#808080;"/>
    <path clip-path="url(#p11733e1105)" d="M 191.253395 140.45666 
L 216.624252 84.154159 
" style="fill:none;stroke:#808080;"/>
    <path clip-path="url(#p11733e1105)" d="M 87.35714 125.64333 
L 30.763636 118.277209 
" style="fill:none;stroke:#808080;"/>
    <path clip-path="url(#p11733e1105)" d="M 87.35714 125.64333 
L 44.347836 93.214562 
" style="fill:none;stroke:#808080;"/>
    <path clip-path="url(#p11733e1105)" d="M 87.35714 125.64333 
L 76.526023 82.761342 
" style="fill:none;stroke:#808080;"/>
    <path clip-path="url(#p11733e1105)" d="M 87.35714 125.64333 
L 62.117994 162.410217 
" style="fill:none;stroke:#808080;"/>
    <path clip-path="url(#p11733e1105)" d="M 87.35714 125.64333 
L 34.728205 145.23019 
" style="fill:none;stroke:#808080;"/>
    <path clip-path="url(#p11733e1105)" d="M 281.054786 196.70221 
L 304.263113 222.153193 
" style="fill:none;stroke:#808080;"/>
    <path clip-path="url(#p11733e1105)" d="M 281.054786 196.70221 
L 283.105874 273.684679 
" style="fill:none;stroke:#808080;"/>
    <path clip-path="url(#p11733e1105)" d="M 281.054786 196.70221 
L 374.200013 193.067921 
" style="fill:none;stroke:#808080;"/>
    <path clip-path="url(#p11733e1105)" d="M 281.054786 196.70221 
L 304.192758 168.059884 
" style="fill:none;stroke:#808080;"/>
    <path clip-path="url(#p11733e1105)" d="M 374.200013 193.067921 
L 412.968862 162.573944 
" style="fill:none;stroke:#808080;"/>
    <path clip-path="url(#p11733e1105)" d="M 374.200013 193.067921 
L 430.036364 190.428134 
" style="fill:none;stroke:#808080;"/>
    <path clip-path="url(#p11733e1105)" d="M 374.200013 193.067921 
L 417.542466 219.486284 
" style="fill:none;stroke:#808080;"/>
    <path clip-path="url(#p11733e1105)" d="M 216.624252 84.154159 
L 232.04879 40.876364 
" style="fill:none;stroke:#808080;"/>
    <path clip-path="url(#p11733e1105)" d="M 283.105874 273.684679 
L 318.20179 307.574805 
" style="fill:none;stroke:#808080;"/>
    <path clip-path="url(#p11733e1105)" d="M 283.105874 273.684679 
L 250.430856 307.316232 
" style="fill:none;stroke:#808080;"/>
    <path clip-path="url(#p11733e1105)" d="M 283.105874 273.684679 
L 284.642848 320.803636 
" style="fill:none;stroke:#808080;"/>
   </g>
   <g id="text_1">
    <g id="patch_2">
     <path clip-path="url(#p11733e1105)" d="M 176.436809 109.04474 
L 187.788306 140.416701 
Q 188.298677 141.827205 189.709181 141.316834 
L 194.259526 139.670357 
Q 195.67003 139.159986 195.159659 137.749482 
L 183.808162 106.377521 
Q 183.297791 104.967017 181.887287 105.477388 
L 177.336943 107.123865 
Q 175.926439 107.634236 176.436809 109.04474 
z
" style="fill:#ffffff;stroke:#ffffff;stroke-linejoin:miter;"/>
    </g>
    <g clip-path="url(#p11733e1105)">
     <!-- dcterms:date -->
     <g style="fill:#ff0000;" transform="translate(178.825116 108.180565)rotate(-289.891935)scale(0.05 -0.05)">
      <defs>
       <path d="M 45.40625 46.390625 
L 45.40625 75.984375 
L 54.390625 75.984375 
L 54.390625 0 
L 45.40625 0 
L 45.40625 8.203125 
Q 42.578125 3.328125 38.25 0.953125 
Q 33.9375 -1.421875 27.875 -1.421875 
Q 17.96875 -1.421875 11.734375 6.484375 
Q 5.515625 14.40625 5.515625 27.296875 
Q 5.515625 40.1875 11.734375 48.09375 
Q 17.96875 56 27.875 56 
Q 33.9375 56 38.25 53.625 
Q 42.578125 51.265625 45.40625 46.390625 
z
M 14.796875 27.296875 
Q 14.796875 17.390625 18.875 11.75 
Q 22.953125 6.109375 30.078125 6.109375 
Q 37.203125 6.109375 41.296875 11.75 
Q 45.40625 17.390625 45.40625 27.296875 
Q 45.40625 37.203125 41.296875 42.84375 
Q 37.203125 48.484375 30.078125 48.484375 
Q 22.953125 48.484375 18.875 42.84375 
Q 14.796875 37.203125 14.796875 27.296875 
z
" id="DejaVuSans-100"/>
       <path d="M 48.78125 52.59375 
L 48.78125 44.1875 
Q 44.96875 46.296875 41.140625 47.34375 
Q 37.3125 48.390625 33.40625 48.390625 
Q 24.65625 48.390625 19.8125 42.84375 
Q 14.984375 37.3125 14.984375 27.296875 
Q 14.984375 17.28125 19.8125 11.734375 
Q 24.65625 6.203125 33.40625 6.203125 
Q 37.3125 6.203125 41.140625 7.25 
Q 44.96875 8.296875 48.78125 10.40625 
L 48.78125 2.09375 
Q 45.015625 0.34375 40.984375 -0.53125 
Q 36.96875 -1.421875 32.421875 -1.421875 
Q 20.0625 -1.421875 12.78125 6.34375 
Q 5.515625 14.109375 5.515625 27.296875 
Q 5.515625 40.671875 12.859375 48.328125 
Q 20.21875 56 33.015625 56 
Q 37.15625 56 41.109375 55.140625 
Q 45.0625 54.296875 48.78125 52.59375 
z
" id="DejaVuSans-99"/>
       <path d="M 18.3125 70.21875 
L 18.3125 54.6875 
L 36.8125 54.6875 
L 36.8125 47.703125 
L 18.3125 47.703125 
L 18.3125 18.015625 
Q 18.3125 11.328125 20.140625 9.421875 
Q 21.96875 7.515625 27.59375 7.515625 
L 36.8125 7.515625 
L 36.8125 0 
L 27.59375 0 
Q 17.1875 0 13.234375 3.875 
Q 9.28125 7.765625 9.28125 18.015625 
L 9.28125 47.703125 
L 2.6875 47.703125 
L 2.6875 54.6875 
L 9.28125 54.6875 
L 9.28125 70.21875 
z
" id="DejaVuSans-116"/>
       <path d="M 56.203125 29.59375 
L 56.203125 25.203125 
L 14.890625 25.203125 
Q 15.484375 15.921875 20.484375 11.0625 
Q 25.484375 6.203125 34.421875 6.203125 
Q 39.59375 6.203125 44.453125 7.46875 
Q 49.3125 8.734375 54.109375 11.28125 
L 54.109375 2.78125 
Q 49.265625 0.734375 44.1875 -0.34375 
Q 39.109375 -1.421875 33.890625 -1.421875 
Q 20.796875 -1.421875 13.15625 6.1875 
Q 5.515625 13.8125 5.515625 26.8125 
Q 5.515625 40.234375 12.765625 48.109375 
Q 20.015625 56 32.328125 56 
Q 43.359375 56 49.78125 48.890625 
Q 56.203125 41.796875 56.203125 29.59375 
z
M 47.21875 32.234375 
Q 47.125 39.59375 43.09375 43.984375 
Q 39.0625 48.390625 32.421875 48.390625 
Q 24.90625 48.390625 20.390625 44.140625 
Q 15.875 39.890625 15.1875 32.171875 
z
" id="DejaVuSans-101"/>
       <path d="M 41.109375 46.296875 
Q 39.59375 47.171875 37.8125 47.578125 
Q 36.03125 48 33.890625 48 
Q 26.265625 48 22.1875 43.046875 
Q 18.109375 38.09375 18.109375 28.8125 
L 18.109375 0 
L 9.078125 0 
L 9.078125 54.6875 
L 18.109375 54.6875 
L 18.109375 46.1875 
Q 20.953125 51.171875 25.484375 53.578125 
Q 30.03125 56 36.53125 56 
Q 37.453125 56 38.578125 55.875 
Q 39.703125 55.765625 41.0625 55.515625 
z
" id="DejaVuSans-114"/>
       <path d="M 52 44.1875 
Q 55.375 50.25 60.0625 53.125 
Q 64.75 56 71.09375 56 
Q 79.640625 56 84.28125 50.015625 
Q 88.921875 44.046875 88.921875 33.015625 
L 88.921875 0 
L 79.890625 0 
L 79.890625 32.71875 
Q 79.890625 40.578125 77.09375 44.375 
Q 74.3125 48.1875 68.609375 48.1875 
Q 61.625 48.1875 57.5625 43.546875 
Q 53.515625 38.921875 53.515625 30.90625 
L 53.515625 0 
L 44.484375 0 
L 44.484375 32.71875 
Q 44.484375 40.625 41.703125 44.40625 
Q 38.921875 48.1875 33.109375 48.1875 
Q 26.21875 48.1875 22.15625 43.53125 
Q 18.109375 38.875 18.109375 30.90625 
L 18.109375 0 
L 9.078125 0 
L 9.078125 54.6875 
L 18.109375 54.6875 
L 18.109375 46.1875 
Q 21.1875 51.21875 25.484375 53.609375 
Q 29.78125 56 35.6875 56 
Q 41.65625 56 45.828125 52.96875 
Q 50 49.953125 52 44.1875 
z
" id="DejaVuSans-109"/>
       <path d="M 44.28125 53.078125 
L 44.28125 44.578125 
Q 40.484375 46.53125 36.375 47.5 
Q 32.28125 48.484375 27.875 48.484375 
Q 21.1875 48.484375 17.84375 46.4375 
Q 14.5 44.390625 14.5 40.28125 
Q 14.5 37.15625 16.890625 35.375 
Q 19.28125 33.59375 26.515625 31.984375 
L 29.59375 31.296875 
Q 39.15625 29.25 43.1875 25.515625 
Q 47.21875 21.78125 47.21875 15.09375 
Q 47.21875 7.46875 41.1875 3.015625 
Q 35.15625 -1.421875 24.609375 -1.421875 
Q 20.21875 -1.421875 15.453125 -0.5625 
Q 10.6875 0.296875 5.421875 2 
L 5.421875 11.28125 
Q 10.40625 8.6875 15.234375 7.390625 
Q 20.0625 6.109375 24.8125 6.109375 
Q 31.15625 6.109375 34.5625 8.28125 
Q 37.984375 10.453125 37.984375 14.40625 
Q 37.984375 18.0625 35.515625 20.015625 
Q 33.0625 21.96875 24.703125 23.78125 
L 21.578125 24.515625 
Q 13.234375 26.265625 9.515625 29.90625 
Q 5.8125 33.546875 5.8125 39.890625 
Q 5.8125 47.609375 11.28125 51.796875 
Q 16.75 56 26.8125 56 
Q 31.78125 56 36.171875 55.265625 
Q 40.578125 54.546875 44.28125 53.078125 
z
" id="DejaVuSans-115"/>
       <path d="M 11.71875 12.40625 
L 22.015625 12.40625 
L 22.015625 0 
L 11.71875 0 
z
M 11.71875 51.703125 
L 22.015625 51.703125 
L 22.015625 39.3125 
L 11.71875 39.3125 
z
" id="DejaVuSans-58"/>
       <path d="M 34.28125 27.484375 
Q 23.390625 27.484375 19.1875 25 
Q 14.984375 22.515625 14.984375 16.5 
Q 14.984375 11.71875 18.140625 8.90625 
Q 21.296875 6.109375 26.703125 6.109375 
Q 34.1875 6.109375 38.703125 11.40625 
Q 43.21875 16.703125 43.21875 25.484375 
L 43.21875 27.484375 
z
M 52.203125 31.203125 
L 52.203125 0 
L 43.21875 0 
L 43.21875 8.296875 
Q 40.140625 3.328125 35.546875 0.953125 
Q 30.953125 -1.421875 24.3125 -1.421875 
Q 15.921875 -1.421875 10.953125 3.296875 
Q 6 8.015625 6 15.921875 
Q 6 25.140625 12.171875 29.828125 
Q 18.359375 34.515625 30.609375 34.515625 
L 43.21875 34.515625 
L 43.21875 35.40625 
Q 43.21875 41.609375 39.140625 45 
Q 35.0625 48.390625 27.6875 48.390625 
Q 23 48.390625 18.546875 47.265625 
Q 14.109375 46.140625 10.015625 43.890625 
L 10.015625 52.203125 
Q 14.9375 54.109375 19.578125 55.046875 
Q 24.21875 56 28.609375 56 
Q 40.484375 56 46.34375 49.84375 
Q 52.203125 43.703125 52.203125 31.203125 
z
" id="DejaVuSans-97"/>
      </defs>
      <use xlink:href="#DejaVuSans-100"/>
      <use x="63.476562" xlink:href="#DejaVuSans-99"/>
      <use x="118.457031" xlink:href="#DejaVuSans-116"/>
      <use x="157.666016" xlink:href="#DejaVuSans-101"/>
      <use x="219.189453" xlink:href="#DejaVuSans-114"/>
      <use x="258.552734" xlink:href="#DejaVuSans-109"/>
      <use x="355.964844" xlink:href="#DejaVuSans-115"/>
      <use x="408.064453" xlink:href="#DejaVuSans-58"/>
      <use x="441.755859" xlink:href="#DejaVuSans-100"/>
      <use x="505.232422" xlink:href="#DejaVuSans-97"/>
      <use x="566.511719" xlink:href="#DejaVuSans-116"/>
      <use x="605.720703" xlink:href="#DejaVuSans-101"/>
     </g>
    </g>
   </g>
   <g id="text_2">
    <g id="patch_3">
     <path clip-path="url(#p11733e1105)" d="M 171.946872 159.878515 
L 188.022949 148.708422 
Q 189.254783 147.852511 188.398871 146.620677 
L 185.637664 142.646728 
Q 184.781753 141.414894 183.549919 142.270806 
L 167.473842 153.440899 
Q 166.242008 154.29681 167.09792 155.528644 
L 169.859126 159.502593 
Q 170.715038 160.734427 171.946872 159.878515 
z
" style="fill:#ffffff;stroke:#ffffff;stroke-linejoin:miter;"/>
    </g>
    <g clip-path="url(#p11733e1105)">
     <!-- rdf:type -->
     <g style="fill:#ff0000;" transform="translate(170.497617 157.792738)rotate(-34.792617)scale(0.05 -0.05)">
      <defs>
       <path d="M 37.109375 75.984375 
L 37.109375 68.5 
L 28.515625 68.5 
Q 23.6875 68.5 21.796875 66.546875 
Q 19.921875 64.59375 19.921875 59.515625 
L 19.921875 54.6875 
L 34.71875 54.6875 
L 34.71875 47.703125 
L 19.921875 47.703125 
L 19.921875 0 
L 10.890625 0 
L 10.890625 47.703125 
L 2.296875 47.703125 
L 2.296875 54.6875 
L 10.890625 54.6875 
L 10.890625 58.5 
Q 10.890625 67.625 15.140625 71.796875 
Q 19.390625 75.984375 28.609375 75.984375 
z
" id="DejaVuSans-102"/>
       <path d="M 32.171875 -5.078125 
Q 28.375 -14.84375 24.75 -17.8125 
Q 21.140625 -20.796875 15.09375 -20.796875 
L 7.90625 -20.796875 
L 7.90625 -13.28125 
L 13.1875 -13.28125 
Q 16.890625 -13.28125 18.9375 -11.515625 
Q 21 -9.765625 23.484375 -3.21875 
L 25.09375 0.875 
L 2.984375 54.6875 
L 12.5 54.6875 
L 29.59375 11.921875 
L 46.6875 54.6875 
L 56.203125 54.6875 
z
" id="DejaVuSans-121"/>
       <path d="M 18.109375 8.203125 
L 18.109375 -20.796875 
L 9.078125 -20.796875 
L 9.078125 54.6875 
L 18.109375 54.6875 
L 18.109375 46.390625 
Q 20.953125 51.265625 25.265625 53.625 
Q 29.59375 56 35.59375 56 
Q 45.5625 56 51.78125 48.09375 
Q 58.015625 40.1875 58.015625 27.296875 
Q 58.015625 14.40625 51.78125 6.484375 
Q 45.5625 -1.421875 35.59375 -1.421875 
Q 29.59375 -1.421875 25.265625 0.953125 
Q 20.953125 3.328125 18.109375 8.203125 
z
M 48.6875 27.296875 
Q 48.6875 37.203125 44.609375 42.84375 
Q 40.53125 48.484375 33.40625 48.484375 
Q 26.265625 48.484375 22.1875 42.84375 
Q 18.109375 37.203125 18.109375 27.296875 
Q 18.109375 17.390625 22.1875 11.75 
Q 26.265625 6.109375 33.40625 6.109375 
Q 40.53125 6.109375 44.609375 11.75 
Q 48.6875 17.390625 48.6875 27.296875 
z
" id="DejaVuSans-112"/>
      </defs>
      <use xlink:href="#DejaVuSans-114"/>
      <use x="39.363281" xlink:href="#DejaVuSans-100"/>
      <use x="102.839844" xlink:href="#DejaVuSans-102"/>
      <use x="134.419922" xlink:href="#DejaVuSans-58"/>
      <use x="168.111328" xlink:href="#DejaVuSans-116"/>
      <use x="207.320312" xlink:href="#DejaVuSans-121"/>
      <use x="266.5" xlink:href="#DejaVuSans-112"/>
      <use x="329.976562" xlink:href="#DejaVuSans-101"/>
     </g>
    </g>
   </g>
   <g id="text_3">
    <g id="patch_4">
     <path clip-path="url(#p11733e1105)" d="M 124.295702 135.109266 
L 153.334836 138.768288 
Q 154.823068 138.95581 155.01059 137.467577 
L 155.615544 132.666478 
Q 155.803066 131.178246 154.314833 130.990724 
L 125.2757 127.331702 
Q 123.787467 127.14418 123.599945 128.632412 
L 122.994992 133.433512 
Q 122.80747 134.921744 124.295702 135.109266 
z
" style="fill:#ffffff;stroke:#ffffff;stroke-linejoin:miter;"/>
    </g>
    <g clip-path="url(#p11733e1105)">
     <!-- oa:hasBody -->
     <g style="fill:#ff0000;" transform="translate(124.61322 132.589347)rotate(-352.818399)scale(0.05 -0.05)">
      <defs>
       <path d="M 30.609375 48.390625 
Q 23.390625 48.390625 19.1875 42.75 
Q 14.984375 37.109375 14.984375 27.296875 
Q 14.984375 17.484375 19.15625 11.84375 
Q 23.34375 6.203125 30.609375 6.203125 
Q 37.796875 6.203125 41.984375 11.859375 
Q 46.1875 17.53125 46.1875 27.296875 
Q 46.1875 37.015625 41.984375 42.703125 
Q 37.796875 48.390625 30.609375 48.390625 
z
M 30.609375 56 
Q 42.328125 56 49.015625 48.375 
Q 55.71875 40.765625 55.71875 27.296875 
Q 55.71875 13.875 49.015625 6.21875 
Q 42.328125 -1.421875 30.609375 -1.421875 
Q 18.84375 -1.421875 12.171875 6.21875 
Q 5.515625 13.875 5.515625 27.296875 
Q 5.515625 40.765625 12.171875 48.375 
Q 18.84375 56 30.609375 56 
z
" id="DejaVuSans-111"/>
       <path d="M 54.890625 33.015625 
L 54.890625 0 
L 45.90625 0 
L 45.90625 32.71875 
Q 45.90625 40.484375 42.875 44.328125 
Q 39.84375 48.1875 33.796875 48.1875 
Q 26.515625 48.1875 22.3125 43.546875 
Q 18.109375 38.921875 18.109375 30.90625 
L 18.109375 0 
L 9.078125 0 
L 9.078125 75.984375 
L 18.109375 75.984375 
L 18.109375 46.1875 
Q 21.34375 51.125 25.703125 53.5625 
Q 30.078125 56 35.796875 56 
Q 45.21875 56 50.046875 50.171875 
Q 54.890625 44.34375 54.890625 33.015625 
z
" id="DejaVuSans-104"/>
       <path d="M 19.671875 34.8125 
L 19.671875 8.109375 
L 35.5 8.109375 
Q 43.453125 8.109375 47.28125 11.40625 
Q 51.125 14.703125 51.125 21.484375 
Q 51.125 28.328125 47.28125 31.5625 
Q 43.453125 34.8125 35.5 34.8125 
z
M 19.671875 64.796875 
L 19.671875 42.828125 
L 34.28125 42.828125 
Q 41.5 42.828125 45.03125 45.53125 
Q 48.578125 48.25 48.578125 53.8125 
Q 48.578125 59.328125 45.03125 62.0625 
Q 41.5 64.796875 34.28125 64.796875 
z
M 9.8125 72.90625 
L 35.015625 72.90625 
Q 46.296875 72.90625 52.390625 68.21875 
Q 58.5 63.53125 58.5 54.890625 
Q 58.5 48.1875 55.375 44.234375 
Q 52.25 40.28125 46.1875 39.3125 
Q 53.46875 37.75 57.5 32.78125 
Q 61.53125 27.828125 61.53125 20.40625 
Q 61.53125 10.640625 54.890625 5.3125 
Q 48.25 0 35.984375 0 
L 9.8125 0 
z
" id="DejaVuSans-66"/>
      </defs>
      <use xlink:href="#DejaVuSans-111"/>
      <use x="61.181641" xlink:href="#DejaVuSans-97"/>
      <use x="122.460938" xlink:href="#DejaVuSans-58"/>
      <use x="156.152344" xlink:href="#DejaVuSans-104"/>
      <use x="219.53125" xlink:href="#DejaVuSans-97"/>
      <use x="280.810547" xlink:href="#DejaVuSans-115"/>
      <use x="332.910156" xlink:href="#DejaVuSans-66"/>
      <use x="401.513672" xlink:href="#DejaVuSans-111"/>
      <use x="462.695312" xlink:href="#DejaVuSans-100"/>
      <use x="526.171875" xlink:href="#DejaVuSans-121"/>
     </g>
    </g>
   </g>
   <g id="text_4">
    <g id="patch_5">
     <path clip-path="url(#p11733e1105)" d="M 220.206075 164.231797 
L 248.305791 179.785564 
Q 249.618159 180.511987 250.344582 179.199619 
L 252.688052 174.965864 
Q 253.414474 173.653496 252.102106 172.927073 
L 224.00239 157.373306 
Q 222.690021 156.646884 221.963599 157.959252 
L 219.620129 162.193006 
Q 218.893707 163.505374 220.206075 164.231797 
z
" style="fill:#ffffff;stroke:#ffffff;stroke-linejoin:miter;"/>
    </g>
    <g clip-path="url(#p11733e1105)">
     <!-- oa:hasTarget -->
     <g style="fill:#ff0000;" transform="translate(221.436075 162.009657)rotate(-331.034576)scale(0.05 -0.05)">
      <defs>
       <path d="M -0.296875 72.90625 
L 61.375 72.90625 
L 61.375 64.59375 
L 35.5 64.59375 
L 35.5 0 
L 25.59375 0 
L 25.59375 64.59375 
L -0.296875 64.59375 
z
" id="DejaVuSans-84"/>
       <path d="M 45.40625 27.984375 
Q 45.40625 37.75 41.375 43.109375 
Q 37.359375 48.484375 30.078125 48.484375 
Q 22.859375 48.484375 18.828125 43.109375 
Q 14.796875 37.75 14.796875 27.984375 
Q 14.796875 18.265625 18.828125 12.890625 
Q 22.859375 7.515625 30.078125 7.515625 
Q 37.359375 7.515625 41.375 12.890625 
Q 45.40625 18.265625 45.40625 27.984375 
z
M 54.390625 6.78125 
Q 54.390625 -7.171875 48.1875 -13.984375 
Q 42 -20.796875 29.203125 -20.796875 
Q 24.46875 -20.796875 20.265625 -20.09375 
Q 16.0625 -19.390625 12.109375 -17.921875 
L 12.109375 -9.1875 
Q 16.0625 -11.328125 19.921875 -12.34375 
Q 23.78125 -13.375 27.78125 -13.375 
Q 36.625 -13.375 41.015625 -8.765625 
Q 45.40625 -4.15625 45.40625 5.171875 
L 45.40625 9.625 
Q 42.625 4.78125 38.28125 2.390625 
Q 33.9375 0 27.875 0 
Q 17.828125 0 11.671875 7.65625 
Q 5.515625 15.328125 5.515625 27.984375 
Q 5.515625 40.671875 11.671875 48.328125 
Q 17.828125 56 27.875 56 
Q 33.9375 56 38.28125 53.609375 
Q 42.625 51.21875 45.40625 46.390625 
L 45.40625 54.6875 
L 54.390625 54.6875 
z
" id="DejaVuSans-103"/>
      </defs>
      <use xlink:href="#DejaVuSans-111"/>
      <use x="61.181641" xlink:href="#DejaVuSans-97"/>
      <use x="122.460938" xlink:href="#DejaVuSans-58"/>
      <use x="156.152344" xlink:href="#DejaVuSans-104"/>
      <use x="219.53125" xlink:href="#DejaVuSans-97"/>
      <use x="280.810547" xlink:href="#DejaVuSans-115"/>
      <use x="332.910156" xlink:href="#DejaVuSans-84"/>
      <use x="377.494141" xlink:href="#DejaVuSans-97"/>
      <use x="438.773438" xlink:href="#DejaVuSans-114"/>
      <use x="478.136719" xlink:href="#DejaVuSans-103"/>
      <use x="541.613281" xlink:href="#DejaVuSans-101"/>
      <use x="603.136719" xlink:href="#DejaVuSans-116"/>
     </g>
    </g>
   </g>
   <g id="text_5">
    <g id="patch_6">
     <path clip-path="url(#p11733e1105)" d="M 198.346691 131.901252 
L 216.514574 96.270464 
Q 217.19595 94.934153 215.859638 94.252777 
L 211.548643 92.054632 
Q 210.212332 91.373256 209.530956 92.709567 
L 191.363073 128.340355 
Q 190.681698 129.676666 192.018009 130.358042 
L 196.329004 132.556187 
Q 197.665315 133.237563 198.346691 131.901252 
z
" style="fill:#ffffff;stroke:#ffffff;stroke-linejoin:miter;"/>
    </g>
    <g clip-path="url(#p11733e1105)">
     <!-- dcterms:creator -->
     <g style="fill:#ff0000;" transform="translate(196.08401 130.747527)rotate(-62.983292)scale(0.05 -0.05)">
      <use xlink:href="#DejaVuSans-100"/>
      <use x="63.476562" xlink:href="#DejaVuSans-99"/>
      <use x="118.457031" xlink:href="#DejaVuSans-116"/>
      <use x="157.666016" xlink:href="#DejaVuSans-101"/>
      <use x="219.189453" xlink:href="#DejaVuSans-114"/>
      <use x="258.552734" xlink:href="#DejaVuSans-109"/>
      <use x="355.964844" xlink:href="#DejaVuSans-115"/>
      <use x="408.064453" xlink:href="#DejaVuSans-58"/>
      <use x="441.755859" xlink:href="#DejaVuSans-99"/>
      <use x="496.736328" xlink:href="#DejaVuSans-114"/>
      <use x="535.599609" xlink:href="#DejaVuSans-101"/>
      <use x="597.123047" xlink:href="#DejaVuSans-97"/>
      <use x="658.402344" xlink:href="#DejaVuSans-116"/>
      <use x="697.611328" xlink:href="#DejaVuSans-111"/>
      <use x="758.792969" xlink:href="#DejaVuSans-114"/>
     </g>
    </g>
   </g>
   <g id="text_6">
    <g id="patch_7">
     <path clip-path="url(#p11733e1105)" d="M 36.077488 123.261985 
L 81.147489 128.446264 
Q 82.637663 128.617675 82.809074 127.127501 
L 83.362052 122.320138 
Q 83.533462 120.829964 82.043288 120.658553 
L 36.973288 115.474274 
Q 35.483114 115.302863 35.311703 116.793037 
L 34.758725 121.600401 
Q 34.587315 123.090575 36.077488 123.261985 
z
" style="fill:#ffffff;stroke:#ffffff;stroke-linejoin:miter;"/>
    </g>
    <g clip-path="url(#p11733e1105)">
     <!-- dcterms:language -->
     <g style="fill:#ff0000;" transform="translate(36.367726 120.738779)rotate(-353.438262)scale(0.05 -0.05)">
      <defs>
       <path d="M 9.421875 75.984375 
L 18.40625 75.984375 
L 18.40625 0 
L 9.421875 0 
z
" id="DejaVuSans-108"/>
       <path d="M 54.890625 33.015625 
L 54.890625 0 
L 45.90625 0 
L 45.90625 32.71875 
Q 45.90625 40.484375 42.875 44.328125 
Q 39.84375 48.1875 33.796875 48.1875 
Q 26.515625 48.1875 22.3125 43.546875 
Q 18.109375 38.921875 18.109375 30.90625 
L 18.109375 0 
L 9.078125 0 
L 9.078125 54.6875 
L 18.109375 54.6875 
L 18.109375 46.1875 
Q 21.34375 51.125 25.703125 53.5625 
Q 30.078125 56 35.796875 56 
Q 45.21875 56 50.046875 50.171875 
Q 54.890625 44.34375 54.890625 33.015625 
z
" id="DejaVuSans-110"/>
       <path d="M 8.5 21.578125 
L 8.5 54.6875 
L 17.484375 54.6875 
L 17.484375 21.921875 
Q 17.484375 14.15625 20.5 10.265625 
Q 23.53125 6.390625 29.59375 6.390625 
Q 36.859375 6.390625 41.078125 11.03125 
Q 45.3125 15.671875 45.3125 23.6875 
L 45.3125 54.6875 
L 54.296875 54.6875 
L 54.296875 0 
L 45.3125 0 
L 45.3125 8.40625 
Q 42.046875 3.421875 37.71875 1 
Q 33.40625 -1.421875 27.6875 -1.421875 
Q 18.265625 -1.421875 13.375 4.4375 
Q 8.5 10.296875 8.5 21.578125 
z
M 31.109375 56 
z
" id="DejaVuSans-117"/>
      </defs>
      <use xlink:href="#DejaVuSans-100"/>
      <use x="63.476562" xlink:href="#DejaVuSans-99"/>
      <use x="118.457031" xlink:href="#DejaVuSans-116"/>
      <use x="157.666016" xlink:href="#DejaVuSans-101"/>
      <use x="219.189453" xlink:href="#DejaVuSans-114"/>
      <use x="258.552734" xlink:href="#DejaVuSans-109"/>
      <use x="355.964844" xlink:href="#DejaVuSans-115"/>
      <use x="408.064453" xlink:href="#DejaVuSans-58"/>
      <use x="441.755859" xlink:href="#DejaVuSans-108"/>
      <use x="469.539062" xlink:href="#DejaVuSans-97"/>
      <use x="530.818359" xlink:href="#DejaVuSans-110"/>
      <use x="594.197266" xlink:href="#DejaVuSans-103"/>
      <use x="657.673828" xlink:href="#DejaVuSans-117"/>
      <use x="721.052734" xlink:href="#DejaVuSans-97"/>
      <use x="782.332031" xlink:href="#DejaVuSans-103"/>
      <use x="845.808594" xlink:href="#DejaVuSans-101"/>
     </g>
    </g>
   </g>
   <g id="text_7">
    <g id="patch_8">
     <path clip-path="url(#p11733e1105)" d="M 54.498799 106.5735 
L 72.859318 118.807867 
Q 74.107581 119.639636 74.93935 118.391373 
L 77.622671 114.364424 
Q 78.45444 113.116161 77.206177 112.284392 
L 58.845658 100.050025 
Q 57.597395 99.218256 56.765626 100.466519 
L 54.082305 104.493468 
Q 53.250536 105.741731 54.498799 106.5735 
z
" style="fill:#ffffff;stroke:#ffffff;stroke-linejoin:miter;"/>
    </g>
    <g clip-path="url(#p11733e1105)">
     <!-- rdf:value -->
     <g style="fill:#ff0000;" transform="translate(55.907175 104.459904)rotate(-326.322851)scale(0.05 -0.05)">
      <defs>
       <path d="M 2.984375 54.6875 
L 12.5 54.6875 
L 29.59375 8.796875 
L 46.6875 54.6875 
L 56.203125 54.6875 
L 35.6875 0 
L 23.484375 0 
z
" id="DejaVuSans-118"/>
      </defs>
      <use xlink:href="#DejaVuSans-114"/>
      <use x="39.363281" xlink:href="#DejaVuSans-100"/>
      <use x="102.839844" xlink:href="#DejaVuSans-102"/>
      <use x="134.419922" xlink:href="#DejaVuSans-58"/>
      <use x="168.111328" xlink:href="#DejaVuSans-118"/>
      <use x="227.291016" xlink:href="#DejaVuSans-97"/>
      <use x="288.570312" xlink:href="#DejaVuSans-108"/>
      <use x="316.353516" xlink:href="#DejaVuSans-117"/>
      <use x="379.732422" xlink:href="#DejaVuSans-101"/>
     </g>
    </g>
   </g>
   <g id="text_8">
    <g id="patch_9">
     <path clip-path="url(#p11733e1105)" d="M 75.483219 95.868364 
L 80.862678 114.690496 
Q 81.274881 116.132747 82.717132 115.720544 
L 87.369895 114.390762 
Q 88.812147 113.978559 88.399944 112.536308 
L 83.020485 93.714176 
Q 82.608282 92.271925 81.166031 92.684127 
L 76.513268 94.01391 
Q 75.071016 94.426113 75.483219 95.868364 
z
" style="fill:#ffffff;stroke:#ffffff;stroke-linejoin:miter;"/>
    </g>
    <g clip-path="url(#p11733e1105)">
     <!-- rdf:type -->
     <g style="fill:#ff0000;" transform="translate(77.925281 95.170411)rotate(-285.950201)scale(0.05 -0.05)">
      <use xlink:href="#DejaVuSans-114"/>
      <use x="39.363281" xlink:href="#DejaVuSans-100"/>
      <use x="102.839844" xlink:href="#DejaVuSans-102"/>
      <use x="134.419922" xlink:href="#DejaVuSans-58"/>
      <use x="168.111328" xlink:href="#DejaVuSans-116"/>
      <use x="207.320312" xlink:href="#DejaVuSans-121"/>
      <use x="266.5" xlink:href="#DejaVuSans-112"/>
      <use x="329.976562" xlink:href="#DejaVuSans-101"/>
     </g>
    </g>
   </g>
   <g id="text_9">
    <g id="patch_10">
     <path clip-path="url(#p11733e1105)" d="M 65.941553 161.740101 
L 89.724403 131.122254 
Q 90.644565 129.937644 89.459955 129.017481 
L 85.638354 126.048998 
Q 84.453745 125.128836 83.533582 126.313445 
L 59.750732 156.931293 
Q 58.830569 158.115903 60.015179 159.036066 
L 63.83678 162.004549 
Q 65.02139 162.924711 65.941553 161.740101 
z
" style="fill:#ffffff;stroke:#ffffff;stroke-linejoin:miter;"/>
    </g>
    <g clip-path="url(#p11733e1105)">
     <!-- dcterms:format -->
     <g style="fill:#ff0000;" transform="translate(63.935736 160.182055)rotate(-52.161216)scale(0.05 -0.05)">
      <use xlink:href="#DejaVuSans-100"/>
      <use x="63.476562" xlink:href="#DejaVuSans-99"/>
      <use x="118.457031" xlink:href="#DejaVuSans-116"/>
      <use x="157.666016" xlink:href="#DejaVuSans-101"/>
      <use x="219.189453" xlink:href="#DejaVuSans-114"/>
      <use x="258.552734" xlink:href="#DejaVuSans-109"/>
      <use x="355.964844" xlink:href="#DejaVuSans-115"/>
      <use x="408.064453" xlink:href="#DejaVuSans-58"/>
      <use x="441.755859" xlink:href="#DejaVuSans-102"/>
      <use x="476.960938" xlink:href="#DejaVuSans-111"/>
      <use x="538.142578" xlink:href="#DejaVuSans-114"/>
      <use x="577.505859" xlink:href="#DejaVuSans-109"/>
      <use x="674.917969" xlink:href="#DejaVuSans-97"/>
      <use x="736.197266" xlink:href="#DejaVuSans-116"/>
     </g>
    </g>
   </g>
   <g id="text_10">
    <g id="patch_11">
     <path clip-path="url(#p11733e1105)" d="M 44.830354 144.895143 
L 79.704214 133.425001 
Q 81.129121 132.956343 80.660464 131.531436 
L 79.148556 126.934626 
Q 78.679899 125.509719 77.254991 125.978377 
L 42.381131 137.448519 
Q 40.956224 137.917176 41.424881 139.342084 
L 42.936789 143.938893 
Q 43.405447 145.3638 44.830354 144.895143 
z
" style="fill:#ffffff;stroke:#ffffff;stroke-linejoin:miter;"/>
    </g>
    <g clip-path="url(#p11733e1105)">
     <!-- oa:hasPurpose -->
     <g style="fill:#ff0000;" transform="translate(44.036809 142.482449)rotate(-18.206228)scale(0.05 -0.05)">
      <defs>
       <path d="M 19.671875 64.796875 
L 19.671875 37.40625 
L 32.078125 37.40625 
Q 38.96875 37.40625 42.71875 40.96875 
Q 46.484375 44.53125 46.484375 51.125 
Q 46.484375 57.671875 42.71875 61.234375 
Q 38.96875 64.796875 32.078125 64.796875 
z
M 9.8125 72.90625 
L 32.078125 72.90625 
Q 44.34375 72.90625 50.609375 67.359375 
Q 56.890625 61.8125 56.890625 51.125 
Q 56.890625 40.328125 50.609375 34.8125 
Q 44.34375 29.296875 32.078125 29.296875 
L 19.671875 29.296875 
L 19.671875 0 
L 9.8125 0 
z
" id="DejaVuSans-80"/>
      </defs>
      <use xlink:href="#DejaVuSans-111"/>
      <use x="61.181641" xlink:href="#DejaVuSans-97"/>
      <use x="122.460938" xlink:href="#DejaVuSans-58"/>
      <use x="156.152344" xlink:href="#DejaVuSans-104"/>
      <use x="219.53125" xlink:href="#DejaVuSans-97"/>
      <use x="280.810547" xlink:href="#DejaVuSans-115"/>
      <use x="332.910156" xlink:href="#DejaVuSans-80"/>
      <use x="391.462891" xlink:href="#DejaVuSans-117"/>
      <use x="454.841797" xlink:href="#DejaVuSans-114"/>
      <use x="495.955078" xlink:href="#DejaVuSans-112"/>
      <use x="559.431641" xlink:href="#DejaVuSans-111"/>
      <use x="620.613281" xlink:href="#DejaVuSans-115"/>
      <use x="672.712891" xlink:href="#DejaVuSans-101"/>
     </g>
    </g>
   </g>
   <g id="text_11">
    <g id="patch_12">
     <path clip-path="url(#p11733e1105)" d="M 282.902518 205.430506 
L 296.959848 219.054113 
Q 298.036995 220.098026 299.080908 219.020879 
L 302.448615 215.545958 
Q 303.492528 214.468811 302.415381 213.424898 
L 288.35805 199.801291 
Q 287.280903 198.757378 286.23699 199.834525 
L 282.869284 203.309446 
Q 281.825371 204.386593 282.902518 205.430506 
z
" style="fill:#ffffff;stroke:#ffffff;stroke-linejoin:miter;"/>
    </g>
    <g clip-path="url(#p11733e1105)">
     <!-- rdf:type -->
     <g style="fill:#ff0000;" transform="translate(284.670102 203.606649)rotate(-315.897674)scale(0.05 -0.05)">
      <use xlink:href="#DejaVuSans-114"/>
      <use x="39.363281" xlink:href="#DejaVuSans-100"/>
      <use x="102.839844" xlink:href="#DejaVuSans-102"/>
      <use x="134.419922" xlink:href="#DejaVuSans-58"/>
      <use x="168.111328" xlink:href="#DejaVuSans-116"/>
      <use x="207.320312" xlink:href="#DejaVuSans-121"/>
      <use x="266.5" xlink:href="#DejaVuSans-112"/>
      <use x="329.976562" xlink:href="#DejaVuSans-101"/>
     </g>
    </g>
   </g>
   <g id="text_12">
    <g id="patch_13">
     <path clip-path="url(#p11733e1105)" d="M 277.653055 218.411034 
L 278.672102 252.212083 
Q 278.717304 253.711402 280.216623 253.6662 
L 285.053488 253.520376 
Q 286.552806 253.475174 286.507604 251.975855 
L 285.488558 218.174807 
Q 285.443356 216.675488 283.944037 216.72069 
L 279.107172 216.866514 
Q 277.607853 216.911716 277.653055 218.411034 
z
" style="fill:#ffffff;stroke:#ffffff;stroke-linejoin:miter;"/>
    </g>
    <g clip-path="url(#p11733e1105)">
     <!-- oa:hasSource -->
     <g style="fill:#ff0000;" transform="translate(280.191745 218.334497)rotate(-271.726852)scale(0.05 -0.05)">
      <defs>
       <path d="M 53.515625 70.515625 
L 53.515625 60.890625 
Q 47.90625 63.578125 42.921875 64.890625 
Q 37.9375 66.21875 33.296875 66.21875 
Q 25.25 66.21875 20.875 63.09375 
Q 16.5 59.96875 16.5 54.203125 
Q 16.5 49.359375 19.40625 46.890625 
Q 22.3125 44.4375 30.421875 42.921875 
L 36.375 41.703125 
Q 47.40625 39.59375 52.65625 34.296875 
Q 57.90625 29 57.90625 20.125 
Q 57.90625 9.515625 50.796875 4.046875 
Q 43.703125 -1.421875 29.984375 -1.421875 
Q 24.8125 -1.421875 18.96875 -0.25 
Q 13.140625 0.921875 6.890625 3.21875 
L 6.890625 13.375 
Q 12.890625 10.015625 18.65625 8.296875 
Q 24.421875 6.59375 29.984375 6.59375 
Q 38.421875 6.59375 43.015625 9.90625 
Q 47.609375 13.234375 47.609375 19.390625 
Q 47.609375 24.75 44.3125 27.78125 
Q 41.015625 30.8125 33.5 32.328125 
L 27.484375 33.5 
Q 16.453125 35.6875 11.515625 40.375 
Q 6.59375 45.0625 6.59375 53.421875 
Q 6.59375 63.09375 13.40625 68.65625 
Q 20.21875 74.21875 32.171875 74.21875 
Q 37.3125 74.21875 42.625 73.28125 
Q 47.953125 72.359375 53.515625 70.515625 
z
" id="DejaVuSans-83"/>
      </defs>
      <use xlink:href="#DejaVuSans-111"/>
      <use x="61.181641" xlink:href="#DejaVuSans-97"/>
      <use x="122.460938" xlink:href="#DejaVuSans-58"/>
      <use x="156.152344" xlink:href="#DejaVuSans-104"/>
      <use x="219.53125" xlink:href="#DejaVuSans-97"/>
      <use x="280.810547" xlink:href="#DejaVuSans-115"/>
      <use x="332.910156" xlink:href="#DejaVuSans-83"/>
      <use x="396.386719" xlink:href="#DejaVuSans-111"/>
      <use x="457.568359" xlink:href="#DejaVuSans-117"/>
      <use x="520.947266" xlink:href="#DejaVuSans-114"/>
      <use x="559.810547" xlink:href="#DejaVuSans-99"/>
      <use x="614.791016" xlink:href="#DejaVuSans-101"/>
     </g>
    </g>
   </g>
   <g id="text_13">
    <g id="patch_14">
     <path clip-path="url(#p11733e1105)" d="M 309.180546 199.443003 
L 346.344396 198.161534 
Q 347.843505 198.109842 347.791813 196.610733 
L 347.625054 191.774545 
Q 347.573362 190.275436 346.074253 190.327128 
L 308.910403 191.608597 
Q 307.411294 191.660289 307.462985 193.159398 
L 307.629745 197.995586 
Q 307.681437 199.494695 309.180546 199.443003 
z
" style="fill:#ffffff;stroke:#ffffff;stroke-linejoin:miter;"/>
    </g>
    <g clip-path="url(#p11733e1105)">
     <!-- oa:hasSelector -->
     <g style="fill:#ff0000;" transform="translate(309.09302 196.904668)rotate(-1.974868)scale(0.05 -0.05)">
      <use xlink:href="#DejaVuSans-111"/>
      <use x="61.181641" xlink:href="#DejaVuSans-97"/>
      <use x="122.460938" xlink:href="#DejaVuSans-58"/>
      <use x="156.152344" xlink:href="#DejaVuSans-104"/>
      <use x="219.53125" xlink:href="#DejaVuSans-97"/>
      <use x="280.810547" xlink:href="#DejaVuSans-115"/>
      <use x="332.910156" xlink:href="#DejaVuSans-83"/>
      <use x="396.386719" xlink:href="#DejaVuSans-101"/>
      <use x="457.910156" xlink:href="#DejaVuSans-108"/>
      <use x="485.693359" xlink:href="#DejaVuSans-101"/>
      <use x="547.216797" xlink:href="#DejaVuSans-99"/>
      <use x="602.197266" xlink:href="#DejaVuSans-116"/>
      <use x="641.40625" xlink:href="#DejaVuSans-111"/>
      <use x="702.587891" xlink:href="#DejaVuSans-114"/>
     </g>
    </g>
   </g>
   <g id="text_14">
    <g id="patch_15">
     <path clip-path="url(#p11733e1105)" d="M 282.438073 199.333433 
L 308.595492 170.717599 
Q 309.607527 169.610447 308.500375 168.598412 
L 304.928658 165.333544 
Q 303.821506 164.321509 302.809471 165.428661 
L 276.652052 194.044496 
Q 275.640017 195.151647 276.747169 196.163682 
L 280.318886 199.42855 
Q 281.426038 200.440585 282.438073 199.333433 
z
" style="fill:#ffffff;stroke:#ffffff;stroke-linejoin:miter;"/>
    </g>
    <g clip-path="url(#p11733e1105)">
     <!-- dcterms:format -->
     <g style="fill:#ff0000;" transform="translate(280.563412 197.619826)rotate(-47.569911)scale(0.05 -0.05)">
      <use xlink:href="#DejaVuSans-100"/>
      <use x="63.476562" xlink:href="#DejaVuSans-99"/>
      <use x="118.457031" xlink:href="#DejaVuSans-116"/>
      <use x="157.666016" xlink:href="#DejaVuSans-101"/>
      <use x="219.189453" xlink:href="#DejaVuSans-114"/>
      <use x="258.552734" xlink:href="#DejaVuSans-109"/>
      <use x="355.964844" xlink:href="#DejaVuSans-115"/>
      <use x="408.064453" xlink:href="#DejaVuSans-58"/>
      <use x="441.755859" xlink:href="#DejaVuSans-102"/>
      <use x="476.960938" xlink:href="#DejaVuSans-111"/>
      <use x="538.142578" xlink:href="#DejaVuSans-114"/>
      <use x="577.505859" xlink:href="#DejaVuSans-109"/>
      <use x="674.917969" xlink:href="#DejaVuSans-97"/>
      <use x="736.197266" xlink:href="#DejaVuSans-116"/>
     </g>
    </g>
   </g>
   <g id="text_15">
    <g id="patch_16">
     <path clip-path="url(#p11733e1105)" d="M 375.051353 195.477102 
L 416.591824 166.601495 
Q 417.823489 165.745341 416.967334 164.513676 
L 414.205343 160.540273 
Q 413.349188 159.308608 412.117523 160.164762 
L 370.577052 189.040369 
Q 369.345387 189.896524 370.201542 191.128189 
L 372.963533 195.101592 
Q 373.819688 196.333257 375.051353 195.477102 
z
" style="fill:#ffffff;stroke:#ffffff;stroke-linejoin:miter;"/>
    </g>
    <g clip-path="url(#p11733e1105)">
     <!-- dcterms:conformsTo -->
     <g style="fill:#ff0000;" transform="translate(373.601687 193.391611)rotate(-34.803931)scale(0.05 -0.05)">
      <use xlink:href="#DejaVuSans-100"/>
      <use x="63.476562" xlink:href="#DejaVuSans-99"/>
      <use x="118.457031" xlink:href="#DejaVuSans-116"/>
      <use x="157.666016" xlink:href="#DejaVuSans-101"/>
      <use x="219.189453" xlink:href="#DejaVuSans-114"/>
      <use x="258.552734" xlink:href="#DejaVuSans-109"/>
      <use x="355.964844" xlink:href="#DejaVuSans-115"/>
      <use x="408.064453" xlink:href="#DejaVuSans-58"/>
      <use x="441.755859" xlink:href="#DejaVuSans-99"/>
      <use x="496.736328" xlink:href="#DejaVuSans-111"/>
      <use x="557.917969" xlink:href="#DejaVuSans-110"/>
      <use x="621.296875" xlink:href="#DejaVuSans-102"/>
      <use x="656.501953" xlink:href="#DejaVuSans-111"/>
      <use x="717.683594" xlink:href="#DejaVuSans-114"/>
      <use x="757.046875" xlink:href="#DejaVuSans-109"/>
      <use x="854.458984" xlink:href="#DejaVuSans-115"/>
      <use x="906.558594" xlink:href="#DejaVuSans-84"/>
      <use x="950.642578" xlink:href="#DejaVuSans-111"/>
     </g>
    </g>
   </g>
   <g id="text_16">
    <g id="patch_17">
     <path clip-path="url(#p11733e1105)" d="M 391.259784 196.124655 
L 413.303833 195.203629 
Q 414.802525 195.141012 414.739908 193.64232 
L 414.537903 188.807475 
Q 414.475286 187.308783 412.976593 187.3714 
L 390.932544 188.292425 
Q 389.433852 188.355043 389.496469 189.853735 
L 389.698474 194.688579 
Q 389.761091 196.187272 391.259784 196.124655 
z
" style="fill:#ffffff;stroke:#ffffff;stroke-linejoin:miter;"/>
    </g>
    <g clip-path="url(#p11733e1105)">
     <!-- rdf:value -->
     <g style="fill:#ff0000;" transform="translate(391.153759 193.587025)rotate(-2.392492)scale(0.05 -0.05)">
      <use xlink:href="#DejaVuSans-114"/>
      <use x="39.363281" xlink:href="#DejaVuSans-100"/>
      <use x="102.839844" xlink:href="#DejaVuSans-102"/>
      <use x="134.419922" xlink:href="#DejaVuSans-58"/>
      <use x="168.111328" xlink:href="#DejaVuSans-118"/>
      <use x="227.291016" xlink:href="#DejaVuSans-97"/>
      <use x="288.570312" xlink:href="#DejaVuSans-108"/>
      <use x="316.353516" xlink:href="#DejaVuSans-117"/>
      <use x="379.732422" xlink:href="#DejaVuSans-101"/>
     </g>
    </g>
   </g>
   <g id="text_17">
    <g id="patch_18">
     <path clip-path="url(#p11733e1105)" d="M 385.395226 205.086025 
L 402.629652 214.369654 
Q 403.950245 215.081015 404.661606 213.760422 
L 406.956485 209.500134 
Q 407.667846 208.179541 406.347253 207.46818 
L 389.112827 198.184551 
Q 387.792234 197.47319 387.080874 198.793783 
L 384.785994 203.054071 
Q 384.074633 204.374664 385.395226 205.086025 
z
" style="fill:#ffffff;stroke:#ffffff;stroke-linejoin:miter;"/>
    </g>
    <g clip-path="url(#p11733e1105)">
     <!-- rdf:type -->
     <g style="fill:#ff0000;" transform="translate(386.599723 202.849958)rotate(-331.690086)scale(0.05 -0.05)">
      <use xlink:href="#DejaVuSans-114"/>
      <use x="39.363281" xlink:href="#DejaVuSans-100"/>
      <use x="102.839844" xlink:href="#DejaVuSans-102"/>
      <use x="134.419922" xlink:href="#DejaVuSans-58"/>
      <use x="168.111328" xlink:href="#DejaVuSans-116"/>
      <use x="207.320312" xlink:href="#DejaVuSans-121"/>
      <use x="266.5" xlink:href="#DejaVuSans-112"/>
      <use x="329.976562" xlink:href="#DejaVuSans-101"/>
     </g>
    </g>
   </g>
   <g id="text_18">
    <g id="patch_19">
     <path clip-path="url(#p11733e1105)" d="M 224.310705 73.058736 
L 231.632444 54.903755 
Q 232.193475 53.512624 230.802344 52.951594 
L 226.314498 51.141686 
Q 224.923367 50.580656 224.362337 51.971787 
L 217.040597 70.126768 
Q 216.479567 71.517898 217.870698 72.078929 
L 222.358544 73.888837 
Q 223.749674 74.449867 224.310705 73.058736 
z
" style="fill:#ffffff;stroke:#ffffff;stroke-linejoin:miter;"/>
    </g>
    <g clip-path="url(#p11733e1105)">
     <!-- rdf:type -->
     <g style="fill:#ff0000;" transform="translate(221.955202 72.108783)rotate(-68.036226)scale(0.05 -0.05)">
      <use xlink:href="#DejaVuSans-114"/>
      <use x="39.363281" xlink:href="#DejaVuSans-100"/>
      <use x="102.839844" xlink:href="#DejaVuSans-102"/>
      <use x="134.419922" xlink:href="#DejaVuSans-58"/>
      <use x="168.111328" xlink:href="#DejaVuSans-116"/>
      <use x="207.320312" xlink:href="#DejaVuSans-121"/>
      <use x="266.5" xlink:href="#DejaVuSans-112"/>
      <use x="329.976562" xlink:href="#DejaVuSans-101"/>
     </g>
    </g>
   </g>
   <g id="text_19">
    <g id="patch_20">
     <path clip-path="url(#p11733e1105)" d="M 290.664172 287.257468 
L 305.554826 299.964933 
Q 306.695826 300.938646 307.66954 299.797645 
L 310.810779 296.116729 
Q 311.784492 294.975729 310.643491 294.002015 
L 295.752838 281.294551 
Q 294.611837 280.320838 293.638124 281.461839 
L 290.496885 285.142754 
Q 289.523171 286.283755 290.664172 287.257468 
z
" style="fill:#ffffff;stroke:#ffffff;stroke-linejoin:miter;"/>
    </g>
    <g clip-path="url(#p11733e1105)">
     <!-- rdf:type -->
     <g style="fill:#ff0000;" transform="translate(292.312892 285.325493)rotate(-319.523047)scale(0.05 -0.05)">
      <use xlink:href="#DejaVuSans-114"/>
      <use x="39.363281" xlink:href="#DejaVuSans-100"/>
      <use x="102.839844" xlink:href="#DejaVuSans-102"/>
      <use x="134.419922" xlink:href="#DejaVuSans-58"/>
      <use x="168.111328" xlink:href="#DejaVuSans-116"/>
      <use x="207.320312" xlink:href="#DejaVuSans-121"/>
      <use x="266.5" xlink:href="#DejaVuSans-112"/>
      <use x="329.976562" xlink:href="#DejaVuSans-101"/>
     </g>
    </g>
   </g>
   <g id="text_20">
    <g id="patch_21">
     <path clip-path="url(#p11733e1105)" d="M 262.165217 299.986053 
L 276.646314 286.813769 
Q 277.755932 285.804439 276.746602 284.694821 
L 273.490461 281.115146 
Q 272.481131 280.005528 271.371512 281.014858 
L 256.890416 294.187141 
Q 255.780798 295.196472 256.790128 296.30609 
L 260.046269 299.885765 
Q 261.055599 300.995383 262.165217 299.986053 
z
" style="fill:#ffffff;stroke:#ffffff;stroke-linejoin:miter;"/>
    </g>
    <g clip-path="url(#p11733e1105)">
     <!-- rdf:type -->
     <g style="fill:#ff0000;" transform="translate(260.45619 298.107215)rotate(-42.290258)scale(0.05 -0.05)">
      <use xlink:href="#DejaVuSans-114"/>
      <use x="39.363281" xlink:href="#DejaVuSans-100"/>
      <use x="102.839844" xlink:href="#DejaVuSans-102"/>
      <use x="134.419922" xlink:href="#DejaVuSans-58"/>
      <use x="168.111328" xlink:href="#DejaVuSans-116"/>
      <use x="207.320312" xlink:href="#DejaVuSans-121"/>
      <use x="266.5" xlink:href="#DejaVuSans-112"/>
      <use x="329.976562" xlink:href="#DejaVuSans-101"/>
     </g>
    </g>
   </g>
   <g id="text_21">
    <g id="patch_22">
     <path clip-path="url(#p11733e1105)" d="M 279.596473 287.607498 
L 280.31852 307.169959 
Q 280.373847 308.668938 281.872827 308.613611 
L 286.708596 308.435123 
Q 288.207576 308.379796 288.152249 306.880817 
L 287.430201 287.318357 
Q 287.374874 285.819377 285.875895 285.874704 
L 281.040125 286.053192 
Q 279.541146 286.108519 279.596473 287.607498 
z
" style="fill:#ffffff;stroke:#ffffff;stroke-linejoin:miter;"/>
    </g>
    <g clip-path="url(#p11733e1105)">
     <!-- rdf:type -->
     <g style="fill:#ff0000;" transform="translate(282.134588 287.513817)rotate(-272.113819)scale(0.05 -0.05)">
      <use xlink:href="#DejaVuSans-114"/>
      <use x="39.363281" xlink:href="#DejaVuSans-100"/>
      <use x="102.839844" xlink:href="#DejaVuSans-102"/>
      <use x="134.419922" xlink:href="#DejaVuSans-58"/>
      <use x="168.111328" xlink:href="#DejaVuSans-116"/>
      <use x="207.320312" xlink:href="#DejaVuSans-121"/>
      <use x="266.5" xlink:href="#DejaVuSans-112"/>
      <use x="329.976562" xlink:href="#DejaVuSans-101"/>
     </g>
    </g>
   </g>
   <g id="PathCollection_1">
    <defs>
     <path d="M 0 1.732051 
C 0.459345 1.732051 0.899939 1.549551 1.224745 1.224745 
C 1.549551 0.899939 1.732051 0.459345 1.732051 0 
C 1.732051 -0.459345 1.549551 -0.899939 1.224745 -1.224745 
C 0.899939 -1.549551 0.459345 -1.732051 0 -1.732051 
C -0.459345 -1.732051 -0.899939 -1.549551 -1.224745 -1.224745 
C -1.549551 -0.899939 -1.732051 -0.459345 -1.732051 0 
C -1.732051 0.459345 -1.549551 0.899939 -1.224745 1.224745 
C -0.899939 1.549551 -0.459345 1.732051 0 1.732051 
z
" id="mf149d78e43" style="stroke:#90ee90;"/>
    </defs>
    <g clip-path="url(#p11733e1105)">
     <use style="fill:#90ee90;stroke:#90ee90;" x="191.253395" xlink:href="#mf149d78e43" y="140.45666"/>
     <use style="fill:#90ee90;stroke:#90ee90;" x="180.343073" xlink:href="#mf149d78e43" y="106.337562"/>
     <use style="fill:#90ee90;stroke:#90ee90;" x="87.35714" xlink:href="#mf149d78e43" y="125.64333"/>
     <use style="fill:#90ee90;stroke:#90ee90;" x="30.763636" xlink:href="#mf149d78e43" y="118.277209"/>
     <use style="fill:#90ee90;stroke:#90ee90;" x="281.054786" xlink:href="#mf149d78e43" y="196.70221"/>
     <use style="fill:#90ee90;stroke:#90ee90;" x="304.263113" xlink:href="#mf149d78e43" y="222.153193"/>
     <use style="fill:#90ee90;stroke:#90ee90;" x="374.200013" xlink:href="#mf149d78e43" y="193.067921"/>
     <use style="fill:#90ee90;stroke:#90ee90;" x="412.968862" xlink:href="#mf149d78e43" y="162.573944"/>
     <use style="fill:#90ee90;stroke:#90ee90;" x="216.624252" xlink:href="#mf149d78e43" y="84.154159"/>
     <use style="fill:#90ee90;stroke:#90ee90;" x="232.04879" xlink:href="#mf149d78e43" y="40.876364"/>
     <use style="fill:#90ee90;stroke:#90ee90;" x="44.347836" xlink:href="#mf149d78e43" y="93.214562"/>
     <use style="fill:#90ee90;stroke:#90ee90;" x="283.105874" xlink:href="#mf149d78e43" y="273.684679"/>
     <use style="fill:#90ee90;stroke:#90ee90;" x="318.20179" xlink:href="#mf149d78e43" y="307.574805"/>
     <use style="fill:#90ee90;stroke:#90ee90;" x="250.430856" xlink:href="#mf149d78e43" y="307.316232"/>
     <use style="fill:#90ee90;stroke:#90ee90;" x="164.243395" xlink:href="#mf149d78e43" y="161.692661"/>
     <use style="fill:#90ee90;stroke:#90ee90;" x="430.036364" xlink:href="#mf149d78e43" y="190.428134"/>
     <use style="fill:#90ee90;stroke:#90ee90;" x="417.542466" xlink:href="#mf149d78e43" y="219.486284"/>
     <use style="fill:#90ee90;stroke:#90ee90;" x="284.642848" xlink:href="#mf149d78e43" y="320.803636"/>
     <use style="fill:#90ee90;stroke:#90ee90;" x="304.192758" xlink:href="#mf149d78e43" y="168.059884"/>
     <use style="fill:#90ee90;stroke:#90ee90;" x="76.526023" xlink:href="#mf149d78e43" y="82.761342"/>
     <use style="fill:#90ee90;stroke:#90ee90;" x="62.117994" xlink:href="#mf149d78e43" y="162.410217"/>
     <use style="fill:#90ee90;stroke:#90ee90;" x="34.728205" xlink:href="#mf149d78e43" y="145.23019"/>
    </g>
   </g>
   <g id="text_22">
    <g clip-path="url(#p11733e1105)">
     <!-- anno:59c105cc-0aaf-44a4-a1fc-70bc1ff5c1f0 -->
     <g transform="translate(134.897145 141.836347)scale(0.05 -0.05)">
      <defs>
       <path d="M 10.796875 72.90625 
L 49.515625 72.90625 
L 49.515625 64.59375 
L 19.828125 64.59375 
L 19.828125 46.734375 
Q 21.96875 47.46875 24.109375 47.828125 
Q 26.265625 48.1875 28.421875 48.1875 
Q 40.625 48.1875 47.75 41.5 
Q 54.890625 34.8125 54.890625 23.390625 
Q 54.890625 11.625 47.5625 5.09375 
Q 40.234375 -1.421875 26.90625 -1.421875 
Q 22.3125 -1.421875 17.546875 -0.640625 
Q 12.796875 0.140625 7.71875 1.703125 
L 7.71875 11.625 
Q 12.109375 9.234375 16.796875 8.0625 
Q 21.484375 6.890625 26.703125 6.890625 
Q 35.15625 6.890625 40.078125 11.328125 
Q 45.015625 15.765625 45.015625 23.390625 
Q 45.015625 31 40.078125 35.4375 
Q 35.15625 39.890625 26.703125 39.890625 
Q 22.75 39.890625 18.8125 39.015625 
Q 14.890625 38.140625 10.796875 36.28125 
z
" id="DejaVuSans-53"/>
       <path d="M 10.984375 1.515625 
L 10.984375 10.5 
Q 14.703125 8.734375 18.5 7.8125 
Q 22.3125 6.890625 25.984375 6.890625 
Q 35.75 6.890625 40.890625 13.453125 
Q 46.046875 20.015625 46.78125 33.40625 
Q 43.953125 29.203125 39.59375 26.953125 
Q 35.25 24.703125 29.984375 24.703125 
Q 19.046875 24.703125 12.671875 31.3125 
Q 6.296875 37.9375 6.296875 49.421875 
Q 6.296875 60.640625 12.9375 67.421875 
Q 19.578125 74.21875 30.609375 74.21875 
Q 43.265625 74.21875 49.921875 64.515625 
Q 56.59375 54.828125 56.59375 36.375 
Q 56.59375 19.140625 48.40625 8.859375 
Q 40.234375 -1.421875 26.421875 -1.421875 
Q 22.703125 -1.421875 18.890625 -0.6875 
Q 15.09375 0.046875 10.984375 1.515625 
z
M 30.609375 32.421875 
Q 37.25 32.421875 41.125 36.953125 
Q 45.015625 41.5 45.015625 49.421875 
Q 45.015625 57.28125 41.125 61.84375 
Q 37.25 66.40625 30.609375 66.40625 
Q 23.96875 66.40625 20.09375 61.84375 
Q 16.21875 57.28125 16.21875 49.421875 
Q 16.21875 41.5 20.09375 36.953125 
Q 23.96875 32.421875 30.609375 32.421875 
z
" id="DejaVuSans-57"/>
       <path d="M 12.40625 8.296875 
L 28.515625 8.296875 
L 28.515625 63.921875 
L 10.984375 60.40625 
L 10.984375 69.390625 
L 28.421875 72.90625 
L 38.28125 72.90625 
L 38.28125 8.296875 
L 54.390625 8.296875 
L 54.390625 0 
L 12.40625 0 
z
" id="DejaVuSans-49"/>
       <path d="M 31.78125 66.40625 
Q 24.171875 66.40625 20.328125 58.90625 
Q 16.5 51.421875 16.5 36.375 
Q 16.5 21.390625 20.328125 13.890625 
Q 24.171875 6.390625 31.78125 6.390625 
Q 39.453125 6.390625 43.28125 13.890625 
Q 47.125 21.390625 47.125 36.375 
Q 47.125 51.421875 43.28125 58.90625 
Q 39.453125 66.40625 31.78125 66.40625 
z
M 31.78125 74.21875 
Q 44.046875 74.21875 50.515625 64.515625 
Q 56.984375 54.828125 56.984375 36.375 
Q 56.984375 17.96875 50.515625 8.265625 
Q 44.046875 -1.421875 31.78125 -1.421875 
Q 19.53125 -1.421875 13.0625 8.265625 
Q 6.59375 17.96875 6.59375 36.375 
Q 6.59375 54.828125 13.0625 64.515625 
Q 19.53125 74.21875 31.78125 74.21875 
z
" id="DejaVuSans-48"/>
       <path d="M 4.890625 31.390625 
L 31.203125 31.390625 
L 31.203125 23.390625 
L 4.890625 23.390625 
z
" id="DejaVuSans-45"/>
       <path d="M 37.796875 64.3125 
L 12.890625 25.390625 
L 37.796875 25.390625 
z
M 35.203125 72.90625 
L 47.609375 72.90625 
L 47.609375 25.390625 
L 58.015625 25.390625 
L 58.015625 17.1875 
L 47.609375 17.1875 
L 47.609375 0 
L 37.796875 0 
L 37.796875 17.1875 
L 4.890625 17.1875 
L 4.890625 26.703125 
z
" id="DejaVuSans-52"/>
       <path d="M 8.203125 72.90625 
L 55.078125 72.90625 
L 55.078125 68.703125 
L 28.609375 0 
L 18.3125 0 
L 43.21875 64.59375 
L 8.203125 64.59375 
z
" id="DejaVuSans-55"/>
       <path d="M 48.6875 27.296875 
Q 48.6875 37.203125 44.609375 42.84375 
Q 40.53125 48.484375 33.40625 48.484375 
Q 26.265625 48.484375 22.1875 42.84375 
Q 18.109375 37.203125 18.109375 27.296875 
Q 18.109375 17.390625 22.1875 11.75 
Q 26.265625 6.109375 33.40625 6.109375 
Q 40.53125 6.109375 44.609375 11.75 
Q 48.6875 17.390625 48.6875 27.296875 
z
M 18.109375 46.390625 
Q 20.953125 51.265625 25.265625 53.625 
Q 29.59375 56 35.59375 56 
Q 45.5625 56 51.78125 48.09375 
Q 58.015625 40.1875 58.015625 27.296875 
Q 58.015625 14.40625 51.78125 6.484375 
Q 45.5625 -1.421875 35.59375 -1.421875 
Q 29.59375 -1.421875 25.265625 0.953125 
Q 20.953125 3.328125 18.109375 8.203125 
L 18.109375 0 
L 9.078125 0 
L 9.078125 75.984375 
L 18.109375 75.984375 
z
" id="DejaVuSans-98"/>
      </defs>
      <use xlink:href="#DejaVuSans-97"/>
      <use x="61.279297" xlink:href="#DejaVuSans-110"/>
      <use x="124.658203" xlink:href="#DejaVuSans-110"/>
      <use x="188.037109" xlink:href="#DejaVuSans-111"/>
      <use x="249.21875" xlink:href="#DejaVuSans-58"/>
      <use x="282.910156" xlink:href="#DejaVuSans-53"/>
      <use x="346.533203" xlink:href="#DejaVuSans-57"/>
      <use x="410.15625" xlink:href="#DejaVuSans-99"/>
      <use x="465.136719" xlink:href="#DejaVuSans-49"/>
      <use x="528.759766" xlink:href="#DejaVuSans-48"/>
      <use x="592.382812" xlink:href="#DejaVuSans-53"/>
      <use x="656.005859" xlink:href="#DejaVuSans-99"/>
      <use x="710.986328" xlink:href="#DejaVuSans-99"/>
      <use x="765.966797" xlink:href="#DejaVuSans-45"/>
      <use x="802.050781" xlink:href="#DejaVuSans-48"/>
      <use x="865.673828" xlink:href="#DejaVuSans-97"/>
      <use x="926.953125" xlink:href="#DejaVuSans-97"/>
      <use x="988.232422" xlink:href="#DejaVuSans-102"/>
      <use x="1017.9375" xlink:href="#DejaVuSans-45"/>
      <use x="1054.021484" xlink:href="#DejaVuSans-52"/>
      <use x="1117.644531" xlink:href="#DejaVuSans-52"/>
      <use x="1181.267578" xlink:href="#DejaVuSans-97"/>
      <use x="1242.546875" xlink:href="#DejaVuSans-52"/>
      <use x="1306.169922" xlink:href="#DejaVuSans-45"/>
      <use x="1342.253906" xlink:href="#DejaVuSans-97"/>
      <use x="1403.533203" xlink:href="#DejaVuSans-49"/>
      <use x="1467.15625" xlink:href="#DejaVuSans-102"/>
      <use x="1502.361328" xlink:href="#DejaVuSans-99"/>
      <use x="1557.341797" xlink:href="#DejaVuSans-45"/>
      <use x="1593.425781" xlink:href="#DejaVuSans-55"/>
      <use x="1657.048828" xlink:href="#DejaVuSans-48"/>
      <use x="1720.671875" xlink:href="#DejaVuSans-98"/>
      <use x="1784.148438" xlink:href="#DejaVuSans-99"/>
      <use x="1839.128906" xlink:href="#DejaVuSans-49"/>
      <use x="1902.751953" xlink:href="#DejaVuSans-102"/>
      <use x="1937.957031" xlink:href="#DejaVuSans-102"/>
      <use x="1973.162109" xlink:href="#DejaVuSans-53"/>
      <use x="2036.785156" xlink:href="#DejaVuSans-99"/>
      <use x="2091.765625" xlink:href="#DejaVuSans-49"/>
      <use x="2155.388672" xlink:href="#DejaVuSans-102"/>
      <use x="2190.59375" xlink:href="#DejaVuSans-48"/>
     </g>
    </g>
   </g>
   <g id="text_23">
    <g clip-path="url(#p11733e1105)">
     <!-- "2017-09-21" -->
     <g transform="translate(163.514167 107.717249)scale(0.05 -0.05)">
      <defs>
       <path d="M 17.921875 72.90625 
L 17.921875 45.796875 
L 9.625 45.796875 
L 9.625 72.90625 
z
M 36.375 72.90625 
L 36.375 45.796875 
L 28.078125 45.796875 
L 28.078125 72.90625 
z
" id="DejaVuSans-34"/>
       <path d="M 19.1875 8.296875 
L 53.609375 8.296875 
L 53.609375 0 
L 7.328125 0 
L 7.328125 8.296875 
Q 12.9375 14.109375 22.625 23.890625 
Q 32.328125 33.6875 34.8125 36.53125 
Q 39.546875 41.84375 41.421875 45.53125 
Q 43.3125 49.21875 43.3125 52.78125 
Q 43.3125 58.59375 39.234375 62.25 
Q 35.15625 65.921875 28.609375 65.921875 
Q 23.96875 65.921875 18.8125 64.3125 
Q 13.671875 62.703125 7.8125 59.421875 
L 7.8125 69.390625 
Q 13.765625 71.78125 18.9375 73 
Q 24.125 74.21875 28.421875 74.21875 
Q 39.75 74.21875 46.484375 68.546875 
Q 53.21875 62.890625 53.21875 53.421875 
Q 53.21875 48.921875 51.53125 44.890625 
Q 49.859375 40.875 45.40625 35.40625 
Q 44.1875 33.984375 37.640625 27.21875 
Q 31.109375 20.453125 19.1875 8.296875 
z
" id="DejaVuSans-50"/>
      </defs>
      <use xlink:href="#DejaVuSans-34"/>
      <use x="45.996094" xlink:href="#DejaVuSans-50"/>
      <use x="109.619141" xlink:href="#DejaVuSans-48"/>
      <use x="173.242188" xlink:href="#DejaVuSans-49"/>
      <use x="236.865234" xlink:href="#DejaVuSans-55"/>
      <use x="300.488281" xlink:href="#DejaVuSans-45"/>
      <use x="336.572266" xlink:href="#DejaVuSans-48"/>
      <use x="400.195312" xlink:href="#DejaVuSans-57"/>
      <use x="463.818359" xlink:href="#DejaVuSans-45"/>
      <use x="499.902344" xlink:href="#DejaVuSans-50"/>
      <use x="563.525391" xlink:href="#DejaVuSans-49"/>
      <use x="627.148438" xlink:href="#DejaVuSans-34"/>
     </g>
    </g>
   </g>
   <g id="text_24">
    <g clip-path="url(#p11733e1105)">
     <!-- _:f90b84a7bccef405db0b2c0e36c63ff58b1 -->
     <g transform="translate(33.483703 126.953486)scale(0.05 -0.05)">
      <defs>
       <path d="M 50.984375 -16.609375 
L 50.984375 -23.578125 
L -0.984375 -23.578125 
L -0.984375 -16.609375 
z
" id="DejaVuSans-95"/>
       <path d="M 31.78125 34.625 
Q 24.75 34.625 20.71875 30.859375 
Q 16.703125 27.09375 16.703125 20.515625 
Q 16.703125 13.921875 20.71875 10.15625 
Q 24.75 6.390625 31.78125 6.390625 
Q 38.8125 6.390625 42.859375 10.171875 
Q 46.921875 13.96875 46.921875 20.515625 
Q 46.921875 27.09375 42.890625 30.859375 
Q 38.875 34.625 31.78125 34.625 
z
M 21.921875 38.8125 
Q 15.578125 40.375 12.03125 44.71875 
Q 8.5 49.078125 8.5 55.328125 
Q 8.5 64.0625 14.71875 69.140625 
Q 20.953125 74.21875 31.78125 74.21875 
Q 42.671875 74.21875 48.875 69.140625 
Q 55.078125 64.0625 55.078125 55.328125 
Q 55.078125 49.078125 51.53125 44.71875 
Q 48 40.375 41.703125 38.8125 
Q 48.828125 37.15625 52.796875 32.3125 
Q 56.78125 27.484375 56.78125 20.515625 
Q 56.78125 9.90625 50.3125 4.234375 
Q 43.84375 -1.421875 31.78125 -1.421875 
Q 19.734375 -1.421875 13.25 4.234375 
Q 6.78125 9.90625 6.78125 20.515625 
Q 6.78125 27.484375 10.78125 32.3125 
Q 14.796875 37.15625 21.921875 38.8125 
z
M 18.3125 54.390625 
Q 18.3125 48.734375 21.84375 45.5625 
Q 25.390625 42.390625 31.78125 42.390625 
Q 38.140625 42.390625 41.71875 45.5625 
Q 45.3125 48.734375 45.3125 54.390625 
Q 45.3125 60.0625 41.71875 63.234375 
Q 38.140625 66.40625 31.78125 66.40625 
Q 25.390625 66.40625 21.84375 63.234375 
Q 18.3125 60.0625 18.3125 54.390625 
z
" id="DejaVuSans-56"/>
       <path d="M 40.578125 39.3125 
Q 47.65625 37.796875 51.625 33 
Q 55.609375 28.21875 55.609375 21.1875 
Q 55.609375 10.40625 48.1875 4.484375 
Q 40.765625 -1.421875 27.09375 -1.421875 
Q 22.515625 -1.421875 17.65625 -0.515625 
Q 12.796875 0.390625 7.625 2.203125 
L 7.625 11.71875 
Q 11.71875 9.328125 16.59375 8.109375 
Q 21.484375 6.890625 26.8125 6.890625 
Q 36.078125 6.890625 40.9375 10.546875 
Q 45.796875 14.203125 45.796875 21.1875 
Q 45.796875 27.640625 41.28125 31.265625 
Q 36.765625 34.90625 28.71875 34.90625 
L 20.21875 34.90625 
L 20.21875 43.015625 
L 29.109375 43.015625 
Q 36.375 43.015625 40.234375 45.921875 
Q 44.09375 48.828125 44.09375 54.296875 
Q 44.09375 59.90625 40.109375 62.90625 
Q 36.140625 65.921875 28.71875 65.921875 
Q 24.65625 65.921875 20.015625 65.03125 
Q 15.375 64.15625 9.8125 62.3125 
L 9.8125 71.09375 
Q 15.4375 72.65625 20.34375 73.4375 
Q 25.25 74.21875 29.59375 74.21875 
Q 40.828125 74.21875 47.359375 69.109375 
Q 53.90625 64.015625 53.90625 55.328125 
Q 53.90625 49.265625 50.4375 45.09375 
Q 46.96875 40.921875 40.578125 39.3125 
z
" id="DejaVuSans-51"/>
       <path d="M 33.015625 40.375 
Q 26.375 40.375 22.484375 35.828125 
Q 18.609375 31.296875 18.609375 23.390625 
Q 18.609375 15.53125 22.484375 10.953125 
Q 26.375 6.390625 33.015625 6.390625 
Q 39.65625 6.390625 43.53125 10.953125 
Q 47.40625 15.53125 47.40625 23.390625 
Q 47.40625 31.296875 43.53125 35.828125 
Q 39.65625 40.375 33.015625 40.375 
z
M 52.59375 71.296875 
L 52.59375 62.3125 
Q 48.875 64.0625 45.09375 64.984375 
Q 41.3125 65.921875 37.59375 65.921875 
Q 27.828125 65.921875 22.671875 59.328125 
Q 17.53125 52.734375 16.796875 39.40625 
Q 19.671875 43.65625 24.015625 45.921875 
Q 28.375 48.1875 33.59375 48.1875 
Q 44.578125 48.1875 50.953125 41.515625 
Q 57.328125 34.859375 57.328125 23.390625 
Q 57.328125 12.15625 50.6875 5.359375 
Q 44.046875 -1.421875 33.015625 -1.421875 
Q 20.359375 -1.421875 13.671875 8.265625 
Q 6.984375 17.96875 6.984375 36.375 
Q 6.984375 53.65625 15.1875 63.9375 
Q 23.390625 74.21875 37.203125 74.21875 
Q 40.921875 74.21875 44.703125 73.484375 
Q 48.484375 72.75 52.59375 71.296875 
z
" id="DejaVuSans-54"/>
      </defs>
      <use xlink:href="#DejaVuSans-95"/>
      <use x="50" xlink:href="#DejaVuSans-58"/>
      <use x="83.691406" xlink:href="#DejaVuSans-102"/>
      <use x="118.896484" xlink:href="#DejaVuSans-57"/>
      <use x="182.519531" xlink:href="#DejaVuSans-48"/>
      <use x="246.142578" xlink:href="#DejaVuSans-98"/>
      <use x="309.619141" xlink:href="#DejaVuSans-56"/>
      <use x="373.242188" xlink:href="#DejaVuSans-52"/>
      <use x="436.865234" xlink:href="#DejaVuSans-97"/>
      <use x="498.144531" xlink:href="#DejaVuSans-55"/>
      <use x="561.767578" xlink:href="#DejaVuSans-98"/>
      <use x="625.244141" xlink:href="#DejaVuSans-99"/>
      <use x="680.224609" xlink:href="#DejaVuSans-99"/>
      <use x="735.205078" xlink:href="#DejaVuSans-101"/>
      <use x="796.728516" xlink:href="#DejaVuSans-102"/>
      <use x="831.933594" xlink:href="#DejaVuSans-52"/>
      <use x="895.556641" xlink:href="#DejaVuSans-48"/>
      <use x="959.179688" xlink:href="#DejaVuSans-53"/>
      <use x="1022.802734" xlink:href="#DejaVuSans-100"/>
      <use x="1086.279297" xlink:href="#DejaVuSans-98"/>
      <use x="1149.755859" xlink:href="#DejaVuSans-48"/>
      <use x="1213.378906" xlink:href="#DejaVuSans-98"/>
      <use x="1276.855469" xlink:href="#DejaVuSans-50"/>
      <use x="1340.478516" xlink:href="#DejaVuSans-99"/>
      <use x="1395.458984" xlink:href="#DejaVuSans-48"/>
      <use x="1459.082031" xlink:href="#DejaVuSans-101"/>
      <use x="1520.605469" xlink:href="#DejaVuSans-51"/>
      <use x="1584.228516" xlink:href="#DejaVuSans-54"/>
      <use x="1647.851562" xlink:href="#DejaVuSans-99"/>
      <use x="1702.832031" xlink:href="#DejaVuSans-54"/>
      <use x="1766.455078" xlink:href="#DejaVuSans-51"/>
      <use x="1830.078125" xlink:href="#DejaVuSans-102"/>
      <use x="1865.283203" xlink:href="#DejaVuSans-102"/>
      <use x="1900.488281" xlink:href="#DejaVuSans-53"/>
      <use x="1964.111328" xlink:href="#DejaVuSans-56"/>
      <use x="2027.734375" xlink:href="#DejaVuSans-98"/>
      <use x="2091.210938" xlink:href="#DejaVuSans-49"/>
     </g>
    </g>
   </g>
   <g id="text_25">
    <g clip-path="url(#p11733e1105)">
     <!-- iso:dut -->
     <g transform="translate(22.243324 119.656896)scale(0.05 -0.05)">
      <defs>
       <path d="M 9.421875 54.6875 
L 18.40625 54.6875 
L 18.40625 0 
L 9.421875 0 
z
M 9.421875 75.984375 
L 18.40625 75.984375 
L 18.40625 64.59375 
L 9.421875 64.59375 
z
" id="DejaVuSans-105"/>
      </defs>
      <use xlink:href="#DejaVuSans-105"/>
      <use x="27.783203" xlink:href="#DejaVuSans-115"/>
      <use x="79.882812" xlink:href="#DejaVuSans-111"/>
      <use x="141.064453" xlink:href="#DejaVuSans-58"/>
      <use x="174.755859" xlink:href="#DejaVuSans-100"/>
      <use x="238.232422" xlink:href="#DejaVuSans-117"/>
      <use x="301.611328" xlink:href="#DejaVuSans-116"/>
     </g>
    </g>
   </g>
   <g id="text_26">
    <g clip-path="url(#p11733e1105)">
     <!-- _:f90b84a7bccef405db0b2c0e36c63ff58b2 -->
     <g transform="translate(227.181348 198.012367)scale(0.05 -0.05)">
      <use xlink:href="#DejaVuSans-95"/>
      <use x="50" xlink:href="#DejaVuSans-58"/>
      <use x="83.691406" xlink:href="#DejaVuSans-102"/>
      <use x="118.896484" xlink:href="#DejaVuSans-57"/>
      <use x="182.519531" xlink:href="#DejaVuSans-48"/>
      <use x="246.142578" xlink:href="#DejaVuSans-98"/>
      <use x="309.619141" xlink:href="#DejaVuSans-56"/>
      <use x="373.242188" xlink:href="#DejaVuSans-52"/>
      <use x="436.865234" xlink:href="#DejaVuSans-97"/>
      <use x="498.144531" xlink:href="#DejaVuSans-55"/>
      <use x="561.767578" xlink:href="#DejaVuSans-98"/>
      <use x="625.244141" xlink:href="#DejaVuSans-99"/>
      <use x="680.224609" xlink:href="#DejaVuSans-99"/>
      <use x="735.205078" xlink:href="#DejaVuSans-101"/>
      <use x="796.728516" xlink:href="#DejaVuSans-102"/>
      <use x="831.933594" xlink:href="#DejaVuSans-52"/>
      <use x="895.556641" xlink:href="#DejaVuSans-48"/>
      <use x="959.179688" xlink:href="#DejaVuSans-53"/>
      <use x="1022.802734" xlink:href="#DejaVuSans-100"/>
      <use x="1086.279297" xlink:href="#DejaVuSans-98"/>
      <use x="1149.755859" xlink:href="#DejaVuSans-48"/>
      <use x="1213.378906" xlink:href="#DejaVuSans-98"/>
      <use x="1276.855469" xlink:href="#DejaVuSans-50"/>
      <use x="1340.478516" xlink:href="#DejaVuSans-99"/>
      <use x="1395.458984" xlink:href="#DejaVuSans-48"/>
      <use x="1459.082031" xlink:href="#DejaVuSans-101"/>
      <use x="1520.605469" xlink:href="#DejaVuSans-51"/>
      <use x="1584.228516" xlink:href="#DejaVuSans-54"/>
      <use x="1647.851562" xlink:href="#DejaVuSans-99"/>
      <use x="1702.832031" xlink:href="#DejaVuSans-54"/>
      <use x="1766.455078" xlink:href="#DejaVuSans-51"/>
      <use x="1830.078125" xlink:href="#DejaVuSans-102"/>
      <use x="1865.283203" xlink:href="#DejaVuSans-102"/>
      <use x="1900.488281" xlink:href="#DejaVuSans-53"/>
      <use x="1964.111328" xlink:href="#DejaVuSans-56"/>
      <use x="2027.734375" xlink:href="#DejaVuSans-98"/>
      <use x="2091.210938" xlink:href="#DejaVuSans-50"/>
     </g>
    </g>
   </g>
   <g id="text_27">
    <g clip-path="url(#p11733e1105)">
     <!-- oa:Target -->
     <g transform="translate(292.623269 223.532881)scale(0.05 -0.05)">
      <use xlink:href="#DejaVuSans-111"/>
      <use x="61.181641" xlink:href="#DejaVuSans-97"/>
      <use x="122.460938" xlink:href="#DejaVuSans-58"/>
      <use x="156.152344" xlink:href="#DejaVuSans-84"/>
      <use x="200.736328" xlink:href="#DejaVuSans-97"/>
      <use x="262.015625" xlink:href="#DejaVuSans-114"/>
      <use x="301.378906" xlink:href="#DejaVuSans-103"/>
      <use x="364.855469" xlink:href="#DejaVuSans-101"/>
      <use x="426.378906" xlink:href="#DejaVuSans-116"/>
     </g>
    </g>
   </g>
   <g id="text_28">
    <g clip-path="url(#p11733e1105)">
     <!-- _:f90b84a7bccef405db0b2c0e36c63ff58b3 -->
     <g transform="translate(320.326576 194.378077)scale(0.05 -0.05)">
      <use xlink:href="#DejaVuSans-95"/>
      <use x="50" xlink:href="#DejaVuSans-58"/>
      <use x="83.691406" xlink:href="#DejaVuSans-102"/>
      <use x="118.896484" xlink:href="#DejaVuSans-57"/>
      <use x="182.519531" xlink:href="#DejaVuSans-48"/>
      <use x="246.142578" xlink:href="#DejaVuSans-98"/>
      <use x="309.619141" xlink:href="#DejaVuSans-56"/>
      <use x="373.242188" xlink:href="#DejaVuSans-52"/>
      <use x="436.865234" xlink:href="#DejaVuSans-97"/>
      <use x="498.144531" xlink:href="#DejaVuSans-55"/>
      <use x="561.767578" xlink:href="#DejaVuSans-98"/>
      <use x="625.244141" xlink:href="#DejaVuSans-99"/>
      <use x="680.224609" xlink:href="#DejaVuSans-99"/>
      <use x="735.205078" xlink:href="#DejaVuSans-101"/>
      <use x="796.728516" xlink:href="#DejaVuSans-102"/>
      <use x="831.933594" xlink:href="#DejaVuSans-52"/>
      <use x="895.556641" xlink:href="#DejaVuSans-48"/>
      <use x="959.179688" xlink:href="#DejaVuSans-53"/>
      <use x="1022.802734" xlink:href="#DejaVuSans-100"/>
      <use x="1086.279297" xlink:href="#DejaVuSans-98"/>
      <use x="1149.755859" xlink:href="#DejaVuSans-48"/>
      <use x="1213.378906" xlink:href="#DejaVuSans-98"/>
      <use x="1276.855469" xlink:href="#DejaVuSans-50"/>
      <use x="1340.478516" xlink:href="#DejaVuSans-99"/>
      <use x="1395.458984" xlink:href="#DejaVuSans-48"/>
      <use x="1459.082031" xlink:href="#DejaVuSans-101"/>
      <use x="1520.605469" xlink:href="#DejaVuSans-51"/>
      <use x="1584.228516" xlink:href="#DejaVuSans-54"/>
      <use x="1647.851562" xlink:href="#DejaVuSans-99"/>
      <use x="1702.832031" xlink:href="#DejaVuSans-54"/>
      <use x="1766.455078" xlink:href="#DejaVuSans-51"/>
      <use x="1830.078125" xlink:href="#DejaVuSans-102"/>
      <use x="1865.283203" xlink:href="#DejaVuSans-102"/>
      <use x="1900.488281" xlink:href="#DejaVuSans-53"/>
      <use x="1964.111328" xlink:href="#DejaVuSans-56"/>
      <use x="2027.734375" xlink:href="#DejaVuSans-98"/>
      <use x="2091.210938" xlink:href="#DejaVuSans-51"/>
     </g>
    </g>
   </g>
   <g id="text_29">
    <g clip-path="url(#p11733e1105)">
     <!-- &lt;http://www.w3.org/TR/media-frags/&gt; -->
     <g transform="translate(365.081362 163.953631)scale(0.05 -0.05)">
      <defs>
       <path d="M 73.1875 49.21875 
L 22.796875 31.296875 
L 73.1875 13.484375 
L 73.1875 4.59375 
L 10.59375 27.296875 
L 10.59375 35.40625 
L 73.1875 58.109375 
z
" id="DejaVuSans-60"/>
       <path d="M 25.390625 72.90625 
L 33.6875 72.90625 
L 8.296875 -9.28125 
L 0 -9.28125 
z
" id="DejaVuSans-47"/>
       <path d="M 4.203125 54.6875 
L 13.1875 54.6875 
L 24.421875 12.015625 
L 35.59375 54.6875 
L 46.1875 54.6875 
L 57.421875 12.015625 
L 68.609375 54.6875 
L 77.59375 54.6875 
L 63.28125 0 
L 52.6875 0 
L 40.921875 44.828125 
L 29.109375 0 
L 18.5 0 
z
" id="DejaVuSans-119"/>
       <path d="M 10.6875 12.40625 
L 21 12.40625 
L 21 0 
L 10.6875 0 
z
" id="DejaVuSans-46"/>
       <path d="M 44.390625 34.1875 
Q 47.5625 33.109375 50.5625 29.59375 
Q 53.5625 26.078125 56.59375 19.921875 
L 66.609375 0 
L 56 0 
L 46.6875 18.703125 
Q 43.0625 26.03125 39.671875 28.421875 
Q 36.28125 30.8125 30.421875 30.8125 
L 19.671875 30.8125 
L 19.671875 0 
L 9.8125 0 
L 9.8125 72.90625 
L 32.078125 72.90625 
Q 44.578125 72.90625 50.734375 67.671875 
Q 56.890625 62.453125 56.890625 51.90625 
Q 56.890625 45.015625 53.6875 40.46875 
Q 50.484375 35.9375 44.390625 34.1875 
z
M 19.671875 64.796875 
L 19.671875 38.921875 
L 32.078125 38.921875 
Q 39.203125 38.921875 42.84375 42.21875 
Q 46.484375 45.515625 46.484375 51.90625 
Q 46.484375 58.296875 42.84375 61.546875 
Q 39.203125 64.796875 32.078125 64.796875 
z
" id="DejaVuSans-82"/>
       <path d="M 10.59375 49.21875 
L 10.59375 58.109375 
L 73.1875 35.40625 
L 73.1875 27.296875 
L 10.59375 4.59375 
L 10.59375 13.484375 
L 60.890625 31.296875 
z
" id="DejaVuSans-62"/>
      </defs>
      <use xlink:href="#DejaVuSans-60"/>
      <use x="83.789062" xlink:href="#DejaVuSans-104"/>
      <use x="147.167969" xlink:href="#DejaVuSans-116"/>
      <use x="186.376953" xlink:href="#DejaVuSans-116"/>
      <use x="225.585938" xlink:href="#DejaVuSans-112"/>
      <use x="289.0625" xlink:href="#DejaVuSans-58"/>
      <use x="322.753906" xlink:href="#DejaVuSans-47"/>
      <use x="356.445312" xlink:href="#DejaVuSans-47"/>
      <use x="390.136719" xlink:href="#DejaVuSans-119"/>
      <use x="471.923828" xlink:href="#DejaVuSans-119"/>
      <use x="553.710938" xlink:href="#DejaVuSans-119"/>
      <use x="626.373047" xlink:href="#DejaVuSans-46"/>
      <use x="658.160156" xlink:href="#DejaVuSans-119"/>
      <use x="739.947266" xlink:href="#DejaVuSans-51"/>
      <use x="803.570312" xlink:href="#DejaVuSans-46"/>
      <use x="835.357422" xlink:href="#DejaVuSans-111"/>
      <use x="896.539062" xlink:href="#DejaVuSans-114"/>
      <use x="935.902344" xlink:href="#DejaVuSans-103"/>
      <use x="999.378906" xlink:href="#DejaVuSans-47"/>
      <use x="1033.070312" xlink:href="#DejaVuSans-84"/>
      <use x="1094.154297" xlink:href="#DejaVuSans-82"/>
      <use x="1163.636719" xlink:href="#DejaVuSans-47"/>
      <use x="1197.328125" xlink:href="#DejaVuSans-109"/>
      <use x="1294.740234" xlink:href="#DejaVuSans-101"/>
      <use x="1356.263672" xlink:href="#DejaVuSans-100"/>
      <use x="1419.740234" xlink:href="#DejaVuSans-105"/>
      <use x="1447.523438" xlink:href="#DejaVuSans-97"/>
      <use x="1508.802734" xlink:href="#DejaVuSans-45"/>
      <use x="1544.886719" xlink:href="#DejaVuSans-102"/>
      <use x="1580.091797" xlink:href="#DejaVuSans-114"/>
      <use x="1621.205078" xlink:href="#DejaVuSans-97"/>
      <use x="1682.484375" xlink:href="#DejaVuSans-103"/>
      <use x="1745.960938" xlink:href="#DejaVuSans-115"/>
      <use x="1798.060547" xlink:href="#DejaVuSans-47"/>
      <use x="1831.751953" xlink:href="#DejaVuSans-62"/>
     </g>
    </g>
   </g>
   <g id="text_30">
    <g clip-path="url(#p11733e1105)">
     <!-- orcid:0000-0002-2146-4803 -->
     <g transform="translate(181.468783 85.533847)scale(0.05 -0.05)">
      <use xlink:href="#DejaVuSans-111"/>
      <use x="61.181641" xlink:href="#DejaVuSans-114"/>
      <use x="100.044922" xlink:href="#DejaVuSans-99"/>
      <use x="155.025391" xlink:href="#DejaVuSans-105"/>
      <use x="182.808594" xlink:href="#DejaVuSans-100"/>
      <use x="246.285156" xlink:href="#DejaVuSans-58"/>
      <use x="279.976562" xlink:href="#DejaVuSans-48"/>
      <use x="343.599609" xlink:href="#DejaVuSans-48"/>
      <use x="407.222656" xlink:href="#DejaVuSans-48"/>
      <use x="470.845703" xlink:href="#DejaVuSans-48"/>
      <use x="534.46875" xlink:href="#DejaVuSans-45"/>
      <use x="570.552734" xlink:href="#DejaVuSans-48"/>
      <use x="634.175781" xlink:href="#DejaVuSans-48"/>
      <use x="697.798828" xlink:href="#DejaVuSans-48"/>
      <use x="761.421875" xlink:href="#DejaVuSans-50"/>
      <use x="825.044922" xlink:href="#DejaVuSans-45"/>
      <use x="861.128906" xlink:href="#DejaVuSans-50"/>
      <use x="924.751953" xlink:href="#DejaVuSans-49"/>
      <use x="988.375" xlink:href="#DejaVuSans-52"/>
      <use x="1051.998047" xlink:href="#DejaVuSans-54"/>
      <use x="1115.621094" xlink:href="#DejaVuSans-45"/>
      <use x="1151.705078" xlink:href="#DejaVuSans-52"/>
      <use x="1215.328125" xlink:href="#DejaVuSans-56"/>
      <use x="1278.951172" xlink:href="#DejaVuSans-48"/>
      <use x="1342.574219" xlink:href="#DejaVuSans-51"/>
     </g>
    </g>
   </g>
   <g id="text_31">
    <g clip-path="url(#p11733e1105)">
     <!-- foaf:Person -->
     <g transform="translate(218.076133 42.256051)scale(0.05 -0.05)">
      <use xlink:href="#DejaVuSans-102"/>
      <use x="35.205078" xlink:href="#DejaVuSans-111"/>
      <use x="96.386719" xlink:href="#DejaVuSans-97"/>
      <use x="157.666016" xlink:href="#DejaVuSans-102"/>
      <use x="189.246094" xlink:href="#DejaVuSans-58"/>
      <use x="222.9375" xlink:href="#DejaVuSans-80"/>
      <use x="279.615234" xlink:href="#DejaVuSans-101"/>
      <use x="341.138672" xlink:href="#DejaVuSans-114"/>
      <use x="382.251953" xlink:href="#DejaVuSans-115"/>
      <use x="434.351562" xlink:href="#DejaVuSans-111"/>
      <use x="495.533203" xlink:href="#DejaVuSans-110"/>
     </g>
    </g>
   </g>
   <g id="text_32">
    <g clip-path="url(#p11733e1105)">
     <!-- "10 April 1821"@dut -->
     <g transform="translate(18.549398 94.59425)scale(0.05 -0.05)">
      <defs>
       <path id="DejaVuSans-32"/>
       <path d="M 34.1875 63.1875 
L 20.796875 26.90625 
L 47.609375 26.90625 
z
M 28.609375 72.90625 
L 39.796875 72.90625 
L 67.578125 0 
L 57.328125 0 
L 50.6875 18.703125 
L 17.828125 18.703125 
L 11.1875 0 
L 0.78125 0 
z
" id="DejaVuSans-65"/>
       <path d="M 37.203125 26.21875 
Q 37.203125 19.234375 40.671875 15.25 
Q 44.140625 11.28125 50.203125 11.28125 
Q 56.203125 11.28125 59.640625 15.28125 
Q 63.09375 19.28125 63.09375 26.21875 
Q 63.09375 33.0625 59.578125 37.078125 
Q 56.0625 41.109375 50.09375 41.109375 
Q 44.1875 41.109375 40.6875 37.109375 
Q 37.203125 33.109375 37.203125 26.21875 
z
M 63.8125 11.625 
Q 60.890625 7.859375 57.109375 6.078125 
Q 53.328125 4.296875 48.296875 4.296875 
Q 39.890625 4.296875 34.640625 10.375 
Q 29.390625 16.453125 29.390625 26.21875 
Q 29.390625 35.984375 34.65625 42.078125 
Q 39.9375 48.1875 48.296875 48.1875 
Q 53.328125 48.1875 57.125 46.359375 
Q 60.9375 44.53125 63.8125 40.828125 
L 63.8125 47.21875 
L 70.796875 47.21875 
L 70.796875 11.28125 
Q 77.9375 12.359375 81.953125 17.796875 
Q 85.984375 23.25 85.984375 31.890625 
Q 85.984375 37.109375 84.4375 41.703125 
Q 82.90625 46.296875 79.78125 50.203125 
Q 74.703125 56.59375 67.40625 59.984375 
Q 60.109375 63.375 51.515625 63.375 
Q 45.515625 63.375 39.984375 61.78125 
Q 34.46875 60.203125 29.78125 57.078125 
Q 22.125 52.09375 17.796875 44.015625 
Q 13.484375 35.9375 13.484375 26.515625 
Q 13.484375 18.75 16.28125 11.953125 
Q 19.09375 5.171875 24.421875 0 
Q 29.546875 -5.078125 36.28125 -7.734375 
Q 43.015625 -10.40625 50.6875 -10.40625 
Q 56.984375 -10.40625 63.0625 -8.28125 
Q 69.140625 -6.15625 74.21875 -2.203125 
L 78.609375 -7.625 
Q 72.515625 -12.359375 65.3125 -14.875 
Q 58.109375 -17.390625 50.6875 -17.390625 
Q 41.65625 -17.390625 33.640625 -14.1875 
Q 25.640625 -10.984375 19.390625 -4.890625 
Q 13.140625 1.21875 9.859375 9.25 
Q 6.59375 17.28125 6.59375 26.515625 
Q 6.59375 35.40625 9.90625 43.453125 
Q 13.234375 51.515625 19.390625 57.625 
Q 25.6875 63.8125 33.9375 67.109375 
Q 42.1875 70.40625 51.421875 70.40625 
Q 61.765625 70.40625 70.625 66.15625 
Q 79.5 61.921875 85.5 54.109375 
Q 89.15625 49.3125 91.078125 43.703125 
Q 93.015625 38.09375 93.015625 32.078125 
Q 93.015625 19.234375 85.25 11.8125 
Q 77.484375 4.390625 63.8125 4.109375 
z
" id="DejaVuSans-64"/>
      </defs>
      <use xlink:href="#DejaVuSans-34"/>
      <use x="45.996094" xlink:href="#DejaVuSans-49"/>
      <use x="109.619141" xlink:href="#DejaVuSans-48"/>
      <use x="173.242188" xlink:href="#DejaVuSans-32"/>
      <use x="205.029297" xlink:href="#DejaVuSans-65"/>
      <use x="273.4375" xlink:href="#DejaVuSans-112"/>
      <use x="336.914062" xlink:href="#DejaVuSans-114"/>
      <use x="378.027344" xlink:href="#DejaVuSans-105"/>
      <use x="405.810547" xlink:href="#DejaVuSans-108"/>
      <use x="433.59375" xlink:href="#DejaVuSans-32"/>
      <use x="465.380859" xlink:href="#DejaVuSans-49"/>
      <use x="529.003906" xlink:href="#DejaVuSans-56"/>
      <use x="592.626953" xlink:href="#DejaVuSans-50"/>
      <use x="656.25" xlink:href="#DejaVuSans-49"/>
      <use x="719.873047" xlink:href="#DejaVuSans-34"/>
      <use x="765.869141" xlink:href="#DejaVuSans-64"/>
      <use x="865.869141" xlink:href="#DejaVuSans-100"/>
      <use x="929.345703" xlink:href="#DejaVuSans-117"/>
      <use x="992.724609" xlink:href="#DejaVuSans-116"/>
     </g>
    </g>
   </g>
   <g id="text_33">
    <g clip-path="url(#p11733e1105)">
     <!-- ex:MMNAT01_AF_NNM001001033_004.jpg -->
     <g transform="translate(230.333999 274.994835)scale(0.05 -0.05)">
      <defs>
       <path d="M 54.890625 54.6875 
L 35.109375 28.078125 
L 55.90625 0 
L 45.3125 0 
L 29.390625 21.484375 
L 13.484375 0 
L 2.875 0 
L 24.125 28.609375 
L 4.6875 54.6875 
L 15.28125 54.6875 
L 29.78125 35.203125 
L 44.28125 54.6875 
z
" id="DejaVuSans-120"/>
       <path d="M 9.8125 72.90625 
L 24.515625 72.90625 
L 43.109375 23.296875 
L 61.8125 72.90625 
L 76.515625 72.90625 
L 76.515625 0 
L 66.890625 0 
L 66.890625 64.015625 
L 48.09375 14.015625 
L 38.1875 14.015625 
L 19.390625 64.015625 
L 19.390625 0 
L 9.8125 0 
z
" id="DejaVuSans-77"/>
       <path d="M 9.8125 72.90625 
L 23.09375 72.90625 
L 55.421875 11.921875 
L 55.421875 72.90625 
L 64.984375 72.90625 
L 64.984375 0 
L 51.703125 0 
L 19.390625 60.984375 
L 19.390625 0 
L 9.8125 0 
z
" id="DejaVuSans-78"/>
       <path d="M 9.8125 72.90625 
L 51.703125 72.90625 
L 51.703125 64.59375 
L 19.671875 64.59375 
L 19.671875 43.109375 
L 48.578125 43.109375 
L 48.578125 34.8125 
L 19.671875 34.8125 
L 19.671875 0 
L 9.8125 0 
z
" id="DejaVuSans-70"/>
       <path d="M 9.421875 54.6875 
L 18.40625 54.6875 
L 18.40625 -0.984375 
Q 18.40625 -11.421875 14.421875 -16.109375 
Q 10.453125 -20.796875 1.609375 -20.796875 
L -1.8125 -20.796875 
L -1.8125 -13.1875 
L 0.59375 -13.1875 
Q 5.71875 -13.1875 7.5625 -10.8125 
Q 9.421875 -8.453125 9.421875 -0.984375 
z
M 9.421875 75.984375 
L 18.40625 75.984375 
L 18.40625 64.59375 
L 9.421875 64.59375 
z
" id="DejaVuSans-106"/>
      </defs>
      <use xlink:href="#DejaVuSans-101"/>
      <use x="59.773438" xlink:href="#DejaVuSans-120"/>
      <use x="118.953125" xlink:href="#DejaVuSans-58"/>
      <use x="152.644531" xlink:href="#DejaVuSans-77"/>
      <use x="238.923828" xlink:href="#DejaVuSans-77"/>
      <use x="325.203125" xlink:href="#DejaVuSans-78"/>
      <use x="400.007812" xlink:href="#DejaVuSans-65"/>
      <use x="460.666016" xlink:href="#DejaVuSans-84"/>
      <use x="521.75" xlink:href="#DejaVuSans-48"/>
      <use x="585.373047" xlink:href="#DejaVuSans-49"/>
      <use x="648.996094" xlink:href="#DejaVuSans-95"/>
      <use x="698.996094" xlink:href="#DejaVuSans-65"/>
      <use x="767.404297" xlink:href="#DejaVuSans-70"/>
      <use x="824.923828" xlink:href="#DejaVuSans-95"/>
      <use x="874.923828" xlink:href="#DejaVuSans-78"/>
      <use x="949.728516" xlink:href="#DejaVuSans-78"/>
      <use x="1024.533203" xlink:href="#DejaVuSans-77"/>
      <use x="1110.8125" xlink:href="#DejaVuSans-48"/>
      <use x="1174.435547" xlink:href="#DejaVuSans-48"/>
      <use x="1238.058594" xlink:href="#DejaVuSans-49"/>
      <use x="1301.681641" xlink:href="#DejaVuSans-48"/>
      <use x="1365.304688" xlink:href="#DejaVuSans-48"/>
      <use x="1428.927734" xlink:href="#DejaVuSans-49"/>
      <use x="1492.550781" xlink:href="#DejaVuSans-48"/>
      <use x="1556.173828" xlink:href="#DejaVuSans-51"/>
      <use x="1619.796875" xlink:href="#DejaVuSans-51"/>
      <use x="1683.419922" xlink:href="#DejaVuSans-95"/>
      <use x="1733.419922" xlink:href="#DejaVuSans-48"/>
      <use x="1797.042969" xlink:href="#DejaVuSans-48"/>
      <use x="1860.666016" xlink:href="#DejaVuSans-52"/>
      <use x="1924.289062" xlink:href="#DejaVuSans-46"/>
      <use x="1956.076172" xlink:href="#DejaVuSans-106"/>
      <use x="1983.859375" xlink:href="#DejaVuSans-112"/>
      <use x="2047.335938" xlink:href="#DejaVuSans-103"/>
     </g>
    </g>
   </g>
   <g id="text_34">
    <g clip-path="url(#p11733e1105)">
     <!-- dcmitype:StillImage -->
     <g transform="translate(293.20218 308.954492)scale(0.05 -0.05)">
      <defs>
       <path d="M 9.8125 72.90625 
L 19.671875 72.90625 
L 19.671875 0 
L 9.8125 0 
z
" id="DejaVuSans-73"/>
      </defs>
      <use xlink:href="#DejaVuSans-100"/>
      <use x="63.476562" xlink:href="#DejaVuSans-99"/>
      <use x="118.457031" xlink:href="#DejaVuSans-109"/>
      <use x="215.869141" xlink:href="#DejaVuSans-105"/>
      <use x="243.652344" xlink:href="#DejaVuSans-116"/>
      <use x="282.861328" xlink:href="#DejaVuSans-121"/>
      <use x="342.041016" xlink:href="#DejaVuSans-112"/>
      <use x="405.517578" xlink:href="#DejaVuSans-101"/>
      <use x="467.041016" xlink:href="#DejaVuSans-58"/>
      <use x="500.732422" xlink:href="#DejaVuSans-83"/>
      <use x="564.208984" xlink:href="#DejaVuSans-116"/>
      <use x="603.417969" xlink:href="#DejaVuSans-105"/>
      <use x="631.201172" xlink:href="#DejaVuSans-108"/>
      <use x="658.984375" xlink:href="#DejaVuSans-108"/>
      <use x="686.767578" xlink:href="#DejaVuSans-73"/>
      <use x="716.259766" xlink:href="#DejaVuSans-109"/>
      <use x="813.671875" xlink:href="#DejaVuSans-97"/>
      <use x="874.951172" xlink:href="#DejaVuSans-103"/>
      <use x="938.427734" xlink:href="#DejaVuSans-101"/>
     </g>
    </g>
   </g>
   <g id="text_35">
    <g clip-path="url(#p11733e1105)">
     <!-- foaf:Image -->
     <g transform="translate(237.02734 308.695919)scale(0.05 -0.05)">
      <use xlink:href="#DejaVuSans-102"/>
      <use x="35.205078" xlink:href="#DejaVuSans-111"/>
      <use x="96.386719" xlink:href="#DejaVuSans-97"/>
      <use x="157.666016" xlink:href="#DejaVuSans-102"/>
      <use x="189.246094" xlink:href="#DejaVuSans-58"/>
      <use x="222.9375" xlink:href="#DejaVuSans-73"/>
      <use x="252.429688" xlink:href="#DejaVuSans-109"/>
      <use x="349.841797" xlink:href="#DejaVuSans-97"/>
      <use x="411.121094" xlink:href="#DejaVuSans-103"/>
      <use x="474.597656" xlink:href="#DejaVuSans-101"/>
     </g>
    </g>
   </g>
   <g id="text_36">
    <g clip-path="url(#p11733e1105)">
     <!-- oa:Annotation -->
     <g transform="translate(146.630114 163.072349)scale(0.05 -0.05)">
      <use xlink:href="#DejaVuSans-111"/>
      <use x="61.181641" xlink:href="#DejaVuSans-97"/>
      <use x="122.460938" xlink:href="#DejaVuSans-58"/>
      <use x="156.152344" xlink:href="#DejaVuSans-65"/>
      <use x="224.560547" xlink:href="#DejaVuSans-110"/>
      <use x="287.939453" xlink:href="#DejaVuSans-110"/>
      <use x="351.318359" xlink:href="#DejaVuSans-111"/>
      <use x="412.5" xlink:href="#DejaVuSans-116"/>
      <use x="451.708984" xlink:href="#DejaVuSans-97"/>
      <use x="512.988281" xlink:href="#DejaVuSans-116"/>
      <use x="552.197266" xlink:href="#DejaVuSans-105"/>
      <use x="579.980469" xlink:href="#DejaVuSans-111"/>
      <use x="641.162109" xlink:href="#DejaVuSans-110"/>
     </g>
    </g>
   </g>
   <g id="text_37">
    <g clip-path="url(#p11733e1105)">
     <!-- "xywh=0.672574339819018,0.030544471154748218,0.06203976435935199,0.01601620029455081" -->
     <g transform="translate(300.557067 191.807822)scale(0.05 -0.05)">
      <defs>
       <path d="M 10.59375 45.40625 
L 73.1875 45.40625 
L 73.1875 37.203125 
L 10.59375 37.203125 
z
M 10.59375 25.484375 
L 73.1875 25.484375 
L 73.1875 17.1875 
L 10.59375 17.1875 
z
" id="DejaVuSans-61"/>
       <path d="M 11.71875 12.40625 
L 22.015625 12.40625 
L 22.015625 4 
L 14.015625 -11.625 
L 7.71875 -11.625 
L 11.71875 4 
z
" id="DejaVuSans-44"/>
      </defs>
      <use xlink:href="#DejaVuSans-34"/>
      <use x="45.996094" xlink:href="#DejaVuSans-120"/>
      <use x="105.175781" xlink:href="#DejaVuSans-121"/>
      <use x="164.355469" xlink:href="#DejaVuSans-119"/>
      <use x="246.142578" xlink:href="#DejaVuSans-104"/>
      <use x="309.521484" xlink:href="#DejaVuSans-61"/>
      <use x="393.310547" xlink:href="#DejaVuSans-48"/>
      <use x="456.933594" xlink:href="#DejaVuSans-46"/>
      <use x="488.720703" xlink:href="#DejaVuSans-54"/>
      <use x="552.34375" xlink:href="#DejaVuSans-55"/>
      <use x="615.966797" xlink:href="#DejaVuSans-50"/>
      <use x="679.589844" xlink:href="#DejaVuSans-53"/>
      <use x="743.212891" xlink:href="#DejaVuSans-55"/>
      <use x="806.835938" xlink:href="#DejaVuSans-52"/>
      <use x="870.458984" xlink:href="#DejaVuSans-51"/>
      <use x="934.082031" xlink:href="#DejaVuSans-51"/>
      <use x="997.705078" xlink:href="#DejaVuSans-57"/>
      <use x="1061.328125" xlink:href="#DejaVuSans-56"/>
      <use x="1124.951172" xlink:href="#DejaVuSans-49"/>
      <use x="1188.574219" xlink:href="#DejaVuSans-57"/>
      <use x="1252.197266" xlink:href="#DejaVuSans-48"/>
      <use x="1315.820312" xlink:href="#DejaVuSans-49"/>
      <use x="1379.443359" xlink:href="#DejaVuSans-56"/>
      <use x="1443.066406" xlink:href="#DejaVuSans-44"/>
      <use x="1474.853516" xlink:href="#DejaVuSans-48"/>
      <use x="1538.476562" xlink:href="#DejaVuSans-46"/>
      <use x="1570.263672" xlink:href="#DejaVuSans-48"/>
      <use x="1633.886719" xlink:href="#DejaVuSans-51"/>
      <use x="1697.509766" xlink:href="#DejaVuSans-48"/>
      <use x="1761.132812" xlink:href="#DejaVuSans-53"/>
      <use x="1824.755859" xlink:href="#DejaVuSans-52"/>
      <use x="1888.378906" xlink:href="#DejaVuSans-52"/>
      <use x="1952.001953" xlink:href="#DejaVuSans-52"/>
      <use x="2015.625" xlink:href="#DejaVuSans-55"/>
      <use x="2079.248047" xlink:href="#DejaVuSans-49"/>
      <use x="2142.871094" xlink:href="#DejaVuSans-49"/>
      <use x="2206.494141" xlink:href="#DejaVuSans-53"/>
      <use x="2270.117188" xlink:href="#DejaVuSans-52"/>
      <use x="2333.740234" xlink:href="#DejaVuSans-55"/>
      <use x="2397.363281" xlink:href="#DejaVuSans-52"/>
      <use x="2460.986328" xlink:href="#DejaVuSans-56"/>
      <use x="2524.609375" xlink:href="#DejaVuSans-50"/>
      <use x="2588.232422" xlink:href="#DejaVuSans-49"/>
      <use x="2651.855469" xlink:href="#DejaVuSans-56"/>
      <use x="2715.478516" xlink:href="#DejaVuSans-44"/>
      <use x="2747.265625" xlink:href="#DejaVuSans-48"/>
      <use x="2810.888672" xlink:href="#DejaVuSans-46"/>
      <use x="2842.675781" xlink:href="#DejaVuSans-48"/>
      <use x="2906.298828" xlink:href="#DejaVuSans-54"/>
      <use x="2969.921875" xlink:href="#DejaVuSans-50"/>
      <use x="3033.544922" xlink:href="#DejaVuSans-48"/>
      <use x="3097.167969" xlink:href="#DejaVuSans-51"/>
      <use x="3160.791016" xlink:href="#DejaVuSans-57"/>
      <use x="3224.414062" xlink:href="#DejaVuSans-55"/>
      <use x="3288.037109" xlink:href="#DejaVuSans-54"/>
      <use x="3351.660156" xlink:href="#DejaVuSans-52"/>
      <use x="3415.283203" xlink:href="#DejaVuSans-51"/>
      <use x="3478.90625" xlink:href="#DejaVuSans-53"/>
      <use x="3542.529297" xlink:href="#DejaVuSans-57"/>
      <use x="3606.152344" xlink:href="#DejaVuSans-51"/>
      <use x="3669.775391" xlink:href="#DejaVuSans-53"/>
      <use x="3733.398438" xlink:href="#DejaVuSans-49"/>
      <use x="3797.021484" xlink:href="#DejaVuSans-57"/>
      <use x="3860.644531" xlink:href="#DejaVuSans-57"/>
      <use x="3924.267578" xlink:href="#DejaVuSans-44"/>
      <use x="3956.054688" xlink:href="#DejaVuSans-48"/>
      <use x="4019.677734" xlink:href="#DejaVuSans-46"/>
      <use x="4051.464844" xlink:href="#DejaVuSans-48"/>
      <use x="4115.087891" xlink:href="#DejaVuSans-49"/>
      <use x="4178.710938" xlink:href="#DejaVuSans-54"/>
      <use x="4242.333984" xlink:href="#DejaVuSans-48"/>
      <use x="4305.957031" xlink:href="#DejaVuSans-49"/>
      <use x="4369.580078" xlink:href="#DejaVuSans-54"/>
      <use x="4433.203125" xlink:href="#DejaVuSans-50"/>
      <use x="4496.826172" xlink:href="#DejaVuSans-48"/>
      <use x="4560.449219" xlink:href="#DejaVuSans-48"/>
      <use x="4624.072266" xlink:href="#DejaVuSans-50"/>
      <use x="4687.695312" xlink:href="#DejaVuSans-57"/>
      <use x="4751.318359" xlink:href="#DejaVuSans-52"/>
      <use x="4814.941406" xlink:href="#DejaVuSans-53"/>
      <use x="4878.564453" xlink:href="#DejaVuSans-53"/>
      <use x="4942.1875" xlink:href="#DejaVuSans-48"/>
      <use x="5005.810547" xlink:href="#DejaVuSans-56"/>
      <use x="5069.433594" xlink:href="#DejaVuSans-49"/>
      <use x="5133.056641" xlink:href="#DejaVuSans-34"/>
     </g>
    </g>
   </g>
   <g id="text_38">
    <g clip-path="url(#p11733e1105)">
     <!-- oa:FragmentSelector -->
     <g transform="translate(391.426841 220.865972)scale(0.05 -0.05)">
      <use xlink:href="#DejaVuSans-111"/>
      <use x="61.181641" xlink:href="#DejaVuSans-97"/>
      <use x="122.460938" xlink:href="#DejaVuSans-58"/>
      <use x="156.152344" xlink:href="#DejaVuSans-70"/>
      <use x="206.421875" xlink:href="#DejaVuSans-114"/>
      <use x="247.535156" xlink:href="#DejaVuSans-97"/>
      <use x="308.814453" xlink:href="#DejaVuSans-103"/>
      <use x="372.291016" xlink:href="#DejaVuSans-109"/>
      <use x="469.703125" xlink:href="#DejaVuSans-101"/>
      <use x="531.226562" xlink:href="#DejaVuSans-110"/>
      <use x="594.605469" xlink:href="#DejaVuSans-116"/>
      <use x="633.814453" xlink:href="#DejaVuSans-83"/>
      <use x="697.291016" xlink:href="#DejaVuSans-101"/>
      <use x="758.814453" xlink:href="#DejaVuSans-108"/>
      <use x="786.597656" xlink:href="#DejaVuSans-101"/>
      <use x="848.121094" xlink:href="#DejaVuSans-99"/>
      <use x="903.101562" xlink:href="#DejaVuSans-116"/>
      <use x="942.310547" xlink:href="#DejaVuSans-111"/>
      <use x="1003.492188" xlink:href="#DejaVuSans-114"/>
     </g>
    </g>
   </g>
   <g id="text_39">
    <g clip-path="url(#p11733e1105)">
     <!-- oa:Source -->
     <g transform="translate(272.153395 322.183324)scale(0.05 -0.05)">
      <use xlink:href="#DejaVuSans-111"/>
      <use x="61.181641" xlink:href="#DejaVuSans-97"/>
      <use x="122.460938" xlink:href="#DejaVuSans-58"/>
      <use x="156.152344" xlink:href="#DejaVuSans-83"/>
      <use x="219.628906" xlink:href="#DejaVuSans-111"/>
      <use x="280.810547" xlink:href="#DejaVuSans-117"/>
      <use x="344.189453" xlink:href="#DejaVuSans-114"/>
      <use x="383.052734" xlink:href="#DejaVuSans-99"/>
      <use x="438.033203" xlink:href="#DejaVuSans-101"/>
     </g>
    </g>
   </g>
   <g id="text_40">
    <g clip-path="url(#p11733e1105)">
     <!-- "image/jpeg" -->
     <g transform="translate(287.85643 169.439571)scale(0.05 -0.05)">
      <use xlink:href="#DejaVuSans-34"/>
      <use x="45.996094" xlink:href="#DejaVuSans-105"/>
      <use x="73.779297" xlink:href="#DejaVuSans-109"/>
      <use x="171.191406" xlink:href="#DejaVuSans-97"/>
      <use x="232.470703" xlink:href="#DejaVuSans-103"/>
      <use x="295.947266" xlink:href="#DejaVuSans-101"/>
      <use x="357.470703" xlink:href="#DejaVuSans-47"/>
      <use x="391.162109" xlink:href="#DejaVuSans-106"/>
      <use x="418.945312" xlink:href="#DejaVuSans-112"/>
      <use x="482.421875" xlink:href="#DejaVuSans-101"/>
      <use x="543.945312" xlink:href="#DejaVuSans-103"/>
      <use x="607.421875" xlink:href="#DejaVuSans-34"/>
     </g>
    </g>
   </g>
   <g id="text_41">
    <g clip-path="url(#p11733e1105)">
     <!-- oa:TextualBody -->
     <g transform="translate(57.44321 84.14103)scale(0.05 -0.05)">
      <use xlink:href="#DejaVuSans-111"/>
      <use x="61.181641" xlink:href="#DejaVuSans-97"/>
      <use x="122.460938" xlink:href="#DejaVuSans-58"/>
      <use x="156.152344" xlink:href="#DejaVuSans-84"/>
      <use x="200.236328" xlink:href="#DejaVuSans-101"/>
      <use x="260.009766" xlink:href="#DejaVuSans-120"/>
      <use x="319.189453" xlink:href="#DejaVuSans-116"/>
      <use x="358.398438" xlink:href="#DejaVuSans-117"/>
      <use x="421.777344" xlink:href="#DejaVuSans-97"/>
      <use x="483.056641" xlink:href="#DejaVuSans-108"/>
      <use x="510.839844" xlink:href="#DejaVuSans-66"/>
      <use x="579.443359" xlink:href="#DejaVuSans-111"/>
      <use x="640.625" xlink:href="#DejaVuSans-100"/>
      <use x="704.101562" xlink:href="#DejaVuSans-121"/>
     </g>
    </g>
   </g>
   <g id="text_42">
    <g clip-path="url(#p11733e1105)">
     <!-- "text/plain" -->
     <g transform="translate(47.948853 163.789905)scale(0.05 -0.05)">
      <use xlink:href="#DejaVuSans-34"/>
      <use x="45.996094" xlink:href="#DejaVuSans-116"/>
      <use x="85.205078" xlink:href="#DejaVuSans-101"/>
      <use x="144.978516" xlink:href="#DejaVuSans-120"/>
      <use x="204.158203" xlink:href="#DejaVuSans-116"/>
      <use x="243.367188" xlink:href="#DejaVuSans-47"/>
      <use x="277.058594" xlink:href="#DejaVuSans-112"/>
      <use x="340.535156" xlink:href="#DejaVuSans-108"/>
      <use x="368.318359" xlink:href="#DejaVuSans-97"/>
      <use x="429.597656" xlink:href="#DejaVuSans-105"/>
      <use x="457.380859" xlink:href="#DejaVuSans-110"/>
      <use x="520.759766" xlink:href="#DejaVuSans-34"/>
     </g>
    </g>
   </g>
   <g id="text_43">
    <g clip-path="url(#p11733e1105)">
     <!-- oa:describing -->
     <g transform="translate(17.846564 146.609878)scale(0.05 -0.05)">
      <use xlink:href="#DejaVuSans-111"/>
      <use x="61.181641" xlink:href="#DejaVuSans-97"/>
      <use x="122.460938" xlink:href="#DejaVuSans-58"/>
      <use x="156.152344" xlink:href="#DejaVuSans-100"/>
      <use x="219.628906" xlink:href="#DejaVuSans-101"/>
      <use x="281.152344" xlink:href="#DejaVuSans-115"/>
      <use x="333.251953" xlink:href="#DejaVuSans-99"/>
      <use x="388.232422" xlink:href="#DejaVuSans-114"/>
      <use x="429.345703" xlink:href="#DejaVuSans-105"/>
      <use x="457.128906" xlink:href="#DejaVuSans-98"/>
      <use x="520.605469" xlink:href="#DejaVuSans-105"/>
      <use x="548.388672" xlink:href="#DejaVuSans-110"/>
      <use x="611.767578" xlink:href="#DejaVuSans-103"/>
     </g>
    </g>
   </g>
   <g id="text_44">
    <!-- example_7_1.ttl -->
    <g transform="translate(182.659688 20.88)scale(0.12 -0.12)">
     <use xlink:href="#DejaVuSans-101"/>
     <use x="59.773438" xlink:href="#DejaVuSans-120"/>
     <use x="118.953125" xlink:href="#DejaVuSans-97"/>
     <use x="180.232422" xlink:href="#DejaVuSans-109"/>
     <use x="277.644531" xlink:href="#DejaVuSans-112"/>
     <use x="341.121094" xlink:href="#DejaVuSans-108"/>
     <use x="368.904297" xlink:href="#DejaVuSans-101"/>
     <use x="430.427734" xlink:href="#DejaVuSans-95"/>
     <use x="480.427734" xlink:href="#DejaVuSans-55"/>
     <use x="544.050781" xlink:href="#DejaVuSans-95"/>
     <use x="594.050781" xlink:href="#DejaVuSans-49"/>
     <use x="657.673828" xlink:href="#DejaVuSans-46"/>
     <use x="689.460938" xlink:href="#DejaVuSans-116"/>
     <use x="728.669922" xlink:href="#DejaVuSans-116"/>
     <use x="767.878906" xlink:href="#DejaVuSans-108"/>
    </g>
   </g>
  </g>
 </g>
 <defs>
  <clipPath id="p11733e1105">
   <rect height="307.92" width="439.2" x="10.8" y="26.88"/>
  </clipPath>
 </defs>
</svg>
